<?xml version="1.0" encoding="UTF-8"?>
<svg xmlns="http://www.w3.org/2000/svg" viewBox="0 0 756.25 535.52">
  <defs>
    <style>
      .cls-1 {
        fill: #aa9231;
      }

      .cls-2 {
        fill: #a7a960;
      }

      .cls-3 {
        fill: #56abc8;
      }

      .cls-4 {
        fill: #8d8e46;
      }

      .cls-5 {
        fill: #5c5c2c;
      }

      .cls-6 {
        fill: #ca9156;
      }

      .cls-7 {
        fill: #a25c26;
      }

      .cls-8 {
        fill: #8a8d4f;
      }

      .cls-9 {
        fill: #4a4a28;
      }

      .cls-10 {
        fill: #844b1f;
      }

      .cls-11 {
        fill: #5c5d2e;
      }

      .cls-12 {
        fill: #505228;
      }

      .cls-13 {
        opacity: .91;
      }

      .cls-14 {
        fill: #949550;
      }

      .cls-15 {
        fill: #ebdead;
      }

      .cls-16 {
        fill: #be7739;
      }

      .cls-17 {
        fill: #b5b668;
      }

      .cls-18 {
        fill: #737337;
      }

      .cls-19 {
        fill: #a2662f;
      }

      .cls-20 {
        fill: #887725;
      }

      .cls-21 {
        fill: #b6a133;
      }

      .cls-22 {
        fill: #229ad2;
      }

      .cls-23 {
        fill: #8a8944;
      }

      .cls-24 {
        fill: #88bdbf;
      }

      .cls-25 {
        fill: #9d9e58;
      }

      .cls-26 {
        fill: #727538;
      }
    </style>
  </defs>
  <g id="Sky">
    <g>
      <path class="cls-3" d="M640.83,391.81c1.15-.47,2.31-.95,3.45-1.44,10.23-4.34,19.32-9.66,30.57-10.55,8.63-.68,17.07-5.47,24.28-10.51,20.46-14.29,18.16-37,8.7-57.71-7.33-15.5-25.38-29.89-26.76-47.79-.33-4.28.5-8.32.69-12.51.68-15.7-5.42-40.62-14.66-53.46-7.29-10.13-18.24-14.23-27.7-21.65-35.74-28-26.58-85.31-82.91-89.47-24.44-1.81-48.93,1.87-71.32-11.05-25.45-14.68-33.58-51.05-63.29-59.05-21.73-5.85-36.92,5.71-57.01,9.87C316.98,36.41,278.51-2.23,230.81.53c-64.03,3.7-55,78.21-78.32,119.79-9.7,17.3-28.05,30.23-40.72,45.48-14.98,18.04-23.27,41.71-21.21,65.33,1.33,15.29,7,30.71.86,45.7-5.17,12.62-16.73,22.03-24.16,33.33-8,12.17-17.65,25.08-17.44,40.36.31,21.95,20.02,38.67,38.55,46.88,14.73,6.52,30.79,9.71,46.84,10.31,16.33.61,32.44-3.32,48.63-5.15,39.91-4.51,80.14-3.8,120.24-4.26,42.31,0,84.62-.83,126.93-1.65,19.53-.38,39.3-2.01,58.79-.61,19.87,1.42,39.53,5.16,59.47,5.7,20.09.55,40.63,2.31,60.61-.76,10.68-1.64,20.97-5.1,30.96-9.17Z"/>
      <g>
        <path class="cls-22" d="M228.6,1.24c33.1-3.19,50.69,8.05,79.02,19.76,3.59,1.48,8.55,2.45,11.58,3.91,2.88,1.39,2.25,3-.77,2.66-13.86-1.55-31.2-10.29-45.69-13.21-34.61-6.99-64.8-3.48-80.49,31.09-16.03,35.32-14.77,65.61-43.45,97.21-10.16,11.2-23.07,17.01-32.84,28.5-2.63,3.1-5.95,9.19-8.36,11.47-1.95,1.84-3.91,1.67-3.16-1.27.95-3.72,11.82-16.82,14.9-20.44,13-15.29,26.62-27.41,35.96-45.83C175.51,75.24,169.34,6.95,228.6,1.24Z"/>
        <path class="cls-22" d="M91.79,308.39c-.24-1.17.58-1.49,1.29-2.11,2.17-1.91,6.16-3.53,8.82-5.43,16.29-11.62,26.95-26.97,45.02-36.77,24.38-13.21,39.54-12.15,65.19-17.22,24.63-4.88,44.03-25.91,69.77-29.99,17.62-2.8,33.62,2.44,49.71,8.82l-1.4,1.43c-18.88-5.46-37.07-9.73-56.02-1.86-22.15,9.2-39.67,26.9-63.79,30.39-28.89,4.18-46.17,2.26-71.68,20.02-12.59,8.76-29.53,27.78-43.35,32.24-1.21.39-2.25.67-3.54.48Z"/>
        <path class="cls-22" d="M301.22,32.04c-6.37-.63-12.62-2.23-18.97-3.02-30.55-3.76-51.65-4.99-68.09,24.07-4.89,8.63-9.53,22.52-14.65,29.96-.59.86-1.28,1.58-2.06,2.26-.35-.42-1.04-.79-1.25-1.25-.74-1.61,2.5-17.92,3.22-20.93,9.84-41.12,38-49.9,76.92-41.21,6.15,1.37,18.44,4.72,23.47,8.13.79.54,1.69.7,1.43,1.98Z"/>
        <path class="cls-22" d="M102.94,213.9c3.13-32.62,29.89-45.08,51.72-62.91,3.83-3.13,9.07-9.58,12.41-11.76.82-.53,1.42-.61,1.55.33.19,1.35-6.68,10.21-8.04,11.78-10.98,12.61-25.98,21.4-36.56,34.7-8.65,10.87-14.89,23.93-19.17,37.1l-1.91.37c.21-3.11-.29-6.54,0-9.6Z"/>
        <path class="cls-22" d="M316.71,209.88c.16,1.06-1.47.66-2.15.6-10.18-.85-18.9-3.75-29.78-3.11-21.37,1.25-35.86,12.65-54.65,19.08-1.27.43-2.28,1.35-3.24-.16,23.95-24.06,58.73-30.35,89.83-16.41Z"/>
        <path class="cls-22" d="M194.02,237.77c-.24,1.16-1.22,1.12-2.15,1.25-6.47.88-11.94,1.65-18.29,3.39-10.25,2.82-22.53,9.1-32.19,11.18-1.04.22-2.05.41-3.12.28-.26-1.19.61-1.48,1.3-2.11,14.06-12.79,35.93-19.54,54.47-13.99Z"/>
      </g>
      <path class="cls-22" d="M360.32,28.87c12.66-1.49,26.32-11.1,39.82-13.46,41.82-7.33,51.59,28.47,78.89,49.04,27.72,20.89,57.81,14.81,88.69,23.46,45.85,12.84,43.52,63.13,74.55,87.79,6.29,4.99,14.09,8.54,19.84,14.24,9.95,9.87,16.86,27.37,19.81,40.92,4.63,21.3-.27,37.67,11.58,58.44,2.18,3.82,9.38,12.47,10.15,15.9.19.86-.49,1.32-1.28,1.26-6-7.3-12.62-14.8-17.15-23.13-12.53-23.01-8.03-50.82-21.09-73.72-10.77-18.88-28.93-24.43-41.98-41.67-25.19-33.26-23.18-66.64-72.92-73.93-25.65-3.76-46.87-3.23-70.19-17.18-33.09-19.79-38.54-68.27-87.27-54.33-18.48,5.29-28.2,12.55-49.33,8.76-1.22-.22-5.15-.56-4.72-2.4,7.16-.61,15.62.83,22.62,0Z"/>
      <path class="cls-22" d="M539.08,106.94c.64-1.74,3.12-1.3,4.64-1.23,8.55.4,19.72,1.64,27.39,5.46,17.94,8.93,24.08,29.28,31.88,46.19,2.81,6.09,6.93,11.65,8.28,18.37-.88,1.19-1.12.39-1.89.03-16-7.37-27.04-41.82-40.53-54.89-7.95-7.7-19.73-10.07-29.77-13.92Z"/>
      <path class="cls-22" d="M495.09,111.91c.94-.16,1.81-.54,2.78-.63,25.73-2.29,69.31,8.27,78.87,35.77.4,1.15,2.07,6.32.14,5.45-7-5.77-12.84-12.9-20.25-18.17-9.68-6.88-21.57-10.46-32.9-13.57-7.92-2.18-19.67-3.59-26.78-6.68-1-.44-2.09-.79-1.86-2.16Z"/>
      <path class="cls-22" d="M661.14,253.79c-1.03.76-3.04-2.35-3.43-3.06-4.83-8.66-5.84-20.02-11.79-29.73-3.85-6.27-10.63-13.18-13.59-19.88-.49-1.12-.16-1.14.64-1.86,15.38,5.95,24.74,22.12,27.99,37.68,1.18,5.64,2.49,11.33.19,16.84Z"/>
      <g>
        <path class="cls-24" d="M227.9.55c33.1-3.19,50.69,8.05,79.02,19.76,3.59,1.48,8.55,2.45,11.58,3.91,2.88,1.39,2.25,3-.77,2.66-13.86-1.55-31.2-10.29-45.69-13.21-34.61-6.99-64.8-3.48-80.49,31.09-16.03,35.32-14.77,65.61-43.45,97.21-10.16,11.2-23.07,17.01-32.84,28.5-2.63,3.1-5.95,9.19-8.36,11.47-1.95,1.84-3.91,1.67-3.16-1.27.95-3.72,11.82-16.82,14.9-20.44,13-15.29,26.62-27.41,35.96-45.83C174.82,74.55,168.64,6.26,227.9.55Z"/>
        <path class="cls-24" d="M91.09,307.7c-.24-1.17.58-1.49,1.29-2.11,2.17-1.91,6.16-3.53,8.82-5.43,16.29-11.62,26.95-26.97,45.02-36.77,24.38-13.21,39.54-12.15,65.19-17.22,24.63-4.88,44.03-25.91,69.77-29.99,17.62-2.8,33.62,2.44,49.71,8.82l-1.4,1.43c-18.88-5.46-37.07-9.73-56.02-1.86-22.15,9.2-39.67,26.9-63.79,30.39-28.89,4.18-46.17,2.26-71.68,20.02-12.59,8.76-29.53,27.78-43.35,32.24-1.21.39-2.25.67-3.54.48Z"/>
        <path class="cls-24" d="M300.52,31.35c-6.37-.63-12.62-2.23-18.97-3.02-30.55-3.76-51.65-4.99-68.09,24.07-4.89,8.63-9.53,22.52-14.65,29.96-.59.86-1.28,1.58-2.06,2.26-.35-.42-1.04-.79-1.25-1.25-.74-1.61,2.5-17.92,3.22-20.93,9.84-41.12,38-49.9,76.92-41.21,6.15,1.37,18.44,4.72,23.47,8.13.79.54,1.69.7,1.43,1.98Z"/>
        <path class="cls-24" d="M102.24,213.21c3.13-32.62,29.89-45.08,51.72-62.91,3.83-3.13,9.07-9.58,12.41-11.76.82-.53,1.42-.61,1.55.33.19,1.35-6.68,10.21-8.04,11.78-10.98,12.61-25.98,21.4-36.56,34.7-8.65,10.87-14.89,23.93-19.17,37.1l-1.91.37c.21-3.11-.29-6.54,0-9.6Z"/>
        <path class="cls-24" d="M316.01,209.19c.16,1.06-1.47.66-2.15.6-10.18-.85-18.9-3.75-29.78-3.11-21.37,1.25-35.86,12.65-54.65,19.08-1.27.43-2.28,1.35-3.24-.16,23.95-24.06,58.73-30.35,89.83-16.41Z"/>
        <path class="cls-24" d="M193.33,237.07c-.24,1.16-1.22,1.12-2.15,1.25-6.47.88-11.94,1.65-18.29,3.39-10.25,2.82-22.53,9.1-32.19,11.18-1.04.22-2.05.41-3.12.28-.26-1.19.61-1.48,1.3-2.11,14.06-12.79,35.93-19.54,54.47-13.99Z"/>
      </g>
    </g>
  </g>
  <g id="Dark_Green_Bushes" data-name="Dark Green Bushes">
    <g>
      <path class="cls-12" d="M291.39,218.68c20.45-1.9,30.56,4.13,48.94,8.64,25.13,6.17,46.11-8.91,73.24-6.89,22.57,1.67,29.47,11.4,46.76,21.52,20.2,11.82,42.26,2.57,61.73,16.85,7.17,5.26,12.56,13.8,21.45,16.55,15.09,4.68,29.36-7.3,45.08,0,9.26,4.31,13.52,13.83,22.22,19.01,15.69,9.35,28.65-1.15,44.88.21,12.07,1.01,20.38,9.13,31.48,12.32,10.34,2.98,21.16,2.49,31.2,6.8,38.71,16.61,31.47,95.67,2.35,118.52-22.14,17.37-51.75,8.39-77.16,7.17-34.88-1.67-70.05,6.88-105.04,5.21-61.72-3.92-123.62,2.42-185.47-1.97-19.07-2.48-39.42-6.76-58.6-7.75-27.62-1.43-56.29,3.05-84.43,1.99-24.67-.94-48.29-4.58-73.4-3.24-25.76,1.38-48.69,11.55-75.07,6.14-57.71-11.84-60.36-76.63-26.07-115,16.13-18.06,26.39-15.31,48.34-16.71,20.73-1.32,29.67-14.66,44.09-26.77,20.34-17.08,39.87-25.79,66.68-28,12.33-1.02,23.42,1.56,34.65-4.64,21.17-11.69,35.57-27.48,62.15-29.95Z"/>
      <g>
        <path class="cls-9" d="M314.92,221.48l.05,1.81c-8.4-.48-16.7-1.29-25.07.17-18.97,3.32-35.14,19.7-51.38,28.99-22.83,13.07-50.91,9.74-75.73,18.35-29.81,10.34-44.87,37.83-76.97,43.27-18.22,3.09-30.74-2.7-46.56,11.38-3.24,2.89-5.6,7.8-9.64,8.74-1.72-1.73,8.88-12.56,10.58-14.02,14.96-12.84,28.54-9.21,46.24-12.32,27.51-4.84,42-29.59,65.9-41.88,22.96-11.81,48.36-7.67,71.99-15.85,7.19-2.49,14.25-7.72,21.05-11.34,21.79-11.62,43.65-26.12,69.53-17.28Z"/>
        <path class="cls-9" d="M186,273.14c-.51,1.01-2.68,1.69-3.75,2.15-10.6,4.61-20.25,6.99-30.46,13.16-24.21,14.63-42.41,45.7-74.94,39.33-1.2-.24-6.73-1.34-6.71-2.62.61-.82,1.41-1.1,2.34-1.39,7.48-2.33,16.27-2.77,23.95-5.34,16.3-5.45,27.87-19.28,41.78-28.62,13.85-9.3,30.92-16.31,47.8-16.67Z"/>
        <path class="cls-9" d="M54.54,327.34c.55,2.28-2.52,2.73-4.3,4.1-12.34,9.55-26.29,33.34-26.28,49.16,0,2.79,2.83,8.37-1.18,7.78-4.98-12.45-.88-27.23,5.27-38.64,5.24-9.71,15.15-20.8,26.49-22.41Z"/>
        <path class="cls-9" d="M569.15,282.48c3.56-3.72,10.28-2.71,14.82-1.42,9.46,2.69,14.01,10.02,21.37,15.39,10.07,7.34,19.99,9.33,32.34,7.22,2.14,1.79-9.44,3.65-10.29,3.72-9.69.81-19.61-2.26-27.1-8.39-5.61-4.59-13.23-16.52-21.49-16.52h-9.66Z"/>
        <path class="cls-9" d="M27.75,339.17c.11,1.08,0,2.08-.29,3.13-2.64,9.34-8.78,17.61-10.74,28.51-1.82,10.19-.2,15.36.27,24.92.19,3.89-1.32,2.71-2.51,0-4.68-10.68-3.58-26.4.7-37.05,1.36-3.4,8.14-16.88,10.41-18.87.78-.68,1.07-.81,2.16-.64Z"/>
        <path class="cls-9" d="M548.6,282.48c1.26-.27,1.66.28,2.52.9,5.66,4.15,13.92,17.09,16.9,23.59,3.49,7.6,8.89,24.47,9.19,32.6.11,3.1-1.45,3.97-2.55.63-1.01-3.08-1.24-6.91-2.22-10.24-5.28-17.98-13.44-29.63-22.84-45.07-.47-.78-1.21-1.37-1-2.42Z"/>
        <path class="cls-9" d="M605.28,289.95c-.74.78-12-9.18-13.75-10.22-14.62-8.74-24.28-.02-38.29-1.59-.93-.1-1.92-.13-2.16-1.26,14.79.59,27.92-9.18,42.17-.75,3.27,1.93,8.78,8.12,11.12,11.31.63.85,1.17,1.26.9,2.52Z"/>
      </g>
      <path class="cls-9" d="M744.78,370.25c-3.29-15.33-5.03-29.65-15.6-42.03-12.93-15.15-29.59-12.44-46.26-18.54-10.19-3.73-17.71-11.42-29.43-12.31-13.72-1.05-26.03,7.2-39.97,1.35-2.13-.89-5.46-2.32-5.18-5.09,3.36.29,5.83,2.28,9.19,2.95,13.25,2.66,26.17-4.46,40.16-2.78,10.32,1.24,18.96,8.41,28.39,11.49,12.71,4.15,25.8,3.68,37.93,10.66,15.26,8.77,21.46,27.23,22.62,44.04.06.93.69,12.27-1.85,10.27Z"/>
      <path class="cls-9" d="M202.75,407c-7.32,1.49-14.59,2.35-22.11,1.87-13.58-.87-25.28-4.23-38.31-6.55-19.34-3.43-38.25-.3-57.62.35-9.05.3-18.47-.52-27.46-.05-2.75.14-6.02,1.27-8.68,1.3-1.26.01-1.34-.7-.94-1.58.99-2.18,21.78-4.35,25.24-4.67,14.24-1.3,30.1-2.9,44.23-3.74,20.41-1.21,46.59,10.2,68.53,11.82,4.79.36,10.33-.54,14.97-.01.93.1,1.92.13,2.16,1.26Z"/>
      <path class="cls-9" d="M319.25,233.81c.28,1.29-.65,1.41-1.41,2.01-6.51,5.08-13.69,8.69-20.4,14.49-28.99,25.07-44.41,49.64-56.87,85.8-.61,1.76-.09,4.06-2.3,4.85-.87-3.79.51-7.65,1.42-11.35,7.45-30.26,27.67-59.09,51.24-78.97,8.27-6.98,17.8-13.89,28.33-16.83Z"/>
      <path class="cls-9" d="M174.71,396.41c-15.57,2.34-31.12-7.01-45.8-8.09-16.6-1.22-34.68,7.14-51.54,4.17-1.27-.22-3.03-.22-2.34-2,.42-1.08,1.12-.71,1.86-.68,17.57.63,33.61-8.72,52.02-7.73,11.5.61,21.78,6.64,32.72,9.65,3.83,1.05,8.82,1.28,12.03,2.3,1.25.4,1.13,1.3,1.05,2.37Z"/>
      <path class="cls-9" d="M734.18,373.36c-.35.46-9.88,1.17-11.53,1.25-28.91,1.42-57.2-4.21-85.88-.53-8.4,1.08-16.79,3.66-25.31,3.65-.24-1.38.93-1.74,1.96-2.08,2.42-.79,5.96-.68,8.65-1.32,10.98-2.61,21.17-5.34,32.66-5.97,16.68-.91,33.31,2.37,49.84,3.17,9.31.45,18.74-.39,28.06-.02l1.56,1.86Z"/>
      <path class="cls-9" d="M674.37,311.07c.66-.59,8.21,2.53,9.84,2.93,9.8,2.37,19.61,2.19,29.21,6.3,14.7,6.3,22.17,22.44,25.74,37.17l-1.25.64c-5.7-12.92-12.04-27.42-25.94-33.25-9.4-3.95-20.03-4.03-29.49-7.89-.79-.32-9.63-4.54-8.11-5.9Z"/>
      <path class="cls-9" d="M700.54,365.89v1.86c-10.87.35-21.46-3.11-32.17-4.28-7.62-.83-12.68-.45-20.19.84-4.24.73-9.89,2.91-13.54,3.33-2.32.27-2.69-1.13-.59-2.5,3.63-2.38,14.92-4.78,19.51-5.41,16.22-2.22,31.07,4.66,46.97,6.16Z"/>
      <path class="cls-9" d="M727.95,352.18c-2.54.55-2.38-1.74-3.46-3.07-7.13-8.78-11.66-15.97-22.99-20-3.34-1.19-7.45-1.43-10.59-2.5-2.65-.9-1.86-2.22.56-2.49,16.76-1.87,33.6,11.95,36.47,28.06Z"/>
      <g>
        <path class="cls-5" d="M314.22,220.78l.05,1.81c-8.4-.48-16.7-1.29-25.07.17-18.97,3.32-35.14,19.7-51.38,28.99-22.83,13.07-50.91,9.74-75.73,18.35-29.81,10.34-44.87,37.83-76.97,43.27-18.22,3.09-30.74-2.7-46.56,11.38-3.24,2.89-5.6,7.8-9.64,8.74-1.72-1.73,8.88-12.56,10.58-14.02,14.96-12.84,28.54-9.21,46.24-12.32,27.51-4.84,42-29.59,65.9-41.88,22.96-11.81,48.36-7.67,71.99-15.85,7.19-2.49,14.25-7.72,21.05-11.34,21.79-11.62,43.65-26.12,69.53-17.28Z"/>
        <path class="cls-5" d="M185.3,272.44c-.51,1.01-2.68,1.69-3.75,2.15-10.6,4.61-20.25,6.99-30.46,13.16-24.21,14.63-42.41,45.7-74.94,39.33-1.2-.24-6.73-1.34-6.71-2.62.61-.82,1.41-1.1,2.34-1.39,7.48-2.33,16.27-2.77,23.95-5.34,16.3-5.45,27.87-19.28,41.78-28.62,13.85-9.3,30.92-16.31,47.8-16.67Z"/>
        <path class="cls-5" d="M53.85,326.64c.55,2.28-2.52,2.73-4.3,4.1-12.34,9.55-26.29,33.34-26.28,49.16,0,2.79,2.83,8.37-1.18,7.78-4.98-12.45-.88-27.23,5.27-38.64,5.24-9.71,15.15-20.8,26.49-22.41Z"/>
        <path class="cls-5" d="M568.46,281.78c3.56-3.72,10.28-2.71,14.82-1.42,9.46,2.69,14.01,10.02,21.37,15.39,10.07,7.34,19.99,9.33,32.34,7.22,2.14,1.79-9.44,3.65-10.29,3.72-9.69.81-19.61-2.26-27.1-8.39-5.61-4.59-13.23-16.52-21.49-16.52h-9.66Z"/>
        <path class="cls-5" d="M27.06,338.48c.11,1.08,0,2.08-.29,3.13-2.64,9.34-8.78,17.61-10.74,28.51-1.82,10.19-.2,15.36.27,24.92.19,3.89-1.32,2.71-2.51,0-4.68-10.68-3.58-26.4.7-37.05,1.36-3.4,8.14-16.88,10.41-18.87.78-.68,1.07-.81,2.16-.64Z"/>
        <path class="cls-5" d="M547.9,281.79c1.26-.27,1.66.28,2.52.9,5.66,4.15,13.92,17.09,16.9,23.59,3.49,7.6,8.89,24.47,9.19,32.6.11,3.1-1.45,3.97-2.55.63-1.01-3.08-1.24-6.91-2.22-10.24-5.28-17.98-13.44-29.63-22.84-45.07-.47-.78-1.21-1.37-1-2.42Z"/>
        <path class="cls-5" d="M604.59,289.26c-.74.78-12-9.18-13.75-10.22-14.62-8.74-24.28-.02-38.29-1.59-.93-.1-1.92-.13-2.16-1.26,14.79.59,27.92-9.18,42.17-.75,3.27,1.93,8.78,8.12,11.12,11.31.63.85,1.17,1.26.9,2.52Z"/>
      </g>
    </g>
  </g>
  <g id="Light_Green_Bushes" data-name="Light Green Bushes">
    <g>
      <g>
        <path class="cls-26" d="M365.49,441.9c.27.28,2.44,1.23,2.92,1.32,5.28,1,11.5-.9,16.82-1.17,9.49-.49,19.22-.31,28.69-.68,6.89-.26,21.94,1.31,19.8,11.31-1.38,6.45-12.95,9.79-18.63,10.73-19.39,3.23-43.31,1.26-63.17.86-2.22-.05-7.64-1.76-8.67,1.72-1.19,3.98,4.08,7.83-1.39,12.96-6.16,5.79-23.7,3.76-31.69,4.22-42.33-3.77-84.93-2-127.27-5.22-43.91-7.97-89.13-1.93-133.13-4.58-26.61-1.6-44.08-3.68-48.56-33.68-2.16-14.44-3.37-33.78,14.77-37.3,11.3-2.19,25.82,2.12,37.72.52,1.34.1,2.58-.64,3.88-.69,21.32-.83,42.67-1.64,63.97-2.6,17.84-.8,22.45,3.09,38.29,6.73,17.56,4.03,33.82.66,51.09-.24,5.44-.28,17.08.41,18.49,7.02,1.23,5.76-3.73,8.04-7,11.69,2.07,4.87,5.22,2.99,8.77,2.85,36.63-1.47,73.66,1.87,110.3-3.26,7.42-.21,23.03.28,23.68,10.29.14,2.09-1.52,5.26.3,7.18Z"/>
        <path class="cls-18" d="M481.43,439.32c-.48-.5-3.6-1.61-4.5-1.86-11.15-2.99-22.53-.49-33.69-2.49-6.77-1.21-21.5-6.01-15.82-15.48,6.59-11.01,31.19-6.21,41.63-7.95,4.76-.8,4.86-3.38,7.52-5.88,6.42-6.05,18.45-6.47,26.82-6.03,23.1,1.22,28.74,1.27,51.84-.21,2.7-.17,17.27-1.31,16.9-4.85-.34-3.25,4.63-3.88,9.19-11.49,4.31-7.19,21.36-5.15,28.65-5.53,10-.53,19.7-3.22,29.54-4.64,24.91-3.59,48.96,2.14,74.29,1.25,10.49-.37,22.14-1.98,31.37,3.48,16.97,10.05,10.94,42.33,5,57.68-6.31,16.32-23.8,19.73-39.68,20.63-26.95,1.53-54.39-1.77-81.11,1.98l-16.12.03c-1.38.08-2.64-.63-3.98-.71-24.88-1.48-48.68-6.41-73.64-3.27-13.4,1.69-41.12,10.12-52.48,3.42-3.53-2.08-4.95-4.95-4.07-9.04.58-2.7,5.16-6.13,2.37-9.03Z"/>
      </g>
      <g>
        <path class="cls-11" d="M232.68,427.47c1.96,1.7-7.83,4.26-10.47.24-3.41-5.2,10.98-10.9,4.87-16.03-7.44-6.25-35.27,2.24-45.5,2.79-22.96,1.23-39.89-10.25-61.38-11.79-3.64-.26-7.48.14-11.15,0-.95-.04-2.45.58-2.16-.92,1.36-1.12,4.2-1.3,5.96-1.48,23.44-2.37,45.93,7.03,69.29,8,13.44.56,26.31-4.36,39.39-1.6,5.91,1.25,12.13,3.73,9.21,11.11-2.24,5.66-13.47,9.99,1.92,9.67Z"/>
        <path class="cls-11" d="M13.95,462.78c-1.52,1.52-5.26-4.64-5.83-5.62-7.64-13.05-13.45-46.5,3.98-54.17,8.19-3.6,17.54-.59,25.69-.28,11.86.44,23.81-.63,35.66.28l-.4,1.48c-9.26.84-18.5,1.95-27.78,2.58-12.33.84-30.91-2.67-37.62,10.71-4.55,9.08-1.74,28.28,2.47,37.41,1.22,2.65,3.74,4.68,3.83,7.62Z"/>
        <path class="cls-11" d="M215.34,429.32c2.89-19.05-17.43-6.82-27.12-5.12-18.3,3.21-38.3-2.25-55.61-7.88-.66-.69-5.85-1.48-5.25-2.79.54-1.17,1.5-.87,2.49-.69,19.17,3.61,33.38,10.04,54.13,7.11,8.94-1.26,38.38-14.17,34.32,5.82-.16.78-2.02,4.61-2.95,3.55Z"/>
        <path class="cls-11" d="M584.64,381.61c-.22-1.51,1.57-2.13,2.67-2.6,7.58-3.22,18.54-1.14,26.76-1.75,8.75-.65,18.33-3.5,27.28-4.32,9.08-.83,18.21-.67,27.29-.04,1.11.08,2.01-.16,2.75.96-.74,1.13-1.64.87-2.75.96-11.8.88-23.45,1.01-35.27,2.53-6.78.87-14.43,3.29-21.15,3.63-5.07.26-10.12-1.32-14.86-1.28-2.07.01-12.22,2.33-12.7,1.91Z"/>
        <path class="cls-11" d="M683.77,379.14l-1.55,1.85c-8.51-.09-16.96,1.29-25.41,1.86-6.51.43-13.3.15-19.82.63-4.31.32-9.56,1.76-13.62,1.88-1.42.04-3.04.36-4.03-.96.63-.9,1.19-1.17,2.2-1.51,3.62-1.2,9.89-2.36,13.76-2.97,15.91-2.52,32.5-2.67,48.47-.78Z"/>
        <path class="cls-11" d="M35.64,411.36c1.58,2.13-7.14,2.66-7.96,2.88-11.52,3.07-16.19,7.93-14.96,20.35.52,5.29,3.74,11.33,4.32,16.13.15,1.27-.81,1.21-1.53.9-.51-.22-2.68-4.08-3.1-4.95-5.43-11.09-7.14-28.18,6.95-33.31,2.32-.84,15.17-3.48,16.28-1.99Z"/>
      </g>
      <path class="cls-11" d="M725.16,373.74c17.19-.01,28,4.96,30.41,23.13,1.42,10.7.75,22-3.96,31.83l-1.3-1.28c3.46-14.01,5.27-34.59-7.38-44.56-11.56-9.11-34.75-5.21-48.96-6.19-1-.07-6.48-.7-6.47-1.57,2.07-2.12,5.27-.35,7.71-.28,10.03.26,19.94-1.07,29.95-1.08Z"/>
      <path class="cls-11" d="M242.52,465.81c.36,1.36-.56,1.5-1.69,1.69-7,1.13-18.17,1.32-25.29.81-8.25-.59-17.09-3.91-25.46-4.9-22-2.61-40.83,3.17-61.89,4.25-12.27.63-27.75-3.41-40.09-5.76-3.78-.72-2.91-2.31.24-2.14,10.03.52,19.96,4.36,29.97,4.21,19.38-.29,37.85-8.44,57.62-7.48,15.72.76,29.15,7.35,44.05,9.24,7.83.99,14.72.03,22.53.08Z"/>
      <path class="cls-11" d="M734.51,441.02c-3.01-.12-5.52-1.75-8.52-2.32-11.51-2.19-23.06.18-34.52.49-11.77.31-24.3-.77-35.95.6-6.46.76-15.2,4.46-21.05,4.35-2.17-.04-10.89-2.15-13.25-2.91-.85-.27-2.05-.62-1.96-1.75,4.83-1.43,9.75,1.72,14.53,1.56,4.41-.15,10.52-3.14,15.09-4.17,14.34-3.25,26.52-2.12,40.69-2.01,9.93.08,36.66-1.81,43.93,3.77,1.04.79,1.21.99,1.01,2.39Z"/>
      <path class="cls-23" d="M724.46,373.05c17.19-.01,28,4.96,30.41,23.13,1.42,10.7.75,22-3.96,31.83l-1.3-1.28c3.46-14.01,5.27-34.59-7.38-44.56-11.56-9.11-34.75-5.21-48.96-6.19-1-.07-6.48-.7-6.47-1.57,2.07-2.12,5.27-.35,7.71-.28,10.03.26,19.94-1.07,29.95-1.08Z"/>
      <path class="cls-11" d="M744.99,399.55c2.9,8.67,5.13,17.22,1.77,26.15-4.61,12.27-13.58,6.52-22.66,4.97-6.83-1.16-13.54-1.26-20.29-2.01-2.64-.29-2.95-2.1-.59-2.51,1.67-.29,5.49-.5,7.44-.61,8.03-.48,15.65,1.49,22.94,1.27,12.61-.39,10.29-18.52,9.59-27.3l1.8.05Z"/>
      <path class="cls-11" d="M647.76,432.35c1.96,1.72-9.78,5.99-10.89,6.14-5.08.68-9.99-1.94-14.89-2.34-7.58-.62-14.18,3.8-21.59,4.28-8.89.58-19.05-3.34-27.63-5.33l.03-2.13c9.79-1.45,18.63,3.87,28.22,3.12,6.9-.54,12.13-3.59,19.83-3.15,5.1.29,9.91,2.72,14.86,2.54,4.54-.17,7.8-2.53,12.06-3.12Z"/>
      <path class="cls-11" d="M137.19,457.14c-1.18,1.88-4.57,2.53-6.67,2.93-20.33,3.94-39.51-8.4-61.1-5.33-4.54.64-9.09,2.64-13.72,2.4-.94-.05-1.79.45-1.55-.93,21.67-12.7,46.18.91,69.06,1.57,4.72.14,9.28-.59,13.97-.64Z"/>
      <g>
        <path class="cls-23" d="M231.99,426.77c1.96,1.7-7.83,4.26-10.47.24-3.41-5.2,10.98-10.9,4.87-16.03-7.44-6.25-35.27,2.24-45.5,2.79-22.96,1.23-39.89-10.25-61.38-11.79-3.64-.26-7.48.14-11.15,0-.95-.04-2.45.58-2.16-.92,1.36-1.12,4.2-1.3,5.96-1.48,23.44-2.37,45.93,7.03,69.29,8,13.44.56,26.31-4.36,39.39-1.6,5.91,1.25,12.13,3.73,9.21,11.11-2.24,5.66-13.47,9.99,1.92,9.67Z"/>
        <path class="cls-23" d="M13.26,462.08c-1.52,1.52-5.26-4.64-5.83-5.62-7.64-13.05-13.45-46.5,3.98-54.17,8.19-3.6,17.54-.59,25.69-.28,11.86.44,23.81-.63,35.66.28l-.4,1.48c-9.26.84-18.5,1.95-27.78,2.58-12.33.84-30.91-2.67-37.62,10.71-4.55,9.08-1.74,28.28,2.47,37.41,1.22,2.65,3.74,4.68,3.83,7.62Z"/>
        <path class="cls-23" d="M214.64,428.63c2.89-19.05-17.43-6.82-27.12-5.12-18.3,3.21-38.3-2.25-55.61-7.88-.66-.69-5.85-1.48-5.25-2.79.54-1.17,1.5-.87,2.49-.69,19.17,3.61,33.38,10.04,54.13,7.11,8.94-1.26,38.38-14.17,34.32,5.82-.16.78-2.02,4.61-2.95,3.55Z"/>
        <path class="cls-23" d="M583.94,380.91c-.22-1.51,1.57-2.13,2.67-2.6,7.58-3.22,18.54-1.14,26.76-1.75,8.75-.65,18.33-3.5,27.28-4.32,9.08-.83,18.21-.67,27.29-.04,1.11.08,2.01-.16,2.75.96-.74,1.13-1.64.87-2.75.96-11.8.88-23.45,1.01-35.27,2.53-6.78.87-14.43,3.29-21.15,3.63-5.07.26-10.12-1.32-14.86-1.28-2.07.01-12.22,2.33-12.7,1.91Z"/>
        <path class="cls-23" d="M683.08,378.44l-1.55,1.85c-8.51-.09-16.96,1.29-25.41,1.86-6.51.43-13.3.15-19.82.63-4.31.32-9.56,1.76-13.62,1.88-1.42.04-3.04.36-4.03-.96.63-.9,1.19-1.17,2.2-1.51,3.62-1.2,9.89-2.36,13.76-2.97,15.91-2.52,32.5-2.67,48.47-.78Z"/>
        <path class="cls-23" d="M34.95,410.67c1.58,2.13-7.14,2.66-7.96,2.88-11.52,3.07-16.19,7.93-14.96,20.35.52,5.29,3.74,11.33,4.32,16.13.15,1.27-.81,1.21-1.53.9-.51-.22-2.68-4.08-3.1-4.95-5.43-11.09-7.14-28.18,6.95-33.31,2.32-.84,15.17-3.48,16.28-1.99Z"/>
      </g>
      <path class="cls-11" d="M240.66,429.25c1.32,6.89,2.84,13.86,5.28,20.44,1.49,4,4.68,8.06,4.63,12.4-1.21,1.4-6.13-7.83-6.52-8.65-2.29-4.84-5.86-16.86-5.9-22.05,0-.73.01-1.35.62-1.86l1.88-.28Z"/>
      <path class="cls-11" d="M236.32,443.5c12.27,18.34-1.22,23.17-17.96,17.96-.17-.74.26-1.6.99-1.75,1.67-.36,8.17,1.36,11.12,1.16,11.41-.74,5.69-10,4.62-17.06l1.23-.31Z"/>
    </g>
  </g>
  <g id="Golden_Plants" data-name="Golden Plants">
    <g>
      <path class="cls-20" d="M644.91,329.1c-.01-.05-.01-.11-.03-.16-1.28-5.02-6.31-5.27-10.16-2.96-3.9,2.34-6.73,6.29-8.19,10.57-1.4,4.11-.63,9.1-3.82,12.25-.79-.41-.53-.95-.46-1.63.45-4.24.93-7.41-.99-11.56-1.52-3.29-5.78-5.41-8.28-2.1-2.61,3.46-1.07,14.37,1.68,17.59,1.23,1.44,3.38,1.99,1.94,4.42-.35.59-.81.59-.88.68-2.57,3.28-5.2,6.53-7.8,9.79-.12.15-.94.37-.97-.5-.03-.98.62-2.59.74-3.77.4-3.81.64-7.49-1.5-10.89-4.25-6.74-11.92-4.39-11.89,3.5.02,5.96,2.95,10.49,7.72,13.87.75.53,2.5.77,2.4,1.88-1.75,2.74-3.67,5.36-5.58,8-.44.61-1,3.1-1.92,2.06-.8-.91-.74-5.35-1.1-6.94-.98-4.35-3.56-8.63-8.16-9.76-5.54-1.36-7.5,4.38-5.56,8.85,2.51,5.8,6.82,7.36,11.48,10.73.36.26.94.92,1.05,1.31.14.52-4.09,7.73-4.86,8.6-.32.36-.52.76-.9.1-.27-.47-.5-2.15-.85-2.98-1.62-3.85-3.91-7.34-7.9-9.12-3.66-1.64-7.12-.22-7.22,4.08-.11,4.77,4.06,9.52,7.81,12.01,1.04.69,5.44,2.36,5.61,3.04-2.33,5.89-4.27,12.01-6.52,17.95-6.53,17.22-5.91,26.22-5.07,28.91.27.85.71,1.52,1.39,1.88-1.03.83-2.07,1.65-3.12,2.44-2.66,1.99-5.4,3.87-8.22,5.64-3.2,2.01-6.51,3.85-9.88,5.55.03.06.05.12.08.18.61,1.02,1.74,1.56,2.85,1.86,1.23.33,2.58.59,3.87.33,1.38-.28,2.46-1.23,3.6-2,1.69-1.15,3.41-2.25,5.08-3.44,3.1-2.2,6.17-4.85,9.06-7.23,3.25-2.68,6.38-5.5,9.45-8.4.06-.06.12-.12.18-.17,2.55-1.54,7.19-7.74,9.55-7.93,1.56-.13,3.32,1.88,4.91,2.53,4.77,1.96,20.2,2.72,19.04-5.28-.45-3.13-4.25-4.22-8.25-4.52-1.27-.2-2.48-.2-3.71-.1-1.98.03-3.76.17-4.88.23,2.95-2.68,7.07-2.88,10.57-4.38,3.27-1.39,6.27-3.74,8.25-6.69.54-.74,1.03-1.52,1.45-2.34.96-1.89,1.32-3.99.91-5.79,0-.14,0-.28-.02-.43l-.06.09c-.54-1.86-1.96-3.34-4.5-3.8-5.17-.94-11.18,4.63-13.95,8.57-1.26,1.79-2.03,3.85-2.77,5.9-.72,1.99-1.43,4.02-2.66,5.77-.72,1.03-1.64,1.86-2.61,2.64-.08.06-.17.13-.27.11-.22-.04-.34-.37-.36-.56-.03-.27.04-.53.09-.79.81-4.03,4.03-8.8,1.02-13.09-4.31-6.15-9.52-1.74-10.5,4.13-.28,1.7-.28,3.45.06,5.14.32,1.64.96,3.22,1.83,4.64.45.73.96,1.42,1.53,2.07.29.33.59.65.91.96.14.14.28.28.43.41.14.12.32.23.4.4.21.43-.19.95-.46,1.24-.82.88-1.67,1.74-2.53,2.58-1.38,1.33-2.78,2.64-4.25,3.87-2.43,2.03-4.99,3.89-7.45,5.87.43-1.64.85-4.02,1.34-6.87.52-2.25.9-4.76,1.3-7.27.59-3.12,1.3-6.46,2.17-9.82,1.64-5.57,3.74-11.03,5.46-16.57,1.39-1.77,4.87,1.51,6.89,1.83,5.6.89,8.98-.91,10.36-3.36.63-.9.9-1.97.7-3.24-.3-3.32-3.64-6.33-9.59-4.93-1.89.44-3.26,1.86-4.86,2.8l-.04-.03,4.43-9.15c3.15-.65,4.48,2.39,7.48,3.2,4.12,1.11,7.79-.53,9.91-2.96.05-.06.1-.12.15-.18.1-.12.19-.24.28-.36.01-.02.03-.03.04-.05,2.12-2.89,2.12-6.6-1.62-8.32-4.06-1.86-7.44,1.15-11.35,1.69l4.26-8.5c.06-.05.13-.1.2-.14,4.73,3.61,9.36,5.13,15.07,2.34,7.23-3.52,6.43-12.1-2.36-11.09-2.99.34-5.59,2.37-8.47,3.06,1.75-1.77,5.77-9.01,8.27-8.64,1.31.2,2.85,2.21,4.67,2.88,3.89,1.42,8.86,1.15,12.43-.95,7.23-4.27,1.73-11.27-5.03-10.66-2.99.27-5.53,2.56-8.49,2.13,2.59-4.19,7.99-4.83,12.02-7.29,3.03-1.85,5.65-4.45,7.18-7.68.56-1.19.97-2.45,1.21-3.74.11-.63.18-1.26.22-1.9,0-.13.03-.26.03-.39.05-.58.17-1.28-.17-1.74Z"/>
      <path class="cls-20" d="M269.93,438.65c-1.81-4.19-14.9-17.07-23.83-31.63-1.28-2.08-7.78-11.4-7.92-13.11-.03-.44-.04-.85.31-1.18,5.38-1.86,11.24-5.45,12.65-11.36.79-3.28.03-6.01-3.12-7.51-7.24-3.44-13.14,5.67-12.46,12.18l-1.53.29-4.96-12.53c.3-.66,6.38-2.11,7.87-2.85,4.3-2.13,7.7-6.81,7.33-11.77-.29-3.94-3.39-7.45-7.54-6.87-6.7.94-7.79,10.69-9.27,15.89-.79-.34-.94-.88-1.16-1.63-.94-3.16-1.71-6.58-2.45-9.81-.29-1.28-1.39-2.24-.69-3.85,6.33-.51,12.17-5.7,13.74-11.75,2.76-10.59-7.94-13.97-12.79-4.97l-2.72,9.44c-1.06-.43-1.02-1.24-1.27-2.15-.53-1.94-2.58-11.91-2.07-13.07l.32-.4c6.56-.51,12.04-3.82,15.01-9.69,3.3-6.52,1.33-14.68-7.39-11.72-6.09,2.06-6.37,9.12-8.49,13.7-.32.69-.36,1.16-1.31,1.15-2.62-7.24,2.19-13.12,2.33-20.31.12-5.91-1.78-15.79-7.58-18.61-3.19-1.55-5.91-.84-7.86,1.05.12-.25.26-.51.4-.76-5.17,1.81-5.46,9.23-4.82,13.85,1.26,9.18,9.05,13.37,11.68,21.65-.06.01-.11.01-.17.02-.04-.05-.09-.1-.13-.15-2.86-2.99-5.07-5.47-8.54-7.12-3.39-2.63-7.17-4.13-11.43-.86-7.93,6.08,7.47,16.97,13.24,17.93.71.12,1.69.11,2.74.09.59.12,1.14.18,1.64.18.48,0,.96-.07,1.43-.15,1.14.09,2.09.33,2.52.9l2.36,16.74c-.62-.84-1.26-1.86-1.91-2.53-3.24-3.4-6.51-6.55-11.38-7.24-1.93-.27-3.63-.13-5.06.32-6.4.98-10.33,6.63-3.63,13.57,5.93,6.14,16.41,6.16,23.91,3.18l3.12,13.7c-.13.12-.34.15-.63.11-1.76-1.13-3.87-2.83-5.01-3.42-1.31-.69-2.72-1.26-4.16-1.66-.31-.16-.57-.28-.77-.34-5.49-1.64-13.77-.75-15.32,5.89-2.04,8.72,7.82,9.92,14.2,9.22.34-.04.73-.11,1.14-.2,3.68-.27,7.01-1.57,10.91-2.64.99-.04,1.82.08,2.36.47.6.43,3.61,9.42,3.56,11.04-.76-.38-1.69-.89-2.34-1.09-2.49-.79-5.03-1.33-7.56-1.37-5.19-.45-10.5.51-12.49,4.33-4.6,8.8,10.86,11.54,16.89,10.66.75-.11,1.86-.53,3.08-1.03.28-.07.55-.14.82-.22.64-.18,1.95-.81,3.3-1.44,1.27-.44,2.32-.65,2.81-.33.74.5,7.55,13.25,9.03,15.45.54.8.71,1.7,1.99,1.43-.26-.75-.54-1.48-.83-2.21.89,1.54,1.77,3.08,2.62,4.63,10.94,19.79,19.85,26.36,23.03,27.71,1.49.63,2.93.61,4.05-.64,1.06-1.18.94-2.8.17-4.58Z"/>
      <path class="cls-1" d="M211.25,332.77c-.03-.14.34-.57.06-1.37-1.13-3.28-3.36-1.71-5.68-1.7-5.19.02-16.62-7.2-17.79-12.4-1.12-4.96,4.25-7.27,8.53-6.08,5.41,1.5,7.98,4.47,11.6,8.26.58.61.89,1.28,1.9.87-.43-5.49-5.71-8.73-8.44-13.3s-4.3-10.55-3.39-16.05,5.13-9.95,10.84-7.16c5.8,2.83,7.7,12.71,7.58,18.61-.15,7.19-4.96,13.07-2.33,20.31.95.02.99-.46,1.31-1.15,2.12-4.58,2.4-11.63,8.49-13.7,8.73-2.96,10.69,5.2,7.39,11.72-2.97,5.88-8.45,9.19-15.01,9.69l-.32.4c-.52,1.16,1.53,11.13,2.07,13.07.25.91.21,1.72,1.27,2.15l2.72-9.44c4.86-9,15.55-5.62,12.79,4.97-1.58,6.05-7.41,11.24-13.74,11.75-.71,1.6.39,2.56.69,3.85.74,3.22,1.51,6.65,2.45,9.81.22.75.37,1.29,1.16,1.63,1.49-5.2,2.57-14.95,9.27-15.89,4.15-.58,7.25,2.92,7.54,6.87.36,4.96-3.03,9.64-7.33,11.77-1.49.74-7.57,2.19-7.87,2.85l4.96,12.53,1.53-.29c-.69-6.51,5.22-15.63,12.46-12.18,3.15,1.5,3.9,4.23,3.12,7.51-1.41,5.91-6.47,9.67-11.85,11.53-.35.33.05.87.09,1.31.13,1.71,5.44,10.72,6.71,12.81,8.93,14.55,22.02,27.44,23.83,31.63.77,1.78.89,3.4-.17,4.58-1.13,1.25-2.56,1.28-4.05.64-3.18-1.35-12.1-7.92-23.03-27.71-3.77-6.82-7.96-13.5-11.62-20.36-.78-.38-5.83,2.41-7.3,2.83-5.31,1.53-13.07,1.66-17.45-2.23-3.95-3.51-2.53-7.87,1.91-9.99,4.84-2.31,9.92-1.69,14.81-.15,1.05.33,2.81,1.45,3.46,1.57.92.17.7-.34.62-.92-.2-1.41-3.59-11.1-4.19-11.38-.45-.21-1.53-.18-2.06-.05-6.86,1.68-11.73,4.48-19.16,2.23-5.73-1.74-9.54-8.13-3.87-12.23,4.71-3.41,10.76-2.43,15.61.11,1.77.93,5.88,4.52,7.37,4.49,1.7-.03-.19-2.54-.41-3.43-.96-3.88-1.89-7.75-3.06-11.58-.95-.97-2.57.47-3.66.75-6.96,1.78-13.51.93-19.12-3.79-7.41-6.23-3.52-15.27,6.17-13.9,4.88.69,8.14,3.84,11.38,7.24,1,1.05,2,2.94,2.94,3.69.84.67,1.29-.28,1.24-.51-.99-5.02-1.94-10.06-2.97-15.07Z"/>
      <path class="cls-21" d="M202,284.6c-4.09,7.39-1.28,15.36,2.39,22.22,1.1,2.06,2.98,3.98,3.96,6.01,3.8,7.86,3.97,19.38,5.66,27.98,3.44,17.42,7.44,33.94,14.48,50.31,3.29,7.65,8.18,14.58,10.89,22.43-1.28.27-1.45-.63-1.99-1.43-1.48-2.19-8.29-14.95-9.03-15.45-1.42-.95-7.58,2.66-10.01,3.01-6.03.88-21.37-1.8-16.89-10.66,3.84-7.59,16.89-5.11,22.39-2.08.53-.58-2.92-10.36-3.56-10.83-2.51-1.81-10.86,1.98-14.42,2.37-6.38.71-16.23-.49-14.2-9.22,1.55-6.64,11.05-7.65,16.55-6.01,1.95.58,7.72,4.77,9.35,5.43l-3.12-13.7c-7.5,2.98-17.98,2.96-23.91-3.18-10.21-10.57,4.3-19.01,14.59-11.66,2.72,1.95,4.91,4.23,7.45,7.99l-2.42-17.19c-2.51-.69-5.93-.38-8.17-.76-5.78-.96-21.32-12.12-13.4-18.19,7.28-5.58,13.25,1.78,18.17,5.9.7.59,1.15,1.97,2.09,2.2-2.62-8.27-10.42-12.47-11.68-21.65-.63-4.62-.35-12.04,4.82-13.85Z"/>
      <g>
        <path class="cls-21" d="M614.33,354.81c.07-.09.53-.09.88-.68,1.44-2.43-.71-2.99-1.94-4.42-2.75-3.21-4.29-14.12-1.68-17.59s6.75-1.19,8.28,2.1c1.92,4.15,1.43,7.31.99,11.56-.07.68-.33,1.23.46,1.63,3.18-3.16,2.42-8.15,3.82-12.25s4.28-8.23,8.19-10.57c3.85-2.31,8.88-2.06,10.16,2.96,1.3,5.1-3.84,11.48-7.57,14.52-4.54,3.7-10.73,3.81-13.84,9.25.49.6.81.37,1.4.21,3.96-1.09,8.49-4.64,12.98-1.94,6.43,3.86,2.41,9.38-3.38,10.77-5.22,1.25-10.16-.41-13.93-4.22h-.42c-.99.3-6.1,6.83-7.03,8.18-.44.64-.96,1.04-.67,1.92l7.3-3.29c8.15-1.73,11.69,6.7,3.65,10.57-4.59,2.21-10.89,1.32-14.54-2.34-1.37.41-1.38,1.6-2.03,2.45-1.61,2.16-3.33,4.44-4.8,6.69-.35.54-.61.91-.4,1.58,4.01-1.81,10.64-6.28,14.76-2.61,2.55,2.27,2,6.04-.29,8.3-2.89,2.84-7.59,3.2-11.18,1.65-1.24-.54-5.35-3.55-5.92-3.39l-5.17,9.69.99.8c3.68-3.86,12.46-4.99,14.13,1.32.73,2.75-.57,4.65-3.02,5.89-4.42,2.24-9.74.49-13.72-1.88-.39-.05-.64.17-.9.42-.99.98-3.35,9.94-3.97,11.82-4.34,13.22-5.44,28.14-7.09,31.47-.7,1.41-1.64,2.34-2.93,2.31-1.37-.04-2.14-.92-2.54-2.18-.84-2.68-1.45-11.69,5.07-28.91,2.25-5.94,4.19-12.06,6.52-17.95-.17-.68-4.57-2.35-5.61-3.04-3.75-2.49-7.92-7.24-7.81-12.01.1-4.3,3.56-5.72,7.22-4.08,3.99,1.79,6.28,5.27,7.9,9.12.35.82.58,2.51.85,2.98.38.66.58.26.9-.1.77-.87,5.01-8.08,4.86-8.6-.11-.39-.69-1.04-1.05-1.31-4.66-3.37-8.97-4.93-11.48-10.73-1.94-4.48.02-10.21,5.56-8.85,4.6,1.13,7.18,5.41,8.16,9.76.36,1.59.29,6.03,1.1,6.94.92,1.04,1.48-1.45,1.92-2.06,1.91-2.64,3.82-5.26,5.58-8,.11-1.1-1.65-1.35-2.4-1.88-4.77-3.38-7.7-7.91-7.72-13.87-.03-7.89,7.63-10.24,11.89-3.5,2.14,3.39,1.91,7.08,1.5,10.89-.12,1.18-.77,2.79-.74,3.77.03.87.85.65.97.5,2.6-3.26,5.22-6.51,7.8-9.79Z"/>
        <path class="cls-21" d="M620.95,403.74c-5.17-.94-11.18,4.63-13.95,8.57-1.26,1.79-2.03,3.85-2.77,5.9-.72,1.99-1.43,4.02-2.66,5.77-.72,1.03-1.64,1.86-2.61,2.64-.08.06-.17.13-.27.11-.22-.04-.34-.37-.36-.56-.03-.27.04-.53.09-.79.81-4.03,4.03-8.8,1.02-13.09-4.31-6.15-9.52-1.74-10.5,4.13-.28,1.7-.28,3.45.06,5.14.32,1.64.96,3.22,1.83,4.64.45.73.96,1.42,1.53,2.07.29.33.59.65.9.96.14.14.28.28.43.41.14.12.32.23.4.4.21.43-.19.95-.46,1.24-.82.88-1.67,1.74-2.53,2.58-1.38,1.33-2.78,2.64-4.25,3.87-2.52,2.11-5.2,4.03-7.75,6.1-2.48,2.01-4.95,4.08-7.51,6-1.53,1.14-3.08,2.25-4.66,3.32-1.55,1.05-3.17,2.01-4.72,3.06-1.64,1.11-3.38,1.94-5.1,2.89-1.57.87-3.54,3.13-1.43,4.63.59.42,1.31.72,2.01.89,1.19.29,2.28-.75,3.21-1.32,1.01-.62,2.01-1.26,3-1.93,1.69-1.15,3.41-2.25,5.08-3.44,3.1-2.2,6.17-4.85,9.06-7.23,3.25-2.68,6.38-5.5,9.45-8.4,3.01-2.84,5.82-5.96,9.06-8.54.48-.38,1.26-.77,1.88-.48.09.03.18.06.26.1.92.44,1.48,1.43,2.28,2.02,3.4,2.52,14.39,3.28,17.66.44,3.13-2.72.72-6.82-2.67-8.11-4.27-1.62-7.4-.91-11.6-.17-.31.05-.62.14-.94.12-.2-.01-.47-.13-.61-.27-.26-.27.09-.43.28-.6.17-.15.35-.29.52-.43.35-.28.71-.54,1.09-.76.76-.45,1.57-.8,2.42-1.06,1.67-.52,3.41-.79,5.1-1.22.82-.21,1.64-.46,2.43-.79,4.16-1.75,7.91-4.85,9.96-8.91,2.03-4,1.43-9-3.67-9.93Z"/>
        <path class="cls-1" d="M635.05,343.17c3.03-1.85,5.65-4.45,7.18-7.68.56-1.19.97-2.45,1.21-3.74.12-.68.2-1.36.23-2.04.03-.68.3-1.68-.33-2.18-.49.64-.83,1.48-1.26,2.17-.45.75-.92,1.49-1.36,2.25-.7,1.19-1.4,2.38-2.11,3.57-20.76,13.22-35.17,34.64-46.85,55.94-6.67,12.18-14.4,37.18-14.91,51.04-.11,3.1,1.77,3.33,2.82,0,1.45-4.56,2.34-14.5,3.65-19.61,1.72-6.72,4.3-13.2,6.36-19.8,1.39-1.77,4.87,1.51,6.89,1.83,14.97,2.38,14.11-14.49,1.47-11.53-1.92.45-3.3,1.91-4.93,2.84l4.47-9.23c3.15-.65,4.48,2.39,7.48,3.2,9.12,2.45,16.05-8.51,8.75-11.86-4.06-1.86-7.44,1.15-11.35,1.69l4.37-8.72c4.76,3.66,9.41,5.22,15.17,2.41,7.23-3.52,6.43-12.1-2.36-11.09-2.99.34-5.59,2.37-8.47,3.06,1.75-1.77,5.77-9.01,8.27-8.64,1.31.2,2.85,2.21,4.67,2.88,3.89,1.42,8.86,1.15,12.43-.95,7.23-4.27,1.73-11.27-5.03-10.66-2.99.27-5.53,2.56-8.49,2.13,2.59-4.19,7.99-4.83,12.02-7.29Z"/>
        <path class="cls-1" d="M625.52,407.46c1.62,6.18-4.57,12.68-10.6,15.25-3.51,1.49-7.62,1.69-10.57,4.38,3.98-.22,16.01-1.34,16.83,4.39,1.16,8-14.27,7.24-19.04,5.28-1.6-.65-3.36-2.66-4.91-2.53-2.91.24-14.36,15.14-16.01,13.63-.27-1.17,5.73-6.99,6.31-7.69,4.25-5.16,15.2-15.21,20.98-18.26,3.52-1.85,7.77-2.47,10.81-5.38l6.2-9.05Z"/>
      </g>
    </g>
  </g>
  <g id="Lightest_Bushes" data-name="Lightest Bushes">
    <g>
      <g>
        <path class="cls-14" d="M635.03,443.68c3.83-.24,7.3-2.32,11.04-3.03,9.54-1.82,19.15-2.12,28.84-1.96,3.24.05,6.48.19,9.72.19,3.78.06,7.57.08,11.35-.03,9.66-.3,19.36-1.55,28.95-.36,3.18.39,6.41,1.08,9.15,2.75,2.74,1.67,4.96,4.45,5.26,7.65.29,3.1-1.25,6.14-3.42,8.37-3.77,3.87-9.19,5.59-14.45,6.81-29.59,6.88-60.9,2.52-90.51,9.29-8.92,2.04-18.07,5.09-27.02,3.18-8.95-1.91-16.16-8.48-24.74-11.65-5.09-1.88-10.55-2.51-15.97-2.71-3.56-.13-7.47-.2-10.16-2.55-3.08-2.68-3.33-7.68-1.3-11.23,2.02-3.54,5.82-5.76,9.74-6.9,1.3-.38,2.62-.65,3.96-.84,8.04-1.13,16.11.86,24,2.15,5.13.84,10.82,1.87,15.97.68,4.02-.93,7.91-2.59,12.02-2.85,3.06-.2,6.11.4,9.04,1.25,2.87.83,5.46,1.99,8.52,1.8Z"/>
        <path class="cls-14" d="M36.93,466.22c16.25-2.81,32.74-5.64,49.15-4.01,14.19,1.41,28.11,6.12,42.34,5.36,7.79-.42,15.38-2.47,23.07-3.75,11.78-1.97,23.86-2.12,35.69-.47,13.13,1.84,26.02,5.9,39.27,5.85,15.45-.06,30.6-5.74,46.02-4.7,17.08,1.15,32.43,10.33,47.03,19.27,1.55.95,3.31,2.28,3.17,4.1-.1,1.18-1,2.12-1.88,2.92-7.61,6.93-18.18,11.66-28.18,9.22-3.53-.86-6.8-2.56-10.26-3.65-12.97-4.06-27.27.8-40.54-2.16-4.87-1.09-9.46-3.2-14.31-4.42-18.14-4.58-36.73,3.72-55.27,6.2-16.74,2.24-33.71-.33-50.4-2.88-10.99-1.68-21.98-3.37-32.97-5.05-5.89-.9-11.91-1.85-17.12-4.75-2.59-1.44-4.93-3.35-7.67-4.48-8.88-3.67-19.89,1.48-28.33-3.11-2.62-1.42-4.78-5.11-2.65-7.19.63-.62,1.51-.91,2.35-1.17,6-1.86,12.21-3.05,18.47-3.54l-16.97,2.43Z"/>
      </g>
      <g>
        <path class="cls-4" d="M248.18,467.33l-.41,1.87c-2.18.29-4.25,1.15-6.39,1.56-25.9,4.99-43.64-4.31-67.98-5.32-13.69-.57-25.7,2.89-38.8,4.1-1.14.11-1.62.68-2.5-.66.04-1.13,9.46-2.9,11.05-3.22,14.52-2.92,29.68-4.22,44.43-2.6,10.73,1.17,22.03,5.3,32.37,6.12,9.33.74,19.06-.39,28.24-1.85Z"/>
        <path class="cls-4" d="M52.61,477.26c.27,1.61-.24,1.11-1.34,1.42-5.09,1.4-20.6-1.1-18.4-8.43.98-3.25,12.74-6.31,16-6.98,14.27-2.96,29.9-2.57,44.23-.11,1.66.29,10.98,1.88,11.03,3.23-.88,1.25-2.1.98-3.38.94-7.96-.28-17.07-2.79-25.44-3.14-9.27-.39-28.29.54-36.16,5.5-2.48,1.56-3.56,2.55-.79,4.76,3.81,3.03,9.64,2.97,14.25,2.82Z"/>
        <path class="cls-4" d="M646.77,442.49c-.28-1.64.27-1.1,1.34-1.42,1.7-.51,4.6-.97,6.39-1.09,16.79-1.11,34.11-1.24,50.91-1.86,9.22-.34,37.01-1.96,34.48,13.38-.82,4.97-2.34-3.61-2.63-4.21-1.73-3.66-7.7-4.93-11.35-5.41-6.53-.86-12.41,0-18.59.02-20.27.04-40.41-1.06-60.56.59Z"/>
        <path class="cls-4" d="M631.87,443.74c.04,1.13.31,1.3-.92,1.24-3.19-.15-6.98-1.99-10.53-1.89-6.99.21-16.8,6.22-24.89,4.39l-22.01-5.3c.8-1.19,1.5-.93,2.7-.88,9.25.4,16.93,3.86,26.8,3.07,6.83-.54,11.98-3.74,19.25-3.15,3.61.3,6.16,2,9.6,2.51Z"/>
        <path class="cls-4" d="M120.91,472.92c.09,1.45.21,1.1-.92,1.24-5.42.69-13.56-.55-19.08-1.42-11.96-1.89-21.06-5.32-33.73-4.81-1.3.05-5.3,1.7-5.25-.28,1.4-2.71,14.04-1.84,17.06-1.56,13.81,1.31,27.81,6.5,41.91,6.83Z"/>
        <path class="cls-4" d="M570.4,443.74c.58.66-4.68,14.96-7.44,15.52l5.54-14.01,1.9-1.51Z"/>
        <path class="cls-4" d="M571.96,447.47c1.37.97.78,1.14.44,2.28-.68,2.29-2.08,5.09-3.54,7.01-1.5-1.05-.48-1.08-.2-2.04.33-1.12,2.61-7.21,3.31-7.24Z"/>
      </g>
      <path class="cls-25" d="M247.49,466.64l-.41,1.87c-2.18.29-4.25,1.15-6.39,1.56-25.9,4.99-43.64-4.31-67.98-5.32-13.69-.57-25.7,2.89-38.8,4.1-1.14.11-1.62.68-2.5-.66.04-1.13,9.46-2.9,11.05-3.22,14.52-2.92,29.68-4.22,44.43-2.6,10.73,1.17,22.03,5.3,32.37,6.12,9.33.74,19.06-.39,28.24-1.85Z"/>
      <path class="cls-25" d="M51.92,476.57c.27,1.61-.24,1.11-1.34,1.42-5.09,1.4-20.6-1.1-18.4-8.43.98-3.25,12.74-6.31,16-6.98,14.27-2.96,29.9-2.57,44.23-.11,1.66.29,10.98,1.88,11.03,3.23-.88,1.25-2.1.98-3.38.94-7.96-.28-17.07-2.79-25.44-3.14-9.27-.39-28.29.54-36.16,5.5-2.48,1.56-3.56,2.55-.79,4.76,3.81,3.03,9.64,2.97,14.25,2.82Z"/>
      <path class="cls-25" d="M646.08,441.8c-.28-1.64.27-1.1,1.34-1.42,1.7-.51,4.6-.97,6.39-1.09,16.79-1.11,34.11-1.24,50.91-1.86,9.22-.34,37.01-1.96,34.48,13.38-.82,4.97-2.34-3.61-2.63-4.21-1.73-3.66-7.7-4.93-11.35-5.41-6.53-.86-12.41,0-18.59.02-20.27.04-40.41-1.06-60.56.59Z"/>
      <path class="cls-4" d="M147.53,496.43c-7.08-.33-14.28-1.04-21.34-1.94-12.07-1.53-47.03-4.95-55.48-11.58-.75-.59-1.69-.72-1.41-2,15.38,6.35,32.23,6.87,48.54,9.51,9.1,1.47,18.45,3.05,27.51,4.78.91.17,1.93,0,2.18,1.23Z"/>
      <path class="cls-4" d="M240.66,493.94c-8.51-1.41-16.27-5.33-25.17-4.98-6.33.24-40.53,8.93-43.12,6.85-.31-1.89,4.11-2.48,5.56-2.81,12.8-2.91,34.78-7.32,47.23-4.97,4.83.91,11.69,2.84,15.5,5.91Z"/>
      <path class="cls-4" d="M208.37,483.4c.3,1.62-.31,1.09-1.23,1.52-9.77,4.56-40.44,8.7-51.21,7.77-1.27-.11-8.41-1.22-5.14-2.63,2.65-1.14,5.88.27,8.88.19,8.91-.21,19.52-1.91,28.43-3.24,6.79-1.02,13.48-2.7,20.28-3.62Z"/>
      <path class="cls-25" d="M631.18,443.05c.04,1.13.31,1.3-.92,1.24-3.19-.15-6.98-1.99-10.53-1.89-6.99.21-16.8,6.22-24.89,4.39l-22.01-5.3c.8-1.19,1.5-.93,2.7-.88,9.25.4,16.93,3.86,26.8,3.07,6.83-.54,11.98-3.74,19.25-3.15,3.61.3,6.16,2,9.6,2.51Z"/>
      <path class="cls-4" d="M645.45,470.97c-13.95,1.75-26.75,8.81-41.01,5.94-7.06-1.42-19.01-8.03-25.44-11.84-.8-.47-1.57.11-1.22-1.54,11.46,3.24,20.82,10.88,33.22,11.78,10.31.75,19.28-3.68,29.26-4.87,1.36-.16,4.69-1.06,5.19.52Z"/>
      <path class="cls-4" d="M731.75,459.19c1.15.95-2.96,2.44-3.3,2.59-19.45,8.42-43.03,5.42-63.74,7.33-.31-1.88.47-.99,1.51-1.25,17.17-4.31,37.31-1.13,55.87-5.62,1.63-.39,9.27-3.38,9.66-3.06Z"/>
      <path class="cls-25" d="M120.21,472.22c.09,1.45.21,1.1-.92,1.24-5.42.69-13.56-.55-19.08-1.42-11.96-1.89-21.06-5.32-33.73-4.81-1.3.05-5.3,1.7-5.25-.28,1.4-2.71,14.04-1.84,17.06-1.56,13.81,1.31,27.81,6.5,41.91,6.83Z"/>
      <path class="cls-4" d="M715.61,444.9c-.26-1.62.24-1.11,1.34-1.42,4.43-1.22,16.06-.27,18.38,4.36,3.35,6.7-7.41,11.32-12.57,11.36-1.28,0-1.82.36-1.57-1.26,3.95-.19,16.23-6.31,10.54-10.86-.91-.73-6.1-2.18-7.13-2.18h-9Z"/>
      <path class="cls-4" d="M626.2,469.12c.34,1.65-.42,1.07-1.22,1.54-8.91,5.26-21.47,2.6-30-2.29-.55-.99-3.96-1.4-3.53-2.66.51-1.49,1.39-.42,2.04-.2,11.24,3.8,20.33,8.57,32.72,3.61Z"/>
      <path class="cls-4" d="M271.08,491.46c-1.39,1.25-7.68-5.38-8.67-6.53-3.41-4-7.3-10.02-8.08-15.19l16.75,21.73Z"/>
      <path class="cls-4" d="M690.78,462.9c2.12-2.32,7.09-1,10.24-1.24,5.32-.41,10.66-1.6,15.95-2.06.52-.05,2.4-.7,2.36.52-.09,2.51-25.66,4.52-28.55,2.79Z"/>
      <path class="cls-4" d="M263.63,492.08c-1.63,1.62-10.07-9.57-8.69-11.17,1.31-.18,2.02,1.06,2.74,1.91.93,1.12,6.77,8.44,5.95,9.26Z"/>
      <path class="cls-25" d="M569.71,443.04c.58.66-4.68,14.96-7.44,15.52l5.54-14.01,1.9-1.51Z"/>
      <path class="cls-25" d="M571.26,446.78c1.37.97.78,1.14.44,2.28-.68,2.29-2.08,5.09-3.54,7.01-1.5-1.05-.48-1.08-.2-2.04.33-1.12,2.61-7.21,3.31-7.24Z"/>
    </g>
  </g>
  <g id="Fawn">
    <g>
      <path class="cls-16" d="M477.63,387.17c4.3,4.16-9.59,5.61-11.75,6.21-12.76,3.55-25.6,7.51-35.81,16.24-16.92,14.47-18.35,43.09-36.52,56.42-.85.62-1.25,1.17-2.5.9,2.9-7.7,9.7-13.06,13.35-20.42,6.72-13.54,6.28-27.44,18.24-38.76,12.04-11.38,27.16-16.95,43.27-19.93,2.31-.43,10.31-2.03,11.73-.66Z"/>
      <path class="cls-16" d="M457.96,378.95c-1.07-4.18,2.48-8.12,3.02-12.77,1.18-10.07-.43-17.65,3.67-27.93s20.6-30.96,28.3-39.24c4.41-4.74,5.89-3.64,2.68,2.06-8.93,15.8-28.46,34.85-30.16,53.49-.5,5.48.49,10.88-.98,16.37-.77,2.86-3.11,8.09-6.53,8.03Z"/>
      <path class="cls-16" d="M582.5,367.18l-.31-5.58c-2.13-4.36-13.86,3.97-17.05,5.26-22.37,9.02-31.08,9.27-47.69,29.15-1.68,2.01-3.09,6.27-5.89,6.42-2.63.14-2.7-2.15-1.84-4.24,2.01-4.88,14.96-16.62,19.55-20.1,10.34-7.87,17.26-8.94,28.61-13.52,4.67-1.89,15.96-8.35,20.03-8.47,2.31-.07,6.25,1.81,6.94,4.09.54,1.78.27,6.97-2.35,7Z"/>
      <g>
        <path class="cls-16" d="M327.06,373.5c1.64-.15,2.79.95,4.26,1.09,1.89.19,3.56-.68,5.5-.65,5.49.09,8.64,5.42,8.83,10.44.35,9.28-11.22,21.55-20.72,17-1.57-.75-7.73-5.02-8.5-6.37-3.92-6.92,2.52-20.77,10.63-21.51Z"/>
        <path class="cls-16" d="M280.58,436.73c11.08-1.85,24.53,10.56,14.43,20-1.76,1.65-4.66,2.98-6.77,4.38-2.48,1.64-3.3,4.03-7.18,4.04-12.21,0-13.26-26.27-.47-28.41Z"/>
        <path class="cls-16" d="M392.06,357.67c-2.49,2.63-7.28,3.66-10.55,2-6.39-3.25-.4-11.15-1-16.36-.48-4.17-3.93-5.65-3.07-11.1,1.75-11.16,16.91-9.93,18.89,1.48.6,3.47-.26,13.97-1.12,17.54-.45,1.87-1.87,5.08-3.16,6.45Z"/>
        <path class="cls-16" d="M354.33,340.08c2.71-.13,8.2.71,10.5,2.19,6.72,4.32,3.94,19.59-3.37,21.06-2.25.45-12.77-.62-15.03-1.41-11.71-4.12-3.68-21.29,7.91-21.83Z"/>
        <path class="cls-16" d="M297.3,400.16c9.39-1.96,15.98,6.9,9.72,15.29-1.72,2.31-10.03,11.05-12.31,11.85-10.11,3.58-13.2-13.35-9.3-19.83,1.3-2.15,9.46-6.81,11.89-7.32Z"/>
        <path class="cls-16" d="M394.95,375.66c-3.42-3.79-.28-9.33,2.03-12.76,1.36-2.03,7.73-10.1,9.34-11.1,4.61-2.87,9.61-1.6,11.91,3.37,5.29,11.43-7.66,26.41-19.91,22.39-.83-.27-2.85-1.3-3.38-1.89Z"/>
        <path class="cls-16" d="M323.35,336.34c9.41-1.34,11.55,14.93,5.67,20.56-3.76,3.6-6.66,1.46-10.65,2.36-1.6.36-2.6,2.04-4.51,2.33-4.03.6-6.79-2.02-7.06-5.94-.09-1.24,1.69-12.25,2.19-13.2.46-.87,2.01-2.23,2.92-2.66.95-.45,10.34-3.29,11.44-3.45Z"/>
        <path class="cls-16" d="M374.78,365.43c6.21-.71,10.89,6.88,8.85,12.62-1.71,4.82-5.38,4.88-8.89,7.22-4.9,3.26-11.43,9.93-17.77,5.13-4.13-3.13-1.89-7.91.34-11.41,2.38-3.74,13.15-13.06,17.47-13.56Z"/>
        <path class="cls-16" d="M372.93,288.05c6.8-.73,14.31,5.85,14.94,12.6.72,7.63-6.5,18.09-14.84,15.45-4.27-1.35-2.49-6.92-3.81-10.43-1.53-4.06-6.02-5.43-4.54-10.99,1.14-4.29,4.03-6.17,8.25-6.62Z"/>
        <path class="cls-16" d="M351.87,304.78c1.22-.04,1.98-.32,3.39-.04,9.74,1.94,3.82,23.19-7.21,22.14-.94-.09-12.88-4.74-13.37-5.26-2.28-2.36-.49-4.2-.16-6.32.44-2.82-.17-5.32,2.3-7.61,2.75-2.55,11.23-2.77,15.07-2.91Z"/>
        <path class="cls-16" d="M405.14,302.26c6.73-.99,11.71,9.83,12.89,15.32,1.1,5.11,1.17,16.72-5.64,17.97-10.67,1.97-7.11-10.47-8.46-15.03-.3-1.02-2.97-3.07-3.84-4.83-2.62-5.3-1.6-12.45,5.06-13.43Z"/>
        <path class="cls-16" d="M314.05,452.18c3.85-.52,12.3,5.1,13.04,9.03,1.13,5.97-4.98,7.74-8.51,10.43-3.51,2.68-5,6.14-10.36,6.41-8.32.43-8.1-7.49-5.95-13.43,1.19-3.27,8.11-11.95,11.77-12.45Z"/>
        <path class="cls-16" d="M371.66,423.71c12.21-2.55,15.04,12.22,3.7,16.71-5.35,2.12-7.17-.05-11.8.11-4.5.15-13.82,4.92-13.27-4.73.54-9.38,6.26-6.29,11.79-7.42,2.77-.57,6.79-4.09,9.57-4.68Z"/>
        <path class="cls-16" d="M391.52,390.29c3.12-.36,6.18-.16,7.83,2.97,1.25,2.37,1.39,11.05.84,13.75-2.35,11.55-23.52,10.29-20.78-2.82.2-.93,4.16-9.18,4.81-10.06,1.74-2.36,4.48-3.51,7.31-3.84Z"/>
        <path class="cls-16" d="M357.4,400.77c11.45-2.58,21.55,6.85,11.35,16.3-9.63,8.92-24.33,3.71-17.48-9.42.92-1.77,4.32-6.47,6.13-6.88Z"/>
        <path class="cls-16" d="M298.54,369.78c7.14-.98,6.31,9.83,3.78,14.34-4.07,7.24-9.54,9.25-16.59,4.42-4.28-2.93-3.43-9.79-.55-13.51,2.76-3.57,4.78-1.58,8.12-2.41,1.35-.34,3.57-2.6,5.24-2.83Z"/>
        <path class="cls-16" d="M346.24,450.34c13.22-3.02,15.88,18.51,3,22.2-3.63,1.04-8.86,1.14-9.6-3.47-.68-4.3,1.46-17.56,6.6-18.73Z"/>
        <path class="cls-16" d="M270.65,390.86c7.37-1.7,14.17,8.32,7.31,12.89-1.72,1.15-3.99,1.07-5.6,2.46-2.89,2.49-2.74,8.43-8.53,6.7-4.64-1.39-4.71-14.11-1.64-16.88,1.16-1.04,3.04-1.17,4.25-1.94,1.48-.94,2.22-2.77,4.21-3.22Z"/>
        <path class="cls-16" d="M334.44,423.16c7.79,7.72-4.5,22.67-13.12,15.29-8.82-7.54,4.01-24.32,13.12-15.29Z"/>
        <path class="cls-16" d="M371.04,449.09c8.69-1.93,8.01,10.59.43,11.02-5.43.31-6.68-9.64-.43-11.02Z"/>
        <path class="cls-16" d="M515.27,281.92c4-.1,11.17,5.24,11.3,9.46.21,6.59-9.94-1.52-11.61-3.83-.82-1.13-1.55-2.36-1.86-3.74,0-1.06,1.24-1.87,2.17-1.89Z"/>
        <path class="cls-16" d="M503.1,274.76c-1.67,2.65-16.72-3.49-13.59-8.15,2.15-3.2,16.75,3.12,13.59,8.15Z"/>
        <path class="cls-16" d="M391.82,245.57c-1.56-1.56.04-4.39,2.02-4.78,2.4-.48,11.67.65,12.11,3.41.97,6.14-11.36,4.15-14.12,1.37Z"/>
        <path class="cls-16" d="M473.35,289.02c-3.29,2.07-14-4.01-10.91-9.05,3.12-2.71,10.99,2.92,11.53,5.88.13.74-.15,2.87-.62,3.17Z"/>
        <path class="cls-16" d="M408.21,259.49c2.74-.8,13.31-.03,11.89,4.42-3.76,3.26-12.12,3.68-14.1-1.87-.08-.9,1.42-2.32,2.21-2.55Z"/>
        <path class="cls-16" d="M378.5,259.52c8.76-1.06,11.44,4.66,2.51,6.85-9.31,2.28-11.02-5.82-2.51-6.85Z"/>
        <path class="cls-16" d="M427.42,246.47c1.95-.55,10.67.43,11.65,2.36,2.19,4.27-7.78,4.72-10.26,4.05-3.69-.99-5.18-5.33-1.39-6.41Z"/>
        <path class="cls-16" d="M293.6,288.02c2.8,2.78-3.89,13.27-8.27,9.82-3.25-2.56,4.17-13.91,8.27-9.82Z"/>
        <path class="cls-16" d="M339.44,271.29c1.19-.2,4.14-.56,4.86.43,2.58,6.19-13.58,10.93-12.67,4.83.34-2.27,5.66-4.9,7.81-5.26Z"/>
        <path class="cls-16" d="M308.78,295.77c-4.62-4.6,11.32-14.01,10.21-4.57-.38,3.27-7.72,7.05-10.21,4.57Z"/>
        <path class="cls-16" d="M463.98,253.92c2.11-.46,6.78.46,8.47,1.79,4.03,3.18-3.29,8.23-8.52,4.81-2.6-1.7-3.62-5.79.06-6.6Z"/>
        <path class="cls-16" d="M314.02,263.84c4.95-1.46,5.76,1.78,2.65,5.13-.39.42-4.32,3.9-4.61,4.07-2.78,1.67-5.43-1.23-4.58-3.94.18-.59,5.91-5.07,6.54-5.25Z"/>
        <path class="cls-16" d="M370.44,246.82c-1.31,1.22-13.25,3.46-13.26-.78-.02-4.95,18.64-4.23,13.26.78Z"/>
        <path class="cls-16" d="M330.4,256.8c-2.22-3.51,8.01-7.65,10.3-7.85,2.33-.21,4.43,1.48,2.34,3.62-1.38,1.42-11.2,6.51-12.64,4.23Z"/>
        <path class="cls-16" d="M281.81,325.78c7.25-2.14,4.02,12.44-2.53,10.37-2.4-.76-.94-9.35,2.53-10.37Z"/>
        <path class="cls-16" d="M438.54,265.63c2.61-.07,11.79,1.52,9.85,5.5-2.06,4.22-14.3-.68-9.85-5.5Z"/>
      </g>
      <path class="cls-16" d="M536.03,494.82c-.44-2.86,3.65-3.04,5.78-4.44,6.7-4.4,5.87-11.99,1.02-17.54-2.71-3.11-5.34-3.03-8.65-4.97-.05-2.02,7.96-.27,9.11.17,5.66,2.23,8.77,10.94,8.23,16.55-.64,6.67-9.54,10.12-15.49,10.22Z"/>
      <g>
        <g class="cls-13">
          <polygon class="cls-19" points="518.9 499.01 534.76 510.28 542.88 521.16 538.07 527.79 526.24 531.81 508.84 530.04 497.77 525.42 495.24 523.88 509.08 518.92 517.36 514.06 518.43 506.85 518.9 499.01"/>
          <polygon class="cls-19" points="537.78 464.24 557.22 463.69 565.52 469.46 570.41 475.67 563.39 486.01 548.43 495.07 536.82 498.05 533.86 498.35 548.6 484.6 548.24 474.78 544.81 470.05 537.78 464.24"/>
        </g>
        <path class="cls-16" d="M586.19,349.34c-2.54-2.01-5.63-3.08-8.93-3.08-1.61,0-3.2.25-4.73.66,1.68-12.01-3.58-23.67-7.82-33.05l-.7-1.55c-10.05-22.37-23.38-39.84-40.74-53.38-14.48-11.29-31.74-20.08-55.96-28.49-23.82-8.27-47.71-12.12-75.18-12.12-8.16,0-16.75.33-26.26,1-18.64,1.32-31.07,6.42-45.09,14.22-22.24,12.37-41.81,30.44-56.59,52.24-14.93,22.02-24.36,46.98-27.27,72.18-1.97,17.01-.79,33.83.83,52.47,1.82,20.99,5.15,37.23,16.75,58.14,9.62,17.33,26.25,35.84,44.09,35.84,3.05,0,6.04-.52,8.93-1.56-.14,6.42,1.94,12.45,6.04,17.33,6,7.13,15.83,11.38,26.31,11.38,2,0,3.99-.16,5.92-.47,4.69-.76,9.38-1.9,13.92-3,3.14-.76,6.39-1.55,9.46-2.16,3.9-.78,7.95-1.42,11.87-2.05l-1.38-8.66,1.45,8.65c3.46-.55,7.04-1.12,10.6-1.79,4.37-.82,8.63-1.78,12.75-2.71,9.6-2.16,19.54-4.4,29.04-4.4,6.41,0,12.28.99,17.94,3.03,2.79,1.01,5.44,2.54,8.25,4.17,5.03,2.92,10.72,6.22,18.26,6.87,1.41.12,2.73.14,3.87.14h2.21c1.44,0,2.95.03,4.2.29,1.18.25,2.83,1.01,4.46,1.76,1.64.76,3.34,1.55,5.2,2.13,4.49,1.42,9.97,2.14,16.29,2.14,3.6,0,7.52-.24,11.32-.7l.59-.07c5.4-.64,13.57-1.61,17.62-7.6,1.48-2.19,2.95-5.9,1.54-11.15-1.2-4.46-6.15-9.71-10.89-13.84,10.19-2.12,26.71-7.6,33.39-13.31,6.3-5.39,6.34-11.24,5.8-14.25-1.22-6.8-7.22-11.91-13.03-14.82,3.13-3.45,4.82-7.98,5.85-10.74.09-.25,9.26-25.6,4.41-36.62-.33-.76-.98-2.21-2.16-3.59,2.33-1.6,4.39-3.4,6.06-5.45,3.06-3.76,4.69-9.29,6.28-14.64.77-2.59,1.49-5.04,2.24-6.76.53-1.22,1.5-2.87,2.53-4.62,2.41-4.1,4.65-8.11,5.64-12.2,2.06-8.59-2.35-13.61-5.16-15.83Z"/>
        <g>
          <path class="cls-6" d="M514.18,526.75c-5.42,0-10.01-.58-13.65-1.73-1.33-.42-2.72-1.06-4.19-1.74-2.03-.94-4.13-1.91-6.29-2.37-2.04-.43-4.1-.49-6.02-.49h-2.24c-.93,0-2.02,0-3.09-.1-5.59-.48-9.97-3.03-14.62-5.72-3.01-1.75-6.13-3.56-9.67-4.83-6.63-2.39-13.47-3.55-20.91-3.55-10.47,0-20.89,2.34-30.96,4.61-4.06.91-8.27,1.86-12.46,2.65-3.45.65-6.99,1.22-10.41,1.76-4.01.64-8.15,1.3-12.22,2.11-3.25.65-6.6,1.46-9.83,2.25-4.37,1.06-8.9,2.16-13.24,2.87-1.47.24-2.99.36-4.51.36-7.8,0-15.31-3.16-19.6-8.25-3.37-4-4.64-9.01-3.69-14.5.1-.58.36-1.45.63-2.38.7-2.39,1.43-4.87.92-6.62-.46-1.54-1.58-2.47-3.01-2.47-1.8,0-3.53,1.55-4.92,2.79-.32.29-.69.62-.85.73-3.42,2.35-7.04,3.54-10.76,3.54-14.05,0-28.4-16.87-36.42-31.32-10.84-19.54-13.96-34.83-15.68-54.64-1.58-18.16-2.73-34.52-.86-50.71,2.75-23.81,11.68-47.41,25.82-68.27,14.01-20.67,32.55-37.79,53.6-49.5,13.3-7.4,24.35-11.92,41.44-13.14,9.3-.66,17.68-.98,25.64-.98,26.46,0,49.43,3.7,72.3,11.63,40.46,14.04,71.52,32.54,91.58,77.18l.7,1.56c3.98,8.82,8.5,18.82,7.11,28.36-.75,5.16-9.11,8.3-15.22,10.59-1.84.69-3.58,1.34-5.02,2-16.49,7.56-27.18,16.25-38.13,31-.17.23-.35.46-.54.69-1.23,1.56-3.28,4.16-1.43,7.33.15.25.34.46.58.63.93.64,1.9.97,2.88.97,2.77,0,4.51-2.46,5.91-4.44.43-.61.84-1.19,1.2-1.57,6.04-6.54,14.25-14.75,24.13-20.33,4.61-2.6,9.51-4.63,14.24-6.59,2.99-1.24,6.09-2.52,9.12-3.95,1.43-.67,2.96-1.58,4.59-2.54,3.62-2.14,7.73-4.58,11.12-4.58,1.34,0,2.47.39,3.48,1.18,4.59,3.63,1.82,9.22-2.59,16.71-1.17,1.99-2.28,3.87-3.02,5.58-.96,2.21-1.76,4.91-2.61,7.77-1.34,4.52-2.72,9.19-4.67,11.59-5.56,6.84-18.89,10.63-30.65,13.98-5.4,1.54-10.5,2.99-14.45,4.63-12.17,5.05-14.06,12.9-16.06,21.21-.77,3.19-1.56,6.48-2.95,9.95-6.1,15.27-19.22,27.43-35.11,32.52-4.26,1.37-8.53,1.97-13.86,1.97-2.5,0-4.95-.13-7.54-.26-2.64-.14-5.36-.28-8.18-.28-1.47,0-2.84.04-4.18.11-5.07.29-11.08,2.09-17.45,4-7.16,2.15-14.56,4.37-20.64,4.37-2.6,0-4.72-.4-6.5-1.22-2.7-1.24-5.06-4.02-6.16-7.25-.95-2.78-.86-5.5.26-7.65.57-1.1,1.52-1.26,2.03-1.26.7,0,1.41.28,2,.79.14.15.51.81.75,1.24.93,1.66,2.09,3.72,4.17,3.72.57,0,1.43-.18,2.26-1.01.59-.59,1.24-1.67,1-3.44-.36-2.74-2.78-6.12-4.62-7.2-.73-.43-1.6-.64-2.36-.83-.03,0-.06-.02-.09-.02.58-.67,1.16-1.33,1.74-1.98,4.67-5.32,9.07-10.34,12.59-16.72,2.7-4.91,4.54-10.42,6.32-15.75,2.75-8.21,5.34-15.97,10.79-21.61,3.28-3.39,7.38-6.87,11.73-10.56,10.97-9.29,23.4-19.83,26.6-32.82.84-3.41,1.12-6.87,1.4-10.21.28-3.43.55-6.67,1.36-9.89,3.37-13.32,10.19-22.05,18.08-32.16,1.01-1.29,2.03-2.6,3.07-3.95,1.33-1.73,2.64-3.62,3.9-5.44,1.84-2.65,3.74-5.39,5.72-7.65.49-.55,1.36-1.43,2.25-2.24-.54,2.61-1.35,5.19-2.19,7.87-.87,2.78-1.77,5.66-2.36,8.61-1.41,7.06-.58,13.11.22,18.97.59,4.34,1.16,8.43.87,12.93-.27,4.36-1.64,6.56-3.23,9.11-1.06,1.71-2.27,3.65-3.17,6.33-1.42,4.23-.96,8.43,1.26,11.53,1.92,2.67,4.96,4.19,8.35,4.19,1.93,0,3.91-.48,5.89-1.43.71-.34,4.37-2.64,4.69-5.4.13-1.11-.3-2.14-1.18-2.85-1.1-.89-2.48-.99-3.42-.99-.88,0-1.81.11-2.71.21-.84.1-1.63.19-2.31.19-.84,0-1.08-.15-1.1-.16,0,0-.06-.13-.07-.46-.03-1.58,1.5-4.07,2.86-6.26.92-1.48,1.78-2.89,2.33-4.21,3.3-7.95,1.95-15.72.64-23.24-.52-2.98-1.06-6.06-1.27-9.05-.37-5.12,1.09-9.89,2.64-14.94,1.2-3.9,2.43-7.93,2.71-12.09.24-3.57-.47-6.27-2.11-8.02-1.17-1.25-2.75-1.91-4.56-1.91-2.2,0-4.69.99-7.21,2.85-.08.06-.15.12-.21.18-7.04,6.98-14.65,15.79-22.63,26.2-8.65,11.28-14.82,25.23-16.5,37.31-.25,1.83-.39,3.59-.53,5.28-.32,4.01-.62,7.79-2.42,11.7-2.53,5.52-10.31,13.49-14.05,17.32-3.59,3.68-7.55,7.1-11.39,10.41-.77.67-1.55,1.34-2.33,2.02,1.16-3.2,2.34-6.37,3.5-9.47,8.5-22.71,16.54-44.17,10.16-70.05-7.43-30.19-27.34-46.14-57.57-46.14-2.35,0-4.79.1-7.26.29-32.78,2.55-62.78,42-71.2,54.03-2.02,2.89-3.92,5.98-5.76,8.97-2.21,3.59-4.49,7.29-6.93,10.56-.37.49-1.05,1.25-1.77,2.06-3.27,3.64-5.55,6.41-5.17,8.83.36,2.32,1.94,3.75,4.11,3.75,2.03,0,4.05-1.23,5.17-2.29,5.34-5.03,9.58-11.88,13.68-18.51,2.01-3.25,3.91-6.32,5.9-9.13,11.28-15.92,36.57-42.77,56.42-47.06,4.76-1.03,9.5-1.55,14.08-1.55,18.66,0,33.21,8.39,40.99,23.62,14.84,29.07,4.88,55.55-5.68,83.58-3.07,8.15-6.24,16.57-8.73,25.02-1.14,3.87-1.92,7.3-2.68,10.61-1.87,8.21-3.35,14.69-9.12,22.96-1.96,2.81-4.42,5.49-7.03,8.32-8.05,8.76-17.17,18.69-9.23,32.95,4.16,7.47,10.79,11.1,20.28,11.1,7.41,0,15.42-2.17,23.16-4.27,5.93-1.61,11.53-3.13,16.14-3.44.95-.06,1.92-.09,2.97-.09,2.77,0,5.62.22,8.38.44,2.83.22,5.75.45,8.66.45,2.23,0,4.23-.13,6.12-.4,2.85-.41,5.78-1.44,8.62-2.44,2.62-.92,5.09-1.79,7.06-2,.53-.06,1.16-.09,1.86-.09,6.78,0,19.14,2.67,24.04,5.19,1.77.91,3.37,2.13,5.07,3.41,1.49,1.13,3.03,2.3,4.73,3.27,1.41.81,2.81,1.35,4.17,1.88,1.18.46,2.29.88,3.3,1.45,4.19,2.33,14.76,11.55,15.76,15.29.45,1.67.34,2.97-.33,3.96-1.8,2.66-7.57,3.34-11.39,3.8l-.59.07c-3.48.42-7.03.64-10.28.64ZM438.41,448.55c-3.27,0-4.25,2.12-4.52,3.03-.5,1.68-.25,3.33.72,4.77,2.23,3.32,7.69,4.71,10.57,5.01.81.08,1.67.12,2.58.12,8.52,0,20.16-3.53,24.96-10.06,1.59-2.16,2.04-4.84,1.11-6.66-.68-1.34-2.01-2.11-3.65-2.11-.44,0-.91.05-1.4.16-1.17.26-2.31,1.22-3.91,2.65-.59.53-1.21,1.08-1.59,1.33-3.84,2.54-8.95,4.06-13.66,4.06-.76,0-1.51-.04-2.23-.12-.55-.06-1.65-.42-2.71-.77-2.01-.66-4.29-1.41-6.27-1.41Z"/>
          <path class="cls-6" d="M542.84,456.16c-3.78,0-7.46-.25-11.36-.52-2.16-.15-4.39-.3-6.62-.41-.23-.01-.55-.02-.92-.02-.62,0-1.43.01-2.35.03-1.18.02-2.54.04-3.91.04-3.42,0-5.09-.15-5.9-.29.22-1.05.94-2.73,1.58-4.23.56-1.32,1.15-2.69,1.5-3.85.73-2.37,1.23-4.62,1.67-6.6,1.48-6.7,2.46-11.12,10.42-14.38,2.72-1.12,5.85-2.04,8.88-2.93,2.21-.65,4.49-1.32,6.63-2.07,1.77-.62,3.91-1.51,6.18-2.46,4.06-1.7,8.67-3.62,11.53-4.09.41-.07.76-.1,1.03-.1.59,0,.81,0,1.55,1.68,2.37,5.37-1.68,22.15-4.6,30.03-1.19,3.21-3.42,9.19-7.21,9.68-2.5.33-5.15.48-8.08.48Z"/>
          <path class="cls-6" d="M527.29,494.33c-4.7,0-8.75-3.03-13.05-6.24-2.75-2.05-5.59-4.17-8.69-5.52-3.19-1.38-6.38-2.07-9.46-2.74-1.12-.24-2.27-.49-3.42-.77.26-.32.7-.69,1.42-1.23.51-.38,1.03-.78,1.52-1.25,2.19-2.13,4.29-4.38,6.32-6.55,1.02-1.09,2.04-2.19,3.08-3.27,3.27-1.24,6.89-1.82,11.34-1.82,3.75,0,7.64.42,11.41.83,2.03.22,4.12.45,6.17.6.99.14,2.08.21,3.33.21,1.96,0,4.04-.18,6.05-.35,1.96-.17,3.99-.34,5.84-.34,2.12,0,3.78.23,5.06.7,4.78,1.76,9.98,5.6,10.69,9.56.38,2.09-.56,4.06-2.86,6.03-5.88,5.03-26.26,11.49-33.87,12.1-.3.02-.59.04-.89.04Z"/>
        </g>
        <g>
          <polygon class="cls-10" points="533.86 463.53 542.88 469.24 547.49 478.14 547.49 486.52 545.33 494.33 561.08 488.79 568.06 479.63 567.36 469.24 558.02 462.38 542.16 461.49 533.86 463.53"/>
          <polygon class="cls-10" points="518.88 494.06 518.49 503.52 518 510.68 511.77 516.77 489.6 524.59 509.76 531.84 530.94 529.88 537.96 522.18 536.44 510.7 526.1 498.63 518.88 494.06"/>
        </g>
        <path class="cls-16" d="M514.35,500.4c10.52,2.33,10.51,8.54,3.1,15.18-8.06,7.23-16.72,11.6-27.26,6.19-.02-1.4,5.79-.84,7.04-1.01,6.19-.84,20.95-7.69,20.27-15.11-.3-3.21-3.46-2.15-3.15-5.26Z"/>
        <path class="cls-7" d="M470.17,442.65c-.44,0-.91.05-1.4.16-1.17.26-2.31,1.22-3.91,2.65-.59.53-1.21,1.08-1.59,1.33-3.84,2.54-8.95,4.06-13.66,4.06-.76,0-1.51-.04-2.23-.12-.55-.06-1.65-.42-2.71-.77-2.01-.66-4.29-1.41-6.27-1.41-3.27,0-4.25,2.12-4.52,3.03-.5,1.68-.25,3.33.72,4.77,2.23,3.32,7.69,4.71,10.57,5.01.81.08,1.67.12,2.58.12,8.52,0,20.16-3.53,24.96-10.06,1.59-2.16,2.04-4.84,1.11-6.66-.68-1.34-2.01-2.11-3.65-2.11Z"/>
        <path class="cls-7" d="M586.19,349.34c-2.54-2.01-5.63-3.08-8.93-3.08-1.61,0-3.2.25-4.73.66,1.68-12.01-3.58-23.67-7.82-33.05l-.7-1.55c-10.05-22.37-23.38-39.84-40.74-53.38-14.48-11.29-31.74-20.08-55.96-28.49-23.82-8.27-47.71-12.12-75.18-12.12-8.16,0-16.75.33-26.26,1-18.64,1.32-31.07,6.42-45.09,14.22-22.24,12.37-41.81,30.44-56.59,52.24-14.93,22.02-24.36,46.98-27.27,72.18-1.97,17.01-.79,33.83.83,52.47,1.82,20.99,5.15,37.23,16.75,58.14,9.62,17.33,26.25,35.84,44.09,35.84,3.05,0,6.04-.52,8.93-1.56-.14,6.42,1.94,12.45,6.04,17.33,6,7.13,15.83,11.38,26.31,11.38,2,0,3.99-.16,5.92-.47,4.69-.76,9.38-1.9,13.92-3,3.14-.76,6.39-1.55,9.46-2.16,3.9-.78,7.95-1.42,11.87-2.05l-1.38-8.66c-4,.64-8.14,1.3-12.21,2.11-3.25.65-6.6,1.46-9.83,2.25-4.37,1.06-8.9,2.16-13.24,2.87-1.47.24-2.99.36-4.51.36-7.8,0-15.31-3.16-19.6-8.25-3.37-4-4.64-9.01-3.69-14.5.1-.58.36-1.45.63-2.38.7-2.39,1.43-4.87.92-6.62-.46-1.54-1.58-2.47-3.01-2.47-1.8,0-3.53,1.55-4.92,2.79-.32.29-.69.62-.85.73-3.42,2.35-7.04,3.54-10.76,3.54-14.05,0-28.4-16.87-36.42-31.32-10.84-19.54-13.96-34.83-15.68-54.64-1.58-18.16-2.73-34.52-.86-50.71,2.75-23.81,11.68-47.41,25.82-68.27,14.01-20.67,32.55-37.79,53.6-49.5,13.3-7.4,24.35-11.92,41.44-13.14,9.3-.66,17.68-.98,25.64-.98,26.46,0,49.43,3.7,72.3,11.63,40.46,14.04,71.52,32.54,91.58,77.18l.7,1.56c3.98,8.82,8.5,18.82,7.11,28.36-.75,5.16-9.11,8.3-15.22,10.59-1.84.69-3.58,1.34-5.02,2-16.49,7.56-27.18,16.25-38.13,31-.17.23-.35.46-.54.69-1.23,1.56-3.28,4.16-1.43,7.33.15.25.34.46.58.63.93.64,1.9.97,2.88.97,2.77,0,4.51-2.46,5.91-4.44.43-.61.84-1.19,1.2-1.57,6.04-6.54,14.25-14.75,24.13-20.33,4.61-2.6,9.51-4.63,14.24-6.59,2.99-1.24,6.09-2.52,9.12-3.95,1.43-.67,2.96-1.58,4.59-2.54,3.62-2.14,7.73-4.58,11.12-4.58,1.34,0,2.47.39,3.48,1.18,4.59,3.63,1.82,9.22-2.59,16.71-1.17,1.99-2.28,3.87-3.02,5.58-.96,2.21-1.76,4.91-2.61,7.77-1.34,4.52-2.72,9.19-4.67,11.59-5.56,6.84-18.89,10.63-30.65,13.98-5.4,1.54-10.5,2.99-14.45,4.63-12.17,5.05-14.06,12.9-16.06,21.21-.77,3.19-1.56,6.48-2.95,9.95-6.1,15.27-19.22,27.43-35.11,32.52-4.26,1.37-8.53,1.97-13.86,1.97-2.5,0-4.95-.13-7.54-.26-2.64-.14-5.36-.28-8.18-.28-1.47,0-2.84.04-4.18.11-5.07.29-11.08,2.09-17.45,4-7.16,2.15-14.56,4.37-20.64,4.37-2.6,0-4.72-.4-6.5-1.22-2.7-1.24-5.06-4.02-6.16-7.25-.95-2.78-.86-5.5.26-7.65.57-1.1,1.52-1.26,2.03-1.26.7,0,1.41.28,2,.79.14.15.51.81.75,1.24.93,1.66,2.09,3.72,4.17,3.72.57,0,1.43-.18,2.26-1.01.59-.59,1.24-1.67,1-3.44-.36-2.74-2.78-6.12-4.62-7.2-.73-.43-1.6-.64-2.36-.83-.03,0-.06-.02-.09-.02.58-.66,1.16-1.33,1.74-1.98,4.67-5.32,9.07-10.34,12.59-16.72,2.7-4.91,4.54-10.42,6.32-15.75,2.75-8.21,5.34-15.97,10.79-21.61,3.28-3.39,7.38-6.87,11.73-10.56,10.97-9.29,23.4-19.83,26.6-32.82.84-3.41,1.12-6.87,1.4-10.21.28-3.43.55-6.67,1.36-9.89,3.37-13.32,10.19-22.05,18.08-32.16,1.01-1.29,2.03-2.6,3.07-3.95,1.33-1.73,2.64-3.62,3.9-5.44,1.84-2.65,3.74-5.39,5.72-7.65.49-.55,1.36-1.43,2.25-2.24-.54,2.61-1.35,5.19-2.19,7.87-.87,2.78-1.77,5.66-2.36,8.61-1.41,7.06-.58,13.11.22,18.97.59,4.34,1.15,8.43.87,12.93-.27,4.36-1.64,6.56-3.23,9.11-1.06,1.71-2.27,3.65-3.17,6.33-1.42,4.23-.96,8.43,1.26,11.53,1.92,2.67,4.96,4.19,8.35,4.19,1.93,0,3.91-.48,5.89-1.43.71-.34,4.37-2.64,4.69-5.4.13-1.11-.3-2.14-1.18-2.85-1.1-.89-2.48-.99-3.42-.99-.88,0-1.81.11-2.71.21-.84.1-1.63.19-2.31.19-.84,0-1.08-.15-1.1-.16,0,0-.06-.13-.07-.46-.03-1.58,1.5-4.07,2.86-6.26.92-1.48,1.78-2.89,2.33-4.21,3.3-7.95,1.95-15.72.64-23.24-.52-2.98-1.06-6.06-1.27-9.05-.37-5.12,1.09-9.89,2.64-14.94,1.2-3.9,2.43-7.93,2.71-12.09.24-3.57-.47-6.27-2.11-8.02-1.17-1.25-2.75-1.91-4.56-1.91-2.2,0-4.69.99-7.21,2.85-.08.06-.15.12-.21.18-7.04,6.98-14.65,15.79-22.63,26.2-8.65,11.28-14.82,25.23-16.5,37.31-.25,1.83-.39,3.59-.53,5.28-.32,4.01-.62,7.79-2.42,11.7-2.53,5.52-10.31,13.49-14.05,17.32-3.59,3.68-7.55,7.1-11.39,10.41-.77.67-1.55,1.34-2.33,2.02,1.16-3.2,2.34-6.37,3.5-9.47,8.5-22.71,16.54-44.17,10.16-70.05-7.43-30.19-27.34-46.14-57.57-46.14-2.35,0-4.79.1-7.26.29-32.78,2.55-62.78,42-71.2,54.03-2.02,2.89-3.92,5.98-5.76,8.97-2.21,3.59-4.49,7.29-6.93,10.56-.37.49-1.05,1.25-1.77,2.06-3.27,3.64-5.55,6.41-5.17,8.83.36,2.32,1.94,3.75,4.11,3.75,2.03,0,4.05-1.23,5.17-2.29,5.34-5.03,9.58-11.88,13.68-18.51,2.01-3.25,3.91-6.32,5.9-9.13,11.28-15.92,36.57-42.77,56.42-47.06,4.76-1.03,9.5-1.55,14.08-1.55,18.66,0,33.21,8.39,40.99,23.62,14.84,29.07,4.88,55.55-5.68,83.58-3.07,8.15-6.24,16.57-8.73,25.02-1.14,3.87-1.92,7.3-2.68,10.61-1.87,8.21-3.35,14.69-9.12,22.96-1.96,2.81-4.42,5.49-7.03,8.32-8.05,8.76-17.17,18.69-9.23,32.95,4.16,7.47,10.79,11.1,20.28,11.1,7.41,0,15.42-2.17,23.16-4.27,5.93-1.61,11.53-3.13,16.14-3.44.95-.06,1.92-.09,2.97-.09,2.77,0,5.62.22,8.38.44,2.83.22,5.75.45,8.66.45,2.23,0,4.23-.13,6.12-.4,2.85-.41,5.78-1.44,8.62-2.44,2.62-.92,5.09-1.79,7.06-2,.53-.06,1.16-.09,1.86-.09,6.78,0,19.14,2.67,24.04,5.19,1.77.91,3.37,2.13,5.07,3.41,1.49,1.13,3.03,2.3,4.73,3.27,1.41.81,2.81,1.35,4.17,1.88,1.18.45,2.29.88,3.3,1.45,4.19,2.33,14.76,11.55,15.76,15.29.45,1.67.34,2.97-.33,3.96-1.8,2.66-7.57,3.34-11.39,3.8l-.59.07c-3.48.42-7.03.64-10.28.64-5.42,0-10.01-.58-13.65-1.73-1.33-.42-2.72-1.06-4.19-1.74-2.03-.94-4.13-1.91-6.29-2.37-2.04-.43-4.1-.49-6.02-.49h-2.24c-.93,0-2.02,0-3.09-.1-5.59-.48-9.97-3.03-14.62-5.72-3.01-1.75-6.13-3.56-9.67-4.83-6.63-2.39-13.47-3.55-20.91-3.55-10.47,0-20.89,2.34-30.96,4.61-4.06.91-8.27,1.86-12.46,2.65-3.45.65-6.99,1.22-10.41,1.76,0,0,0,0-.01,0l1.45,8.65c3.46-.55,7.04-1.12,10.6-1.79,4.37-.82,8.63-1.78,12.75-2.71,9.6-2.16,19.54-4.4,29.04-4.4,6.41,0,12.28.99,17.94,3.03,2.79,1.01,5.44,2.54,8.25,4.17,5.03,2.92,10.72,6.22,18.26,6.87,1.41.12,2.73.14,3.87.14h2.21c1.44,0,2.95.03,4.2.29,1.18.25,2.83,1.01,4.46,1.76,1.64.76,3.34,1.55,5.2,2.13,4.49,1.42,9.97,2.14,16.29,2.14,3.6,0,7.52-.24,11.32-.7l.59-.07c5.4-.64,13.57-1.61,17.62-7.6,1.48-2.19,2.95-5.9,1.54-11.15-1.2-4.46-6.15-9.71-10.89-13.84,10.19-2.12,26.71-7.6,33.39-13.31,6.3-5.39,6.34-11.24,5.8-14.25-1.22-6.8-7.22-11.91-13.03-14.82,3.13-3.45,4.82-7.98,5.85-10.74.09-.25,9.26-25.6,4.41-36.62-.33-.76-.98-2.21-2.16-3.59,2.33-1.6,4.39-3.4,6.06-5.45,3.06-3.76,4.69-9.29,6.28-14.64.77-2.59,1.49-5.04,2.24-6.76.53-1.22,1.5-2.87,2.53-4.62,2.41-4.1,4.65-8.11,5.64-12.2,2.06-8.59-2.35-13.61-5.16-15.83ZM564.91,476.16c.38,2.09-.56,4.06-2.86,6.03-5.88,5.03-26.26,11.49-33.87,12.1-.3.02-.59.04-.89.04-4.7,0-8.75-3.03-13.05-6.24-2.75-2.05-5.59-4.17-8.69-5.52-3.19-1.38-6.38-2.07-9.46-2.74-1.12-.24-2.27-.49-3.42-.77.26-.32.7-.69,1.42-1.23.51-.38,1.03-.78,1.52-1.25,2.19-2.13,4.29-4.38,6.32-6.55,1.02-1.09,2.04-2.19,3.08-3.27,3.27-1.24,6.89-1.82,11.34-1.82,3.75,0,7.64.42,11.41.83,2.03.22,4.12.45,6.17.6.99.14,2.08.21,3.33.21,1.96,0,4.04-.18,6.05-.35,1.96-.17,3.99-.34,5.84-.34,2.12,0,3.78.23,5.06.7,4.78,1.76,9.98,5.6,10.69,9.56ZM558.13,446c-1.19,3.21-3.42,9.19-7.21,9.68-2.5.33-5.15.48-8.08.48-3.78,0-7.46-.25-11.36-.52-2.16-.15-4.39-.3-6.62-.41-.23-.01-.55-.02-.92-.02-.62,0-1.43.01-2.35.03-1.18.02-2.54.04-3.91.04-3.42,0-5.09-.15-5.9-.29.22-1.05.94-2.73,1.58-4.23.56-1.32,1.15-2.69,1.5-3.85.73-2.37,1.23-4.62,1.67-6.6,1.48-6.7,2.46-11.12,10.42-14.38,2.72-1.12,5.85-2.04,8.88-2.93,2.21-.65,4.49-1.32,6.63-2.07,1.77-.62,3.91-1.51,6.18-2.46,4.06-1.7,8.67-3.62,11.53-4.09.41-.07.76-.1,1.03-.1.59,0,.81,0,1.55,1.68,2.37,5.37-1.68,22.15-4.6,30.03Z"/>
        <path class="cls-6" d="M561.19,414.29c-.27,0-.62.03-1.03.1-2.86.47-7.46,2.39-11.53,4.09-2.27.95-4.41,1.84-6.18,2.46-2.14.75-4.42,1.42-6.63,2.07-3.03.89-6.16,1.81-8.88,2.93-7.96,3.26-8.94,7.69-10.42,14.38-.44,1.98-.94,4.23-1.67,6.6-.36,1.16-.94,2.53-1.5,3.85-.64,1.5-1.35,3.18-1.58,4.23.81.13,2.48.29,5.9.29,1.37,0,2.73-.02,3.91-.04.92-.02,1.73-.03,2.35-.03.38,0,.69,0,.92.02,2.23.11,4.46.26,6.62.41,3.9.27,7.59.52,11.36.52,2.93,0,5.58-.16,8.08-.48,3.79-.49,6.01-6.47,7.21-9.68,2.93-7.88,6.97-24.65,4.6-30.03-.74-1.68-.96-1.68-1.55-1.68Z"/>
        <g>
          <g>
            <path class="cls-15" d="M325.67,372.11c1.64-.15,2.79.95,4.26,1.09,1.89.19,3.56-.68,5.5-.65,5.49.09,8.64,5.42,8.83,10.44.35,9.28-11.22,21.55-20.72,17-1.57-.75-7.73-5.02-8.5-6.37-3.92-6.92,2.52-20.77,10.63-21.51Z"/>
            <path class="cls-15" d="M279.19,435.34c11.08-1.85,24.53,10.56,14.43,20-1.76,1.65-4.66,2.98-6.77,4.38-2.48,1.64-3.3,4.03-7.18,4.04-12.21,0-13.26-26.27-.47-28.41Z"/>
            <path class="cls-15" d="M390.67,356.28c-2.49,2.63-7.28,3.66-10.55,2-6.39-3.25-.4-11.15-1-16.36-.48-4.17-3.93-5.65-3.07-11.1,1.75-11.16,16.91-9.93,18.89,1.48.6,3.47-.26,13.97-1.12,17.54-.45,1.87-1.87,5.08-3.16,6.45Z"/>
            <path class="cls-15" d="M352.94,338.69c2.71-.13,8.2.71,10.5,2.19,6.72,4.32,3.94,19.59-3.37,21.06-2.25.45-12.77-.62-15.03-1.41-11.71-4.12-3.68-21.29,7.91-21.83Z"/>
            <path class="cls-15" d="M295.91,398.77c9.39-1.96,15.98,6.9,9.72,15.29-1.72,2.31-10.03,11.05-12.31,11.85-10.11,3.58-13.2-13.35-9.3-19.83,1.3-2.15,9.46-6.81,11.89-7.32Z"/>
            <path class="cls-15" d="M393.56,374.27c-3.42-3.79-.28-9.33,2.03-12.76,1.36-2.03,7.73-10.1,9.34-11.1,4.61-2.87,9.61-1.6,11.91,3.37,5.29,11.43-7.66,26.41-19.91,22.39-.83-.27-2.85-1.3-3.38-1.89Z"/>
            <path class="cls-15" d="M321.95,334.95c9.41-1.34,11.55,14.93,5.67,20.56-3.76,3.6-6.66,1.46-10.65,2.36-1.6.36-2.6,2.04-4.51,2.33-4.03.6-6.79-2.02-7.06-5.94-.09-1.24,1.69-12.25,2.19-13.2.46-.87,2.01-2.23,2.92-2.66.95-.45,10.34-3.29,11.44-3.45Z"/>
            <path class="cls-15" d="M373.39,364.04c6.21-.71,10.89,6.88,8.85,12.62-1.71,4.82-5.38,4.88-8.89,7.22-4.9,3.26-11.43,9.93-17.77,5.13-4.13-3.13-1.89-7.91.34-11.41,2.38-3.74,13.15-13.06,17.47-13.56Z"/>
            <path class="cls-15" d="M371.54,286.66c6.8-.73,14.31,5.85,14.94,12.6.72,7.63-6.5,18.09-14.84,15.45-4.27-1.35-2.49-6.92-3.81-10.43-1.53-4.06-6.02-5.43-4.54-10.99,1.14-4.29,4.03-6.17,8.25-6.62Z"/>
            <path class="cls-15" d="M350.48,303.39c1.22-.04,1.98-.32,3.39-.04,9.74,1.94,3.82,23.19-7.21,22.14-.94-.09-12.88-4.74-13.37-5.26-2.28-2.36-.49-4.2-.16-6.32.44-2.82-.17-5.32,2.3-7.61,2.75-2.55,11.23-2.77,15.07-2.91Z"/>
            <path class="cls-15" d="M403.75,300.87c6.73-.99,11.71,9.83,12.89,15.32,1.1,5.11,1.17,16.72-5.64,17.97-10.67,1.97-7.11-10.47-8.46-15.03-.3-1.02-2.97-3.07-3.84-4.83-2.62-5.3-1.6-12.45,5.06-13.43Z"/>
            <path class="cls-15" d="M312.66,450.79c3.85-.52,12.3,5.1,13.04,9.03,1.13,5.97-4.98,7.74-8.51,10.43-3.51,2.68-5,6.14-10.36,6.41-8.32.43-8.1-7.49-5.95-13.43,1.19-3.27,8.11-11.95,11.77-12.45Z"/>
            <path class="cls-15" d="M370.27,422.32c12.21-2.55,15.04,12.22,3.7,16.71-5.35,2.12-7.17-.05-11.8.11-4.5.15-13.82,4.92-13.27-4.73.54-9.38,6.26-6.29,11.79-7.42,2.77-.57,6.79-4.09,9.57-4.68Z"/>
            <path class="cls-15" d="M390.13,388.89c3.12-.36,6.18-.16,7.83,2.97,1.25,2.37,1.39,11.05.84,13.75-2.35,11.55-23.52,10.29-20.78-2.82.2-.93,4.16-9.18,4.81-10.06,1.74-2.36,4.48-3.51,7.31-3.84Z"/>
            <path class="cls-15" d="M356.01,399.38c11.45-2.58,21.55,6.85,11.35,16.3-9.63,8.92-24.33,3.71-17.48-9.42.92-1.77,4.32-6.47,6.13-6.88Z"/>
            <path class="cls-15" d="M297.15,368.39c7.14-.98,6.31,9.83,3.78,14.34-4.07,7.24-9.54,9.25-16.59,4.42-4.28-2.93-3.43-9.79-.55-13.51s4.78-1.58,8.12-2.41c1.35-.34,3.57-2.6,5.24-2.83Z"/>
            <path class="cls-15" d="M344.85,448.95c13.22-3.02,15.88,18.51,3,22.2-3.63,1.04-8.86,1.14-9.6-3.47-.68-4.3,1.46-17.56,6.6-18.73Z"/>
            <path class="cls-15" d="M269.26,389.47c7.37-1.7,14.17,8.32,7.31,12.89-1.72,1.15-3.99,1.07-5.6,2.46-2.89,2.49-2.74,8.43-8.53,6.7-4.64-1.39-4.71-14.11-1.64-16.88,1.16-1.04,3.04-1.17,4.25-1.94,1.48-.94,2.22-2.77,4.21-3.22Z"/>
            <path class="cls-15" d="M333.05,421.77c7.79,7.72-4.5,22.67-13.12,15.29-8.82-7.54,4.01-24.32,13.12-15.29Z"/>
            <path class="cls-15" d="M369.65,447.7c8.69-1.93,8.01,10.59.43,11.02-5.43.31-6.68-9.64-.43-11.02Z"/>
            <path class="cls-15" d="M513.88,280.53c4-.1,11.17,5.24,11.3,9.46.21,6.59-9.94-1.52-11.61-3.83-.82-1.13-1.55-2.36-1.86-3.74,0-1.06,1.24-1.87,2.17-1.89Z"/>
            <path class="cls-15" d="M501.71,273.37c-1.67,2.65-16.72-3.49-13.59-8.15,2.15-3.2,16.75,3.12,13.59,8.15Z"/>
            <path class="cls-15" d="M390.43,244.18c-1.56-1.56.04-4.39,2.02-4.78,2.4-.48,11.67.65,12.11,3.41.97,6.14-11.36,4.15-14.12,1.37Z"/>
            <path class="cls-15" d="M471.96,287.63c-3.29,2.07-14-4.01-10.91-9.05,3.12-2.71,10.99,2.92,11.53,5.88.13.74-.15,2.87-.62,3.17Z"/>
            <path class="cls-15" d="M406.82,258.1c2.74-.8,13.31-.03,11.89,4.42-3.76,3.26-12.12,3.68-14.1-1.87-.08-.9,1.42-2.32,2.21-2.55Z"/>
            <path class="cls-15" d="M377.11,258.13c8.76-1.06,11.44,4.66,2.51,6.85-9.31,2.28-11.02-5.82-2.51-6.85Z"/>
            <path class="cls-15" d="M426.03,245.08c1.95-.55,10.67.43,11.65,2.36,2.19,4.27-7.78,4.72-10.26,4.05-3.69-.99-5.18-5.33-1.39-6.41Z"/>
            <path class="cls-15" d="M292.21,286.63c2.8,2.78-3.89,13.27-8.27,9.82-3.25-2.56,4.17-13.91,8.27-9.82Z"/>
            <path class="cls-15" d="M338.05,269.9c1.19-.2,4.14-.56,4.86.43,2.58,6.19-13.58,10.93-12.67,4.83.34-2.27,5.66-4.9,7.81-5.26Z"/>
            <path class="cls-15" d="M307.39,294.38c-4.62-4.6,11.32-14.01,10.21-4.57-.38,3.27-7.72,7.05-10.21,4.57Z"/>
            <path class="cls-15" d="M462.59,252.53c2.11-.46,6.78.46,8.47,1.79,4.03,3.18-3.29,8.23-8.52,4.81-2.6-1.7-3.62-5.79.06-6.6Z"/>
            <path class="cls-15" d="M312.63,262.45c4.95-1.46,5.76,1.78,2.65,5.13-.39.42-4.32,3.9-4.61,4.07-2.78,1.67-5.43-1.23-4.58-3.94.18-.59,5.91-5.07,6.54-5.25Z"/>
            <path class="cls-15" d="M369.05,245.43c-1.31,1.22-13.25,3.46-13.26-.78-.02-4.95,18.64-4.23,13.26.78Z"/>
            <path class="cls-15" d="M329.01,255.41c-2.22-3.51,8.01-7.65,10.3-7.85,2.33-.21,4.43,1.48,2.34,3.62-1.38,1.42-11.2,6.51-12.64,4.23Z"/>
            <path class="cls-15" d="M280.42,324.39c7.25-2.14,4.02,12.44-2.53,10.37-2.4-.76-.94-9.35,2.53-10.37Z"/>
            <path class="cls-15" d="M437.14,264.24c2.61-.07,11.79,1.52,9.85,5.5-2.06,4.22-14.3-.68-9.85-5.5Z"/>
          </g>
          <g>
            <path class="cls-15" d="M476.24,385.78c4.3,4.16-9.59,5.61-11.75,6.21-12.76,3.55-25.6,7.51-35.81,16.24-16.92,14.47-18.35,43.09-36.52,56.42-.85.62-1.25,1.17-2.5.9,2.9-7.7,9.7-13.06,13.35-20.42,6.72-13.54,6.28-27.44,18.24-38.76,12.04-11.38,27.16-16.95,43.27-19.93,2.31-.43,10.31-2.03,11.73-.66Z"/>
            <path class="cls-15" d="M456.57,377.56c-1.07-4.18,2.48-8.12,3.02-12.77,1.18-10.07-.43-17.65,3.67-27.93s20.6-30.96,28.3-39.24c4.41-4.74,5.89-3.64,2.68,2.06-8.93,15.8-28.46,34.85-30.16,53.49-.5,5.48.49,10.88-.98,16.37-.77,2.86-3.11,8.09-6.53,8.03Z"/>
            <path class="cls-15" d="M581.11,365.79l-.31-5.58c-2.13-4.36-13.86,3.97-17.05,5.26-22.37,9.02-31.08,9.27-47.69,29.15-1.68,2.01-3.09,6.27-5.89,6.42-2.63.14-2.7-2.15-1.84-4.24,2.01-4.88,14.96-16.62,19.55-20.1,10.34-7.87,17.26-8.94,28.61-13.52,4.67-1.89,15.96-8.35,20.03-8.47,2.31-.07,6.25,1.81,6.94,4.09.54,1.78.27,6.97-2.35,7Z"/>
            <path class="cls-15" d="M512.95,499.01c10.52,2.33,10.51,8.54,3.1,15.18-8.06,7.23-16.72,11.6-27.26,6.19-.02-1.4,5.79-.84,7.04-1.01,6.19-.84,20.95-7.69,20.27-15.11-.3-3.21-3.46-2.15-3.15-5.26Z"/>
          </g>
          <path class="cls-15" d="M534.64,493.43c-.44-2.86,3.65-3.04,5.78-4.44,6.7-4.4,5.87-11.99,1.02-17.54-2.71-3.11-5.34-3.03-8.65-4.97-.05-2.02,7.96-.27,9.11.17,5.66,2.23,8.77,10.94,8.23,16.55-.64,6.67-9.54,10.12-15.49,10.22Z"/>
        </g>
        <path class="cls-16" d="M473.06,444.52c4.06,1.15,1.05,5.82-.68,8.03-6.59,8.46-24.3,12.62-33.82,7.77-1.61-.82-6.93-5.87-3.36-6.55.57-.11,6.75,3.93,9.34,4.29,8.19,1.12,20.13-1.86,25.31-8.66,1.16-1.52,1.36-3.8,3.21-4.88Z"/>
        <path class="cls-16" d="M429.3,482.9v-1.85c10.64-4.02,21.83-1.46,32.53-2.49,14.3-1.39,24.92-11.95,35.94-19.83.23,2.84-3.33,7.07-5.26,8.99-5.35,5.33-24,15.18-31.29,15.18h-31.91Z"/>
      </g>
    </g>
  </g>
  <g id="Grass">
    <g>
      <g>
        <path class="cls-8" d="M742.48,407.52c0-.11,0-.21-.01-.31-.02-.4-.06-.8-.11-1.21-.01-.08-.02-.15-.03-.23-.03-.21-.05-.41-.09-.62-.13-.69-.35-1.06-.66-1.26-.11-.08-.23-.13-.36-.14-.37-.08-.83-.03-1.43.07-13.1,2.17-18.26,31.5-15.12,41.92.22.73,1.12,2.58,1.82,2.81.34.09.64.11.94.08l.28.79c.9.19,1.32-.76,1.81-1.29,2.78-3.03,5.61-15.83,7.35-20.63,1.37-3.78,4.44-8.37,5.17-12.24.09-.5.51-4.1.47-7.14,0-.2-.01-.4-.02-.6Z"/>
        <path class="cls-8" d="M177.57,415.1c2.03-12.45,9.19-32.63,7.17-44.35-.11-.63-.54-2.15-.98-2.48-.42-.36-.86-.26-1.35-.17-.68.13-1.29.68-1.84,1.08-1.27.9-2.49,2.35-3.66,4.2-15.01,19.11-22,77.57-13.43,96.39,1.32,2.91,3.28,6.28,6.95,5.78-.06-.17-.14-.33-.21-.5,2.27.06,4.31-1.68,4.83-5.48,1.29-9.43-.43-22.25.02-32.21.32-7,1.37-15.3,2.5-22.25Z"/>
        <path class="cls-8" d="M118.18,380.06c-.45-.37-1.26.12-2.1,1.03-1.4,1.52-1.72,3.79-1.53,5.79.55,6.03,4.96,16.12,6.61,22.63.91,3.6,1.69,7.23,2.39,10.88,1.81,10.85,3.13,21.92,4.35,32.83.43,7.26.95,18.94,2.32,23.19.09.32.2.61.34.86,0,0,0,.01.01.02.05.09.09.17.14.24.02.03.03.06.05.09.52.73.71,1.24,1.77,1.02,0-.06,0-.11,0-.17,1.17.11,2.53-.3,3.14-1.13,1.27-1.73,2.37-11.91,2.61-14.65,1.85-20.57-.41-62.27-13.83-78.84-1.35-1.66-4.06-3.9-6.26-3.79Z"/>
        <path class="cls-8" d="M80.84,394.52c.03-.13.06-.26.07-.41-3.18-1.22-5.71.81-6.17,4.08-1.44,10.14,9.12,38.93,11.97,50.73.74,3.06,4.54,25.35,6.33,25.36.12-.15.23-.31.33-.47,1.99,1.76,4.43-.43,5.35-4.03.53-2.08.88-6.49,1-8.79.78-15.21-1.63-32.97-6.92-47.23-1.39-3.74-6.95-16.53-11.96-19.24Z"/>
        <path class="cls-8" d="M155.52,425.86c.3-8.11,1.81-16.62,1.18-24.77-.2-2.63-1.36-8.34-4.79-7.66-.31.06-.6.18-.89.33-4.4,1.28-6.59,8.24-7.63,12.17-4.54,17.23-1.58,39.03,2.97,56.07,1.17,4.39,2.21,9.54,4.62,13.6.81,1.64,1.79,3.08,2.85,3.55.04.04.08.08.12.11.02-.02.04-.03.06-.04.86.29,1.78-.08,2.69-1.52,1.82-2.85-.32-11.95-.61-15.57-1-12.33-1.03-23.91-.57-36.27Z"/>
        <path class="cls-8" d="M41.13,399.73s0-.02,0-.02c-.11-.02-.22-.04-.33-.04-.78-.12-1.49.06-1.98.71-.71.54-1.3,1.29-1.57,1.97-2.43,6.08,3.99,22.78,5.04,30.07,1.7,11.82-.9,23.27.08,34.11.31,3.46,1.37,3.62,2.29,2.28,1.39-.39,3.42-2.81,4.04-3.57,11.85-14.49,8.16-49.22-3.71-62.97-.89-1.03-2.46-2.2-3.88-2.54Z"/>
        <path class="cls-8" d="M112.22,420.79c.13.01.26.02.4.04-2.09-4.24-5.89-4.07-8.17-1.44,0,0,0,0,0,0,0,0,0,0,0,.01-.02.02-.04.05-.06.07-.16.17-.3.36-.42.57-.66.97-1.13,2.19-1.3,3.58-1.06,8.67,3.7,21.3,4.36,30.48.43,5.97.14,13.2.03,19.29-.05,3.11-1.53,5.56,0,8.89.17.58.41,1.13.77,1.64,2.62,3.74,5.06-4.19,5.53-5.85,4.44-15.88,7.46-41.55-.67-56.56-.14-.25-.29-.49-.45-.72Z"/>
        <path class="cls-8" d="M202.46,414.6c-.22-.72-.6-1.29-1.09-1.69-.12-.24-.4-.43-.82-.78-.22.07-.42.15-.63.23-.26-.02-.53,0-.82.05-1.13.23-2.34,1.44-3.13,2.35-3.94,3.56-5.98,9.48-7.68,14.3-3.32,9.36-7.38,26.39-4.15,36.73.45,1.86,1.14,3.22,1.97,4.06.62.77,1.41,1.37,2.34,1.34.02-.14.04-.28.05-.41,1.73-.25,3.55-2.37,4.73-6.63,1.52-5.47,2.12-11.68,3.43-17.29,1.78-7.57,7.89-25.49,5.79-32.25Z"/>
        <path class="cls-8" d="M66.43,435.38c-1.63-.76-3.99,1.18-4.51,2.83-1.87,5.99,3.54,17.76,5.03,24.25.13.56.78,6.44,1.87,10.42.22.95.48,1.74.78,2.28.55,1.2,1.17,1.76,1.87,1.11.76-.16,1.22-1.18,1.59-2.22,2.26-6.34,1.63-27.04-.88-33.34-.91-2.28-3.09-5.22-5.75-5.32Z"/>
        <path class="cls-8" d="M24.71,429.11c-3.19.57-3.84,3.17-3.78,5.93-.04,2.11.34,4.38.34,5.97.01,2.76-.76,18.47,1.54,18.98.32.07.6-.01.84-.18,2.06.28,4.09-3.45,4.7-5.16,1.76-4.95,3.25-17.64,1-22.34-.66-1.38-3.01-3.5-4.64-3.21Z"/>
        <path class="cls-8" d="M82.65,453.61c.04-.15.09-.29.13-.45-.3-.1-.58-.17-.85-.21-.31-.22-.61-.35-.87-.3-.29.06-.56.24-.82.49-2.42,1.09-2.7,5.68-3.05,8.4-.75,5.75-.73,12.15-1.21,17.99.53,3.33,4.56,5.18,4.73,3,1.5-.25,2.61-1.34,3.17-2.86.78-2.09,1.36-8.21,1.45-10.64.13-3.53-.36-11.78-2.08-14.66-.12-.21-.34-.5-.6-.78Z"/>
        <path class="cls-8" d="M717.34,363.44c-.2-.64-.64-1.01-1.23-1.07-.04-.02-.09-.04-.14-.06-4.01-.06-6.44,2.76-8.51,5.76-11.23,16.26-15.04,52.4-12.42,71.61.21,1.56,2.12,10.1,2.91,10.63.04.03.07.04.11.06.05.91.33,1.52,1.05,1.53,1.79-1.96,2.35-5.25,2.72-7.83,2.89-20.26.63-34.77,8.15-55.26,2.4-6.55,9.51-18.58,7.36-25.37Z"/>
        <path class="cls-8" d="M659.02,374.84c-.09.09-.15.2-.18.32-.73.4-.92,1.03-1.17,1.83-2.49,7.98,2.55,19.72,4.29,27.87,1.86,8.76,2.97,17.87,3.76,26.75.27,3.06-.24,16.36,3.23,17.51.7.23,1.34.24,1.93.07-.02.08-.04.16-.05.24,4.25-.24,6.16-7.95,6.77-11.56,2.15-12.67-1.78-44.39-8.52-55.38-2.04-3.32-5.75-8.35-10.06-7.65Z"/>
        <path class="cls-8" d="M220.15,423.01c-.23-.15-.45-.29-.67-.41-.81-.89-1.96-1.33-3.68-.96-.89.19-1.72.69-2.49,1.39-4.06,3.08-6.57,11.2-7.76,15.22-3.62,12.28-6.38,29.23,2.48,39.77.3-.21.51-.41.66-.62.02,0,.05,0,.07,0,3.21-1.27,3.89-5.5,4.73-8.53,3.5-12.56,4.86-26.32,8.17-39.03-.35-2.05-.61-4.85-1.74-6.62.07-.07.15-.12.22-.2Z"/>
        <path class="cls-8" d="M632.51,388.65c-.65-.3-1.24-.48-1.58-.41-.81.18-1.34,1.77-1.46,2.55-1.06,6.7,6.09,21.15,7.29,29.48.93,6.45.38,15.75,2.02,21.58.7,2.5,2.41,4.39,4.08,3.84,0,0,0,0,0,0,1.37.19,2.11-1.06,2.53-2.12,3.48-8.89-.5-34.17-3.94-43.4-1.53-4.12-4.24-10.52-8.94-11.52Z"/>
        <path class="cls-8" d="M687.47,382.9c-3.04-1.56-4.28,3.09-4.53,6.12-.39,4.82.78,10.68,1.18,15.56,1.66,13.32-1.03,27.84-.02,40.89.12,1.59.94,5.82,2.91,5.78,0,.02,0,.03,0,.05l1.91-.37c.76-2.06,1.22-4.19,1.61-6.35,1.5-8.32,2.38-18.67,2.71-27.13.27-6.97.98-28.99-3.95-33.7-.29-.28-1.21-.89-1.81-.84Z"/>
        <path class="cls-8" d="M653.73,405.92c-.84-.6-2.09-1.29-2.78-1.08-.32,0-.65.02-.98.11-1.64.5-2.69,4.35-2.65,5.89.13,5.29,3.72,14.11,4.49,20.27.27,2.13.76,6.58.68,8.58-.17,4.18-1.65,9.06-1.2,13.24.13,1.27.48,2.97,2.02,3.18.05,0,.1-.01.15-.02-.02.26-.03.52-.03.78,3.35-2.17,4.73-7.88,5.42-11.67,1.51-8.27,2.23-34.04-5.12-39.3Z"/>
        <path class="cls-8" d="M728.63,398.15c-.08-.46-.26-.95-.56-1.26-.78-1.9-2.74-2.51-5.8-.77-6.66,3.78-11.8,24.02-12.29,31.46-.24,3.65-.52,14.34,1.89,16.86.24.25.92.55,1.38.52.05.04.1.07.15.11.06-.08.11-.17.17-.26.74-.64,1.13-1.47,1.49-2.36.07-.17.14-.36.2-.53,3.8-7.75,3.53-17.27,6.68-25.59,1.98-5.22,7.71-12.6,6.68-18.17Z"/>
        <path class="cls-8" d="M614.2,415.34c-.76-.02-1.49.21-2.06.84-1.22,5.12,3.73,14,5.64,19.05,1.58,4.19,2.79,8.56,4.18,12.81.16.12.32.17.48.16-.03.21-.06.41-.09.62,2.34-1.06,2.85-3.56,3.09-5.91.74-7.25-.7-18.03-5.33-23.87-1.25-1.58-4.06-4.51-5.91-3.69Z"/>
        <path class="cls-8" d="M629.8,429.54s.02.07.04.11c-.05,0-.09-.02-.14-.02-3.49.07-2.75,9.97-2.57,12.37.11,1.56,1.54,10.07,2.33,10.64.28.01.64-.04,1-.14-.02.22-.04.44-.03.67,2.11,2.46,4.27-8.7,4.34-9.64.22-2.95-.57-11.13-2.65-13.18-.4-.39-2.02-1.09-2.31-.8Z"/>
      </g>
      <g>
        <g>
          <g>
            <path class="cls-17" d="M657.79,374.31c9.13,2.76,12.2,13.31,14.41,21.68,3.12,11.85,5.35,26.78,3.55,38.92-.54,3.63-2.78,15.31-8.2,13.52-3.47-1.15-2.96-14.46-3.23-17.51-.79-8.88-1.89-17.99-3.76-26.75-1.73-8.14-6.78-19.88-4.29-27.87.29-.92.48-1.6,1.51-1.99Z"/>
            <path class="cls-17" d="M696.56,449.62c-.79-.52-2.69-9.07-2.91-10.63-2.62-19.21,1.19-55.35,12.42-71.61,2.07-3,4.5-5.82,8.51-5.76.71.24.82.74.94,1.39,1.3,7.09-4.53,16.27-6.92,23.01-4.01,11.31-6.2,23.76-7.47,35.69-.84,7.84-.57,16.42-1.78,24.12-.18,1.12-.82,5.09-2.79,3.78Z"/>
            <path class="cls-17" d="M686.69,450.15c-2.76,1.92-3.85-3.53-3.99-5.38-1.01-13.05,1.69-27.57.02-40.89-.39-4.88-1.57-10.74-1.18-15.56.28-3.42,1.83-8.92,5.81-5.18,2.34,2.2,3.23,7.78,3.45,10.93.93,13.42.48,35.67-1.93,48.77-.23,1.24-1.49,6.81-2.19,7.3Z"/>
            <path class="cls-17" d="M629.54,387.55c.99-.22,4.05,1.71,4.83,2.52,7.14,7.44,13.5,43.89,9.08,52.82-2.05,4.15-5.06,1.8-6.06-1.74-1.64-5.83-1.09-15.12-2.02-21.58-1.2-8.33-8.36-22.77-7.29-29.48.12-.78.65-2.38,1.46-2.55Z"/>
            <path class="cls-17" d="M738.4,403.13c1.44-.24,2.16-.23,2.45,1.33,1.42,7.63-3.37,15.03-5.77,21.86-1.39,3.96-5.34,19.14-7.71,21.06-.7.57-1.4.72-2.26.48-.7-.23-1.6-2.08-1.82-2.81-3.14-10.42,2.02-39.75,15.12-41.92Z"/>
            <path class="cls-17" d="M710.48,443.74c-2.41-2.52-2.13-13.21-1.89-16.86.48-7.43,5.62-27.68,12.29-31.46,4.88-2.77,6.97.41,5.9,5.33-.93,4.28-5.42,11.48-7.07,16.53-2.49,7.63-3.18,17.51-6.04,24.47-.38.93-.78,1.8-1.59,2.46-.42.2-1.32-.18-1.6-.47Z"/>
            <path class="cls-17" d="M648.58,404.26c1.63-.49,3.34.51,4.44,1.69,5.25,5.63,4.86,29.94,3.73,37.58-.34,2.3-2.03,11.87-4.83,11.9-1.54-.21-1.89-1.91-2.02-3.18-.44-4.18,1.04-9.06,1.2-13.24.08-2.01-.41-6.45-.68-8.58-.77-6.16-4.37-14.98-4.49-20.27-.04-1.55,1.01-5.4,2.65-5.89Z"/>
            <path class="cls-17" d="M620.57,447.34c-1.39-4.25-2.6-8.62-4.18-12.81-1.91-5.05-6.86-13.93-5.64-19.05,1.23-1.35,3.19-.87,4.59-.04,5.89,3.5,9.28,18.3,8.67,24.7-.08.88-1.68,8.56-3.45,7.19Z"/>
            <path class="cls-17" d="M630.2,451.22c-.42.43-1.49.74-2.13.71-.79-.57-2.22-9.08-2.33-10.64-.17-2.4-.91-12.3,2.57-12.37.61.06,1.18.3,1.68.64,3.85,2.62,3.3,18.55.21,21.66Z"/>
          </g>
          <g>
            <path class="cls-17" d="M181.01,367.39c.49-.1.93-.19,1.35.17.45.33.87,1.85.98,2.48,2.02,11.73-5.14,31.9-7.17,44.35-1.13,6.94-2.19,15.24-2.5,22.25-.45,9.97,1.27,22.79-.02,32.21-1.02,7.45-7.89,7.01-10.82.55-4.59-10.12-2.15-39.87-.59-51.66,1.44-10.83,8.16-43.07,16.92-49.27.56-.39,1.17-.94,1.84-1.08Z"/>
            <path class="cls-17" d="M129.51,477.12c-1.5-1.55-1.05-6.75-1.28-8.79-2.6-22.99-4.82-47.71-10.52-70.05-1.06-4.15-5.14-13.36-3.44-17,1.96-4.19,6.81-.53,8.77,1.89,13.42,16.57,15.67,58.28,13.83,78.84-.25,2.74-1.34,12.92-2.61,14.65-.94,1.28-3.68,1.56-4.74.47Z"/>
            <path class="cls-17" d="M77.38,393.33c5.43-.57,12.44,15.46,14.02,19.73,5.29,14.26,7.7,32.03,6.92,47.23-.12,2.3-.47,6.71-1,8.79-1.19,4.65-4.92,6.97-6.94,1.4-1.55-4.3-1.74-13.01-2.63-18.09-.95-5.43-2.27-11.22-3.56-16.59-2.56-10.68-8.78-24.99-9.92-34.97-.29-2.55-.36-7.14,3.1-7.5Z"/>
            <path class="cls-17" d="M150.52,392.73c3.42-.68,4.58,5.03,4.79,7.66.63,8.16-.87,16.67-1.18,24.77-.46,12.35-.42,23.94.57,36.27.29,3.62,2.43,12.71.61,15.57-3.62,5.68-7.16-5.23-7.81-7.79-4.22-16.69-8.34-48.73-4.03-65.06.86-3.27,3.34-10.68,7.05-11.41Z"/>
            <path class="cls-17" d="M42.48,468.04c-.3-.2-1.14-6.24-1.18-7.16-.13-2.62.59-4.67.63-6.91.15-10.26-.23-19.67-1.91-29.79-1.08-6.53-4.77-17.24-3.04-23.52.95-3.43,4.98-1,6.64.92,11.86,13.74,15.55,48.48,3.71,62.97-.76.93-3.61,4.32-4.84,3.5Z"/>
            <path class="cls-17" d="M214.41,420.94c4.95-1.07,5.26,4.67,5.87,8.19-3.31,12.71-4.67,26.47-8.17,39.03-.85,3.04-1.52,7.26-4.73,8.53-2.85.02-4.48-8.47-4.82-10.74-1.53-10.14.12-20.58,2.86-30.39,1.15-4.12,4.31-13.61,9-14.62Z"/>
            <path class="cls-17" d="M103.06,418.69c2.83-2.83,6.57-.93,8.22,2.12,8.13,15.01,5.11,40.68.67,56.56-.47,1.67-2.91,9.59-5.53,5.85-2.29-3.27-.24-8.35-.06-12.02.5-10.59-.22-20.5-1.9-30.91-.77-4.77-4.87-18.14-1.4-21.61Z"/>
            <path class="cls-17" d="M197.72,411.72c1.68-.34,2.87.61,3.35,2.19,2.1,6.76-4.02,24.69-5.79,32.25-1.32,5.6-1.92,11.82-3.43,17.29-2.68,9.66-8.61,8.32-9.51-.87-1.01-10.43,5.23-40.33,12.1-48.34.79-.92,2.08-2.27,3.28-2.52Z"/>
            <path class="cls-17" d="M64.19,434.74c3.04-.59,5.6,2.75,6.6,5.27,2.51,6.3,3.14,27,.88,33.34-.56,1.57-1.32,3.14-3.06,1.64-1.85-1.59-2.2-11.88-2.81-15.03-1.13-5.82-6.02-15.35-5.51-20.42.2-1.99,1.85-4.4,3.89-4.8Z"/>
            <path class="cls-17" d="M23.32,428.41c1.62-.29,3.97,1.83,4.64,3.21,2.25,4.7.76,17.38-1,22.34-.74,2.09-3.62,7.21-6.07,4.3-1.55-1.84-.74-14.79-.83-18.16s-2.35-10.69,3.27-11.69Z"/>
            <path class="cls-17" d="M79.67,451.97c.71-.15,1.83,1.13,2.18,1.73,1.72,2.89,2.21,11.13,2.08,14.66-.09,2.43-.67,8.55-1.45,10.64-.67,1.8-2.09,3.02-4.05,2.92-4.95-.26-2.77-8.24-2.59-11.28.25-4,.18-8.59.72-12.52.22-1.58,1.38-5.78,3.1-6.15Z"/>
          </g>
        </g>
        <g>
          <path class="cls-2" d="M169.04,474.84c-3.67.5-5.63-2.88-6.95-5.78-9.11-20.01-.64-84.79,16.35-99.51,1.34-1.16,4.79-2.89,3.78.03-1.57,4.52-6.46,10.43-8.73,15.53-8.52,19.17-15.71,61.07-8.96,80.89,1.13,3.33,3.33,5.64,4.52,8.84Z"/>
          <path class="cls-2" d="M131.12,477.95c-1.06.22-1.26-.29-1.77-1.02-2.21-3.14-2.6-23.6-3.2-29.12-1.43-13.09-3.17-26.22-6.39-38.99-1.64-6.52-6.06-16.6-6.61-22.63-.18-2,.13-4.28,1.53-5.79,1.33-1.44,2.59-1.83,2.47.58-.47,9.82,5.88,23.21,8.08,33.55,4.34,20.43,6.01,42.55,5.88,63.42Z"/>
          <path class="cls-2" d="M150.23,392.9c.55-.09,1.08-.25,1.64-.07l1.01,1.5c-4.7,2.67-6.16,8.34-7.26,13.26-3.78,16.86-.96,38.69,3.33,55.33.97,3.76,4.09,10.68,4.43,13.62.13,1.1.15,1.32-.8,2.02-4.7-4.15-6.02-11.38-7.59-17.26-4.55-17.04-7.51-38.85-2.97-56.07,1.08-4.11,3.42-11.54,8.22-12.32Z"/>
          <path class="cls-2" d="M79.52,393.42c-.13,1.67-1.53,2.26-1.83,4.07-1.83,11.28,12.2,48.7,14.59,63.67.64,4.02,2.16,8.96-.64,12.43-1.79-.01-5.59-22.3-6.33-25.36-2.85-11.8-13.41-40.59-11.97-50.73.46-3.27,2.99-5.29,6.17-4.08Z"/>
          <path class="cls-2" d="M714.2,361.71c.85-.17,1.49.22,1.75,1.04,2.14,6.79-4.96,18.82-7.36,25.37-7.51,20.48-5.26,35-8.15,55.26-.37,2.58-.93,5.87-2.72,7.83-2.47-.03.15-7.24.3-9.01.98-11.36-.44-21.48,1.43-33.38,2.71-17.21,10.19-30.67,14.75-47.11Z"/>
          <path class="cls-2" d="M669.44,448.73c.63-3.69,2.35-6.6,2.93-10.43,2.03-13.25-1.54-44.14-8.89-55.41-1.08-1.66-7.24-7.37-5.85-8.75,4.31-.71,8.02,4.32,10.06,7.65,6.74,10.99,10.66,42.71,8.52,55.38-.61,3.61-2.52,11.32-6.77,11.56Z"/>
          <path class="cls-2" d="M111.23,420.13c-3.74-.41-5.82.12-6.06,4.2-.5,8.45,4.28,22.06,4.85,31.52.4,6.73.17,15.71-.66,22.4-.29,2.37-1.25,8.28-3.58,3.59-1.73-3.47-.17-5.97-.12-9.16.1-6.08.39-13.31-.03-19.29-.66-9.18-5.42-21.81-4.36-30.48.74-6.02,7.03-8.73,9.96-2.79Z"/>
          <path class="cls-2" d="M187.06,470.49c-1.62.07-2.81-1.81-3.42-3.1-4.76-9.93-.31-28.94,3.26-39.03,2.27-6.4,5.13-14.78,12.27-16.92.82.7,1.14.75.65,1.86-.84,1.94-4.05,5.05-5.41,7.66-6.01,11.54-9.62,28.81-8.59,41.75.2,2.57,1.7,5.03,1.23,7.77Z"/>
          <path class="cls-2" d="M39.74,399.01c-.02,2.16-1.25,3.52-1.19,5.8.24,8.89,5.5,19.74,6.19,29.29.57,7.9.67,21.44,0,29.26-.39,4.49-3.21,8.51-3.76,2.47-.98-10.84,1.62-22.3-.08-34.11-1.05-7.29-7.46-23.99-5.04-30.07.54-1.34,2.29-2.99,3.88-2.64Z"/>
          <path class="cls-2" d="M214.01,425.33c-5.97,5.53-10.21,28.7-9.53,36.76.35,4.21,2.79,8.85,3.05,12.52.09,1.2.26,1.93-.89,2.71-8.86-10.53-6.1-27.49-2.48-39.77,1.75-5.92,6.38-20.78,14.59-15.23-1.31,1.37-3.38,1.75-4.74,3.01Z"/>
          <path class="cls-2" d="M641.47,445c2.69-11.12.48-23.85-2.05-34.94-1.94-8.5-5.1-14.96-9.76-22.24,5.62-.17,8.73,7.12,10.41,11.65,3.43,9.24,7.41,34.52,3.94,43.4-.42,1.07-1.16,2.31-2.53,2.12Z"/>
          <path class="cls-2" d="M687.89,383.04c4.93,4.71,4.22,26.73,3.95,33.7-.33,8.46-1.21,18.81-2.71,27.13-.39,2.17-.85,4.29-1.61,6.35l-1.91.37c.99-5.86,1.95-11.79,2.48-17.72,1.1-12.28,1.83-26.86.55-39.08-.4-3.82-1.89-7.62-3.04-11.26.37-.85,1.9.13,2.3.5Z"/>
          <path class="cls-2" d="M652.04,456.19c0-3.53,1.87-6.78,2.42-10.32,1.3-8.51.31-25.97-2.39-34.16-.64-1.93-2.48-4.28-2.87-5.85-.71-2.84,1.77-1.62,3.14-.64,7.35,5.26,6.63,31.03,5.12,39.3-.69,3.78-2.07,9.5-5.42,11.67Z"/>
          <path class="cls-2" d="M739.07,403.36c3.18-2.4,1.76,10.26,1.58,11.22-.72,3.87-3.8,8.46-5.17,12.24-1.74,4.79-4.57,17.6-7.35,20.63-.49.53-.9,1.48-1.81,1.29l-.67-1.89,13.41-43.48Z"/>
          <path class="cls-2" d="M725.7,395.9c.95-.21,1.39.73,1.54,1.55,1.03,5.57-4.7,12.95-6.68,18.17-3.59,9.49-2.73,20.55-8.54,28.74-1.4-.99-.75-1.16-.43-2.27,2.29-8.07,3.08-15.74,4.65-23.95l9.46-22.24Z"/>
          <path class="cls-2" d="M70.2,475.46c-2.74,3.09-4.42-12.76-4.64-13.69-1.49-6.49-6.9-18.26-5.03-24.25.61-1.94,3.79-4.31,5.3-2.14-1.71,1.43-3.06,3.87-3.04,6.14.03,4.26,4.16,13.92,5.25,19.01,1.02,4.76,1.59,10.08,2.15,14.94Z"/>
          <path class="cls-2" d="M620.96,448.11c1.73-11.56,0-24.09-9.33-32.02,1.49-3.86,5.51.26,7.09,2.24,4.63,5.83,6.07,16.62,5.33,23.87-.24,2.35-.76,4.85-3.09,5.91Z"/>
          <path class="cls-2" d="M81.39,452.47c-.71,2.43-1.4,4.69-1.77,7.24-.67,4.49-1.9,12.51-1.9,16.77,0,2.09,1.18,3.08,1.53,4.57.81,3.37-4.06,1.5-4.66-2.19.48-5.84.46-12.23,1.21-17.99.45-3.47.77-9.99,5.59-8.39Z"/>
          <path class="cls-2" d="M23.58,428.85l-.62,28.9c-.04.82-.67,1.75-1.54,1.55-2.3-.52-1.52-16.22-1.54-18.98-.02-3.66-2-10.96,3.7-11.47Z"/>
          <path class="cls-2" d="M630.72,429.64c2.08,2.05,2.87,10.23,2.65,13.18-.07.94-2.23,12.1-4.34,9.64-.08-2.59,1.48-4.64,1.79-7.22.73-5.94-.44-10.92-2.41-16.4.29-.3,1.91.41,2.31.8Z"/>
        </g>
      </g>
    </g>
  </g>
</svg>