<?xml version="1.0" encoding="UTF-8"?>
<svg xmlns="http://www.w3.org/2000/svg" viewBox="0 0 764.89 557.01">
  <defs>
    <style>
      .cls-1 {
        fill: #89937c;
      }

      .cls-2 {
        fill: #56abc8;
      }

      .cls-3 {
        fill: #cf9562;
      }

      .cls-4 {
        fill: #76806c;
      }

      .cls-5 {
        fill: #202321;
      }

      .cls-6 {
        fill: #2e342d;
      }

      .cls-7 {
        fill: #51594b;
      }

      .cls-8 {
        fill: #464b48;
      }

      .cls-9 {
        fill: #636966;
      }

      .cls-10 {
        fill: #212322;
      }

      .cls-11 {
        fill: #18678d;
      }

      .cls-12 {
        fill: #155a7c;
      }

      .cls-13 {
        fill: #636c5b;
      }

      .cls-14 {
        fill: #9fa5a2;
      }

      .cls-15 {
        fill: #e2c0a1;
      }

      .cls-16 {
        fill: #114d69;
      }

      .cls-17 {
        fill: #3c4439;
      }

      .cls-18 {
        fill: #229ad2;
      }

      .cls-19 {
        fill: #88bdbf;
      }

      .cls-20 {
        fill: #818885;
      }

      .cls-21 {
        fill: #d9ab81;
      }
    </style>
  </defs>
  <g id="Sky">
    <g>
      <path class="cls-2" d="M423.18,2.85c69.93-5.94,83.43,53.84,106.07,103.24,10.85,23.67,17.76,34.24,46.22,32.8,41.12-2.09,80.34-21.95,117.25,8.86,55.41,46.26-6.94,116.69-.68,170.21,3.01,25.75,12.59,44.52.81,70.67-27.4,60.83-118.01,20.15-167.75,21.12-33.19.65-64.4,14.5-96.85,19.26-67.81,9.93-129.78-22.43-195.71-28.51-50.01-4.61-92.25,6.27-136.08-25.69-12.15-8.86-37.53-37.68-37.74-52.87-.04-2.76,1.56-7.33,1.2-9.01-.51-2.35-6.46-11.96-7.93-15.95-10.96-29.74-6.01-55.82,14.55-79.53,12.23-14.1,29.75-23.16,41.8-37.16,30.08-34.94,14.16-90.24,37-130.2,13.3-23.26,38.76-37.35,65.76-30.66,23.09,5.72,37.78,28.72,60.5,33.16,42.76,8.34,103.94-45.69,151.6-49.73Z"/>
      <g>
        <path class="cls-18" d="M552.19,168.99c-17.03,1.39-31.57-8.7-41.78-21.3-22.03-27.21-16.33-63.73-41.8-89.79-23.62-24.17-50.52-20.9-79.25-8-9.33,4.19-18.01,11.47-28.36,12.27-2.28-2.28,6.86-9.11,8.58-10.38,41.94-30.79,92.39-34.17,120.31,15.78,19.22,34.38,7.49,71.3,48.35,94.08,4.52,2.52,10.06,4.16,13.95,7.33Z"/>
        <path class="cls-18" d="M381.12,19.6c-.72-4.77,5.85-6.98,9.54-8.65,27.53-12.41,55.16-12.24,77.42-.83,21.54,11.04,37.98,32.71,49.16,57.19,7.06,15.46,19.54,54.54,31.48,64.5,14.4,12.02,44.64,3.73,61.87,3.09,1.72-.06,7.93-.64,7.39,1.95-2.88,3.16-8.13,3.93-12.22,4.81-15.31,3.29-42.18,7.65-56.43,1.15-19.63-8.95-31.55-55.42-40.71-74.62C487.96,24.88,448.8.76,400.48,14.57c-6.45,1.84-12.45,5.71-19.36,5.03Z"/>
        <path class="cls-18" d="M127.23,154.29c1.63,1.61-5.24,16.74-6.56,19.37-11.45,22.72-33.76,30.11-47.48,50.06-17.12,24.9-19.19,54.42-7.24,82.04,4.25,9.82,11.26,17.98,15.6,27.74-.16,3.91-10.66-3.77-11.61-4.63-30.93-28.19-35-81.38-6.57-112.66,16.77-18.46,38.51-23.64,52.58-45.72,2.09-3.29,6.97-13.9,8.93-15.68.85-.77,1.3-.55,2.36-.51Z"/>
        <path class="cls-18" d="M324.37,47.24c-3.57,4.07-29.66,10.61-35.76,11.06-20.49,1.51-42.42-14-59.96-22.84-27.38-13.8-52.44-10-72.8,13.16-13.7,15.58-17.53,36.75-23.21,56.14-2.96.04-3.1-5.17-3.03-7.23.99-28.33,20.66-69.2,49.07-77.88,34.44-10.52,48.48,8.37,75.99,21.52,20.16,9.64,29.01,13.13,51.53,7.63,4.22-1.03,13.32-5.02,16.56-5.18,2.81-.14,3.25,1.75,1.6,3.62Z"/>
        <path class="cls-18" d="M372.34,232.09c-.43-.19-.85-.42-1.25-.69-1.03-.72-1.82-1.73-2.7-2.63-.96-1-1.59-1.82-2.11-3.09s-1.18-2.66-2.19-3.64c-.63-.61-3.94-3.5-3.08-4.26,4.25-.24,14.85,7.1,17.84,3.31,1.23-1.55,1.72-5.25,2.67-7.18,5.37-10.97,18.04-8.5,27.46-5.02,16.36,6.04,33.97,16.97,49.92,24.39,6.4,4.18,7.23,13.98,12.02,18.94,3.41,3.53,8.59,5.11,11.14,10.53,4.8,10.21-1.13,18.26.8,26.3,1.4,5.81,8.79,5.26,11.25,9.63-.24,2.76-10.06-.4-11.78-1.36-2.76-1.55-5.85-5.53-5.95-8.76-.2-5.98.74-13.11-.12-19.22-1.05-7.42-8.76-3.9-13.75-7.63-6.6-4.93-5.94-14.73-14.88-20.25-9.16-5.66-19.22-10.2-29.33-13.88-3.11-1.13-6.34-2.34-9.62-3.09-2.21-.5-4.47-.69-6.67-1.18s-4.06-1.78-6.24-2.07c-.53-.07-1.11-.07-1.57.21-1.35.81-1.06,3.16-2.01,4.36-1.91,2.43-4.54,5.27-7.45,6.46-2.22.91-4.67.85-7.02.76-1.81-.08-3.71-.19-5.38-.91Z"/>
        <path class="cls-18" d="M163.6,79.2c-4.53-1.12-3.01-7.61-2.09-11,5.97-21.92,32.76-27.75,52.24-21.73,29.7,9.18,35.86,34.82,73.35,33.53,2.9-.1,6.53-2.21,8.85.36-7.93,10.27-22.22,9.79-33.61,6.53-16.93-4.85-30.02-19.84-45.83-26.93-22.81-10.24-42.86-3.67-52.92,19.24Z"/>
        <path class="cls-18" d="M346.29,211.82c-16.1-5.74-9.48-25.92-18.25-37.09l-29.72-12.85c-5.66-1.45-12.29,4.4-18.05,4.31-8.22-.13-9.64-8.08-15.83-9.14-4.33-.74-9.32.18-13.73-.2-8.95-.77-18.63-2.4-26.79,2.27-.89.51-1.79,1.05-2.8,1.23-.92.16-1.81.12-2.57.72-.41.32-.74.78-1.13,1.13-1.06.93-2.27,1.72-3.5,2.4-1.62.9-5.79,2.87-6.16-.36,1.21-2.13,4.6-3.38,5.79-5.06,3.13-4.4.84-8.32,8.39-11.74,9.13-4.13,18.46.19,27.2.94,8.23.71,15.46-2.45,23.13.86,2.54,1.1,5.88,4.32,7.92,4.52,5.99.59,11.93-3.56,20.29-1.77,4.58.98,23.94,9.26,28.54,11.71,15.1,8.04,8.84,22.53,11.43,35.01.99,4.77,5.46,8.3,5.85,13.11Z"/>
        <path class="cls-18" d="M687.76,311.3c-.87-10.1.5-19.5,2.59-29.3,7.67-35.99,26.46-58.17,17.18-97.67-6.37-27.11-33.38-43.92-59.36-48.63.39-3.86,6.03-4.35,8.93-4.09,39.24,3.55,63.66,39.21,60.73,78.79-2.08,28.1-20.15,54.79-24.18,81.68-.5,3.37-.45,19.36-3.39,20.02l-2.5-.8Z"/>
        <path class="cls-18" d="M207.73,203.06c.28,1.24-.43,1.58-1.13,2.34-3.17,3.42-8.57,11.14-12.72,12.35-5.76,1.68-13.55.25-17.87,5.82-7.61,9.81-7.4,27.1-18.55,37.96-4.97,4.83-12.83,5.75-16.45,12.19-1.91,3.4-2.39,7.66-3.15,11.42-.9,4.43-1.76,9.07-3.85,13.13-.85,1.66-1.96,3.17-3.45,4.31s-3.04,1.12-4.69,1.67c-.68.23-1.32.57-2.02.67-5.26.76-1.68-4.44.05-6.12s4.83-3.37,5.51-5.73c1.48-5.11.79-15.41,1.8-21.42,3.03-17.97,16.3-13.67,22.91-26.63,5.22-10.25,7.27-29.23,20-32.63,5.24-1.4,9.79-.22,15.03-2,6.25-2.12,11.18-9.9,18.6-7.32Z"/>
        <path class="cls-18" d="M624.18,299.04c-.25-1.3.29-1.62,1.34-2.13,3.18-1.54,11.41-2.01,15.54-3.04,17.05-4.21,26.55-13.85,34.09-29.38,13.64-28.09,20.71-67.19-2.95-92.04-1.91-2-11.64-8.89-11.67-10.8-.05-3.81,7.88.71,9.83,1.8,42.36,23.81,25.06,101.44-6.7,127.48-10.81,8.86-26.09,12.79-39.49,8.11Z"/>
        <path class="cls-18" d="M659.01,318.39c-11.82,3.54-24.52,2.32-36.8,2.3-14.17-.03-28.27-.74-42.5-.71-4.58,0-16.86-.41-20.55-1.97-6.68-2.82-5.22-7.4-7.84-11.51-2.28-3.57-11.87-5.93-15.87-4.23-2.72,1.16-6.7,7.24-8.42,7.61-5.61-3.34,1.73-12.75,5.44-15.47,6.9-5.06,19.94-1.02,25.93,4.25,6.55,5.75,4.61,8.26,15.29,10.26,18.26,3.42,40.04,1.33,58.64,5.61,4.43.83,23.26-.16,25.58,1.51.79.57,1.32,1.32,1.12,2.36Z"/>
        <path class="cls-18" d="M661.33,214.28c-1.69-16.7-14.88-33.24-30.2-39.46-11.19-4.55-20.96-3.73-32.5-5.44-.05-7.66,21.75-7.76,26.62-7.25,28.36,2.97,56.95,40.32,44.61,67.65-1,2.21-5.82,11.04-8.52,7.73-.55-7.47.74-15.89,0-23.22Z"/>
        <path class="cls-18" d="M81.84,297.22c2.25,2.18,6.26,3.81,9.39,4.15,12.06,1.31,11.33-3.7,17.1-11.55,1.54-2.09,4.48-3.87,5.56-6.05,1.57-3.17-.05-8.17.2-12.2.44-7.25,3.23-13.65,9.67-17.42.75,3.77-1.58,7.47-1.93,11.23-.68,7.2,2.33,13.17-.63,20.27-1.73,4.16-5.88,6.55-8.67,9.91-3.76,4.54-4.57,9.64-11.45,11.78-12.27,3.8-24.38-2.94-29.47-14.21-8.69-19.24-4.5-45.07,7.31-62.13,3.23-4.66,7.92-10.08,13.47-11.68-7.32,15.64-16.64,31.48-17.69,49.25-.45,7.59,1.51,23.18,7.14,28.65Z"/>
        <path class="cls-18" d="M332.36,148.1c11.92-.34,20.13,10.6,22.24,21.48,1.71,8.82-1.33,22.73,8.16,27.44,8.41,4.18,14.7-8.52,20.75-12.87,10.41-7.48,17.9-.09,27.52,4.85,4.41,2.27,9.47,2.88,12.65,7.46.04,2.27-7.27.48-8.66.16-5.45-1.26-18.67-7.88-22.6-7.5-5.97.58-13.17,13.24-19.82,15.85-5.33,2.08-9.09.99-13.94-1.53-18.07-9.37-3.91-31.53-15.85-45.3-3.23-3.73-8.77-5.42-10.45-10.05Z"/>
      </g>
      <g>
        <path class="cls-19" d="M551.62,167.39c-17.03,1.39-31.57-8.7-41.78-21.3-22.03-27.21-16.33-63.73-41.8-89.79-23.62-24.17-50.52-20.9-79.25-8-9.33,4.19-18.01,11.47-28.36,12.27-2.28-2.28,6.86-9.11,8.58-10.38,41.94-30.79,92.39-34.17,120.31,15.78,19.22,34.38,7.49,71.3,48.35,94.08,4.52,2.52,10.06,4.16,13.95,7.33Z"/>
        <path class="cls-19" d="M380.55,18c-.72-4.77,5.85-6.98,9.54-8.65,27.53-12.41,55.16-12.24,77.42-.83,21.54,11.04,37.98,32.71,49.16,57.19,7.06,15.46,19.54,54.54,31.48,64.5,14.4,12.02,44.64,3.73,61.87,3.09,1.72-.06,7.93-.64,7.39,1.95-2.88,3.16-8.13,3.93-12.22,4.81-15.31,3.29-42.18,7.65-56.43,1.15-19.63-8.95-31.55-55.42-40.71-74.62C487.39,23.28,448.22-.84,399.91,12.97c-6.45,1.84-12.45,5.71-19.36,5.03Z"/>
        <path class="cls-19" d="M126.66,152.69c1.63,1.61-5.24,16.74-6.56,19.37-11.45,22.72-33.76,30.11-47.48,50.06-17.12,24.9-19.19,54.42-7.24,82.04,4.25,9.82,11.26,17.98,15.6,27.74-.16,3.91-10.66-3.77-11.61-4.63-30.93-28.19-35-81.38-6.57-112.66,16.77-18.46,38.51-23.64,52.58-45.72,2.09-3.29,6.97-13.9,8.93-15.68.85-.77,1.3-.55,2.36-.51Z"/>
        <path class="cls-19" d="M323.8,45.64c-3.57,4.07-29.66,10.61-35.76,11.06-20.49,1.51-42.42-14-59.96-22.84-27.38-13.8-52.44-10-72.8,13.16-13.7,15.58-17.53,36.75-23.21,56.14-2.96.04-3.1-5.17-3.03-7.23.99-28.33,20.66-69.2,49.07-77.88,34.44-10.52,48.48,8.37,75.99,21.52,20.16,9.64,29.01,13.13,51.53,7.63,4.22-1.03,13.32-5.02,16.56-5.18,2.81-.14,3.25,1.75,1.6,3.62Z"/>
        <path class="cls-19" d="M163.03,77.6c-4.53-1.12-3.01-7.61-2.09-11,5.97-21.92,32.76-27.75,52.24-21.73,29.7,9.18,35.86,34.82,73.35,33.53,2.9-.1,6.53-2.21,8.85.36-7.93,10.27-22.22,9.79-33.61,6.53-16.93-4.85-30.02-19.84-45.83-26.93-22.81-10.24-42.86-3.67-52.92,19.24Z"/>
        <path class="cls-19" d="M81.27,295.61c2.25,2.18,6.26,3.81,9.39,4.15,12.06,1.31,11.33-3.7,17.1-11.55,1.54-2.09,4.48-3.87,5.56-6.05,1.57-3.17-.05-8.17.2-12.2.44-7.25,3.23-13.65,9.67-17.42.75,3.77-1.58,7.47-1.93,11.23-.68,7.2,2.33,13.17-.63,20.27-1.73,4.16-5.88,6.55-8.67,9.91-3.76,4.54-4.57,9.64-11.45,11.78-12.27,3.8-24.38-2.94-29.47-14.21-8.69-19.24-4.5-45.07,7.31-62.13,3.23-4.66,7.92-10.08,13.47-11.68-7.32,15.64-16.64,31.48-17.69,49.25-.45,7.59,1.51,23.18,7.14,28.65Z"/>
      </g>
    </g>
  </g>
  <g id="Water">
    <g>
      <path class="cls-12" d="M732,346.39c-.73.14-1.09,1-.66,1.6s1.29.91,2.03,1.33c5.76,3.31,25.92,6.41,20.75,16.82-3.35,6.74-11.54,6.2-16.33,10.65-.28.26-.4.67-.28,1.04,1.44,4.77,20.4,11.06,10.99,20.61-5.58,5.67-15.57,4.39-23.27,3.98-.96-.05-1.48,1.12-.78,1.79,7.24,6.92,19.44,15.82,17.29,26.18-3.27,15.78-31.13,10.98-41.96,13.76-5.8,1.49-3.38,6.38.38,8.82,7.3,4.76,33.91,9.37,22.42,24.81-6.77,9.09-26.68,5.06-36.87,6.49-.55.08-.95.57-.9,1.13l.13,1.42c.04.41.31.75.7.89,9.21,3.2,17.98,9.31,12.19,20.28-4.73,8.97-22.87,12.02-32.14,12.05-19.12.06-47.28-2.42-66.47-4.81-7.33-.91-14.69-2.93-21.57-5.52-13.45-5.06-30.17-19.19-44.98-12.85-9.72,4.17-7.71,14.61-14.83,21.55-13.06,12.73-48.61,7.3-65.42,4.28-14.98-2.69-35.04-10.01-49.84-8.08-9.4,1.23-22.21,14.45-30.4,19.92-27.05,18.09-74.62,24-106.71,21.85-18.12-1.21-44.95-11.2-33.5-34.34,2.39-4.83,10.95-13.59,11.93-17.55.43-1.76.1-3.17-1.79-3.73-3.75-1.12-16.84,4.63-22.37,5.18-29.5,2.96-39.77-14.66-63.58-19.06-25.96-4.8-63.23,22.49-85.72,4.44-8.85-7.1-2.14-16.1-16.29-15.51-10.38.43-27.77,5.78-34.57-5.62-5.1-8.54.8-15.87,8.68-19.51,3.5-1.62,18.56-4.31,21.24-8.09.4-.56.15-1.33-.49-1.58-5.42-2.12-11.04-1.83-16.52-4.63-14.87-7.59-9.4-23.28,2.48-30.85,3.97-2.53,13.31-4.33,12.66-9.82-1.01-8.48-35.85-2.54-34.91-20.14.5-9.32,10.35-9.55,14.42-15.02,4.91-6.58-8.94-8.73-13.34-10.75-14.34-6.58-13.97-18.7.33-24.72,20.49-8.63,75.18-8.73,98.15-7.19,8.42.57,12.96,3.41,22.45,3.16,25.14-.65,50.6-4.03,75.79-4.71,25.31-.68,51.55,1.3,76.7.06,27.23-1.34,49.24-4.51,77.34-3.87,50.6,1.16,100.55,6.19,151,7.68,9.46.28,19.89,1.96,29.4.83,8.38-1,12.63-2.74,22.42-2.33,27.34,1.14,54.75.45,82.09,1.51,26.95,1.04,54.3,3.97,81.25,5.44,5.72.31,31.28-.74,27.93,10.1-2.26,7.31-19.32,9.18-26.63,10.62Z"/>
      <g>
        <g>
          <path class="cls-16" d="M597.08,345.76c13.51,0,.82,15.6,34.28,29.61,13.55,5.67,31.23,8.41,45.21,12.71,3.07.95,17.41,2.78,18.94,3.09,13.38,2.68,36.21,9.08,47.85,5.24,12.2-4.02.79-7.64-3.28-12.17-2.61-2.9-3.98-5.46-3.35-9.54,1.2-7.78,16.87-8.58,16.43-13.08-.01-.14-.07-.28-.14-.4-.96-1.67-2.03-2.27-2.24-4.11-.07-.58.36-1.12.95-1.17,4.24-.39,8.21,1.98,7.59,6.78-.98,7.46-17.08,9.96-17.16,13.46-.13,5.88,18.04,9.79,12.66,19.93-3.78,7.13-16.82,8.59-24.12,8.16-.16,0-.32.02-.47.08l-3.4,1.49c-.25.11-.54.12-.79.02-8.49-3.17-11-6.13-20.39-7.72-24.37-4.12-69.84-1.76-88.04-19.93-5.5-5.49-11.91-6.51-18.68-10.92-4.84-3.16-8.74-11.12-13.65-14.84-.27-.21-.43-.52-.42-.86v-.43c.03-.41.28-.78.65-.93.71-.3,1.41-.41,2.09-.41,1.08,0,1.43-1.45.48-1.96h0c-.5-.27-.69-.88-.44-1.38l.02-.05c.19-.38.59-.61,1.01-.57,3.43.27,4.79-.11,8.42-.11Z"/>
          <path class="cls-16" d="M734.38,347.57c.63,1.86,4.34,3.36,5.79,4.71.57.54.36,1.49-.38,1.75-6.55,2.27-13.96-3.9-10.04-10.89,3.21-5.71,22.61-6.86,28.8-9.18,1.62-1.55-3.13-2.21-3.6-2.27-7.22-.88-15.91.22-23.37-.06-29.06-1.11-58.32-3.86-87.37-4.8-19.96-.65-75.72,2.44-90.82-4.47-1.28-.58-2.88-1.02-3.23-2.45-.12-.51.2-1.03.7-1.19,4.53-1.46,8.93-1.49,13.72-1.37,27.46.68,55.04,4.24,82.69,2.37.04,0,.08,0,.12,0,25.4,1.44,50.94,3.36,76.38,4.8,9.4.53,29.37-.95,37.12,2.72,3.29,1.56,4.42,3.3,3.86,7.06-1.36,9.21-22.23,8.91-29.77,12.02-.49.2-.78.74-.61,1.24Z"/>
          <path class="cls-16" d="M14.39,378.15h-.53c-.48,0-.9-.34-1.02-.81-2.6-10.44,10.91-13.49,15.59-20.52.16-.25.23-.56.13-.84-1.12-3.3-13.24-4.95-16.17-5.99-15.39-5.44-13.38-18.2.33-24.6,10.49-4.89,24.26-6.71,35.77-7.25,21.31-1.01,46.79-1.78,67.98-.79,4.02.19,14.15.66,17.02,2.52,4.69,3.05-.31,5.01-3.79,5.41-12.26,1.4-28.56-.26-41.41-.03-19.28.35-47.36-.89-65.32,4.21-3.97,1.13-18.1,4.95-13.94,11.28s32.57,5.2,24.14,19.58c-4.26,7.26-16.16,7.76-17.78,16.98-.09.5-.52.86-1.02.86Z"/>
          <path class="cls-16" d="M700.51,340.55c4.12,4.28,1.44,8.39,2.99,11.59.51,1.05,4.52,3.18,5.86,5.13,3.45,5.02.17,9.99-2.15,11.73-.75.56-1.8-.04-1.68-.96.29-2.21,1.22-4.37.55-6.66s-5.97-4.32-7.47-7.46c-2.43-5.08,1.63-7.99-4.57-11.17-6.83-3.51-26.74-5.25-35-5.66-36.2-1.8-72.35,1.71-108.54-2.35-.83-.09-3.79-.46-5.71-1-.96-.27-1.01-1.62-.07-1.98,1.36-.52,2.99-.65,4.31-.86,11.7-1.89,24.04.55,35.78.72,32.43.47,72.53-4.07,103.64,3.35,3.34.8,9.71,3.14,12.06,5.58Z"/>
          <path class="cls-16" d="M57.5,378.19c-7.8,4.62-26.19-1.36-20.45-12.39,1.82-3.5,8.54-6.87,7.98-10.85-.73-5.16-15.24-5.61-13.26-16.59.71-3.95,5.86-6.2,9.32-7.17,10.53-2.93,41.34-3.06,52.75-2,11.24,1.04.23,4.98-4.82,5.46-7.48.72-46.79-.28-50.57,4.67-.07.09-.12.2-.15.31-1.35,4.44,5.96,6.13,9.07,8.93,4.26,3.84,5.16,6.52,2.36,11.88s-14.42,9.75-3.92,13.4c1.24.43,13.74,1.59,11.7,4.34Z"/>
          <path class="cls-16" d="M722.55,335.02c.79-.17,1.46.63,1.18,1.38-1.09,2.91-3.08,5.18-2.35,8.72,1.66,8.06,17.09,12.65,9.07,22.27-1.3,1.56-5.75,3.48-6.16,5.1-.8,3.1,12.57,13.83.54,17.08-5.91,1.59-28.32-3.21-34.81-5.55-.81-.29-5-2.13-7.06-3.76-.8-.64-.26-1.94.76-1.84,13.1,1.32,25.75,6.61,39.16,6.22.71-.02,1.18-.75.94-1.42-1.62-4.36-6.12-5.09-5.04-11.63.83-5.01,9.8-6.77,8.96-9.99-.54-2.08-7.23-7.83-8.87-10.72-3.05-5.37-2.77-14.45,3.69-15.87Z"/>
          <path class="cls-16" d="M617.94,346.01c-.46-.76.14-1.72,1.01-1.6,6.38.87,13.12,4.48,14.94,11.03.82,2.98.3,6.32,1.92,9.12,3.95,6.83,33.93,9.07,39.19,12.3.62.38.67,1.3.07,1.72-.78.54-1.69.37-2.75.46-9.51.72-36.39-3.5-41.18-12.91-1.91-3.76-1.29-9.12-3.38-12.38s-7.7-4.24-9.82-7.73Z"/>
          <path class="cls-16" d="M119.27,330.61c0-.89,1.08-1.4,1.72-.78,1.03.98,1.32,2.94,1.66,4.26,2.33,9.17,6.53,29.95,6.8,38.96.17,5.51-3.84,10.97-8.4,7.93-.57-.38-.63-1.2-.12-1.66,2.74-2.46,4-2.09,3.82-7.06-.38-10.22-4.43-23.38-5.4-34.05-.23-2.53-.09-5.07-.09-7.6Z"/>
          <path class="cls-16" d="M111.09,352.22l.66-.4c.46-.28,1.07-.17,1.39.27,3.92,5.34,3.35,16.68-.2,21.77-4.11,5.9-16.89,9.6-24.27,7.29-.77-.24-1-1.25-.39-1.78,5.1-4.46,16.22-3.2,20.32-8.32.38-.48,1.99-4.03,1.99-4.3v-13.63c0-.36.19-.7.5-.89Z"/>
        </g>
        <path class="cls-16" d="M45.92,394.73c-.07.54-.2,1.15-.39,1.73-.27.79.47,1.55,1.28,1.32,1.08-.31,2.06-.59,3.21-1,.44-.15.72-.57.7-1.03-.03-.55-.06-1.2-.1-1.44-1.59-10.74-18.04-8.76-26.37-10.55-3.23-.69-5.67-2.35-8.63-2.78-.73-.11-1.34.61-1.13,1.32.74,2.48,4.12,4.09,6.31,4.91,4.4,1.64,23.68,2.96,25.09,7.1.05.13.05.27.03.41Z"/>
      </g>
      <g>
        <g>
          <path class="cls-11" d="M732.75,346.86c.63,1.86,4.34,3.36,5.79,4.71.57.54.36,1.49-.38,1.75-6.55,2.27-13.96-3.9-10.04-10.89,3.21-5.71,22.61-6.86,28.8-9.18,1.62-1.55-3.13-2.21-3.6-2.27-7.22-.88-15.91.22-23.37-.06-29.06-1.11-58.32-3.86-87.37-4.8-19.96-.65-75.72,2.44-90.82-4.47-1.28-.58-2.88-1.02-3.23-2.45-.12-.51.2-1.03.7-1.19,4.53-1.46,8.93-1.49,13.72-1.37,27.46.68,55.04,4.24,82.69,2.37.04,0,.08,0,.12,0,25.4,1.44,50.94,3.36,76.38,4.8,9.4.53,29.37-.95,37.12,2.72,3.29,1.56,4.42,3.3,3.86,7.06-1.36,9.21-22.23,8.91-29.77,12.02-.49.2-.78.74-.61,1.24Z"/>
          <path class="cls-11" d="M12.76,377.44h-.53c-.48,0-.9-.34-1.02-.81-2.6-10.44,10.91-13.49,15.59-20.52.16-.25.23-.56.13-.84-1.12-3.3-13.24-4.95-16.17-5.99-15.39-5.44-13.38-18.2.33-24.6,10.49-4.89,24.26-6.71,35.77-7.25,21.31-1.01,46.79-1.78,67.98-.79,4.02.19,14.15.66,17.02,2.52,4.69,3.05-.31,5.01-3.79,5.41-12.26,1.4-28.56-.26-41.41-.03-19.28.35-47.36-.89-65.32,4.21-3.97,1.13-18.1,4.95-13.94,11.28,4.15,6.32,32.57,5.2,24.14,19.58-4.26,7.26-16.16,7.76-17.78,16.98-.09.5-.52.86-1.02.86Z"/>
          <path class="cls-11" d="M698.88,339.84c4.12,4.28,1.44,8.39,2.99,11.59.51,1.05,4.52,3.18,5.86,5.13,3.45,5.02.17,9.99-2.15,11.73-.75.56-1.8-.04-1.68-.96.29-2.21,1.22-4.37.55-6.66s-5.97-4.32-7.47-7.46c-2.43-5.08,1.63-7.99-4.57-11.17-6.83-3.51-26.74-5.25-35-5.66-36.2-1.8-72.35,1.71-108.54-2.35-.83-.09-3.79-.46-5.71-1-.96-.27-1.01-1.62-.07-1.98,1.36-.52,2.99-.65,4.31-.86,11.7-1.89,24.04.55,35.78.72,32.43.47,72.53-4.07,103.64,3.35,3.34.8,9.71,3.14,12.06,5.58Z"/>
          <path class="cls-11" d="M55.87,377.48c-7.8,4.62-26.19-1.36-20.45-12.39,1.82-3.5,8.54-6.87,7.98-10.85-.73-5.16-15.24-5.61-13.26-16.59.71-3.95,5.86-6.2,9.32-7.17,10.53-2.93,41.34-3.06,52.75-2,11.24,1.04.23,4.98-4.82,5.46-7.48.72-46.79-.28-50.57,4.67-.07.09-.12.2-.15.31-1.35,4.44,5.96,6.13,9.07,8.93,4.26,3.84,5.16,6.52,2.36,11.88-2.84,5.41-14.42,9.75-3.92,13.4,1.24.43,13.74,1.59,11.7,4.34Z"/>
        </g>
        <path class="cls-11" d="M44.29,394c-.08.78-.24,2.08-.52,3.22-.21.85.65,1.55,1.44,1.2,1.16-.51,2.21-1.07,3.43-1.57.43-.18.68-.62.62-1.08-.1-.8-.24-1.91-.28-2.17-1.59-10.74-18.04-8.76-26.37-10.55-3.23-.69-5.67-2.35-8.63-2.78-.73-.11-1.34.61-1.13,1.32.74,2.48,4.12,4.09,6.31,4.91,4.41,1.64,23.71,2.96,25.1,7.11.04.13.05.26.03.39Z"/>
      </g>
    </g>
  </g>
  <g id="Sand">
    <g>
      <path class="cls-21" d="M722.93,402.69c-4.98-2.46-9.88-5.26-14.76-7.76-9.91-2.81-20.03-4.75-30.31-5.7-18.99-1.75-48.55-2.97-62.83-17.89-11.52-13.65-13.85-15.85-29.71-23.43-15.79-7.55-40.84-23.17-117.89-13.21-16.97,2.19-37.75-1.72-80.14,11.84-44.98,14.39-46.85,6.86-92.32,13.73-65.85,9.94-114.11,8.58-145.35,19.98-5.77,2.11-12.37,3.43-19.49,4.19-3.76,1.92-7.43,3.95-11.56,5.05-9.27,2.48-19.54,1.19-29.03,1.51-8.9.31-17.47,1.75-26.14,3.74-6.61,1.52-12.78,3.88-19.03,6.19-2.92,1.88-7.1,3.12-9.43,4.6-11.89,7.56-17.35,23.26-2.48,30.85,5.79,2.95,9.93,2.39,15.63,4.93.15,4.41-17.85,7.51-21.71,9.29-7.87,3.64-11.93,11.05-6.83,19.59,6.8,11.39,24.19,6.05,34.57,5.62,14.15-.59,7.45,8.41,16.29,15.51,22.49,18.04,59.76-9.24,85.72-4.44,23.81,4.4,34.07,22.02,63.58,19.06,5.53-.56,18.63-6.3,22.37-5.18,1.88.56,2.22,1.98,1.79,3.73-.98,3.96-9.54,12.72-11.93,17.55-11.45,23.15,15.39,33.13,33.5,34.34,32.09,2.14,79.65-3.76,106.71-21.85,8.18-5.47,20.99-18.69,30.4-19.92,14.8-1.93,34.86,5.39,49.84,8.08,16.8,3.02,52.36,8.44,65.42-4.28,7.12-6.94,5.11-17.38,14.83-21.55,14.81-6.35,31.53,7.79,44.98,12.85,6.89,2.59,14.25,4.6,21.57,5.52,19.19,2.39,47.36,4.87,66.47,4.81,9.27-.03,27.41-3.08,32.14-12.05,5.92-11.22-3.38-17.36-12.82-20.5l-.28-3.06c9.84-1.87,30.87,2.75,37.86-6.65,11.49-15.44-15.12-20.05-22.42-24.81-3.75-2.45-6.18-7.34-.38-8.83,10.84-2.78,38.69,2.02,41.96-13.76,2.31-11.13-11.94-20.57-18.81-27.69Z"/>
      <g>
        <path class="cls-3" d="M639.32,451.54c8.68-.43,18.97.2,27.63,1.33,3.25.42,15.81,2.07,16.52,5.91-.75,5.02-7.12,5.55-11.31,6.25-24.8,4.15-55.46,1.06-81.05,2.54-21.86,1.26-43.25,8.45-65.04,10.82-19.58,2.13-52.5-.62-69.25,5.83-14.64,5.64-20.54,11.2-37.8,14.06-23.27,3.86-27.05,1.05-47.97-4.95-25.22-7.24-57.72.55-85.6-3.42-12.13-1.73-35.03-12.34-44.14-11.43-10.12,1.01-20.07,4.08-31.01,4.59-9.88.47-40.41.79-47.25-6.23-3.85-3.95-.35-8.98,3.9-9.26,4.66-.31,14.44,3.29,20.19,3.74,8.2.64,20.14-.47,28.43-1.56,11.88-1.56,22.48-7.11,34.39-3.98,6.48,1.7,12.61,5.19,19.52,6.8,23.04,5.36,49.15,2.04,72.35,1.9,20.3-.13,23.1,3.9,40.51,8.32,14.47,3.68,28.98,2.89,43.34-1.1,11-3.05,18.46-12.17,29.29-13.28,26.49-2.73,53.83-2.05,80.31-5.61,16.74-2.25,32.57-8.32,49.61-9.22,18.08-.95,36.32-1.17,54.44-2.06Z"/>
        <path class="cls-3" d="M232.01,389.42c8.05,1.37,14.93,6.59,22.93,8.7,22.49,5.92,46.94-.69,69.92.52,13.49.71,29.71,6.56,42.33,5.24,15.99-1.68,34.64-9.41,51.53-11.95,20.86-3.13,40.25-1.43,60.96-1.74,2.09-.03,3.92-.95,6.13-.84,2.85.14,4.34,2.01,6.29,2.33,2.96.49,6.64-2.31,7.32,1.19-4.95,8.78-17.46,10.87-26.66,9.6-3.21-.44-5.87-2.65-9.35-3.03-19.78-2.17-44.57,2.38-64.01,6.43-9.94,2.07-21.67,6.25-31.41,7.29-15.02,1.59-31.8-6.03-47.79-6.75-26.34-1.18-58.86,9.99-81.9-7.12-3.11-2.31-5.91-4.44-7.19-8.31l.92-1.57Z"/>
        <path class="cls-3" d="M435.13,517.88c-11.17.72-19.62-3.74-30.8-1-13.01,3.18-19.8,10.93-30.1,17.89-17.97,12.15-49.56,18.11-71.08,20.26-16.73,1.67-35.12,3.63-51.48-.37-19.68-4.81-32.82-18.35-19.67-38.27,3.25-4.92,8.83-8.22,10.86-13.93l-.92-1.57c-9.01,1.82-16.66,6.49-26.23,6.16-6.21-.21-25.03-3.81-29.77-7.4-1.07-.81-2.57-1.88-2.37-3.43,12.98,1.11,25.44,7.05,38.89,5.21,5.54-.76,23.22-10.25,25.19-1.57,1.7,7.5-6.48,12.85-10.22,18.09-20.63,28.9,23.27,33.9,42.5,32.43,17.49-1.34,44.01-4.96,60.77-9.67,21.11-5.92,28.15-13.68,45.66-23.24,13.28-7.25,32.62-9.46,46.46-2.31,1.2.62,2.61.96,2.32,2.71Z"/>
        <path class="cls-3" d="M374.75,513.24c.22,1.2-.12,1.8-.73,2.74-4.43,6.85-33.15,17.11-41.67,19.48-19.64,5.45-69.31,16.69-86.04,4.43-15.77-11.56,15.8-31.88,8.04-44.42-5.8-9.38-22.98,1.68-31.31-.42,18.57-15.39,49.53-11.4,33.68,18.98-3.47,6.66-14.76,17.87-4.29,22.83,9.98,4.73,25.29,1.88,35.88.25,17.67-2.73,35.22-7.33,52.2-12.82,8.55-2.77,21.75-9.32,29.39-10.86,1.61-.32,3.23-.2,4.85-.18Z"/>
        <path class="cls-3" d="M667.12,444.13c-.58.7-3.71,2.24-4.75,2.59-15.75,5.38-41.32-8.76-55.98-14.56-10.2-4.03-22.53-.03-33.63-5.07-2.47-1.12-5.56-3.98-8.01-4.38-9.11-1.47-18.1,2.5-26.92-3.27-4.81-3.14-6.3-7.96-9.02-12.66-6.17-1.41-13.11-.36-18.69-3.79-.61-.37-2.05-.37-1.44-1.61,1.54-3.15,17.14-2.05,20.46-1.12,8.79,2.44,6.74,11.02,14.97,13.67,7.9,2.54,14.56-.94,22.14,1.08,4.79,1.27,8.41,5.37,13.31,6.04,5.72.78,12.66-.4,18.54.04,17.14,1.28,36.98,19.26,55.7,19.22,4.09,0,8.77-2.23,13.04-1.27,2.03.67,1.38,3.73.27,5.08Z"/>
        <path class="cls-3" d="M624.78,515.57c.2,2.07,0,1.24-1.16,1.53-10.35,2.49-29.02-.55-39.08-4.26-11.03-4.06-32.22-16.92-42.94-16.66-15.33.38-14.21,16.98-24.05,24.78-13.71,10.87-41.52,8.14-57.67,4.3-3.16-.75-6.11-1.51-8.47-3.9-.09-1.55,6.18-1.26,7.37-1.19,17.43.99,31.63,6.8,49.32-.93,13.73-6,10.34-18.37,19.91-25.76,16.96-13.12,41.2,6.56,57.02,13.45,12.6,5.49,26.15,7.42,39.75,8.63Z"/>
        <path class="cls-3" d="M131.28,385.5c-5.57-3.34-21.2-.55-27.42.11-10.21,1.09-23.11,2.85-33.16,4.77-6.62,1.27-12.42,3.65-18.77,5.6-1.27.67-2.69,1.05-4.18,1.13-.02,0-.03,0-.05,0-.57.34-1.13.68-1.7,1.02-.55.33-1.15.5-1.77.54-.01.01-.02.03-.04.04-1.97,1.73-10.11,4.37-13.52,6.6-14.74,9.66-15.84,27,2.42,32.27,3.88,1.12,19.5,2.1,8.11,6.9-7.26,3.06-18.87,2.7-22.22,11.83l1.85,1.11c5.79-7.27,23.56-6.39,27.6-13.44,5.12-8.94-12.39-8.96-17.47-11.25-9.68-4.35-9.33-14.68-1.86-21.25,11.09-9.75,31.01-13.77,45.23-15.15,13.27-1.29,25.1.83,38.18-2.25l3.31-1.58c3.91-.23,12.74-3.97,15.43-7.03Z"/>
        <path class="cls-3" d="M56.48,472.42c14.36-.94,10.75,10.25,18.7,16.45,10.08,7.87,32.36,3.81,44.14.76,15.35-3.98,33.73-14.49,47.98-2.32-.74,1.13-1.49,1.06-2.65,1.2-5.32.61-11.61-1.33-17.75-.71-21.61,2.17-55.2,22.88-75.94,4.54-5.22-4.62-4.26-8.46-7.19-12.93-3.45-5.26-14.13-1.12-19.54-2.13-1.22-.88-.47-1.27.49-1.85,2.26-1.37,9.03-2.8,11.76-2.98Z"/>
        <path class="cls-3" d="M708.09,437.28c1.07.6,2.52.73,3.74,1.09,1.83.03,3.65.1,5.48.14l11.74-2.5c1.93-1.22,5.35-3.72,3.73-6.37-1.92-3.15-12.04.37-15.52.78-2.79.33-10.11-.94-11.62,1.55-1.23,2.25.58,4.27,2.45,5.33Z"/>
        <path class="cls-3" d="M721.14,444.34c16.55-1.31,32.21-10.86,18.84-28.11-.85-1.1-7.46-7.82-5.93-2.59.66,2.27,3.32,4.78,4.41,7.2,4.43,9.79-1.07,14.77-8.64,16.9.3.42.1,1.24-.6,1.33-3.49.45-6.96,1.04-10.48,1.03-3.56,0-7.12-.32-10.68-.11-.3.02-.5-.11-.62-.3-16.23,1.22-17.26,12.58,1.75,19.72,6.82,2.56,16.21,2.3,14.68,12.8,4.94-1.06,2.62-6.62.41-9.31-4.12-5.01-26.19-9.22-24.34-15.72,1.06-3.73,17.64-2.56,21.21-2.84Z"/>
        <path class="cls-3" d="M674.7,516.34c4.81-.54,16.4-4.59,19.73-8.13,10.65-11.3-10.23-15.17-11.49-22.61-.66-3.9,4.92-6.25,8.08-6.34,5.11-.13,13.01,1.04,18.54,1.44,1.39.1,2.5-.2,3.43,1.2-.05,3.43-22.4.92-25.53,2.72,6.78,7.03,21.42,12.82,12.38,25.14-10.04,13.68-40.22,12.72-54.95,8.9-.67-1.29,1.33-2.31,1.93-2.31,8.5,0,19.78.91,27.87,0Z"/>
        <path class="cls-3" d="M114.89,417.83c-5.22-5.15,14.27-3.51,16.42-3.68,15.16-1.2,31.16-7.08,47.24-7.72,1.79-.07,3.79-.5,5,1.16-1.59,1.82-3.56,3.22-5.66,4.39-5.89,3.25-39.2,7.96-47.35,8.38-3.54.18-13.09,0-15.65-2.52Z"/>
        <path class="cls-3" d="M205.82,405.82c5.07-.8,11.82,2.44,17.04,3.49,3.06.62,12.22-.29,11.83,3.65s-7.54,2.97-10.46,2.73c-4.51-.37-12.36-3.45-16.2-3.08-2.8.27-9.45,7.23-12.59,9.14-6.2,3.78-12.54,5.68-19.26,1.73-1.86-5.64,4.17-3.48,7.72-3.98,7.36-1.03,12.7-12.23,21.93-13.69Z"/>
        <path class="cls-3" d="M61,430.54c4.02-1.39,16.27,1.98,21.55,2.04,3.47.04,16.38-3.43,16.37,2.09,0,3.39-6.88,4.04-9.42,4.25-5.58.46-21.62-.23-26.56-2.06-3.2-1.19-5.87-4.96-1.95-6.32Z"/>
        <path class="cls-3" d="M645.14,497.54c-2.17-2.56-.69-4.83,2.44-5.23,2.9-.38,14.36-.44,17.05.06,1.51.28,3.36,1.92,3.52,3.49.84,8.27-18.75,6.68-23,1.68Z"/>
        <path class="cls-3" d="M116.07,447.66c2.51-.12,5.28-.55,5.99,2.81,1.24,5.87-21.04,6.53-22.06,1.92-.82-3.74,13.71-4.61,16.07-4.73Z"/>
        <path class="cls-3" d="M75.38,461.56c.92-.82,9.49-2.62,10.97-2.48,6.18.55,4.95,8.97-5.28,7.66-2.04-.26-8.63-2.56-5.69-5.17Z"/>
        <path class="cls-3" d="M618.85,510.65c-1.58-1.55-2.85-4,.14-4.41.57-.08,10.88.81,11.43.97,4.55,1.33,2.83,6.56-2.22,6.75-2.22.08-7.73-1.74-9.34-3.31Z"/>
      </g>
      <g>
        <path class="cls-3" d="M725.4,405.34c-.07-1.23-1.11-2.22-2.13-2.94-1.87-1.31-3.96-2.28-6.03-3.24-7.03-3.25-14.21-5.46-21.82-7.15-7.75-1.73-15.37-3.06-23.29-3.62s-16.49-1.35-24.58-2.99c-5.09-1.03-10.25-2.16-14.82-4.73-3.17-1.79-5.96-4.16-8.77-6.46-1.41-1.15-2.81-2.35-4.32-3.36s-3.09-1.69-4.51-2.75c-2.1-1.57-3.99-3.43-5.84-5.28-4.18-4.19-8.6-7.92-13.23-11.58-2.98-.78-6.09-.68-9.15-.68-.45,0-.76-.2-.96-.47-.35.11-.71.26-1.07.47l-.05,1.6c5.13,3.56,9.11,11.91,14.09,15.16,6.77,4.41,13.18,5.43,18.68,10.92,8.2,8.19,20.39,11.49,31.44,13.6,12.89,2.46,26.02,3.26,39.08,4.35,4.48.37,8.96.77,13.42,1.36,6.37.84,12.13,2.53,17.9,5.41,1.94.97,3.87,2.02,5.97,2.57,0-.07,0-.13,0-.19Z"/>
        <g>
          <g>
            <path class="cls-15" d="M231.33,388.56c8.05,1.37,14.93,6.59,22.93,8.7,22.49,5.92,46.94-.69,69.92.52,13.49.71,29.71,6.56,42.33,5.24,15.99-1.68,34.64-9.41,51.53-11.95,20.86-3.13,40.25-1.43,60.96-1.74,2.09-.03,3.92-.95,6.13-.84,2.85.14,4.34,2.01,6.29,2.33,2.96.49,6.64-2.31,7.32,1.19-4.95,8.78-17.46,10.87-26.66,9.6-3.21-.44-5.87-2.65-9.35-3.03-19.78-2.17-44.57,2.38-64.01,6.43-9.94,2.07-21.67,6.25-31.41,7.29-15.02,1.59-31.8-6.03-47.79-6.75-26.34-1.18-58.86,9.99-81.9-7.12-3.11-2.31-5.91-4.44-7.19-8.31l.92-1.57Z"/>
            <path class="cls-15" d="M666.43,443.26c-.58.7-3.71,2.24-4.75,2.59-15.75,5.38-41.32-8.76-55.98-14.56-10.2-4.03-22.53-.03-33.63-5.07-2.47-1.12-5.56-3.98-8.01-4.38-9.11-1.47-18.1,2.5-26.92-3.27-4.81-3.14-6.3-7.96-9.02-12.66-6.17-1.41-13.11-.36-18.69-3.79-.61-.37-2.05-.37-1.44-1.61,1.54-3.15,17.14-2.05,20.46-1.12,8.79,2.44,6.74,11.02,14.97,13.67,7.9,2.54,14.56-.94,22.14,1.08,4.79,1.27,8.41,5.37,13.31,6.04,5.72.78,12.66-.4,18.54.04,17.14,1.28,36.98,19.26,55.7,19.22,4.09,0,8.77-2.23,13.04-1.27,2.03.67,1.38,3.73.27,5.08Z"/>
            <path class="cls-15" d="M130.59,384.64c-5.57-3.34-21.2-.55-27.42.11-10.21,1.09-23.11,2.85-33.16,4.77-6.62,1.27-12.42,3.65-18.77,5.6-1.27.67-2.69,1.05-4.18,1.13-.02,0-.03,0-.05,0-.57.34-1.13.68-1.7,1.02-.55.33-1.15.5-1.77.54-.01.01-.02.03-.04.04-1.97,1.73-10.11,4.37-13.52,6.6-14.74,9.66-15.84,27,2.42,32.27,3.88,1.12,19.5,2.1,8.11,6.9-7.26,3.06-18.87,2.7-22.22,11.83l1.85,1.11c5.79-7.27,23.56-6.39,27.6-13.44,5.12-8.94-12.39-8.96-17.47-11.25-9.68-4.35-9.33-14.68-1.86-21.25,11.09-9.75,31.01-13.77,45.23-15.15,13.27-1.29,24.66,1,37.74-2.08l3.75-1.75c3.91-.23,12.74-3.97,15.43-7.03Z"/>
            <path class="cls-15" d="M55.79,471.56c14.36-.94,10.75,10.25,18.7,16.45,10.08,7.87,32.36,3.81,44.14.76,15.35-3.98,33.73-14.49,47.98-2.32-.74,1.13-1.49,1.06-2.65,1.2-5.32.61-11.61-1.33-17.75-.71-21.61,2.17-55.2,22.88-75.94,4.54-5.22-4.62-4.26-8.46-7.19-12.93-3.45-5.26-14.13-1.12-19.54-2.13-1.22-.88-.47-1.27.49-1.85,2.26-1.37,9.03-2.8,11.76-2.98Z"/>
            <path class="cls-15" d="M720.45,443.48c16.55-1.31,32.21-10.86,18.84-28.11-.85-1.1-7.46-7.82-5.93-2.59.66,2.27,3.32,4.78,4.41,7.2,5.73,12.66-5.12,17.26-15.62,18.1-.02,0-.03.01-.05.02-4.44,1.13-8.86.76-13.36.64-18.13.41-20.02,12.39-.26,19.82,6.82,2.56,16.21,2.3,14.68,12.8,4.94-1.06,2.62-6.62.41-9.31-4.12-5.01-26.19-9.22-24.34-15.72,1.06-3.73,17.64-2.56,21.21-2.84Z"/>
            <path class="cls-15" d="M674.02,515.47c4.81-.54,16.4-4.59,19.73-8.13,10.65-11.3-10.23-15.17-11.49-22.61-.66-3.9,4.92-6.25,8.08-6.34,5.11-.13,13.01,1.04,18.54,1.44,1.39.1,2.5-.2,3.43,1.2-.05,3.43-22.4.92-25.53,2.72,6.78,7.03,21.42,12.82,12.38,25.14-10.04,13.68-40.22,12.72-54.95,8.9-.67-1.29,1.33-2.31,1.93-2.31,8.5,0,19.78.91,27.87,0Z"/>
          </g>
          <path class="cls-15" d="M724.72,404.48c-.07-1.23-1.11-2.22-2.13-2.94-1.87-1.31-3.96-2.28-6.03-3.24-7.03-3.25-14.21-5.46-21.82-7.15-7.75-1.73-15.37-3.06-23.29-3.62-8.22-.59-16.49-1.35-24.58-2.99-5.09-1.03-10.25-2.16-14.82-4.73-3.17-1.79-5.96-4.16-8.77-6.46-1.41-1.15-2.81-2.35-4.32-3.36s-3.09-1.69-4.51-2.75c-2.1-1.57-3.99-3.43-5.84-5.28-4.18-4.19-8.6-7.92-13.23-11.58-2.98-.78-6.09-.68-9.15-.68-.45,0-.76-.2-.96-.47-.35.11-.71.26-1.07.47l-.05,1.6c5.13,3.56,9.11,11.91,14.09,15.16,6.77,4.41,13.18,5.43,18.68,10.92,8.2,8.19,20.39,11.49,31.44,13.6,12.89,2.46,26.02,3.26,39.08,4.35,4.48.37,8.96.77,13.42,1.36,6.37.84,12.13,2.53,17.9,5.41,1.94.97,3.87,2.02,5.97,2.57,0-.07,0-.13,0-.19Z"/>
        </g>
      </g>
    </g>
  </g>
  <g id="Dark_Rocks" data-name="Dark Rocks">
    <g>
      <path class="cls-7" d="M228.32,153.14c7.09-.84,14.03,3.02,20.7,3.67s17.15-1.71,22.79,1.98c2.2,1.44,5.16,6.25,7.43,6.56,3.67.5,11.19-3.9,15.64-4.46,7.39-.93,8.91,2.63,14.6,5.12,6.46,2.83,18.56,5,23.12,9.39,10.33,9.96.72,29.35,16.13,38.83,5.56,3.42,12.09,5.66,17.79,9.31,3.36,2.15,10.62,9.22,14.1,9.2,5.16-.03,5.15-10.89,8.09-14.4,3.47-4.14,9.2-1.54,13.37-.17,19.51,6.42,36.32,18.27,54.38,27.67,5.52,3.03,4.16,11.17,7.69,14.75s12.16,2.69,15.29,8.7c.99,1.9,2.15,7.36,2.19,9.49.09,4.42-2.15,12.4-.4,16.58,1.84,4.4,13.86,5.79,17.8,9.29,9.18,8.17,4.03,31.12,3.48,42.21-.5,10.07.17,22.04-.79,31.72-.81,8.13-4.85,14.9-13.54,15.88-9.83,1.11-20.11-2.6-31-2.36-16.56.36-35.95,1.15-52.07,4.44-10.63,2.17-21.37,6.5-31.85,8.4-17.42,3.15-27.91-4-44.54-5.05-25.35-1.6-61.84,7.43-83.92-5.87-18.22-10.98-16.13-23.37-21.35-41.35-5.31-18.28-18.31-38.19-12.21-57.89,2.79-9.02,11.66-15.98,11.08-25.36-.42-6.7-3.39-14.42-3.89-21.65-.71-10.3,1.81-22.07.68-31.65-1.48-12.53-11.87-27.56-11.46-41.04.29-9.5,6.52-7.72,10.02-11.66,3.64-4.09,1.65-9.21,10.63-10.28Z"/>
      <g>
        <path class="cls-17" d="M285.91,175.64c-2.06,6.48-10.21,6.68-15.89,6.22-11.9-.97-23.91-12.29-35.41-9.92-8.01,1.65-6.72,6.69-5.45,12.84,2.93,14.25,16.87,40.64,16.53,52.37-.03,1.17.51,2.27-1.18,1.95-3.79-1.88-18.42-40.93-20.13-47.21-2.87-10.56-6.23-21.18,6.93-25.58,12.63-4.23,20.55,3.3,31.4,7.38,8.06,3.03,14.63,3.61,23.2,1.95Z"/>
        <path class="cls-17" d="M503.99,315.21c-.17-1.36-.42-2.72-.87-4.02-.3-.85-.7-1.65-1.1-2.45-.79-1.56-1.76-3.02-2.99-4.27-.67-.69-1.41-1.31-2.19-1.88-7.67-5.56-20.17-2.5-17.42-17.03-5.51.42-5.21,7.74-2.67,11.57,4.74,7.11,15.61,3.88,20.34,11.39,4.02,6.39-.65,6.27-4.51,10.7-.91,1.04-1.3,2.94-1.92,3.51-1.12,1.01-2.59.37-3.57,1.26-2.43,2.24-9.7,32.09-10.56,37.24-.27,1.64-1.26,5.13.18,6.36,2.11-3.17,4.24-7.08,5.62-10.62,3.71-9.52,7.13-31.44,14.87-37.76,1.58-1.29,3.47-2.11,5.5-2.34.27-.03.53-.05.8-.06.13,0,.12,0,.25,0,.15,0,.39.03.37-.18-.04-.47-.09-.94-.14-1.41Z"/>
        <path class="cls-17" d="M381.71,231.18c2.37-2.47,2.49-13.23,7.88-14.95,4.26-1.36,17.37,2.71,21.92,4.48,7.45,2.9,42.57,21.47,46.11,26.65,2.31,3.37,2.93,8.24,5.55,11.48,2.37,2.93,5.62,2.94,7.74,5.8-12.28,2.78-12.68-10.69-18.61-17.38-17.34-8.42-33.38-20.98-52.6-24.81-2.23-.45-5.9-1.64-7.97-1.02-3.93,1.18-3.42,15.57-13.11,14.43-5.12-.6-17.08-11.02-22.02-14.42-4.52-3.11-10.05-5.14-13.4-9.42,3.79.8,7.96,2.68,11.35,4.51,5.37,2.89,20.5,15.04,24.78,15.38.74.06,1.88-.2,2.38-.73Z"/>
        <path class="cls-17" d="M336.99,198.86c-5.25-5.01-2.62-14.54-7.71-19.77-4.07-4.18-16.31-6.97-22.23-9.5-2.56-1.1-5.43-3.77-7.96-4.42-8.19-2.12-14.9,4.49-22.03,3.46-5.35-.78-7.25-6.95-12.78-8.12-4.52-.96-9.76.23-14.92-.56-5.02-.78-9.6-2.89-14.49-4.08-2.11-.52-5.26.39-6.23-1.88,6.97-2.88,13.23,1.65,19.74,2.31,6.63.67,16.41-1.69,22.02,1.98,2.28,1.49,4.87,5.99,7.55,6.41,2.17.34,9.55-3.47,12.58-4.15,10.51-2.36,11.95,1.6,20.4,5.2,7.06,3,20.78,6.51,23.9,14.03,2.2,5.29,1.59,13.32,2.16,19.12Z"/>
        <path class="cls-17" d="M450.78,260.01l-8.76-7.1-38.25-15.94c-9.03-1.9-10.68,9.43-17.8,12.8-6.23,2.95-15.34.67-18.01-6.01.33-.32,7.4,2.11,8.99,2.25,12.71,1.17,12.05-18.03,28.36-15.23,11.79,7.01,28.92,11.58,39.98,18.84,4.09,2.68,6.01,5.13,5.48,10.38Z"/>
        <path class="cls-17" d="M425.24,311.86c-1.15-1.23.26-1.31,1.07-1.62,5.77-2.18,17.71,2.18,23.45,4.59,5.44,2.29,19.86,11.57,25.03,9.04,7.77-12.17-12.36-18.41-9.69-30.57,7.06,9.89,19,15.71,16.46,29.61-2.85,15.61-26.47.16-33.89-2.9-3.29-1.36-21.46-7.11-22.43-8.15Z"/>
        <path class="cls-17" d="M460.26,331.49c-16.02-3.96-32.09-8.62-47.81-13.72-3.19-1.04-7.42-2.13-10.28-3.68-1.08-.59-1.91.07-1.51-1.94,16.78,1.47,36.87,5.97,52.13,13.27.75.36,9.3,4.43,7.46,6.08Z"/>
        <path class="cls-17" d="M431.43,258.46c-1.94,1.78-21.81-7.79-25.95-7.76-5.35.05-7.16,7.73-11.58,8.55-2.55.47-.41-4.31,0-5.42,5.56-14.67,17.68-8.95,27.98-3.25.97.54,11.23,6.31,9.54,7.87Z"/>
        <path class="cls-17" d="M231.65,260.15c2.4-1.73,4.93-3.35,6.17-6.1.02-.05.05-.09.08-.14-3.28-15.13-9.12-36.94-12.03-41.07-1.52-2.15-4.33-3.7-5.58-6.03-1.79-3.35-8.96-24.86-9.38-28.54-.21-1.81-.41-5.07.08-6.72.94-3.23,9.21-5.34,9.58-9.7.08-.97-1.13-1.47-1.8-.76-2.85,3.01-8.14,4.49-10.28,7.19-6.14,7.72,1.92,25.49,4.38,34.85.01.02.02.04.04.06,1.19,2.49,2.29,5.07,3.95,7.3,1.33,1.79,2.87,3.26,3.9,5.27.44.86.79,1.77,1.09,2.71,3.21,6.94,5.15,17.46,6.41,22.98,1.34,5.87,2.06,12.45,3.4,18.73Z"/>
        <path class="cls-17" d="M497.09,308.52c.87,1.38,1.31,2.45,1.47,3.34,1.49-.32,3.02-.48,4.53-.71-1.38-3.4-2.9-6.14-6.25-8.57-7.67-5.56-20.17-2.5-17.42-17.03-5.51.42-5.21,7.74-2.67,11.57,4.74,7.11,15.61,3.88,20.34,11.39Z"/>
      </g>
      <g>
        <path class="cls-13" d="M284.99,174.69c-2.06,6.48-10.21,6.68-15.89,6.22-11.9-.97-23.91-12.29-35.41-9.92-8.01,1.65-6.72,6.69-5.45,12.84,2.93,14.25,16.87,40.64,16.53,52.37-.03,1.17.51,2.27-1.18,1.95-3.79-1.88-18.42-40.93-20.13-47.21-2.87-10.56-6.23-21.18,6.93-25.58,12.63-4.23,20.55,3.3,31.4,7.38,8.06,3.03,14.63,3.61,23.2,1.95Z"/>
        <path class="cls-13" d="M380.79,230.24c2.37-2.47,2.49-13.23,7.88-14.95,4.26-1.36,17.37,2.71,21.92,4.48,7.45,2.9,42.57,21.47,46.11,26.65,2.31,3.37,2.93,8.24,5.55,11.48,2.37,2.93,5.62,2.94,7.74,5.8-12.28,2.78-12.68-10.69-18.61-17.38-17.34-8.42-33.38-20.98-52.6-24.81-2.23-.45-5.9-1.64-7.97-1.02-3.93,1.18-3.42,15.57-13.11,14.43-5.12-.6-17.08-11.02-22.02-14.42-4.52-3.11-10.05-5.14-13.4-9.42,3.79.8,7.96,2.68,11.35,4.51,5.37,2.89,20.5,15.04,24.78,15.38.74.06,1.88-.2,2.38-.73Z"/>
        <path class="cls-13" d="M336.07,197.91c-5.25-5.01-2.62-14.54-7.71-19.77-4.07-4.18-16.31-6.97-22.23-9.5-2.56-1.1-5.43-3.77-7.96-4.42-8.19-2.12-14.9,4.49-22.03,3.46-5.35-.78-7.25-6.95-12.78-8.12-4.52-.96-9.76.23-14.92-.56-5.02-.78-9.6-2.89-14.49-4.08-2.11-.52-5.26.39-6.23-1.88,6.97-2.88,13.23,1.65,19.74,2.31,6.63.67,16.41-1.69,22.02,1.98,2.28,1.49,4.87,5.99,7.55,6.41,2.17.34,9.55-3.47,12.58-4.15,10.51-2.36,11.95,1.6,20.4,5.2,7.06,3,20.78,6.51,23.9,14.03,2.2,5.29,1.59,13.32,2.16,19.12Z"/>
        <path class="cls-13" d="M449.86,259.06l-8.76-7.1-38.25-15.94c-9.03-1.9-10.68,9.43-17.8,12.8-6.23,2.95-15.34.67-18.01-6.01.33-.32,7.4,2.11,8.99,2.25,12.71,1.17,12.05-18.03,28.36-15.23,11.79,7.01,28.92,11.58,39.98,18.84,4.09,2.68,6.01,5.13,5.48,10.38Z"/>
        <path class="cls-13" d="M430.51,257.51c-1.94,1.78-21.81-7.79-25.95-7.76-5.35.05-7.16,7.73-11.58,8.55-2.55.47-.41-4.31,0-5.42,5.56-14.67,17.68-8.95,27.98-3.25.97.54,11.23,6.31,9.54,7.87Z"/>
        <path class="cls-13" d="M230.74,259.2c2.4-1.73,4.93-3.35,6.17-6.1.02-.05.05-.09.08-.14-3.28-15.13-9.12-36.94-12.03-41.07-1.52-2.15-4.33-3.7-5.58-6.03-1.79-3.35-8.96-24.86-9.38-28.54-.21-1.81-.41-5.07.08-6.72.94-3.23,9.21-5.34,9.58-9.7.08-.97-1.13-1.47-1.8-.76-2.85,3.01-8.14,4.49-10.28,7.19-6.14,7.72,1.92,25.49,4.38,34.85.01.02.02.04.04.06,1.19,2.49,2.29,5.07,3.95,7.3,1.33,1.79,2.87,3.26,3.9,5.27.44.86.79,1.77,1.09,2.71,3.21,6.94,5.15,17.46,6.41,22.98,1.34,5.87,2.06,12.45,3.4,18.73Z"/>
      </g>
    </g>
  </g>
  <g id="Light_Rocks" data-name="Light Rocks">
    <g>
      <g>
        <path class="cls-4" d="M210.26,206.91c14.48-2.11,21.6,25.48,23.94,36.07,2.34,10.58,3.01,21.79,5.72,32.21,6.6,25.42,17.07,50.9,22.79,77.07,1.41,6.45,5.46,18.98,0,24.02-4.92,4.55-16.91,3.12-19.39,5.38-3.22,2.94,1.56,26.37-7.89,28.49-9.13,2.05-18.8-6.26-28.3-4.3-7.73,1.6-14.72,14.27-21.15,14.5-6.17.22-10.72-10.75-16.92-11.61-12.93-1.8-31.45,8.43-45.62,6.91-15.28-1.64-14.5-25.76-3.52-33.53,7.7-5.45,10.2-1.1,9.14-13.88-1.32-15.82-10.35-41.26-8.35-55.77,1.63-11.82,13.09-8.83,15.23-19.6,1.5-7.55.24-16.12,6.03-22.61,3.59-4.01,10.06-5.23,14.22-8.22,12.8-9.18,11.3-38,24.39-42.18,4.53-1.45,8.34-.54,13.34-2.91,5-2.37,10.98-9.26,16.31-10.04Z"/>
        <path class="cls-4" d="M534.55,302.11c3.32-.99,18.24,2.89,20.76,5.24,5.74,5.35,1.49,18.16,5.47,20.85,8.82,3.41,27.63,6.2,34.03,13.19,6.56,7.15-2.72,15.94,5.05,22.04,6.56,5.15,13.9,8.29,19.69,15.14,5.17,6.12,6.35,13.18,10.81,19.38,14.65,7.65,44.75,7.56,42.2,30.56-1.68,15.2-19.94,16.69-31.49,12.13-7.24-2.86-17.45-6.69-24.23-9.83-4.1-1.9-8.04-6.13-12.35-7-9.8-1.98-16.52,3.02-27.17-2.25-3.25-1.61-5.59-4.76-8.7-6-9.93-3.96-21.56,5.54-29.6-4.46-2.39-2.97-2.9-6.94-6.89-8.59-7.02-2.9-23.66-3.18-32.32-4.83-9.98-1.9-26.03-4.64-26.9-17.29-.54-7.83,7.91-26.45,10.82-34.69,2.61-7.39,6.34-26.26,13.37-29.98,9.31-4.94,18.72,5.23,25.55,3.11,3.7-1.15,6.93-15.23,11.92-16.73Z"/>
        <path class="cls-4" d="M77.11,395.02c16.49-2.81,23.73,10.35,24.23,24.94.56,16.19-7.94,15.27-21.31,14.34-11.74-.82-15.89-1.66-16.68-14.28-.63-10,2.03-23,13.76-25Z"/>
        <path class="cls-4" d="M710.69,433.34c-2.71-4.77.31-20.45,5.77-22.1,5.74-1.74,17.71,8.98,18.49,14.54,1.2,8.56-18.72,11.82-24.25,7.57Z"/>
        <path class="cls-4" d="M656.08,474.73c3.5-.79,8.78-.2,11.8,1.81,6.62,4.42,5.04,17.94-3.43,18.94-4.67.55-15.56,1-17.8-3.9-1.94-4.24,4.5-15.74,9.43-16.85Z"/>
        <path class="cls-4" d="M105.39,450.35c-4.24-4.24-1.96-18.32,5.77-19.73,10.88-1.98,17.04,3.44,12.76,14.31-2.5,6.36-13.92,10.03-18.53,5.42Z"/>
        <path class="cls-4" d="M82.52,448.38c8.85-1.79,13.82,12.29,3.51,14.4-11.35,2.33-10.98-12.89-3.51-14.4Z"/>
        <path class="cls-4" d="M623.22,508.43c-3.79-6.32,3.4-12.84,9.03-7.87,7.71,6.81-2.51,12.88-9.03,7.87Z"/>
      </g>
      <g>
        <path class="cls-13" d="M655.14,494.56c4.53-1.53,9.53.42,13.17-3.48,2.91-3.12,2.86-7.87.35-11.22-1.72-2.31-5.64-2.2-5.01-5.43,12.55,1.26,12.55,19.82.32,21.6-2.22.32-7.67.86-8.83-1.47Z"/>
        <g>
          <g>
            <g>
              <path class="cls-13" d="M240.27,267.33c-.48-8.16-10.31-48.7-14.4-54.49-1.14-1.61-2.99-2.88-4.38-4.4-1.42-.84-2.89-1.59-4.47-2.05-1.98-.59-4.29-1.02-6.13-2.12-7.31.97-12.19,11.13-17.84,12.81-3.31.99-6.96-.16-10.31.53-13.09,2.69-15.86,28.52-22.36,38.01-6.57,9.6-24.79,10.8-22.32,26.83,1.97.44,1.35-.53,2-1.45,1.91-2.71,3.51-6.6,5.82-8.91,3.67-3.69,9.86-5.19,14.11-8.34,11.7-8.69,11.72-25.61,19.23-36.51,5.55-8.06,9.53-2.93,16.68-5.76,7.83-3.1,12.74-16.39,22.16-8.57,5.58,4.64,8.49,21.1,10.19,28.51,2.76,12.04,2.84,27.07,11.21,36.39.97-3.34,1.02-6.99.81-10.48Z"/>
              <path class="cls-13" d="M189.15,398.57c-1.14,4.96-8.68,4.94-12.76,4.63-3.39-.26-6.99-1.91-10.15-2.23-11.66-1.14-32.63,13.08-42.14,4.21-10.76-10.03,10.04-19.38,13.34-26.99,4.19-9.65-1.73-19.35-.91-29.17,2.71-3.05,7.13,12.69,7.38,13.9,1.78,8.8,1.05,15.34-4.66,22.48-2.3,2.87-10.99,9.77-11.71,12.36-.29,1.04-.23,1.14.41,1.99,4.08,5.38,21.28-2.77,27.12-3.94,10.24-2.05,13.58.45,22.97,1.88,1.71.26,10.48.32,11.13.87Z"/>
              <path class="cls-13" d="M142.78,410.87c.28,1.45-.58,2.17-1.77,2.48-15.63,4.14-20.68,3.39-25.3-1.12-5.69-5.57-5.41-23.82.78-28.81,7.85-6.32,13.33-1.95,12.1-16.82-1.29-15.69-10.64-43.24-8.09-57.34,1.45-7.99,11.48-8.44,15.69-14.5,2.49,6.92-6.88,8.85-9.7,12.75-1.91,2.64-1.65,6.17-1.43,9.21,1.06,14.49,11.52,44.75,8.2,57.17-3.05,11.43-16.03,6.73-17.49,21.2-1.94,19.15,12.78,17.96,26.99,15.78Z"/>
              <path class="cls-13" d="M168.25,266.97c1.8-3.88,4.52-7.34,6.02-11.39,1.9-5.15,1.96-11.03,5.26-15.64,3.41-4.78,9.05-5.8,13.73-8.72,7.65-4.78,15.14-14.96,24.53-4.87,4.91,5.27,9.76,22.81,5.03,29.02-1.49.35-2.69-2.86-3.06-3.89-2.38-6.5-1.92-25.62-13.02-23.03-2.42.56-6.42,5.1-8.81,6.67-3.98,2.62-9.91,4.07-13.06,7.07-6.22,5.93-5.09,22.78-16.61,24.8Z"/>
              <path class="cls-13" d="M201.53,274.72c-7.11,15.68-16.39,26.96-15.47,45.27.5,9.97,6.26,22.39,6.18,30.97-.01,1.41-1.75,8.92-3.85,7.35-6-24.12-13.88-44.89-.63-68.35.98-1.73,11.59-17.5,13.78-15.24Z"/>
              <path class="cls-13" d="M168.26,407.09c5.84-.73,13.05,8.63,17.33,8.48,5.28-.18,12.18-9.66,17.71-11.75,1.28-.48,9.09-2.52,9.06-.22l-20.93,15.43c-6.56,3.32-7.38,2.21-12.7-1.91-2.43-1.88-6.89-5.33-8.93-7.32-.83-.81-1.81-1.35-1.53-2.72Z"/>
            </g>
            <path class="cls-13" d="M90.84,397.79c-9.01-2.02-19.36-.68-23.25,8.88-1.75,4.3-.85,8.86-2.21,12.5-.4,1.07.25,1.33-1.63,1.08-2.42-12.76,4.05-25.75,18.22-26.34,2.41-.1,8.75.68,8.86,3.89Z"/>
            <path class="cls-13" d="M94.33,432.63c8.8-1.9,5.31-19.54,3.49-25.54.91.06,1.66-.41,2.37.48,3.18,3.95,3.05,17.81.61,22.25-.83,1.51-4.87,5.13-6.48,5.13h-11.61l-1.15-1.16,1.15-1.16c3.41-.49,8.48.67,11.61,0Z"/>
            <path class="cls-13" d="M81.56,426.44c3.36-1.3,8.7.06,10.67-3.65,2.86-5.41-1.8-10.63-2.89-15.37-.23-1.02.12-1.52,1.11-1.1,3.55,1.49,6.62,14.14,5.47,17.84-1.58,5.08-11.55,7.34-14.36,2.29Z"/>
            <path class="cls-13" d="M113.3,451.97c1.48-2.89,6.3-3.38,8.1-5.44,2.21-2.52,2.9-10.4.41-12.74-1.39-1.31-7.9-1.17-6.95-3.09,2.67-2.63,7.72-.73,9.64,1.96,5.46,7.65-1.28,20.43-11.19,19.31Z"/>
            <path class="cls-13" d="M80.85,462.74l-.06-2.24c4.36,1.73,10.01-.32,9.27-5.75-.11-.83-2.89-5.35-.39-4.31,7.73,3.21-.46,17.34-8.82,12.3Z"/>
            <path class="cls-13" d="M110.2,431.08c-.37,2.25-2.37,3.36-3.26,5.63-.8,2.06-.76,4.38-1.35,6.39-.33,1.13.43,1.34-1.57,1.13-1.06-4.75.17-12.74,6.18-13.16Z"/>
            <path class="cls-13" d="M113.3,447.33c2.77-3.04,6-3.09,6.18-8.1l1.57-.04c3.02,5.44-2.73,8.99-7.75,8.13Z"/>
            <path class="cls-13" d="M83.88,448.11l-6.18,6.18c-.17-3.52,2.7-6.36,6.18-6.18Z"/>
          </g>
          <g>
            <path class="cls-13" d="M665.2,440.36c0-4.86,4.5-9.3,4.5-14.32,0-14.24-22.45-17.58-32.36-21.69-13.36-5.54-12.29-16.34-20.52-25.93-6.1-7.11-22.39-13.43-23.56-22.9-.77-6.23,3.38-7.97-2.79-13.45-.74-.66-9.47-5.81-8.11-6.98,5.66-.54,14.66,5.34,15.92,10.78.76,3.3-.09,6.55.38,9.68,1.13,7.43,16.44,13.84,22.02,20.55,6.61,7.95,7.51,19.02,17.42,23.61,12.18,5.63,36.41,7.68,37.16,25.6.21,4.93-4.26,15.14-10.08,15.05Z"/>
            <path class="cls-13" d="M559.15,339.74c-5.56-.72-10.99-2.7-12.63-8.65-1.23-4.46-.1-11.07-6.53-12.12-4.34-.71-6.4,5.95-9.05,8.42-8.94,8.36-17.26-3.25-26.36,2.27-2.17-1.25-.35-3.89,1.18-5,6.05-4.38,13.54,3.4,19.15,2.19,7.13-1.54,7.73-16.89,19.31-9.72,6.48,4.02,4.05,9.81,6.87,14.81,1.93,3.42,7.26,3.96,8.06,7.8Z"/>
            <path class="cls-13" d="M629.59,405.53c-13.58-3.38-13.42-18.47-22.85-26.3-6.16-5.12-17.06-8.26-17.39-17.82,2.95,2.13,4.53,5.39,7.36,7.72,4.95,4.07,11.01,5.62,15.47,10.85,3.78,4.43,5.5,10.12,8.56,14.66,1.99,2.95,5.1,5.52,7.3,8.18.72.87,1.88,1.25,1.54,2.71Z"/>
            <path class="cls-13" d="M650.49,413.28c5.96-.13,16.08,7.6,11.99,13.92-2.86-.43-1.38-3.59-2.65-5.85-1.76-3.13-7.37-4.98-9.34-8.07Z"/>
            <path class="cls-13" d="M554.28,304.75c-3.51-1.9-16.3-4.51-19.94-3.36-6.83,2.15-7.6,15.1-11.98,15.91-3.57.66-7.34-1.12-10.63-2.26-1.77-.61-3.57-1.2-5.43-1.48-2.21-.33-4.75.28-6.94.71-.49.1-.98.2-1.42.42-.36.18-.68.44-.99.69-.64.52-1.28,1.04-1.91,1.56-1.59,1.29-2.24,2.82-2.99,4.69-1.25,3.13-2.31,6.3-3.69,9.38-1.28,2.86-2.36,5.81-3.35,8.78.72.27,1.44.55,2.16.82,2.49-8.74,5.53-17.72,10.04-21.4,9.75-7.96,22.35,6.87,29.43-.76,3.33-3.59,4.74-13.93,10.49-14.29,4.03-.25,16.18,2.53,18.82,5.89,4.84,6.17-.26,13.17,4.75,18.08.52-8.48,2.67-18.45-6.41-23.38Z"/>
          </g>
          <g>
            <path class="cls-13" d="M714.74,434.94c-.02-3.47,4.12-1.99,6.49-2.4,19.79-3.43,9.07-11.42-.29-19.66-.39-1.83,1.56-1.29,2.51-.96,2.14.73,7.98,5.69,9.41,7.62,9.35,12.6-8.23,18.2-18.12,15.41Z"/>
            <path class="cls-13" d="M659,491.45c5.19-3.87,7.15-4.24,4.63-11.21,2.24-1.52,3.53,1.19,3.83,3.14.97,6.14-2.71,8.59-8.46,8.07Z"/>
            <path class="cls-13" d="M716.28,412.51c-2.15,4.58-2.39,10.95-5.41,14.7-1.47-3.61-.52-6.83.95-10.26.86-2.01,1.48-5.05,4.45-4.44Z"/>
            <path class="cls-13" d="M658.23,474.43c-.79,2.3-3.61,2.4-5,3.9-2.11,2.28-2.51,7.7-5.83,9.25.76-5.87,3.78-13.49,10.83-13.15Z"/>
            <path class="cls-13" d="M723.25,427.22l3.06-1.26-.73-4.17c3.94-.83,5.25,5.07,2.78,7.03-1.74,1.38-5.34,1.14-5.11-1.61Z"/>
            <path class="cls-13" d="M631.91,507.71c.8-.44,2.32.08,2.34-1.9l-3.11-6.61c1.38-1.42,4.49,4.42,4.62,5.86.35,4.13-4.39,5.5-7.72,4.97.61-1.44,2.37-1.5,3.87-2.31-1.42.17-2.26.05-3.08-1.16l2.71-1.92h1.14s-.77,3.08-.77,3.08Z"/>
            <polygon class="cls-13" points="627.27 499.21 623.41 503.07 623.52 500.09 627.27 499.21"/>
          </g>
        </g>
      </g>
      <g>
        <g>
          <g>
            <path class="cls-1" d="M239.93,266.42c-.48-8.16-10.31-48.7-14.4-54.49-.83-1.18-1.91-2.24-2.94-3.26-1.43-1.42-3.1-2.52-4.79-3.59s-3.47-2-5.47-2.15c-1.53-.11-2.7.49-4.07,1.04-1.3.53-2.5,1.3-3.6,2.17-2.33,1.83-4.29,4.07-6.4,6.14-1.59,1.55-3.37,3.24-5.55,3.89-3.31.99-6.96-.16-10.31.53-13.09,2.69-15.86,28.52-22.36,38.01-6.57,9.6-24.79,10.8-22.32,26.83,1.97.44,1.35-.53,2-1.45,1.91-2.71,3.51-6.6,5.82-8.91,3.67-3.69,9.86-5.19,14.11-8.34,11.7-8.69,11.72-25.61,19.23-36.51,5.55-8.06,9.53-2.93,16.68-5.76,7.83-3.1,12.74-16.39,22.16-8.57,5.58,4.64,8.49,21.1,10.19,28.51,2.76,12.04,2.84,27.07,11.21,36.39.97-3.34,1.02-6.99.81-10.48Z"/>
            <path class="cls-1" d="M188.81,397.66c-1.14,4.96-8.68,4.94-12.76,4.63-3.39-.26-6.99-1.91-10.15-2.23-11.66-1.14-32.63,13.08-42.14,4.21-10.76-10.03,10.04-19.38,13.34-26.99,4.19-9.65-1.73-19.35-.91-29.17,2.71-3.05,7.13,12.69,7.38,13.9,1.78,8.8,1.05,15.34-4.66,22.48-2.3,2.87-10.99,9.77-11.71,12.36-.29,1.04-.23,1.14.41,1.99,4.08,5.38,21.28-2.77,27.12-3.94,10.24-2.05,13.58.45,22.97,1.88,1.71.26,10.48.32,11.13.87Z"/>
            <path class="cls-1" d="M142.44,409.96c.28,1.45-.58,2.17-1.77,2.48-15.63,4.14-20.68,3.39-25.3-1.12-5.69-5.57-5.41-23.82.78-28.81,7.85-6.32,13.33-1.95,12.1-16.82-1.29-15.69-10.64-43.24-8.09-57.34,1.45-7.99,11.48-8.44,15.69-14.5,2.49,6.92-6.88,8.85-9.7,12.75-1.91,2.64-1.65,6.17-1.43,9.21,1.06,14.49,11.52,44.75,8.2,57.17-3.05,11.43-16.03,6.73-17.49,21.2-1.94,19.15,12.78,17.96,26.99,15.78Z"/>
            <path class="cls-1" d="M167.91,266.06c1.8-3.88,4.52-7.34,6.02-11.39,1.9-5.15,1.96-11.03,5.26-15.64s9.05-5.8,13.73-8.72c7.65-4.78,15.14-14.96,24.53-4.87,4.91,5.27,9.76,22.81,5.03,29.02-1.49.35-2.69-2.86-3.06-3.89-2.38-6.5-1.92-25.62-13.02-23.03-2.42.56-6.42,5.1-8.81,6.67-3.98,2.62-9.91,4.07-13.06,7.07-6.22,5.93-5.09,22.78-16.61,24.8Z"/>
          </g>
          <g>
            <path class="cls-1" d="M558.8,338.82c-5.56-.72-10.99-2.7-12.63-8.65-1.23-4.46-.1-11.07-6.53-12.12-4.34-.71-6.4,5.95-9.05,8.42-8.94,8.36-17.26-3.25-26.36,2.27-2.17-1.25-.35-3.89,1.18-5,6.05-4.38,13.54,3.4,19.15,2.19,7.13-1.54,7.73-16.89,19.31-9.72,6.48,4.02,4.05,9.81,6.87,14.81,1.93,3.42,7.26,3.96,8.06,7.8Z"/>
            <path class="cls-1" d="M553.94,303.83c-3.51-1.9-16.3-4.51-19.94-3.36-6.83,2.15-7.6,15.1-11.98,15.91-3.57.66-7.34-1.12-10.63-2.26-1.77-.61-3.57-1.2-5.43-1.48-2.21-.33-4.75.28-6.94.71-.49.1-.98.2-1.42.42-.36.18-.68.44-.99.69-.64.52-1.28,1.04-1.91,1.56-1.59,1.29-2.24,2.82-2.99,4.69-1.25,3.13-2.31,6.3-3.69,9.38-1.28,2.86-2.62,6.53-3.62,9.5.72.27,1.46.55,2.18.82,2.49-8.74,5.77-18.43,10.29-22.12,9.75-7.96,22.35,6.87,29.43-.76,3.33-3.59,4.74-13.93,10.49-14.29,4.03-.25,16.18,2.53,18.82,5.89,4.84,6.17-.26,13.17,4.75,18.08.52-8.48,2.67-18.45-6.41-23.38Z"/>
          </g>
        </g>
        <path class="cls-1" d="M90.5,397.28c-9.01-2.02-19.36-.68-23.25,8.88-1.75,4.3-.85,8.86-2.21,12.5-.4,1.07.25,1.33-1.63,1.08-2.42-12.76,4.05-25.75,18.22-26.34,2.41-.1,8.75.68,8.86,3.89Z"/>
        <path class="cls-1" d="M109.85,430.57c-.37,2.25-2.37,3.36-3.26,5.63-.8,2.06-.76,4.38-1.35,6.39-.33,1.13.43,1.34-1.57,1.13-1.06-4.75.17-12.74,6.18-13.16Z"/>
        <path class="cls-1" d="M83.53,447.6l-6.18,6.18c-.17-3.52,2.7-6.36,6.18-6.18Z"/>
        <path class="cls-1" d="M715.94,411.99c-2.15,4.58-2.39,10.95-5.41,14.7-1.47-3.61-.52-6.83.95-10.26.86-2.01,1.48-5.05,4.45-4.44Z"/>
        <path class="cls-1" d="M657.89,473.92c-.79,2.3-3.61,2.4-5,3.9-2.11,2.28-2.51,7.7-5.83,9.25.76-5.87,3.78-13.49,10.83-13.15Z"/>
        <polygon class="cls-1" points="626.93 498.69 623.06 502.55 623.17 499.57 626.93 498.69"/>
      </g>
    </g>
  </g>
  <g id="Seal">
    <g>
      <g>
        <path class="cls-6" d="M393.97,495.18c-1.37,0-2.68-.04-3.9-.12-9.75-.65-17.8-3.57-25.59-6.39-3.49-1.27-6.79-2.46-10.18-3.43-3.81-1.09-8.29-1.6-14.09-1.6-4.45,0-9.02.29-13.86.6-4.9.31-9.97.64-14.97.64-2.92,0-5.56-.11-8.06-.33-1.38-.04-2.5-.29-3.23-.48-11.8-.68-26.96-2.14-41.05-7.14-1.48-.53-3.2-1.31-5.18-2.21-1.24-.57-3.39-1.54-4.56-1.99-2.1.25-6.86,1.84-9.52,2.72-3.14,1.04-6.11,2.03-8.73,2.58-4.05.85-8.32,1.25-13.43,1.25-2.97,0-5.87-.13-8.68-.26-1.51-.07-3.01-.14-4.53-.18-1.33-.04-2.85-.05-4.48-.06-8.61-.07-19.32-.15-26.66-3.76-5.93-2.91-9.41-8.25-9.31-14.28.1-6.33,4.16-12.08,10.6-15,7.27-3.29,14.99-5.45,22.33-6.25,2.86-.31,10.52-2.56,19.15-5.62-11.07-24.57-12.76-43.33-11.3-67.76.52-8.7-.56-14.96-1.92-22.89-.54-3.15-1.1-6.4-1.6-10.07-1.51-10.96-1.08-21.03,1.41-32.66,5.99-28.06,35.51-53.31,65.79-56.29,2.86-.28,5.96-.42,9.22-.42,7.16,0,14.16.68,19.73,1.92,29.35,6.53,48.72,29.98,53.86,57.29,2.56,1.38,11.68,3.74,15.02,4.74,7.51,2.26,15.42,3.97,23.8,5.77,6.42,1.38,13.06,2.81,19.5,4.52,45.88,12.16,91.73,28.55,136.26,48.73,14.24,6.45,25.36,13.34,37.16,23.04,2.4,1.97,4.52,3.98,6.57,5.93,4.6,4.37,8.24,7.82,13.05,9.07,2.12.55,4.49.9,7.01,1.28,2.91.44,5.93.89,9.08,1.7,7.4,1.91,13.76,5.14,19.92,8.27,2.31,1.17,4.48,2.28,6.68,3.3,1.43.66,3.21,1.39,5.1,2.16,9.27,3.78,20.81,8.49,25.92,18.81,2.53,5.12,2.51,10.62-.06,15.08-2.57,4.46-7.31,7.23-13.02,7.61-.51.03-1.02.05-1.55.05-3.64,0-7.3-.81-10.52-1.52-2.03-.45-4.13-.91-5.53-1-1.47-.09-3-.14-4.67-.14-4.71,0-9.53.37-14.63.76-3,.23-6.11.47-9.19.63-2.43.12-4.98.18-7.78.18-4.25,0-8.47-.14-12.55-.27-4.08-.13-7.92-.26-11.79-.26-6.37,0-11.48.37-16.09,1.15-6.47,1.1-12.73,2.49-18.78,3.84-11.04,2.46-22.47,5-35.58,5.91-4.32.3-8.75.84-13.43,1.42-7.38.9-15.02,1.84-22.71,1.84-5.23,0-9.91-.43-14.33-1.31-3.28-.66-6.1-1.76-8.56-3.15-1.18,4.03-3.97,7.56-8.37,10.56-12.91,8.82-39.18,13.52-53.18,13.52Z"/>
        <path class="cls-9" d="M392.31,492.06c-1.37,0-2.68-.04-3.9-.12-9.75-.65-17.8-3.57-25.59-6.39-3.49-1.27-6.79-2.46-10.18-3.43-3.81-1.09-8.29-1.6-14.09-1.6-4.45,0-9.02.29-13.86.6-4.9.31-9.97.64-14.97.64-2.92,0-5.56-.11-8.06-.33-1.38-.04-2.5-.29-3.23-.48-11.8-.68-26.96-2.14-41.05-7.14-1.48-.53-3.2-1.31-5.18-2.21-1.24-.57-3.39-1.54-4.56-1.99-2.1.25-6.86,1.84-9.52,2.72-3.14,1.04-6.11,2.03-8.73,2.58-4.05.85-8.32,1.25-13.43,1.25-2.97,0-5.87-.13-8.68-.26-1.51-.07-3.01-.14-4.53-.18-1.33-.04-2.85-.05-4.48-.06-8.61-.07-19.32-.15-26.66-3.76-5.93-2.91-9.41-8.25-9.31-14.28.1-6.33,4.16-12.08,10.6-15,7.27-3.29,14.99-5.45,22.33-6.25,2.86-.31,8.67-2.01,17.3-5.07-11.07-24.57-10.9-43.88-9.45-68.31.52-8.7-.56-14.96-1.92-22.89-.54-3.15-1.1-6.4-1.6-10.07-1.51-10.96-1.08-21.03,1.41-32.66,5.99-28.06,35.51-53.31,65.79-56.29,2.86-.28,5.96-.42,9.22-.42,7.16,0,14.16.68,19.73,1.92,29.35,6.53,53.26,30.43,58.41,57.73,2.56,1.38,7.13,3.29,10.48,4.3,7.51,2.26,15.42,3.97,23.8,5.77,6.42,1.38,13.06,2.81,19.5,4.52,45.88,12.16,91.73,28.55,136.26,48.73,14.24,6.45,25.36,13.34,37.16,23.04,2.4,1.97,4.52,3.98,6.57,5.93,4.6,4.37,8.24,7.82,13.05,9.07,2.12.55,4.49.9,7.01,1.28,2.91.44,5.93.89,9.08,1.7,7.4,1.91,13.76,5.14,19.92,8.27,2.31,1.17,4.48,2.28,6.68,3.3,1.43.66,3.21,1.39,5.1,2.16,9.27,3.78,20.81,8.49,25.92,18.81,2.53,5.12,2.51,10.62-.06,15.08-2.57,4.46-7.31,7.23-13.02,7.61-.51.03-1.02.05-1.55.05-3.64,0-7.3-.81-10.52-1.52-2.03-.45-4.13-.91-5.53-1-1.47-.09-3-.14-4.67-.14-4.71,0-9.53.37-14.63.76-3,.23-6.11.47-9.19.63-2.43.12-4.98.18-7.78.18-4.25,0-8.47-.14-12.55-.27-4.08-.13-7.92-.26-11.79-.26-6.37,0-11.48.37-16.09,1.15-6.47,1.1-12.73,2.49-18.78,3.84-11.04,2.46-22.47,5-35.58,5.91-4.32.3-8.75.84-13.43,1.42-7.38.9-15.02,1.84-22.71,1.84-5.23,0-9.91-.43-14.33-1.31-3.28-.66-6.1-1.76-8.56-3.15-1.18,4.03-3.97,7.56-8.37,10.56-12.91,8.82-39.18,13.52-53.18,13.52Z"/>
        <path class="cls-5" d="M230.17,340.11c.96,3.6,1.77,7.24,2.52,10.88,3.66-.34,7.31.03,11.02.18,12.6.52,25.2.26,37.8-.1,12.63-.36,25.68.29,38.23-1.25,4.16-.51,7.84-1.37,11.31-2.55-.43-1.28-.78-2.6-1.06-3.96-2.35-11.66-2.61-24.42-3.08-36.31-.27-6.72.22-13.52,1.88-19.99-2.28-2.36-4.64-4.64-7.11-6.8-4.03-2.72-8.22-5.13-12.59-7.26-8.95-3.25-18.2-5.54-27.58-7.13-7.86-.77-15.75-.98-23.62-.38-3.67.73-7.28,1.67-10.83,2.86-2.19,1.13-4.32,2.36-6.4,3.7-1.9,1.73-3.72,3.55-5.44,5.47-2.29,3.46-4.32,7.07-6.15,10.81-.4,1.08-.8,2.16-1.17,3.25-1.96,5.72-4.79,10.77-8.31,15.04.02.06.03.13.05.19,2.98,11.28,7.56,22.11,10.54,33.33Z"/>
        <path class="cls-20" d="M665.34,441.77c-4.23-8.55-18.01-12.41-26.09-16.16-8.2-3.8-15.96-8.64-24.82-10.93-5.28-1.36-10.83-1.62-16.1-2.99-10.18-2.64-15.84-10.65-23.6-17.02-11.2-9.21-21.64-15.63-34.85-21.61-43.26-19.59-88.7-35.97-134.64-48.15-14.27-3.78-29.65-6.17-43.64-10.38-3.85-1.16-15.34-5.44-17.15-8.85-3.01-25.91-26.22-47.48-51-52.99-7.54-1.68-17.97-2.06-25.68-1.3-24.68,2.43-51.41,23.53-56.67,48.13-2.13,9.99-2.67,18.93-1.28,29.08,1.77,12.88,4.41,21.4,3.6,34.99-1.54,25.79-1.14,42.61,9.17,64.8.9,1.94.37.95,1.43,2.98,1.4,2.68,4.65,5,.77,6.46-8.64,3.24-22.07,8.13-28.45,8.82-6.53.71-13.12,2.65-19.17,5.39-5.09,2.31-6.48,7.83-.99,10.53,6.44,3.16,19.51,2.54,26.89,2.77,8.09.25,16.13,1.1,24.18-.59,5.73-1.2,16.58-6.06,21.73-5.51,2.36.25,9.03,3.78,11.87,4.79,12.36,4.38,25.86,5.87,38.9,6.6.81.05,1.58.47,2.42.43,17.04,1.63,37-3.59,53.34,1.09,11.39,3.26,21.28,8.63,33.6,9.45,13.13.87,39.59-4.12,50.54-11.61,3.11-2.13,5.09-4.28,4.31-8.32-1.29-6.74-13.84-16.68-19.35-20.87-19.14-14.56-46.61-27.75-70.52-16.96-2.35,1.06-5.24,3.86-6.92,4.19-3.11.62-6.59-4.24-3.42-8.09,3.96-4.81,16.15-8.89,22.25-9.84,18.8-2.93,40.35,5.54,55.63,16.05,7.32,5.04,16.66,11.91,22.86,18.16,6.24,6.29,10.17,14.69,19.96,16.65,15.24,3.05,31.97-1.02,47.72-2.12,19.37-1.35,34.81-6.46,53.34-9.62,16.32-2.78,32.84-.1,49.43-.94,9.76-.49,19.9-1.87,29.67-1.24,5.07.33,11.49,2.78,16.25,2.47,4.63-.3,6.49-3.66,4.47-7.75ZM291.81,277.47c.65-1.98,2.99-4.52,5.32-5,.6-.12,1.21-.19,1.82-.19,3.61,0,7.3,2.21,9.4,5.63,1.88,3.06,2.12,6.45.66,9.3-1.18,2.32-3.35,3.59-6.1,3.59h0c-3.51,0-7.39-2.09-9.64-5.2-1.83-2.53-2.35-5.42-1.46-8.14ZM245.8,278.34c2.09-3.65,5.88-6.1,9.44-6.1,1.59,0,3.06.46,4.37,1.37,1.97,1.36,3.12,3.3,3.33,5.6.25,2.79-1,5.92-3.27,8.17-2.03,2.02-5.36,3.37-8.29,3.37h0c-2.64,0-4.75-1.11-5.93-3.11-1.6-2.72-1.48-6.11.34-9.3ZM312.12,329.66c-2.91,3.67-7.07,5.61-12.03,5.61-3.05,0-6.25-.76-9.24-2.19-1.78-.85-3.56-2.23-5.28-3.57-2.1-1.63-4.27-3.31-6.14-3.77-.77-.19-1.49-.28-2.21-.28-3.14,0-5.45,1.81-8.13,3.91-1.62,1.27-3.3,2.59-5.28,3.56-3.1,1.52-6.42,2.32-9.61,2.32-5.05,0-9.36-2.07-12.15-5.82-1.04-1.4-1.29-3.22-.64-4.53.53-1.06,1.58-1.67,2.87-1.67.06,0,.13,0,.19,0,1.29.06,2.54,1.01,3.99,2.12,1.56,1.19,3.33,2.54,5.06,2.67.16.01.32.02.48.02h0c3.37,0,6.31-2.74,9.15-5.4,1.31-1.22,2.54-2.38,3.83-3.28.7-.49,1.5-.94,2.27-1.38,2.82-1.6,4.67-2.83,4.67-5.16,0-2.8-1.96-5.85-3.85-8.8-2.01-3.13-3.9-6.09-3.4-8.8.42-2.29,2.53-4.05,5.36-4.47,1.14-.17,3.21-.28,5.41-.28,1,0,3.5.03,4.95.27,2.77.46,5.6,2.93,5.4,5.86-.18,2.51-1.85,5-3.61,7.64-2.29,3.42-4.66,6.95-3.39,10.16.53,1.34,3.53,3.23,5.71,4.61,1.34.85,2.61,1.65,3.49,2.38.73.61,1.46,1.31,2.17,1.98,2.37,2.25,4.83,4.58,8.02,4.66h.12c2.2,0,4.12-1.52,5.81-2.87,1.36-1.08,2.53-2.01,3.78-2.01,1.39,0,2.49.64,3.03,1.76.67,1.39.35,3.3-.8,4.75Z"/>
        <g>
          <path class="cls-10" d="M351.99,357.29c.52-.43,11.39-4.93,12.41-5.14,3.95-.8,8.63.67,10.82,4.19,6.4,10.27-12.79,17.82-20.69,16.21-6.96-1.42-7.51-11.14-2.55-15.26Z"/>
          <path class="cls-10" d="M356.97,325.84c10.35,10.03-6.76,26.85-15.83,20.67-6.63-4.51,4.04-14.94,4.87-20.57,2.66-3.52,8.02-2.95,10.96-.1Z"/>
          <path class="cls-10" d="M399.32,349.77c13.81-2.15,16.96,16.69,2.74,18.42s-19.88-15.75-2.74-18.42Z"/>
          <path class="cls-10" d="M225.86,413.98c.16-.2,3.68-2.95,3.98-3.1,11.66-6.07,20.28,9.02,11.88,17.85-6.11,6.41-12.31-4.11-16.49-8.2-.6-1.9-.66-4.93.63-6.54Z"/>
          <path class="cls-10" d="M231.44,370.64c4.04-.4,8.05,2.49,7.49,6.73-1.31,9.89-19.84,19.11-21.48,7.61-1.23-8.56,6.39-13.58,13.99-14.33Z"/>
          <path class="cls-10" d="M320.95,352c6.8-1.39,10.3,2.55,9.96,9.17-.61,11.91-23.88,7.43-23.88-.02,0-4.75,5.58-4.89,8.1-6.03,1.8-.81,3.79-2.71,5.82-3.13Z"/>
          <path class="cls-10" d="M241.83,387.06c7.76-1.79,19.21,7.8,9.58,12.56-3.17,1.57-15.36,5.51-18.32,4.07-4.9-2.39,4.91-15.75,8.74-16.63Z"/>
          <path class="cls-10" d="M444.1,347.5c8.3-1.57,18.53,7.7,8.65,13.9-12.05,7.56-25.5-4.76-11.68-12.43.92-.51,2.02-1.28,3.03-1.48Z"/>
          <path class="cls-10" d="M500.06,378.87c5.19-.86,14.34.7,14.97,7.08,1.13,11.55-25.28,10.28-21.33-3.01.61-2.05,4.39-3.75,6.36-4.07Z"/>
          <path class="cls-10" d="M534.37,396.01c6.84-1.52,19.49,5.17,14.27,13.54-5.4,8.66-19.63-1.82-19.09-7.99.18-2.06,2.69-5.08,4.82-5.55Z"/>
          <path class="cls-10" d="M475.08,365.82c-3.62-3.68,1.66-8.09,6.15-8.08,9.06.02,19.51,15.67,10.85,18.38-6.8,2.13-9.86-4.93-13.84-8.63-.97-.9-2.59-1.07-3.17-1.67Z"/>
          <path class="cls-10" d="M523.39,374.46c9.04-1.82,18.45,13.47,9.7,17.21-9.41,4.02-18.7-15.4-9.7-17.21Z"/>
          <path class="cls-10" d="M451.93,370.66c3.21-3.2,7.83.94,10.5,2.21,2.65,1.26,5.96.92,7.44,4.56,2.89,7.07-16.71,11.04-18.7,2.23-.41-1.82-.5-7.74.76-8.99Z"/>
          <path class="cls-10" d="M572.1,410.05c-1.64,1.79-4.97,2.29-7.21,1.33-1.69-.72-3.02-3.91-3.97-4.6-1.05-.76-3.23-.54-4.31-2.04-4.74-6.54,9.55-12.18,15.32-4.88,2.25,2.85,2.72,7.38.17,10.18Z"/>
          <path class="cls-10" d="M423.93,365.43c10.03-2.09,13.35,7.34,6.14,12.1-14.45,9.52-18.78-9.47-6.14-12.1Z"/>
          <path class="cls-10" d="M571.32,420.65c.33-.32,7.66-2.81,8.58-2.98,12.93-2.27,12.15,13.21-.05,12.97-4.66-.09-12.95-5.72-8.53-10Z"/>
          <path class="cls-10" d="M374.91,330.44c8.47-1.77,12.07,13.79,1.27,15.49-13.15,2.07-8.72-13.94-1.27-15.49Z"/>
          <path class="cls-10" d="M405.26,336.3c4.27-1.26,20.42.56,18.58,7.33-2.07,7.58-18.7.84-20.23-2.25-.89-1.8-.46-4.46,1.65-5.08Z"/>
          <path class="cls-10" d="M226.22,350.55c15.1-1.72,8.14,15.62-3.04,13.05-5.75-1.32-6.46-11.97,3.04-13.05Z"/>
          <path class="cls-10" d="M257.52,375.88c3.78-.77,7.77.03,9.18,3.96.66,6.51-14.04,7.72-15.41,2.6-.13-2.89,3.49-6,6.23-6.56Z"/>
          <path class="cls-10" d="M256.8,368.81c-3.99,3.96-14.4-.72-11.39-7.27,3.53-7.7,16.12,2.58,11.39,7.27Z"/>
          <path class="cls-10" d="M385.9,372.1c8.16-1.33,9.47,9.84-.22,10.34-8.57.45-6.08-9.32.22-10.34Z"/>
          <path class="cls-10" d="M482.13,394.9c-4.44,4.45-12.35-.92-8.79-6.93,4.01-6.76,14.07,1.65,8.79,6.93Z"/>
          <path class="cls-10" d="M414.24,454.92c6.64-1.27,6.28,11.91-.18,11.91-6.21,0-4.83-10.95.18-11.91Z"/>
          <path class="cls-10" d="M313.49,371.36c7.71-1.57,10.32,10.6,1.81,9.83-6.54-.59-7.23-8.73-1.81-9.83Z"/>
          <path class="cls-10" d="M427.6,453.38c8.73-.85,9.41,14.32.8,11.74-3.15-.95-2.6-11.16-.8-11.74Z"/>
          <path class="cls-10" d="M358.69,431.18c3.97,3.96-3.28,12.05-8.1,7.73-3.13-3.9,4.2-11.62,8.1-7.73Z"/>
          <path class="cls-10" d="M331.41,307.91c.65-.13,1.26-.23,1.9-.01,5.34,3.15.59,11.83-4.91,10.22-4.33-1.27-.95-9.44,3-10.21Z"/>
          <path class="cls-10" d="M285.15,369.88c7.04-.6,6.26,9.71-.82,9.34-6.7-.36-4.56-8.88.82-9.34Z"/>
          <path class="cls-10" d="M392.87,431.01c7.9-2.52,7.85,13.3.31,11.87-4.65-.88.5-8.95-.31-11.87Z"/>
          <path class="cls-10" d="M413.5,447.9c-3.52,3.45-12.32-3.96-7.25-8.36,5.34-4.65,9.08,6.57,7.25,8.36Z"/>
          <path class="cls-10" d="M241.84,343.72c3.38-.91,9.87,3.12,6.99,7.03-4.24,5.75-13.35-5.31-6.99-7.03Z"/>
          <path class="cls-10" d="M248.55,425.08c7.3-2.17,8.53,8.73.59,8.77-5.12.03-3.83-7.81-.59-8.77Z"/>
          <path class="cls-10" d="M382.59,432.19c.19.33,1.14.4,1.49,1.15,1.72,3.75-2.69,6-6.14,3.86-5.92-3.67.66-10.6,3.72-8.21.84.66.42,2.32.93,3.19Z"/>
          <path class="cls-10" d="M407.9,379.62c3.97-4.04,9.62,5.34,5.8,7.66s-9.08-4.33-5.8-7.66Z"/>
          <path class="cls-10" d="M603.02,422.1c6.09-1.8,9.43,9.59,1.51,7.95-4-.83-5.16-5.97-1.51-7.95Z"/>
          <path class="cls-10" d="M438.89,381.81c8.57-2.13,3.21,15.67-4.14,4.6-.17-1.79,2.6-4.22,4.14-4.6Z"/>
          <path class="cls-10" d="M236.65,440.01c2.84-.47,4.63,1.75,4.36,4.38-1.12,4.01-10.03,4.6-9.11-.79.44-1.58,3.2-3.33,4.75-3.58Z"/>
          <path class="cls-10" d="M221.68,399.71c6.17-1.85,6.34,8.2,1.23,8.67-4.41.41-5.31-7.44-1.23-8.67Z"/>
          <path class="cls-10" d="M326.86,337.06c5.43-.52,5.11,10.11-2.2,7.91-4.1-1.24-1.47-7.55,2.2-7.91Z"/>
          <path class="cls-10" d="M288.82,357.22c4.98-.42,5.53,7.99-.13,7.99-5.09,0-5.87-7.48.13-7.99Z"/>
          <path class="cls-10" d="M627.68,426.62c2.56-.23,5.34,1.34,5.9,3.93.02,3.72-6.97,3.28-9.07,1.14l-.02-3.78c.38-.56,2.44-1.23,3.2-1.3Z"/>
          <path class="cls-10" d="M368.85,382.49c1.17,4.47-5.43,9.72-7.79,4.38-1.8-4.09,4.42-6.77,7.79-4.38Z"/>
          <path class="cls-10" d="M636.61,438.5c2.77-.75,8.73,2.6,6.25,5.55-4.78,4.74-11.97-3.99-6.25-5.55Z"/>
          <path class="cls-10" d="M612.74,434.01c2.56-.38,5.07,3.08,3.24,5.55-4.18,5.63-10.85-4.44-3.24-5.55Z"/>
          <path class="cls-10" d="M495.03,401.08c4.8-.92,8.5,2.44,6.01,7.15-4.16.79-6.89-3.2-6.01-7.15Z"/>
          <path class="cls-10" d="M225.53,336.25c1.93,3.04-4.43,9.24-7.04,5.11-1.02-3.21,5.13-8.12,7.04-5.11Z"/>
          <path class="cls-10" d="M463.47,360.14c4.39-1.22,5.41,5.54,1.92,6.51-4.39,1.22-5.41-5.54-1.92-6.51Z"/>
          <path class="cls-10" d="M379.85,446.02c3.47-.32,4.3,3.71,1.29,5.72-5.07,3.39-6.76-5.22-1.29-5.72Z"/>
          <path class="cls-10" d="M333.94,374.11c-2.7-4.31,5.51-9.23,5.82-4.04.21,3.6-4.45,6.22-5.82,4.04Z"/>
          <path class="cls-10" d="M551.49,393.12c-2.67,2.49-8.25-.15-5.86-3.77,2.26-3.42,8.64,1.18,5.86,3.77Z"/>
          <path class="cls-10" d="M459.59,395.11c2.72-.65,4.18,8.26-.02,8.25-3.99-.02-1.99-7.77.02-8.25Z"/>
          <path class="cls-10" d="M520.98,405.38l-3.04.25c-2.04-1.91-1.58-6.4,1.5-6.66,3.85-.42,2.3,4.16,1.53,6.42Z"/>
          <path class="cls-10" d="M366.45,440.76c7.22-2.25,2.72,8.89-1.66,5.1-1.67-1.44-.24-4.51,1.66-5.1Z"/>
          <path class="cls-10" d="M185.27,457.73c-.23.33-6.82,3.33-7.39,1.17-.68-2.52,3.75-4.33,5.64-4.84,1.72-.22,2.4,2.75,1.76,3.67Z"/>
          <path class="cls-10" d="M391.59,337.59c4.09-1.15,5.46,4.75,1.93,5.75-3.83,1.09-5.39-4.78-1.93-5.75Z"/>
          <path class="cls-10" d="M220.91,447.54c.96-.03,1.73.39,2.48.92l.7,2.17c-5.79,5.95-10.9-2.81-3.18-3.09Z"/>
          <path class="cls-10" d="M582.13,407.93c4.9-1.47,6.41,5.15,1.33,5.17-3.27,0-4.49-4.21-1.33-5.17Z"/>
          <path class="cls-10" d="M215.93,454.07c.86,3.59-3.93,7.1-6.37,3.73-1.76-3.37,3.93-4.14,6.37-3.73Z"/>
          <path class="cls-10" d="M561.26,421.03l-2.33.85c-3.62-1.92-1.19-8.72,2.21-5.95l.95,1.35-.83,3.74Z"/>
          <path class="cls-10" d="M423.28,357.68c-.97,1.53-6.01,1.02-4.81-2.88,1.59-5.19,7.12-.76,4.81,2.88Z"/>
          <path class="cls-10" d="M250.07,438.58c1.69,1.7.43,5.18-2.3,4.84-5.93-.73-1.08-8.25,2.3-4.84Z"/>
          <path class="cls-10" d="M396.63,450.44c.82-1.29,5.98-1.2,5.74,1.63-.42,5.04-8.43,2.63-5.74-1.63Z"/>
          <path class="cls-10" d="M656.04,440.82c2.08,2.15.92,6.53-2.8,4.67-3.62-1.81-.1-7.67,2.8-4.67Z"/>
          <path class="cls-10" d="M192.56,456.42c1.37-.12,2.8,1.73,2.4,3.1-.87,1.91-2.72,2.39-4.67,1.92-2.71-.84.19-4.85,2.27-5.02Z"/>
          <path class="cls-10" d="M437,468.8l-.64-1.67c4.61-9.57,8.22,4.76.64,1.67Z"/>
          <path class="cls-10" d="M365.34,427.12c3.72-1.2,5.59,4.19,2,5.08-2.91.73-4.58-4.25-2-5.08Z"/>
          <path class="cls-10" d="M230.86,450.33c.84,3.11-1.18,5.55-4.48,4.87-1.49-.98-.36-3.07.37-4.14l4.12-.73Z"/>
          <path class="cls-10" d="M512.77,369.83c1.33-.17,2.05.29,2.82,1.38l-.37,2.64c-1.11.75-4.8.65-5.24-.77-.42-1.72,1.36-3.06,2.79-3.24Z"/>
          <path class="cls-10" d="M421.63,469.83c3.71-1.22,5.4,2.58,3.3,4.05-3.56,2.48-6.55-2.98-3.3-4.05Z"/>
          <path class="cls-10" d="M502.88,364.92c1.18,1.19.56,2.89.17,4.27l-3.54-.92-.63-1.67c.25-2.29,2.26-3.43,4-1.68Z"/>
          <path class="cls-10" d="M422.83,446.72c2.03,2.83-3.6,5.42-4.41,2.52-.74-2.68,3.29-4.08,4.41-2.52Z"/>
          <path class="cls-10" d="M592.1,438.34c-.56-1.39-.79-2.58-.08-3.98,1.19-1.62,4.32.96,3.75,2.89l-3.67,1.09Z"/>
          <path class="cls-10" d="M616.74,426.38c-1.73-1.09.11-4.99,2.18-4.07,3.31,1.47.45,5.73-2.18,4.07Z"/>
          <path class="cls-10" d="M203.22,452.6c2.1,3-3.69,5.39-4.44,1.81-.41-1.97,3.74-2.81,4.44-1.81Z"/>
          <polygon class="cls-10" points="626.37 444.36 623.87 444.95 621.95 442.6 624.41 440.68 626.37 444.36"/>
          <path class="cls-10" d="M644.01,431.73c2.31-.4,3.39,3.88.55,4.36-2.31.4-3.39-3.88-.55-4.36Z"/>
        </g>
        <g>
          <path class="cls-8" d="M350.99,356.29c.52-.43,11.39-4.93,12.41-5.14,3.95-.8,8.63.67,10.82,4.19,6.4,10.27-12.79,17.82-20.69,16.21-6.96-1.42-7.51-11.14-2.55-15.26Z"/>
          <path class="cls-8" d="M355.98,324.85c10.35,10.03-6.76,26.85-15.83,20.67-6.63-4.51,4.04-14.94,4.87-20.57,2.66-3.52,8.02-2.95,10.96-.1Z"/>
          <path class="cls-8" d="M398.32,348.77c13.81-2.15,16.96,16.69,2.74,18.42s-19.88-15.75-2.74-18.42Z"/>
          <path class="cls-8" d="M224.86,412.98c.16-.2,3.68-2.95,3.98-3.1,11.66-6.07,20.28,9.02,11.88,17.85-6.11,6.41-12.31-4.11-16.49-8.2-.6-1.9-.66-4.93.63-6.54Z"/>
          <path class="cls-8" d="M230.45,369.65c4.04-.4,8.05,2.49,7.49,6.73-1.31,9.89-19.84,19.11-21.48,7.61-1.23-8.56,6.39-13.58,13.99-14.33Z"/>
          <path class="cls-8" d="M319.96,351c6.8-1.39,10.3,2.55,9.96,9.17-.61,11.91-23.88,7.43-23.88-.02,0-4.75,5.58-4.89,8.1-6.03,1.8-.81,3.79-2.71,5.82-3.13Z"/>
          <path class="cls-8" d="M240.84,386.06c7.76-1.79,19.21,7.8,9.58,12.56-3.17,1.57-15.36,5.51-18.32,4.07-4.9-2.39,4.91-15.75,8.74-16.63Z"/>
          <path class="cls-8" d="M443.11,346.5c8.3-1.57,18.53,7.7,8.65,13.9-12.05,7.56-25.5-4.76-11.68-12.43.92-.51,2.02-1.28,3.03-1.48Z"/>
          <path class="cls-8" d="M499.07,377.88c5.19-.86,14.34.7,14.97,7.08,1.13,11.55-25.28,10.28-21.33-3.01.61-2.05,4.39-3.75,6.36-4.07Z"/>
          <path class="cls-8" d="M533.38,395.01c6.84-1.52,19.49,5.17,14.27,13.54-5.4,8.66-19.63-1.82-19.09-7.99.18-2.06,2.69-5.08,4.82-5.55Z"/>
          <path class="cls-8" d="M474.08,364.82c-3.62-3.68,1.66-8.09,6.15-8.08,9.06.02,19.51,15.67,10.85,18.38-6.8,2.13-9.86-4.93-13.84-8.63-.97-.9-2.59-1.07-3.17-1.67Z"/>
          <path class="cls-8" d="M522.4,373.46c9.04-1.82,18.45,13.47,9.7,17.21-9.41,4.02-18.7-15.4-9.7-17.21Z"/>
          <path class="cls-8" d="M450.93,369.66c3.21-3.2,7.83.94,10.5,2.21,2.65,1.26,5.96.92,7.44,4.56,2.89,7.07-16.71,11.04-18.7,2.23-.41-1.82-.5-7.74.76-8.99Z"/>
          <path class="cls-8" d="M571.11,409.05c-1.64,1.79-4.97,2.29-7.21,1.33-1.69-.72-3.02-3.91-3.97-4.6-1.05-.76-3.23-.54-4.31-2.04-4.74-6.54,9.55-12.18,15.32-4.88,2.25,2.85,2.72,7.38.17,10.18Z"/>
          <path class="cls-8" d="M422.94,364.44c10.03-2.09,13.35,7.34,6.14,12.1-14.45,9.52-18.78-9.47-6.14-12.1Z"/>
          <path class="cls-8" d="M570.33,419.66c.33-.32,7.66-2.81,8.58-2.98,12.93-2.27,12.15,13.21-.05,12.97-4.66-.09-12.95-5.72-8.53-10Z"/>
          <path class="cls-8" d="M373.91,329.44c8.47-1.77,12.07,13.79,1.27,15.49-13.15,2.07-8.72-13.94-1.27-15.49Z"/>
          <path class="cls-8" d="M404.27,335.31c4.27-1.26,20.42.56,18.58,7.33-2.07,7.58-18.7.84-20.23-2.25-.89-1.8-.46-4.46,1.65-5.08Z"/>
          <path class="cls-8" d="M225.23,349.55c15.1-1.72,8.14,15.62-3.04,13.05-5.75-1.32-6.46-11.97,3.04-13.05Z"/>
          <path class="cls-8" d="M256.53,374.88c3.78-.77,7.77.03,9.18,3.96.66,6.51-14.04,7.72-15.41,2.6-.13-2.89,3.49-6,6.23-6.56Z"/>
          <path class="cls-8" d="M255.81,367.82c-3.99,3.96-14.4-.72-11.39-7.27,3.53-7.7,16.12,2.58,11.39,7.27Z"/>
          <path class="cls-8" d="M384.9,371.11c8.16-1.33,9.47,9.84-.22,10.34-8.57.45-6.08-9.32.22-10.34Z"/>
          <path class="cls-8" d="M481.14,393.91c-4.44,4.45-12.35-.92-8.79-6.93,4.01-6.76,14.07,1.65,8.79,6.93Z"/>
          <path class="cls-8" d="M413.25,453.92c6.64-1.27,6.28,11.91-.18,11.91-6.21,0-4.83-10.95.18-11.91Z"/>
          <path class="cls-8" d="M312.5,370.36c7.71-1.57,10.32,10.6,1.81,9.83-6.54-.59-7.23-8.73-1.81-9.83Z"/>
          <path class="cls-8" d="M426.6,452.38c8.73-.85,9.41,14.32.8,11.74-3.15-.95-2.6-11.16-.8-11.74Z"/>
          <path class="cls-8" d="M357.7,430.18c3.97,3.96-3.28,12.05-8.1,7.73-3.13-3.9,4.2-11.62,8.1-7.73Z"/>
          <path class="cls-8" d="M330.41,306.91c.65-.13,1.26-.23,1.9-.01,5.34,3.15.59,11.83-4.91,10.22-4.33-1.27-.95-9.44,3-10.21Z"/>
          <path class="cls-8" d="M284.16,368.88c7.04-.6,6.26,9.71-.82,9.34-6.7-.36-4.56-8.88.82-9.34Z"/>
          <path class="cls-8" d="M391.88,430.02c7.9-2.52,7.85,13.3.31,11.87-4.65-.88.5-8.95-.31-11.87Z"/>
          <path class="cls-8" d="M412.51,446.91c-3.52,3.45-12.32-3.96-7.25-8.36,5.34-4.65,9.08,6.57,7.25,8.36Z"/>
          <path class="cls-8" d="M240.85,342.73c3.38-.91,9.87,3.12,6.99,7.03-4.24,5.75-13.35-5.31-6.99-7.03Z"/>
          <path class="cls-8" d="M247.56,424.08c7.3-2.17,8.53,8.73.59,8.77-5.12.03-3.83-7.81-.59-8.77Z"/>
          <path class="cls-8" d="M381.6,431.2c.19.33,1.14.4,1.49,1.15,1.72,3.75-2.69,6-6.14,3.86-5.92-3.67.66-10.6,3.72-8.21.84.66.42,2.32.93,3.19Z"/>
          <path class="cls-8" d="M406.91,378.63c3.97-4.04,9.62,5.34,5.8,7.66-3.84,2.34-9.08-4.33-5.8-7.66Z"/>
          <path class="cls-8" d="M602.03,421.1c6.09-1.8,9.43,9.59,1.51,7.95-4-.83-5.16-5.97-1.51-7.95Z"/>
          <path class="cls-8" d="M437.9,380.81c8.57-2.13,3.21,15.67-4.14,4.6-.17-1.79,2.6-4.22,4.14-4.6Z"/>
          <path class="cls-8" d="M235.65,439.01c2.84-.47,4.63,1.75,4.36,4.38-1.12,4.01-10.03,4.6-9.11-.79.44-1.58,3.2-3.33,4.75-3.58Z"/>
          <path class="cls-8" d="M220.69,398.71c6.17-1.85,6.34,8.2,1.23,8.67-4.41.41-5.31-7.44-1.23-8.67Z"/>
          <path class="cls-8" d="M325.87,336.06c5.43-.52,5.11,10.11-2.2,7.91-4.1-1.24-1.47-7.55,2.2-7.91Z"/>
          <path class="cls-8" d="M287.82,356.22c4.98-.42,5.53,7.99-.13,7.99-5.09,0-5.87-7.48.13-7.99Z"/>
          <path class="cls-8" d="M626.68,425.62c2.56-.23,5.34,1.34,5.9,3.93.02,3.72-6.97,3.28-9.07,1.14l-.02-3.78c.38-.56,2.44-1.23,3.2-1.3Z"/>
          <path class="cls-8" d="M367.85,381.5c1.17,4.47-5.43,9.72-7.79,4.38-1.8-4.09,4.42-6.77,7.79-4.38Z"/>
          <path class="cls-8" d="M635.62,437.5c2.77-.75,8.73,2.6,6.25,5.55-4.78,4.74-11.97-3.99-6.25-5.55Z"/>
          <path class="cls-8" d="M611.75,433.01c2.56-.38,5.07,3.08,3.24,5.55-4.18,5.63-10.85-4.44-3.24-5.55Z"/>
          <path class="cls-8" d="M494.04,400.08c4.8-.92,8.5,2.44,6.01,7.15-4.16.79-6.89-3.2-6.01-7.15Z"/>
          <path class="cls-8" d="M224.54,335.26c1.93,3.04-4.43,9.24-7.04,5.11-1.02-3.21,5.13-8.12,7.04-5.11Z"/>
          <path class="cls-8" d="M462.48,359.14c4.39-1.22,5.41,5.54,1.92,6.51-4.39,1.22-5.41-5.54-1.92-6.51Z"/>
          <path class="cls-8" d="M378.86,445.02c3.47-.32,4.3,3.71,1.29,5.72-5.07,3.39-6.76-5.22-1.29-5.72Z"/>
          <path class="cls-8" d="M332.95,373.11c-2.7-4.31,5.51-9.23,5.82-4.04.21,3.6-4.45,6.22-5.82,4.04Z"/>
          <path class="cls-8" d="M550.5,392.12c-2.67,2.49-8.25-.15-5.86-3.77,2.26-3.42,8.64,1.18,5.86,3.77Z"/>
          <path class="cls-8" d="M458.6,394.11c2.72-.65,4.18,8.26-.02,8.25s-1.99-7.77.02-8.25Z"/>
          <path class="cls-8" d="M519.98,404.39l-3.04.25c-2.04-1.91-1.58-6.4,1.5-6.66,3.85-.42,2.3,4.16,1.53,6.42Z"/>
          <path class="cls-8" d="M365.46,439.76c7.22-2.25,2.72,8.89-1.66,5.1-1.67-1.44-.24-4.51,1.66-5.1Z"/>
          <path class="cls-8" d="M184.27,456.74c-.23.33-6.82,3.33-7.39,1.17-.68-2.52,3.75-4.33,5.64-4.84,1.72-.22,2.4,2.75,1.76,3.67Z"/>
          <path class="cls-8" d="M390.6,336.6c4.09-1.15,5.46,4.75,1.93,5.75-3.83,1.09-5.39-4.78-1.93-5.75Z"/>
          <path class="cls-8" d="M219.92,446.54c.96-.03,1.73.39,2.48.92l.7,2.17c-5.79,5.95-10.9-2.81-3.18-3.09Z"/>
          <path class="cls-8" d="M581.14,406.93c4.9-1.47,6.41,5.15,1.33,5.17-3.27,0-4.49-4.21-1.33-5.17Z"/>
          <path class="cls-8" d="M214.94,453.07c.86,3.59-3.93,7.1-6.37,3.73-1.76-3.37,3.93-4.14,6.37-3.73Z"/>
          <path class="cls-8" d="M560.26,420.04l-2.33.85c-3.62-1.92-1.19-8.72,2.21-5.95l.95,1.35-.83,3.74Z"/>
          <path class="cls-8" d="M422.29,356.68c-.97,1.53-6.01,1.02-4.81-2.88,1.59-5.19,7.12-.76,4.81,2.88Z"/>
          <path class="cls-8" d="M249.08,437.58c1.69,1.7.43,5.18-2.3,4.84-5.93-.73-1.08-8.25,2.3-4.84Z"/>
          <path class="cls-8" d="M395.64,449.44c.82-1.29,5.98-1.2,5.74,1.63-.42,5.04-8.43,2.63-5.74-1.63Z"/>
          <path class="cls-8" d="M655.04,439.83c2.08,2.15.92,6.53-2.8,4.67s-.1-7.67,2.8-4.67Z"/>
          <path class="cls-8" d="M191.56,455.42c1.37-.12,2.8,1.73,2.4,3.1-.87,1.91-2.72,2.39-4.67,1.92-2.71-.84.19-4.85,2.27-5.02Z"/>
          <path class="cls-8" d="M436.01,467.8l-.64-1.67c4.61-9.57,8.22,4.76.64,1.67Z"/>
          <path class="cls-8" d="M364.34,426.13c3.72-1.2,5.59,4.19,2,5.08-2.91.73-4.58-4.25-2-5.08Z"/>
          <path class="cls-8" d="M229.86,449.34c.84,3.11-1.18,5.55-4.48,4.87-1.49-.98-.36-3.07.37-4.14l4.12-.73Z"/>
          <path class="cls-8" d="M511.77,368.83c1.33-.17,2.05.29,2.82,1.38l-.37,2.64c-1.11.75-4.8.65-5.24-.77-.42-1.72,1.36-3.06,2.79-3.24Z"/>
          <path class="cls-8" d="M420.64,468.83c3.71-1.22,5.4,2.58,3.3,4.05-3.56,2.48-6.55-2.98-3.3-4.05Z"/>
          <path class="cls-8" d="M501.89,363.92c1.18,1.19.56,2.89.17,4.27l-3.54-.92-.63-1.67c.25-2.29,2.26-3.43,4-1.68Z"/>
          <path class="cls-8" d="M421.84,445.73c2.03,2.83-3.6,5.42-4.41,2.52-.74-2.68,3.29-4.08,4.41-2.52Z"/>
          <path class="cls-8" d="M591.11,437.34c-.56-1.39-.79-2.58-.08-3.98,1.19-1.62,4.32.96,3.75,2.89l-3.67,1.09Z"/>
          <path class="cls-8" d="M615.75,425.38c-1.73-1.09.11-4.99,2.18-4.07,3.31,1.47.45,5.73-2.18,4.07Z"/>
          <path class="cls-8" d="M202.23,451.6c2.1,3-3.69,5.39-4.44,1.81-.41-1.97,3.74-2.81,4.44-1.81Z"/>
          <polygon class="cls-8" points="625.38 443.36 622.88 443.95 620.96 441.6 623.42 439.69 625.38 443.36"/>
          <path class="cls-8" d="M643.02,430.74c2.31-.4,3.39,3.88.55,4.36-2.31.4-3.39-3.88-.55-4.36Z"/>
        </g>
        <path class="cls-14" d="M239.4,261.28c.88-.34,1.66.73,1.07,1.47-10.1,12.96-21.9,21.69-24.84,39.13-1.66,9.84,1.27,21.24-.66,29.61-.18.79.15,4.63-.96,6.55-.67,1.17-2.64.45-2.9-.87-3.78-19.02-5.89-42.97,12.65-64.24,1.06-1.21,11.03-9.84,15.64-11.64Z"/>
      </g>
      <path class="cls-14" d="M445.01,458.93c.33.96-1.09,1.7-1.79.87-12.07-14.22-26.15-27.68-46.06-33.47-6.57-1.91-13.3-3.31-20.12-3.93-3.67-.34-7.43-.61-11.11-.16-3.4.41-6.38,1.75-9.59,2.78-1.41.45-3.54,1.39-4.94.45-1.3-.88,1.16-2.66,2.43-3.56,14.81-10.4,55.98-3.41,79.01,19.06,1.31,1.28,10.46,12.92,12.16,17.96Z"/>
      <path class="cls-14" d="M583.48,400.79c.17.18.33.36.5.54-1.21,1.11-3.13.13-4.45-.85-27.32-20.28-57.58-36.57-89.54-48.23-8.89-3.24-17.76-6.44-26.76-9.41-6.69-2.21-13.24-4.76-19.96-6.91-11.68-3.75-23.58-6.95-35.58-9.73-8.89-2.06-17.78-4.12-26.66-6.19-6.38-1.49-12.79-2.91-19.14-4.55-.34-.09-.7-.17-1.03-.28-.63-.21-1.56-.51-1.9-1.14-.38-.69.08-1.7.72-1.9.57-.18,1.69.15,2.29.22.91.1,1.81.22,2.71.36,1.75.26,3.5.58,5.23.92,10.26,2.02,20.48,4.2,30.7,6.41,13.28,2.88,26.59,5.34,39.58,9.46,13.54,4.29,26.96,9.11,40.41,13.69,3.83,1.31,7.61,2.65,11.37,4.12,23.63,9.24,47.53,18.62,68.46,33.44,8.32,5.89,16.12,12.54,23.05,20.02Z"/>
    </g>
  </g>
</svg>