<?xml version="1.0" encoding="UTF-8"?>
<svg id="Layer_11" data-name="Layer 11" xmlns="http://www.w3.org/2000/svg" viewBox="0 0 314.01 288">
  <defs>
    <style>
      .cls-1 {
        fill: #737438;
      }
    </style>
  </defs>
  <path class="cls-1" d="M313.94,236.38c-.1-2.72-.32-5.43-.58-8.13-.52-5.4-1.22-10.76-1.58-16.18-.3-4.52-.79-9.03-.9-13.56-.13-5.16-.02-10.31-.77-15.41-.39-2.65-.83-5.49-.6-8.11.57-6.71,0-13.06-1.72-19.17-1.13-4-1.05-7.97-.33-12.06.26-1.46.5-2.96.56-4.46.21-5.92.35-11.84.5-17.77.03-1.07.14-2.17,0-3.19-.82-6-.68-11.95-.38-18.08.51-10.47.37-21.01.56-31.52.03-1.63.34-3.25.52-4.88.18-1.64.49-3.27.52-4.91l.14-8.42.04-4.21c0-.16,0-.4,0-.6v-.62s-.04-1.24-.04-1.24c-.06-.83-.11-1.66-.2-2.48-.73-6.61-3.09-13.06-6.87-18.43-1.46-2.1-3.07-4.08-4.91-5.77-1.83-1.69-3.88-3.09-6.09-4-3.23-1.31-6.19-2.82-9.28-4.24-3.07-1.43-6.24-2.83-9.6-3.79-2.47-.72-5.03-1.3-7.62-1.59-2.31-.29-4.62-.52-6.93-.54-5.01-.05-10.05-.21-15.07-.04-3.97.07-7.94.32-11.87.97-.44.07-.89.12-1.35.15-1.48-.01-2.99-.11-4.47-.13-7.15-.1-14.3-.33-21.45-.34-2.3,0-4.61.05-6.91.12-1.31.03-2.61.07-3.92.11-2.48.06-4.95.09-7.42.02-4.65-.14-9.25-.42-13.88-.23-2.35.03-4.71.17-7.07.48-5.32.7-10.72,1.12-16.1,1.64-.17.02-.34.02-.52.03-.23,0-.45.01-.68.03-.66.01-1.32.01-1.98.05-.15,0-.3.01-.45.02-5.45,0-10.71-1.07-16.09-1.48-4.5-.34-8.98-1.05-13.31-1.93C106.8.67,97.64-.1,88.28.24c-1.92.04-3.85.12-5.79.25-.71.05-1.42.1-2.13.13-.63,0-1.25-.02-1.86-.07-4.09-.33-8.16-.7-12.19-.5-3.03.03-6.03.31-9.02,1.13-.09.03-.2.04-.3.06-.32-.01-.63-.02-.94,0-2.16.07-4.32.08-6.48.06l-1.62-.02h-.82s-.97,0-.97,0c-.59,0-1.18.02-1.77.05h-.17c-1.29,0-2.58.09-3.87.2-5.14.5-10.24,2.01-14.69,4.61-4.64,2.71-8.85,6.02-12.51,9.87-3.66,3.85-6.77,8.27-9.05,13.15-1,2.11-1.61,4.44-2.4,6.57-.16.45-.32.9-.47,1.36-.14.46-.26.92-.38,1.39-.26.93-.41,1.88-.57,2.82-.14.95-.22,1.91-.28,2.86-.01.48-.02.95-.03,1.43v.7s.02.59.02.59c.13,3.16.5,6.27,1.05,9.26.8,4.35.72,8.39.35,12.46-.45,5-.83,9.85-.23,14.91.34,2.86.51,6.04.09,8.83-.01,1.7-.04,3.4.02,5.1.11,3.02.86,5.68,1.63,8.54.13.49.14,1.01.14,1.51.02,1.74.04,3.48.06,5.22,0,.32,0,.64.11.94.09.26.24.5.39.73,3.87,6.09,4.33,14.62,2.88,21.5-1.11,5.28-1.32,10.64-1.8,15.95-.13.64-.26,1.27-.4,1.9-.29,1.32-.56,2.64-.8,3.97-.05.58-.11,1.15-.16,1.73-1.31,13.79-2.09,27.52-1.97,41.46.08,9.74.41,19.48.48,29.23.03,3.87.13,7.74.05,11.6-.02,2.17.04,4.43.22,6.65.19,2.23.47,4.46.82,6.73.35,2.11.97,4.33,1.88,6.43.91,2.1,2.13,4.08,3.52,5.74,3.5,4.17,7.39,7.76,11.66,10.84,4.27,3.08,8.92,5.65,13.99,7.6l1.38.48.7.23.71.2,1.43.38c.48.11.96.2,1.45.3.97.21,1.95.31,2.94.44.49.06.99.08,1.48.11l.74.04.37.02h.31c.97.04,1.94.06,2.91.06,2.05.02,4.11-.02,6.18-.1.89-.03,1.77-.06,2.66-.1.36-.02.73-.03,1.09-.04.79-.02,1.58-.03,2.38-.04,1.53,0,3.07.01,4.6.05,1.96.05,3.94.12,5.9.13.47,0,.94,0,1.4,0,.02-.02.03-.04.05-.06,3.19.04,6.36-.07,9.42-.76,2.05-.46,3.94-.87,6.12-.78,4.99.2,9.99.43,14.99.45,6.19.03,12.33.2,18.52.53,7.37.39,14.85-.18,22.29-.34,3.32-.07,6.65-.24,9.97-.18.27,0,.55.02.82.04-.05.05-.1.11-.15.16,1.82.19,3.64.49,5.44.44,2.47-.07,4.94-.15,7.41-.24,2.2-.08,4.4-.16,6.6-.24,7.45-.26,14.89-.47,22.36-.28-.02-.03-.04-.05-.06-.08,2.19.04,4.38.11,6.58.22,2.05.11,4.11.2,6.17.28.03.04.05.07.08.11,4.53.16,9.06.27,13.59.3,1.1,0,2.19-.02,3.29-.07,3.03-.08,6.07-.37,9.11-.56.36,0,.71.03,1.07.05,3.17.17,6.34.4,9.51.51.38.01.75.01,1.12.01-.09-.03-.17-.05-.25-.08-.01,0-.02,0-.03-.01.2,0,.41.02.61.03,4.09.13,7.35-.39,9.93-1.37.82.02,1.62.17,2.44.23,1.36.11,2.77-.34,4.15-.42,1.59-.09,3.18-.02,4.76.2.29.04.59.09.88.04.25-.04.49-.14.73-.2,1.17-.31,2.33.16,3.49.25,1.25.1,2.54.09,3.8.09.05,0,.1,0,.14,0,.8,0,1.6-.02,2.4-.06,2.55-.04,5.13-.31,7.75-.96,1.11-.25,2.19-.62,3.31-1.01,1.08-.44,2.2-.9,3.27-1.49,2.17-1.15,4.29-2.65,6.24-4.59,2.01-1.98,3.96-4.14,5.62-6.46,1.66-2.32,3-4.81,3.8-7.29,1.02-3.12,1.75-6.25,2.33-9.38.58-3.13,1.02-6.26,1.42-9.48.13-.89.18-1.78.23-2.67.05-.98.06-1.56.06-2.27.01-1.37-.01-2.74-.07-4.1ZM257.97,222.66c-1.21,3.08-3.5,5.66-6.64,7.21-2.7,1.37-5.38,1.48-7.83,1.31-2.48-.19-4.74-.65-7.33-1.25-.67-.16-1.52-.8-2.25-1.24-2.39-1.63-4.37-3.28-6.31-4.86-1.97-1.57-3.9-3.07-6.02-4.36-1.06-.64-2.33-1.72-3.08-2.65-3.38-4.26-7.62-6.99-11.55-10.24-3.24-2.68-6.36-5.61-9.44-8.29-.77-.68-1.47-1.37-2.16-2.05-.66-.67-1.5-1.42-2.31-2.06-3.88-3.06-7.84-6.04-11.81-8.98-.94-.7-1.99-1.37-2.96-1.84-1.92-.93-3.55-2.11-4.91-3.59-.84-.91-1.79-1.92-2.82-2.65-2.18-1.53-4.29-3.16-6.41-4.76-1.05-.79-2.13-1.55-3.2-2.32-.91-.66-1.77-1.45-2.94-1.6-.37-.05-.75-.02-1.13,0-.41.03-.81.06-1.22.08-1.1.07-2.38,1.43-3.32,2.01-2.95,2.13-5.85,4.44-8.9,6.58-1.03.72-1.98,1.74-2.82,2.65-1.36,1.48-2.99,2.66-4.91,3.59-.97.47-2.02,1.14-2.96,1.84-3.97,2.94-7.94,5.92-11.81,8.98-.81.65-1.64,1.39-2.31,2.06-.7.68-1.39,1.37-2.16,2.05-3.08,2.68-6.2,5.61-9.44,8.29-3.93,3.25-8.17,5.98-11.55,10.24-.75.94-2.02,2.01-3.08,2.65-2.12,1.3-4.05,2.79-6.02,4.36-1.94,1.58-3.92,3.23-6.31,4.86-.74.44-1.59,1.08-2.25,1.24-2.59.6-4.85,1.07-7.33,1.25-2.45.17-5.12.06-7.83-1.31-3.14-1.55-5.42-4.14-6.64-7.21-.51-1.48-.76-3.04-.72-4.64,0-.38.06-.85.1-1.24.03-.35.08-.68.14-.99l.18-.95.23-.88c.64-2.35,1.63-4.3,2.7-6.14,1.08-1.83,2.26-3.5,3.5-5.14.54-.7,1.11-1.37,1.67-2.04,1.86-2.32,3.85-4.47,5.9-6.47.31-.3.77-.6.93-.86,1.78-2.93,4.76-4.35,7.2-6.29,2.57-2.05,5.05-4.11,7.37-6.21l1.71-1.58,1.77-1.69,3.56-3.37c2.23-2.1,4.49-4.8,6.7-6.12,2.53-1.51,4.47-3.44,6.63-5.21,1.39-1.14,2.58-2.57,4.2-3.33.52-.25,1.24-.99,1.75-1.55,4.77-5.25,10.52-9.55,15.57-14.62,1.24-1.24,2.49-2.43,3.92-3.43.07-.05.14-.1.16-.17.02-.07,0-.15-.01-.22-.14-.48-.42-.9-.72-1.3-1.93-2.57-4.87-4.48-7.23-6.63-2.64-2.4-5.22-4.86-7.9-7.2-3.37-2.94-6.85-5.71-10.17-8.81-2.35-2.2-5.26-3.94-7.87-5.98-4-3.12-7.97-6.31-11.94-9.54-4.19-3.43-8.33-6.83-12.51-10.66-.97-.9-1.68-2.03-2.78-3.27-1.39-1.63-2.6-3.21-3.78-4.93-.58-.86-1.15-1.75-1.69-2.69-.27-.47-.53-.96-.79-1.45l-.5-1.02c-.18-.39-.33-.79-.5-1.18-.75-1.86-1.25-3.8-1.38-5.68-.13-1.89.18-3.7.85-5.38.7-1.67,1.84-3.16,3.27-4.28,1.41-1.15,3.13-1.9,4.91-2.39.55-.09,1.1-.23,1.67-.26l.84-.08h.86c1.15.06,2.33.24,3.5.55.59.12,1.17.33,1.75.52.58.19,1.17.39,1.71.63.77.31,1.43.62,2.12.95,2.68,1.31,5.07,2.74,7.37,4.22.6.39,1.32.8,1.72,1.23,2.37,2.54,5.22,4.31,8.13,6.13.62.39,1.34,1,1.76,1.52,2.45,3.03,5.36,5.73,8.73,8.08,10.71,7.45,20.37,16.3,29.93,25.1,2.4,2.21,4.42,4.81,6.74,7.12.56.56,1.13,1.1,1.7,1.65,0-.01,0-.03,0-.04l2.23,2.12c1.85,1.77,3.66,3.48,6.13,4.35.28.1.57.19.86.14.38-.07.67-.35.94-.62,2.54-2.55,5.08-5.1,7.62-7.65,2.29-2.3,4.29-4.87,6.68-7.06,9.56-8.8,19.22-17.66,29.93-25.1,3.38-2.34,6.28-5.05,8.73-8.08.42-.52,1.14-1.12,1.76-1.52,2.91-1.82,5.75-3.59,8.13-6.13.4-.43,1.12-.85,1.72-1.23,2.3-1.48,4.69-2.91,7.37-4.22.69-.32,1.35-.64,2.12-.95.55-.24,1.14-.44,1.71-.63.58-.19,1.16-.41,1.75-.52,1.17-.31,2.35-.49,3.5-.53h.86s.84.07.84.07c.57.04,1.11.17,1.67.26,1.78.49,3.5,1.24,4.91,2.39,1.43,1.12,2.57,2.61,3.27,4.28.67,1.68.98,3.49.85,5.38-.12,1.88-.63,3.82-1.38,5.68-.17.39-.32.79-.5,1.18l-.5,1.02c-.26.5-.52.98-.79,1.45-.54.94-1.11,1.83-1.69,2.69-1.18,1.73-2.39,3.31-3.78,4.93-1.1,1.24-1.81,2.37-2.78,3.27-4.18,3.83-8.32,7.23-12.51,10.66-3.96,3.23-7.94,6.42-11.94,9.54-2.61,2.04-5.52,3.78-7.87,5.98-3.32,3.1-6.8,5.87-10.17,8.81-2.69,2.36-5.28,4.83-7.93,7.23-2.35,2.14-5.25,4.03-7.18,6.57-.3.4-.59.83-.73,1.31-.02.07-.04.15,0,.21.02.05.07.09.11.12,1.39,1.12,2.7,2.23,3.96,3.5,5.05,5.07,10.8,9.37,15.57,14.62.51.56,1.23,1.3,1.75,1.55,1.63.77,2.81,2.19,4.21,3.33,2.16,1.77,4.1,3.7,6.63,5.21,2.2,1.32,4.47,4.02,6.7,6.12l3.56,3.37,1.77,1.69,1.71,1.58c2.32,2.1,4.8,4.15,7.37,6.21,2.44,1.94,5.42,3.36,7.2,6.29.15.26.62.57.93.86,2.05,2,4.04,4.14,5.9,6.47.56.66,1.13,1.34,1.67,2.04,1.24,1.64,2.41,3.31,3.5,5.14,1.07,1.84,2.06,3.79,2.7,6.14l.23.88.18.95c.06.31.11.63.14.99.04.39.1.86.1,1.24.04,1.6-.21,3.16-.72,4.64Z"/>
</svg>