<?xml version="1.0" encoding="UTF-8"?>
<svg id="Layer_11" data-name="Layer 11" xmlns="http://www.w3.org/2000/svg" viewBox="0 0 185.19 252">
  <defs>
    <style>
      .cls-1 {
        fill: #737438;
      }
    </style>
  </defs>
  <path class="cls-1" d="M184.97,126.32c-.3-1.34-.96-2.56-1.72-3.62l-.35-.48-.37-.45c-.24-.31-.5-.59-.76-.88-.52-.57-1.06-1.12-1.59-1.64l-1.57-1.53c-1.79-1.72-3.77-3.26-5.42-5.11-.49-.55-1.23-1.12-1.87-1.63-1.55-1.23-3.11-2.41-4.67-3.61-.29-.23-.59-.48-.87-.74-1.6-1.47-3.2-2.93-4.81-4.4-.55-.5-1.15-.97-1.72-1.46-.34-.29-.69-.57-1.01-.86-1.09-1.01-2.16-2.03-3.27-3.02-.28-.25-.57-.49-.86-.73-.29-.24-.56-.49-.84-.74-.56-.5-1.11-1-1.62-1.51-1.78-1.74-3.54-3.61-5.51-5.31-.99-.85-2.03-1.67-3.16-2.41-1.13-.73-2.35-1.39-3.67-1.85-.4-.13-.79-.28-1.2-.38l-.61-.16-.63-.1c-.51-.1-1.07-.1-1.6-.13l-1.41.02-2.82.05c-1.43.03-2.88.13-4.3.1-3.56-.08-7.09-.11-10.57.18-1.34.12-2.6.14-4.01.05-1.92-.12-3.92-.11-5.89-.15-1.56-.03-3.22.06-4.65-.09-3.17-.34-6.36-.23-9.55-.25-.8,0-1.61-.06-2.41-.07-2.18-.03-4.36-.05-6.54-.08-3.68-.03-7.37.26-11.06-.06-1.26-.11-2.66-.09-3.99-.06-1.8.04-3.63.26-5.37.21-3.47-.1-6.8.25-10.14.47-1.08.07-2.15.13-3.22.18l-1.61.07-.86.04h-.28s-.14.02-.14.02c-.05,0-.09,0-.14.03l-.53.21-.42.17-.39.17c-.26.12-.52.25-.77.38-.51.27-1.01.57-1.49.9-.24.16-.47.34-.7.51l-.64.5c-.43.33-.84.68-1.26,1.02-1.65,1.37-3.3,2.66-4.96,3.97-1,.79-2.09,1.7-2.88,2.58-1.85,2.05-3.94,3.88-6,5.75-1.23,1.11-2.45,2.3-3.7,3.3-1.17.93-2.24,1.9-3.28,2.89-1.05.97-2.08,1.96-3.11,2.97-1.29,1.27-2.67,2.6-4.27,3.65-.51.34-1.06.81-1.58,1.24-1.98,1.64-3.95,3.3-5.82,5.13-.74.74-1.47,1.47-2.16,2.32-.7.86-1.31,1.84-1.74,2.9-.48,1.17-.69,2.48-.67,3.76.05,1.28.31,2.53.73,3.68.75,2.11,2.27,3.95,4.19,5.1.96.58,2.01,1.01,3.11,1.27,1.09.25,2.24.32,3.35.23,1.61-.14,3.16-.66,4.55-1.39.38-.2.76-.42,1.13-.66.36-.24.71-.49,1.04-.74.66-.51,1.28-1.03,1.89-1.54l2.31-1.86,2.44-1.84,5.36-4.11,3.43-2.61,3.74-2.89c1.31-1.01,2.66-2,3.93-3.04.86-.7,1.69-1.43,2.52-2.15l1.25-1.08c.42-.39.84-.79,1.26-1.17.58-.53,1.16-1.06,1.75-1.59.22-.2.43-.32.69-.41.25-.09.52-.14.78-.13.56.02,1.03.2,1.44.6.41.39.74.96.96,1.59.04.1.06.2.08.3,0,.07.02.15,0,.23l-.03.23c-.01.13-.02.26-.03.38-.07,2.55-.17,5.11-.16,7.66,0,1.53.21,3.04.32,4.56-.05,3.32.14,6.52.48,9.61.12,1.06.31,1.79.56,2.2v.41h1.21c-.31.1-.62.2-.92.31-.25.08-.34.27-.26.39.63.96,2.79,1.51,5.29,1.89,1.24.19,2.92.32,4.16.21,2.21-.21,4.19-.6,6.68-.48,1.44.07,2.97-.02,4.45-.08,1.17-.04,2.33-.15,3.49-.21,1.32-.08,2.66-.2,3.97-.19,1.14.01,2.24.23,3.39.29,2.86.15,5.66-.12,8.46-.23,1.96-.08,3.84-.22,5.79-.03.24.02.66.01.81-.04,1.35-.45,3.02-.15,4.51-.19,2.23-.06,4.51.06,6.76.03,1.86-.02,3.71-.17,5.57-.22,2.94-.07,5.9-.08,8.84-.13,1.21-.03,2.43-.06,3.64-.08l2.25-.05,2.54-.04c-.02-1.42-.04-2.84-.06-4.27-.03-2.4,0-4.81.07-7.21.03-1.03.22-2.01.27-3.04.19-3.62.11-7.23-.05-10.84-.02-.46-.04-.93-.05-1.4-.02-.3.03-.56.14-.83.21-.52.68-.93,1.23-1.09.33-.09.68.04.95.18.16.08.29.19.41.31l.08.09s.11.1.17.15c.12.1.24.2.36.29,1.81,1.32,3.61,2.68,5.46,3.69.4.22.85.53,1.25.85,2.13,1.65,4.26,3.3,6.4,4.96.28.22.64.43.83.64,1.3,1.42,2.94,2.74,4.45,3.91,2.13,1.66,4.2,3.42,6.3,5.14,1.05.86,2.1,1.72,3.18,2.56,1.08.84,2.16,1.66,3.35,2.46,1.55,1.02,3.39,1.71,5.16,1.63.35-.01.75-.03,1.16-.05.41-.02.83-.06,1.23-.08,2.19-.19,4.38-1.07,5.99-2.62.8-.76,1.46-1.67,1.95-2.64.12-.24.23-.5.34-.74l.27-.74c.17-.5.31-1.02.41-1.55.26-1.25.3-2.64-.02-3.97Z"/>
  <path class="cls-1" d="M56.06,43.82l.25,1.09c.08.37.17.73.28,1.09.53,1.98,1.3,3.87,2.11,5.73.62,1.47,1.5,2.77,2.32,4.09,1.01,1.55,2.32,3.08,3.74,3.81.33.18.74.43,1.08.74.56.5,1.07.78,1.5.91.27.08.5.09.73.07.06.06.12.13.18.19h0s.02.02.03.03c-.28.09-.38.41-.12.9.9,1.73,2.14,3.4,4.29,4.73.57.32,1.1.76,1.63,1.13.24.18.46.37.68.55.22.18.45.36.69.54,1.24.86,2.68,1.41,4.12,1.87.55.18,1.12.37,1.64.6,1,.41,2.01.78,3.11.97,1.81.33,3.65.51,5.49.62,2.48.15,4.98.13,7.44-.21l.42-.04.42-.06c.28-.04.55-.07.83-.1s.55-.05.82-.06c.27-.02.54-.04.8-.05.34-.01.73-.07,1.1-.14.49-.08.96-.26,1.44-.38.46-.14.94-.24,1.4-.41l1.38-.47c.41-.13.8-.3,1.19-.46.39-.16.79-.32,1.19-.47.52-.22,1.04-.44,1.56-.66.53-.21,1.03-.47,1.52-.74,1.02-.53,1.97-1.18,2.93-1.8.92-.68,1.87-1.34,2.74-2.09.42-.36.88-.66,1.26-1.05l.93-.93c.15-.16.31-.31.46-.47l.44-.49.87-.98c.29-.32.56-.68.84-1.01.41-.5.82-.99,1.15-1.53.34-.53.69-1.06.95-1.62.21-.45.41-.93.68-1.34.24-.35.43-.72.64-1.09l.63-1.1c.38-.75.77-1.5,1.12-2.27.24-.56.47-1.13.7-1.69.21-.57.39-1.16.59-1.73.81-2.57,1.2-5.25,1.33-7.92.12-1.86.03-3.73-.16-5.58-.14-.95-.26-1.9-.5-2.83-.07-.32-.2-.61-.28-.93-.09-.4-.23-.78-.34-1.18-.11-.39-.23-.78-.32-1.17-.24-1.07-.44-2.14-.73-3.21-.09-.35-.24-.8-.41-1.02-.25-.34-.42-.7-.55-1.08-.13-.38-.24-.76-.4-1.12-.55-1.3-1.07-2.63-1.8-3.85-1.03-1.73-2.29-3.31-3.6-4.83-1.6-1.85-3.37-3.57-5.3-5.08-.19-.15-.43-.25-.62-.4-1.36-.97-2.75-1.87-4.21-2.67-.35-.21-.72-.4-1.07-.61-.36-.2-.71-.42-1.09-.59-.34-.16-.67-.32-1.01-.48-.34-.16-.69-.29-1.03-.44l-.8-.35-.81-.32c-.27-.11-.54-.21-.82-.31-.28-.09-.55-.17-.83-.25-.87-.27-1.73-.52-2.6-.77-.44-.11-.88-.21-1.32-.3-.44-.1-.9-.13-1.36-.17-.14,0-.29-.1-.44-.13-.47-.1-.95-.15-1.43-.22-.2-.03-.42-.02-.62-.05-.79-.08-1.57-.17-2.36-.16-.4,0-.79,0-1.19.02-.4.03-.79.07-1.19.11-.24.03-.49.04-.73.06-.25.02-.49.04-.74.06-.5.04-1,.05-1.49.12l-1.17.14c-.39.05-.77.12-1.16.19-.78.12-1.54.3-2.31.47-.46.09-.9.26-1.35.4-.22.07-.45.14-.67.2-.22.07-.44.14-.65.19-.36.09-.71.2-1.07.31-.35.12-.69.26-1.04.4-.69.27-1.35.61-2.01.96-.53.26-1.01.63-1.52.91-2.23,1.27-4.35,2.74-6.25,4.45-.49.43-.95.87-1.44,1.3-.48.43-.92.89-1.37,1.35-1.33,1.45-2.47,3.02-3.75,4.48-.23.28-.39.73-.6,1.08-.22.35-.39.75-.59,1.13-.19.38-.41.73-.61,1.03-.26.36-.47.72-.65,1.08-.18.36-.31.75-.45,1.15-.1.29-.2.59-.31.89-.1.3-.2.6-.31.89l-.24.61-.23.62c-.15.41-.31.82-.45,1.24-.19.65-.36,1.37-.58,1.93-.76,1.73-.96,3.75-1.21,5.65-.35,2.69-.15,5.49.24,8.2.11.74.24,1.48.37,2.21Z"/>
  <path class="cls-1" d="M56.33,206.71l.02-.12c.02-.07.09-.11.12-.16l.05-.06.5-.38,1.07-.83c.71-.55,1.43-1.1,2.16-1.63,1.08-.79,2.09-1.6,3.03-2.49.37-.35.74-.74,1.16-1.04,1.4-1.04,2.83-2.05,4.24-3.07,1.02-.74,2.03-1.5,3.03-2.25l1.19-.91,1.36-1.06,4.22-3.25-3.01-2.95-.91-.89-.37-.36-.26-.25-1.05-1.01-2.11-2c-.73-.69-1.48-1.36-2.23-2.03-.26-.23-.54-.41-.8-.64-.65-.57-1.34-1.12-1.92-1.73-.81-.85-1.52-1.76-2.3-2.64-.25-.29-.59-.66-.84-.8-.78-.44-1.24-1.18-1.81-1.78-1.03-1.09-1.97-2.26-3.01-3.33-1.48-1.52-3.05-2.96-4.54-4.47l-2-2.04-1.06-1.09-.13-.14-.07-.07s-.04-.07-.07-.02l-.28.26-.55.52-3.68,3.47c-.19.18-.33.4-.51.58-1.26,1.22-2.53,2.45-3.82,3.65-.64.6-1.32,1.16-1.97,1.75-.58.53-1.15,1.09-1.73,1.62-.91.84-1.85,1.65-2.71,2.54-1.35,1.38-2.84,2.57-4.07,4.13-.09.12-.26.2-.38.32-.36.36-.72.73-1.08,1.11-.15.16-.27.35-.42.51-1.17,1.21-2.22,2.5-3.21,3.86-.6.83-1.33,1.61-2.01,2.39l-.35.41c-.12.14-.23.23-.34.35l-.68.68-.79.78-.41.42c-.14.15-.28.29-.49.57-.05.06-.1.1-.15.15l-.03.02-.08.07-.15.14-.3.28c-.2.19-.4.4-.59.6-.39.41-.75.83-1.12,1.25-.15.17-.3.35-.44.54-.15.2-.28.4-.41.6-.26.41-.48.84-.66,1.28-.37.87-.6,1.76-.77,2.62-.13.69-.16,1.37-.23,2.03l-.06.54v.13s-.03.18-.03.18c0,.13-.01.26-.01.38,0,.51.05.98.13,1.41.16.86.38,1.55.62,2.26.48,1.4,1.09,2.72,1.84,4.01.16.27.32.53.5.81.1.14.18.28.31.45.14.19.29.37.46.54.55.58,1.1,1.17,1.66,1.73,1.44,1.44,2.93,2.82,4.18,4.4.23.3.65.55.96.84.63.59,1.38,1.18,1.84,1.79.56.74,1.14,1.27,1.82,1.83.5.41,1,.85,1.46,1.3.65.64,1.26,1.32,1.89,1.98.48.51,1.07,1.01,1.44,1.52,1.14,1.58,2.67,2.97,4,4.44,1.87,2.07,3.98,4.01,5.98,6.01,1.09,1.09,2.18,2.2,3.28,3.28,1.51,1.48,3.06,2.92,4.54,4.42,1.16,1.17,2.4,2.21,3.59,3.33.35.33.71.66,1.09.98.19.16.37.32.56.47l.28.23s.13.11.2.17c.08.06.16.12.24.17.94.61,1.97,1,2.91,1.09.44.05,1,.13,1.54.23.88.16,1.56.09,2.03-.09.29-.11.51-.26.67-.44.09,0,.19,0,.28,0h0s.03,0,.05,0c-.02.03-.03.07-.04.1-.06.23.14.48.69.61,1.1.22,2.32.23,3.56-.09,1.23-.34,2.51-1,3.6-2.12.56-.58,1.15-1.19,1.66-1.81.46-.58.92-1.12,1.29-1.8.46-.85.75-1.82.85-2.81.11-.99.04-1.99-.13-2.94-.14-.73-.33-1.46-.52-2.15-.19-.65-.41-1.28-.71-1.88-.15-.32-.29-.56-.43-.82-.15-.26-.3-.52-.47-.77-1.1-1.66-2.27-3.25-3.41-4.84-1.54-2.15-3.1-4.26-4.66-6.34-.71-.95-1.37-1.91-1.86-2.9-.16-.32-.38-.66-.6-.98-.29-.42-.61-.83-.91-1.24l-1.75-2.43c-.51-.71-1.02-1.42-1.49-2.14-.63-.96-1.18-1.95-1.8-2.9-.62-.96-1.25-1.94-1.76-2.84-.24-.43-.46-.88-.53-1.11-.02-.06-.02-.1-.04-.13v-.04s0-.05,0-.05Z"/>
  <path class="cls-1" d="M168.63,196.6c-.6-1.32-1.35-2.52-2.13-3.62-1.73-2.43-3.72-4.47-5.64-6.5l-2-2.11c-.67-.71-1.34-1.42-2.02-2.12-.71-.73-1.43-1.44-2.16-2.14-.25-.24-.53-.43-.78-.67-.63-.59-1.31-1.16-1.89-1.8-.79-.87-1.5-1.8-2.27-2.69-.25-.29-.58-.67-.84-.82-.78-.45-1.24-1.19-1.82-1.8-1.05-1.09-2-2.26-3.09-3.32-.77-.75-1.54-1.46-2.32-2.18l-2.35-2.19-.72-.67-.48-.45-.56-.51c-.75-.68-1.51-1.32-2.28-1.98l-.07-.06-.04-.03-.03.03-.13.13-.26.27-.53.53c-.35.35-.71.71-1.06,1.08l-1.7,1.77c-.18.19-.31.42-.49.61-1.21,1.29-2.41,2.58-3.63,3.85-.61.63-1.25,1.22-1.87,1.84-.55.56-1.1,1.13-1.66,1.69-.87.87-1.78,1.71-2.62,2.6-1.31,1.4-2.78,2.59-4.01,4.09-.09.11-.26.19-.38.3-.37.34-.73.69-1.1,1.05-.15.15-.29.34-.44.48-1.21,1.14-2.34,2.33-3.43,3.61-.17.19-.34.39-.52.57-.25.25-.49.51-.74.76-.63.63-1.26,1.26-1.88,1.89l-1.56,1.58c1.59,1.18,3.17,2.36,4.76,3.55.77.59,1.62,1.13,2.33,1.74,1.16,1.01,2.41,1.9,3.69,2.77.51.35,1.05.65,1.55,1.01,2.18,1.55,4.33,3.14,6.53,4.67,1.12.78,2.16,1.62,3.24,2.39l.04.03.02.02.04.04s.06.05.08.08c.05.06.1.12.14.19.07.12.14.34.14.51,0,.18-.04.33-.13.49-.04.08-.11.16-.19.24l-.07.06-.02.02h0s-.02.03-.02.03l-.12.14s-.07.09-.11.14c-.04.06-.06.08-.08.1l-.12.14c-.24.28-.39.74-.61,1.1-.44.73-.87,1.56-1.37,2.13-.62.68-1.03,1.34-1.46,2.09-.31.56-.66,1.12-1.03,1.65-.52.74-1.09,1.45-1.64,2.18-.42.56-.83,1.21-1.28,1.65-1.39,1.37-2.53,3.09-3.78,4.64-1.76,2.18-3.36,4.59-4.98,6.97l-1.32,1.95-.65.99-.32.5-.34.57c-1.22,2.09-2.06,4.55-2.17,7.19-.03,1.03.1,2.07.39,3.06.28.99.7,1.93,1.21,2.8.61,1.04,1.45,1.99,2.39,2.68.95.69,2,1.11,2.95,1.21.45.05,1.01.14,1.55.23.89.15,1.56.09,2.03-.1.29-.1.51-.26.67-.44.09,0,.19,0,.28,0h0s.03,0,.05,0c-.02.03-.03.07-.04.1-.06.23.14.49.69.61,2.2.47,4.89,0,7.16-1.99l.15-.13.15-.15.2-.2c.13-.12.25-.24.38-.36.26-.24.53-.46.79-.68.48-.4.99-.7,1.48-1.09,1.23-.97,2.28-2.17,3.35-3.34.41-.45.85-.89,1.3-1.28.86-.74,1.69-1.47,2.47-2.33,1.29-1.43,2.57-2.87,3.91-4.25,1.8-1.87,3.65-3.7,5.49-5.54.84-.83,1.7-1.61,2.62-2.24.29-.2.6-.47.89-.73.38-.35.74-.72,1.11-1.08l2.18-2.09c.64-.61,1.27-1.23,1.92-1.83.86-.79,1.76-1.52,2.6-2.33,1.7-1.63,3.38-3.3,5.07-4.95.4-.39.83-.76,1.22-1.16l.94-.98.47-.49.16-.17c.07-.08.16-.15.23-.25l.28-.39c.59-.8,1.15-1.66,1.67-2.57.77-1.35,1.37-2.84,1.54-4.46.03-.32.06-.64.07-.97l.02-.49c0-.16,0-.33.01-.49.05-1.1-.05-2.2-.28-3.25-.23-1.05-.58-2.04-.99-2.96Z"/>
</svg>