<?xml version="1.0" encoding="UTF-8"?>
<svg id="Layer_11" data-name="Layer 11" xmlns="http://www.w3.org/2000/svg" viewBox="0 0 314.01 288">
  <defs>
    <style>
      .cls-1 {
        fill: #737438;
      }
    </style>
  </defs>
  <path class="cls-1" d="M313.94,236.38c-.1-2.72-.32-5.43-.58-8.13-.52-5.39-1.22-10.76-1.58-16.18-.3-4.52-.79-9.03-.9-13.56-.13-5.16-.02-10.31-.77-15.41-.39-2.65-.83-5.49-.6-8.11.57-6.71,0-13.06-1.72-19.17-1.13-4-1.05-7.97-.33-12.06.26-1.46.5-2.96.56-4.46.21-5.92.35-11.84.5-17.77.03-1.07.14-2.17,0-3.19-.82-6-.68-11.95-.38-18.08.51-10.47.37-21.01.56-31.52.03-1.63.34-3.25.52-4.88.18-1.64.49-3.27.52-4.91l.14-8.42.04-4.21c0-.16,0-.4,0-.6v-.62s-.04-1.24-.04-1.24c-.06-.83-.11-1.66-.2-2.48-.73-6.61-3.09-13.06-6.87-18.43-1.46-2.1-3.07-4.08-4.91-5.77-1.83-1.69-3.88-3.09-6.09-4-3.23-1.31-6.19-2.82-9.28-4.24-3.07-1.43-6.24-2.83-9.6-3.79-2.47-.72-5.03-1.3-7.62-1.59-2.31-.29-4.62-.52-6.93-.54-5.01-.05-10.05-.21-15.07-.04-3.97.07-7.94.32-11.87.97-.44.07-.89.12-1.35.15-1.48-.01-2.99-.11-4.47-.13-7.15-.1-14.3-.33-21.45-.34-2.3,0-4.61.05-6.91.12-1.31.03-2.61.07-3.92.11-2.48.06-4.95.09-7.42.02-4.65-.14-9.26-.42-13.88-.23-2.35.03-4.71.17-7.07.48-5.32.7-10.72,1.12-16.1,1.64-.17.02-.34.02-.52.03-.23,0-.45.01-.68.03-.66.01-1.32.01-1.98.05-.15,0-.3.01-.45.02-5.45,0-10.71-1.07-16.09-1.48-4.5-.34-8.98-1.05-13.31-1.93C106.8.67,97.64-.1,88.28.24c-1.92.04-3.85.12-5.79.25-.71.05-1.42.1-2.13.13-.63,0-1.25-.02-1.86-.07-4.09-.33-8.16-.7-12.19-.5-3.03.03-6.03.31-9.02,1.13-.09.03-.2.04-.3.06-.32-.01-.63-.02-.94,0-2.16.07-4.32.08-6.48.06l-1.62-.02h-.82s-.97,0-.97,0c-.59,0-1.18.02-1.77.05h-.17c-1.29,0-2.58.09-3.87.2-5.14.5-10.24,2.01-14.69,4.61-4.64,2.71-8.85,6.02-12.51,9.87-3.66,3.85-6.77,8.27-9.05,13.15-1,2.11-1.61,4.44-2.4,6.57-.16.45-.32.9-.47,1.36-.14.46-.26.92-.38,1.39-.26.93-.41,1.88-.57,2.82-.14.95-.22,1.91-.28,2.86-.01.48-.02.95-.03,1.43v.7s.02.59.02.59c.13,3.16.5,6.27,1.05,9.26.8,4.35.72,8.39.35,12.46-.45,5-.83,9.85-.23,14.91.34,2.86.51,6.04.09,8.83-.01,1.7-.04,3.4.02,5.1.11,3.02.86,5.68,1.63,8.54.13.49.14,1.01.14,1.51.02,1.74.04,3.48.06,5.22,0,.32,0,.64.11.94.09.26.24.5.39.73,3.87,6.09,4.33,14.62,2.88,21.5-1.11,5.28-1.32,10.64-1.8,15.95-.13.64-.26,1.27-.4,1.9-.29,1.32-.56,2.64-.8,3.97-.05.58-.11,1.15-.16,1.73-1.31,13.79-2.09,27.52-1.97,41.46.09,9.74.41,19.48.48,29.23.03,3.87.13,7.74.05,11.6-.02,2.17.04,4.43.22,6.65.19,2.23.47,4.46.82,6.73.35,2.11.97,4.33,1.88,6.43.91,2.1,2.13,4.08,3.52,5.74,3.5,4.17,7.39,7.76,11.66,10.84,4.27,3.08,8.92,5.65,13.99,7.6l1.38.48.7.23.71.2,1.43.38c.48.11.96.2,1.45.3.97.21,1.95.31,2.94.44.49.06.99.08,1.48.11l.74.04.37.02h.31c.97.04,1.94.06,2.91.06,2.05.02,4.11-.02,6.18-.1.89-.03,1.77-.06,2.66-.1.36-.02.73-.03,1.09-.04.79-.02,1.58-.03,2.38-.04,1.53,0,3.07.01,4.6.05,1.96.05,3.94.12,5.9.13.47,0,.94,0,1.4,0,.02-.02.03-.04.05-.06,3.19.04,6.36-.07,9.42-.76,2.05-.46,3.94-.87,6.12-.78,4.99.2,9.99.43,14.99.45,6.19.03,12.33.2,18.52.53,7.37.39,14.85-.18,22.29-.34,3.32-.07,6.65-.24,9.97-.18.27,0,.55.02.82.04-.05.05-.1.11-.15.16,1.82.19,3.64.49,5.44.44,2.47-.07,4.94-.15,7.41-.24,2.2-.08,4.4-.16,6.6-.24,7.45-.26,14.89-.47,22.36-.28-.02-.03-.04-.05-.06-.08,2.19.04,4.38.11,6.58.22,2.05.11,4.11.2,6.17.28.03.04.05.07.08.11,4.53.16,9.06.27,13.59.3,1.1,0,2.19-.02,3.29-.07,3.03-.08,6.07-.37,9.11-.56.36,0,.71.03,1.07.05,3.17.17,6.34.4,9.51.51.38.01.75.01,1.12.01-.09-.03-.17-.05-.25-.08-.01,0-.02,0-.03-.01.2,0,.41.02.61.03,4.09.13,7.35-.39,9.93-1.37.82.02,1.62.17,2.44.23,1.36.11,2.77-.34,4.15-.42,1.59-.09,3.18-.02,4.76.2.29.04.59.09.88.05.25-.04.49-.14.73-.2,1.17-.31,2.33.16,3.49.25,1.25.1,2.54.09,3.8.09.05,0,.09,0,.14,0,.8,0,1.6-.02,2.4-.06,2.55-.04,5.13-.31,7.75-.96,1.11-.25,2.19-.62,3.31-1.01,1.08-.44,2.2-.9,3.27-1.49,2.17-1.15,4.29-2.65,6.24-4.59,2.01-1.98,3.96-4.14,5.61-6.46,1.66-2.32,3-4.81,3.8-7.29,1.02-3.12,1.75-6.25,2.33-9.38.58-3.13,1.02-6.26,1.42-9.48.13-.89.18-1.78.23-2.67.05-.98.06-1.56.06-2.27.01-1.37-.01-2.74-.07-4.1ZM278.2,64.91c-.14,1.5-.94,3.05-1.49,3.96l-.46.74-.47.67c-.31.46-.63.86-.95,1.29-1.28,1.66-2.6,3.17-3.9,4.7-.46.54-1.05,1.07-1.38,1.58-2.28,3.61-5.47,6.42-8.65,9.21-.95.83-1.85,1.8-2.72,2.73-4.74,5.09-9.96,9.47-15.18,13.42-1.06.8-2.13,1.75-3.2,2.72-1.07.97-2.13,1.97-3.15,3-2.83,2.8-5.81,5.34-8.37,8.52-.43.53-.9,1.04-1.31,1.57-2.1,2.77-4.22,5.56-6.21,8.37-2.38,3.37-5.11,6.37-7.82,9.47-2.54,2.98-4.88,6.16-7.36,9.2-2.87,3.62-5.86,7.13-8.71,10.76-1.04,1.31-2.22,2.62-3.04,3.97-1.41,2.29-2.94,4.5-4.55,6.66-1.64,2.14-3.27,4.29-4.91,6.43-1.79,2.39-3.89,4.54-5.84,6.8-2.62,3.09-5.29,6.22-6.81,9.86-1.03,2.5-2.61,4.83-4.14,7.19-3.92,6.09-8.1,12-12.24,17.95-.61.87-1.31,1.66-1.96,2.5-.65.83-1.34,1.62-1.94,2.49-2.79,4.08-5.5,8.21-8.26,12.31-2.3,3.41-4.42,7.79-7.2,10.77-10.06,10.79-31.75-7.41-40.04-13.03-11.51-7.8-24.36-12.61-36.13-19.71-.98-.59-1.99-1.2-3.01-1.68-3.42-1.63-6.85-3.26-9.7-5.81-.41-.36-1.05-.67-1.58-1.02-1.49-.99-3-1.97-4.51-3.09-.38-.29-.75-.56-1.13-.88l-.57-.46-.57-.52c-.7-.64-1.77-1.78-2.26-3.04l-.27-.88c-.07-.25-.15-.5-.21-.76-.08-.52-.14-1.04-.19-1.57,0-.52.03-1.05.07-1.56.06-.51.19-1.01.3-1.51.99-3.37,3.21-5.98,5.9-7.72,1.34-.9,2.87-1.51,4.45-1.9.4-.08.8-.18,1.21-.24l1.24-.11c.41-.06.83,0,1.24,0,.42.02.82.01,1.28.13.39.08.78.17,1.17.27.36.1.62.22.93.33.59.21,1.17.42,1.74.62,3.7,1.25,6.98,3.14,9.85,5.17,2.08,1.48,4.16,2.58,6.3,3.61,2.63,1.26,5.15,2.52,7.58,4.2,1.41.98,3.02,1.99,4.53,2.66,6.38,2.83,10.81,7.45,16.28,11.49,5.67,4.19,12.11,7.18,18.31,10.47,2.44,1.3,4.01,1.89,5.57-.87,1.6-2.83,3.4-5.54,5.12-8.29.76-1.2,1.22-2.36,1.75-3.59,1.23-2.89,3.08-5.63,4.84-8.36,1.2-1.8,2.37-3.64,3.48-5.49,2.16-3.69,4.6-7.16,7.23-10.44,3.73-4.52,7.06-9.25,10.13-14.33,1.21-2.03,2.83-4.12,4.45-5.83,1.71-1.84,3.27-3.8,4.78-5.81,1.52-1.99,3-4.02,4.5-6.04l5.68-7.6c1.89-2.54,3.81-5.05,5.77-7.53,3.26-4.2,6.67-8.27,10.08-12.34,2.76-3.19,5.43-6.61,8.41-9.41,3.28-3.11,6.27-6.62,9.78-9.53,3.59-3.05,6.78-7.02,8.45-11.11.1-.25.11-.57.26-.72,3.21-3.16,5.82-6.86,9.34-9.79,1.42-1.19,2.85-2.77,4.06-4.25,2.1-2.54,4.43-4.67,6.86-6.83,1.99-1.76,3.88-3.58,5.66-5.81,2.47-3.07,5.41-6.11,9.01-8.58.55-.39,1.11-.79,1.68-1.2.3-.21.54-.41.9-.64.39-.23.78-.45,1.17-.65.46-.27.9-.39,1.34-.54.45-.13.88-.32,1.34-.38l1.36-.26c.46-.06.92-.07,1.37-.11,1.82-.06,3.65.13,5.37.68,3.43,1.04,6.61,3.17,8.71,6.49.27.5.56,1,.79,1.53.2.55.39,1.1.55,1.66.11.58.2,1.16.28,1.74.01.29,0,.58,0,.88l-.02,1.03Z"/>
</svg>