<?xml version="1.0" encoding="UTF-8"?>
<svg id="Layer_11" data-name="Layer 11" xmlns="http://www.w3.org/2000/svg" viewBox="0 0 314.01 288">
  <defs>
    <style>
      .cls-1 {
        fill: #737438;
      }
    </style>
  </defs>
  <path class="cls-1" d="M313.94,236.38c-.1-2.72-.32-5.43-.58-8.13-.52-5.4-1.22-10.76-1.58-16.18-.3-4.52-.79-9.03-.9-13.56-.13-5.16-.02-10.31-.77-15.41-.39-2.65-.83-5.49-.6-8.11.57-6.71,0-13.06-1.72-19.17-1.13-4-1.05-7.97-.33-12.06.26-1.46.5-2.96.56-4.46.21-5.92.35-11.84.5-17.77.03-1.06.14-2.17,0-3.19-.82-6-.68-11.95-.38-18.08.51-10.47.37-21.01.56-31.52.03-1.63.34-3.25.52-4.88.18-1.64.49-3.27.52-4.91l.14-8.42.04-4.21c0-.16,0-.4,0-.6v-.62s-.04-1.24-.04-1.24c-.06-.83-.11-1.66-.2-2.48-.73-6.61-3.09-13.06-6.87-18.43-1.46-2.1-3.07-4.08-4.91-5.77-1.83-1.69-3.88-3.09-6.09-4-3.23-1.31-6.19-2.82-9.28-4.24-3.07-1.43-6.24-2.83-9.6-3.79-2.46-.72-5.03-1.3-7.62-1.59-2.31-.29-4.62-.52-6.93-.54-5.01-.04-10.05-.21-15.07-.04-3.97.07-7.94.32-11.87.97-.44.07-.89.12-1.35.15-1.48-.01-2.99-.11-4.47-.13-7.15-.1-14.3-.33-21.45-.34-2.3,0-4.61.05-6.91.12-1.31.03-2.61.07-3.92.11-2.48.06-4.95.09-7.42.02-4.65-.14-9.26-.42-13.88-.23-2.35.03-4.71.17-7.07.48-5.32.71-10.72,1.12-16.1,1.64-.17.02-.34.02-.52.03-.23,0-.45.01-.68.03-.66.01-1.32.01-1.98.05-.15,0-.3.01-.45.02-5.45,0-10.71-1.07-16.09-1.48-4.5-.34-8.98-1.05-13.31-1.93C106.8.67,97.64-.1,88.28.24c-1.92.04-3.85.12-5.79.25-.71.05-1.42.1-2.13.13-.63,0-1.25-.02-1.86-.07-4.09-.33-8.16-.7-12.19-.5-3.03.03-6.03.31-9.02,1.13-.09.03-.2.04-.3.06-.32-.01-.63-.02-.94,0-2.16.07-4.32.08-6.48.06l-1.62-.02h-.82s-.97,0-.97,0c-.59,0-1.18.02-1.77.05h-.17c-1.29,0-2.58.09-3.87.2-5.14.5-10.24,2.01-14.69,4.61-4.64,2.71-8.85,6.02-12.51,9.87-3.66,3.85-6.77,8.27-9.05,13.15-1,2.11-1.61,4.44-2.4,6.57-.16.45-.32.9-.47,1.36-.14.46-.26.92-.38,1.39-.26.93-.41,1.88-.57,2.82-.14.95-.22,1.91-.28,2.86-.01.48-.02.95-.03,1.43v.7s.02.59.02.59c.13,3.16.5,6.27,1.05,9.26.8,4.35.72,8.39.35,12.46-.45,5-.83,9.85-.23,14.91.34,2.86.51,6.04.09,8.83-.01,1.7-.04,3.4.02,5.1.11,3.02.86,5.68,1.63,8.54.13.49.14,1.01.14,1.51.02,1.74.04,3.48.06,5.22,0,.32,0,.64.11.94.09.26.24.5.39.73,3.87,6.09,4.33,14.62,2.88,21.5-1.11,5.28-1.32,10.64-1.8,15.95-.13.64-.26,1.27-.4,1.9-.29,1.32-.56,2.64-.8,3.97-.05.58-.11,1.15-.16,1.73-1.31,13.79-2.09,27.52-1.97,41.46.09,9.74.41,19.48.48,29.23.03,3.87.13,7.74.05,11.6-.02,2.17.04,4.43.22,6.65.19,2.23.47,4.46.82,6.73.35,2.11.97,4.33,1.88,6.43.91,2.1,2.13,4.08,3.52,5.74,3.5,4.17,7.39,7.76,11.66,10.84,4.27,3.08,8.92,5.65,13.99,7.6l1.38.48.7.23.71.2,1.43.38c.48.11.96.2,1.45.3.97.21,1.95.31,2.94.44.49.06.99.08,1.48.11l.74.04.37.02h.31c.97.04,1.94.06,2.91.06,2.05.02,4.11-.02,6.18-.1.89-.03,1.77-.06,2.66-.1.36-.02.73-.03,1.09-.04.79-.02,1.58-.03,2.38-.04,1.53,0,3.07.01,4.6.05,1.96.05,3.94.12,5.9.13.47,0,.94,0,1.4,0,.02-.02.03-.04.05-.06,3.19.04,6.36-.07,9.42-.76,2.05-.46,3.94-.87,6.12-.78,4.99.2,9.99.43,14.99.45,6.19.03,12.33.2,18.52.53,7.37.39,14.85-.18,22.29-.34,3.32-.07,6.65-.24,9.97-.18.27,0,.55.02.82.04-.05.05-.1.11-.15.16,1.82.19,3.64.49,5.44.44,2.47-.07,4.94-.15,7.41-.24,2.2-.08,4.4-.16,6.6-.24,7.45-.26,14.89-.47,22.36-.28-.02-.03-.04-.05-.06-.08,2.19.04,4.38.11,6.58.22,2.05.11,4.11.2,6.17.28.03.04.05.07.08.11,4.53.16,9.06.27,13.59.3,1.1,0,2.19-.02,3.29-.07,3.03-.08,6.07-.37,9.11-.56.36,0,.71.03,1.07.05,3.17.17,6.34.4,9.51.51.38.01.75.01,1.12.01-.09-.03-.17-.05-.25-.08-.01,0-.02,0-.03-.01.2,0,.41.02.61.03,4.09.13,7.35-.39,9.93-1.37.82.02,1.62.17,2.44.23,1.36.11,2.77-.34,4.15-.42,1.59-.09,3.18-.02,4.76.2.29.04.59.09.88.05.25-.04.49-.14.73-.2,1.17-.31,2.33.16,3.49.25,1.25.1,2.54.09,3.8.09.05,0,.1,0,.14,0,.8,0,1.6-.01,2.4-.06,2.55-.04,5.13-.31,7.75-.96,1.11-.25,2.19-.62,3.31-1.01,1.08-.44,2.2-.9,3.27-1.49,2.17-1.15,4.29-2.65,6.24-4.59,2.01-1.98,3.96-4.14,5.61-6.46,1.66-2.32,3-4.81,3.8-7.29,1.02-3.12,1.75-6.25,2.33-9.38.58-3.13,1.02-6.26,1.42-9.48.13-.89.18-1.78.23-2.67.05-.98.06-1.56.06-2.27.01-1.37-.01-2.74-.07-4.1ZM122.51,58.02c.23-1.76.41-3.63,1.12-5.24.2-.52.36-1.19.54-1.79.12-.39.28-.77.42-1.15l.21-.57.23-.57c.1-.27.2-.55.29-.83.1-.28.19-.55.29-.82.13-.37.24-.73.42-1.06.17-.34.36-.67.6-1.01.19-.28.39-.61.57-.96.18-.35.35-.72.55-1.05.2-.33.34-.75.55-1.01,1.19-1.36,2.25-2.82,3.48-4.16.42-.42.83-.85,1.27-1.25.45-.39.88-.81,1.34-1.2,1.76-1.59,3.73-2.96,5.8-4.14.48-.26.92-.6,1.42-.85.61-.32,1.23-.64,1.87-.89.32-.13.64-.26.96-.37.33-.1.66-.2.99-.28.2-.05.4-.12.61-.18.21-.06.41-.12.62-.19.42-.12.83-.28,1.25-.37.71-.16,1.42-.33,2.14-.44.36-.06.72-.13,1.08-.17l1.08-.13c.46-.07.93-.07,1.39-.11.23-.02.46-.03.69-.06.23-.02.46-.03.68-.06.37-.04.74-.08,1.11-.1.37-.01.74-.02,1.1-.02.73-.02,1.47.07,2.19.14.19.02.39.02.57.04.44.06.89.12,1.33.21.14.03.28.11.41.12.42.03.85.07,1.26.16.41.08.82.18,1.23.28.81.23,1.61.47,2.41.71.26.07.52.15.77.24.25.09.51.19.76.29l.75.3.74.32c.32.14.64.26.95.41.31.15.62.3.94.44.35.16.68.36,1.01.55.33.19.67.37,1,.57,1.35.75,2.65,1.59,3.91,2.48.18.14.4.23.58.37,1.79,1.4,3.43,3,4.92,4.72,1.22,1.41,2.39,2.88,3.35,4.49.68,1.14,1.16,2.36,1.67,3.58.15.33.25.69.37,1.04.13.35.28.69.51,1,.15.21.29.62.38.95.27.99.46,1.99.68,2.98.09.36.2.72.3,1.09.1.36.24.72.32,1.09.07.29.19.56.26.86.22.86.33,1.74.47,2.63.17,1.71.26,3.45.15,5.18-.12,2.48-.49,4.97-1.23,7.35-.18.53-.35,1.07-.55,1.61-.21.53-.43,1.05-.65,1.57-.33.71-.69,1.41-1.04,2.11l-.58,1.02c-.2.34-.38.69-.6,1.01-.25.39-.43.83-.63,1.25-.25.53-.57,1.01-.89,1.51-.31.5-.69.96-1.07,1.42-.26.31-.51.64-.78.94l-.81.91-.4.46c-.14.15-.28.29-.43.44l-.87.87c-.35.37-.78.65-1.17.98-.81.7-1.68,1.31-2.54,1.94-.9.58-1.78,1.18-2.72,1.67-.46.26-.93.5-1.42.69-.48.2-.96.41-1.45.61-.37.14-.74.29-1.1.44-.37.15-.73.31-1.11.43l-1.28.44c-.42.15-.87.25-1.3.38-.45.12-.88.28-1.34.35-.34.06-.7.12-1.02.13-.25,0-.49.03-.75.04-.25.01-.51.03-.76.05-.25.02-.51.05-.77.09l-.39.06-.39.04c-2.29.31-4.6.33-6.91.19-1.71-.1-3.42-.27-5.1-.57-1.02-.18-1.96-.52-2.89-.9-.48-.21-1.01-.39-1.52-.55-1.34-.43-2.68-.94-3.82-1.74-.23-.16-.44-.33-.64-.5-.21-.17-.41-.35-.63-.51-.49-.35-.99-.75-1.51-1.05-2-1.23-3.15-2.79-3.98-4.39-.24-.46-.15-.75.11-.84,0,0-.02-.02-.03-.03h0c-.06-.06-.11-.12-.17-.18-.21.03-.43.01-.68-.06-.4-.12-.88-.37-1.39-.84-.32-.28-.7-.52-1.01-.68-1.32-.68-2.54-2.1-3.47-3.54-.77-1.23-1.58-2.44-2.16-3.8-.75-1.73-1.47-3.49-1.96-5.32-.1-.33-.18-.67-.26-1.01l-.23-1.02c-.12-.68-.25-1.37-.35-2.06-.36-2.51-.55-5.12-.22-7.62ZM123.36,219.14c.06.21.27.63.49,1.03.47.83,1.06,1.74,1.63,2.63.57.89,1.09,1.8,1.67,2.7.44.67.92,1.33,1.38,1.99l1.62,2.26c.28.38.58.76.85,1.15.21.3.41.61.56.91.46.92,1.07,1.82,1.73,2.7,1.46,1.94,2.9,3.9,4.33,5.89,1.06,1.48,2.15,2.95,3.17,4.49.16.23.3.47.44.71.14.24.26.47.4.76.28.55.48,1.14.66,1.75.17.64.35,1.32.48,2,.17.89.23,1.82.12,2.73-.1.92-.37,1.82-.79,2.61-.35.63-.77,1.12-1.2,1.67-.47.58-1.02,1.15-1.54,1.69-1.01,1.04-2.2,1.65-3.34,1.96-1.16.3-2.28.3-3.31.09-.51-.12-.7-.35-.64-.56,0-.03.02-.06.04-.09-.02,0-.03,0-.05,0h0c-.09,0-.17,0-.26,0-.15.17-.35.31-.62.41-.44.17-1.06.23-1.88.08-.5-.09-1.02-.17-1.43-.21-.87-.08-1.83-.45-2.7-1.01-.07-.04-.14-.09-.22-.15-.07-.06-.16-.14-.19-.16l-.26-.21c-.18-.14-.35-.29-.52-.44-.34-.3-.68-.61-1.01-.91-1.1-1.03-2.26-2-3.33-3.09-1.37-1.39-2.82-2.73-4.22-4.1-1.03-1.01-2.03-2.03-3.05-3.05-1.86-1.86-3.82-3.66-5.55-5.58-1.23-1.36-2.65-2.65-3.71-4.12-.34-.47-.88-.94-1.33-1.41-.59-.61-1.16-1.24-1.76-1.84-.43-.43-.89-.83-1.35-1.21-.63-.52-1.17-1.01-1.69-1.7-.43-.57-1.12-1.11-1.71-1.66-.29-.27-.68-.51-.89-.78-1.16-1.47-2.54-2.75-3.88-4.09-.52-.52-1.03-1.07-1.54-1.61-.15-.15-.3-.33-.42-.5-.12-.16-.2-.28-.29-.42-.17-.26-.31-.51-.46-.75-.7-1.19-1.26-2.42-1.71-3.72-.22-.66-.43-1.3-.57-2.09-.07-.4-.13-.83-.12-1.31,0-.12,0-.24.01-.36v-.17s.03-.12.03-.12l.05-.5c.07-.61.1-1.25.22-1.89.15-.8.37-1.62.71-2.43.17-.4.38-.8.61-1.19.12-.19.25-.38.38-.56.13-.18.27-.34.41-.5.34-.38.68-.78,1.04-1.16.18-.19.36-.38.55-.56l.28-.26.14-.13.07-.06.03-.02s.1-.08.14-.14c.19-.25.33-.39.46-.53l.38-.39.73-.72.64-.63c.11-.11.21-.2.32-.33l.33-.38c.63-.73,1.31-1.45,1.87-2.22.92-1.26,1.9-2.46,2.98-3.58.14-.14.25-.32.39-.47.33-.35.66-.7,1-1.03.11-.11.27-.19.35-.3,1.14-1.45,2.52-2.55,3.78-3.83.81-.82,1.68-1.58,2.52-2.36.54-.5,1.07-1.02,1.61-1.51.6-.55,1.23-1.06,1.83-1.62,1.2-1.12,2.38-2.26,3.55-3.39.17-.17.3-.38.48-.54l3.42-3.22.51-.48.26-.24s.04,0,.06.02l.06.06.12.13.99,1.01,1.86,1.89c1.39,1.4,2.84,2.74,4.22,4.15.97,1,1.84,2.08,2.8,3.1.53.56.95,1.24,1.68,1.65.24.13.54.48.78.75.72.81,1.38,1.66,2.13,2.45.54.57,1.18,1.08,1.79,1.61.24.21.5.38.74.59.69.62,1.39,1.25,2.07,1.89l1.96,1.86.98.93.24.23.34.33.85.83,2.79,2.74-3.92,3.01-1.27.98-1.11.84c-.93.7-1.87,1.4-2.82,2.09-1.32.95-2.64,1.89-3.94,2.85-.38.29-.73.64-1.07.97-.87.83-1.81,1.58-2.81,2.31-.68.49-1.34,1-2,1.51l-1,.77-.46.36-.05.06s-.09.09-.11.15l-.02.11v.05s0,.04,0,.04c.01.03.01.06.03.12ZM228.77,215.77l-.02.45c0,.31-.03.6-.06.9-.16,1.5-.72,2.89-1.43,4.14-.49.84-1,1.64-1.55,2.38l-.26.36c-.06.09-.14.15-.21.23l-.15.16-.43.46-.87.91c-.36.37-.76.72-1.13,1.08-1.57,1.53-3.13,3.08-4.71,4.6-.79.75-1.62,1.43-2.42,2.17-.6.55-1.19,1.13-1.78,1.7l-2.02,1.94c-.34.33-.68.68-1.03,1-.27.24-.55.49-.83.68-.85.58-1.66,1.3-2.43,2.08-1.71,1.71-3.42,3.41-5.1,5.14-1.24,1.29-2.43,2.62-3.63,3.95-.72.8-1.5,1.48-2.3,2.17-.42.36-.83.77-1.21,1.19-.99,1.09-1.96,2.2-3.11,3.1-.46.36-.93.64-1.38,1.01-.24.2-.49.41-.74.63-.12.11-.24.22-.36.33l-.18.18-.14.14-.14.12c-2.11,1.85-4.61,2.29-6.65,1.85-.51-.11-.7-.35-.64-.56,0-.03.02-.06.04-.09-.02,0-.03,0-.05,0h0c-.09,0-.17,0-.26,0-.15.17-.35.31-.62.41-.44.17-1.06.23-1.88.09-.5-.08-1.02-.17-1.44-.22-.88-.09-1.86-.48-2.74-1.12-.88-.64-1.66-1.53-2.22-2.49-.47-.81-.86-1.68-1.12-2.6-.26-.92-.39-1.88-.36-2.84.1-2.45.88-4.74,2.01-6.68l.32-.53.3-.46.6-.92,1.23-1.81c1.51-2.2,2.99-4.45,4.63-6.47,1.16-1.44,2.22-3.03,3.51-4.3.41-.41.79-1.02,1.18-1.53.51-.67,1.04-1.33,1.52-2.02.35-.49.67-1.01.96-1.53.4-.7.78-1.31,1.35-1.94.47-.52.87-1.3,1.28-1.97.21-.34.35-.76.57-1.02l.11-.13s.03-.04.07-.1c.03-.04.06-.09.1-.13l.11-.13.02-.02h0s.02-.02.02-.02l.06-.06c.07-.08.14-.15.18-.23.09-.15.13-.29.13-.46,0-.16-.06-.37-.13-.47-.04-.06-.08-.12-.13-.17-.02-.03-.05-.05-.08-.07l-.04-.03-.02-.02-.04-.03c-1.01-.72-1.97-1.5-3.01-2.22-2.04-1.42-4.04-2.89-6.06-4.33-.47-.33-.97-.61-1.44-.94-1.19-.81-2.35-1.63-3.43-2.57-.65-.57-1.44-1.07-2.16-1.62-1.47-1.1-2.95-2.2-4.42-3.29l1.45-1.46c.58-.58,1.16-1.17,1.75-1.75.23-.24.46-.47.69-.71.17-.17.33-.35.48-.53,1.01-1.19,2.06-2.3,3.18-3.35.14-.13.27-.31.41-.45.34-.33.68-.66,1.02-.97.11-.11.27-.18.35-.28,1.14-1.39,2.5-2.5,3.72-3.8.78-.83,1.62-1.61,2.43-2.42.51-.52,1.03-1.05,1.54-1.57.58-.57,1.18-1.12,1.74-1.71,1.13-1.18,2.25-2.38,3.37-3.58.16-.18.29-.39.45-.57l1.58-1.65c.33-.34.65-.68.98-1l.49-.49.25-.25.12-.12.03-.03.03.02.07.06c.71.61,1.42,1.21,2.12,1.84l.52.48.45.41.67.63,2.18,2.03c.72.67,1.43,1.33,2.15,2.02,1.01.98,1.89,2.07,2.87,3.08.53.56.96,1.25,1.69,1.67.24.14.54.49.78.76.71.83,1.37,1.69,2.1,2.5.54.59,1.16,1.12,1.75,1.67.24.22.49.4.73.62.67.65,1.35,1.31,2,1.98.63.65,1.26,1.31,1.88,1.97l1.86,1.96c1.78,1.89,3.63,3.78,5.24,6.04.72,1.02,1.41,2.13,1.97,3.36.38.86.71,1.77.92,2.75.21.97.31,2,.26,3.02,0,.15,0,.3-.01.45ZM242.79,147.98c-.09.49-.23.97-.39,1.44l-.25.69c-.1.23-.2.46-.31.69-.45.91-1.07,1.74-1.81,2.45-1.49,1.43-3.53,2.25-5.56,2.43-.38.02-.76.06-1.14.08-.38.02-.75.03-1.07.04-1.65.07-3.36-.57-4.79-1.51-1.11-.74-2.11-1.5-3.11-2.29-1-.78-1.98-1.58-2.95-2.38-1.95-1.6-3.87-3.23-5.85-4.78-1.4-1.09-2.92-2.31-4.13-3.63-.18-.19-.51-.39-.77-.59-1.98-1.53-3.96-3.07-5.94-4.6-.38-.29-.8-.58-1.16-.79-1.72-.94-3.39-2.2-5.07-3.43-.12-.08-.23-.17-.34-.27-.05-.04-.12-.1-.15-.14l-.08-.08c-.11-.11-.24-.21-.38-.28-.25-.13-.58-.25-.88-.16-.51.14-.94.53-1.14,1.01-.1.25-.14.49-.13.77.02.43.03.87.05,1.3.15,3.36.23,6.71.05,10.07-.05.96-.23,1.87-.25,2.82-.06,2.22-.09,4.47-.06,6.69.02,1.32.03,2.64.05,3.96l-2.36.04-2.09.04c-1.13.03-2.25.05-3.38.08-2.73.05-5.48.06-8.21.12-1.73.04-3.45.18-5.18.2-2.09.02-4.2-.09-6.28-.03-1.38.04-2.93-.24-4.19.18-.15.05-.53.06-.75.04-1.81-.18-3.56-.05-5.38.02-2.6.1-5.2.35-7.85.21-1.07-.05-2.09-.26-3.15-.27-1.22-.01-2.46.11-3.69.18-1.08.06-2.15.16-3.24.2-1.37.05-2.8.14-4.13.07-2.32-.11-4.16.25-6.21.45-1.15.11-2.71-.02-3.86-.19-2.32-.35-4.32-.87-4.91-1.76-.07-.11.02-.29.25-.37.28-.1.57-.19.85-.28h-1.13v-.38c-.23-.39-.41-1.06-.52-2.05-.32-2.87-.49-5.84-.45-8.92-.1-1.41-.29-2.82-.3-4.24-.01-2.37.08-4.74.15-7.11,0-.12.01-.24.02-.36l.03-.21c.01-.07,0-.15,0-.21-.01-.09-.04-.19-.07-.28-.2-.58-.51-1.12-.89-1.48-.38-.37-.82-.53-1.33-.55-.25-.01-.5.03-.73.12-.23.09-.43.2-.64.38-.54.49-1.08.98-1.62,1.47-.4.36-.78.72-1.17,1.09l-1.16,1c-.77.67-1.54,1.34-2.34,2-1.18.97-2.43,1.89-3.65,2.83l-3.47,2.69-3.18,2.42-4.98,3.82-2.27,1.71-2.15,1.73c-.56.47-1.13.96-1.75,1.43-.31.23-.63.47-.97.69-.34.22-.69.43-1.04.62-1.29.68-2.72,1.16-4.22,1.29-1.04.09-2.1.03-3.11-.21-1.02-.24-2-.63-2.89-1.18-1.79-1.07-3.2-2.78-3.89-4.74-.39-1.06-.63-2.23-.68-3.42-.02-1.19.17-2.4.62-3.49.4-.98.96-1.89,1.61-2.69.65-.79,1.32-1.47,2.01-2.15,1.74-1.7,3.57-3.25,5.41-4.77.48-.4.99-.84,1.46-1.15,1.48-.97,2.76-2.21,3.96-3.38.96-.94,1.91-1.85,2.89-2.76.96-.92,1.96-1.82,3.04-2.68,1.16-.93,2.29-2.03,3.43-3.06,1.92-1.74,3.85-3.43,5.57-5.34.73-.81,1.75-1.66,2.67-2.39,1.54-1.22,3.07-2.42,4.6-3.69.39-.32.78-.64,1.17-.94l.59-.46c.21-.16.43-.32.65-.47.44-.3.91-.58,1.38-.83.24-.12.48-.24.72-.35l.36-.16.39-.16.49-.19s.08-.02.13-.02h.13s.26-.02.26-.02l.79-.03,1.49-.07c1-.05,1.99-.1,2.99-.17,3.09-.2,6.19-.53,9.41-.44,1.61.05,3.31-.16,4.98-.2,1.23-.03,2.53-.04,3.7.06,3.43.29,6.85.03,10.27.06,2.02.02,4.05.05,6.07.07.75.01,1.49.06,2.24.07,2.97.02,5.93-.08,8.87.23,1.33.14,2.87.06,4.31.09,1.83.04,3.69.02,5.47.14,1.31.08,2.48.06,3.72-.05,3.23-.27,6.51-.25,9.81-.17,1.31.03,2.66-.07,3.99-.09l2.62-.05,1.31-.02c.49.03,1.01.03,1.48.12l.58.1.57.15c.38.09.75.23,1.12.35,1.23.43,2.36,1.04,3.41,1.72,1.05.68,2.01,1.44,2.93,2.24,1.83,1.58,3.47,3.32,5.12,4.93.48.48.99.94,1.51,1.41.26.23.51.47.78.69.27.22.54.45.8.68,1.04.91,2.02,1.87,3.04,2.8.3.27.62.53.94.8.53.45,1.09.89,1.6,1.36,1.49,1.37,2.98,2.73,4.46,4.09.26.24.53.48.81.69,1.45,1.11,2.9,2.21,4.33,3.35.6.47,1.28,1.01,1.74,1.52,1.53,1.72,3.37,3.14,5.03,4.74l1.46,1.43c.49.48.99.99,1.47,1.52.24.27.48.53.7.82l.34.42.32.44c.71.98,1.32,2.11,1.59,3.36.29,1.24.26,2.53.02,3.69Z"/>
</svg>