<?xml version="1.0" encoding="UTF-8"?>
<svg id="Layer_11" data-name="Layer 11" xmlns="http://www.w3.org/2000/svg" viewBox="0 0 211.98 252">
  <defs>
    <style>
      .cls-1 {
        fill: #737438;
      }
    </style>
  </defs>
  <path class="cls-1" d="M3.18,51.43c4.18-.95,6.64,1.49,9.54,4.01,10.85,9.43,19.33,25.15,35.25,26.15,8.96.56,18.13-.45,27.03-.5,44.99-.28,90.02.29,134.98.69,2.62.8,1.97,6.28,1.83,8.75-1.44,24.56-20.79,46.29-42.64,55.86-3.84,1.68-8.01,2.68-11.75,4.29-11.42,4.91-17.45,17.68-26.26,25.97-2.87,4.18-1.93,6,.73,9.81,2.07,2.97,11.47,14.53,13.96,16.28,4.85,3.41,7.65.45,12.55.24,21.29-.91,33.09,24.32,19.48,40.55-14.72,17.54-42.37,5.8-42.18-16.48.06-6.94,4.32-8.88-.69-15.77-2.96-4.07-10.29-12.31-13.94-15.84-2.51-2.43-3.72-1.77-6.19.21-2.01,1.61-13.5,14.24-14.51,16.19-1.93,3.7.57,6.88.95,10.68,2.1,20.76-19.82,35.53-37.48,23.28-18.79-13.03-9.94-43.99,13.46-44.66,4.16-.12,9.98,2.85,13.04,1.13l14.43-16.73c2.91-4.24,2.41-5.09-.46-9.09-4.81-6.71-18.5-22.09-25.38-25.93-3.83-2.14-8.26-3.43-12.23-5.64-17.65-9.84-35.51-28.13-40.07-48.35-.61-2.7-.51-5.28-.96-7.74-.96-5.18-17.36-20.42-21.67-25.07-2.58-2.78-7.08-10.86-.81-12.28ZM125.09,155.93c-4.62.22-9.25.95-13.88.78-.89-.03-3.48-1.27-3.46.69,0,.72,8.23,10.54,9.19,11,.38.18.67.29,1.11.25,1.82-.18,9.01-9.91,10.74-11.71-.96-1.61-2.21-1.08-3.7-1.01Z"/>
  <path class="cls-1" d="M123.06.46c34.33-4.62,79.08,25.97,87.95,59.35.8,3,2.4,6.12-1.9,6.54-6.76.66-16.38.1-23.41,0-7.67-.12-15.65-.9-23.33-.96-12.87-.09-27.31,1.55-39.9.5-2.81-.24-3.64-.55-3.9-3.43-1.56-17.11.78-37.17.5-54.56-.07-4.28-2.06-6.61,3.99-7.42Z"/>
</svg>