<?xml version="1.0" encoding="UTF-8"?>
<svg id="Dark_Rocks" data-name="Dark Rocks" xmlns="http://www.w3.org/2000/svg" viewBox="0 0 299.15 253.66">
  <defs>
    <style>
      .cls-1 {
        fill: #51594b;
      }

      .cls-2 {
        fill: #636c5b;
      }

      .cls-3 {
        fill: #3c4439;
      }
    </style>
  </defs>
  <path class="cls-1" d="M23.01,1.07c7.09-.84,14.03,3.02,20.7,3.67s17.15-1.71,22.79,1.98c2.2,1.44,5.16,6.25,7.43,6.56,3.67.5,11.19-3.9,15.64-4.46,7.39-.93,8.91,2.63,14.6,5.12,6.46,2.83,18.56,5,23.12,9.39,10.33,9.96.72,29.35,16.13,38.83,5.56,3.42,12.09,5.66,17.79,9.31,3.36,2.15,10.62,9.22,14.1,9.2,5.16-.03,5.15-10.89,8.09-14.4,3.47-4.14,9.2-1.54,13.37-.17,19.51,6.42,36.32,18.27,54.38,27.67,5.52,3.03,4.16,11.17,7.69,14.75s12.16,2.69,15.29,8.7c.99,1.9,2.15,7.36,2.19,9.49.09,4.42-2.15,12.4-.4,16.58,1.84,4.4,13.86,5.79,17.8,9.29,9.18,8.17,4.03,31.12,3.48,42.21-.5,10.07.17,22.04-.79,31.72-.81,8.13-4.85,14.9-13.54,15.88-9.83,1.11-20.11-2.6-31-2.36-16.56.36-35.95,1.15-52.07,4.44-10.63,2.17-21.37,6.5-31.85,8.4-17.42,3.15-27.91-4-44.54-5.05-25.35-1.6-61.84,7.43-83.92-5.87-18.22-10.98-16.13-23.37-21.35-41.35-5.31-18.28-18.31-38.19-12.21-57.89,2.79-9.02,11.66-15.98,11.08-25.36-.42-6.7-3.39-14.42-3.89-21.65-.71-10.3,1.81-22.07.68-31.65-1.48-12.53-11.87-27.56-11.46-41.04.29-9.5,6.52-7.72,10.02-11.66,3.64-4.09,1.65-9.21,10.63-10.28Z"/>
  <g>
    <path class="cls-3" d="M80.59,23.57c-2.06,6.48-10.21,6.68-15.89,6.22-11.9-.97-23.91-12.29-35.41-9.92-8.01,1.65-6.72,6.69-5.45,12.84,2.93,14.25,16.87,40.64,16.53,52.37-.03,1.17.51,2.27-1.18,1.95-3.79-1.88-18.42-40.93-20.13-47.21-2.87-10.56-6.23-21.18,6.93-25.58,12.63-4.23,20.55,3.3,31.4,7.38,8.06,3.03,14.63,3.61,23.2,1.95Z"/>
    <path class="cls-3" d="M298.68,163.13c-.17-1.36-.42-2.72-.87-4.02-.3-.85-.7-1.65-1.1-2.45-.79-1.56-1.76-3.02-2.99-4.27-.67-.69-1.41-1.31-2.19-1.88-7.67-5.56-20.17-2.5-17.42-17.03-5.51.42-5.21,7.74-2.67,11.57,4.74,7.11,15.61,3.88,20.34,11.39,4.02,6.39-.65,6.27-4.51,10.7-.91,1.04-1.3,2.94-1.92,3.51-1.12,1.01-2.59.37-3.57,1.26-2.43,2.24-9.7,32.09-10.56,37.24-.27,1.64-1.26,5.13.18,6.36,2.11-3.17,4.24-7.08,5.62-10.62,3.71-9.52,7.13-31.44,14.87-37.76,1.58-1.29,3.47-2.11,5.5-2.34.27-.03.53-.05.8-.06.13,0,.12,0,.25,0,.15,0,.39.03.37-.18-.04-.47-.09-.94-.14-1.41Z"/>
    <path class="cls-3" d="M176.39,79.11c2.37-2.47,2.49-13.23,7.88-14.95,4.26-1.36,17.37,2.71,21.92,4.48,7.45,2.9,42.57,21.47,46.11,26.65,2.31,3.37,2.93,8.24,5.55,11.48,2.37,2.93,5.62,2.94,7.74,5.8-12.28,2.78-12.68-10.69-18.61-17.38-17.34-8.42-33.38-20.98-52.6-24.81-2.23-.45-5.9-1.64-7.97-1.02-3.93,1.18-3.42,15.57-13.11,14.43-5.12-.6-17.08-11.02-22.02-14.42-4.52-3.11-10.05-5.14-13.4-9.42,3.79.8,7.96,2.68,11.35,4.51,5.37,2.89,20.5,15.04,24.78,15.38.74.06,1.88-.2,2.38-.73Z"/>
    <path class="cls-3" d="M131.68,46.78c-5.25-5.01-2.62-14.54-7.71-19.77-4.07-4.18-16.31-6.97-22.23-9.5-2.56-1.1-5.43-3.77-7.96-4.42-8.19-2.12-14.9,4.49-22.03,3.46-5.35-.78-7.25-6.95-12.78-8.12-4.52-.96-9.76.23-14.92-.56-5.02-.78-9.6-2.89-14.49-4.08-2.11-.52-5.26.39-6.23-1.88,6.97-2.88,13.23,1.65,19.74,2.31,6.63.67,16.41-1.69,22.02,1.98,2.28,1.49,4.87,5.99,7.55,6.41,2.17.34,9.55-3.47,12.58-4.15,10.51-2.36,11.95,1.6,20.4,5.2,7.06,3,20.78,6.51,23.9,14.03,2.2,5.29,1.59,13.32,2.16,19.12Z"/>
    <path class="cls-3" d="M245.47,107.93l-8.76-7.1-38.25-15.94c-9.03-1.9-10.68,9.43-17.8,12.8-6.23,2.95-15.34.67-18.01-6.01.33-.32,7.4,2.11,8.99,2.25,12.71,1.17,12.05-18.03,28.36-15.23,11.79,7.01,28.92,11.58,39.98,18.84,4.09,2.68,6.01,5.13,5.48,10.38Z"/>
    <path class="cls-3" d="M219.93,159.79c-1.15-1.23.26-1.31,1.07-1.62,5.77-2.18,17.71,2.18,23.45,4.59,5.44,2.29,19.86,11.57,25.03,9.04,7.77-12.17-12.36-18.41-9.69-30.57,7.06,9.89,19,15.71,16.46,29.61-2.85,15.61-26.47.16-33.89-2.9-3.29-1.36-21.46-7.11-22.43-8.15Z"/>
    <path class="cls-3" d="M254.95,179.41c-16.02-3.96-32.09-8.62-47.81-13.72-3.19-1.04-7.42-2.13-10.28-3.68-1.08-.59-1.91.07-1.51-1.94,16.78,1.47,36.87,5.97,52.13,13.27.75.36,9.3,4.43,7.46,6.08Z"/>
    <path class="cls-3" d="M226.11,106.38c-1.94,1.78-21.81-7.79-25.95-7.76-5.35.05-7.16,7.73-11.58,8.55-2.55.47-.41-4.31,0-5.42,5.56-14.67,17.68-8.95,27.98-3.25.97.54,11.23,6.31,9.54,7.87Z"/>
    <path class="cls-3" d="M26.34,108.08c2.4-1.73,4.93-3.35,6.17-6.1.02-.05.05-.09.08-.14-3.28-15.13-9.12-36.94-12.03-41.07-1.52-2.15-4.33-3.7-5.58-6.03-1.79-3.35-8.96-24.86-9.38-28.54-.21-1.81-.41-5.07.08-6.72.94-3.23,9.21-5.34,9.58-9.7.08-.97-1.13-1.47-1.8-.76-2.85,3.01-8.14,4.49-10.28,7.19-6.14,7.72,1.92,25.49,4.38,34.85.01.02.02.04.04.06,1.19,2.49,2.29,5.07,3.95,7.3,1.33,1.79,2.87,3.26,3.9,5.27.44.86.79,1.77,1.09,2.71,3.21,6.94,5.15,17.46,6.41,22.98,1.34,5.87,2.06,12.45,3.4,18.73Z"/>
    <path class="cls-3" d="M291.78,156.45c.87,1.38,1.31,2.45,1.47,3.34,1.49-.32,3.02-.48,4.53-.71-1.38-3.4-2.9-6.14-6.25-8.57-7.67-5.56-20.17-2.5-17.42-17.03-5.51.42-5.21,7.74-2.67,11.57,4.74,7.11,15.61,3.88,20.34,11.39Z"/>
  </g>
  <g>
    <path class="cls-2" d="M79.68,22.62c-2.06,6.48-10.21,6.68-15.89,6.22-11.9-.97-23.91-12.29-35.41-9.92-8.01,1.65-6.72,6.69-5.45,12.84,2.93,14.25,16.87,40.64,16.53,52.37-.03,1.17.51,2.27-1.18,1.95-3.79-1.88-18.42-40.93-20.13-47.21-2.87-10.56-6.23-21.18,6.93-25.58,12.63-4.23,20.55,3.3,31.4,7.38,8.06,3.03,14.63,3.61,23.2,1.95Z"/>
    <path class="cls-2" d="M175.48,78.16c2.37-2.47,2.49-13.23,7.88-14.95,4.26-1.36,17.37,2.71,21.92,4.48,7.45,2.9,42.57,21.47,46.11,26.65,2.31,3.37,2.93,8.24,5.55,11.48,2.37,2.93,5.62,2.94,7.74,5.8-12.28,2.78-12.68-10.69-18.61-17.38-17.34-8.42-33.38-20.98-52.6-24.81-2.23-.45-5.9-1.64-7.97-1.02-3.93,1.18-3.42,15.57-13.11,14.43-5.12-.6-17.08-11.02-22.02-14.42-4.52-3.11-10.05-5.14-13.4-9.42,3.79.8,7.96,2.68,11.35,4.51,5.37,2.89,20.5,15.04,24.78,15.38.74.06,1.88-.2,2.38-.73Z"/>
    <path class="cls-2" d="M130.76,45.83c-5.25-5.01-2.62-14.54-7.71-19.77-4.07-4.18-16.31-6.97-22.23-9.5-2.56-1.1-5.43-3.77-7.96-4.42-8.19-2.12-14.9,4.49-22.03,3.46-5.35-.78-7.25-6.95-12.78-8.12-4.52-.96-9.76.23-14.92-.56-5.02-.78-9.6-2.89-14.49-4.08-2.11-.52-5.26.39-6.23-1.88,6.97-2.88,13.23,1.65,19.74,2.31,6.63.67,16.41-1.69,22.02,1.98,2.28,1.49,4.87,5.99,7.55,6.41,2.17.34,9.55-3.47,12.58-4.15,10.51-2.36,11.95,1.6,20.4,5.2,7.06,3,20.78,6.51,23.9,14.03,2.2,5.29,1.59,13.32,2.16,19.12Z"/>
    <path class="cls-2" d="M244.55,106.98l-8.76-7.1-38.25-15.94c-9.03-1.9-10.68,9.43-17.8,12.8-6.23,2.95-15.34.67-18.01-6.01.33-.32,7.4,2.11,8.99,2.25,12.71,1.17,12.05-18.03,28.36-15.23,11.79,7.01,28.92,11.58,39.98,18.84,4.09,2.68,6.01,5.13,5.48,10.38Z"/>
    <path class="cls-2" d="M225.2,105.43c-1.94,1.78-21.81-7.79-25.95-7.76-5.35.05-7.16,7.73-11.58,8.55-2.55.47-.41-4.31,0-5.42,5.56-14.67,17.68-8.95,27.98-3.25.97.54,11.23,6.31,9.54,7.87Z"/>
    <path class="cls-2" d="M25.42,107.13c2.4-1.73,4.93-3.35,6.17-6.1.02-.05.05-.09.08-.14-3.28-15.13-9.12-36.94-12.03-41.07-1.52-2.15-4.33-3.7-5.58-6.03-1.79-3.35-8.96-24.86-9.38-28.54-.21-1.81-.41-5.07.08-6.72.94-3.23,9.21-5.34,9.58-9.7.08-.97-1.13-1.47-1.8-.76-2.85,3.01-8.14,4.49-10.28,7.19-6.14,7.72,1.92,25.49,4.38,34.85.01.02.02.04.04.06,1.19,2.49,2.29,5.07,3.95,7.3,1.33,1.79,2.87,3.26,3.9,5.27.44.86.79,1.77,1.09,2.71,3.21,6.94,5.15,17.46,6.41,22.98,1.34,5.87,2.06,12.45,3.4,18.73Z"/>
  </g>
</svg>