<?xml version="1.0" encoding="UTF-8"?>
<svg id="Sky" xmlns="http://www.w3.org/2000/svg" viewBox="0 0 674.42 430.88">
  <defs>
    <style>
      .cls-1 {
        fill: #56abc8;
      }

      .cls-2 {
        fill: #229ad2;
      }

      .cls-3 {
        fill: #88bdbf;
      }
    </style>
  </defs>
  <path class="cls-1" d="M379.53,2.85c69.93-5.94,83.43,53.84,106.07,103.24,10.85,23.67,17.76,34.24,46.22,32.8,41.12-2.09,80.34-21.95,117.25,8.86,55.41,46.26-6.94,116.69-.68,170.21,3.01,25.75,12.59,44.52.81,70.67-27.4,60.83-118.01,20.15-167.75,21.12-33.19.65-64.4,14.5-96.85,19.26-67.81,9.93-129.78-22.43-195.71-28.51-50.01-4.61-92.25,6.27-136.08-25.69-12.15-8.86-37.53-37.68-37.74-52.87-.04-2.76,1.56-7.33,1.2-9.01-.51-2.35-6.46-11.96-7.93-15.95-10.96-29.74-6.01-55.82,14.55-79.53,12.23-14.1,29.75-23.16,41.8-37.16,30.08-34.94,14.16-90.24,37-130.2,13.3-23.26,38.76-37.35,65.76-30.66,23.09,5.72,37.78,28.72,60.5,33.16,42.76,8.34,103.94-45.69,151.6-49.73Z"/>
  <g>
    <path class="cls-2" d="M508.55,168.99c-17.03,1.39-31.57-8.7-41.78-21.3-22.03-27.21-16.33-63.73-41.8-89.79-23.62-24.17-50.52-20.9-79.25-8-9.33,4.19-18.01,11.47-28.36,12.27-2.28-2.28,6.86-9.11,8.58-10.38,41.94-30.79,92.39-34.17,120.31,15.78,19.22,34.38,7.49,71.3,48.35,94.08,4.52,2.52,10.06,4.16,13.95,7.33Z"/>
    <path class="cls-2" d="M337.48,19.6c-.72-4.77,5.85-6.98,9.54-8.65,27.53-12.41,55.16-12.24,77.42-.83,21.54,11.04,37.98,32.71,49.16,57.19,7.06,15.46,19.54,54.54,31.48,64.5,14.4,12.02,44.64,3.73,61.87,3.09,1.72-.06,7.93-.64,7.39,1.95-2.88,3.16-8.13,3.93-12.22,4.81-15.31,3.29-42.18,7.65-56.43,1.15-19.63-8.95-31.55-55.42-40.71-74.62C444.31,24.88,405.15.76,356.83,14.57c-6.45,1.84-12.45,5.71-19.36,5.03Z"/>
    <path class="cls-2" d="M83.59,154.29c1.63,1.61-5.24,16.74-6.56,19.37-11.45,22.72-33.76,30.11-47.48,50.06-17.12,24.9-19.19,54.42-7.24,82.04,4.25,9.82,11.26,17.98,15.6,27.74-.16,3.91-10.66-3.77-11.61-4.63-30.93-28.19-35-81.38-6.57-112.66,16.77-18.46,38.51-23.64,52.58-45.72,2.09-3.29,6.97-13.9,8.93-15.68.85-.77,1.3-.55,2.36-.51Z"/>
    <path class="cls-2" d="M280.73,47.24c-3.57,4.07-29.66,10.61-35.76,11.06-20.49,1.51-42.42-14-59.96-22.84-27.38-13.8-52.44-10-72.8,13.16-13.7,15.58-17.53,36.75-23.21,56.14-2.96.04-3.1-5.17-3.03-7.23.99-28.33,20.66-69.2,49.07-77.88,34.44-10.52,48.48,8.37,75.99,21.52,20.16,9.64,29.01,13.13,51.53,7.63,4.22-1.03,13.32-5.02,16.56-5.18,2.81-.14,3.25,1.75,1.6,3.62Z"/>
    <path class="cls-2" d="M328.69,232.09c-.43-.19-.85-.42-1.25-.69-1.03-.72-1.82-1.73-2.7-2.63-.96-1-1.59-1.82-2.11-3.09s-1.18-2.66-2.19-3.64c-.63-.61-3.94-3.5-3.08-4.26,4.25-.24,14.85,7.1,17.84,3.31,1.23-1.55,1.72-5.25,2.67-7.18,5.37-10.97,18.04-8.5,27.46-5.02,16.36,6.04,33.97,16.97,49.92,24.39,6.4,4.18,7.23,13.98,12.02,18.94,3.41,3.53,8.59,5.11,11.14,10.53,4.8,10.21-1.13,18.26.8,26.3,1.4,5.81,8.79,5.26,11.25,9.63-.24,2.76-10.06-.4-11.78-1.36-2.76-1.55-5.85-5.53-5.95-8.76-.2-5.98.74-13.11-.12-19.22-1.05-7.42-8.76-3.9-13.75-7.63-6.6-4.93-5.94-14.73-14.88-20.25-9.16-5.66-19.22-10.2-29.33-13.88-3.11-1.13-6.34-2.34-9.62-3.09-2.21-.5-4.47-.69-6.67-1.18s-4.06-1.78-6.24-2.07c-.53-.07-1.11-.07-1.57.21-1.35.81-1.06,3.16-2.01,4.36-1.91,2.43-4.54,5.27-7.45,6.46-2.22.91-4.67.85-7.02.76-1.81-.08-3.71-.19-5.38-.91Z"/>
    <path class="cls-2" d="M119.96,79.2c-4.53-1.12-3.01-7.61-2.09-11,5.97-21.92,32.76-27.75,52.24-21.73,29.7,9.18,35.86,34.82,73.35,33.53,2.9-.1,6.53-2.21,8.85.36-7.93,10.27-22.22,9.79-33.61,6.53-16.93-4.85-30.02-19.84-45.83-26.93-22.81-10.24-42.86-3.67-52.92,19.24Z"/>
    <path class="cls-2" d="M302.64,211.82c-16.1-5.74-9.48-25.92-18.25-37.09l-29.72-12.85c-5.66-1.45-12.29,4.4-18.05,4.31-8.22-.13-9.64-8.08-15.83-9.14-4.33-.74-9.32.18-13.73-.2-8.95-.77-18.63-2.4-26.79,2.27-.89.51-1.79,1.05-2.8,1.23-.92.16-1.81.12-2.57.72-.41.32-.74.78-1.13,1.13-1.06.93-2.27,1.72-3.5,2.4-1.62.9-5.79,2.87-6.16-.36,1.21-2.13,4.6-3.38,5.79-5.06,3.13-4.4.84-8.32,8.39-11.74,9.13-4.13,18.46.19,27.2.94,8.23.71,15.46-2.45,23.13.86,2.54,1.1,5.88,4.32,7.92,4.52,5.99.59,11.93-3.56,20.29-1.77,4.58.98,23.94,9.26,28.54,11.71,15.1,8.04,8.84,22.53,11.43,35.01.99,4.77,5.46,8.3,5.85,13.11Z"/>
    <path class="cls-2" d="M644.12,311.3c-.87-10.1.5-19.5,2.59-29.3,7.67-35.99,26.46-58.17,17.18-97.67-6.37-27.11-33.38-43.92-59.36-48.63.39-3.86,6.03-4.35,8.93-4.09,39.24,3.55,63.66,39.21,60.73,78.79-2.08,28.1-20.15,54.79-24.18,81.68-.5,3.37-.45,19.36-3.39,20.02l-2.5-.8Z"/>
    <path class="cls-2" d="M164.09,203.06c.28,1.24-.43,1.58-1.13,2.34-3.17,3.42-8.57,11.14-12.72,12.35-5.76,1.68-13.55.25-17.87,5.82-7.61,9.81-7.4,27.1-18.55,37.96-4.97,4.83-12.83,5.75-16.45,12.19-1.91,3.4-2.39,7.66-3.15,11.42-.9,4.43-1.76,9.07-3.85,13.13-.85,1.66-1.96,3.17-3.45,4.31s-3.04,1.12-4.69,1.67c-.68.23-1.32.57-2.02.67-5.26.76-1.68-4.44.05-6.12s4.83-3.37,5.51-5.73c1.48-5.11.79-15.41,1.8-21.42,3.03-17.97,16.3-13.67,22.91-26.63,5.22-10.25,7.27-29.23,20-32.63,5.24-1.4,9.79-.22,15.03-2,6.25-2.12,11.18-9.9,18.6-7.32Z"/>
    <path class="cls-2" d="M580.54,299.04c-.25-1.3.29-1.62,1.34-2.13,3.18-1.54,11.41-2.01,15.54-3.04,17.05-4.21,26.55-13.85,34.09-29.38,13.64-28.09,20.71-67.19-2.95-92.04-1.91-2-11.64-8.89-11.67-10.8-.05-3.81,7.88.71,9.83,1.8,42.36,23.81,25.06,101.44-6.7,127.48-10.81,8.86-26.09,12.79-39.49,8.11Z"/>
    <path class="cls-2" d="M615.36,318.39c-11.82,3.54-24.52,2.32-36.8,2.3-14.17-.03-28.27-.74-42.5-.71-4.58,0-16.86-.41-20.55-1.97-6.68-2.82-5.22-7.4-7.84-11.51-2.28-3.57-11.87-5.93-15.87-4.23-2.72,1.16-6.7,7.24-8.42,7.61-5.61-3.34,1.73-12.75,5.44-15.47,6.9-5.06,19.94-1.02,25.93,4.25,6.55,5.75,4.61,8.26,15.29,10.26,18.26,3.42,40.04,1.33,58.64,5.61,4.43.83,23.26-.16,25.58,1.51.79.57,1.32,1.32,1.12,2.36Z"/>
    <path class="cls-2" d="M617.69,214.28c-1.69-16.7-14.88-33.24-30.2-39.46-11.19-4.55-20.96-3.73-32.5-5.44-.05-7.66,21.75-7.76,26.62-7.25,28.36,2.97,56.95,40.32,44.61,67.65-1,2.21-5.82,11.04-8.52,7.73-.55-7.47.74-15.89,0-23.22Z"/>
    <path class="cls-2" d="M38.2,297.22c2.25,2.18,6.26,3.81,9.39,4.15,12.06,1.31,11.33-3.7,17.1-11.55,1.54-2.09,4.48-3.87,5.56-6.05,1.57-3.17-.05-8.17.2-12.2.44-7.25,3.23-13.65,9.67-17.42.75,3.77-1.58,7.47-1.93,11.23-.68,7.2,2.33,13.17-.63,20.27-1.73,4.16-5.88,6.55-8.67,9.91-3.76,4.54-4.57,9.64-11.45,11.78-12.27,3.8-24.38-2.94-29.47-14.21-8.69-19.24-4.5-45.07,7.31-62.13,3.23-4.66,7.92-10.08,13.47-11.68-7.32,15.64-16.64,31.48-17.69,49.25-.45,7.59,1.51,23.18,7.14,28.65Z"/>
    <path class="cls-2" d="M288.72,148.1c11.92-.34,20.13,10.6,22.24,21.48,1.71,8.82-1.33,22.73,8.16,27.44,8.41,4.18,14.7-8.52,20.75-12.87,10.41-7.48,17.9-.09,27.52,4.85,4.41,2.27,9.47,2.88,12.65,7.46.04,2.27-7.27.48-8.66.16-5.45-1.26-18.67-7.88-22.6-7.5-5.97.58-13.17,13.24-19.82,15.85-5.33,2.08-9.09.99-13.94-1.53-18.07-9.37-3.91-31.53-15.85-45.3-3.23-3.73-8.77-5.42-10.45-10.05Z"/>
  </g>
  <g>
    <path class="cls-3" d="M507.97,167.39c-17.03,1.39-31.57-8.7-41.78-21.3-22.03-27.21-16.33-63.73-41.8-89.79-23.62-24.17-50.52-20.9-79.25-8-9.33,4.19-18.01,11.47-28.36,12.27-2.28-2.28,6.86-9.11,8.58-10.38,41.94-30.79,92.39-34.17,120.31,15.78,19.22,34.38,7.49,71.3,48.35,94.08,4.52,2.52,10.06,4.16,13.95,7.33Z"/>
    <path class="cls-3" d="M336.91,18c-.72-4.77,5.85-6.98,9.54-8.65,27.53-12.41,55.16-12.24,77.42-.83,21.54,11.04,37.98,32.71,49.16,57.19,7.06,15.46,19.54,54.54,31.48,64.5,14.4,12.02,44.64,3.73,61.87,3.09,1.72-.06,7.93-.64,7.39,1.95-2.88,3.16-8.13,3.93-12.22,4.81-15.31,3.29-42.18,7.65-56.43,1.15-19.63-8.95-31.55-55.42-40.71-74.62C443.74,23.28,404.58-.84,356.26,12.97c-6.45,1.84-12.45,5.71-19.36,5.03Z"/>
    <path class="cls-3" d="M83.01,152.69c1.63,1.61-5.24,16.74-6.56,19.37-11.45,22.72-33.76,30.11-47.48,50.06-17.12,24.9-19.19,54.42-7.24,82.04,4.25,9.82,11.26,17.98,15.6,27.74-.16,3.91-10.66-3.77-11.61-4.63-30.93-28.19-35-81.38-6.57-112.66,16.77-18.46,38.51-23.64,52.58-45.72,2.09-3.29,6.97-13.9,8.93-15.68.85-.77,1.3-.55,2.36-.51Z"/>
    <path class="cls-3" d="M280.16,45.64c-3.57,4.07-29.66,10.61-35.76,11.06-20.49,1.51-42.42-14-59.96-22.84-27.38-13.8-52.44-10-72.8,13.16-13.7,15.58-17.53,36.75-23.21,56.14-2.96.04-3.1-5.17-3.03-7.23.99-28.33,20.66-69.2,49.07-77.88,34.44-10.52,48.48,8.37,75.99,21.52,20.16,9.64,29.01,13.13,51.53,7.63,4.22-1.03,13.32-5.02,16.56-5.18,2.81-.14,3.25,1.75,1.6,3.62Z"/>
    <path class="cls-3" d="M119.39,77.6c-4.53-1.12-3.01-7.61-2.09-11,5.97-21.92,32.76-27.75,52.24-21.73,29.7,9.18,35.86,34.82,73.35,33.53,2.9-.1,6.53-2.21,8.85.36-7.93,10.27-22.22,9.79-33.61,6.53-16.93-4.85-30.02-19.84-45.83-26.93-22.81-10.24-42.86-3.67-52.92,19.24Z"/>
    <path class="cls-3" d="M37.63,295.61c2.25,2.18,6.26,3.81,9.39,4.15,12.06,1.31,11.33-3.7,17.1-11.55,1.54-2.09,4.48-3.87,5.56-6.05,1.57-3.17-.05-8.17.2-12.2.44-7.25,3.23-13.65,9.67-17.42.75,3.77-1.58,7.47-1.93,11.23-.68,7.2,2.33,13.17-.63,20.27-1.73,4.16-5.88,6.55-8.67,9.91-3.76,4.54-4.57,9.64-11.45,11.78-12.27,3.8-24.38-2.94-29.47-14.21-8.69-19.24-4.5-45.07,7.31-62.13,3.23-4.66,7.92-10.08,13.47-11.68-7.32,15.64-16.64,31.48-17.69,49.25-.45,7.59,1.51,23.18,7.14,28.65Z"/>
  </g>
</svg>