<?xml version="1.0" encoding="UTF-8"?>
<svg id="Light_Rocks" data-name="Light Rocks" xmlns="http://www.w3.org/2000/svg" viewBox="0 0 672.6 307.35">
  <defs>
    <style>
      .cls-1 {
        fill: #89937c;
      }

      .cls-2 {
        fill: #76806c;
      }

      .cls-3 {
        fill: #636c5b;
      }
    </style>
  </defs>
  <g>
    <path class="cls-2" d="M147.34,3.99c14.48-2.11,21.6,25.48,23.94,36.07,2.34,10.58,3.01,21.79,5.72,32.21,6.6,25.42,17.07,50.9,22.79,77.07,1.41,6.45,5.46,18.98,0,24.02-4.92,4.55-16.91,3.12-19.39,5.38-3.22,2.94,1.56,26.37-7.89,28.49-9.13,2.05-18.8-6.26-28.3-4.3-7.73,1.6-14.72,14.27-21.15,14.5-6.17.22-10.72-10.75-16.92-11.61-12.93-1.8-31.45,8.43-45.62,6.91-15.28-1.64-14.5-25.76-3.52-33.53,7.7-5.45,10.2-1.1,9.14-13.88-1.32-15.82-10.35-41.26-8.35-55.77,1.63-11.82,13.09-8.83,15.23-19.6,1.5-7.55.24-16.12,6.03-22.61,3.59-4.01,10.06-5.23,14.22-8.22,12.8-9.18,11.3-38,24.39-42.18,4.53-1.45,8.34-.54,13.34-2.91,5-2.37,10.98-9.26,16.31-10.04Z"/>
    <path class="cls-2" d="M471.63,99.19c3.32-.99,18.24,2.89,20.76,5.24,5.74,5.35,1.49,18.16,5.47,20.85,8.82,3.41,27.63,6.2,34.03,13.19,6.56,7.15-2.72,15.94,5.05,22.04,6.56,5.15,13.9,8.29,19.69,15.14,5.17,6.12,6.35,13.18,10.81,19.38,14.65,7.65,44.75,7.56,42.2,30.56-1.68,15.2-19.94,16.69-31.49,12.13-7.24-2.86-17.45-6.69-24.23-9.83-4.1-1.9-8.04-6.13-12.35-7-9.8-1.98-16.52,3.02-27.17-2.25-3.25-1.61-5.59-4.76-8.7-6-9.93-3.96-21.56,5.54-29.6-4.46-2.39-2.97-2.9-6.94-6.89-8.59-7.02-2.9-23.66-3.18-32.32-4.83-9.98-1.9-26.03-4.64-26.9-17.29-.54-7.83,7.91-26.45,10.82-34.69,2.61-7.39,6.34-26.26,13.37-29.98,9.31-4.94,18.72,5.23,25.55,3.11,3.7-1.15,6.93-15.23,11.92-16.73Z"/>
    <path class="cls-2" d="M14.19,192.11c16.49-2.81,23.73,10.35,24.23,24.94.56,16.19-7.94,15.27-21.31,14.34-11.74-.82-15.89-1.66-16.68-14.28-.63-10,2.03-23,13.76-25Z"/>
    <path class="cls-2" d="M647.77,230.43c-2.71-4.77.31-20.45,5.77-22.1,5.74-1.74,17.71,8.98,18.49,14.54,1.2,8.56-18.72,11.82-24.25,7.57Z"/>
    <path class="cls-2" d="M593.16,271.81c3.5-.79,8.78-.2,11.8,1.81,6.62,4.42,5.04,17.94-3.43,18.94-4.67.55-15.56,1-17.8-3.9-1.94-4.24,4.5-15.74,9.43-16.85Z"/>
    <path class="cls-2" d="M42.48,247.44c-4.24-4.24-1.96-18.32,5.77-19.73,10.88-1.98,17.04,3.44,12.76,14.31-2.5,6.36-13.92,10.03-18.53,5.42Z"/>
    <path class="cls-2" d="M19.61,245.46c8.85-1.79,13.82,12.29,3.51,14.4-11.35,2.33-10.98-12.89-3.51-14.4Z"/>
    <path class="cls-2" d="M560.3,305.51c-3.79-6.32,3.4-12.84,9.03-7.87,7.71,6.81-2.51,12.88-9.03,7.87Z"/>
  </g>
  <g>
    <path class="cls-3" d="M592.22,291.65c4.53-1.53,9.53.42,13.17-3.48,2.91-3.12,2.86-7.87.35-11.22-1.72-2.31-5.64-2.2-5.01-5.43,12.55,1.26,12.55,19.82.32,21.6-2.22.32-7.67.86-8.83-1.47Z"/>
    <g>
      <g>
        <g>
          <path class="cls-3" d="M177.35,64.42c-.48-8.16-10.31-48.7-14.4-54.49-1.14-1.61-2.99-2.88-4.38-4.4-1.42-.84-2.89-1.59-4.47-2.05-1.98-.59-4.29-1.02-6.13-2.12-7.31.97-12.19,11.13-17.84,12.81-3.31.99-6.96-.16-10.31.53-13.09,2.69-15.86,28.52-22.36,38.01-6.57,9.6-24.79,10.8-22.32,26.83,1.97.44,1.35-.53,2-1.45,1.91-2.71,3.51-6.6,5.82-8.91,3.67-3.69,9.86-5.19,14.11-8.34,11.7-8.69,11.72-25.61,19.23-36.51,5.55-8.06,9.53-2.93,16.68-5.76,7.83-3.1,12.74-16.39,22.16-8.57,5.58,4.64,8.49,21.1,10.19,28.51,2.76,12.04,2.84,27.07,11.21,36.39.97-3.34,1.02-6.99.81-10.48Z"/>
          <path class="cls-3" d="M126.23,195.66c-1.14,4.96-8.68,4.94-12.76,4.63-3.39-.26-6.99-1.91-10.15-2.23-11.66-1.14-32.63,13.08-42.14,4.21-10.76-10.03,10.04-19.38,13.34-26.99,4.19-9.65-1.73-19.35-.91-29.17,2.71-3.05,7.13,12.69,7.38,13.9,1.78,8.8,1.05,15.34-4.66,22.48-2.3,2.87-10.99,9.77-11.71,12.36-.29,1.04-.23,1.14.41,1.99,4.08,5.38,21.28-2.77,27.12-3.94,10.24-2.05,13.58.45,22.97,1.88,1.71.26,10.48.32,11.13.87Z"/>
          <path class="cls-3" d="M79.86,207.96c.28,1.45-.58,2.17-1.77,2.48-15.63,4.14-20.68,3.39-25.3-1.12-5.69-5.57-5.41-23.82.78-28.81,7.85-6.32,13.33-1.95,12.1-16.82-1.29-15.69-10.64-43.24-8.09-57.34,1.45-7.99,11.48-8.44,15.69-14.5,2.49,6.92-6.88,8.85-9.7,12.75-1.91,2.64-1.65,6.17-1.43,9.21,1.06,14.49,11.52,44.75,8.2,57.17-3.05,11.43-16.03,6.73-17.49,21.2-1.94,19.15,12.78,17.96,26.99,15.78Z"/>
          <path class="cls-3" d="M105.34,64.05c1.8-3.88,4.52-7.34,6.02-11.39,1.9-5.15,1.96-11.03,5.26-15.64,3.41-4.78,9.05-5.8,13.73-8.72,7.65-4.78,15.14-14.96,24.53-4.87,4.91,5.27,9.76,22.81,5.03,29.02-1.49.35-2.69-2.86-3.06-3.89-2.38-6.5-1.92-25.62-13.02-23.03-2.42.56-6.42,5.1-8.81,6.67-3.98,2.62-9.91,4.07-13.06,7.07-6.22,5.93-5.09,22.78-16.61,24.8Z"/>
          <path class="cls-3" d="M138.62,71.8c-7.11,15.68-16.39,26.96-15.47,45.27.5,9.97,6.26,22.39,6.18,30.97-.01,1.41-1.75,8.92-3.85,7.35-6-24.12-13.88-44.89-.63-68.35.98-1.73,11.59-17.5,13.78-15.24Z"/>
          <path class="cls-3" d="M105.34,204.17c5.84-.73,13.05,8.63,17.33,8.48,5.28-.18,12.18-9.66,17.71-11.75,1.28-.48,9.09-2.52,9.06-.22l-20.93,15.43c-6.56,3.32-7.38,2.21-12.7-1.91-2.43-1.88-6.89-5.33-8.93-7.32-.83-.81-1.81-1.35-1.53-2.72Z"/>
        </g>
        <path class="cls-3" d="M27.93,194.87c-9.01-2.02-19.36-.68-23.25,8.88-1.75,4.3-.85,8.86-2.21,12.5-.4,1.07.25,1.33-1.63,1.08-2.42-12.76,4.05-25.75,18.22-26.34,2.41-.1,8.75.68,8.86,3.89Z"/>
        <path class="cls-3" d="M31.41,229.71c8.8-1.9,5.31-19.54,3.49-25.54.91.06,1.66-.41,2.37.48,3.18,3.95,3.05,17.81.61,22.25-.83,1.51-4.87,5.13-6.48,5.13h-11.61l-1.15-1.16,1.15-1.16c3.41-.49,8.48.67,11.61,0Z"/>
        <path class="cls-3" d="M18.64,223.53c3.36-1.3,8.7.06,10.67-3.65,2.86-5.41-1.8-10.63-2.89-15.37-.23-1.02.12-1.52,1.11-1.1,3.55,1.49,6.62,14.14,5.47,17.84-1.58,5.08-11.55,7.34-14.36,2.29Z"/>
        <path class="cls-3" d="M50.38,249.05c1.48-2.89,6.3-3.38,8.1-5.44,2.21-2.52,2.9-10.4.41-12.74-1.39-1.31-7.9-1.17-6.95-3.09,2.67-2.63,7.72-.73,9.64,1.96,5.46,7.65-1.28,20.43-11.19,19.31Z"/>
        <path class="cls-3" d="M17.93,259.82l-.06-2.24c4.36,1.73,10.01-.32,9.27-5.75-.11-.83-2.89-5.35-.39-4.31,7.73,3.21-.46,17.34-8.82,12.3Z"/>
        <path class="cls-3" d="M47.28,228.17c-.37,2.25-2.37,3.36-3.26,5.63-.8,2.06-.76,4.38-1.35,6.39-.33,1.13.43,1.34-1.57,1.13-1.06-4.75.17-12.74,6.18-13.16Z"/>
        <path class="cls-3" d="M50.38,244.41c2.77-3.04,6-3.09,6.18-8.1l1.57-.04c3.02,5.44-2.73,8.99-7.75,8.13Z"/>
        <path class="cls-3" d="M20.96,245.2l-6.18,6.18c-.17-3.52,2.7-6.36,6.18-6.18Z"/>
      </g>
      <g>
        <path class="cls-3" d="M602.28,237.45c0-4.86,4.5-9.3,4.5-14.32,0-14.24-22.45-17.58-32.36-21.69-13.36-5.54-12.29-16.34-20.52-25.93-6.1-7.11-22.39-13.43-23.56-22.9-.77-6.23,3.38-7.97-2.79-13.45-.74-.66-9.47-5.81-8.11-6.98,5.66-.54,14.66,5.34,15.92,10.78.76,3.3-.09,6.55.38,9.68,1.13,7.43,16.44,13.84,22.02,20.55,6.61,7.95,7.51,19.02,17.42,23.61,12.18,5.63,36.41,7.68,37.16,25.6.21,4.93-4.26,15.14-10.08,15.05Z"/>
        <path class="cls-3" d="M496.23,136.82c-5.56-.72-10.99-2.7-12.63-8.65-1.23-4.46-.1-11.07-6.53-12.12-4.34-.71-6.4,5.95-9.05,8.42-8.94,8.36-17.26-3.25-26.36,2.27-2.17-1.25-.35-3.89,1.18-5,6.05-4.38,13.54,3.4,19.15,2.19,7.13-1.54,7.73-16.89,19.31-9.72,6.48,4.02,4.05,9.81,6.87,14.81,1.93,3.42,7.26,3.96,8.06,7.8Z"/>
        <path class="cls-3" d="M566.67,202.61c-13.58-3.38-13.42-18.47-22.85-26.3-6.16-5.12-17.06-8.26-17.39-17.82,2.95,2.13,4.53,5.39,7.36,7.72,4.95,4.07,11.01,5.62,15.47,10.85,3.78,4.43,5.5,10.12,8.56,14.66,1.99,2.95,5.1,5.52,7.3,8.18.72.87,1.88,1.25,1.54,2.71Z"/>
        <path class="cls-3" d="M587.57,210.37c5.96-.13,16.08,7.6,11.99,13.92-2.86-.43-1.38-3.59-2.65-5.85-1.76-3.13-7.37-4.98-9.34-8.07Z"/>
        <path class="cls-3" d="M491.36,101.83c-3.51-1.9-16.3-4.51-19.94-3.36-6.83,2.15-7.6,15.1-11.98,15.91-3.57.66-7.34-1.12-10.63-2.26-1.77-.61-3.57-1.2-5.43-1.48-2.21-.33-4.75.28-6.94.71-.49.1-.98.2-1.42.42-.36.18-.68.44-.99.69-.64.52-1.28,1.04-1.91,1.56-1.59,1.29-2.24,2.82-2.99,4.69-1.25,3.13-2.31,6.3-3.69,9.38-1.28,2.86-2.36,5.81-3.35,8.78.72.27,1.44.55,2.16.82,2.49-8.74,5.53-17.72,10.04-21.4,9.75-7.96,22.35,6.87,29.43-.76,3.33-3.59,4.74-13.93,10.49-14.29,4.03-.25,16.18,2.53,18.82,5.89,4.84,6.17-.26,13.17,4.75,18.08.52-8.48,2.67-18.45-6.41-23.38Z"/>
      </g>
      <g>
        <path class="cls-3" d="M651.82,232.02c-.02-3.47,4.12-1.99,6.49-2.4,19.79-3.43,9.07-11.42-.29-19.66-.39-1.83,1.56-1.29,2.51-.96,2.14.73,7.98,5.69,9.41,7.62,9.35,12.6-8.23,18.2-18.12,15.41Z"/>
        <path class="cls-3" d="M596.09,288.53c5.19-3.87,7.15-4.24,4.63-11.21,2.24-1.52,3.53,1.19,3.83,3.14.97,6.14-2.71,8.59-8.46,8.07Z"/>
        <path class="cls-3" d="M653.36,209.59c-2.15,4.58-2.39,10.95-5.41,14.7-1.47-3.61-.52-6.83.95-10.26.86-2.01,1.48-5.05,4.45-4.44Z"/>
        <path class="cls-3" d="M595.31,271.52c-.79,2.3-3.61,2.4-5,3.9-2.11,2.28-2.51,7.7-5.83,9.25.76-5.87,3.78-13.49,10.83-13.15Z"/>
        <path class="cls-3" d="M660.33,224.3l3.06-1.26-.73-4.17c3.94-.83,5.25,5.07,2.78,7.03-1.74,1.38-5.34,1.14-5.11-1.61Z"/>
        <path class="cls-3" d="M568.99,304.8c.8-.44,2.32.08,2.34-1.9l-3.11-6.61c1.38-1.42,4.49,4.42,4.62,5.86.35,4.13-4.39,5.5-7.72,4.97.61-1.44,2.37-1.5,3.87-2.31-1.42.17-2.26.05-3.08-1.16l2.71-1.92h1.14s-.77,3.08-.77,3.08Z"/>
        <polygon class="cls-3" points="564.35 296.29 560.49 300.15 560.6 297.17 564.35 296.29"/>
      </g>
    </g>
  </g>
  <g>
    <g>
      <g>
        <path class="cls-1" d="M177.01,63.5c-.48-8.16-10.31-48.7-14.4-54.49-.83-1.18-1.91-2.24-2.94-3.26-1.43-1.42-3.1-2.52-4.79-3.59S151.41.16,149.41.01c-1.53-.11-2.7.49-4.07,1.04-1.3.53-2.5,1.3-3.6,2.17-2.33,1.83-4.29,4.07-6.4,6.14-1.59,1.55-3.37,3.24-5.55,3.89-3.31.99-6.96-.16-10.31.53-13.09,2.69-15.86,28.52-22.36,38.01-6.57,9.6-24.79,10.8-22.32,26.83,1.97.44,1.35-.53,2-1.45,1.91-2.71,3.51-6.6,5.82-8.91,3.67-3.69,9.86-5.19,14.11-8.34,11.7-8.69,11.72-25.61,19.23-36.51,5.55-8.06,9.53-2.93,16.68-5.76,7.83-3.1,12.74-16.39,22.16-8.57,5.58,4.64,8.49,21.1,10.19,28.51,2.76,12.04,2.84,27.07,11.21,36.39.97-3.34,1.02-6.99.81-10.48Z"/>
        <path class="cls-1" d="M125.89,194.74c-1.14,4.96-8.68,4.94-12.76,4.63-3.39-.26-6.99-1.91-10.15-2.23-11.66-1.14-32.63,13.08-42.14,4.21-10.76-10.03,10.04-19.38,13.34-26.99,4.19-9.65-1.73-19.35-.91-29.17,2.71-3.05,7.13,12.69,7.38,13.9,1.78,8.8,1.05,15.34-4.66,22.48-2.3,2.87-10.99,9.77-11.71,12.36-.29,1.04-.23,1.14.41,1.99,4.08,5.38,21.28-2.77,27.12-3.94,10.24-2.05,13.58.45,22.97,1.88,1.71.26,10.48.32,11.13.87Z"/>
        <path class="cls-1" d="M79.52,207.04c.28,1.45-.58,2.17-1.77,2.48-15.63,4.14-20.68,3.39-25.3-1.12-5.69-5.57-5.41-23.82.78-28.81,7.85-6.32,13.33-1.95,12.1-16.82-1.29-15.69-10.64-43.24-8.09-57.34,1.45-7.99,11.48-8.44,15.69-14.5,2.49,6.92-6.88,8.85-9.7,12.75-1.91,2.64-1.65,6.17-1.43,9.21,1.06,14.49,11.52,44.75,8.2,57.17-3.05,11.43-16.03,6.73-17.49,21.2-1.94,19.15,12.78,17.96,26.99,15.78Z"/>
        <path class="cls-1" d="M104.99,63.14c1.8-3.88,4.52-7.34,6.02-11.39,1.9-5.15,1.96-11.03,5.26-15.64s9.05-5.8,13.73-8.72c7.65-4.78,15.14-14.96,24.53-4.87,4.91,5.27,9.76,22.81,5.03,29.02-1.49.35-2.69-2.86-3.06-3.89-2.38-6.5-1.92-25.62-13.02-23.03-2.42.56-6.42,5.1-8.81,6.67-3.98,2.62-9.91,4.07-13.06,7.07-6.22,5.93-5.09,22.78-16.61,24.8Z"/>
      </g>
      <g>
        <path class="cls-1" d="M495.89,135.91c-5.56-.72-10.99-2.7-12.63-8.65-1.23-4.46-.1-11.07-6.53-12.12-4.34-.71-6.4,5.95-9.05,8.42-8.94,8.36-17.26-3.25-26.36,2.27-2.17-1.25-.35-3.89,1.18-5,6.05-4.38,13.54,3.4,19.15,2.19,7.13-1.54,7.73-16.89,19.31-9.72,6.48,4.02,4.05,9.81,6.87,14.81,1.93,3.42,7.26,3.96,8.06,7.8Z"/>
        <path class="cls-1" d="M491.02,100.92c-3.51-1.9-16.3-4.51-19.94-3.36-6.83,2.15-7.6,15.1-11.98,15.91-3.57.66-7.34-1.12-10.63-2.26-1.77-.61-3.57-1.2-5.43-1.48-2.21-.33-4.75.28-6.94.71-.49.1-.98.2-1.42.42-.36.18-.68.44-.99.69-.64.52-1.28,1.04-1.91,1.56-1.59,1.29-2.24,2.82-2.99,4.69-1.25,3.13-2.31,6.3-3.69,9.38-1.28,2.86-2.62,6.53-3.62,9.5.72.27,1.46.55,2.18.82,2.49-8.74,5.77-18.43,10.29-22.12,9.75-7.96,22.35,6.87,29.43-.76,3.33-3.59,4.74-13.93,10.49-14.29,4.03-.25,16.18,2.53,18.82,5.89,4.84,6.17-.26,13.17,4.75,18.08.52-8.48,2.67-18.45-6.41-23.38Z"/>
      </g>
    </g>
    <path class="cls-1" d="M27.58,194.36c-9.01-2.02-19.36-.68-23.25,8.88-1.75,4.3-.85,8.86-2.21,12.5-.4,1.07.25,1.33-1.63,1.08-2.42-12.76,4.05-25.75,18.22-26.34,2.41-.1,8.75.68,8.86,3.89Z"/>
    <path class="cls-1" d="M46.93,227.65c-.37,2.25-2.37,3.36-3.26,5.63-.8,2.06-.76,4.38-1.35,6.39-.33,1.13.43,1.34-1.57,1.13-1.06-4.75.17-12.74,6.18-13.16Z"/>
    <path class="cls-1" d="M20.62,244.68l-6.18,6.18c-.17-3.52,2.7-6.36,6.18-6.18Z"/>
    <path class="cls-1" d="M653.02,209.07c-2.15,4.58-2.39,10.95-5.41,14.7-1.47-3.61-.52-6.83.95-10.26.86-2.01,1.48-5.05,4.45-4.44Z"/>
    <path class="cls-1" d="M594.97,271c-.79,2.3-3.61,2.4-5,3.9-2.11,2.28-2.51,7.7-5.83,9.25.76-5.87,3.78-13.49,10.83-13.15Z"/>
    <polygon class="cls-1" points="564.01 295.77 560.14 299.64 560.26 296.66 564.01 295.77"/>
  </g>
</svg>