<?xml version="1.0" encoding="UTF-8"?>
<svg id="Water" xmlns="http://www.w3.org/2000/svg" viewBox="0 0 764.89 244.34">
  <defs>
    <style>
      .cls-1 {
        fill: #18678d;
      }

      .cls-2 {
        fill: #155a7c;
      }

      .cls-3 {
        fill: #114d69;
      }
    </style>
  </defs>
  <path class="cls-2" d="M732,33.93c-.73.14-1.09,1-.66,1.6s1.29.91,2.03,1.33c5.76,3.31,25.92,6.41,20.75,16.82-3.35,6.74-11.54,6.2-16.33,10.65-.28.26-.4.67-.28,1.04,1.44,4.77,20.4,11.06,10.99,20.61-5.58,5.67-15.57,4.39-23.27,3.98-.96-.05-1.48,1.12-.78,1.79,7.24,6.92,19.44,15.82,17.29,26.18-3.27,15.78-31.13,10.98-41.96,13.76-5.8,1.49-3.38,6.38.38,8.82,7.3,4.76,33.91,9.37,22.42,24.81-6.77,9.09-26.68,5.06-36.87,6.49-.55.08-.95.57-.9,1.13l.13,1.42c.04.41.31.75.7.89,9.21,3.2,17.98,9.31,12.19,20.28-4.73,8.97-22.87,12.02-32.14,12.05-19.12.06-47.28-2.42-66.47-4.81-7.33-.91-14.69-2.93-21.57-5.52-13.45-5.06-30.17-19.19-44.98-12.85-9.72,4.17-7.71,14.61-14.83,21.55-13.06,12.73-48.61,7.3-65.42,4.28-14.98-2.69-35.04-10.01-49.84-8.08-9.4,1.23-22.21,14.45-30.4,19.92-27.05,18.09-74.62,24-106.71,21.85-18.12-1.21-44.95-11.2-33.5-34.34,2.39-4.83,10.95-13.59,11.93-17.55.43-1.76.1-3.17-1.79-3.73-3.75-1.12-16.84,4.63-22.37,5.18-29.5,2.96-39.77-14.66-63.58-19.06-25.96-4.8-63.23,22.49-85.72,4.44-8.85-7.1-2.14-16.1-16.29-15.51-10.38.43-27.77,5.78-34.57-5.62-5.1-8.54.8-15.87,8.68-19.51,3.5-1.62,18.56-4.31,21.24-8.09.4-.56.15-1.33-.49-1.58-5.42-2.12-11.04-1.83-16.52-4.63-14.87-7.59-9.4-23.28,2.48-30.85,3.97-2.53,13.31-4.33,12.66-9.82-1.01-8.48-35.85-2.54-34.91-20.14.5-9.32,10.35-9.55,14.42-15.02,4.91-6.58-8.94-8.73-13.34-10.75C-.56,30.76-.19,18.65,14.11,12.63,34.6,4,89.29,3.89,112.26,5.44c8.42.57,12.96,3.41,22.45,3.16,25.14-.65,50.6-4.03,75.79-4.71,25.31-.68,51.55,1.3,76.7.06,27.23-1.34,49.24-4.51,77.34-3.87,50.6,1.16,100.55,6.19,151,7.68,9.46.28,19.89,1.96,29.4.83,8.38-1,12.63-2.74,22.42-2.33,27.34,1.14,54.75.45,82.09,1.51,26.95,1.04,54.3,3.97,81.25,5.44,5.72.31,31.28-.74,27.93,10.1-2.26,7.31-19.32,9.18-26.63,10.62Z"/>
  <g>
    <g>
      <path class="cls-3" d="M597.08,33.3c13.51,0,.82,15.6,34.28,29.61,13.55,5.67,31.23,8.41,45.21,12.71,3.07.95,17.41,2.78,18.94,3.09,13.38,2.68,36.21,9.08,47.85,5.24,12.2-4.02.79-7.64-3.28-12.17-2.61-2.9-3.98-5.46-3.35-9.54,1.2-7.78,16.87-8.58,16.43-13.08-.01-.14-.07-.28-.14-.4-.96-1.67-2.03-2.27-2.24-4.11-.07-.58.36-1.12.95-1.17,4.24-.39,8.21,1.98,7.59,6.78-.98,7.46-17.08,9.96-17.16,13.46-.13,5.88,18.04,9.79,12.66,19.93-3.78,7.13-16.82,8.59-24.12,8.16-.16,0-.32.02-.47.08l-3.4,1.49c-.25.11-.54.12-.79.02-8.49-3.17-11-6.13-20.39-7.72-24.37-4.12-69.84-1.76-88.04-19.93-5.5-5.49-11.91-6.51-18.68-10.92-4.84-3.16-8.74-11.12-13.65-14.84-.27-.21-.43-.52-.42-.86v-.43c.03-.41.28-.78.65-.93.71-.3,1.41-.41,2.09-.41,1.08,0,1.43-1.45.48-1.96h0c-.5-.27-.69-.88-.44-1.38l.02-.05c.19-.38.59-.61,1.01-.57,3.43.27,4.79-.11,8.42-.11Z"/>
      <path class="cls-3" d="M734.38,35.11c.63,1.86,4.34,3.36,5.79,4.71.57.54.36,1.49-.38,1.75-6.55,2.27-13.96-3.9-10.04-10.89,3.21-5.71,22.61-6.86,28.8-9.18,1.62-1.55-3.13-2.21-3.6-2.27-7.22-.88-15.91.22-23.37-.06-29.06-1.11-58.32-3.86-87.37-4.8-19.96-.65-75.72,2.44-90.82-4.47-1.28-.58-2.88-1.02-3.23-2.45-.12-.51.2-1.03.7-1.19,4.53-1.46,8.93-1.49,13.72-1.37,27.46.68,55.04,4.24,82.69,2.37.04,0,.08,0,.12,0,25.4,1.44,50.94,3.36,76.38,4.8,9.4.53,29.37-.95,37.12,2.72,3.29,1.56,4.42,3.3,3.86,7.06-1.36,9.21-22.23,8.91-29.77,12.02-.49.2-.78.74-.61,1.24Z"/>
      <path class="cls-3" d="M14.39,65.69h-.53c-.48,0-.9-.34-1.02-.81-2.6-10.44,10.91-13.49,15.59-20.52.16-.25.23-.56.13-.84-1.12-3.3-13.24-4.95-16.17-5.99-15.39-5.44-13.38-18.2.33-24.6,10.49-4.89,24.26-6.71,35.77-7.25,21.31-1.01,46.79-1.78,67.98-.79,4.02.19,14.15.66,17.02,2.52,4.69,3.05-.31,5.01-3.79,5.41-12.26,1.4-28.56-.26-41.41-.03-19.28.35-47.36-.89-65.32,4.21-3.97,1.13-18.1,4.95-13.94,11.28s32.57,5.2,24.14,19.58c-4.26,7.26-16.16,7.76-17.78,16.98-.09.5-.52.86-1.02.86Z"/>
      <path class="cls-3" d="M700.51,28.09c4.12,4.28,1.44,8.39,2.99,11.59.51,1.05,4.52,3.18,5.86,5.13,3.45,5.02.17,9.99-2.15,11.73-.75.56-1.8-.04-1.68-.96.29-2.21,1.22-4.37.55-6.66s-5.97-4.32-7.47-7.46c-2.43-5.08,1.63-7.99-4.57-11.17-6.83-3.51-26.74-5.25-35-5.66-36.2-1.8-72.35,1.71-108.54-2.35-.83-.09-3.79-.46-5.71-1-.96-.27-1.01-1.62-.07-1.98,1.36-.52,2.99-.65,4.31-.86,11.7-1.89,24.04.55,35.78.72,32.43.47,72.53-4.07,103.64,3.35,3.34.8,9.71,3.14,12.06,5.58Z"/>
      <path class="cls-3" d="M57.5,65.73c-7.8,4.62-26.19-1.36-20.45-12.39,1.82-3.5,8.54-6.87,7.98-10.85-.73-5.16-15.24-5.61-13.26-16.59.71-3.95,5.86-6.2,9.32-7.17,10.53-2.93,41.34-3.06,52.75-2,11.24,1.04.23,4.98-4.82,5.46-7.48.72-46.79-.28-50.57,4.67-.07.09-.12.2-.15.31-1.35,4.44,5.96,6.13,9.07,8.93,4.26,3.84,5.16,6.52,2.36,11.88s-14.42,9.75-3.92,13.4c1.24.43,13.74,1.59,11.7,4.34Z"/>
      <path class="cls-3" d="M722.55,22.56c.79-.17,1.46.63,1.18,1.38-1.09,2.91-3.08,5.18-2.35,8.72,1.66,8.06,17.09,12.65,9.07,22.27-1.3,1.56-5.75,3.48-6.16,5.1-.8,3.1,12.57,13.83.54,17.08-5.91,1.59-28.32-3.21-34.81-5.55-.81-.29-5-2.13-7.06-3.76-.8-.64-.26-1.94.76-1.84,13.1,1.32,25.75,6.61,39.16,6.22.71-.02,1.18-.75.94-1.42-1.62-4.36-6.12-5.09-5.04-11.63.83-5.01,9.8-6.77,8.96-9.99-.54-2.08-7.23-7.83-8.87-10.72-3.05-5.37-2.77-14.45,3.69-15.87Z"/>
      <path class="cls-3" d="M617.94,33.54c-.46-.76.14-1.72,1.01-1.6,6.38.87,13.12,4.48,14.94,11.03.82,2.98.3,6.32,1.92,9.12,3.95,6.83,33.93,9.07,39.19,12.3.62.38.67,1.3.07,1.72-.78.54-1.69.37-2.75.46-9.51.72-36.39-3.5-41.18-12.91-1.91-3.76-1.29-9.12-3.38-12.38s-7.7-4.24-9.82-7.73Z"/>
      <path class="cls-3" d="M119.27,18.14c0-.89,1.08-1.4,1.72-.78,1.03.98,1.32,2.94,1.66,4.26,2.33,9.17,6.53,29.95,6.8,38.96.17,5.51-3.84,10.97-8.4,7.93-.57-.38-.63-1.2-.12-1.66,2.74-2.46,4-2.09,3.82-7.06-.38-10.22-4.43-23.38-5.4-34.05-.23-2.53-.09-5.07-.09-7.6Z"/>
      <path class="cls-3" d="M111.09,39.76l.66-.4c.46-.28,1.07-.17,1.39.27,3.92,5.34,3.35,16.68-.2,21.77-4.11,5.9-16.89,9.6-24.27,7.29-.77-.24-1-1.25-.39-1.78,5.1-4.46,16.22-3.2,20.32-8.32.38-.48,1.99-4.03,1.99-4.3v-13.63c0-.36.19-.7.5-.89Z"/>
    </g>
    <path class="cls-3" d="M45.92,82.26c-.07.54-.2,1.15-.39,1.73-.27.79.47,1.55,1.28,1.32,1.08-.31,2.06-.59,3.21-1,.44-.15.72-.57.7-1.03-.03-.55-.06-1.2-.1-1.44-1.59-10.74-18.04-8.76-26.37-10.55-3.23-.69-5.67-2.35-8.63-2.78-.73-.11-1.34.61-1.13,1.32.74,2.48,4.12,4.09,6.31,4.91,4.4,1.64,23.68,2.96,25.09,7.1.05.13.05.27.03.41Z"/>
  </g>
  <g>
    <g>
      <path class="cls-1" d="M732.75,34.4c.63,1.86,4.34,3.36,5.79,4.71.57.54.36,1.49-.38,1.75-6.55,2.27-13.96-3.9-10.04-10.89,3.21-5.71,22.61-6.86,28.8-9.18,1.62-1.55-3.13-2.21-3.6-2.27-7.22-.88-15.91.22-23.37-.06-29.06-1.11-58.32-3.86-87.37-4.8-19.96-.65-75.72,2.44-90.82-4.47-1.28-.58-2.88-1.02-3.23-2.45-.12-.51.2-1.03.7-1.19,4.53-1.46,8.93-1.49,13.72-1.37,27.46.68,55.04,4.24,82.69,2.37.04,0,.08,0,.12,0,25.4,1.44,50.94,3.36,76.38,4.8,9.4.53,29.37-.95,37.12,2.72,3.29,1.56,4.42,3.3,3.86,7.06-1.36,9.21-22.23,8.91-29.77,12.02-.49.2-.78.74-.61,1.24Z"/>
      <path class="cls-1" d="M12.76,64.98h-.53c-.48,0-.9-.34-1.02-.81-2.6-10.44,10.91-13.49,15.59-20.52.16-.25.23-.56.13-.84-1.12-3.3-13.24-4.95-16.17-5.99-15.39-5.44-13.38-18.2.33-24.6,10.49-4.89,24.26-6.71,35.77-7.25,21.31-1.01,46.79-1.78,67.98-.79,4.02.19,14.15.66,17.02,2.52,4.69,3.05-.31,5.01-3.79,5.41-12.26,1.4-28.56-.26-41.41-.03-19.28.35-47.36-.89-65.32,4.21-3.97,1.13-18.1,4.95-13.94,11.28,4.15,6.32,32.57,5.2,24.14,19.58-4.26,7.26-16.16,7.76-17.78,16.98-.09.5-.52.86-1.02.86Z"/>
      <path class="cls-1" d="M698.88,27.38c4.12,4.28,1.44,8.39,2.99,11.59.51,1.05,4.52,3.18,5.86,5.13,3.45,5.02.17,9.99-2.15,11.73-.75.56-1.8-.04-1.68-.96.29-2.21,1.22-4.37.55-6.66s-5.97-4.32-7.47-7.46c-2.43-5.08,1.63-7.99-4.57-11.17-6.83-3.51-26.74-5.25-35-5.66-36.2-1.8-72.35,1.71-108.54-2.35-.83-.09-3.79-.46-5.71-1-.96-.27-1.01-1.62-.07-1.98,1.36-.52,2.99-.65,4.31-.86,11.7-1.89,24.04.55,35.78.72,32.43.47,72.53-4.07,103.64,3.35,3.34.8,9.71,3.14,12.06,5.58Z"/>
      <path class="cls-1" d="M55.87,65.02c-7.8,4.62-26.19-1.36-20.45-12.39,1.82-3.5,8.54-6.87,7.98-10.85-.73-5.16-15.24-5.61-13.26-16.59.71-3.95,5.86-6.2,9.32-7.17,10.53-2.93,41.34-3.06,52.75-2,11.24,1.04.23,4.98-4.82,5.46-7.48.72-46.79-.28-50.57,4.67-.07.09-.12.2-.15.31-1.35,4.44,5.96,6.13,9.07,8.93,4.26,3.84,5.16,6.52,2.36,11.88-2.84,5.41-14.42,9.75-3.92,13.4,1.24.43,13.74,1.59,11.7,4.34Z"/>
    </g>
    <path class="cls-1" d="M44.29,81.54c-.08.78-.24,2.08-.52,3.22-.21.85.65,1.55,1.44,1.2,1.16-.51,2.21-1.07,3.43-1.57.43-.18.68-.62.62-1.08-.1-.8-.24-1.91-.28-2.17-1.59-10.74-18.04-8.76-26.37-10.55-3.23-.69-5.67-2.35-8.63-2.78-.73-.11-1.34.61-1.13,1.32.74,2.48,4.12,4.09,6.31,4.91,4.41,1.64,23.71,2.96,25.1,7.11.04.13.05.26.03.39Z"/>
  </g>
</svg>