<?xml version="1.0" encoding="UTF-8"?>
<svg id="Seal" xmlns="http://www.w3.org/2000/svg" viewBox="0 0 515.89 254.53">
  <defs>
    <style>
      .cls-1 {
        fill: #202321;
      }

      .cls-2 {
        fill: #2e342d;
      }

      .cls-3 {
        fill: #464b48;
      }

      .cls-4 {
        fill: #636966;
      }

      .cls-5 {
        fill: #212322;
      }

      .cls-6 {
        fill: #9fa5a2;
      }

      .cls-7 {
        fill: #818885;
      }
    </style>
  </defs>
  <g>
    <path class="cls-2" d="M231.68,254.53c-1.37,0-2.68-.04-3.9-.12-9.75-.65-17.8-3.57-25.59-6.39-3.49-1.27-6.79-2.46-10.18-3.43-3.81-1.09-8.29-1.6-14.09-1.6-4.45,0-9.02.29-13.86.6-4.9.31-9.97.64-14.97.64-2.92,0-5.56-.11-8.06-.33-1.38-.04-2.5-.29-3.23-.48-11.8-.68-26.96-2.14-41.05-7.14-1.48-.53-3.2-1.31-5.18-2.21-1.24-.57-3.39-1.54-4.56-1.99-2.1.25-6.86,1.84-9.52,2.72-3.14,1.04-6.11,2.03-8.73,2.58-4.05.85-8.32,1.25-13.43,1.25-2.97,0-5.87-.13-8.68-.26-1.51-.07-3.01-.14-4.53-.18-1.33-.04-2.85-.05-4.48-.06-8.61-.07-19.32-.15-26.66-3.76-5.93-2.91-9.41-8.25-9.31-14.28.1-6.33,4.16-12.08,10.6-15,7.27-3.29,14.99-5.45,22.33-6.25,2.86-.31,10.52-2.56,19.15-5.62-11.07-24.57-12.76-43.33-11.3-67.76.52-8.7-.56-14.96-1.92-22.89-.54-3.15-1.1-6.4-1.6-10.07-1.51-10.96-1.08-21.03,1.41-32.66C46.32,31.77,75.84,6.52,106.12,3.54c2.86-.28,5.96-.42,9.22-.42,7.16,0,14.16.68,19.73,1.92,29.35,6.53,48.72,29.98,53.86,57.29,2.56,1.38,11.68,3.74,15.02,4.74,7.51,2.26,15.42,3.97,23.8,5.77,6.42,1.38,13.06,2.81,19.5,4.52,45.88,12.16,91.73,28.55,136.26,48.73,14.24,6.45,25.36,13.34,37.16,23.04,2.4,1.97,4.52,3.98,6.57,5.93,4.6,4.37,8.24,7.82,13.05,9.07,2.12.55,4.49.9,7.01,1.28,2.91.44,5.93.89,9.08,1.7,7.4,1.91,13.76,5.14,19.92,8.27,2.31,1.17,4.48,2.28,6.68,3.3,1.43.66,3.21,1.39,5.1,2.16,9.27,3.78,20.81,8.49,25.92,18.81,2.53,5.12,2.51,10.62-.06,15.08-2.57,4.46-7.31,7.23-13.02,7.61-.51.03-1.02.05-1.55.05-3.64,0-7.3-.81-10.52-1.52-2.03-.45-4.13-.91-5.53-1-1.47-.09-3-.14-4.67-.14-4.71,0-9.53.37-14.63.76-3,.23-6.11.47-9.19.63-2.43.12-4.98.18-7.78.18-4.25,0-8.47-.14-12.55-.27-4.08-.13-7.92-.26-11.79-.26-6.37,0-11.48.37-16.09,1.15-6.47,1.1-12.73,2.49-18.78,3.84-11.04,2.46-22.47,5-35.58,5.91-4.32.3-8.75.84-13.43,1.42-7.38.9-15.02,1.84-22.71,1.84-5.23,0-9.91-.43-14.33-1.31-3.28-.66-6.1-1.76-8.56-3.15-1.18,4.03-3.97,7.56-8.37,10.56-12.91,8.82-39.18,13.52-53.18,13.52Z"/>
    <path class="cls-4" d="M230.02,251.41c-1.37,0-2.68-.04-3.9-.12-9.75-.65-17.8-3.57-25.59-6.39-3.49-1.27-6.79-2.46-10.18-3.43-3.81-1.09-8.29-1.6-14.09-1.6-4.45,0-9.02.29-13.86.6-4.9.31-9.97.64-14.97.64-2.92,0-5.56-.11-8.06-.33-1.38-.04-2.5-.29-3.23-.48-11.8-.68-26.96-2.14-41.05-7.14-1.48-.53-3.2-1.31-5.18-2.21-1.24-.57-3.39-1.54-4.56-1.99-2.1.25-6.86,1.84-9.52,2.72-3.14,1.04-6.11,2.03-8.73,2.58-4.05.85-8.32,1.25-13.43,1.25-2.97,0-5.87-.13-8.68-.26-1.51-.07-3.01-.14-4.53-.18-1.33-.04-2.85-.05-4.48-.06-8.61-.07-19.32-.15-26.66-3.76C3.39,228.32-.09,222.98,0,216.95c.1-6.33,4.16-12.08,10.6-15,7.27-3.29,14.99-5.45,22.33-6.25,2.86-.31,8.67-2.01,17.3-5.07-11.07-24.57-10.9-43.88-9.45-68.31.52-8.7-.56-14.96-1.92-22.89-.54-3.15-1.1-6.4-1.6-10.07-1.51-10.96-1.08-21.03,1.41-32.66C44.67,28.65,74.18,3.4,104.46.42c2.86-.28,5.96-.42,9.22-.42,7.16,0,14.16.68,19.73,1.92,29.35,6.53,53.26,30.43,58.41,57.73,2.56,1.38,7.13,3.29,10.48,4.3,7.51,2.26,15.42,3.97,23.8,5.77,6.42,1.38,13.06,2.81,19.5,4.52,45.88,12.16,91.73,28.55,136.26,48.73,14.24,6.45,25.36,13.34,37.16,23.04,2.4,1.97,4.52,3.98,6.57,5.93,4.6,4.37,8.24,7.82,13.05,9.07,2.12.55,4.49.9,7.01,1.28,2.91.44,5.93.89,9.08,1.7,7.4,1.91,13.76,5.14,19.92,8.27,2.31,1.17,4.48,2.28,6.68,3.3,1.43.66,3.21,1.39,5.1,2.16,9.27,3.78,20.81,8.49,25.92,18.81,2.53,5.12,2.51,10.62-.06,15.08-2.57,4.46-7.31,7.23-13.02,7.61-.51.03-1.02.05-1.55.05-3.64,0-7.3-.81-10.52-1.52-2.03-.45-4.13-.91-5.53-1-1.47-.09-3-.14-4.67-.14-4.71,0-9.53.37-14.63.76-3,.23-6.11.47-9.19.63-2.43.12-4.98.18-7.78.18-4.25,0-8.47-.14-12.55-.27-4.08-.13-7.92-.26-11.79-.26-6.37,0-11.48.37-16.09,1.15-6.47,1.1-12.73,2.49-18.78,3.84-11.04,2.46-22.47,5-35.58,5.91-4.32.3-8.75.84-13.43,1.42-7.38.9-15.02,1.84-22.71,1.84-5.23,0-9.91-.43-14.33-1.31-3.28-.66-6.1-1.76-8.56-3.15-1.18,4.03-3.97,7.56-8.37,10.56-12.91,8.82-39.18,13.52-53.18,13.52Z"/>
    <path class="cls-1" d="M67.88,99.46c.96,3.6,1.77,7.24,2.52,10.88,3.66-.34,7.31.03,11.02.18,12.6.52,25.2.26,37.8-.1,12.63-.36,25.68.29,38.23-1.25,4.16-.51,7.84-1.37,11.31-2.55-.43-1.28-.78-2.6-1.06-3.96-2.35-11.66-2.61-24.42-3.08-36.31-.27-6.72.22-13.52,1.88-19.99-2.28-2.36-4.64-4.64-7.11-6.8-4.03-2.72-8.22-5.13-12.59-7.26-8.95-3.25-18.2-5.54-27.58-7.13-7.86-.77-15.75-.98-23.62-.38-3.67.73-7.28,1.67-10.83,2.86-2.19,1.13-4.32,2.36-6.4,3.7-1.9,1.73-3.72,3.55-5.44,5.47-2.29,3.46-4.32,7.07-6.15,10.81-.4,1.08-.8,2.16-1.17,3.25-1.96,5.72-4.79,10.77-8.31,15.04.02.06.03.13.05.19,2.98,11.28,7.56,22.11,10.54,33.33Z"/>
    <path class="cls-7" d="M503.05,201.12c-4.23-8.55-18.01-12.41-26.09-16.16-8.2-3.8-15.96-8.64-24.82-10.93-5.28-1.36-10.83-1.62-16.1-2.99-10.18-2.64-15.84-10.65-23.6-17.02-11.2-9.21-21.64-15.63-34.85-21.61-43.26-19.59-88.7-35.97-134.64-48.15-14.27-3.78-29.65-6.17-43.64-10.38-3.85-1.16-15.34-5.44-17.15-8.85-3.01-25.91-26.22-47.48-51-52.99-7.54-1.68-17.97-2.06-25.68-1.3-24.68,2.43-51.41,23.53-56.67,48.13-2.13,9.99-2.67,18.93-1.28,29.08,1.77,12.88,4.41,21.4,3.6,34.99-1.54,25.79-1.14,42.61,9.17,64.8.9,1.94.37.95,1.43,2.98,1.4,2.68,4.65,5,.77,6.46-8.64,3.24-22.07,8.13-28.45,8.82-6.53.71-13.12,2.65-19.17,5.39-5.09,2.31-6.48,7.83-.99,10.53,6.44,3.16,19.51,2.54,26.89,2.77,8.09.25,16.13,1.1,24.18-.59,5.73-1.2,16.58-6.06,21.73-5.51,2.36.25,9.03,3.78,11.87,4.79,12.36,4.38,25.86,5.87,38.9,6.6.81.05,1.58.47,2.42.43,17.04,1.63,37-3.59,53.34,1.09,11.39,3.26,21.28,8.63,33.6,9.45,13.13.87,39.59-4.12,50.54-11.61,3.11-2.13,5.09-4.28,4.31-8.32-1.29-6.74-13.84-16.68-19.35-20.87-19.14-14.56-46.61-27.75-70.52-16.96-2.35,1.06-5.24,3.86-6.92,4.19-3.11.62-6.59-4.24-3.42-8.09,3.96-4.81,16.15-8.89,22.25-9.84,18.8-2.93,40.35,5.54,55.63,16.05,7.32,5.04,16.66,11.91,22.86,18.16,6.24,6.29,10.17,14.69,19.96,16.65,15.24,3.05,31.97-1.02,47.72-2.12,19.37-1.35,34.81-6.46,53.34-9.62,16.32-2.78,32.84-.1,49.43-.94,9.76-.49,19.9-1.87,29.67-1.24,5.07.33,11.49,2.78,16.25,2.47,4.63-.3,6.49-3.66,4.47-7.75ZM129.52,36.82c.65-1.98,2.99-4.52,5.32-5,.6-.12,1.21-.19,1.82-.19,3.61,0,7.3,2.21,9.4,5.63,1.88,3.06,2.12,6.45.66,9.3-1.18,2.32-3.35,3.59-6.1,3.59h0c-3.51,0-7.39-2.09-9.64-5.2-1.83-2.53-2.35-5.42-1.46-8.14ZM83.51,37.69c2.09-3.65,5.88-6.1,9.44-6.1,1.59,0,3.06.46,4.37,1.37,1.97,1.36,3.12,3.3,3.33,5.6.25,2.79-1,5.92-3.27,8.17-2.03,2.02-5.36,3.37-8.29,3.37h0c-2.64,0-4.75-1.11-5.93-3.11-1.6-2.72-1.48-6.11.34-9.3ZM149.83,89.01c-2.91,3.67-7.07,5.61-12.03,5.61-3.05,0-6.25-.76-9.24-2.19-1.78-.85-3.56-2.23-5.28-3.57-2.1-1.63-4.27-3.31-6.14-3.77-.77-.19-1.49-.28-2.21-.28-3.14,0-5.45,1.81-8.13,3.91-1.62,1.27-3.3,2.59-5.28,3.56-3.1,1.52-6.42,2.32-9.61,2.32-5.05,0-9.36-2.07-12.15-5.82-1.04-1.4-1.29-3.22-.64-4.53.53-1.06,1.58-1.67,2.87-1.67.06,0,.13,0,.19,0,1.29.06,2.54,1.01,3.99,2.12,1.56,1.19,3.33,2.54,5.06,2.67.16.01.32.02.48.02h0c3.37,0,6.31-2.74,9.15-5.4,1.31-1.22,2.54-2.38,3.83-3.28.7-.49,1.5-.94,2.27-1.38,2.82-1.6,4.67-2.83,4.67-5.16,0-2.8-1.96-5.85-3.85-8.8-2.01-3.13-3.9-6.09-3.4-8.8.42-2.29,2.53-4.05,5.36-4.47,1.14-.17,3.21-.28,5.41-.28,1,0,3.5.03,4.95.27,2.77.46,5.6,2.93,5.4,5.86-.18,2.51-1.85,5-3.61,7.64-2.29,3.42-4.66,6.95-3.39,10.16.53,1.34,3.53,3.23,5.71,4.61,1.34.85,2.61,1.65,3.49,2.38.73.61,1.46,1.31,2.17,1.98,2.37,2.25,4.83,4.58,8.02,4.66h.12c2.2,0,4.12-1.52,5.81-2.87,1.36-1.08,2.53-2.01,3.78-2.01,1.39,0,2.49.64,3.03,1.76.67,1.39.35,3.3-.8,4.75Z"/>
    <g>
      <path class="cls-5" d="M189.7,116.64c.52-.43,11.39-4.93,12.41-5.14,3.95-.8,8.63.67,10.82,4.19,6.4,10.27-12.79,17.82-20.69,16.21-6.96-1.42-7.51-11.14-2.55-15.26Z"/>
      <path class="cls-5" d="M194.69,85.19c10.35,10.03-6.76,26.85-15.83,20.67-6.63-4.51,4.04-14.94,4.87-20.57,2.66-3.52,8.02-2.95,10.96-.1Z"/>
      <path class="cls-5" d="M237.03,109.12c13.81-2.15,16.96,16.69,2.74,18.42s-19.88-15.75-2.74-18.42Z"/>
      <path class="cls-5" d="M63.57,173.33c.16-.2,3.68-2.95,3.98-3.1,11.66-6.07,20.28,9.02,11.88,17.85-6.11,6.41-12.31-4.11-16.49-8.2-.6-1.9-.66-4.93.63-6.54Z"/>
      <path class="cls-5" d="M69.16,129.99c4.04-.4,8.05,2.49,7.49,6.73-1.31,9.89-19.84,19.11-21.48,7.61-1.23-8.56,6.39-13.58,13.99-14.33Z"/>
      <path class="cls-5" d="M158.66,111.35c6.8-1.39,10.3,2.55,9.96,9.17-.61,11.91-23.88,7.43-23.88-.02,0-4.75,5.58-4.89,8.1-6.03,1.8-.81,3.79-2.71,5.82-3.13Z"/>
      <path class="cls-5" d="M79.55,146.41c7.76-1.79,19.21,7.8,9.58,12.56-3.17,1.57-15.36,5.51-18.32,4.07-4.9-2.39,4.91-15.75,8.74-16.63Z"/>
      <path class="cls-5" d="M281.81,106.85c8.3-1.57,18.53,7.7,8.65,13.9-12.05,7.56-25.5-4.76-11.68-12.43.92-.51,2.02-1.28,3.03-1.48Z"/>
      <path class="cls-5" d="M337.77,138.22c5.19-.86,14.34.7,14.97,7.08,1.13,11.55-25.28,10.28-21.33-3.01.61-2.05,4.39-3.75,6.36-4.07Z"/>
      <path class="cls-5" d="M372.09,155.36c6.84-1.52,19.49,5.17,14.27,13.54-5.4,8.66-19.63-1.82-19.09-7.99.18-2.06,2.69-5.08,4.82-5.55Z"/>
      <path class="cls-5" d="M312.79,125.17c-3.62-3.68,1.66-8.09,6.15-8.08,9.06.02,19.51,15.67,10.85,18.38-6.8,2.13-9.86-4.93-13.84-8.63-.97-.9-2.59-1.07-3.17-1.67Z"/>
      <path class="cls-5" d="M361.1,133.81c9.04-1.82,18.45,13.47,9.7,17.21-9.41,4.02-18.7-15.4-9.7-17.21Z"/>
      <path class="cls-5" d="M289.64,130.01c3.21-3.2,7.83.94,10.5,2.21,2.65,1.26,5.96.92,7.44,4.56,2.89,7.07-16.71,11.04-18.7,2.23-.41-1.82-.5-7.74.76-8.99Z"/>
      <path class="cls-5" d="M409.81,169.4c-1.64,1.79-4.97,2.29-7.21,1.33-1.69-.72-3.02-3.91-3.97-4.6-1.05-.76-3.23-.54-4.31-2.04-4.74-6.54,9.55-12.18,15.32-4.88,2.25,2.85,2.72,7.38.17,10.18Z"/>
      <path class="cls-5" d="M261.65,124.78c10.03-2.09,13.35,7.34,6.14,12.1-14.45,9.52-18.78-9.47-6.14-12.1Z"/>
      <path class="cls-5" d="M409.04,180c.33-.32,7.66-2.81,8.58-2.98,12.93-2.27,12.15,13.21-.05,12.97-4.66-.09-12.95-5.72-8.53-10Z"/>
      <path class="cls-5" d="M212.62,89.79c8.47-1.77,12.07,13.79,1.27,15.49-13.15,2.07-8.72-13.94-1.27-15.49Z"/>
      <path class="cls-5" d="M242.97,95.65c4.27-1.26,20.42.56,18.58,7.33-2.07,7.58-18.7.84-20.23-2.25-.89-1.8-.46-4.46,1.65-5.08Z"/>
      <path class="cls-5" d="M63.93,109.9c15.1-1.72,8.14,15.62-3.04,13.05-5.75-1.32-6.46-11.97,3.04-13.05Z"/>
      <path class="cls-5" d="M95.23,135.23c3.78-.77,7.77.03,9.18,3.96.66,6.51-14.04,7.72-15.41,2.6-.13-2.89,3.49-6,6.23-6.56Z"/>
      <path class="cls-5" d="M94.51,128.16c-3.99,3.96-14.4-.72-11.39-7.27,3.53-7.7,16.12,2.58,11.39,7.27Z"/>
      <path class="cls-5" d="M223.61,131.45c8.16-1.33,9.47,9.84-.22,10.34-8.57.45-6.08-9.32.22-10.34Z"/>
      <path class="cls-5" d="M319.85,154.25c-4.44,4.45-12.35-.92-8.79-6.93,4.01-6.76,14.07,1.65,8.79,6.93Z"/>
      <path class="cls-5" d="M251.96,214.27c6.64-1.27,6.28,11.91-.18,11.91-6.21,0-4.83-10.95.18-11.91Z"/>
      <path class="cls-5" d="M151.21,130.71c7.71-1.57,10.32,10.6,1.81,9.83-6.54-.59-7.23-8.73-1.81-9.83Z"/>
      <path class="cls-5" d="M265.31,212.73c8.73-.85,9.41,14.32.8,11.74-3.15-.95-2.6-11.16-.8-11.74Z"/>
      <path class="cls-5" d="M196.4,190.53c3.97,3.96-3.28,12.05-8.1,7.73-3.13-3.9,4.2-11.62,8.1-7.73Z"/>
      <path class="cls-5" d="M169.12,67.26c.65-.13,1.26-.23,1.9-.01,5.34,3.15.59,11.83-4.91,10.22-4.33-1.27-.95-9.44,3-10.21Z"/>
      <path class="cls-5" d="M122.87,129.23c7.04-.6,6.26,9.71-.82,9.34-6.7-.36-4.56-8.88.82-9.34Z"/>
      <path class="cls-5" d="M230.58,190.36c7.9-2.52,7.85,13.3.31,11.87-4.65-.88.5-8.95-.31-11.87Z"/>
      <path class="cls-5" d="M251.22,207.25c-3.52,3.45-12.32-3.96-7.25-8.36,5.34-4.65,9.08,6.57,7.25,8.36Z"/>
      <path class="cls-5" d="M79.55,103.07c3.38-.91,9.87,3.12,6.99,7.03-4.24,5.75-13.35-5.31-6.99-7.03Z"/>
      <path class="cls-5" d="M86.26,184.43c7.3-2.17,8.53,8.73.59,8.77-5.12.03-3.83-7.81-.59-8.77Z"/>
      <path class="cls-5" d="M220.31,191.54c.19.33,1.14.4,1.49,1.15,1.72,3.75-2.69,6-6.14,3.86-5.92-3.67.66-10.6,3.72-8.21.84.66.42,2.32.93,3.19Z"/>
      <path class="cls-5" d="M245.62,138.97c3.97-4.04,9.62,5.34,5.8,7.66s-9.08-4.33-5.8-7.66Z"/>
      <path class="cls-5" d="M440.74,181.45c6.09-1.8,9.43,9.59,1.51,7.95-4-.83-5.16-5.97-1.51-7.95Z"/>
      <path class="cls-5" d="M276.6,141.16c8.57-2.13,3.21,15.67-4.14,4.6-.17-1.79,2.6-4.22,4.14-4.6Z"/>
      <path class="cls-5" d="M74.36,199.36c2.84-.47,4.63,1.75,4.36,4.38-1.12,4.01-10.03,4.6-9.11-.79.44-1.58,3.2-3.33,4.75-3.58Z"/>
      <path class="cls-5" d="M59.39,159.06c6.17-1.85,6.34,8.2,1.23,8.67-4.41.41-5.31-7.44-1.23-8.67Z"/>
      <path class="cls-5" d="M164.58,96.41c5.43-.52,5.11,10.11-2.2,7.91-4.1-1.24-1.47-7.55,2.2-7.91Z"/>
      <path class="cls-5" d="M126.53,116.57c4.98-.42,5.53,7.99-.13,7.99-5.09,0-5.87-7.48.13-7.99Z"/>
      <path class="cls-5" d="M465.39,185.97c2.56-.23,5.34,1.34,5.9,3.93.02,3.72-6.97,3.28-9.07,1.14l-.02-3.78c.38-.56,2.44-1.23,3.2-1.3Z"/>
      <path class="cls-5" d="M206.56,141.84c1.17,4.47-5.43,9.72-7.79,4.38-1.8-4.09,4.42-6.77,7.79-4.38Z"/>
      <path class="cls-5" d="M474.33,197.85c2.77-.75,8.73,2.6,6.25,5.55-4.78,4.74-11.97-3.99-6.25-5.55Z"/>
      <path class="cls-5" d="M450.46,193.36c2.56-.38,5.07,3.08,3.24,5.55-4.18,5.63-10.85-4.44-3.24-5.55Z"/>
      <path class="cls-5" d="M332.74,160.43c4.8-.92,8.5,2.44,6.01,7.15-4.16.79-6.89-3.2-6.01-7.15Z"/>
      <path class="cls-5" d="M63.25,95.6c1.93,3.04-4.43,9.24-7.04,5.11-1.02-3.21,5.13-8.12,7.04-5.11Z"/>
      <path class="cls-5" d="M301.19,119.49c4.39-1.22,5.41,5.54,1.92,6.51-4.39,1.22-5.41-5.54-1.92-6.51Z"/>
      <path class="cls-5" d="M217.56,205.37c3.47-.32,4.3,3.71,1.29,5.72-5.07,3.39-6.76-5.22-1.29-5.72Z"/>
      <path class="cls-5" d="M171.66,133.46c-2.7-4.31,5.51-9.23,5.82-4.04.21,3.6-4.45,6.22-5.82,4.04Z"/>
      <path class="cls-5" d="M389.2,152.47c-2.67,2.49-8.25-.15-5.86-3.77,2.26-3.42,8.64,1.18,5.86,3.77Z"/>
      <path class="cls-5" d="M297.31,154.46c2.72-.65,4.18,8.26-.02,8.25-3.99-.02-1.99-7.77.02-8.25Z"/>
      <path class="cls-5" d="M358.69,164.73l-3.04.25c-2.04-1.91-1.58-6.4,1.5-6.66,3.85-.42,2.3,4.16,1.53,6.42Z"/>
      <path class="cls-5" d="M204.16,200.11c7.22-2.25,2.72,8.89-1.66,5.1-1.67-1.44-.24-4.51,1.66-5.1Z"/>
      <path class="cls-5" d="M22.98,217.08c-.23.33-6.82,3.33-7.39,1.17-.68-2.52,3.75-4.33,5.64-4.84,1.72-.22,2.4,2.75,1.76,3.67Z"/>
      <path class="cls-5" d="M229.31,96.94c4.09-1.15,5.46,4.75,1.93,5.75-3.83,1.09-5.39-4.78-1.93-5.75Z"/>
      <path class="cls-5" d="M58.62,206.89c.96-.03,1.73.39,2.48.92l.7,2.17c-5.79,5.95-10.9-2.81-3.18-3.09Z"/>
      <path class="cls-5" d="M419.84,167.28c4.9-1.47,6.41,5.15,1.33,5.17-3.27,0-4.49-4.21-1.33-5.17Z"/>
      <path class="cls-5" d="M53.65,213.42c.86,3.59-3.93,7.1-6.37,3.73-1.76-3.37,3.93-4.14,6.37-3.73Z"/>
      <path class="cls-5" d="M398.97,180.38l-2.33.85c-3.62-1.92-1.19-8.72,2.21-5.95l.95,1.35-.83,3.74Z"/>
      <path class="cls-5" d="M260.99,117.03c-.97,1.53-6.01,1.02-4.81-2.88,1.59-5.19,7.12-.76,4.81,2.88Z"/>
      <path class="cls-5" d="M87.79,197.93c1.69,1.7.43,5.18-2.3,4.84-5.93-.73-1.08-8.25,2.3-4.84Z"/>
      <path class="cls-5" d="M234.35,209.79c.82-1.29,5.98-1.2,5.74,1.63-.42,5.04-8.43,2.63-5.74-1.63Z"/>
      <path class="cls-5" d="M493.75,200.17c2.08,2.15.92,6.53-2.8,4.67-3.62-1.81-.1-7.67,2.8-4.67Z"/>
      <path class="cls-5" d="M30.27,215.77c1.37-.12,2.8,1.73,2.4,3.1-.87,1.91-2.72,2.39-4.67,1.92-2.71-.84.19-4.85,2.27-5.02Z"/>
      <path class="cls-5" d="M274.71,228.15l-.64-1.67c4.61-9.57,8.22,4.76.64,1.67Z"/>
      <path class="cls-5" d="M203.05,186.47c3.72-1.2,5.59,4.19,2,5.08-2.91.73-4.58-4.25-2-5.08Z"/>
      <path class="cls-5" d="M68.57,209.68c.84,3.11-1.18,5.55-4.48,4.87-1.49-.98-.36-3.07.37-4.14l4.12-.73Z"/>
      <path class="cls-5" d="M350.48,129.18c1.33-.17,2.05.29,2.82,1.38l-.37,2.64c-1.11.75-4.8.65-5.24-.77-.42-1.72,1.36-3.06,2.79-3.24Z"/>
      <path class="cls-5" d="M259.34,229.18c3.71-1.22,5.4,2.58,3.3,4.05-3.56,2.48-6.55-2.98-3.3-4.05Z"/>
      <path class="cls-5" d="M340.59,124.27c1.18,1.19.56,2.89.17,4.27l-3.54-.92-.63-1.67c.25-2.29,2.26-3.43,4-1.68Z"/>
      <path class="cls-5" d="M260.54,206.07c2.03,2.83-3.6,5.42-4.41,2.52-.74-2.68,3.29-4.08,4.41-2.52Z"/>
      <path class="cls-5" d="M429.81,197.69c-.56-1.39-.79-2.58-.08-3.98,1.19-1.62,4.32.96,3.75,2.89l-3.67,1.09Z"/>
      <path class="cls-5" d="M454.46,185.73c-1.73-1.09.11-4.99,2.18-4.07,3.31,1.47.45,5.73-2.18,4.07Z"/>
      <path class="cls-5" d="M40.93,211.95c2.1,3-3.69,5.39-4.44,1.81-.41-1.97,3.74-2.81,4.44-1.81Z"/>
      <polygon class="cls-5" points="464.09 203.71 461.59 204.3 459.67 201.95 462.12 200.03 464.09 203.71"/>
      <path class="cls-5" d="M481.72,191.08c2.31-.4,3.39,3.88.55,4.36-2.31.4-3.39-3.88-.55-4.36Z"/>
    </g>
    <g>
      <path class="cls-3" d="M188.71,115.64c.52-.43,11.39-4.93,12.41-5.14,3.95-.8,8.63.67,10.82,4.19,6.4,10.27-12.79,17.82-20.69,16.21-6.96-1.42-7.51-11.14-2.55-15.26Z"/>
      <path class="cls-3" d="M193.69,84.2c10.35,10.03-6.76,26.85-15.83,20.67-6.63-4.51,4.04-14.94,4.87-20.57,2.66-3.52,8.02-2.95,10.96-.1Z"/>
      <path class="cls-3" d="M236.04,108.12c13.81-2.15,16.96,16.69,2.74,18.42s-19.88-15.75-2.74-18.42Z"/>
      <path class="cls-3" d="M62.58,172.33c.16-.2,3.68-2.95,3.98-3.1,11.66-6.07,20.28,9.02,11.88,17.85-6.11,6.41-12.31-4.11-16.49-8.2-.6-1.9-.66-4.93.63-6.54Z"/>
      <path class="cls-3" d="M68.16,129c4.04-.4,8.05,2.49,7.49,6.73-1.31,9.89-19.84,19.11-21.48,7.61-1.23-8.56,6.39-13.58,13.99-14.33Z"/>
      <path class="cls-3" d="M157.67,110.35c6.8-1.39,10.3,2.55,9.96,9.17-.61,11.91-23.88,7.43-23.88-.02,0-4.75,5.58-4.89,8.1-6.03,1.8-.81,3.79-2.71,5.82-3.13Z"/>
      <path class="cls-3" d="M78.55,145.41c7.76-1.79,19.21,7.8,9.58,12.56-3.17,1.57-15.36,5.51-18.32,4.07-4.9-2.39,4.91-15.75,8.74-16.63Z"/>
      <path class="cls-3" d="M280.82,105.85c8.3-1.57,18.53,7.7,8.65,13.9-12.05,7.56-25.5-4.76-11.68-12.43.92-.51,2.02-1.28,3.03-1.48Z"/>
      <path class="cls-3" d="M336.78,137.23c5.19-.86,14.34.7,14.97,7.08,1.13,11.55-25.28,10.28-21.33-3.01.61-2.05,4.39-3.75,6.36-4.07Z"/>
      <path class="cls-3" d="M371.09,154.36c6.84-1.52,19.49,5.17,14.27,13.54-5.4,8.66-19.63-1.82-19.09-7.99.18-2.06,2.69-5.08,4.82-5.55Z"/>
      <path class="cls-3" d="M311.8,124.17c-3.62-3.68,1.66-8.09,6.15-8.08,9.06.02,19.51,15.67,10.85,18.38-6.8,2.13-9.86-4.93-13.84-8.63-.97-.9-2.59-1.07-3.17-1.67Z"/>
      <path class="cls-3" d="M360.11,132.81c9.04-1.82,18.45,13.47,9.7,17.21-9.41,4.02-18.7-15.4-9.7-17.21Z"/>
      <path class="cls-3" d="M288.65,129.01c3.21-3.2,7.83.94,10.5,2.21,2.65,1.26,5.96.92,7.44,4.56,2.89,7.07-16.71,11.04-18.7,2.23-.41-1.82-.5-7.74.76-8.99Z"/>
      <path class="cls-3" d="M408.82,168.4c-1.64,1.79-4.97,2.29-7.21,1.33-1.69-.72-3.02-3.91-3.97-4.6-1.05-.76-3.23-.54-4.31-2.04-4.74-6.54,9.55-12.18,15.32-4.88,2.25,2.85,2.72,7.38.17,10.18Z"/>
      <path class="cls-3" d="M260.65,123.79c10.03-2.09,13.35,7.34,6.14,12.1-14.45,9.52-18.78-9.47-6.14-12.1Z"/>
      <path class="cls-3" d="M408.04,179.01c.33-.32,7.66-2.81,8.58-2.98,12.93-2.27,12.15,13.21-.05,12.97-4.66-.09-12.95-5.72-8.53-10Z"/>
      <path class="cls-3" d="M211.63,88.79c8.47-1.77,12.07,13.79,1.27,15.49-13.15,2.07-8.72-13.94-1.27-15.49Z"/>
      <path class="cls-3" d="M241.98,94.66c4.27-1.26,20.42.56,18.58,7.33-2.07,7.58-18.7.84-20.23-2.25-.89-1.8-.46-4.46,1.65-5.08Z"/>
      <path class="cls-3" d="M62.94,108.9c15.1-1.72,8.14,15.62-3.04,13.05-5.75-1.32-6.46-11.97,3.04-13.05Z"/>
      <path class="cls-3" d="M94.24,134.23c3.78-.77,7.77.03,9.18,3.96.66,6.51-14.04,7.72-15.41,2.6-.13-2.89,3.49-6,6.23-6.56Z"/>
      <path class="cls-3" d="M93.52,127.17c-3.99,3.96-14.4-.72-11.39-7.27,3.53-7.7,16.12,2.58,11.39,7.27Z"/>
      <path class="cls-3" d="M222.62,130.46c8.16-1.33,9.47,9.84-.22,10.34-8.57.45-6.08-9.32.22-10.34Z"/>
      <path class="cls-3" d="M318.86,153.26c-4.44,4.45-12.35-.92-8.79-6.93,4.01-6.76,14.07,1.65,8.79,6.93Z"/>
      <path class="cls-3" d="M250.97,213.27c6.64-1.27,6.28,11.91-.18,11.91-6.21,0-4.83-10.95.18-11.91Z"/>
      <path class="cls-3" d="M150.22,129.71c7.71-1.57,10.32,10.6,1.81,9.83-6.54-.59-7.23-8.73-1.81-9.83Z"/>
      <path class="cls-3" d="M264.32,211.73c8.73-.85,9.41,14.32.8,11.74-3.15-.95-2.6-11.16-.8-11.74Z"/>
      <path class="cls-3" d="M195.41,189.54c3.97,3.96-3.28,12.05-8.1,7.73-3.13-3.9,4.2-11.62,8.1-7.73Z"/>
      <path class="cls-3" d="M168.13,66.26c.65-.13,1.26-.23,1.9-.01,5.34,3.15.59,11.83-4.91,10.22-4.33-1.27-.95-9.44,3-10.21Z"/>
      <path class="cls-3" d="M121.87,128.23c7.04-.6,6.26,9.71-.82,9.34-6.7-.36-4.56-8.88.82-9.34Z"/>
      <path class="cls-3" d="M229.59,189.37c7.9-2.52,7.85,13.3.31,11.87-4.65-.88.5-8.95-.31-11.87Z"/>
      <path class="cls-3" d="M250.22,206.26c-3.52,3.45-12.32-3.96-7.25-8.36,5.34-4.65,9.08,6.57,7.25,8.36Z"/>
      <path class="cls-3" d="M78.56,102.08c3.38-.91,9.87,3.12,6.99,7.03-4.24,5.75-13.35-5.31-6.99-7.03Z"/>
      <path class="cls-3" d="M85.27,183.43c7.3-2.17,8.53,8.73.59,8.77-5.12.03-3.83-7.81-.59-8.77Z"/>
      <path class="cls-3" d="M219.31,190.55c.19.33,1.14.4,1.49,1.15,1.72,3.75-2.69,6-6.14,3.86-5.92-3.67.66-10.6,3.72-8.21.84.66.42,2.32.93,3.19Z"/>
      <path class="cls-3" d="M244.62,137.98c3.97-4.04,9.62,5.34,5.8,7.66-3.84,2.34-9.08-4.33-5.8-7.66Z"/>
      <path class="cls-3" d="M439.74,180.46c6.09-1.8,9.43,9.59,1.51,7.95-4-.83-5.16-5.97-1.51-7.95Z"/>
      <path class="cls-3" d="M275.61,140.16c8.57-2.13,3.21,15.67-4.14,4.6-.17-1.79,2.6-4.22,4.14-4.6Z"/>
      <path class="cls-3" d="M73.37,198.36c2.84-.47,4.63,1.75,4.36,4.38-1.12,4.01-10.03,4.6-9.11-.79.44-1.58,3.2-3.33,4.75-3.58Z"/>
      <path class="cls-3" d="M58.4,158.06c6.17-1.85,6.34,8.2,1.23,8.67-4.41.41-5.31-7.44-1.23-8.67Z"/>
      <path class="cls-3" d="M163.58,95.41c5.43-.52,5.11,10.11-2.2,7.91-4.1-1.24-1.47-7.55,2.2-7.91Z"/>
      <path class="cls-3" d="M125.54,115.57c4.98-.42,5.53,7.99-.13,7.99-5.09,0-5.87-7.48.13-7.99Z"/>
      <path class="cls-3" d="M464.4,184.97c2.56-.23,5.34,1.34,5.9,3.93.02,3.72-6.97,3.28-9.07,1.14l-.02-3.78c.38-.56,2.44-1.23,3.2-1.3Z"/>
      <path class="cls-3" d="M205.57,140.85c1.17,4.47-5.43,9.72-7.79,4.38-1.8-4.09,4.42-6.77,7.79-4.38Z"/>
      <path class="cls-3" d="M473.33,196.86c2.77-.75,8.73,2.6,6.25,5.55-4.78,4.74-11.97-3.99-6.25-5.55Z"/>
      <path class="cls-3" d="M449.46,192.36c2.56-.38,5.07,3.08,3.24,5.55-4.18,5.63-10.85-4.44-3.24-5.55Z"/>
      <path class="cls-3" d="M331.75,159.43c4.8-.92,8.5,2.44,6.01,7.15-4.16.79-6.89-3.2-6.01-7.15Z"/>
      <path class="cls-3" d="M62.25,94.61c1.93,3.04-4.43,9.24-7.04,5.11-1.02-3.21,5.13-8.12,7.04-5.11Z"/>
      <path class="cls-3" d="M300.19,118.49c4.39-1.22,5.41,5.54,1.92,6.51-4.39,1.22-5.41-5.54-1.92-6.51Z"/>
      <path class="cls-3" d="M216.57,204.37c3.47-.32,4.3,3.71,1.29,5.72-5.07,3.39-6.76-5.22-1.29-5.72Z"/>
      <path class="cls-3" d="M170.66,132.46c-2.7-4.31,5.51-9.23,5.82-4.04.21,3.6-4.45,6.22-5.82,4.04Z"/>
      <path class="cls-3" d="M388.21,151.47c-2.67,2.49-8.25-.15-5.86-3.77,2.26-3.42,8.64,1.18,5.86,3.77Z"/>
      <path class="cls-3" d="M296.31,153.46c2.72-.65,4.18,8.26-.02,8.25s-1.99-7.77.02-8.25Z"/>
      <path class="cls-3" d="M357.7,163.74l-3.04.25c-2.04-1.91-1.58-6.4,1.5-6.66,3.85-.42,2.3,4.16,1.53,6.42Z"/>
      <path class="cls-3" d="M203.17,199.11c7.22-2.25,2.72,8.89-1.66,5.1-1.67-1.44-.24-4.51,1.66-5.1Z"/>
      <path class="cls-3" d="M21.99,216.09c-.23.33-6.82,3.33-7.39,1.17-.68-2.52,3.75-4.33,5.64-4.84,1.72-.22,2.4,2.75,1.76,3.67Z"/>
      <path class="cls-3" d="M228.32,95.95c4.09-1.15,5.46,4.75,1.93,5.75-3.83,1.09-5.39-4.78-1.93-5.75Z"/>
      <path class="cls-3" d="M57.63,205.89c.96-.03,1.73.39,2.48.92l.7,2.17c-5.79,5.95-10.9-2.81-3.18-3.09Z"/>
      <path class="cls-3" d="M418.85,166.28c4.9-1.47,6.41,5.15,1.33,5.17-3.27,0-4.49-4.21-1.33-5.17Z"/>
      <path class="cls-3" d="M52.65,212.42c.86,3.59-3.93,7.1-6.37,3.73-1.76-3.37,3.93-4.14,6.37-3.73Z"/>
      <path class="cls-3" d="M397.98,179.39l-2.33.85c-3.62-1.92-1.19-8.72,2.21-5.95l.95,1.35-.83,3.74Z"/>
      <path class="cls-3" d="M260,116.03c-.97,1.53-6.01,1.02-4.81-2.88,1.59-5.19,7.12-.76,4.81,2.88Z"/>
      <path class="cls-3" d="M86.8,196.93c1.69,1.7.43,5.18-2.3,4.84-5.93-.73-1.08-8.25,2.3-4.84Z"/>
      <path class="cls-3" d="M233.35,208.79c.82-1.29,5.98-1.2,5.74,1.63-.42,5.04-8.43,2.63-5.74-1.63Z"/>
      <path class="cls-3" d="M492.76,199.18c2.08,2.15.92,6.53-2.8,4.67s-.1-7.67,2.8-4.67Z"/>
      <path class="cls-3" d="M29.28,214.77c1.37-.12,2.8,1.73,2.4,3.1-.87,1.91-2.72,2.39-4.67,1.92-2.71-.84.19-4.85,2.27-5.02Z"/>
      <path class="cls-3" d="M273.72,227.15l-.64-1.67c4.61-9.57,8.22,4.76.64,1.67Z"/>
      <path class="cls-3" d="M202.06,185.48c3.72-1.2,5.59,4.19,2,5.08-2.91.73-4.58-4.25-2-5.08Z"/>
      <path class="cls-3" d="M67.58,208.69c.84,3.11-1.18,5.55-4.48,4.87-1.49-.98-.36-3.07.37-4.14l4.12-.73Z"/>
      <path class="cls-3" d="M349.49,128.18c1.33-.17,2.05.29,2.82,1.38l-.37,2.64c-1.11.75-4.8.65-5.24-.77-.42-1.72,1.36-3.06,2.79-3.24Z"/>
      <path class="cls-3" d="M258.35,228.18c3.71-1.22,5.4,2.58,3.3,4.05-3.56,2.48-6.55-2.98-3.3-4.05Z"/>
      <path class="cls-3" d="M339.6,123.27c1.18,1.19.56,2.89.17,4.27l-3.54-.92-.63-1.67c.25-2.29,2.26-3.43,4-1.68Z"/>
      <path class="cls-3" d="M259.55,205.08c2.03,2.83-3.6,5.42-4.41,2.52-.74-2.68,3.29-4.08,4.41-2.52Z"/>
      <path class="cls-3" d="M428.82,196.69c-.56-1.39-.79-2.58-.08-3.98,1.19-1.62,4.32.96,3.75,2.89l-3.67,1.09Z"/>
      <path class="cls-3" d="M453.46,184.73c-1.73-1.09.11-4.99,2.18-4.07,3.31,1.47.45,5.73-2.18,4.07Z"/>
      <path class="cls-3" d="M39.94,210.95c2.1,3-3.69,5.39-4.44,1.81-.41-1.97,3.74-2.81,4.44-1.81Z"/>
      <polygon class="cls-3" points="463.09 202.71 460.6 203.31 458.67 200.95 461.13 199.04 463.09 202.71"/>
      <path class="cls-3" d="M480.73,190.09c2.31-.4,3.39,3.88.55,4.36-2.31.4-3.39-3.88-.55-4.36Z"/>
    </g>
    <path class="cls-6" d="M77.11,20.63c.88-.34,1.66.73,1.07,1.47-10.1,12.96-21.9,21.69-24.84,39.13-1.66,9.84,1.27,21.24-.66,29.61-.18.79.15,4.63-.96,6.55-.67,1.17-2.64.45-2.9-.87-3.78-19.02-5.89-42.97,12.65-64.24,1.06-1.21,11.03-9.84,15.64-11.64Z"/>
  </g>
  <path class="cls-6" d="M282.73,218.28c.33.96-1.09,1.7-1.79.87-12.07-14.22-26.15-27.68-46.06-33.47-6.57-1.91-13.3-3.31-20.12-3.93-3.67-.34-7.43-.61-11.11-.16-3.4.41-6.38,1.75-9.59,2.78-1.41.45-3.54,1.39-4.94.45-1.3-.88,1.16-2.66,2.43-3.56,14.81-10.4,55.98-3.41,79.01,19.06,1.31,1.28,10.46,12.92,12.16,17.96Z"/>
  <path class="cls-6" d="M421.19,160.14c.17.18.33.36.5.54-1.21,1.11-3.13.13-4.45-.85-27.32-20.28-57.58-36.57-89.54-48.23-8.89-3.24-17.76-6.44-26.76-9.41-6.69-2.21-13.24-4.76-19.96-6.91-11.68-3.75-23.58-6.95-35.58-9.73-8.89-2.06-17.78-4.12-26.66-6.19-6.38-1.49-12.79-2.91-19.14-4.55-.34-.09-.7-.17-1.03-.28-.63-.21-1.56-.51-1.9-1.14-.38-.69.08-1.7.72-1.9.57-.18,1.69.15,2.29.22.91.1,1.81.22,2.71.36,1.75.26,3.5.58,5.23.92,10.26,2.02,20.48,4.2,30.7,6.41,13.28,2.88,26.59,5.34,39.58,9.46,13.54,4.29,26.96,9.11,40.41,13.69,3.83,1.31,7.61,2.65,11.37,4.12,23.63,9.24,47.53,18.62,68.46,33.44,8.32,5.89,16.12,12.54,23.05,20.02Z"/>
</svg>