<?xml version="1.0" encoding="UTF-8"?>
<svg id="Sand" xmlns="http://www.w3.org/2000/svg" viewBox="0 0 727.71 225.53">
  <defs>
    <style>
      .cls-1 {
        fill: #cf9562;
      }

      .cls-2 {
        fill: #e2c0a1;
      }

      .cls-3 {
        fill: #d9ab81;
      }
    </style>
  </defs>
  <path class="cls-3" d="M705.63,71.21c-4.98-2.46-9.88-5.26-14.76-7.76-9.91-2.81-20.03-4.75-30.31-5.7-18.99-1.75-48.55-2.97-62.83-17.89-11.52-13.65-13.85-15.85-29.71-23.43-15.79-7.55-40.84-23.17-117.89-13.21-16.97,2.19-37.75-1.72-80.14,11.84-44.98,14.39-46.85,6.86-92.32,13.73-65.85,9.94-114.11,8.58-145.35,19.98-5.77,2.11-12.37,3.43-19.49,4.19-3.76,1.92-7.43,3.95-11.56,5.05-9.27,2.48-19.54,1.19-29.03,1.51-8.9.31-17.47,1.75-26.14,3.74-6.61,1.52-12.78,3.88-19.03,6.19-2.92,1.88-7.1,3.12-9.43,4.6-11.89,7.56-17.35,23.26-2.48,30.85,5.79,2.95,9.93,2.39,15.63,4.93.15,4.41-17.85,7.51-21.71,9.29-7.87,3.64-11.93,11.05-6.83,19.59,6.8,11.39,24.19,6.05,34.57,5.62,14.15-.59,7.45,8.41,16.29,15.51,22.49,18.04,59.76-9.24,85.72-4.44,23.81,4.4,34.07,22.02,63.58,19.06,5.53-.56,18.63-6.3,22.37-5.18,1.88.56,2.22,1.98,1.79,3.73-.98,3.96-9.54,12.72-11.93,17.55-11.45,23.15,15.39,33.13,33.5,34.34,32.09,2.14,79.65-3.76,106.71-21.85,8.18-5.47,20.99-18.69,30.4-19.92,14.8-1.93,34.86,5.39,49.84,8.08,16.8,3.02,52.36,8.44,65.42-4.28,7.12-6.94,5.11-17.38,14.83-21.55,14.81-6.35,31.53,7.79,44.98,12.85,6.89,2.59,14.25,4.6,21.57,5.52,19.19,2.39,47.36,4.87,66.47,4.81,9.27-.03,27.41-3.08,32.14-12.05,5.92-11.22-3.38-17.36-12.82-20.5l-.28-3.06c9.84-1.87,30.87,2.75,37.86-6.65,11.49-15.44-15.12-20.05-22.42-24.81-3.75-2.45-6.18-7.34-.38-8.83,10.84-2.78,38.69,2.02,41.96-13.76,2.31-11.13-11.94-20.57-18.81-27.69Z"/>
  <g>
    <path class="cls-1" d="M622.02,120.06c8.68-.43,18.97.2,27.63,1.33,3.25.42,15.81,2.07,16.52,5.91-.75,5.02-7.12,5.55-11.31,6.25-24.8,4.15-55.46,1.06-81.05,2.54-21.86,1.26-43.25,8.45-65.04,10.82-19.58,2.13-52.5-.62-69.25,5.83-14.64,5.64-20.54,11.2-37.8,14.06-23.27,3.86-27.05,1.05-47.97-4.95-25.22-7.24-57.72.55-85.6-3.42-12.13-1.73-35.03-12.34-44.14-11.43-10.12,1.01-20.07,4.08-31.01,4.59-9.88.47-40.41.79-47.25-6.23-3.85-3.95-.35-8.98,3.9-9.26,4.66-.31,14.44,3.29,20.19,3.74,8.2.64,20.14-.47,28.43-1.56,11.88-1.56,22.48-7.11,34.39-3.98,6.48,1.7,12.61,5.19,19.52,6.8,23.04,5.36,49.15,2.04,72.35,1.9,20.3-.13,23.1,3.9,40.51,8.32,14.47,3.68,28.98,2.89,43.34-1.1,11-3.05,18.46-12.17,29.29-13.28,26.49-2.73,53.83-2.05,80.31-5.61,16.74-2.25,32.57-8.32,49.61-9.22,18.08-.95,36.32-1.17,54.44-2.06Z"/>
    <path class="cls-1" d="M214.71,57.94c8.05,1.37,14.93,6.59,22.93,8.7,22.49,5.92,46.94-.69,69.92.52,13.49.71,29.71,6.56,42.33,5.24,15.99-1.68,34.64-9.41,51.53-11.95,20.86-3.13,40.25-1.43,60.96-1.74,2.09-.03,3.92-.95,6.13-.84,2.85.14,4.34,2.01,6.29,2.33,2.96.49,6.64-2.31,7.32,1.19-4.95,8.78-17.46,10.87-26.66,9.6-3.21-.44-5.87-2.65-9.35-3.03-19.78-2.17-44.57,2.38-64.01,6.43-9.94,2.07-21.67,6.25-31.41,7.29-15.02,1.59-31.8-6.03-47.79-6.75-26.34-1.18-58.86,9.99-81.9-7.12-3.11-2.31-5.91-4.44-7.19-8.31l.92-1.57Z"/>
    <path class="cls-1" d="M417.82,186.39c-11.17.72-19.62-3.74-30.8-1-13.01,3.18-19.8,10.93-30.1,17.89-17.97,12.15-49.56,18.11-71.08,20.26-16.73,1.67-35.12,3.63-51.48-.37-19.68-4.81-32.82-18.35-19.67-38.27,3.25-4.92,8.83-8.22,10.86-13.93l-.92-1.57c-9.01,1.82-16.66,6.49-26.23,6.16-6.21-.21-25.03-3.81-29.77-7.4-1.07-.81-2.57-1.88-2.37-3.43,12.98,1.11,25.44,7.05,38.89,5.21,5.54-.76,23.22-10.25,25.19-1.57,1.7,7.5-6.48,12.85-10.22,18.09-20.63,28.9,23.27,33.9,42.5,32.43,17.49-1.34,44.01-4.96,60.77-9.67,21.11-5.92,28.15-13.68,45.66-23.24,13.28-7.25,32.62-9.46,46.46-2.31,1.2.62,2.61.96,2.32,2.71Z"/>
    <path class="cls-1" d="M357.45,181.76c.22,1.2-.12,1.8-.73,2.74-4.43,6.85-33.15,17.11-41.67,19.48-19.64,5.45-69.31,16.69-86.04,4.43-15.77-11.56,15.8-31.88,8.04-44.42-5.8-9.38-22.98,1.68-31.31-.42,18.57-15.39,49.53-11.4,33.68,18.98-3.47,6.66-14.76,17.87-4.29,22.83,9.98,4.73,25.29,1.88,35.88.25,17.67-2.73,35.22-7.33,52.2-12.82,8.55-2.77,21.75-9.32,29.39-10.86,1.61-.32,3.23-.2,4.85-.18Z"/>
    <path class="cls-1" d="M649.81,112.64c-.58.7-3.71,2.24-4.75,2.59-15.75,5.38-41.32-8.76-55.98-14.56-10.2-4.03-22.53-.03-33.63-5.07-2.47-1.12-5.56-3.98-8.01-4.38-9.11-1.47-18.1,2.5-26.92-3.27-4.81-3.14-6.3-7.96-9.02-12.66-6.17-1.41-13.11-.36-18.69-3.79-.61-.37-2.05-.37-1.44-1.61,1.54-3.15,17.14-2.05,20.46-1.12,8.79,2.44,6.74,11.02,14.97,13.67,7.9,2.54,14.56-.94,22.14,1.08,4.79,1.27,8.41,5.37,13.31,6.04,5.72.78,12.66-.4,18.54.04,17.14,1.28,36.98,19.26,55.7,19.22,4.09,0,8.77-2.23,13.04-1.27,2.03.67,1.38,3.73.27,5.08Z"/>
    <path class="cls-1" d="M607.47,184.08c.2,2.07,0,1.24-1.16,1.53-10.35,2.49-29.02-.55-39.08-4.26-11.03-4.06-32.22-16.92-42.94-16.66-15.33.38-14.21,16.98-24.05,24.78-13.71,10.87-41.52,8.14-57.67,4.3-3.16-.75-6.11-1.51-8.47-3.9-.09-1.55,6.18-1.26,7.37-1.19,17.43.99,31.63,6.8,49.32-.93,13.73-6,10.34-18.37,19.91-25.76,16.96-13.12,41.2,6.56,57.02,13.45,12.6,5.49,26.15,7.42,39.75,8.63Z"/>
    <path class="cls-1" d="M113.97,54.02c-5.57-3.34-21.2-.55-27.42.11-10.21,1.09-23.11,2.85-33.16,4.77-6.62,1.27-12.42,3.65-18.77,5.6-1.27.67-2.69,1.05-4.18,1.13-.02,0-.03,0-.05,0-.57.34-1.13.68-1.7,1.02-.55.33-1.15.5-1.77.54-.01.01-.02.03-.04.04-1.97,1.73-10.11,4.37-13.52,6.6-14.74,9.66-15.84,27,2.42,32.27,3.88,1.12,19.5,2.1,8.11,6.9-7.26,3.06-18.87,2.7-22.22,11.83l1.85,1.11c5.79-7.27,23.56-6.39,27.6-13.44,5.12-8.94-12.39-8.96-17.47-11.25-9.68-4.35-9.33-14.68-1.86-21.25,11.09-9.75,31.01-13.77,45.23-15.15,13.27-1.29,25.1.83,38.18-2.25l3.31-1.58c3.91-.23,12.74-3.97,15.43-7.03Z"/>
    <path class="cls-1" d="M39.17,140.93c14.36-.94,10.75,10.25,18.7,16.45,10.08,7.87,32.36,3.81,44.14.76,15.35-3.98,33.73-14.49,47.98-2.32-.74,1.13-1.49,1.06-2.65,1.2-5.32.61-11.61-1.33-17.75-.71-21.61,2.17-55.2,22.88-75.94,4.54-5.22-4.62-4.26-8.46-7.19-12.93-3.45-5.26-14.13-1.12-19.54-2.13-1.22-.88-.47-1.27.49-1.85,2.26-1.37,9.03-2.8,11.76-2.98Z"/>
    <path class="cls-1" d="M690.79,105.79c1.07.6,2.52.73,3.74,1.09,1.83.03,3.65.1,5.48.14l11.74-2.5c1.93-1.22,5.35-3.72,3.73-6.37-1.92-3.15-12.04.37-15.52.78-2.79.33-10.11-.94-11.62,1.55-1.23,2.25.58,4.27,2.45,5.33Z"/>
    <path class="cls-1" d="M703.83,112.85c16.55-1.31,32.21-10.86,18.84-28.11-.85-1.1-7.46-7.82-5.93-2.59.66,2.27,3.32,4.78,4.41,7.2,4.43,9.79-1.07,14.77-8.64,16.9.3.42.1,1.24-.6,1.33-3.49.45-6.96,1.04-10.48,1.03-3.56,0-7.12-.32-10.68-.11-.3.02-.5-.11-.62-.3-16.23,1.22-17.26,12.58,1.75,19.72,6.82,2.56,16.21,2.3,14.68,12.8,4.94-1.06,2.62-6.62.41-9.31-4.12-5.01-26.19-9.22-24.34-15.72,1.06-3.73,17.64-2.56,21.21-2.84Z"/>
    <path class="cls-1" d="M657.4,184.85c4.81-.54,16.4-4.59,19.73-8.13,10.65-11.3-10.23-15.17-11.49-22.61-.66-3.9,4.92-6.25,8.08-6.34,5.11-.13,13.01,1.04,18.54,1.44,1.39.1,2.5-.2,3.43,1.2-.05,3.43-22.4.92-25.53,2.72,6.78,7.03,21.42,12.82,12.38,25.14-10.04,13.68-40.22,12.72-54.95,8.9-.67-1.29,1.33-2.31,1.93-2.31,8.5,0,19.78.91,27.87,0Z"/>
    <path class="cls-1" d="M97.58,86.34c-5.22-5.15,14.27-3.51,16.42-3.68,15.16-1.2,31.16-7.08,47.24-7.72,1.79-.07,3.79-.5,5,1.16-1.59,1.82-3.56,3.22-5.66,4.39-5.89,3.25-39.2,7.96-47.35,8.38-3.54.18-13.09,0-15.65-2.52Z"/>
    <path class="cls-1" d="M188.51,74.34c5.07-.8,11.82,2.44,17.04,3.49,3.06.62,12.22-.29,11.83,3.65s-7.54,2.97-10.46,2.73c-4.51-.37-12.36-3.45-16.2-3.08-2.8.27-9.45,7.23-12.59,9.14-6.2,3.78-12.54,5.68-19.26,1.73-1.86-5.64,4.17-3.48,7.72-3.98,7.36-1.03,12.7-12.23,21.93-13.69Z"/>
    <path class="cls-1" d="M43.7,99.05c4.02-1.39,16.27,1.98,21.55,2.04,3.47.04,16.38-3.43,16.37,2.09,0,3.39-6.88,4.04-9.42,4.25-5.58.46-21.62-.23-26.56-2.06-3.2-1.19-5.87-4.96-1.95-6.32Z"/>
    <path class="cls-1" d="M627.83,166.05c-2.17-2.56-.69-4.83,2.44-5.23,2.9-.38,14.36-.44,17.05.06,1.51.28,3.36,1.92,3.52,3.49.84,8.27-18.75,6.68-23,1.68Z"/>
    <path class="cls-1" d="M98.77,116.17c2.51-.12,5.28-.55,5.99,2.81,1.24,5.87-21.04,6.53-22.06,1.92-.82-3.74,13.71-4.61,16.07-4.73Z"/>
    <path class="cls-1" d="M58.08,130.07c.92-.82,9.49-2.62,10.97-2.48,6.18.55,4.95,8.97-5.28,7.66-2.04-.26-8.63-2.56-5.69-5.17Z"/>
    <path class="cls-1" d="M601.55,179.16c-1.58-1.55-2.85-4,.14-4.41.57-.08,10.88.81,11.43.97,4.55,1.33,2.83,6.56-2.22,6.75-2.22.08-7.73-1.74-9.34-3.31Z"/>
  </g>
  <g>
    <path class="cls-1" d="M708.1,73.86c-.07-1.23-1.11-2.22-2.13-2.94-1.87-1.31-3.96-2.28-6.03-3.24-7.03-3.25-14.21-5.46-21.82-7.15-7.75-1.73-15.37-3.06-23.29-3.62s-16.49-1.35-24.58-2.99c-5.09-1.03-10.25-2.16-14.82-4.73-3.17-1.79-5.96-4.16-8.77-6.46-1.41-1.15-2.81-2.35-4.32-3.36s-3.09-1.69-4.51-2.75c-2.1-1.57-3.99-3.43-5.84-5.28-4.18-4.19-8.6-7.92-13.23-11.58-2.98-.78-6.09-.68-9.15-.68-.45,0-.76-.2-.96-.47-.35.11-.71.26-1.07.47l-.05,1.6c5.13,3.56,9.11,11.91,14.09,15.16,6.77,4.41,13.18,5.43,18.68,10.92,8.2,8.19,20.39,11.49,31.44,13.6,12.89,2.46,26.02,3.26,39.08,4.35,4.48.37,8.96.77,13.42,1.36,6.37.84,12.13,2.53,17.9,5.41,1.94.97,3.87,2.02,5.97,2.57,0-.07,0-.13,0-.19Z"/>
    <g>
      <g>
        <path class="cls-2" d="M214.02,57.07c8.05,1.37,14.93,6.59,22.93,8.7,22.49,5.92,46.94-.69,69.92.52,13.49.71,29.71,6.56,42.33,5.24,15.99-1.68,34.64-9.41,51.53-11.95,20.86-3.13,40.25-1.43,60.96-1.74,2.09-.03,3.92-.95,6.13-.84,2.85.14,4.34,2.01,6.29,2.33,2.96.49,6.64-2.31,7.32,1.19-4.95,8.78-17.46,10.87-26.66,9.6-3.21-.44-5.87-2.65-9.35-3.03-19.78-2.17-44.57,2.38-64.01,6.43-9.94,2.07-21.67,6.25-31.41,7.29-15.02,1.59-31.8-6.03-47.79-6.75-26.34-1.18-58.86,9.99-81.9-7.12-3.11-2.31-5.91-4.44-7.19-8.31l.92-1.57Z"/>
        <path class="cls-2" d="M649.13,111.78c-.58.7-3.71,2.24-4.75,2.59-15.75,5.38-41.32-8.76-55.98-14.56-10.2-4.03-22.53-.03-33.63-5.07-2.47-1.12-5.56-3.98-8.01-4.38-9.11-1.47-18.1,2.5-26.92-3.27-4.81-3.14-6.3-7.96-9.02-12.66-6.17-1.41-13.11-.36-18.69-3.79-.61-.37-2.05-.37-1.44-1.61,1.54-3.15,17.14-2.05,20.46-1.12,8.79,2.44,6.74,11.02,14.97,13.67,7.9,2.54,14.56-.94,22.14,1.08,4.79,1.27,8.41,5.37,13.31,6.04,5.72.78,12.66-.4,18.54.04,17.14,1.28,36.98,19.26,55.7,19.22,4.09,0,8.77-2.23,13.04-1.27,2.03.67,1.38,3.73.27,5.08Z"/>
        <path class="cls-2" d="M113.29,53.15c-5.57-3.34-21.2-.55-27.42.11-10.21,1.09-23.11,2.85-33.16,4.77-6.62,1.27-12.42,3.65-18.77,5.6-1.27.67-2.69,1.05-4.18,1.13-.02,0-.03,0-.05,0-.57.34-1.13.68-1.7,1.02-.55.33-1.15.5-1.77.54-.01.01-.02.03-.04.04-1.97,1.73-10.11,4.37-13.52,6.6-14.74,9.66-15.84,27,2.42,32.27,3.88,1.12,19.5,2.1,8.11,6.9-7.26,3.06-18.87,2.7-22.22,11.83l1.85,1.11c5.79-7.27,23.56-6.39,27.6-13.44,5.12-8.94-12.39-8.96-17.47-11.25-9.68-4.35-9.33-14.68-1.86-21.25,11.09-9.75,31.01-13.77,45.23-15.15,13.27-1.29,24.66,1,37.74-2.08l3.75-1.75c3.91-.23,12.74-3.97,15.43-7.03Z"/>
        <path class="cls-2" d="M38.49,140.07c14.36-.94,10.75,10.25,18.7,16.45,10.08,7.87,32.36,3.81,44.14.76,15.35-3.98,33.73-14.49,47.98-2.32-.74,1.13-1.49,1.06-2.65,1.2-5.32.61-11.61-1.33-17.75-.71-21.61,2.17-55.2,22.88-75.94,4.54-5.22-4.62-4.26-8.46-7.19-12.93-3.45-5.26-14.13-1.12-19.54-2.13-1.22-.88-.47-1.27.49-1.85,2.26-1.37,9.03-2.8,11.76-2.98Z"/>
        <path class="cls-2" d="M703.15,111.99c16.55-1.31,32.21-10.86,18.84-28.11-.85-1.1-7.46-7.82-5.93-2.59.66,2.27,3.32,4.78,4.41,7.2,5.73,12.66-5.12,17.26-15.62,18.1-.02,0-.03.01-.05.02-4.44,1.13-8.86.76-13.36.64-18.13.41-20.02,12.39-.26,19.82,6.82,2.56,16.21,2.3,14.68,12.8,4.94-1.06,2.62-6.62.41-9.31-4.12-5.01-26.19-9.22-24.34-15.72,1.06-3.73,17.64-2.56,21.21-2.84Z"/>
        <path class="cls-2" d="M656.71,183.99c4.81-.54,16.4-4.59,19.73-8.13,10.65-11.3-10.23-15.17-11.49-22.61-.66-3.9,4.92-6.25,8.08-6.34,5.11-.13,13.01,1.04,18.54,1.44,1.39.1,2.5-.2,3.43,1.2-.05,3.43-22.4.92-25.53,2.72,6.78,7.03,21.42,12.82,12.38,25.14-10.04,13.68-40.22,12.72-54.95,8.9-.67-1.29,1.33-2.31,1.93-2.31,8.5,0,19.78.91,27.87,0Z"/>
      </g>
      <path class="cls-2" d="M707.41,72.99c-.07-1.23-1.11-2.22-2.13-2.94-1.87-1.31-3.96-2.28-6.03-3.24-7.03-3.25-14.21-5.46-21.82-7.15-7.75-1.73-15.37-3.06-23.29-3.62-8.22-.59-16.49-1.35-24.58-2.99-5.09-1.03-10.25-2.16-14.82-4.73-3.17-1.79-5.96-4.16-8.77-6.46-1.41-1.15-2.81-2.35-4.32-3.36s-3.09-1.69-4.51-2.75c-2.1-1.57-3.99-3.43-5.84-5.28-4.18-4.19-8.6-7.92-13.23-11.58-2.98-.78-6.09-.68-9.15-.68-.45,0-.76-.2-.96-.47-.35.11-.71.26-1.07.47l-.05,1.6c5.13,3.56,9.11,11.91,14.09,15.16,6.77,4.41,13.18,5.43,18.68,10.92,8.2,8.19,20.39,11.49,31.44,13.6,12.89,2.46,26.02,3.26,39.08,4.35,4.48.37,8.96.77,13.42,1.36,6.37.84,12.13,2.53,17.9,5.41,1.94.97,3.87,2.02,5.97,2.57,0-.07,0-.13,0-.19Z"/>
    </g>
  </g>
</svg>