<?xml version="1.0" encoding="UTF-8"?>
<svg id="Layer_11" data-name="Layer 11" xmlns="http://www.w3.org/2000/svg" viewBox="0 0 314.01 288">
  <defs>
    <style>
      .cls-1 {
        fill: #737438;
      }
    </style>
  </defs>
  <path class="cls-1" d="M92.43,89.16c1.04-.92,2.78-4.47,3.7-5.87,4.83-7.35,10.36-12.41,18.67-15.55,1.58-.6,4.35-.67,4.22-3.01,0-.06-.02-.12-.03-.18.2-1.49-.98-3.21-2.87-2.71-1.68.44-3.43.57-5.05,1.19-1.51.58-2.95,1.39-4.33,2.25-2.72,1.69-5.19,3.76-7.53,5.94-2.35,2.18-4.45,4.41-6.39,6.96-1.79,2.35-4.03,4.59-4.63,7.6-.12.59-.04,1.19.21,1.7-.04,1.89,2.4,3.14,4.03,1.7Z"/>
  <path class="cls-1" d="M124,163.14c6.61,2.54,10.92,2.47,17.67.19,3.19-1.08,8.57-5.87,10.82-8.48,10.01-11.65,5.06-30.65-3.92-41.44-12.89-15.5-39.08-22.55-54.48-6.63-11.3,11.68-9.81,29.68-.91,42.27,10.32,4.3,20.43,10.09,30.83,14.09Z"/>
  <path class="cls-1" d="M85.13,183c-3.74-1.71-6.17-2.83-9.38-5.54-1.28-1.08-4.1-4.38-5.51-4.59-.31-.05-.7-.04-1.01.02-.67.14-1.3.73-1.6,1.41-.44.57-.64,1.32-.42,2.04,1.07,3.45,4.31,5.78,7.26,7.56,3.44,2.08,7.06,3.93,10.97,4.92,1.22.31,2.54-.4,2.88-1.63.2-.73,0-1.51-.45-2.09-.34-1.12-1.54-1.56-2.74-2.1Z"/>
  <path class="cls-1" d="M66.13,113.83s.07-.03.1-.04c.62.06,1.25-.11,1.76-.61,1.08-1.05.57-3.05.67-4.46.18-2.75.87-5.8,1.89-8.36.48-1.2,1.99-3.37,2.15-4.33h0c.16-.74,0-1.51-.6-2.11-.84-.84-2.49-.97-3.31,0-2.17,2.57-3.41,5.56-4.47,8.72-1.01,3-2,6.42-1.07,9.56.36,1.21,1.64,1.97,2.88,1.63Z"/>
  <path class="cls-1" d="M116.19,172.38c2.06-.42,2.15-3.77-.02-4.29-18.96-2.47-36.2-11.37-49.25-25.22-.93-.99-2.72-3.71-3.98-4.01-.38-.09-.72-.1-1.11-.03-1.09.2-2.06,1.43-1.86,2.53.1.54,1.64,2.6,2.08,3.21,10.76,14.94,25.95,24.26,44.24,27.07,2.22.34,7.93,1.14,9.9.74Z"/>
  <path class="cls-1" d="M165.33,149.24c3.08,8.12,6.65,7.57,14.02,9.95,9.22,2.98,13.21,5.09,23.22,2.17,6.14-1.79,18.1-6.75,23.23-10.39,1.45-1.03,2.91-3.77,3.78-5.42,8.4-15.95,7.41-36.69-9.88-46.01-5.6-3.02-9.64-3.53-15.99-3.22-26.13,1.3-48.28,26.81-38.38,52.9Z"/>
  <path class="cls-1" d="M213.66,82.84c6.42,1.96,12.66,5.47,17.74,9.84,1.75,1.51,3.48,3.68,5.2,5.05,1.36,1.08,3.14,1.17,3.95-.58.36-.78.27-1.34-.07-1.95-.57-3.97-4.46-6.88-7.95-9.02-5.54-5.02-12.55-7.88-19.97-8.61-.28-.06-.55-.14-.83-.19-1.62-.34-4.38-1.18-5.31.73-.44.9-.23,2.13.53,2.77.97.82,5.18,1.5,6.71,1.96Z"/>
  <path class="cls-1" d="M130.66,94.68c12.16,3.97,21.32,11.09,27.61,22.28.28.5,1.39,3.25,1.82,3.15.87-1.26,1.34-2.77,2.07-4.12,5.54-10.31,15.02-18.46,26.12-22.27,1.32-.45,2.9-.71,4.12-1.15,1.13-.41.25-1.65-.15-2.51-2.13-4.69-6.38-9.97-10.13-13.46-3.58-3.33-8.07-6.55-12.61-8.42-18.14-7.46-36.45,3.12-41.45,21.41-.21.75-.92,3.27-.74,3.88.17.58,2.65.98,3.32,1.2Z"/>
  <path class="cls-1" d="M168.4,63.27c1.15.03,2.83-.37,4.05-.43,7.1-.39,14.26.17,20.78,3.19,1.63.75,5.27,3.58,6.49.87.72-1.62-.23-2.71-1.45-3.53-3.83-3.79-9.52-5.14-14.73-5.69-6.08-.63-12.07-.03-17.99,1.27-2.22.44-4.35.99-6.32,1.67-.74.25-1.77.52-2.23,1.16,2.25.16,4.44.13,6.67.49,1.42.23,3.34.96,4.73,1Z"/>
  <path class="cls-1" d="M211.85,197.82c-.71-.83-2.06-1.03-3.35-.06-1.16.88-2.16,2.36-3.58,3.35-4.52,3.18-10.03,3.21-14.74,5.31-2.03.9-2.04,2.9-.84,3.93.37.5.96.85,1.78.85,2.18,0,4.42-.09,6.47-.9,1.99-.79,4.05-1.62,5.97-2.56,1.63-.8,3.17-1.9,4.71-2.86,1.7-1.07,3.2-2.34,4.21-4.09.69-1.19.22-2.32-.63-2.96Z"/>
  <path class="cls-1" d="M313.94,236.38c-.1-2.72-.32-5.43-.58-8.13-.52-5.39-1.22-10.76-1.58-16.18-.3-4.52-.79-9.03-.9-13.56-.13-5.16-.02-10.31-.77-15.41-.39-2.65-.83-5.49-.6-8.11.57-6.71,0-13.06-1.72-19.17-1.13-4-1.05-7.97-.33-12.06.26-1.46.5-2.96.56-4.46.21-5.92.35-11.84.5-17.77.03-1.07.14-2.17,0-3.19-.82-6-.68-11.95-.38-18.08.51-10.47.37-21.01.56-31.52.03-1.63.34-3.25.52-4.88.18-1.64.49-3.27.52-4.91l.14-8.42.04-4.21c0-.16,0-.4,0-.6v-.62s-.04-1.24-.04-1.24c-.06-.83-.11-1.66-.2-2.48-.73-6.61-3.09-13.06-6.87-18.43-1.46-2.1-3.07-4.08-4.91-5.77-1.83-1.69-3.88-3.09-6.09-4-3.23-1.31-6.19-2.82-9.28-4.24-3.07-1.43-6.24-2.83-9.6-3.79-2.46-.72-5.03-1.3-7.62-1.6-2.31-.29-4.62-.52-6.93-.54-5.01-.04-10.05-.21-15.07-.04-3.97.07-7.94.32-11.87.97-.44.07-.89.12-1.35.15-1.48-.01-2.99-.11-4.46-.13-7.15-.1-14.3-.33-21.45-.34-2.3,0-4.61.05-6.91.12-1.31.03-2.61.07-3.92.11-2.48.06-4.95.09-7.42.02-4.65-.14-9.25-.42-13.88-.23-2.35.03-4.71.17-7.07.48-5.32.7-10.72,1.12-16.1,1.64-.17.02-.34.02-.52.03-.23,0-.45.01-.68.03-.66.01-1.32.01-1.98.05-.15,0-.3.01-.45.02-5.45,0-10.71-1.07-16.09-1.48-4.5-.34-8.98-1.05-13.31-1.93C106.8.67,97.64-.1,88.28.24c-1.92.04-3.85.12-5.79.25-.71.05-1.42.1-2.13.13-.62,0-1.25-.02-1.86-.07-4.09-.33-8.16-.7-12.19-.5-3.02.03-6.03.31-9.02,1.13-.09.03-.2.04-.3.06-.32-.01-.63-.02-.94,0-2.16.07-4.32.08-6.48.06l-1.62-.02h-.82s-.97,0-.97,0c-.59,0-1.18.02-1.77.05h-.17c-1.29,0-2.58.09-3.87.2-5.14.5-10.24,2.01-14.69,4.61-4.64,2.71-8.85,6.02-12.51,9.87-3.66,3.85-6.77,8.27-9.05,13.15-1,2.11-1.61,4.44-2.4,6.57-.16.45-.32.9-.47,1.36-.14.46-.26.92-.38,1.39-.26.93-.41,1.88-.57,2.82-.14.95-.22,1.91-.27,2.86-.01.48-.02.95-.03,1.43v.7s.02.59.02.59c.13,3.16.5,6.27,1.05,9.26.8,4.35.72,8.39.35,12.46-.45,5-.83,9.85-.23,14.91.34,2.86.51,6.04.09,8.83-.01,1.7-.04,3.4.02,5.1.11,3.02.86,5.68,1.63,8.54.13.49.14,1.01.15,1.51.02,1.74.04,3.48.06,5.22,0,.32,0,.64.11.94.09.26.24.5.39.73,3.87,6.09,4.33,14.62,2.88,21.5-1.11,5.28-1.32,10.64-1.8,15.95-.13.64-.26,1.27-.4,1.9-.29,1.32-.56,2.64-.8,3.97-.06.58-.11,1.15-.16,1.73-1.31,13.79-2.09,27.52-1.97,41.46.08,9.74.41,19.48.48,29.23.03,3.87.13,7.74.06,11.6-.02,2.17.04,4.43.22,6.65.19,2.23.47,4.46.82,6.73.35,2.11.97,4.33,1.88,6.43.91,2.1,2.13,4.08,3.52,5.74,3.5,4.17,7.39,7.76,11.66,10.84,4.27,3.08,8.92,5.65,13.99,7.6l1.38.48.7.23.71.2,1.43.38c.48.11.96.2,1.45.3.97.21,1.95.31,2.94.44.49.06.99.08,1.48.11l.74.04.37.02h.31c.97.04,1.94.06,2.91.06,2.05.02,4.11-.02,6.18-.1.89-.03,1.77-.06,2.66-.1.36-.02.73-.03,1.09-.04.79-.02,1.58-.03,2.38-.04,1.53,0,3.07.01,4.6.05,1.96.04,3.94.12,5.9.13.47,0,.94,0,1.4,0,.02-.02.03-.04.05-.06,3.19.04,6.36-.07,9.42-.76,2.05-.46,3.94-.87,6.12-.78,4.99.2,9.99.43,14.99.45,6.19.03,12.33.2,18.52.53,7.37.39,14.85-.18,22.29-.34,3.32-.07,6.65-.24,9.97-.18.27,0,.55.02.82.04-.05.05-.1.11-.15.16,1.82.19,3.64.49,5.44.44,2.47-.07,4.94-.15,7.41-.24,2.2-.08,4.4-.16,6.6-.24,7.45-.26,14.89-.47,22.36-.28-.02-.03-.04-.05-.06-.08,2.19.04,4.38.11,6.58.22,2.05.11,4.11.2,6.17.28.03.03.05.07.08.1,4.53.16,9.06.27,13.59.3,1.1,0,2.19-.02,3.29-.07,3.03-.08,6.07-.37,9.11-.56.35,0,.71.03,1.07.05,3.17.17,6.34.4,9.51.51.38.01.75.01,1.12.01-.09-.03-.17-.05-.25-.08-.01,0-.02,0-.03-.01.2,0,.41.02.61.03,4.09.13,7.35-.39,9.93-1.37.82.02,1.62.17,2.44.23,1.36.11,2.77-.34,4.15-.42,1.59-.09,3.18-.02,4.76.2.29.04.59.09.88.04.25-.04.49-.14.73-.2,1.17-.31,2.33.16,3.49.25,1.25.1,2.54.09,3.8.09.05,0,.09,0,.14,0,.8,0,1.6-.02,2.4-.06,2.55-.04,5.13-.31,7.75-.96,1.11-.25,2.19-.62,3.31-1.01,1.08-.44,2.2-.9,3.27-1.49,2.17-1.15,4.29-2.65,6.24-4.59,2-1.98,3.96-4.14,5.61-6.46,1.66-2.32,3-4.81,3.8-7.29,1.02-3.12,1.75-6.25,2.33-9.38.58-3.13,1.02-6.26,1.42-9.48.13-.89.18-1.78.23-2.67.05-.98.06-1.56.06-2.27.01-1.37-.01-2.74-.07-4.1ZM275.75,148.21v.2s-.04.17-.04.17c-.02.12-.04.23-.05.35-.04.23-.07.48-.13.71-.06.23-.12.46-.18.7-.03.12-.06.24-.1.36-.04.11-.08.23-.12.35-.08.23-.16.47-.24.7-.18.46-.38.92-.59,1.38-1.72,3.63-4.34,6.98-6.63,9.34-.92.96-1.86,1.88-2.9,2.75-1.05.87-2.12,1.59-3.15,2.28-1.04.69-2.05,1.32-2.99,1.97-.47.32-.92.65-1.33.99-.05.04-.11.09-.15.12-.03.03-.05.05-.08.08-.05.04-.13.13-.2.21-.07.07-.14.17-.22.27-.07.1-.15.19-.22.3-.33.47-.71,1.17-1.03,1.82-.45.91-.87,1.86-1.3,2.83l-.66,1.46c-.11.25-.23.5-.36.75l-.37.71c-.98,1.88-1.95,3.75-2.93,5.63-1.31,2.52-2.23,5.12-4.06,7.34-1.68,2.04-3.73,3.73-5.66,5.51-2.38,2.2-4.91,4.28-7.41,6.34-1.53,1.26-3.08,2.5-4.62,3.74.98.61,2.54-.25,3.49-.58,1.32-.45,2.63-.94,3.93-1.45,2.56-1,5.08-2.11,7.57-3.26,1.75-.81,3.57-1.73,5.38-2.7.39-.21.81-.49,1.26-.77.45-.28.92-.57,1.44-.84.51-.27,1.08-.52,1.74-.67.65-.15,1.44-.2,2.2.05.18.07.37.12.53.22.17.09.33.18.49.29.34.24.62.55.84.88.44.66.62,1.39.64,2.11,0,.36-.04.73-.13,1.09-.05.18-.11.36-.18.54-.03.09-.08.18-.13.27-.05.1-.1.19-.17.28-.06.1-.12.17-.18.24-.06.07-.11.13-.16.19-.1.12-.2.22-.29.32-.19.2-.38.38-.56.56-.75.71-1.49,1.37-2.25,2.02l-2.32,1.92c-3.16,2.48-6.56,4.68-10.16,6.53-.53.3-1.1.55-1.65.81-.56.26-1.11.53-1.67.8-.57.24-1.14.48-1.71.72-.57.23-1.13.5-1.72.69-1.17.41-2.32.88-3.52,1.21l-1.78.54c-.6.16-1.21.29-1.81.44-.45.11-.89.22-1.33.33-.45.09-.89.18-1.34.26-.67.11-1.32.24-1.98.33-.66.08-1.32.15-1.98.23-3.59.38-7.23-.02-10.86-.02-1.16-.03-2.32-.06-3.46.16-2.11.42-4.18,1.7-6.16,2.54-.84.35-1.69.7-2.54,1.03-2.25.86-4.54,1.57-6.85,2.23-.15.04-.33.12-.34.27,0,.03,0,.06.02.08,0,0,0-.01,0-.02,0,0,0-.01,0-.02,0,.02,0,.04,0,.05.06.13.27.18.43.19,2.46.1,4.7-.21,7.12-.5.65-.07,1.34-.12,2.13.01l.28.05c.09.02.19.06.29.09l.28.1.29.14c.09.05.19.09.28.16.09.06.18.13.26.2.18.13.32.3.46.47.16.17.24.33.34.49.09.17.19.35.26.54.16.38.23.84.21,1.28-.01.45-.14.88-.31,1.24-.17.36-.39.68-.62.95-.46.54-.97.94-1.48,1.3-1.24.84-2.55,1.41-3.88,1.9-1.34.48-2.73.83-4.11,1.04-3.03.47-6.08.21-8.96-.44-2.06-.47-4.24-1.05-6.13-2.01-1.71-.87-3.35-2.02-5.3-2.25-1.72-.2-3.44.35-5.14.5-.68.06-1.35.13-2.03.17-2.71.2-5.45.29-8.19.24-2.74-.04-5.49-.2-8.24-.5-2.74-.31-5.48-.75-8.19-1.32-.59-.13-1.23-.27-1.76-.39-2.91-.59-5.82-1.4-8.71-2.39l-.54-.18c-.22-.08-.4-.15-.58-.22-.35-.14-.71-.28-1.06-.43-.7-.28-1.39-.56-2.09-.85-.41-.16-1.12-.27-.65.43.77,1.14,2.41,2.12,3.49,2.96,1.35,1.07,2.85,2.08,4.23,3.02,1.56,1.07,3.17,2.08,4.82,3.03.83.47,1.66.93,2.5,1.37.42.22.85.43,1.27.65.23.12.38.19.59.27.2.08.42.17.64.25.89.35,1.88.69,2.87,1.35.49.34,1.01.79,1.37,1.44.1.15.16.34.23.51.08.17.11.36.14.55.02.09.04.19.04.27v.25c.03.16.02.33,0,.51-.05.68-.31,1.45-.81,2.02-.49.58-1.14.94-1.77,1.13-.64.19-1.27.24-1.88.2-.08,0-.14-.01-.2-.02l-.19-.02-.37-.05-.75-.09c-2.7-.36-5.35-.95-7.89-1.87-2.54-.91-5.02-2.04-7.38-3.44-3.21-1.89-6.5-4.26-9.36-6.91l-1.07-.99-1.02-1.04-.51-.52-.25-.26-.24-.27-.97-1.09-.48-.55-.46-.57-.91-1.14c-.31-.38-.57-.79-.86-1.18l-.42-.6c-1.14-1.54-1.84-3.36-2.97-4.91-1.3-1.8-2.91-2.3-4.79-3.23-.96-.49-1.9-1.02-2.84-1.54-.5-.27-.45.19-.32.52.4,1.07.23,2.3-.34,3.28-.42.72-1.17,1.29-1.89,1.52-.72.25-1.41.28-2.04.24-.64-.04-1.23-.17-1.82-.38-.28-.1-.61-.23-.84-.36-.25-.14-.51-.26-.76-.41l-.71-.46c-.23-.16-.44-.34-.67-.51-.86-.71-1.62-1.51-2.29-2.35-1.32-1.71-2.32-3.59-3.06-5.56-.12-.34-.25-.68-.36-1.03l-.17-.52-.15-.53c-.11-.35-.19-.71-.28-1.06-.04-.17-.09-.37-.13-.55-.04-.18-.07-.36-.09-.53-.15-.46-.32-.92-.53-1.34-.21-.43-.46-.87-.75-1.24-.24-.31-.54-.58-.81-.87-.09-.06-.18-.11-.28-.17-2.3-1.44-4.18-3.52-6.15-5.39-.5-.47-1-.94-1.58-1.3-1.47-.91-3.24-.99-4.87-1.41-1.56-.4-3.13-.94-4.59-1.62-.42-.19-.84-.39-1.25-.61l-1.23-.65c-.41-.21-.8-.47-1.2-.7l-.6-.36c-.2-.12-.39-.26-.58-.38-1.57-1-3.08-2.16-4.6-3.44-1.62-1.37-3.32-3.18-4.69-5.04-1.72-2.31-3.15-4.85-4.21-7.53-.13-.34-.27-.67-.39-1.01l-.33-1.03c-.24-.68-.4-1.39-.58-2.09-.09-.36-.17-.69-.24-1.05-.08-.36-.14-.73-.19-1.11-.05-.39-.06-.79-.03-1.22.04-.43.15-.9.41-1.33.26-.44.67-.79,1.09-1.01.44-.2.84-.32,1.3-.36.46-.04.95.02,1.39.2.44.17.82.43,1.13.72.62.58,1.04,1.24,1.41,1.87.37.64.68,1.28,1,1.88.16.3.32.55.52.85.19.29.38.58.58.86.39.57.8,1.13,1.21,1.69.83,1.11,1.71,2.19,2.62,3.23.42.48.87.93,1.28,1.42.15.18.41.32.61.2.2-.13.18-.43.07-.64-.22-.41-.44-.82-.65-1.24-.42-.83-.86-1.65-1.22-2.52-.36-.8-.73-1.58-1.11-2.36-.36-.79-.69-1.58-1.04-2.39-1.74-4.13-3.32-8.4-4.24-12.88-.11-.59-.33-1.44-.5-2.15-.82-3.67-1.47-7.4-1.76-11.16-.04-.47-.09-.94-.12-1.41l-.07-1.41-.06-1.41c-.02-.47-.05-.94-.04-1.42l.02-2.83c0-.47.03-.94.06-1.42l.08-1.42c.03-.52.05-1.06.08-1.6.05-.54.09-1.08.14-1.62l.12-1.37.06-.68.09-.68.36-2.72c.25-1.83.68-3.63,1.1-5.39.32-1.32.61-2.62.85-3.92.1-.54.19-1.07.27-1.6l.1-.8c.16-1.31.36-2.62.53-3.94.02-.14.04-.29-.02-.42-.01-.03-.04-.05-.06-.08h0s0,0,0,0c-.07-.09-.17-.16-.27-.12-.08.02-.14.09-.19.15-.67.8-1.26,1.69-1.85,2.55l-.7,1.02-.34.51c-.1.15-.2.32-.31.5-.42.7-.84,1.43-1.29,2.16-.46.73-.92,1.45-1.57,2.17-.17.18-.34.35-.59.55-.26.2-.56.36-.88.44l-.41.09c-.13.02-.26.03-.39.05-.13.02-.27.02-.41.02-.14,0-.28,0-.42-.03-.57-.06-1.17-.28-1.66-.68-.49-.39-.84-.93-1.03-1.47-.2-.54-.26-1.09-.24-1.6,0-.13.01-.26.02-.38.01-.13.02-.25.05-.38.04-.26.1-.49.15-.71.24-.89.54-1.68.85-2.48.31-.79.64-1.57.98-2.34.3-.69.62-1.4.94-2.08.95-1.86,2-3.65,3.14-5.36,1.16-1.7,2.41-3.31,3.75-4.85,1.35-1.52,2.81-2.95,4.35-4.28,1.55-1.32,3.2-2.53,4.94-3.63l.94-.57c.32-.19.63-.38.96-.55l.97-.52.49-.26.5-.23,1-.47c.31-.15.74-.33,1.1-.45.73-.26,1.41-.45,2-.67.29-.11.55-.23.75-.34.22-.13.48-.31.74-.5.52-.39,1.05-.83,1.59-1.29.54-.46,1.1-.93,1.7-1.4.3-.23.61-.47.95-.69.32-.22.63-.41.94-.61,1.97-1.24,4.09-2.32,6.19-3.26,2.1-.95,4.16-1.79,6.07-2.65,1.58-.67,2.99-1.82,4.43-3.08.72-.63,1.44-1.3,2.21-1.95.38-.33.78-.65,1.19-.97l1.2-.89c3.23-2.35,6.65-4.44,10.27-6.15,4.19-1.97,8.63-3.48,13.26-4.19,1.57-.22,3.06-.37,4.57-.53,1.51-.15,3.03-.3,4.55-.4,3.8-.26,7.64-.32,11.47-.06,2,.13,4.04.37,5.99.65,1.12.16,2.24.36,3.34.59.93.2,1.82.42,2.78.41.34,0,.68-.02,1-.1.83-.23,1.48-.87,2.22-1.29.73-.42,1.51-.79,2.28-1.14,2.4-1.1,4.9-1.9,7.43-2.5.13-.07.25-.15.38-.22.1-.05.2-.1.29-.16.03-.02.09-.05.12-.08.01-.02.03-.03.04-.04,0,0,.01,0,.02-.01,0,0,0,0,0,0l.03-.06.03-.1s0,0,0,0c0,0,0-.13,0-.13,0-.02,0-.03-.01-.05,0-.02-.01-.03-.02-.05l-.02-.03h-.01s-.06-.05-.08-.06c-.05-.01-.1-.03-.14-.04-.05-.01-.09-.02-.14-.03,0,0,0,0-.01,0-.1,0-.19-.01-.29-.02-.09,0-.17-.02-.25-.06-.08,0-.16-.02-.24-.03-1.14-.12-2.28-.25-3.43-.41-.69-.11-1.38-.21-2.09-.39-.17-.03-.36-.1-.55-.14-.18-.04-.38-.12-.57-.19-.18-.06-.42-.18-.63-.29-.11-.05-.2-.13-.3-.2-.1-.07-.19-.14-.28-.22-.73-.63-1.22-1.55-1.3-2.53-.11-.98.24-2.03.93-2.78.08-.1.18-.17.27-.26.09-.09.19-.17.29-.23.1-.07.2-.14.31-.2l.28-.14c.19-.09.39-.2.57-.26l.56-.19c.19-.07.37-.1.55-.15l.55-.13c.36-.06.72-.13,1.08-.18,1.43-.19,2.83-.23,4.22-.22,6.01.11,12.24,1.24,17.6,3.97,1.54.79,3.01,1.7,4.37,2.75.34.26.68.52,1,.8l.49.42c.19.17.34.32.5.47l.87.87c.14.14.28.27.42.39.06.06.13.12.18.15.04.03.06.05.1.07.02,0,.09.04.16.07.07.03.14.05.22.08.15.05.32.1.49.15.34.09.7.18,1.06.26.73.17,1.48.31,2.28.51.12.03.25.07.38.1l.35.11c.23.07.46.14.69.22.46.15.92.3,1.38.47.91.33,1.82.68,2.72,1.08.89.4,1.78.83,2.64,1.33.86.49,1.71,1.06,2.5,1.73.26.21.54.48.73.67l.31.37c.1.13.2.24.31.39.21.29.37.59.51.87.28.56.49,1.08.71,1.47.05.09.11.18.16.24.02.03.05.06.08.09.03.03.05.06.09.09.14.14.35.29.56.43.43.3.89.58,1.37.88.48.29.96.59,1.45.93.25.17.5.35.75.56.27.23.47.44.67.65.4.42.77.83,1.15,1.22.19.19.37.39.55.56.18.17.37.34.42.36.04.03.27.1.49.16.22.06.46.12.7.17,1.38.31,2.77.5,4.12.93.36.11.83.21,1.06-.08.23-.28.06-.7-.14-1-.9-1.39-2.3-2.55-3.51-3.66-.18-.17-.36-.33-.55-.5l-.26-.24-.27-.23c-.38-.31-.77-.62-1.15-.93-.58-.47-1.16-.94-1.74-1.44-.58-.5-1.15-1.01-1.71-1.63-.14-.16-.28-.31-.42-.5-.14-.19-.27-.36-.42-.65-.14-.27-.23-.57-.27-.88-.04-.26-.04-.53-.02-.79.08-1.06.64-2.08,1.53-2.69.44-.31.96-.51,1.48-.59l.39-.04h.34c.23,0,.43.02.65.03.83.09,1.59.26,2.34.46,1.49.4,2.9.91,4.28,1.5.75.31,1.44.7,2.16,1.06.36.18.69.4,1.03.6.34.21.69.39,1.01.62.33.22.65.45.98.67.17.11.32.23.48.35l.46.36c.63.47,1.21,1,1.79,1.52,1.13,1.08,2.21,2.22,3.14,3.47.49.61.91,1.26,1.36,1.91.22.32.41.66.61,1,2.04,3.41,3.42,7.23,4.21,11.12.09.44.17.89.4,1.27.2.34.5.6.79.86,2.73,2.43,5.28,4.84,7.48,7.77,1.86,2.48,3.48,5.13,4.78,7.97.88,1.92,1.58,3.92,1.89,6.02.09.62.2,1.32.72,1.66.48.32,1.12.19,1.7.2,2.37.03,4.32,2.43,5.72,4.08.94,1.11,1.79,2.27,2.58,3.48.79,1.21,1.51,2.45,2.15,3.77.31.66.58,1.32.87,1.99.26.67.5,1.36.75,2.04,1.08,3.34,1.6,6.92,1.53,10.47-.05.92-.07,1.85-.2,2.77l-.08.69c-.03.23-.06.46-.11.69-.09.46-.18.91-.27,1.37-.68,3.49-2.28,6.91-4.34,9.79-.81,1.13-.82,2.78-1.02,4.13-.22,1.48-.4,2.97-.58,4.45,0,.05-.01.09,0,.14.03.2.27.31.47.28.46-.09.83-.6,1.13-.93,1.05-1.19,2.06-2.43,3.09-3.73.57-.71,1.16-1.35,1.63-1.78.2-.18.37-.33.51-.42.29-.38.62-.7,1-.93.12-.12.26-.24.44-.36.13-.08.26-.19.42-.26.16-.07.34-.16.53-.23.2-.05.42-.12.66-.14.24-.01.5-.05.77,0,.64.06,1.46.35,2.12,1.02.66.66,1.1,1.66,1.17,2.7.04.27,0,.52,0,.78ZM50.86,107.62s0-.11,0,0h0ZM219.08,67.84s.02,0,.03-.01c0,0-.01,0-.02,0h-.01Z"/>
  <path class="cls-1" d="M232.33,157.43c-.92-.54-2.38-.35-3.03.56-1.34,1.14-3.17,3.44-4.07,4.33-1.46,1.43-3.24,3.01-4.81,4.31-11.81,9.72-34.77,21.18-49.51,25.34-1.54.43-5.53.97-6.52,1.77-1.1.89-1.03,2.41.02,3.3.64.55,1.64.45,2.47.39,4.24-.31,9.63-1.48,13.8-2.48,7.98-1.91,15.65-4.87,22.81-8.75,1.81-.83,3.61-1.68,5.38-2.6,3.23-1.67,6.45-3.5,9.23-5.87.92-.79,1.76-1.66,2.56-2.58,5.03-4.02,9.82-8.58,12.52-14.52.52-1.15.33-2.52-.84-3.2Z"/>
  <path class="cls-1" d="M143.17,184.28c10.35-1.82,20.09-5.86,30.65-6.74,2.27-.19,4.56-.07,6.83-.25,2.33-.67,2-4.17-.08-4.54-1.76-.31-4.42-.3-6.25-.29-15.53.08-30.78,4.8-46.04,7.02-7.46,1.08-14.29,1.49-21.84,1.38-.78-.01-1.51-.27-2.39-.14-2.01.28-2.65,2.8-.89,3.88.91.56,4.33.91,5.57,1.06,11.2,1.33,23.39.57,34.46-1.38Z"/>
  <path class="cls-1" d="M253.76,144.65c-.13-.79-.38-1.56-.55-2.34,0-.87-.08-1.74-.57-2.45-.93-1.35-2.72-1.44-3.76-.16-1.04,1.28-.56,2.65-.68,4.15-.91,11.55-4.24,20.87-11.54,29.83-1.64,2.01-3.65,3.7-5.18,5.59-.21.25-.42.53-.6.82-.67.57-1.04,1.43-.78,2.37.31,1.14,1.69,2.08,2.88,1.63,3.85-1.43,6.73-4.92,9.52-7.81,2.81-2.91,5.48-6.05,7.47-9.59,2.13-3.81,3.32-7.91,3.8-12.23.24-2.13.32-4.3.26-6.44-.03-1.12-.09-2.27-.26-3.38Z"/>
  <path class="cls-1" d="M126.23,198.68s-.08.03-.12.04c-1.23-.27-2.68.51-3.9.78-2.63.58-4.74.42-7.3-.3-1.5-.42-5.15-2.24-6.33-2.18-1.07.05-1.87.8-2.16,1.7-.04.05-.08.1-.11.15-.7,1.19-.18,2.45.84,3.2,2.69,1.98,6.19,3.09,9.52,3.24,1.86.09,3.76-.11,5.59-.42.93-.16,1.85-.36,2.73-.71.83-.33,1.62-.73,2.48-.98,2.89-.84,1.66-5.36-1.24-4.51Z"/>
  <path class="cls-1" d="M167.54,211.55c-.14-.08-.3-.15-.47-.19,0,0,0,0-.01-.01-1.52-1.29-4.09.57-5.75,1.16-8.36,2.99-16.12,2.34-24.69.86-1.56-.27-3.77-.99-5.51-1.05-2.33-.62-4.12,2.89-1.74,4.3,2.96,1.74,6.67,1.84,9.98,2.46,3.83.71,7.65,1.06,11.54,1.21,3.67.14,7.27.05,10.81-1.03,2.53-.78,5.52-1.9,6.68-4.49.52-1.15.33-2.52-.84-3.2Z"/>
</svg>