<?xml version="1.0" encoding="UTF-8"?>
<svg id="Layer_11" data-name="Layer 11" xmlns="http://www.w3.org/2000/svg" viewBox="0 0 314.01 288">
  <defs>
    <style>
      .cls-1 {
        fill: #737438;
      }
    </style>
  </defs>
  <path class="cls-1" d="M249.13,280.94c-28.45-18.61-50.21-54.31-61.37-82.52-.77-1.95-1.47-4.01-2.21-6.18-1.01-2.97-2.05-6.04-3.3-8.83,0-.02-.83-1.85-1.65-2.58-1.3-1.19-2.61-1.44-3.48-1.44-2.1,0-4.06,1.4-5.39,3.83-2.1,3.87-1.11,7.53-.24,10.76.11.39.21.79.32,1.19,2.79,10.93,7,21.85,12.86,33.41,4.54,8.94,9.25,17.79,14.22,26.5,4.42,7.75,9.04,15.4,13.92,22.86,2.3,3.52,4.65,7.59,8.91,8.95,4.41,1.4,9.01-.16,13.49-.05.36,0,.71.03,1.07.05,2.85.15,5.8.3,8.69.41,1.48.05,2.95.11,4.43.11.96,0,2.28-.1,2.72-1.14.12-.28.12-.6.09-.9-.09-.8-.46-1.55-.93-2.2-.56-.77-1.35-1.7-2.16-2.23Z"/>
  <path class="cls-1" d="M156,124.74c-.42-4.09-3.44-8.44-8.18-8.44-.56,0-1.13.07-1.7.19-4.08.93-6.03,6.26-6.3,9.41-.26,2.97-.63,13.16,5.48,19.73.81.87,1.71,1.31,2.68,1.31,1.58,0,2.47-1.14,2.95-1.75.07-.09.14-.18.22-.27,5.57-6.77,5.25-16.37,4.86-20.18Z"/>
  <path class="cls-1" d="M130.57,87.04c-2.38-4.95-6.78-8.02-11.48-8.02-.22,0-.44,0-.66.02-4.91.3-8.89,4.12-10.65,7.77-2.05,4.24-1.85,8.67.54,12.49,2.53,4.04,7.2,6.64,11.88,6.64h0c3.68,0,6.99-1.6,9.32-4.52,3.07-3.83,3.47-9.34,1.05-14.38Z"/>
  <path class="cls-1" d="M177.71,79.28c-.67,0-1.38.05-2.11.16-4.95.72-9.34,4.54-11.2,9.73-1.64,4.57-.82,9.27,2.18,12.56,2.43,2.67,5.74,4.14,9.32,4.14h0c4.01,0,8-1.83,10.69-4.9,2.47-2.82,3.56-6.36,3.08-9.98-.29-2.18-2.53-6.54-3.93-8.08-2.23-2.45-4.85-3.64-8.01-3.64Z"/>
  <path class="cls-1" d="M192.07,71.05c.75-.21,6.79-4.96,7.85-5.85,1-.83,5.3-4.46,5.4-5.38.06-.52-.04-.73-.4-1.09-.73-.73-2.75-1.95-3.73-2.57-10.11-6.44-22.36-8.67-33.55-3.61-4.74,2.14-8.55,5.68-12.96,8.14-9.82,5.47-14.82-1.6-22.59-6.16-5.82-3.41-11.52-5.15-18.34-4.78-5.96.32-12.3,2.55-17.44,5.52-1.87,1.08-4.39,2.66-5.65,4.34-.2.8,3.29,3.77,4.1,4.47,1.17,1,8.53,6.8,9.33,6.98,1.44.32,4.55-1.59,6.21-2.17,6.95-2.42,12.69-3.36,19.7-.43,15.6,6.52,14.53,23.74,15.68,38.02.87,2.53,4.44,2.36,4.72-.45,1.11-11.47-.07-25.58,9.54-33.79,9.23-7.89,20.3-6.53,30.44-1.2.56.18,1.12.16,1.68,0Z"/>
  <path class="cls-1" d="M294.05,259.28c-2.05,0-3.87,1.39-5.47,2.61-.51.39-1.2.91-1.49,1.04-1.61.73-3.33,1.11-5,1.11-1.04,0-2.06-.15-3.02-.44-.12-.05-.69-.34-1.1-.55-2.28-1.18-4.31-2.15-6.03-2.15-1.35,0-2.18.58-2.64,1.06-.46.49-1,1.36-.93,2.73.26,4.82,7.55,8.27,10.4,8.83,1,.2,2.1.3,3.27.3,4.78,0,11.16-1.72,14.64-5.57,1.56-1.73,2.47-5.6.32-7.74-.8-.8-1.82-1.22-2.95-1.22Z"/>
  <path class="cls-1" d="M313.94,236.38c-.1-2.72-.32-5.43-.58-8.13-.52-5.4-1.22-10.76-1.58-16.18-.3-4.52-.79-9.03-.9-13.56-.13-5.16-.02-10.31-.77-15.41-.39-2.65-.83-5.49-.6-8.11.57-6.71,0-13.06-1.72-19.17-1.13-4-1.05-7.97-.33-12.06.26-1.46.5-2.96.56-4.46.21-5.92.35-11.85.5-17.77.03-1.07.14-2.17,0-3.19-.82-6-.68-11.96-.38-18.08.51-10.47.37-21.01.56-31.52.03-1.63.34-3.25.52-4.88.18-1.64.49-3.27.52-4.91l.14-8.42.04-4.21c0-.16,0-.4,0-.6v-.62s-.04-1.24-.04-1.24c-.06-.83-.11-1.66-.2-2.48-.73-6.61-3.09-13.06-6.87-18.43-1.46-2.1-3.07-4.08-4.91-5.77-1.83-1.69-3.88-3.09-6.09-4-3.23-1.31-6.19-2.82-9.28-4.24-3.07-1.43-6.24-2.83-9.6-3.79-2.46-.72-5.03-1.3-7.62-1.59-2.31-.29-4.62-.52-6.93-.54-5.01-.04-10.05-.21-15.07-.04-3.97.07-7.94.32-11.87.97-.44.07-.89.12-1.35.15-1.48-.01-2.99-.11-4.47-.13-7.15-.1-14.3-.33-21.45-.34-2.3,0-4.61.05-6.91.12-1.31.03-2.61.07-3.92.11-2.48.06-4.95.09-7.42.02-4.65-.14-9.25-.42-13.88-.23-2.35.03-4.71.17-7.08.48-5.32.71-10.72,1.12-16.1,1.64-.17.02-.34.02-.52.03-.23,0-.45.01-.68.03-.66.01-1.32.01-1.98.05-.15,0-.3.01-.45.02-5.45,0-10.71-1.07-16.09-1.48-4.5-.34-8.98-1.05-13.31-1.93C106.8.67,97.64-.1,88.28.24c-1.92.04-3.85.12-5.79.25-.71.05-1.42.1-2.13.13-.62,0-1.25-.02-1.86-.07-4.09-.33-8.16-.7-12.19-.5-3.02.03-6.03.31-9.02,1.13-.09.03-.2.04-.3.05-.32-.01-.63-.02-.94,0-2.16.07-4.32.08-6.48.06l-1.62-.02h-.82s-.97,0-.97,0c-.59,0-1.18.02-1.77.05h-.17c-1.29,0-2.58.09-3.87.2-5.14.5-10.24,2.01-14.69,4.61-4.64,2.71-8.85,6.02-12.51,9.87-3.66,3.85-6.77,8.27-9.05,13.15-1,2.11-1.61,4.44-2.4,6.57-.16.45-.32.9-.47,1.36-.14.46-.26.92-.38,1.39-.26.93-.41,1.88-.57,2.82-.14.95-.22,1.91-.28,2.86-.01.48-.02.95-.03,1.43v.7s.02.59.02.59c.13,3.16.5,6.27,1.05,9.26.8,4.35.72,8.39.35,12.46-.45,5-.83,9.86-.23,14.91.34,2.86.51,6.04.09,8.83-.01,1.7-.04,3.4.02,5.1.11,3.02.86,5.68,1.63,8.54.13.49.14,1.01.14,1.51.02,1.74.04,3.48.06,5.22,0,.32,0,.64.11.94.09.26.24.5.39.73,3.87,6.09,4.33,14.62,2.88,21.5-1.11,5.28-1.32,10.64-1.8,15.95-.13.64-.26,1.27-.4,1.9-.29,1.32-.56,2.64-.8,3.97-.05.58-.11,1.15-.16,1.73-1.31,13.79-2.09,27.52-1.97,41.46.09,9.74.41,19.48.48,29.23.03,3.87.13,7.74.05,11.6-.02,2.17.04,4.43.22,6.65.19,2.23.47,4.46.82,6.73.35,2.11.97,4.33,1.88,6.43.91,2.1,2.13,4.08,3.52,5.73,3.5,4.17,7.39,7.76,11.66,10.84,4.27,3.08,8.92,5.65,13.99,7.6l1.38.48.7.23.71.2,1.43.38c.48.11.96.2,1.45.3.97.21,1.95.31,2.94.44.49.06.99.08,1.48.11l.74.04.37.02h.31c.97.04,1.94.06,2.91.06,2.05.02,4.11-.02,6.18-.1.89-.03,1.77-.06,2.66-.1.36-.02.73-.03,1.09-.04.79-.02,1.58-.03,2.38-.04,1.53,0,3.07.01,4.6.05,1.96.04,3.94.12,5.9.13.47,0,.94,0,1.4,0,.02-.02.03-.04.05-.06,3.19.04,6.36-.07,9.42-.76,2.05-.46,3.94-.87,6.12-.78,1.48.06,2.97.16,4.45.18,1.25,0,2.77.4,3.97-.08,1.24-.5,1.1-2.19,1.09-3.29-.02-4.22-3.63-7.37-5.9-10.57-2.71-3.82-5.22-7.77-7.54-11.83-4.64-8.13-8.49-16.71-11.51-25.56-2.93-8.6-5.08-17.48-6.31-26.49-1.6-11.76-2.05-26.49,1.7-37.83,1.57-4.76,6.91-12.74,6.79-17.28-.1-3.77-3.56-8.22-5.27-11.43-13.34-25.04-10.97-73.97,11-93.93,12.27-11.15,24.67-12.84,40.69-12.94,9.53-.06,20.57,2.02,29.68,1.47,10.41-.63,20.61-1.64,31.11-.77,15.03.35,31.93,8.66,39.49,21.98,11.57,20.41,13.99,49.02,7.61,71.43-1.11,3.88-4.33,10.44-4.64,13.91-.34,3.78,5.66,8.08,8.56,9.77,6.43,3.76,12.99,6.37,19.1,10.89,8.63,6.39,17.14,13.61,24.3,21.62,2.55,2.85,7.61,8.27,7.96,12.04.26,2.88-1.19,4.37-4.1,3.73-1.87-.41-5.31-3.19-6.47-3.17-2.11.04-.93,2.5-.18,3.51,3.22,4.33,8.36,8.71,12.04,12.77,6.34,6.99,11.23,15.09,16.14,23.1,1.16,1.89,2.32,3.77,3.5,5.64,1.07,1.68,2.1,3.93,3.59,5.28.53.48,1.21.82,1.92.83,1,.02,2.06-.83,2.38-1.75.14-.4.18-.84.23-1.26.19-1.94.37-3.84.39-5.78.01-1.37-.01-2.74-.07-4.1Z"/>
  <path class="cls-1" d="M242.71,181.44c-2.29,0-4.14,1.7-5.49,2.94-.33.3-.67.61-.88.77-1.54,1.14-3.02,1.67-4.64,1.67-1.19,0-2.5-.28-4.01-.86-.54-.21-1.12-.53-1.74-.88-1.47-.82-3.13-1.74-5.23-1.74-.49,0-.98.05-1.46.16-.71.15-1.33.61-1.68,1.24-1.58,2.81-.37,6.15,3.24,8.92,2.86,2.2,7.23,3.56,11.41,3.56,1.46,0,2.84-.16,4.09-.49,2.48-.64,9.61-4.29,10.98-8.7.55-1.76.19-3.49-1.01-4.87-1.23-1.42-2.62-1.72-3.57-1.72Z"/>
  <path class="cls-1" d="M245.39,230.89c-1.07,1.09-1.61,1.64-3.28,2.11-1.2.33-2.18.49-3.01.49-1.47,0-2.5-.53-4.21-1.4-.76-.39-1.61-.83-2.63-1.27-1.26-.56-2.35-.83-3.34-.83-1.73,0-3.12.87-3.74,2.32-.83,1.98.02,4.68,2.17,6.89,2.74,2.81,7.18,4.48,11.89,4.48h0c1.98,0,3.92-.31,5.61-.89,1.37-.47,9.29-4.76,10.23-7.87.35-1.17.42-4.09-1.02-5.53-.8-.8-1.97-1.24-3.31-1.24-1.51,0-3.05.55-4.02,1.43-.52.48-.95.92-1.33,1.3Z"/>
</svg>