<?xml version="1.0" encoding="UTF-8"?>
<svg id="Layer_11" data-name="Layer 11" xmlns="http://www.w3.org/2000/svg" viewBox="0 0 165.9 233.48">
  <defs>
    <style>
      .cls-1 {
        fill: #737438;
      }
    </style>
  </defs>
  <path class="cls-1" d="M72.1,102.4c-1.04-2.59-2.02-5.6-2.86-8.7-1.68-6.22-2.83-12.81-2.83-17.3,0-.86.04-1.65.14-2.35.28-2.06,1.01-3.88,1.66-5.68.65-1.8,1.24-3.58,1.36-5.59.03-.45.04-.9.04-1.37,0-3.57-.76-7.61-1.53-11.69-.77-4.09-1.57-8.23-1.57-12.1,0-2.23.26-4.38.98-6.38.58-1.62,1.51-3.13,2.78-4.3,1.27-1.16,2.9-1.97,4.78-2.12.18-.01.36-.02.54-.02,2.03,0,3.8.92,5.24,2.27,1.44,1.36,2.61,3.15,3.57,5.09,1.92,3.88,3.01,8.35,3.4,11.15.6,4.46.23,8.89.93,13.01.36,2.16,1.08,3.83,1.76,5.63.68,1.79,1.31,3.7,1.3,6.15,0,.56-.03,1.14-.1,1.76-.19,1.71-.72,3.37-1.22,4.99-.49,1.62-.95,3.21-1.06,4.73-.04.49-.06.99-.06,1.48,0,3.18.73,6.43,1.5,9.73.76,3.3,1.55,6.65,1.55,10.07,0,1.32-.12,2.64-.4,3.97-.57,2.63-1.66,4.72-3.14,6.17-1.47,1.45-3.34,2.23-5.3,2.23-2.83,0-5.73-1.58-8.13-4.61-1.17-1.48-2.27-3.65-3.32-6.24ZM67.25,16.72c.57,1.04,1.24,2.02,2.08,2.77.83.75,1.88,1.31,3.08,1.31.21,0,.42-.02.64-.05.63-.1,1.21-.33,1.68-.68.71-.52,1.17-1.27,1.43-2.07.26-.81.36-1.68.36-2.59,0-1.76-.36-3.65-.8-5.35-.44-1.7-.97-3.18-1.34-4.09-.37-.91-.95-2.3-1.78-3.53-.42-.61-.9-1.19-1.5-1.65C70.51.33,69.76,0,68.93,0h-.1s0,0,0,0h-.01c-.81.03-1.53.23-2.13.61-.91.56-1.47,1.45-1.78,2.39-.31.94-.41,1.96-.41,2.97,0,1.83.34,3.66.6,4.86.32,1.46,1.03,3.81,2.16,5.9ZM15.22,64v-.18c0-.88-.21-2.08-.53-3.55-.48-2.19-1.23-4.87-1.98-7.27-.38-1.2-.75-2.32-1.1-3.28-.35-.96-.66-1.73-.93-2.28-.46-.9-.9-1.76-1.57-2.48-.34-.36-.74-.67-1.22-.89-.48-.22-1.03-.34-1.61-.33-.41,0-.84.05-1.29.16-.41.1-.74.28-1.08.5-.5.32-1,.74-1.44,1.15-.44.42-.81.82-1.07,1.19C.39,48.14,0,49.74,0,51.31c.01,3.03,1.38,6,2.74,8.3.6,1.01,1.98,3.06,3.55,4.92.79.93,1.62,1.8,2.45,2.48.42.34.84.63,1.28.85.44.22.9.37,1.42.38.1,0,.22,0,.34-.02h.08s.08-.04.08-.04c.9-.29,1.68-.85,2.26-1.57.58-.72.97-1.62,1.01-2.6h0ZM61.5,107.58c-2.79-2.5-5.65-4.8-7.37-7.47-1.68-2.58-2.39-5.39-3.43-8.24-1.03-2.83-2.45-5.72-5.6-8.08-1.69-1.26-3.63-2.17-5.53-3.05-1.9-.88-3.77-1.75-5.3-2.84-1.58-1.12-3.31-3-5.25-4.63-.98-.82-2.02-1.58-3.16-2.14-1.14-.57-2.4-.94-3.76-.94-.36,0-.73.03-1.1.08-1.24.18-2.31.63-3.19,1.29-1.33.99-2.19,2.42-2.72,4-.53,1.58-.74,3.34-.74,5.12,0,3.67.89,7.41,2.03,9.84,1.78,3.73,4.79,6.53,7.81,9.14,3.03,2.61,6.07,5.04,8.04,7.84.68.96,1.23,2.11,1.85,3.3.62,1.19,1.31,2.44,2.31,3.57,1.24,1.39,2.67,2.31,4.04,3.12,1.38.81,2.72,1.51,3.86,2.42,2.17,1.7,4.05,4.62,6.2,7.19,1.08,1.29,2.24,2.49,3.61,3.4,1.36.91,2.96,1.5,4.78,1.49,1.17,0,2.42-.24,3.76-.75l-.36-.93.36.93c2.19-.83,3.82-2.34,4.86-4.15,1.04-1.81,1.52-3.91,1.52-6.01,0-1.53-.25-3.07-.75-4.52-1.28-3.73-4.02-6.47-6.8-8.97ZM96.48,133.4c-.65-1.42-1.32-2.8-1.95-3.96-.31-.58-.62-1.1-.91-1.55-.29-.45-.56-.81-.86-1.11-1.12-1.12-2.49-1.62-3.8-1.61-1.66,0-3.21.7-4.58,1.57-1.37.88-2.59,1.95-3.52,2.85-1.54,1.49-3.43,3.76-5.11,6.19-1.68,2.43-3.16,4.97-3.84,7.08-.46,1.42-.65,2.87-.65,4.34,0,4.07,1.44,8.23,2.88,12.31,1.46,4.08,2.93,8.08,3.19,11.69.06.86.09,1.73.09,2.61,0,5.76-1.28,11.75-2.58,17.7-1.3,5.95-2.62,11.85-2.62,17.49,0,.46,0,.92.03,1.38.1,2.29,1.13,4.11,2.09,5.73.98,1.63,1.89,3.09,2.11,4.59.05.27.06,1,.06,1.87,0,.28,0,.58,0,.9,0,1.84.02,4.14.42,6.09.21.98.5,1.88,1.03,2.62.27.37.6.71,1.02.94.42.24.91.37,1.42.37.87,0,1.75-.34,2.7-.95.63-.41,1.11-.98,1.47-1.62.63-1.13.95-2.49,1.14-3.98.28-2.23.26-4.75.27-7.06,0-2.3.06-4.43.38-5.66,1.64-6.35,4.44-12.73,6.98-19.31,2.54-6.58,4.82-13.38,5.35-20.58l-1-.07,1,.07c.05-.65.06-1.3.06-1.95,0-1.71-.11-3.4-.11-5.02,0-.78.03-1.54.1-2.26.36-3.59,1.04-5.98,1.64-8.11.6-2.13,1.16-4.05,1.16-6.52,0-2.52-.57-5.53-2.12-9.93-.48-1.36-1.67-4.28-2.96-7.12ZM165.85,50.69c-.13-.94-.56-1.88-1.21-2.67-.33-.39-.72-.75-1.19-1.02-.46-.27-1.01-.44-1.6-.44-.09,0-.18,0-.27.01h0c-.89.08-1.71.38-2.43.84-1.27.8-2.26,2.03-3.14,3.43-1.31,2.1-2.36,4.64-3.39,6.93-1.01,2.29-2.03,4.34-3.02,5.34-.79.82-2.09,1.54-3.52,2.2-1.42.67-2.96,1.3-4.25,2.14-2.96,1.92-5.43,5.14-7.76,8.49-2.32,3.35-4.5,6.86-6.65,9.33-2.95,3.38-7.56,7.26-11.81,11.37-2.13,2.06-4.17,4.17-5.87,6.35-1.7,2.17-3.08,4.4-3.86,6.7-.66,1.98-1.26,4.47-1.26,6.83,0,1.71.31,3.4,1.29,4.75.49.67,1.16,1.23,1.98,1.6.82.38,1.79.57,2.89.57.24,0,.49,0,.75-.03,1.72-.12,3.27-.7,4.66-1.53,2.08-1.24,3.84-3,5.52-4.73,1.68-1.73,3.27-3.43,4.92-4.56,1.26-.87,2.64-1.49,4.08-2.13,1.44-.64,2.93-1.29,4.33-2.29,3.14-2.24,5.31-5.33,7.17-8.54,1.86-3.21,3.43-6.56,5.3-9.4,1.32-2.01,3.03-3.97,4.66-6.05,1.62-2.08,3.17-4.29,4.1-6.85.64-1.76.88-3.45,1.13-5.08.25-1.63.5-3.18,1.09-4.7l-.93-.36.93.36c.35-.91.99-2.11,1.73-3.42,1.12-1.98,2.51-4.23,3.63-6.43.56-1.1,1.05-2.19,1.41-3.25.36-1.05.59-2.07.59-3.05,0-.24-.01-.48-.05-.71Z"/>
</svg>