<?xml version="1.0" encoding="UTF-8"?>
<svg id="Layer_11" data-name="Layer 11" xmlns="http://www.w3.org/2000/svg" viewBox="0 0 314.01 288">
  <defs>
    <style>
      .cls-1 {
        fill: #737438;
      }
    </style>
  </defs>
  <path class="cls-1" d="M313.94,236.38c-.1-2.72-.32-5.43-.58-8.13-.52-5.4-1.22-10.76-1.58-16.18-.3-4.52-.79-9.03-.9-13.56-.13-5.16-.02-10.31-.77-15.41-.39-2.65-.83-5.49-.6-8.11.57-6.71,0-13.06-1.72-19.17-1.13-4-1.05-7.97-.33-12.06.26-1.46.5-2.96.56-4.46.21-5.92.35-11.84.5-17.77.03-1.07.14-2.17,0-3.19-.82-6-.68-11.96-.38-18.08.51-10.47.38-21.01.56-31.52.03-1.63.34-3.25.52-4.88.18-1.64.49-3.27.52-4.91l.14-8.42.04-4.21c0-.16,0-.4,0-.6v-.62s-.04-1.24-.04-1.24c-.06-.83-.11-1.66-.2-2.48-.73-6.61-3.09-13.06-6.87-18.43-1.46-2.1-3.07-4.08-4.91-5.77-1.83-1.69-3.88-3.09-6.09-4-3.23-1.31-6.19-2.82-9.28-4.24-3.07-1.43-6.24-2.83-9.6-3.79-2.46-.72-5.03-1.3-7.62-1.6-2.31-.29-4.62-.52-6.93-.54-5.01-.04-10.05-.21-15.07-.04-3.97.07-7.94.32-11.87.97-.44.07-.89.12-1.35.15-1.48-.01-2.99-.11-4.47-.13-7.15-.1-14.3-.33-21.45-.34-2.3,0-4.61.05-6.91.12-1.31.03-2.61.07-3.92.11-2.48.06-4.95.09-7.42.02-4.65-.14-9.25-.42-13.88-.23-2.35.03-4.71.17-7.08.48-5.31.7-10.72,1.12-16.1,1.64-.17.02-.34.02-.52.03-.23,0-.45.01-.68.03-.66.01-1.32.01-1.98.05-.15,0-.3.01-.45.02-5.45,0-10.71-1.07-16.09-1.48-4.5-.34-8.98-1.05-13.31-1.93C106.8.67,97.64-.1,88.28.24c-1.92.04-3.85.12-5.79.25-.71.05-1.42.1-2.13.13-.63,0-1.25-.02-1.86-.07-4.09-.33-8.16-.7-12.19-.5-3.02.03-6.03.31-9.02,1.13-.09.03-.2.04-.3.06-.32-.01-.63-.02-.94,0-2.16.07-4.32.08-6.48.06l-1.62-.02h-.82s-.97,0-.97,0c-.59,0-1.18.02-1.77.05h-.17c-1.29,0-2.58.09-3.87.2-5.14.5-10.24,2.01-14.69,4.61-4.64,2.71-8.85,6.02-12.51,9.87-3.66,3.85-6.77,8.27-9.05,13.15-1,2.11-1.61,4.44-2.4,6.57-.16.45-.32.9-.47,1.36-.14.46-.26.92-.38,1.39-.26.93-.41,1.88-.57,2.82-.14.95-.22,1.91-.27,2.86-.01.48-.02.95-.03,1.43v.7l.02.59c.13,3.16.5,6.27,1.05,9.26.8,4.35.72,8.39.35,12.46-.45,5-.83,9.85-.23,14.91.34,2.86.51,6.04.09,8.83-.01,1.7-.04,3.4.02,5.1.11,3.02.86,5.68,1.63,8.54.13.49.14,1.01.14,1.51l.06,5.22c0,.32,0,.64.11.94.09.26.24.5.39.73,3.87,6.09,4.33,14.62,2.88,21.5-1.11,5.28-1.32,10.64-1.8,15.95-.13.64-.26,1.27-.4,1.9-.29,1.32-.56,2.64-.8,3.97-.05.58-.11,1.15-.16,1.73-1.31,13.79-2.09,27.52-1.97,41.46.08,9.74.41,19.48.48,29.23.03,3.87.13,7.74.05,11.6-.02,2.17.04,4.43.22,6.65.19,2.23.47,4.46.82,6.73.35,2.11.97,4.33,1.88,6.43.91,2.1,2.13,4.08,3.52,5.73,3.5,4.17,7.39,7.76,11.66,10.84,4.27,3.08,8.92,5.65,13.99,7.6l1.38.48.7.23.71.2,1.43.38c.48.11.96.2,1.45.3.97.21,1.95.31,2.94.44.49.06.99.08,1.48.11l.74.04.37.02h.31c.97.04,1.94.06,2.91.06,2.05.02,4.11-.02,6.18-.1.89-.03,1.77-.06,2.66-.1.36-.02.73-.03,1.09-.04.79-.02,1.58-.03,2.38-.04,1.53,0,3.07.01,4.6.05,1.96.04,3.94.12,5.9.13.47,0,.94,0,1.4,0,.02-.02.03-.04.05-.06,3.19.04,6.36-.07,9.42-.76,2.05-.46,3.94-.87,6.12-.78,4.99.2,9.99.43,14.99.45,6.19.03,12.33.2,18.52.53,7.37.39,14.85-.18,22.29-.34,3.32-.07,6.65-.24,9.97-.18.27,0,.55.02.82.04-.05.05-.1.11-.15.16,1.82.19,3.64.49,5.44.44,2.47-.07,4.94-.15,7.41-.24,2.2-.08,4.4-.16,6.6-.24,7.45-.26,14.89-.47,22.36-.28l-.06-.08c2.19.04,4.38.11,6.58.22,2.05.11,4.11.2,6.17.28.03.04.05.07.08.11,4.53.16,9.06.27,13.59.3,1.1,0,2.19-.02,3.29-.07,3.03-.08,6.07-.37,9.11-.56.36,0,.71.03,1.07.05,3.17.17,6.34.4,9.51.51.38.01.75.01,1.12.01-.09-.03-.17-.05-.25-.08-.01,0-.02,0-.03-.01.2,0,.41.02.61.03,4.09.13,7.35-.39,9.93-1.37.82.02,1.62.17,2.44.23,1.36.11,2.77-.34,4.15-.42,1.59-.09,3.18-.02,4.76.2.29.04.59.09.88.04.25-.04.49-.14.73-.2,1.17-.31,2.33.16,3.49.25,1.25.1,2.54.09,3.8.09.05,0,.1,0,.14,0,.8,0,1.6-.02,2.4-.06,2.55-.04,5.13-.31,7.75-.96,1.11-.25,2.19-.62,3.31-1.01,1.08-.44,2.2-.9,3.27-1.49,2.17-1.15,4.29-2.65,6.24-4.59,2.01-1.98,3.96-4.14,5.62-6.46,1.66-2.32,3-4.81,3.8-7.29,1.02-3.12,1.75-6.25,2.33-9.38.58-3.13,1.02-6.26,1.42-9.48.13-.89.18-1.78.23-2.67.05-.98.06-1.56.06-2.27.01-1.37-.01-2.74-.07-4.1ZM138.96,30.26c.31-.93.86-1.82,1.78-2.39.6-.37,1.33-.58,2.13-.6h0s.01,0,.01,0h.1c.84,0,1.58.33,2.17.78.6.46,1.08,1.04,1.5,1.65.83,1.23,1.4,2.62,1.78,3.53.37.9.9,2.39,1.34,4.09.44,1.7.8,3.6.8,5.35,0,.91-.1,1.79-.36,2.59-.26.8-.72,1.55-1.43,2.07-.47.35-1.05.58-1.68.68-.22.03-.43.05-.64.05-1.2,0-2.25-.55-3.08-1.31-.84-.76-1.51-1.73-2.08-2.77-1.13-2.08-1.83-4.43-2.16-5.9-.26-1.2-.6-3.03-.6-4.86,0-1.01.1-2.03.41-2.97ZM86,95.44l-.08.03h-.08c-.12.03-.23.04-.34.04-.52,0-.98-.16-1.42-.38-.44-.22-.86-.51-1.28-.85-.84-.68-1.67-1.55-2.45-2.48-1.57-1.86-2.95-3.91-3.55-4.92-1.36-2.31-2.73-5.27-2.74-8.3,0-1.57.39-3.17,1.39-4.59.26-.37.63-.77,1.07-1.19.44-.42.94-.83,1.44-1.15.34-.21.66-.4,1.08-.5.45-.1.88-.16,1.29-.16.58,0,1.13.11,1.61.33.48.22.89.54,1.22.89.67.72,1.11,1.59,1.57,2.48.27.55.58,1.32.93,2.28.35.95.72,2.08,1.1,3.28.75,2.4,1.5,5.09,1.98,7.27.32,1.47.53,2.67.54,3.55v.18s0,0,0,0c-.04.98-.43,1.88-1.01,2.6-.58.72-1.36,1.28-2.26,1.57ZM141.57,154.34c-1.04,1.81-2.67,3.31-4.86,4.15l-.36-.93.36.93c-1.34.51-2.59.75-3.76.75-1.82,0-3.42-.59-4.78-1.49-1.37-.91-2.53-2.11-3.61-3.4-2.15-2.57-4.03-5.49-6.2-7.19-1.15-.91-2.48-1.61-3.86-2.42-1.38-.81-2.81-1.73-4.04-3.12-1-1.12-1.69-2.37-2.31-3.57-.62-1.2-1.17-2.34-1.85-3.3-1.97-2.81-5.01-5.24-8.04-7.84-3.02-2.61-6.04-5.42-7.81-9.14-1.15-2.42-2.03-6.16-2.04-9.84,0-1.78.21-3.53.74-5.12.53-1.58,1.39-3,2.72-4,.88-.66,1.96-1.11,3.19-1.29.37-.05.74-.08,1.1-.08,1.36,0,2.62.37,3.76.94,1.14.57,2.19,1.33,3.16,2.14,1.94,1.63,3.67,3.51,5.25,4.63,1.53,1.09,3.4,1.96,5.3,2.84,1.9.89,3.85,1.79,5.53,3.05,3.15,2.35,4.57,5.24,5.6,8.08,1.03,2.85,1.74,5.66,3.43,8.24,1.73,2.67,4.58,4.97,7.37,7.47,2.78,2.51,5.51,5.24,6.8,8.97.49,1.45.75,2.98.75,4.52,0,2.11-.48,4.21-1.52,6.01ZM143.29,120.96c-1.68-6.22-2.83-12.81-2.83-17.3,0-.86.04-1.65.14-2.35.28-2.06,1.01-3.88,1.66-5.68.65-1.8,1.24-3.58,1.36-5.59.03-.45.04-.9.04-1.37,0-3.57-.76-7.61-1.53-11.69-.77-4.09-1.57-8.23-1.57-12.1,0-2.23.26-4.38.98-6.38.58-1.62,1.51-3.13,2.78-4.3,1.27-1.16,2.9-1.97,4.78-2.12.18-.01.36-.02.54-.02,2.03,0,3.8.92,5.24,2.27,1.44,1.36,2.61,3.15,3.57,5.09,1.92,3.88,3.01,8.35,3.4,11.15.6,4.46.23,8.89.93,13.01.36,2.16,1.08,3.83,1.76,5.63.68,1.79,1.31,3.7,1.3,6.15,0,.56-.03,1.14-.1,1.76-.19,1.71-.72,3.37-1.22,4.99-.49,1.62-.95,3.21-1.06,4.73-.04.49-.06.99-.06,1.48,0,3.18.73,6.43,1.5,9.73.76,3.3,1.55,6.65,1.55,10.07,0,1.32-.12,2.64-.4,3.97-.57,2.63-1.66,4.72-3.14,6.17-1.47,1.45-3.34,2.23-5.3,2.23-2.83,0-5.73-1.58-8.13-4.61-1.17-1.48-2.27-3.65-3.32-6.24-1.04-2.59-2.02-5.6-2.86-8.7ZM174.45,184.22c-.61,2.13-1.28,4.52-1.64,8.11-.07.73-.1,1.49-.1,2.26,0,1.62.11,3.32.11,5.02,0,.65-.02,1.3-.06,1.95l-1-.07,1,.07c-.53,7.2-2.82,14-5.35,20.58-2.54,6.58-5.34,12.96-6.98,19.31-.33,1.23-.38,3.36-.38,5.66-.01,2.31,0,4.83-.27,7.06-.19,1.49-.51,2.85-1.14,3.98-.36.64-.84,1.21-1.47,1.62-.95.61-1.83.95-2.7.95-.51,0-1-.13-1.42-.37-.42-.24-.75-.57-1.02-.94-.53-.75-.82-1.65-1.03-2.62-.4-1.95-.42-4.25-.42-6.09,0-.31,0-.61,0-.9,0-.87-.01-1.59-.06-1.87-.23-1.51-1.13-2.96-2.11-4.59-.96-1.62-1.99-3.44-2.09-5.73-.02-.46-.03-.92-.03-1.38,0-5.64,1.33-11.54,2.62-17.49,1.3-5.95,2.58-11.94,2.58-17.7,0-.88-.03-1.75-.09-2.61-.26-3.6-1.73-7.61-3.19-11.69-1.45-4.08-2.88-8.24-2.88-12.31,0-1.47.19-2.92.65-4.34.68-2.11,2.16-4.65,3.84-7.08,1.69-2.42,3.57-4.7,5.11-6.19.94-.9,2.15-1.98,3.52-2.85,1.37-.87,2.92-1.57,4.58-1.57,1.31-.01,2.68.49,3.81,1.61.3.3.57.67.86,1.11.29.44.59.97.91,1.55.63,1.16,1.3,2.55,1.95,3.96,1.3,2.84,2.49,5.76,2.96,7.12,1.55,4.4,2.12,7.41,2.12,9.93,0,2.47-.56,4.39-1.16,6.52ZM239.36,81.71c-.36,1.05-.85,2.14-1.41,3.25-1.12,2.2-2.5,4.46-3.63,6.43-.75,1.31-1.38,2.51-1.73,3.42l-.93-.36.93.36c-.59,1.53-.85,3.08-1.09,4.7-.25,1.62-.49,3.32-1.13,5.08-.93,2.56-2.48,4.77-4.1,6.85-1.63,2.08-3.34,4.04-4.66,6.05-1.87,2.84-3.44,6.19-5.3,9.4-1.86,3.21-4.03,6.3-7.17,8.54-1.4,1-2.89,1.65-4.33,2.29-1.44.64-2.83,1.25-4.08,2.13-1.64,1.13-3.24,2.83-4.92,4.56-1.68,1.73-3.44,3.49-5.52,4.73-1.39.82-2.94,1.4-4.66,1.53-.26.02-.51.03-.75.03-1.1,0-2.07-.19-2.89-.57-.82-.37-1.49-.93-1.98-1.6-.98-1.35-1.29-3.03-1.29-4.75,0-2.37.6-4.86,1.26-6.83.77-2.3,2.15-4.53,3.86-6.7,1.71-2.17,3.75-4.29,5.87-6.35,4.25-4.11,8.86-7.99,11.81-11.37,2.16-2.47,4.33-5.97,6.65-9.33,2.33-3.35,4.8-6.57,7.76-8.49,1.29-.83,2.83-1.46,4.25-2.14,1.42-.67,2.72-1.38,3.52-2.2.99-1,2.01-3.05,3.02-5.34,1.02-2.29,2.08-4.83,3.39-6.93.88-1.4,1.87-2.62,3.14-3.43.72-.46,1.54-.76,2.43-.84h0c.09,0,.17-.01.27-.01.59,0,1.14.18,1.6.44.47.27.86.62,1.19,1.02.65.79,1.08,1.74,1.21,2.67.03.24.05.47.05.71,0,.98-.23,2-.59,3.05Z"/>
</svg>