<?xml version="1.0" encoding="UTF-8"?>
<svg id="Layer_11" data-name="Layer 11" xmlns="http://www.w3.org/2000/svg" viewBox="0 0 236.85 287.49">
  <defs>
    <style>
      .cls-1 {
        fill: #737438;
      }
    </style>
  </defs>
  <path class="cls-1" d="M232.58,252.3c-2.37-3.21-9.66-12.75-10.01-16.17-.2-2,.49-4.28.31-6.49-.24-2.87-1.61-5.38-3.18-7.7-1.13-1.67-5.1-5.85-5.05-7.55.04-1.12.65-2.19.57-3.56-.44-7.62-9.59-13.58-14.28-18.98-.27-.31-2.99-3.46-1.47-3.53,2.2,1.74,7.32,5.52,9.57,2.2,1.85-2.73-1.19-6.76-2.83-8.95-2.16-2.9-4.69-5.55-6.88-8.42-7.58-9.95-12.54-21.38-21.04-30.75-2.93-3.23-7.01-6.7-9.57-10.15-.6-.81-1.54-2.76.14-2.79.92-.02,3.66,2.19,5.14,2.51,2.31.51,3.47-.68,3.26-2.96-.27-2.99-4.3-7.3-6.32-9.57-5.69-6.36-12.45-12.1-19.31-17.18-4.86-3.59-10.07-5.67-15.18-8.66-2.31-1.35-7.07-4.76-6.81-7.77.25-2.75,2.81-7.97,3.68-11.05,5.07-17.81,3.15-40.55-6.04-56.76C121.28,7.44,107.85.83,95.9.55c-8.34-.69-16.44.11-24.72.62C63.95,1.61,55.17-.05,47.6,0c-12.73.08-22.58,1.42-32.33,10.28C-2.19,26.15-4.07,65.03,6.53,84.92c1.36,2.55,4.11,6.08,4.19,9.08.09,3.61-4.14,9.95-5.39,13.73-2.98,9.01-2.62,20.72-1.35,30.06,3.85,28.24,19.5,57.33,42.96,73.86,2.55,1.8,6.52,3.54,8.65,5.47,1.36,1.24,1.87,3.4.87,4.99-.76,1.21-6.31,6.57-7.64,7.66-4.51,3.68-10.26,5.02-15.13,8.12-4.85,3.09-10.28,9.34-11.81,14.97-.86,3.16.85,5.83,4.25,5.44,2.78-.32,3.1-2.66,4.24-4.59,1.05-1.77,2.42-4.45,4.76-4.21.18.18-.61,4.32-.61,5.15-.02,5.15,5.37,7.93,7.52,2.2.9-2.39-.49-6.93,1.35-8.66,1.31-1.23,3.78-1.46,5.45-2.2,4.7-2.09,9.83-8.8,13.98-11.91,1.35-1.01,4-1.01,3.81,1.44-.11,1.44-3,3.92-4.13,5.01-6.33,6.07-16.35,13.39-17.89,22.72-.6,3.64,1.93,6.32,5.49,4.61,2.6-1.25,3.52-4.87,5.41-6.5,1.87-1.61,1.28,2.05,1.39,3,.26,2.32.89,4.98,3.51,5.61,1.91.46,3.52-.06,4.4-1.82,2.2-4.41,1.21-8.69,5.78-12.46,2.69-2.22,7.09-4.34,10.05-1.38,2.81,2.81,5.06,13.98,10.97,10.04,3.33-2.22.42-8.21-1.11-10.93-.92-1.63-4.76-6.08-4.61-7.48,1.08-4.14,4.92-6.88,7.64-9.99l.6-.29c2.5,1.42,5.04,2.98,7.72,4.06,2.05.83,4.3,1.21,6.32,1.92,6.18,2.16,12.05,4.64,18.65,5.48,7.96,1.01,14.86.04,22.84,2.18,11.66,3.12,16.25,14.14,23.48,22.72,4.1,4.86,14.81,15.35,21.33,15.48,2.51.05,5.37-2.07,5.72-4.61.67-4.96-3.48-8.62-3.51-13.37,1.43-.28,2.23.47,3.24,1.32,1.33,1.11,2.5,2.68,3.81,3.84,2.56,2.24,8.39,6.26,11.84,5.97,4.8-.41,1.93-6.89,1.71-9.65.42-.04.78-.03,1.17.15.73.34,2.95,2.81,3.85,3.5,2.43,1.85,7.91,3.31,10.55,1.48,3.25-2.25,3.88-7.32,1.74-10.53-.5-.75-4.24-3.84-3.48-4.61,1.7.4,4.15,2.24,5.37-.08,1.62-3.1-2.26-6.41-3.89-8.61ZM167.82,233.91l2.15,2.1c.07.07.14.15.2.23.97,1.29,1.13,2.97.43,4.38-.71,1.41-2.12,2.29-3.68,2.29-.49,0-.97-.09-1.44-.25-2.28-.81-7.95-6.03-8-6.08-.88-.82-1.64-1.7-2.38-2.54-.56-.64-1.09-1.25-1.62-1.78-1.37-1.36-2.73-2.69-4.09-4-4.9-4.77-9.54-9.28-14-14.68-12.31-14.89-24.57-34.5-37.48-59.95-4.66-9.18-8-17.86-10.22-26.54-.08-.32-.17-.63-.25-.94-.69-2.57-1.48-5.47.19-8.55,1.05-1.93,2.61-3.04,4.28-3.04.69,0,1.73.2,2.76,1.14.65.59,1.3,2.04,1.31,2.05.99,2.22,1.82,4.66,2.62,7.01.59,1.73,1.14,3.37,1.75,4.91,9.34,23.61,28.01,53.83,52.41,67.82,2.05,1.17,4.55,2.33,6.97,3.44,3.3,1.52,6.72,3.1,9.35,4.87,1.81,1.23,2.97,2.98,3.1,4.69.1,1.34-.42,2.61-1.48,3.59-.92.85-2.15,1.28-3.67,1.28h0c-2.96,0-6.53-1.65-8.89-2.74-.27-.13-.52-.24-.75-.34-5.33-2.4-11.09-5.73-17.1-9.88-.6-.42-1.35-1.03-2.14-1.67-.01,0-.02-.02-.03-.03,8.25,12.21,19.16,22.89,29.72,33.22ZM46.65,56.18c-3.72,0-7.43-2.07-9.44-5.28-1.9-3.03-2.05-6.55-.43-9.92,1.4-2.9,4.56-5.93,8.47-6.17.18-.01.35-.02.52-.02,3.74,0,7.24,2.44,9.13,6.37,1.92,4,1.6,8.38-.83,11.42-1.85,2.32-4.48,3.59-7.41,3.59h0ZM172.03,181.02c.33.17.78.4.88.44.76.23,1.57.35,2.4.35,1.32,0,2.7-.3,3.97-.88.23-.1.78-.52,1.18-.83,1.27-.97,2.72-2.07,4.35-2.07.9,0,1.71.34,2.35.97,1.71,1.7.99,4.78-.25,6.15-2.77,3.06-7.84,4.43-11.63,4.43-.93,0-1.8-.08-2.6-.24-2.27-.44-8.06-3.18-8.26-7.02-.06-1.09.37-1.78.74-2.17.37-.39,1.03-.85,2.1-.85,1.37,0,2.98.77,4.79,1.71ZM130.07,156.6c.49-1.16,1.6-1.85,2.97-1.85.79,0,1.66.21,2.66.66.81.36,1.49.7,2.09,1.01,1.36.69,2.18,1.11,3.35,1.11.66,0,1.44-.13,2.39-.39,1.33-.37,1.76-.8,2.61-1.67.3-.31.64-.66,1.06-1.04.77-.7,1.99-1.14,3.19-1.14,1.06,0,1.99.35,2.63.98,1.15,1.14,1.09,3.46.81,4.39-.74,2.47-7.03,5.88-8.13,6.25-1.34.46-2.88.71-4.45.71h0c-3.74,0-7.27-1.33-9.45-3.56-1.71-1.75-2.39-3.9-1.73-5.47ZM147.65,121.42c-1.09,3.5-6.76,6.4-8.73,6.91-.99.26-2.09.39-3.25.39-3.32,0-6.8-1.09-9.07-2.83-2.87-2.21-3.83-4.86-2.57-7.09.28-.51.77-.86,1.34-.99.38-.08.77-.12,1.16-.12,1.67,0,2.99.74,4.16,1.39.49.27.96.53,1.38.7,1.2.46,2.25.68,3.19.68,1.29,0,2.46-.42,3.69-1.33.17-.12.43-.37.7-.61,1.07-.98,2.54-2.33,4.36-2.33.76,0,1.86.24,2.84,1.37.95,1.1,1.24,2.48.8,3.87ZM81.77,42.86c1.48-4.12,4.97-7.16,8.9-7.73.58-.08,1.15-.13,1.68-.13,2.51,0,4.6.95,6.37,2.89,1.11,1.22,2.9,4.68,3.13,6.42.38,2.87-.49,5.69-2.45,7.93-2.13,2.44-5.31,3.89-8.49,3.89h0c-2.84,0-5.47-1.17-7.4-3.29-2.38-2.62-3.03-6.35-1.73-9.98ZM113.98,18.67c.28.29.36.46.32.87-.08.73-3.5,3.61-4.29,4.27-.84.7-5.65,4.48-6.24,4.65-.45.12-.89.14-1.34,0-8.06-4.23-16.85-5.31-24.19.95-7.63,6.52-6.7,17.74-7.58,26.85-.22,2.24-3.06,2.37-3.75.36-.91-11.34-.06-25.03-12.46-30.21-5.57-2.33-10.13-1.58-15.66.34-1.31.46-3.79,1.97-4.93,1.72-.64-.14-6.49-4.75-7.42-5.55-.65-.55-3.42-2.91-3.26-3.55,1-1.34,3-2.59,4.49-3.45,4.08-2.36,9.12-4.13,13.86-4.39,5.42-.29,9.95,1.09,14.57,3.8,6.18,3.62,10.15,9.24,17.95,4.89,3.51-1.95,6.54-4.77,10.3-6.47,8.89-4.02,18.63-2.24,26.66,2.87.78.49,2.38,1.46,2.96,2.04ZM62.24,72.04c.22-2.5,1.77-6.74,5.01-7.47.45-.1.9-.15,1.35-.15,3.77,0,6.17,3.46,6.5,6.71.31,3.03.57,10.66-3.86,16.04-.06.07-.12.15-.17.22-.38.48-1.09,1.39-2.34,1.39-.77,0-1.48-.35-2.13-1.04-4.86-5.22-4.56-13.32-4.36-15.68Z"/>
</svg>