<?xml version="1.0" encoding="UTF-8"?>
<svg id="Layer_11" data-name="Layer 11" xmlns="http://www.w3.org/2000/svg" viewBox="0 0 249.51 199.05">
  <defs>
    <style>
      .cls-1 {
        fill: #737438;
      }
    </style>
  </defs>
  <path class="cls-1" d="M11.61,103.3c.3.44.67.85,1.13,1.15.9.62,2.01.84,2.97.74.24-.03.48-.06.71-.11l.67-.18.58-.2.55-.22c1.43-.61,2.74-1.3,4.03-1.97.91-.48,1.83-.96,2.74-1.45.45-.23.9-.47,1.33-.67l1.4-.65c1.89-.87,3.78-1.75,5.69-2.63,1.92-.88,3.9-1.7,5.88-2.46,2.97-1.15,6.03-2.13,8.87-3.26,1.23-.45,2.34-.92,3.69-1.24,3.07-.82,6.19-1.44,9.31-1.97,3.87-.64,7.75-.98,11.64-.92,4.62.08,9.32.43,13.83,1.58,2.01.52,4.01,1.12,5.92,1.92.72.32,1.45.62,2.15,1,.69.38,1.38.75,2.09,1.08,7.66,3.92,14.22,9.96,19.16,17.19.17.23.33.46.45.66.14.22.28.45.42.69l.84,1.46c.57.99,1.13,2,1.77,3.01.33.51.64,1.01,1.12,1.59.56.69,1.36,1.17,2.16,1.42.81.25,1.64.31,2.46.17.41-.06.81-.18,1.21-.35.44-.18.82-.44,1.18-.73.18-.18.4-.32.52-.55.07-.1.14-.21.2-.32l.15-.25.47-.8.95-1.6c.64-1.06,1.29-2.12,1.97-3.15.2-.3.42-.61.64-.91,1.18-1.63,2.43-3.19,3.72-4.72,2.65-3.12,4.43-5.23,5.44-6.8.26-.39.46-.75.62-1.08.16-.32,2.46-1.69,3.1-1.89.32-.1.69-.26,1.15-.46.47-.19,1.01-.44,1.65-.76.93-.5,1.91-.86,2.85-1.27l.71-.3c.24-.09.49-.17.73-.26.48-.18.97-.35,1.47-.53.48-.2,1-.35,1.51-.51.51-.17,1.03-.35,1.56-.53.54-.17,1.08-.34,1.65-.51.56-.18,1.13-.39,1.74-.55.62-.18,1.24-.36,1.87-.54.64-.15,1.28-.3,1.91-.45.32-.07.63-.16.95-.22.32-.06.63-.12.94-.18.62-.12,1.22-.27,1.81-.4,2.95-.63,5.94-.96,9.08-.86,6.9.24,13.57.96,20.25,2.6,2.79.67,5.55,1.45,8.28,2.38,3.11,1.05,6.15,2.29,9.2,3.44.8.29,1.61.61,2.42.95.81.34,1.61.68,2.36,1.07,3.83,1.93,7.49,3.69,11.1,5.27l.44.2.22.1.29.14c.1.04.19.11.3.12l.32.05.32.05.3.02c.77.04,1.57-.1,2.3-.44.72-.34,1.37-.91,1.79-1.63.42-.72.6-1.57.56-2.38,0-.14-.02-.29-.03-.44l-.08-.43c-.03-.15-.06-.28-.1-.41-.04-.13-.08-.27-.12-.39-.17-.5-.37-.97-.59-1.42-.86-1.78-1.81-3.44-2.77-5.11l-1.43-2.47c-.49-.88-1.06-1.71-1.59-2.49-.37-.56-.76-1.14-1.11-1.67-.26-.38-.5-.76-.69-1.13l-.13-.28-.07-.21c-.03-.06-.04-.17-.06-.25-.02-.09-.04-.17-.04-.28-.08-.8,0-1.74.13-2.66.13-.93.31-1.86.51-2.81.2-.95.42-1.9.59-2.95,1.04-6.67,1.96-13.41,2.77-20.16.12-1.05.3-2.08.45-3.12.15-1.05.32-2.09.42-3.15.71-7.23,1.22-14.52.95-21.83-.1-2.84-.3-5.69-.87-8.32-.42-1.92-.78-3.89-1.25-5.88-.24-.99-.48-2-.81-2.99-.31-1-.69-1.98-1.18-2.94-.18-.35-.36-.71-.59-1.04l-.32-.51-.38-.5c-.53-.65-1.18-1.22-1.89-1.68-1.43-.91-3.04-1.37-4.58-1.61-5.58-.81-11.25,0-16.37,1.79-1.51.52-3.21,1.04-4.8,1.62-4.38,1.63-8.6,3.63-12.66,5.88-3.46,1.92-6.79,4.08-10.08,6.23-1.73,1.13-3.44,2.27-5.11,3.45-.84.6-1.66,1.19-2.49,1.83-.82.64-1.61,1.3-2.38,1.99-2.58,2.29-5.12,4.67-7.8,6.81-.52.41-1.09.8-1.63,1.18-.43.3-.75.51-1.14.61-.19.04-.4.09-.59.03l-.63-.16c-.97-.26-1.92-.53-2.88-.79-.96-.25-1.92-.5-2.87-.75-.96-.24-1.93-.46-2.9-.67-1.42-.32-2.86-.59-4.27-.9-1.42-.27-2.82-.57-4.21-.83-3.29-.64-6.65-1.04-10.06-1.29-3.41-.22-6.87-.23-10.37-.03-1.28.1-2.6.19-3.87.24-4.24.18-8.46.59-12.48,1.67-.58.16-1.35.24-2.05.39-2.81.61-5.5,1.39-8.16,1.99l-.99.22-.93.19-.22.04c-.07.02-.15-.02-.22-.04-.07-.03-.14-.05-.21-.09-.04-.02-.05-.02-.12-.06l-.18-.11c-1.01-.61-2.08-1.5-3.15-2.36-.57-.45-1.13-.93-1.78-1.41l-1.77-1.29c-1.18-.87-2.36-1.74-3.54-2.62-2.36-1.75-4.73-3.5-7.13-5.22-1.04-.74-2.14-1.46-3.14-2.18-3.36-2.44-7-4.58-10.54-6.25-2.57-1.21-4.91-2.4-7.32-3.56-2.95-1.41-5.92-2.64-9.17-3.43-1.88-.48-4.01-.9-5.85-1.31-2.27-.5-4.61-.68-6.94-.61-.58,0-1.16.06-1.74.1-.58.03-1.17.09-1.76.18-1.18.17-2.34.41-3.53.8-.22.07-.44.26-.68.41-.5.31-1,.66-1.48,1.1-.12.11-.23.23-.35.35-.11.12-.19.24-.29.36-.18.25-.39.48-.56.73-.69,1.01-1.2,2.12-1.68,3.24-.88,2.26-1.52,4.64-2.08,6.93-.55,2.21-.85,4.5-1.05,6.78-.18,2.29-.26,4.56-.37,6.81-.18,4.06.06,8.4.36,12.6.38,5.29.95,10.56,1.62,15.8.4,3.12.84,6.24,1.28,9.35l.65,4.64.05.58c.02.21.05.42.08.62.05.41.13.82.2,1.22.15.8.33,1.58.5,2.35.28,1.23.58,2.43.83,3.62.25,1.19.45,2.37.45,3.48v.21s0,.15,0,.15c-.01.11-.03.22-.05.34-.05.24-.12.49-.2.69-.02.06-.04.09-.07.15l-.09.19c-.06.12-.12.25-.19.37-.13.25-.29.5-.44.75-.63,1-1.36,1.98-2.11,2.97-.7.93-1.45,1.93-2.13,3.1-.63,1.1-1.21,2.19-1.72,3.27-.32.68-.63,1.35-.94,2.05-.15.35-.3.7-.45,1.06-.14.37-.29.72-.41,1.17-.26.88-.35,1.87-.12,2.86.1.5.32.98.6,1.43Z"/>
  <path class="cls-1" d="M141.66,175.76c-.06-.37-.17-.74-.33-1.08-.34-.66-1.57-1.27-1.64-1.82-.1-.79-.22-1.68-.89-2.08-.34-.21-.67-.44-1.06-.46-.49,0-.93-.03-1.29-.26-.82-.5-1.81-.38-2.68-.46-.37-.05-.74-.02-1.1-.09-.4-.08-.8-.17-1.22-.1-.22.04-.45.09-.65.01-.5-.21-1.01-.16-1.52.14-.33.19-.63.14-.93-.04-.11-.06-.22-.13-.33-.15-.45-.09-.9-.14-1.36-.21-.08-.01-.17-.04-.25-.01-.47.16-.92.1-1.39.04-.8-.12-1.62-.08-2.43-.08-.13,0-.25-.06-.38-.09-.13-.03-.26-.09-.39-.09-.87.02-1.75.07-2.6.33-.33.11-.66.18-.92.52-.38.49-.88.43-1.38.41-.37-.03-.77-.13-1.12-.03-.63.15-1.3.27-1.82.77-.15.15-.37.17-.57.23-.53.2-1.07.39-1.58.67-.22.11-.42.26-.62.41-.2.15-.41.28-.62.43-.45.27-.92.56-1.18,1.07-.1.22-.2.43-.31.63-.1.21-.19.41-.26.63-.03.08-.09.15-.12.23-.1.25-.25.46-.42.7-.16.24-.33.51-.39.81-.11.43-.21.91-.28,1.37-.09.55-.05,1.04.06,1.47.05.22.13.42.22.6.05.09.09.18.15.27.06.1.13.19.2.28.1.14.21.27.26.43.04.14.08.27.13.41.06.13.12.25.19.36.15.23.35.42.64.54.08.03.11.13.17.2.24.26.44.55.65.84.22.28.46.53.76.74.3.22.59.44.85.7.26.26.5.54.75.8.11.12.25.2.33.34.27.48.76.71,1.27.82.37.08.63.25.86.5.28.29.56.58.98.66.24.05.48.15.63.34.38.48,1.02.44,1.48.76.02.01.09-.07.14-.09.76-.47,1.34-.39,1.78.07.21.23.45.38.7.53.25.12.51.24.76.4.44.32,1,.33,1.52.44.33.07.67.08,1.01.11.17.01.34.03.51.03l.52-.03c.41-.02.82-.06,1.22-.16l.61-.13.58-.16c.62-.15,1.17-.43,1.85-.37.31.01.64-.05.88-.24.3-.23.6-.44.93-.57.33-.13.68-.23,1.05-.29.27-.04.52-.12.76-.22.23-.11.45-.26.66-.42.21-.17.44-.3.67-.44.34-.2.72-.38.9-.77.08-.17.14-.33.29-.42.34-.21.69-.4,1-.66.38-.33.79-.59,1.19-.9.24-.18.45-.4.65-.63.2-.23.37-.5.56-.73l.5-.65c.14-.16.36-.26.48-.43.62-1.01,1.06-2.1,1.53-3.31.06-.15.13-.31.18-.46.04-.14.08-.28.12-.43.07-.3.13-.61.16-.96.03-.39-.07-.85-.21-1.29-.02-.06-.02-.13-.04-.2Z"/>
  <path class="cls-1" d="M249.48,144.27c-.06-.4-.15-.8-.31-1.17l-.11-.28-.11-.22c-.07-.14-.15-.29-.22-.43-.31-.52-.64-1-.98-1.44-1.33-1.72-2.7-3.28-4.08-4.89-1.41-1.63-2.9-3.19-4.44-4.69-.85-.82-1.78-1.56-2.68-2.32-.13-.11-.26-.24-.39-.36-.69-.67-1.37-1.34-2.08-1.98-2.23-2.02-5.26-3.8-6.12-4.93-.64-.83-1.25-1.64-1.94-2.45-.7-.79-1.5-1.56-2.52-2.28-1.06-.72-2.15-1.56-3.24-2.06-1.35-.66-2.68-1.29-3.95-2.15-2.81-1.88-5.86-3.08-8.87-4.42-1.27-.54-2.53-1.06-3.81-1.59-1.43-.63-2.89-1.23-4.38-1.67-.79-.2-1.62-.42-2.35-.74-.94-.4-1.89-.69-2.83-.94-.94-.24-1.89-.36-2.83-.45-.61-.06-1.22-.13-1.8-.27-.59-.13-1.17-.33-1.76-.53-.42-.14-.86-.27-1.31-.37l-1.32-.28-1.34-.21-1.34-.21c-.45-.07-.9-.1-1.35-.15-.32-.03-.66-.09-.97-.08-1.84.04-3.65-.03-5.53,0-3.21.04-6.43.58-9.56,1.45-.48.15-.98.24-1.47.37-.49.12-1,.21-1.47.42-.8.34-1.63.63-2.42,1.01-.78.39-1.56.79-2.33,1.19-.74.46-1.48.93-2.21,1.4-.72.49-1.39,1.06-2.07,1.59-.54.41-1.02.88-1.49,1.35-.46.47-.91.96-1.27,1.48-.5.8-1.1,1.51-1.76,2.19-.65.68-1.29,1.39-1.97,2.07-1,1-1.96,2.02-2.79,3.17-1.47,2.06-2.89,4.22-3.81,6.58-.27.69-.69,1.41-1.04,2.12-.94,1.96-1.79,3.98-2.43,6.08-.54,1.79-.87,3.64-1.15,5.49-.3,1.94-.45,3.92-.09,5.88.3,1.63.71,3.26,1.33,4.8.13.3.23.61.35.91.76,1.77,1.42,3.53,2.48,5.13.77,1.15,1.54,2.3,2.31,3.4,1.84,2.62,4.18,4.83,6.67,6.81.46.36.93.74,1.33,1.14,1.36,1.36,2.62,2.71,4.1,3.8.21.16.42.43.61.66,1.65,1.83,2.8,3.93,3.71,6.1.47,1.14.74,2.37.85,3.62.11,1.25,0,2.52-.16,3.78-.11.54-.14,1.11-.31,1.63-.14.43-.25.88-.36,1.29-.1.36-.25.76-.39,1.17-.29.83-.61,1.73-.83,2.67-.14.59-.28,1.17-.39,1.78-.06.3-.09.62-.12.95l-.02.5.03.55c.04.26.08.52.17.77.17.52.47,1.02.82,1.41.35.39.75.71,1.2.97.87.49,2.15.73,3.2.33.16-.05.31-.12.45-.2.15-.07.3-.16.43-.26.21-.15.41-.3.62-.46.38-.27.76-.51,1.14-.71,1.86-.99,3.39-2.41,5.14-3.51.08-.05.12-.2.19-.3,1.16-1.66,3-3.15,4.95-4.1,1.89-.92,3.63-2.13,5.46-3.12,1.65-.89,3.27-2.05,4.89-3.11,2.04-1.34,4.08-2.68,6.11-4.04,2.42-1.61,4.82-3.25,7.25-4.83,1.94-1.25,3.85-2.55,5.94-3.52.98-.46,2.04-1.04,2.92-1.67,2.2-1.6,4.51-2.93,6.94-4.06,1.75-.81,3.43-1.76,5.1-2.78.84-.51,1.71-1.01,2.58-1.47,1.3-.7,2.66-1.33,3.81-2.18.5-.36.96-.69,1.54-.97,1.34-.62,2.69-1.24,4.04-1.86,1.66-.78,3.34-1.51,5.04-2.21,2.03-.83,4.02-1.85,6.04-2.78.9-.42,1.8-.86,2.71-1.25.69-.3,1.55-.56,2.3-1.1.13-.1.26-.18.4-.29.15-.13.29-.26.43-.39.14-.12.27-.29.4-.45.13-.16.26-.32.35-.5.43-.69.61-1.53.5-2.33ZM163.2,133.96c-10.85-11.1,5.98-27.59,16.63-16.38h0s.04.04.05.05c.01.02.03.03.04.05h0c10.66,11.44-6.34,26.89-16.73,16.27Z"/>
  <path class="cls-1" d="M114.39,142.34c-.03-.53-.05-1.05-.11-1.57l-.08-.78-.1-.78-.11-1.19c-.03-.4-.08-.79-.17-1.17-.96-4.23-2.7-8.12-4.53-11.95-.94-1.96-2.02-3.87-3.23-5.68-.67-1-1.44-1.92-2.21-2.84-.11-.14-.22-.29-.32-.43-.58-.79-1.16-1.57-1.8-2.32-1.31-1.54-2.52-2.28-3.49-2.51-.51-.12-1.61-1.75-2.52-2.9-.65-.88-1.36-1.63-2.15-2.41-.2-.19-.4-.39-.61-.58-.21-.19-.43-.38-.68-.54-.49-.33-1.02-.65-1.6-.96-.3-.16-.6-.32-.91-.48-.3-.16-.63-.28-.95-.41-.63-.26-1.27-.49-1.87-.65-.19-.05-.38-.11-.57-.15l-.58-.11c-.38-.08-.77-.16-1.14-.25-.76-.18-1.5-.41-2.28-.59-.85-.22-1.7-.44-2.55-.57-.86-.1-1.71-.18-2.56-.24-.42-.05-.85-.03-1.27-.03h-1.27c-.42.01-.84,0-1.26.02-.42.03-.84.05-1.26.08-.7.04-1.4.07-2.1.14-.69.09-1.39.17-2.09.23-.4.04-.79.06-1.19.11l-1.17.18c-.78.13-1.56.24-2.31.47-.78.23-1.62.49-2.41.6-2.02.34-3.88.93-5.54,1.84-1.1.55-2.22.96-3.44,1.22-.43.1-.89.19-1.31.35l-2.52.94c-.84.32-1.65.69-2.48,1.03-.3.13-.61.24-.88.39-1.56.94-3.2,1.68-4.85,2.51-2.85,1.37-5.57,3.04-8.27,4.7-.42.26-.86.48-1.29.71-.43.24-.88.45-1.3.72-2.83,1.87-5.6,3.84-8.18,6.04-.99.87-2,1.72-2.76,2.72-.55.74-1.21,1.39-1.92,1.99-.7.61-1.45,1.2-2.21,1.77-1.1.85-2.24,1.67-3.25,2.63-.9.88-1.83,1.73-2.69,2.66-.43.46-.86.92-1.27,1.4-.4.48-.79.98-1.16,1.49-.45.61-1,1.14-1.55,1.7-.75.78-1.5,1.58-2.2,2.47-.68.9-1.36,1.87-1.71,3.15-.14.53-.2,1.19-.08,1.8.12.61.42,1.19.83,1.65.1.12.21.23.33.33.12.1.23.2.37.28.27.18.47.28.7.4.44.23.87.42,1.3.61,1.79.8,3.55,1.49,5.38,1.97.38.1.76.21,1.13.32.35.11.73.25,1.11.39.75.28,1.5.56,2.26.84.29.11.58.25.87.37,1.73.73,3.24,1.74,4.83,2.64,1.16.67,2.3,1.38,3.35,2.14,2.51,1.79,5.17,3.38,8.02,4.8.52.26,1.06.53,1.55.84,1.63,1.03,3.21,2.13,5.03,2.76.26.09.55.31.82.46,1.12.63,2.21,1.31,3.31,1.98,1.09.68,2.19,1.35,3.34,1.95,2.38,1.27,4.65,2.76,6.89,4.29.48.33,1.01.63,1.45.98,1.5,1.18,3.17,2.15,4.79,2.94,1.18.57,2.18,1.24,3.15,1.97,1.19.9,2.36,1.76,3.69,2.49.77.42,1.61.93,2.26,1.48,1.6,1.36,3.52,2.25,5.15,3.46.08.06.22.04.34.07,1.95.48,3.96,1.74,5.51,3.26,1.5,1.47,3.25,2.7,4.9,4.03.75.6,1.57,1.15,2.43,1.66.43.25.85.5,1.35.75.25.12.52.24.81.35.31.11.66.21,1.01.25.89.13,1.82-.13,2.56-.63.37-.25.64-.49.92-.78.27-.28.56-.65.77-1.06.2-.4.34-.84.39-1.3.05-.45.01-.91-.06-1.29-.08-.41-.17-.69-.25-1.01-.09-.31-.18-.62-.29-.92-.48-1.45-1.07-2.79-1.54-4.11-.47-1.32-.85-2.63-.97-3.95-.07-.52-.05-1.07-.08-1.6,0-.27.03-.53.04-.8.02-.27.02-.54.07-.8.1-.53.16-1.06.34-1.56.08-.25.15-.51.25-.75.11-.24.22-.49.33-.72.05-.11.11-.22.16-.34.06-.11.12-.23.19-.34.12-.23.24-.46.35-.7.27-.46.47-.94.7-1.39,1.08-2.31,2.83-4.26,4.83-5.94,1.44-1.21,2.87-2.48,4.26-3.86.71-.69,1.45-1.37,2.19-2.05,1.12-1.01,2.28-2.04,3.14-3.25.37-.52.7-1,1.16-1.5,1.05-1.13,2.08-2.31,2.96-3.63,1.09-1.63,2.04-3.38,2.72-5.28.22-.56.35-1.15.51-1.74.11-.59.24-1.19.28-1.79.15-1.2.14-2.4.11-3.58ZM86.9,132.63s-.02.03-.03.05c-.01.02-.02.04-.04.05h0c-3.47,5.25-11.34,6.6-16.42,2.86-6.58-4.85-6.6-14.68.24-19.24,10.57-7.06,23.24,5.47,16.24,16.29Z"/>
</svg>