<?xml version="1.0" encoding="UTF-8"?>
<svg id="Layer_11" data-name="Layer 11" xmlns="http://www.w3.org/2000/svg" viewBox="0 0 314.01 288">
  <defs>
    <style>
      .cls-1 {
        fill: #737438;
      }
    </style>
  </defs>
  <path class="cls-1" d="M102.91,160.81c-6.84,4.57-6.82,14.4-.24,19.24,5.08,3.74,12.94,2.4,16.42-2.86.01-.02.02-.04.04-.05.01-.02.02-.03.03-.05,7-10.81-5.67-23.35-16.24-16.29Z"/>
  <path class="cls-1" d="M212.13,162.11s-.04-.04-.05-.06c-10.65-11.21-27.49,5.28-16.63,16.38,10.39,10.62,27.39-4.84,16.73-16.28-.01-.02-.03-.03-.04-.05Z"/>
  <path class="cls-1" d="M313.94,236.38c-.1-2.72-.32-5.43-.58-8.13-.52-5.4-1.22-10.76-1.58-16.18-.3-4.52-.79-9.03-.9-13.56-.13-5.16-.02-10.31-.77-15.41-.39-2.65-.83-5.49-.6-8.11.57-6.71,0-13.06-1.72-19.17-1.13-4-1.05-7.97-.33-12.06.26-1.46.5-2.96.56-4.46.21-5.92.35-11.85.5-17.77.03-1.07.14-2.17,0-3.19-.82-6-.68-11.95-.38-18.08.51-10.47.37-21.01.56-31.52.03-1.63.34-3.25.52-4.88.18-1.64.49-3.27.52-4.91l.14-8.42.04-4.21c0-.16,0-.4,0-.6v-.62s-.04-1.25-.04-1.25c-.06-.83-.11-1.66-.2-2.48-.73-6.61-3.09-13.06-6.87-18.44-1.46-2.1-3.07-4.08-4.91-5.77-1.83-1.69-3.88-3.09-6.09-4-3.23-1.31-6.19-2.82-9.28-4.24-3.07-1.43-6.24-2.83-9.6-3.79-2.46-.72-5.03-1.3-7.62-1.59-2.31-.29-4.62-.52-6.93-.54-5.01-.05-10.05-.21-15.07-.04-3.97.07-7.94.32-11.87.97-.44.07-.89.12-1.35.15-1.48-.01-2.99-.11-4.47-.13-7.15-.1-14.3-.33-21.45-.34-2.3,0-4.61.05-6.91.12-1.31.03-2.61.07-3.92.11-2.48.06-4.95.09-7.42.02-4.65-.14-9.25-.42-13.88-.23-2.35.03-4.71.17-7.07.48-5.32.71-10.72,1.12-16.1,1.64-.17.02-.34.02-.52.03-.23,0-.45.01-.68.03-.66.01-1.32.01-1.98.05-.15,0-.3.01-.45.02-5.45,0-10.71-1.07-16.09-1.48-4.5-.34-8.98-1.05-13.31-1.93C106.8.67,97.64-.1,88.28.24c-1.92.04-3.85.12-5.79.25-.71.05-1.42.1-2.13.13-.63,0-1.25-.02-1.86-.07-4.09-.33-8.16-.7-12.19-.5-3.03.03-6.03.31-9.02,1.13-.09.03-.2.04-.3.05-.32-.01-.63-.02-.94,0-2.16.07-4.32.08-6.48.06l-1.62-.02h-.82s-.97,0-.97,0c-.59,0-1.18.02-1.77.05h-.17c-1.29,0-2.58.09-3.87.2-5.14.5-10.24,2.01-14.69,4.61-4.64,2.71-8.85,6.02-12.51,9.87-3.66,3.85-6.77,8.27-9.05,13.15-1,2.11-1.61,4.44-2.4,6.57-.16.45-.32.9-.47,1.36-.14.46-.26.92-.38,1.39-.26.93-.41,1.88-.57,2.82-.14.95-.22,1.91-.27,2.86-.01.48-.02.96-.03,1.43v.7s.02.59.02.59c.13,3.16.5,6.27,1.05,9.26.8,4.35.72,8.39.35,12.46-.45,5-.83,9.85-.23,14.91.34,2.86.51,6.04.09,8.83-.01,1.7-.04,3.4.02,5.1.11,3.02.86,5.68,1.63,8.54.13.49.14,1.01.15,1.51.02,1.74.04,3.48.06,5.22,0,.32,0,.64.11.94.09.26.24.5.39.73,3.87,6.09,4.33,14.62,2.88,21.5-1.11,5.28-1.32,10.64-1.8,15.95-.13.64-.26,1.27-.4,1.9-.29,1.32-.56,2.64-.8,3.97-.06.58-.11,1.15-.16,1.73-1.31,13.79-2.09,27.52-1.97,41.46.08,9.74.41,19.48.48,29.23.03,3.87.13,7.74.06,11.6-.02,2.17.04,4.43.22,6.65.19,2.23.47,4.46.82,6.73.35,2.11.97,4.33,1.88,6.43.91,2.1,2.13,4.08,3.52,5.73,3.5,4.17,7.39,7.76,11.66,10.84,4.27,3.08,8.92,5.65,13.99,7.6l1.38.48.7.23.71.2,1.43.38c.48.11.96.2,1.45.3.97.21,1.95.31,2.94.44.49.06.99.08,1.48.11l.74.04.37.02h.31c.97.04,1.94.06,2.91.06,2.05.02,4.11-.02,6.18-.1.89-.03,1.77-.06,2.66-.1.36-.02.73-.03,1.09-.04.79-.02,1.58-.03,2.38-.04,1.53,0,3.07.01,4.59.05,1.96.05,3.94.12,5.9.13.47,0,.94,0,1.4,0,.02-.02.03-.04.05-.06,3.19.04,6.36-.07,9.42-.76,2.05-.46,3.94-.87,6.12-.78,4.99.2,9.99.43,14.99.45,6.19.03,12.33.2,18.52.53,7.37.39,14.85-.18,22.29-.34,3.32-.07,6.65-.24,9.97-.18.27,0,.55.02.82.04-.05.05-.1.11-.15.16,1.82.19,3.64.49,5.44.44,2.47-.07,4.94-.15,7.41-.24,2.2-.08,4.4-.16,6.6-.24,7.45-.26,14.89-.47,22.36-.28l-.06-.08c2.19.04,4.38.11,6.58.22,2.05.11,4.11.2,6.17.28.03.04.05.07.08.11,4.53.16,9.06.27,13.59.3,1.1,0,2.19-.02,3.29-.07,3.03-.08,6.07-.37,9.11-.56.35,0,.71.03,1.07.05,3.17.17,6.34.4,9.51.51.38.01.75.01,1.12.01-.09-.03-.17-.05-.25-.08-.01,0-.02,0-.03-.01.2,0,.41.02.61.03,4.09.13,7.35-.39,9.93-1.37.82.02,1.62.17,2.44.23,1.36.11,2.77-.34,4.15-.42,1.59-.09,3.18-.02,4.76.2.29.04.59.09.88.04.25-.04.49-.14.73-.2,1.17-.31,2.33.16,3.49.25,1.25.1,2.54.09,3.8.09.05,0,.09,0,.14,0,.8,0,1.6-.02,2.4-.06,2.55-.04,5.13-.31,7.75-.96,1.11-.25,2.19-.62,3.31-1.01,1.08-.44,2.2-.9,3.27-1.49,2.17-1.15,4.29-2.65,6.24-4.59,2-1.98,3.96-4.14,5.61-6.46,1.66-2.32,3-4.81,3.8-7.29,1.02-3.12,1.75-6.25,2.33-9.38.58-3.13,1.02-6.26,1.42-9.48.13-.89.18-1.78.23-2.67.05-.98.06-1.56.06-2.27.01-1.37-.01-2.74-.07-4.1ZM43.37,143.48c.12-.45.27-.8.41-1.17.15-.36.3-.71.45-1.06.31-.69.62-1.37.94-2.05.51-1.08,1.09-2.17,1.72-3.27.68-1.16,1.43-2.17,2.13-3.1.75-.99,1.48-1.97,2.11-2.97.15-.25.31-.5.44-.75.07-.12.14-.25.19-.37l.09-.19c.03-.06.05-.1.07-.15.08-.21.16-.46.2-.69.02-.12.04-.24.05-.34v-.15s0-.21,0-.21c0-1.1-.2-2.29-.45-3.48-.25-1.19-.55-2.39-.83-3.62-.18-.77-.35-1.55-.5-2.35-.07-.4-.15-.8-.2-1.22-.03-.21-.06-.41-.08-.62l-.05-.58-.65-4.64c-.44-3.11-.88-6.22-1.28-9.35-.68-5.24-1.24-10.51-1.62-15.8-.29-4.2-.54-8.54-.36-12.6.11-2.26.19-4.52.37-6.81.19-2.28.5-4.57,1.04-6.78.56-2.29,1.19-4.66,2.08-6.93.47-1.12.98-2.23,1.68-3.24.16-.26.37-.49.56-.73.1-.12.18-.24.29-.36.12-.12.23-.24.35-.35.48-.44.98-.79,1.48-1.1.25-.15.46-.34.68-.41,1.18-.39,2.35-.62,3.53-.8.59-.09,1.18-.15,1.76-.18.58-.03,1.16-.1,1.74-.1,2.33-.07,4.66.11,6.94.61,1.84.41,3.96.83,5.85,1.31,3.25.79,6.21,2.02,9.17,3.43,2.41,1.16,4.75,2.35,7.32,3.56,3.54,1.67,7.18,3.81,10.54,6.25,1,.73,2.1,1.44,3.14,2.18,2.4,1.71,4.77,3.47,7.13,5.22,1.18.87,2.36,1.75,3.54,2.62l1.77,1.29c.66.48,1.22.96,1.78,1.41,1.07.86,2.14,1.75,3.15,2.36l.18.11c.06.04.08.04.12.06.07.04.14.06.21.09.07.02.14.06.22.04l.22-.04.93-.19.99-.22c2.66-.6,5.35-1.38,8.16-1.99.7-.16,1.46-.23,2.04-.39,4.02-1.08,8.24-1.49,12.48-1.67,1.27-.05,2.59-.14,3.87-.24,3.49-.19,6.96-.18,10.37.03,3.41.25,6.77.66,10.06,1.29,1.39.25,2.79.56,4.21.83,1.41.32,2.85.58,4.27.9.97.22,1.94.43,2.9.67.96.25,1.91.5,2.87.75.96.26,1.91.52,2.88.79l.63.17c.19.05.4.01.59-.03.39-.11.71-.31,1.14-.61.55-.38,1.11-.77,1.63-1.18,2.69-2.13,5.22-4.51,7.8-6.81.77-.69,1.57-1.35,2.38-1.99.83-.64,1.65-1.23,2.49-1.83,1.67-1.19,3.38-2.33,5.11-3.45,3.29-2.15,6.62-4.31,10.08-6.23,4.07-2.25,8.29-4.25,12.66-5.88,1.59-.58,3.29-1.1,4.8-1.62,5.12-1.78,10.79-2.6,16.37-1.79,1.55.24,3.16.69,4.58,1.61.71.45,1.36,1.02,1.89,1.68l.38.5.32.51c.23.34.4.69.59,1.04.49.96.87,1.94,1.18,2.94.33.99.57,2,.81,2.99.47,1.99.83,3.97,1.25,5.88.57,2.63.76,5.48.87,8.32.27,7.31-.24,14.6-.95,21.83-.1,1.06-.27,2.1-.42,3.15-.15,1.04-.32,2.08-.45,3.12-.8,6.75-1.73,13.49-2.77,20.16-.17,1.04-.4,1.99-.59,2.95-.2.95-.38,1.89-.51,2.81-.13.92-.21,1.85-.13,2.66,0,.11.02.19.04.28.02.08.03.19.06.25l.07.21.13.27c.19.37.43.75.69,1.13.35.53.74,1.11,1.11,1.67.53.78,1.1,1.61,1.59,2.49l1.43,2.47c.96,1.66,1.91,3.33,2.77,5.11.22.45.41.92.59,1.42.05.12.08.26.12.39.04.13.08.26.1.41l.08.43c.01.15.02.29.03.44.04.81-.14,1.66-.56,2.38-.41.72-1.06,1.29-1.79,1.63-.73.35-1.53.48-2.3.44l-.3-.02-.32-.05-.32-.05c-.11,0-.2-.08-.3-.12l-.29-.14-.22-.1-.44-.2c-3.61-1.58-7.27-3.34-11.1-5.27-.75-.39-1.55-.73-2.36-1.07-.81-.34-1.63-.66-2.42-.95-3.05-1.15-6.09-2.38-9.2-3.44-2.73-.93-5.49-1.71-8.28-2.38-6.68-1.63-13.36-2.36-20.25-2.6-3.14-.1-6.13.23-9.08.86-.59.13-1.19.27-1.81.4-.31.06-.62.12-.94.18-.31.07-.63.15-.95.22-.63.15-1.27.3-1.91.45-.63.18-1.26.37-1.87.54-.61.16-1.17.37-1.74.55-.56.18-1.11.35-1.65.51-.53.19-1.05.37-1.56.54-.51.17-1.03.32-1.51.51-.49.18-.98.36-1.47.53-.24.09-.49.17-.73.26l-.71.3c-.94.4-1.92.77-2.85,1.27-.64.32-1.18.57-1.65.76-.46.2-.83.37-1.15.46-.64.2-2.93,1.57-3.1,1.89-.16.33-.36.69-.62,1.08-1.01,1.57-2.8,3.68-5.44,6.8-1.29,1.53-2.54,3.09-3.72,4.72-.22.3-.43.6-.64.91-.68,1.03-1.33,2.09-1.97,3.15l-.95,1.6-.47.8-.15.25c-.07.11-.13.22-.2.32-.12.23-.33.37-.52.55-.36.29-.74.54-1.18.73-.39.17-.8.29-1.21.35-.82.14-1.65.08-2.46-.17-.8-.25-1.6-.74-2.16-1.42-.48-.58-.79-1.08-1.12-1.59-.64-1.02-1.2-2.02-1.77-3.01l-.84-1.46c-.14-.24-.28-.47-.42-.69-.12-.2-.29-.43-.45-.66-4.94-7.22-11.5-13.26-19.16-17.19-.7-.34-1.39-.71-2.09-1.08-.69-.37-1.42-.68-2.15-1-1.91-.8-3.91-1.39-5.92-1.92-4.51-1.15-9.21-1.5-13.83-1.58-3.89-.05-7.77.28-11.64.92-3.12.52-6.24,1.15-9.31,1.97-1.35.32-2.47.79-3.69,1.24-2.83,1.13-5.89,2.11-8.87,3.26-1.98.76-3.96,1.58-5.88,2.46-1.9.88-3.8,1.76-5.69,2.63l-1.4.65c-.44.21-.89.44-1.33.67-.92.48-1.83.97-2.74,1.45-1.3.67-2.6,1.36-4.03,1.97l-.55.22-.58.2-.67.18c-.23.05-.47.07-.71.11-.96.1-2.07-.12-2.97-.74-.46-.3-.82-.71-1.13-1.15-.28-.45-.5-.94-.6-1.43-.23-.99-.14-1.98.12-2.86ZM135.75,207.58c-.75.67-1.49,1.35-2.19,2.05-1.4,1.38-2.82,2.65-4.26,3.86-2,1.68-3.75,3.63-4.83,5.94-.23.45-.44.93-.7,1.39-.11.24-.23.47-.35.7-.06.11-.12.23-.19.34-.05.11-.11.23-.16.34-.12.24-.23.48-.33.72-.1.25-.17.5-.25.75-.18.5-.24,1.03-.34,1.56-.06.26-.05.53-.07.8-.01.27-.04.53-.04.8.03.53.01,1.08.08,1.6.13,1.33.5,2.64.97,3.95.48,1.32,1.06,2.66,1.54,4.11.1.3.2.61.29.92.08.32.18.6.25,1.01.07.38.11.84.06,1.29-.05.45-.18.89-.39,1.29-.2.4-.49.78-.77,1.06-.28.29-.56.52-.92.78-.74.5-1.67.76-2.56.63-.36-.04-.71-.14-1.01-.25-.29-.11-.56-.23-.81-.35-.5-.25-.92-.5-1.35-.75-.87-.51-1.69-1.06-2.43-1.66-1.65-1.33-3.39-2.55-4.9-4.03-1.55-1.52-3.56-2.78-5.51-3.26-.12-.03-.27,0-.34-.07-1.63-1.22-3.55-2.11-5.15-3.46-.65-.55-1.49-1.06-2.26-1.48-1.33-.73-2.5-1.59-3.69-2.49-.97-.73-1.98-1.4-3.15-1.97-1.62-.79-3.28-1.75-4.79-2.94-.45-.35-.97-.65-1.45-.98-2.23-1.53-4.51-3.02-6.89-4.29-1.14-.6-2.24-1.27-3.34-1.96-1.1-.67-2.19-1.35-3.31-1.98-.28-.15-.56-.37-.82-.46-1.82-.63-3.4-1.72-5.03-2.76-.49-.31-1.02-.58-1.55-.84-2.85-1.42-5.51-3.01-8.02-4.8-1.06-.76-2.19-1.47-3.35-2.14-1.6-.91-3.1-1.91-4.83-2.64-.29-.12-.58-.26-.87-.37-.75-.28-1.5-.56-2.26-.84-.38-.14-.76-.28-1.11-.39-.37-.11-.75-.22-1.13-.32-1.83-.48-3.59-1.18-5.38-1.97-.43-.19-.86-.39-1.3-.61-.23-.12-.43-.22-.7-.4-.14-.08-.25-.18-.37-.28-.12-.1-.23-.21-.33-.33-.41-.47-.71-1.04-.83-1.65-.13-.61-.06-1.28.08-1.8.35-1.28,1.02-2.25,1.71-3.15.7-.89,1.45-1.69,2.2-2.47.55-.56,1.1-1.09,1.55-1.7.37-.51.76-1,1.16-1.49.41-.48.84-.94,1.27-1.4.86-.93,1.79-1.77,2.69-2.66,1.02-.96,2.15-1.78,3.25-2.63.75-.57,1.5-1.15,2.21-1.77.71-.6,1.37-1.25,1.92-1.99.76-1,1.77-1.85,2.76-2.72,2.58-2.2,5.35-4.17,8.18-6.04.42-.27.87-.48,1.3-.72.43-.24.88-.45,1.29-.71,2.7-1.66,5.41-3.33,8.27-4.7,1.65-.83,3.29-1.57,4.85-2.51.27-.15.59-.27.88-.39.83-.34,1.64-.72,2.48-1.03l2.52-.94c.42-.16.88-.25,1.31-.35,1.22-.27,2.34-.67,3.44-1.22,1.66-.91,3.52-1.5,5.54-1.84.8-.11,1.63-.36,2.41-.6.75-.23,1.54-.34,2.31-.47l1.17-.18c.39-.06.79-.07,1.19-.12.7-.06,1.39-.14,2.08-.23.7-.07,1.4-.09,2.1-.14.42-.03.84-.05,1.26-.08.42-.01.84,0,1.26,0h1.27c.42,0,.85-.02,1.27.02.85.06,1.7.14,2.56.24.85.13,1.7.35,2.55.57.78.18,1.52.42,2.28.59.38.09.76.17,1.14.25l.58.11c.19.04.38.1.57.15.61.16,1.24.39,1.87.65.31.13.64.25.95.41.31.16.61.32.91.48.59.3,1.12.62,1.6.96.25.16.47.35.68.54.21.19.42.38.61.58.78.78,1.5,1.53,2.15,2.41.91,1.15,2.01,2.78,2.52,2.9.96.23,2.18.98,3.49,2.51.64.75,1.22,1.53,1.8,2.32.11.14.21.29.32.43.77.92,1.54,1.85,2.21,2.84,1.22,1.81,2.29,3.72,3.23,5.68,1.83,3.83,3.56,7.73,4.53,11.95.09.38.13.78.17,1.17l.11,1.19.1.78.08.78c.06.52.09,1.05.11,1.57.03,1.18.04,2.38-.11,3.58-.05.6-.18,1.2-.28,1.79-.16.58-.29,1.18-.51,1.74-.69,1.9-1.63,3.65-2.72,5.28-.87,1.33-1.9,2.51-2.96,3.63-.46.5-.79.97-1.16,1.5-.86,1.21-2.02,2.25-3.14,3.25ZM173.98,222.69c-.04.15-.08.29-.12.43-.06.15-.12.31-.18.46-.47,1.21-.91,2.3-1.53,3.31-.12.18-.34.27-.48.43l-.5.65c-.19.24-.36.5-.56.73-.2.23-.41.45-.65.63-.4.31-.81.58-1.19.9-.31.26-.66.45-1,.66-.15.09-.21.25-.29.42-.18.4-.56.57-.9.77-.23.14-.46.27-.67.44-.21.16-.43.31-.66.42-.24.11-.49.18-.76.22-.37.06-.72.16-1.05.29s-.63.34-.93.57c-.24.19-.57.26-.88.24-.69-.06-1.23.22-1.85.37l-.58.16-.61.12c-.41.1-.81.13-1.22.16l-.52.03c-.17,0-.34-.02-.51-.03-.34-.03-.68-.04-1.01-.11-.52-.11-1.08-.12-1.52-.44-.25-.17-.5-.28-.76-.4-.25-.14-.49-.3-.7-.53-.43-.46-1.02-.54-1.78-.07-.05.03-.11.11-.14.1-.46-.32-1.1-.28-1.48-.76-.15-.2-.39-.29-.63-.35-.42-.08-.7-.37-.98-.66-.23-.24-.49-.42-.86-.5-.51-.1-1-.33-1.27-.81-.08-.14-.22-.23-.33-.34-.25-.26-.49-.54-.75-.8-.26-.26-.55-.48-.85-.7-.29-.21-.54-.46-.76-.74-.21-.29-.41-.58-.65-.84-.06-.06-.09-.16-.17-.2-.29-.12-.49-.31-.64-.54-.07-.11-.14-.24-.19-.36-.05-.13-.09-.27-.13-.4-.05-.16-.16-.3-.26-.43-.07-.09-.14-.19-.2-.28-.06-.09-.1-.18-.15-.27-.09-.19-.16-.39-.22-.6-.11-.43-.15-.93-.06-1.47.08-.46.17-.93.28-1.37.07-.3.24-.57.39-.81.16-.24.32-.45.42-.7.03-.08.09-.15.12-.23.07-.22.17-.42.26-.63.11-.2.21-.41.31-.63.26-.51.73-.8,1.18-1.07.21-.14.41-.28.62-.43.2-.15.4-.3.62-.41.51-.28,1.05-.47,1.58-.67.19-.07.42-.09.57-.23.52-.49,1.19-.62,1.82-.77.35-.09.75,0,1.12.03.5.02,1,.09,1.38-.41.26-.34.6-.41.92-.52.85-.26,1.73-.31,2.6-.33.13,0,.26.06.39.09.13.03.26.09.38.09.81,0,1.62-.04,2.43.08.47.06.92.12,1.39-.04.08-.03.16,0,.25.01.45.07.91.12,1.36.21.11.02.22.08.33.15.3.18.59.23.93.04.51-.3,1.03-.35,1.52-.14.19.08.43.02.65-.01.42-.07.82.02,1.22.1.36.07.73.04,1.1.09.88.08,1.86-.04,2.68.46.37.23.81.26,1.29.26.39.03.72.26,1.06.46.67.4.79,1.29.89,2.08.07.55,1.3,1.16,1.64,1.82.16.33.27.71.33,1.08.01.07.01.14.04.2.14.44.24.9.21,1.29-.03.35-.09.67-.16.96ZM281.23,191.08c-.09.18-.22.34-.35.5-.13.16-.26.32-.4.45-.14.13-.28.26-.43.39-.14.12-.26.2-.4.29-.75.54-1.61.8-2.3,1.1-.91.39-1.81.83-2.71,1.25-2.02.94-4.01,1.95-6.04,2.78-1.71.7-3.38,1.43-5.04,2.21-1.35.62-2.69,1.24-4.04,1.86-.59.27-1.04.61-1.54.97-1.15.85-2.51,1.49-3.81,2.18-.87.46-1.74.96-2.58,1.47-1.67,1.01-3.36,1.97-5.1,2.78-2.43,1.13-4.74,2.46-6.94,4.06-.88.63-1.94,1.22-2.92,1.67-2.09.97-4,2.27-5.94,3.52-2.44,1.58-4.84,3.22-7.25,4.83-2.03,1.36-4.07,2.7-6.11,4.04-1.62,1.06-3.24,2.23-4.89,3.11-1.83.99-3.57,2.2-5.46,3.12-1.95.95-3.79,2.43-4.95,4.1-.07.1-.11.25-.19.3-1.76,1.1-3.28,2.52-5.14,3.51-.38.2-.76.45-1.14.71-.21.15-.42.31-.62.46-.13.1-.28.19-.43.26-.15.08-.3.15-.45.2-1.05.41-2.33.16-3.2-.33-.45-.25-.85-.58-1.2-.97-.35-.39-.65-.9-.82-1.41-.09-.25-.13-.51-.17-.77l-.03-.55.02-.5c.03-.32.07-.64.12-.95.11-.61.25-1.19.39-1.78.22-.94.54-1.84.83-2.67.14-.41.29-.82.39-1.17.11-.41.23-.87.36-1.29.17-.52.2-1.09.31-1.63.17-1.26.27-2.53.16-3.78-.11-1.25-.38-2.47-.85-3.62-.9-2.17-2.06-4.27-3.71-6.1-.19-.23-.4-.5-.61-.66-1.48-1.09-2.74-2.44-4.1-3.8-.4-.4-.87-.78-1.33-1.14-2.49-1.97-4.83-4.19-6.67-6.81-.77-1.1-1.54-2.25-2.31-3.4-1.06-1.61-1.71-3.36-2.48-5.13-.12-.3-.22-.61-.35-.91-.62-1.54-1.03-3.17-1.33-4.8-.36-1.96-.21-3.94.09-5.88.28-1.85.61-3.7,1.15-5.49.64-2.1,1.48-4.12,2.43-6.08.35-.71.77-1.42,1.04-2.12.92-2.37,2.34-4.52,3.81-6.58.82-1.15,1.79-2.17,2.79-3.17.68-.68,1.32-1.38,1.97-2.07.66-.67,1.27-1.39,1.76-2.19.37-.52.81-1,1.27-1.48.47-.47.95-.94,1.49-1.35.68-.54,1.35-1.1,2.07-1.59.73-.47,1.47-.94,2.21-1.4.77-.41,1.55-.8,2.33-1.19.79-.38,1.61-.67,2.42-1.01.47-.21.97-.3,1.47-.42.49-.12.99-.22,1.47-.37,3.12-.88,6.35-1.41,9.56-1.45,1.88-.03,3.69.04,5.53,0,.31,0,.65.05.97.08.45.05.9.08,1.35.15l1.34.21,1.34.21,1.32.28c.45.1.88.23,1.31.37.59.2,1.17.4,1.76.53.59.14,1.19.21,1.81.27.94.09,1.89.21,2.83.45.94.25,1.89.54,2.83.94.73.32,1.57.53,2.35.74,1.49.44,2.95,1.03,4.38,1.67,1.27.53,2.54,1.04,3.81,1.59,3.01,1.34,6.06,2.53,8.87,4.42,1.27.87,2.6,1.5,3.95,2.15,1.09.5,2.17,1.34,3.24,2.06,1.03.72,1.82,1.49,2.52,2.28.69.81,1.3,1.62,1.94,2.45.87,1.13,3.9,2.92,6.12,4.93.71.65,1.39,1.31,2.08,1.98.13.12.25.25.39.36.9.76,1.83,1.5,2.68,2.32,1.54,1.49,3.04,3.05,4.44,4.69,1.38,1.61,2.75,3.17,4.08,4.89.33.43.66.91.98,1.44.08.14.15.28.22.43l.11.22.11.28c.15.37.24.77.31,1.17.11.8-.07,1.64-.5,2.33Z"/>
</svg>