<?xml version="1.0" encoding="UTF-8"?>
<svg id="Layer_11" data-name="Layer 11" xmlns="http://www.w3.org/2000/svg" viewBox="0 0 250.88 254.53">
  <defs>
    <style>
      .cls-1 {
        fill: #737438;
      }
    </style>
  </defs>
  <path class="cls-1" d="M247.85,213.94c-.76-1.45-1.74-2.74-2.63-4.12-.86-1.32-1.7-2.65-2.53-3.99-1.66-2.67-3.29-5.36-4.94-8.03-3.32-5.36-6.75-10.66-10.75-15.54-.85-1.04-1.73-2.06-2.63-3.05-3.68-4.06-8.82-8.44-12.04-12.77-.76-1.02-1.94-3.48.18-3.51,1.16-.02,4.6,2.75,6.47,3.17,2.91.64,4.36-.85,4.1-3.73-.35-3.77-5.41-9.19-7.96-12.04-7.16-8.01-15.66-15.23-24.3-21.62-6.11-4.52-12.67-7.13-19.1-10.89-2.9-1.7-8.9-6-8.56-9.77.31-3.47,3.53-10.03,4.64-13.91,6.38-22.42,3.96-51.03-7.61-71.43-7.56-13.32-24.46-21.63-39.49-21.98-10.5-.87-20.7.14-31.11.77C80.48,2.03,69.44-.06,59.91,0c-16.02.1-28.42,1.79-40.69,12.94C-2.75,32.91-5.12,81.84,8.22,106.88c1.71,3.21,5.17,7.65,5.27,11.43.12,4.55-5.22,12.52-6.79,17.28-3.75,11.34-3.3,26.08-1.7,37.83.79,5.84,1.98,11.62,3.51,17.31,1.56,5.79,3.47,11.49,5.72,17.04,2.27,5.6,4.88,11.07,7.81,16.35,2.93,5.27,6.19,10.37,9.77,15.22,1.32,1.79,2.68,3.54,4.09,5.26.7.86,1.41,1.7,2.13,2.54,1.66,1.92,3.97,3.04,6.29,4,2.48,1.02,5.11,1.87,7.78,2.36,2.75.5,5.51.44,8.29.57,3.5.17,7,.25,10.51.15.14,0,.28,0,.42-.01,10.57-.34,20.95-.29,31.5.24,9.95.5,19.31-1.36,29.17-1.92,5.13-.29,10.38-.27,15.53-.34,1.1-.01,2.19.04,3.28.17.69.09,1.41.16,2.09,0,3.24-.72,1.56-4.81.46-6.62-1.34-2.22-2.87-4.35-4.27-6.54-3.21-5.02-6.3-10.11-9.29-15.26-3.24-5.56-6.37-11.19-9.41-16.87-2.44-4.55-4.83-9.14-7.16-13.74-5.86-11.55-10.07-22.48-12.86-33.41-.1-.4-.21-.79-.32-1.19-.87-3.23-1.86-6.89.24-10.76,1.32-2.43,3.29-3.83,5.39-3.83.87,0,2.17.25,3.47,1.44.81.74,1.64,2.57,1.65,2.58,1.25,2.79,2.29,5.86,3.3,8.83.74,2.18,1.44,4.24,2.21,6.18,1.8,4.56,3.78,9.05,5.89,13.47,2.27,4.75,4.71,9.42,7.31,14s5.59,9.44,8.65,13.99,6.4,9.11,9.9,13.44c3.48,4.3,7.16,8.44,11.06,12.35,3.82,3.82,7.86,7.43,12.14,10.72,1.7,1.31,3.43,2.56,5.21,3.76,1.54,1.04,3.17,2.06,4.91,2.79,1.87.79,3.85,1.06,5.79,1.58,1.8.48,3.67,1.17,5.55,1.17,2.4.31,4.79.64,7.18.97,1.15.16,2.3.32,3.45.48s2.4.48,3.56.48c7.45.05,14.71-.83,20.87-5.42,2.35-1.75,5.24-3.86,7.02-6.2,1.64-2.16,2.54-5.07,3.75-7.5.95-1.91,1.63-4.03,2.13-6.22.52-2.27.03-4.81-.61-7-.51-1.75-1.04-3.57-1.79-5.26-.13-.29-.27-.57-.41-.84ZM68.04,66.18c-2.33,2.91-5.64,4.52-9.33,4.52h0c-4.69,0-9.35-2.61-11.88-6.64-2.39-3.81-2.58-8.25-.54-12.49,1.76-3.65,5.74-7.47,10.65-7.77.22-.01.44-.02.66-.02,4.71,0,9.11,3.07,11.49,8.02,2.42,5.04,2.02,10.54-1.05,14.38ZM89.65,109.69c-.08.09-.15.18-.22.27-.48.61-1.37,1.75-2.95,1.75-.96,0-1.86-.44-2.68-1.31-6.11-6.57-5.74-16.76-5.49-19.73.27-3.14,2.23-8.48,6.3-9.41.56-.13,1.14-.19,1.7-.19,4.75,0,7.76,4.35,8.18,8.44.39,3.81.71,13.41-4.86,20.18ZM125.09,65.75c-2.68,3.07-6.68,4.9-10.69,4.9h0c-3.58,0-6.88-1.47-9.31-4.14-3-3.29-3.81-7.99-2.18-12.56,1.86-5.19,6.26-9.01,11.2-9.73.73-.11,1.45-.16,2.11-.16,3.16,0,5.78,1.19,8.01,3.64,1.4,1.54,3.64,5.9,3.93,8.08.48,3.62-.61,7.16-3.08,9.98ZM143.84,24.59c-.1.92-4.4,4.55-5.4,5.38-1.06.89-7.11,5.64-7.85,5.85-.56.16-1.12.18-1.68,0-10.14-5.33-21.21-6.69-30.44,1.2-9.6,8.21-8.43,22.32-9.54,33.79-.28,2.81-3.85,2.99-4.72.45-1.15-14.28-.07-31.5-15.68-38.02-7.01-2.93-12.75-1.99-19.7.43-1.65.57-4.77,2.48-6.21,2.17-.8-.17-8.17-5.98-9.33-6.98-.82-.7-4.31-3.66-4.1-4.47,1.26-1.69,3.78-3.26,5.65-4.34,5.14-2.97,11.48-5.2,17.44-5.52,6.82-.37,12.52,1.37,18.34,4.78,7.77,4.56,12.77,11.63,22.59,6.16,4.41-2.46,8.23-6,12.96-8.14,11.19-5.06,23.44-2.82,33.55,3.61.98.62,3,1.83,3.73,2.57.36.36.45.57.4,1.09ZM156.09,149.5c.36-.64.97-1.09,1.68-1.24.48-.1.97-.16,1.46-.16,2.1,0,3.77.93,5.23,1.74.62.35,1.2.67,1.74.88,1.51.58,2.83.86,4.01.86,1.62,0,3.1-.53,4.64-1.67.21-.15.55-.47.87-.77,1.35-1.24,3.19-2.94,5.49-2.94.95,0,2.34.3,3.57,1.72,1.2,1.39,1.56,3.12,1.01,4.87-1.37,4.41-8.5,8.06-10.98,8.7-1.25.32-2.63.49-4.09.49-4.18,0-8.55-1.37-11.41-3.56-3.61-2.78-4.82-6.11-3.24-8.92ZM193.59,199.68c-.93,3.11-8.85,7.4-10.23,7.87-1.69.58-3.63.89-5.61.89h0c-4.71,0-9.15-1.67-11.89-4.48-2.15-2.21-3.01-4.91-2.17-6.89.61-1.45,2.01-2.32,3.74-2.32.99,0,2.08.27,3.34.83,1.01.45,1.87.89,2.63,1.27,1.71.87,2.74,1.4,4.21,1.4.83,0,1.81-.16,3.01-.49,1.67-.46,2.21-1.01,3.28-2.11.38-.39.81-.83,1.33-1.3.97-.88,2.51-1.43,4.02-1.43,1.33,0,2.51.44,3.31,1.24,1.44,1.44,1.38,4.36,1.02,5.53ZM235.2,233.01c-3.48,3.85-9.86,5.57-14.64,5.57-1.17,0-2.26-.1-3.27-.3-2.86-.56-10.14-4.01-10.4-8.83-.07-1.37.46-2.24.93-2.73.46-.49,1.29-1.06,2.64-1.06,1.72,0,3.75.97,6.03,2.15.41.21.98.5,1.1.55.96.29,1.97.44,3.02.44,1.66,0,3.39-.38,5-1.11.29-.13.98-.66,1.49-1.04,1.6-1.22,3.42-2.61,5.47-2.61,1.13,0,2.15.42,2.95,1.22,2.15,2.14,1.25,6.02-.32,7.74Z"/>
</svg>