<?xml version="1.0" encoding="UTF-8"?>
<svg id="Layer_11" data-name="Layer 11" xmlns="http://www.w3.org/2000/svg" viewBox="0 0 314.01 288">
  <defs>
    <style>
      .cls-1 {
        fill: #737438;
      }
    </style>
  </defs>
  <path class="cls-1" d="M313.94,236.38c-.1-2.72-.32-5.43-.58-8.13-.52-5.4-1.22-10.76-1.58-16.18-.3-4.52-.79-9.03-.9-13.56-.13-5.16-.02-10.31-.77-15.41-.39-2.65-.83-5.49-.6-8.11.57-6.71,0-13.06-1.72-19.17-1.13-4-1.05-7.97-.33-12.06.26-1.46.5-2.96.56-4.46.21-5.92.35-11.84.5-17.77.03-1.07.14-2.17,0-3.19-.82-6-.68-11.96-.38-18.08.51-10.47.38-21.01.56-31.52.03-1.63.34-3.25.52-4.88.18-1.64.49-3.27.52-4.91l.14-8.42.04-4.21c0-.16,0-.4,0-.6v-.62s-.04-1.24-.04-1.24c-.06-.83-.11-1.66-.2-2.48-.73-6.61-3.09-13.06-6.87-18.43-1.46-2.1-3.07-4.08-4.91-5.77-1.83-1.69-3.88-3.09-6.09-4-3.23-1.31-6.19-2.82-9.28-4.24-3.07-1.43-6.24-2.83-9.6-3.79-2.46-.72-5.03-1.3-7.62-1.6-2.31-.29-4.62-.52-6.93-.54-5.01-.04-10.05-.21-15.07-.04-3.97.07-7.94.32-11.87.97-.44.07-.89.12-1.35.15-1.48-.01-2.99-.11-4.47-.13-7.15-.1-14.3-.33-21.45-.34-2.3,0-4.61.05-6.91.12-1.31.03-2.61.07-3.92.11-2.48.06-4.95.09-7.42.02-4.65-.14-9.25-.42-13.88-.23-2.35.03-4.71.17-7.08.48-5.31.7-10.72,1.12-16.1,1.64-.17.02-.34.02-.52.03-.23,0-.45.01-.68.03-.66.01-1.32.01-1.98.05-.15,0-.3.01-.45.02-5.45,0-10.71-1.07-16.09-1.48-4.5-.34-8.98-1.05-13.31-1.93C106.8.67,97.64-.1,88.28.24c-1.92.04-3.85.12-5.79.25-.71.05-1.42.1-2.13.13-.63,0-1.25-.02-1.86-.07-4.09-.33-8.16-.7-12.19-.5-3.02.03-6.03.31-9.02,1.13-.09.03-.2.04-.3.06-.32-.01-.63-.02-.94,0-2.16.07-4.32.08-6.48.06l-1.62-.02h-.82s-.97,0-.97,0c-.59,0-1.18.02-1.77.05h-.17c-1.29,0-2.58.09-3.87.2-5.14.5-10.24,2.01-14.69,4.61-4.64,2.71-8.85,6.02-12.51,9.87-3.66,3.85-6.77,8.27-9.05,13.15-1,2.11-1.61,4.44-2.4,6.57-.16.45-.32.9-.47,1.36-.14.46-.26.92-.38,1.39-.26.93-.41,1.88-.57,2.82-.14.95-.22,1.91-.27,2.86-.01.48-.02.95-.03,1.43v.7l.02.59c.13,3.16.5,6.27,1.05,9.26.8,4.35.72,8.39.35,12.46-.45,5-.83,9.85-.23,14.91.34,2.86.51,6.04.09,8.83-.01,1.7-.04,3.4.02,5.1.11,3.02.86,5.68,1.63,8.54.13.49.14,1.01.14,1.51l.06,5.22c0,.32,0,.64.11.94.09.26.24.5.39.73,3.87,6.09,4.33,14.62,2.88,21.5-1.11,5.28-1.32,10.64-1.8,15.95-.13.64-.26,1.27-.4,1.9-.29,1.32-.56,2.64-.8,3.97-.05.58-.11,1.15-.16,1.73-1.31,13.79-2.09,27.52-1.97,41.46.08,9.74.41,19.48.48,29.23.03,3.87.13,7.74.05,11.6-.02,2.17.04,4.43.22,6.65.19,2.23.47,4.46.82,6.73.35,2.11.97,4.33,1.88,6.43.91,2.1,2.13,4.08,3.52,5.73,3.5,4.17,7.39,7.76,11.66,10.84,4.27,3.08,8.92,5.65,13.99,7.6l1.38.48.7.23.71.2,1.43.38c.48.11.96.2,1.45.3.97.21,1.95.31,2.94.44.49.06.99.08,1.48.11l.74.04.37.02h.31c.97.04,1.94.06,2.91.06,2.05.02,4.11-.02,6.18-.1.89-.03,1.77-.06,2.66-.1.36-.02.73-.03,1.09-.04.79-.02,1.58-.03,2.38-.04,1.53,0,3.07.01,4.6.05,1.96.04,3.94.12,5.9.13.47,0,.94,0,1.4,0,.02-.02.03-.04.05-.06,3.19.04,6.36-.07,9.42-.76,2.05-.46,3.94-.87,6.12-.78,4.99.2,9.99.43,14.99.45,6.19.03,12.33.2,18.52.53,7.37.39,14.85-.18,22.29-.34,3.32-.07,6.65-.24,9.97-.18.27,0,.55.02.82.04-.05.05-.1.11-.15.16,1.82.19,3.64.49,5.44.44,2.47-.07,4.94-.15,7.41-.24,2.2-.08,4.4-.16,6.6-.24,7.45-.26,14.89-.47,22.36-.28l-.06-.08c2.19.04,4.38.11,6.58.22,2.05.11,4.11.2,6.17.28.03.04.05.07.08.11,4.53.16,9.06.27,13.59.3,1.1,0,2.19-.02,3.29-.07,3.03-.08,6.07-.37,9.11-.56.36,0,.71.03,1.07.05,3.17.17,6.34.4,9.51.51.38.01.75.01,1.12.01-.09-.03-.17-.05-.25-.08-.01,0-.02,0-.03-.01.2,0,.41.02.61.03,4.09.13,7.35-.39,9.93-1.37.82.02,1.62.17,2.44.23,1.36.11,2.77-.34,4.15-.42,1.59-.09,3.18-.02,4.76.2.29.04.59.09.88.04.25-.04.49-.14.73-.2,1.17-.31,2.33.16,3.49.25,1.25.1,2.54.09,3.8.09.05,0,.1,0,.14,0,.8,0,1.6-.02,2.4-.06,2.55-.04,5.13-.31,7.75-.96,1.11-.25,2.19-.62,3.31-1.01,1.08-.44,2.2-.9,3.27-1.49,2.17-1.15,4.29-2.65,6.24-4.59,2.01-1.98,3.96-4.14,5.62-6.46,1.66-2.32,3-4.81,3.8-7.29,1.02-3.12,1.75-6.25,2.33-9.38.58-3.13,1.02-6.26,1.42-9.48.13-.89.18-1.78.23-2.67.05-.98.06-1.56.06-2.27.01-1.37-.01-2.74-.07-4.1ZM94.44,114.23c1.07,1,1.91,2.31,2.61,3.71,1.39,2.81,2.17,6.02,2.45,8.04l-.99.14.99-.14c.43,3.23.17,6.38.66,9.27.25,1.5.75,2.67,1.24,3.96.49,1.28.95,2.69.95,4.49,0,.41-.02.84-.07,1.29h0c-.14,1.26-.53,2.46-.88,3.61-.35,1.16-.67,2.27-.75,3.31-.03.34-.04.69-.04,1.03,0,2.23.52,4.52,1.06,6.88.54,2.35,1.11,4.76,1.11,7.25,0,.96-.09,1.92-.29,2.89-.41,1.92-1.22,3.46-2.32,4.54-1.1,1.08-2.51,1.68-3.98,1.67-2.13,0-4.28-1.19-6.03-3.4-.87-1.1-1.65-2.66-2.41-4.52-.75-1.86-1.45-4.01-2.05-6.24-1.2-4.46-2.03-9.17-2.03-12.41,0-.62.03-1.2.1-1.72,0,0,0,0,0,0h0s0,0,0,0c.21-1.51.74-2.83,1.2-4.11.47-1.28.87-2.52.95-3.9.02-.31.03-.63.03-.96,0-2.51-.53-5.37-1.09-8.28-.55-2.92-1.12-5.88-1.12-8.69,0-1.61.19-3.18.71-4.64.43-1.19,1.11-2.31,2.06-3.18.94-.87,2.17-1.48,3.58-1.59.13-.01.27-.02.41-.02,1.54,0,2.88.7,3.93,1.7ZM82.63,97.17c.23-.71.67-1.41,1.39-1.85.47-.29,1.04-.45,1.64-.47h0s.03,0,.03,0c0,0,0,0,0,0h0s.08,0,.08,0c.67,0,1.27.27,1.72.62.46.35.82.79,1.13,1.24.61.91,1.03,1.92,1.3,2.57.27.66.65,1.73.97,2.95.32,1.23.58,2.6.58,3.89,0,.67-.07,1.32-.27,1.94-.2.61-.55,1.2-1.12,1.62-.38.28-.83.46-1.32.54-.17.03-.34.04-.5.04-.95,0-1.77-.44-2.39-1-.63-.57-1.12-1.29-1.54-2.05-.82-1.52-1.33-3.21-1.57-4.28-.19-.87-.44-2.19-.44-3.53,0-.74.07-1.5.31-2.21ZM45.22,144.02l-.08.03h-.08c-.1.03-.19.03-.28.03-.43,0-.8-.13-1.14-.3-.34-.17-.65-.39-.96-.64-.62-.5-1.22-1.14-1.79-1.81-1.14-1.34-2.12-2.81-2.56-3.55-.98-1.67-1.98-3.81-2-6.07,0-1.17.29-2.37,1.04-3.44,0,0,0,0,0,0h0s0,0,0,0c.21-.29.48-.58.8-.89.33-.31.69-.61,1.07-.86.26-.16.51-.31.86-.39.34-.08.66-.12.98-.12.45,0,.89.09,1.27.27.38.17.7.43.96.7.52.56.84,1.2,1.17,1.84.21.41.43.97.68,1.66.25.69.52,1.49.79,2.35.54,1.72,1.07,3.64,1.42,5.21.23,1.06.39,1.92.39,2.6v.12s0,0,0,0v.03c-.04.77-.34,1.46-.79,2.02-.45.56-1.05.99-1.75,1.22ZM85.01,185.9c-.77,1.34-1.98,2.46-3.61,3.08l-.36-.93.36.93c-.98.38-1.91.55-2.79.55-1.36,0-2.56-.44-3.57-1.11-1.01-.67-1.86-1.55-2.64-2.48-1.55-1.86-2.89-3.92-4.38-5.09-.79-.63-1.73-1.12-2.72-1.7-.99-.58-2.04-1.25-2.95-2.28-.74-.83-1.24-1.75-1.69-2.6-.44-.86-.84-1.66-1.3-2.32-1.37-1.95-3.52-3.68-5.69-5.54-2.16-1.87-4.34-3.89-5.65-6.62-.84-1.78-1.47-4.47-1.48-7.14,0-1.29.15-2.57.54-3.74.39-1.16,1.03-2.24,2.04-2.99.67-.5,1.48-.84,2.41-.97.28-.04.55-.06.82-.06,1.02,0,1.96.28,2.81.7.85.42,1.61.98,2.31,1.57,1.41,1.18,2.64,2.52,3.73,3.29,1.06.76,2.38,1.37,3.73,2,1.36.63,2.76,1.28,4,2.21,2.31,1.72,3.35,3.85,4.09,5.89.74,2.05,1.24,4.03,2.41,5.82,1.19,1.85,3.21,3.48,5.21,5.27,1.99,1.79,3.98,3.78,4.93,6.52.36,1.06.55,2.19.55,3.31,0,1.55-.35,3.09-1.13,4.43ZM108.49,207.16c-.43,1.52-.91,3.19-1.16,5.74-.05.51-.07,1.04-.07,1.58,0,1.14.08,2.35.08,3.58,0,.47-.01.94-.04,1.41h0c-.38,5.19-2.02,10.06-3.84,14.76-1.82,4.7-3.81,9.25-4.97,13.74-.11.41-.18.99-.22,1.68-.04.68-.05,1.47-.05,2.29,0,1.65,0,3.45-.2,5.07-.14,1.08-.37,2.08-.85,2.94-.28.49-.65.93-1.14,1.25-.71.45-1.38.72-2.08.72-.41,0-.82-.11-1.16-.3-.34-.19-.61-.46-.82-.76-.41-.59-.63-1.26-.78-1.98-.3-1.43-.31-3.08-.31-4.4,0-.22,0-.44,0-.63,0-.62-.01-1.13-.04-1.29-.15-.99-.77-2-1.47-3.17-.69-1.16-1.46-2.51-1.53-4.22-.01-.33-.02-.66-.02-1,0-4.07.95-8.29,1.88-12.53.93-4.24,1.83-8.5,1.83-12.56,0-.62-.02-1.23-.06-1.84-.18-2.51-1.22-5.35-2.26-8.26-1.03-2.91-2.07-5.9-2.07-8.88,0-1.07.14-2.14.48-3.18.5-1.56,1.57-3.38,2.78-5.12,1.21-1.74,2.56-3.38,3.68-4.46.68-.65,1.55-1.43,2.56-2.07,1-.64,2.15-1.16,3.42-1.17,1-.01,2.07.38,2.92,1.23.24.24.44.51.65.84.21.33.43.7.66,1.12.45.83.94,1.83,1.4,2.84.93,2.03,1.78,4.11,2.12,5.1,1.11,3.16,1.53,5.34,1.53,7.18,0,1.8-.41,3.21-.84,4.73ZM154.78,134.05c-.26.77-.62,1.56-1.02,2.35-.8,1.59-1.79,3.2-2.59,4.6-.53.93-.98,1.78-1.22,2.4-.41,1.06-.59,2.14-.76,3.3-.18,1.16-.35,2.39-.82,3.68-.68,1.87-1.81,3.47-2.97,4.96-1.17,1.49-2.38,2.89-3.31,4.3-1.32,2-2.44,4.39-3.77,6.69-1.34,2.3-2.9,4.55-5.2,6.18-1.03.73-2.11,1.21-3.14,1.66-1.03.45-2,.89-2.86,1.49-1.14.78-2.27,1.98-3.46,3.22-1.2,1.23-2.47,2.51-4,3.42-1.02.6-2.17,1.04-3.45,1.13-.19.01-.37.02-.56.02-.82,0-1.55-.14-2.18-.43-.63-.29-1.15-.72-1.52-1.23-.75-1.04-.98-2.3-.98-3.56,0-1.74.44-3.53.92-4.96.57-1.69,1.57-3.3,2.8-4.87,1.23-1.57,2.69-3.08,4.21-4.56,3.04-2.94,6.33-5.71,8.41-8.09,1.51-1.73,3.06-4.23,4.72-6.63,1.67-2.4,3.44-4.72,5.61-6.14.96-.61,2.06-1.06,3.06-1.54,1.01-.47,1.91-.97,2.42-1.51.65-.65,1.38-2.1,2.1-3.73.73-1.63,1.48-3.45,2.43-4.98.64-1.02,1.37-1.93,2.33-2.54.55-.35,1.18-.58,1.86-.64h0,0s0,0,0,0h.21c.48-.01.92.13,1.28.34.37.21.67.49.92.79.5.61.82,1.32.93,2.05h0c.02.19.03.37.03.55,0,.75-.18,1.5-.44,2.27ZM202.69,111.75c-.24.76-.65,1.51-1.32,2.06-.45.37-1,.63-1.63.76l-.2-.98.2.98c-.47.1-.94.14-1.39.14-1.32,0-2.54-.39-3.62-.99-1.09-.59-2.07-1.38-2.98-2.22-1.81-1.68-3.4-3.59-4.82-4.64-1.59-1.2-2.82-1.77-4.04-2.36-1.22-.59-2.46-1.21-3.77-2.44-.87-.82-1.77-1.89-2.75-3.38-2.85-4.31-4.99-8.16-8.01-12.44-1.73-2.44-2.38-4.08-2.74-5.64-.36-1.56-.46-2.91-1.22-5.19-.35-1.07-1.2-2.56-2.14-4.15-.94-1.6-1.95-3.3-2.64-4.98-.46-1.12-.78-2.24-.78-3.35,0-.36.03-.72.12-1.07h0s0,0,0,0c0,0,0,0,0,0,.17-.74.59-1.35,1.14-1.8.55-.45,1.24-.74,2-.75.13,0,.28,0,.43.04h0s0,0,0,0c0,0,0,0,0,0h0c.96.16,1.78.65,2.44,1.29.67.65,1.22,1.44,1.71,2.3.98,1.72,1.75,3.74,2.52,5.39.51,1.1,1.03,2.04,1.51,2.58.61.68,1.4,1.15,2.34,1.59.94.44,2,.85,3.03,1.49,2.27,1.42,4.05,3.72,5.71,6.1,1.65,2.38,3.16,4.85,4.71,6.61,2.61,3.01,5.94,5.65,8.85,8.66,1.4,1.46,2.93,2.97,4.25,4.67,1.32,1.7,2.44,3.61,2.97,5.86.22.94.44,2.2.44,3.5,0,.79-.08,1.6-.32,2.37ZM222.54,36.48h0s0,0,0,0c.04-.84.29-2.11.71-3.55.41-1.43.99-2.98,1.72-4.26.5-.85,1.05-1.6,1.8-2.11.43-.29.94-.49,1.51-.49.02,0,.07,0,.13,0h0s0,0,0,0c.02,0,.03,0,.05,0h0c.56.04,1.08.19,1.53.46.46.27.82.66,1.08,1.09.51.87.67,1.88.67,2.94,0,2.4-.84,5.15-1.68,7.04-.28.63-.57,1.16-.86,1.58-.52.72-1.06,1.28-1.65,1.67-.58.39-1.22.62-1.87.62-.49,0-.97-.14-1.38-.39-.41-.25-.75-.6-1-1.02-.52-.83-.76-1.89-.77-3.13,0-.15,0-.3.01-.47,0,0,0,0,0,0ZM212.58,79.68c-.43-1.69-.9-3.45-.9-5.41,0-.43.02-.86.08-1.31,0,0,0,0,0,0h0s0,0,0,0c.15-1.21.63-2.35,1.08-3.48.46-1.13.9-2.24,1.07-3.28.36-2.22.14-4.82.38-7.31.17-1.61.61-4.04,1.41-6.51.8-2.47,1.93-4.96,3.61-6.69,1.11-1.14,2.55-1.96,4.23-1.95.13,0,.28,0,.43.02h0s0,0,0,0c0,0,0,0,.01,0h0c1.19.1,2.26.63,3.15,1.33.89.71,1.61,1.62,2.08,2.58.77,1.61,1.03,3.44,1.03,5.37,0,2.81-.55,5.86-1.09,8.86-.54,2.99-1.06,5.92-1.06,8.38,0,.37.01.73.04,1.08h0c.1,1.36.5,2.62.97,3.91.46,1.29.98,2.62,1.18,4.12.06.46.09.97.09,1.52,0,2.34-.49,5.54-1.24,8.87-.75,3.33-1.76,6.77-2.85,9.55-.73,1.85-1.47,3.4-2.26,4.48l-.81-.59.81.59c-.89,1.22-1.87,2.13-2.9,2.74-1.03.61-2.11.92-3.17.92-1.77,0-3.41-.87-4.58-2.3-1.18-1.43-1.95-3.4-2.15-5.74-.03-.41-.05-.81-.05-1.21,0-2.39.55-4.66,1.1-6.87.54-2.2,1.08-4.33,1.14-6.39,0-.11,0-.21,0-.32,0-1.67-.4-3.28-.84-4.97ZM224.32,162.85c.91,4.25,1.84,8.49,1.84,12.62,0,.38,0,.76-.02,1.14h0c-.04.79-.25,1.52-.53,2.17-.28.65-.63,1.25-.97,1.81-.69,1.11-1.29,2.09-1.42,2.93-.04.2-.06.62-.06,1.11,0,.61.02,1.35.02,2.14,0,.72-.02,1.48-.09,2.21-.08.73-.21,1.44-.47,2.1-.17.43-.41.85-.76,1.2-.46.47-1.15.77-1.88.76-.39,0-.78-.07-1.18-.2h0c-.46-.15-.86-.4-1.19-.71-.33-.31-.58-.69-.79-1.08-.41-.8-.63-1.71-.77-2.69-.28-1.94-.24-4.17-.26-6.02-.01-1.23-.07-2.31-.21-2.9-1.02-4.39-3-8.89-4.84-13.56-1.84-4.67-3.55-9.51-3.96-14.63-.04-.51-.05-1.02-.05-1.52,0-1.21.08-2.41.08-3.54,0-.53-.02-1.04-.06-1.54-.13-1.44-.59-2.98-1.07-4.56-.48-1.59-.97-3.22-1.11-4.9-.02-.27-.03-.56-.03-.85,0-2.23.6-4.74,1.4-7.16.81-2.42,1.83-4.74,2.73-6.52.42-.82.82-1.72,1.32-2.55.5-.83,1.12-1.63,2.04-2.16.61-.35,1.34-.55,2.14-.55.34,0,.69.03,1.06.1,0,0,0,0,0,0h0s0,0,0,0c.93.18,1.81.68,2.72,1.35.9.68,1.82,1.54,2.72,2.52,1.79,1.95,3.49,4.32,4.65,6.47.77,1.44,1.31,2.74,1.45,3.9.06.51.08,1.01.08,1.5,0,3.11-1.01,6-2.02,8.79-1.01,2.79-2.03,5.48-2.22,8.16-.05.66-.07,1.33-.07,2,0,4.15.89,8.41,1.8,12.66ZM266.35,90.11l-.93-.36.93.36c-1.07,2.76-2.97,4.8-4.96,6.59-1.99,1.79-4.09,3.37-5.67,5.15-.78.87-1.39,1.98-2.03,3.15-.64,1.16-1.3,2.38-2.27,3.4-.99,1.03-2.22,1.73-3.39,2.4-1.17.66-2.27,1.3-3.03,2.03-.99.95-1.84,2.31-2.84,3.68-1,1.36-2.19,2.74-3.98,3.55-.99.45-2.02.66-3.01.66-3.18,0-6-2.17-6.91-5.41-.28-.99-.42-1.93-.42-2.83,0-1.44.34-2.76.91-3.94.56-1.19,1.34-2.25,2.2-3.24,1.74-1.97,3.85-3.68,5.59-5.44,1.16-1.17,2.15-2.37,2.77-3.63.45-.9.79-1.98,1.13-3.09.35-1.12.71-2.29,1.26-3.38.63-1.25,1.46-2.24,2.38-3.05.92-.81,1.93-1.43,2.96-1.98,2.05-1.1,4.16-1.93,5.9-3.21.79-.58,1.69-1.46,2.67-2.34.98-.88,2.05-1.78,3.3-2.39.83-.4,1.75-.67,2.74-.67.29,0,.58.02.89.07h0c.92.15,1.73.5,2.39,1,.66.5,1.17,1.15,1.54,1.86.74,1.43.99,3.11,1,4.79,0,2.33-.49,4.65-1.12,6.28ZM277.57,64.55h0c-.21,1.12-.8,2.42-1.53,3.78-.74,1.35-1.64,2.73-2.52,3.87-.59.76-1.16,1.41-1.7,1.89-.78.69-1.67,1.07-2.56,1.08-.83,0-1.64-.36-2.16-1.01-.54-.64-.8-1.5-.81-2.45,0-.62.14-1.41.35-2.4.21-.98.51-2.12.85-3.29.68-2.35,1.52-4.79,2.26-6.29.22-.44.42-.79.67-1.1.31-.38.63-.72,1.05-.99.42-.27.94-.42,1.46-.41.36,0,.72.06,1.09.16h0s0,0,0,0c1.33.36,2.29,1.32,2.85,2.39.58,1.09.83,2.32.83,3.49,0,.45-.04.88-.11,1.29Z"/>
</svg>