<?xml version="1.0" encoding="UTF-8"?>
<svg id="Layer_11" data-name="Layer 11" xmlns="http://www.w3.org/2000/svg" viewBox="0 0 314.01 288">
  <defs>
    <style>
      .cls-1 {
        fill: #737438;
      }
    </style>
  </defs>
  <path class="cls-1" d="M313.94,236.38c-.1-2.72-.32-5.43-.58-8.13-.52-5.4-1.22-10.76-1.58-16.18-.3-4.52-.79-9.03-.9-13.56-.13-5.16-.02-10.31-.77-15.41-.39-2.65-.83-5.49-.6-8.11.57-6.71,0-13.06-1.72-19.17-1.13-4-1.05-7.97-.33-12.06.26-1.46.5-2.96.56-4.46.21-5.92.35-11.85.5-17.77.03-1.07.14-2.17,0-3.19-.82-6-.68-11.95-.38-18.08.51-10.47.37-21.01.56-31.52.03-1.63.34-3.25.52-4.88.18-1.64.49-3.27.52-4.91l.14-8.42.04-4.21c0-.16,0-.4,0-.6v-.62s-.04-1.24-.04-1.24c-.06-.83-.11-1.66-.2-2.48-.73-6.61-3.09-13.06-6.87-18.43-1.46-2.1-3.07-4.08-4.91-5.77-1.83-1.69-3.88-3.09-6.09-4-3.23-1.31-6.19-2.82-9.28-4.24-3.07-1.43-6.24-2.83-9.6-3.79-2.47-.72-5.03-1.3-7.62-1.59-2.31-.29-4.62-.52-6.93-.54-5.01-.04-10.05-.21-15.07-.04-3.97.07-7.94.32-11.87.97-.44.07-.89.12-1.35.15-1.48-.01-2.99-.11-4.47-.13-7.15-.1-14.3-.33-21.45-.34-2.3,0-4.61.05-6.91.12-1.31.03-2.61.07-3.92.11-2.48.06-4.95.09-7.42.02-4.65-.14-9.25-.42-13.88-.23-2.35.03-4.71.17-7.07.48-5.32.7-10.72,1.12-16.1,1.64-.17.02-.34.02-.52.03-.23,0-.45.01-.68.03-.66.01-1.32.01-1.98.05-.15,0-.3.01-.45.02-5.45,0-10.71-1.07-16.09-1.48-4.5-.34-8.98-1.05-13.31-1.93C106.8.67,97.64-.1,88.28.24c-1.92.04-3.85.12-5.79.25-.71.05-1.42.1-2.13.13-.63,0-1.25-.02-1.86-.07-4.09-.33-8.16-.7-12.19-.5-3.03.03-6.03.31-9.02,1.13-.09.03-.2.04-.3.05-.32-.01-.63-.02-.94,0-2.16.07-4.32.08-6.48.06l-1.62-.02h-.82s-.97,0-.97,0c-.59,0-1.18.02-1.77.05h-.17c-1.29,0-2.58.09-3.87.2-5.14.5-10.24,2.01-14.69,4.61-4.64,2.71-8.85,6.02-12.51,9.87-3.66,3.85-6.77,8.27-9.05,13.15-1,2.11-1.61,4.44-2.4,6.57-.16.45-.32.9-.47,1.36-.14.46-.26.92-.38,1.39-.26.93-.41,1.88-.57,2.82-.14.95-.22,1.91-.28,2.86-.01.48-.02.95-.03,1.43v.7s.02.59.02.59c.13,3.16.5,6.27,1.05,9.26.8,4.35.72,8.39.35,12.46-.45,5-.83,9.85-.23,14.91.34,2.86.51,6.04.09,8.83-.01,1.7-.04,3.4.02,5.1.11,3.02.86,5.68,1.63,8.54.13.49.14,1.01.14,1.51.02,1.74.04,3.48.06,5.22,0,.32,0,.64.11.94.09.26.24.5.39.73,3.87,6.09,4.33,14.62,2.88,21.5-1.11,5.28-1.32,10.64-1.8,15.95-.13.64-.26,1.27-.4,1.9-.29,1.32-.56,2.64-.8,3.97-.05.58-.11,1.15-.16,1.73-1.31,13.79-2.09,27.52-1.97,41.46.09,9.74.41,19.48.48,29.23.03,3.87.13,7.74.05,11.6-.02,2.17.04,4.43.22,6.65.19,2.23.47,4.46.82,6.73.35,2.11.97,4.33,1.88,6.43.91,2.1,2.13,4.08,3.52,5.74,3.5,4.17,7.39,7.76,11.66,10.84,4.27,3.08,8.92,5.65,13.99,7.6l1.38.48.7.23.71.2,1.43.38c.48.11.96.2,1.45.3.97.21,1.95.31,2.94.44.49.06.99.08,1.48.11l.74.04.37.02h.31c.97.04,1.94.06,2.91.06,2.05.02,4.11-.02,6.18-.1.89-.03,1.77-.06,2.66-.1.36-.02.73-.03,1.09-.04.79-.02,1.58-.03,2.38-.04,1.53,0,3.07.01,4.6.05,1.96.05,3.94.12,5.9.13.47,0,.94,0,1.4,0,.02-.02.03-.04.05-.06,3.19.04,6.36-.07,9.42-.76,2.05-.46,3.94-.87,6.12-.78,4.99.2,9.99.43,14.99.45,6.19.03,12.33.2,18.52.53,7.37.39,14.85-.18,22.29-.34,3.32-.07,6.65-.24,9.97-.18.27,0,.55.02.82.04-.05.05-.1.11-.15.16,1.82.19,3.64.49,5.44.44,2.47-.07,4.94-.15,7.41-.24,2.2-.08,4.4-.16,6.6-.24,7.45-.26,14.89-.47,22.36-.28-.02-.03-.04-.05-.06-.08,2.19.04,4.38.11,6.58.22,2.05.11,4.11.2,6.17.28.03.04.05.07.08.11,4.53.16,9.06.27,13.59.3,1.1,0,2.19-.02,3.29-.07,3.03-.08,6.07-.37,9.11-.56.36,0,.71.03,1.07.05,3.17.17,6.34.4,9.51.51.38.01.75.01,1.12.01-.09-.03-.17-.05-.25-.08-.01,0-.02,0-.03-.01.2,0,.41.02.61.03,4.09.13,7.35-.39,9.93-1.37.82.02,1.62.17,2.44.23,1.36.11,2.77-.34,4.15-.42,1.59-.09,3.18-.02,4.76.2.29.04.59.09.88.05.25-.04.49-.14.73-.2,1.17-.31,2.33.16,3.49.25,1.25.1,2.54.09,3.8.09.05,0,.1,0,.14,0,.8,0,1.6-.02,2.4-.06,2.55-.04,5.13-.31,7.75-.96,1.11-.25,2.19-.62,3.31-1.01,1.08-.44,2.2-.9,3.27-1.49,2.17-1.15,4.29-2.65,6.24-4.59,2.01-1.98,3.96-4.14,5.62-6.46,1.66-2.32,3-4.81,3.8-7.29,1.02-3.12,1.75-6.25,2.33-9.38.58-3.13,1.02-6.26,1.42-9.48.13-.89.18-1.78.23-2.67.05-.98.06-1.56.06-2.27.01-1.37-.01-2.74-.07-4.1ZM269.35,155.2c-.47,3.97-1.09,7.6-1.89,11.09-.13.57-.27,1.15-.44,1.73l-.47,1.55c-.18.63-.38,1.28-.59,1.93l-.33,1.08s-.71,2.46-.72,2.5c0,0-1.19,3.7-1.2,3.73l-.71,1.99c-.19.55-.39,1.09-.59,1.64l-1.12,2.83c-.12.3-.23.59-.36.89l-.83,1.88c-.25.56-.49,1.12-.75,1.67l-1.14,2.32c-.3.64-.65,1.29-.99,1.95l-.7,1.33c-.36.7-.73,1.4-1.11,2.08l-1.33,2.48c-.49.87-.93,1.68-1.36,2.51-.29.57-.65,1.11-.97,1.58l-1.09,1.65c-.28.43-.58.88-.89,1.32l-1.62,2.3c-.43.58-.83,1.11-1.22,1.63l-.56.74c-.52.71-1.08,1.4-1.63,2.06l-.23.28c-.78.95-1.49,1.74-2.16,2.41-.59.59-1.16,1.22-1.72,1.85-.27.3-.55.6-.82.9-.7.78-1.4,1.66-2.14,2.59l-.15.18c-.29.37-.61.78-.94,1.18-.36.44-.73.9-1.13,1.33-.67.75-1.4,1.53-2.15,2.3-.03.03-.06.06-.08.08-.77.75-1.56,1.48-2.38,2.22-.36.34-.79.69-1.22,1.04l-.13.11c-.44.35-.87.7-1.32,1.05-.18.14-.33.26-.48.39-.17.14-.34.28-.51.41-.3.24-.61.5-.93.76l-1.14.98c-.31.28-.63.55-.95.8-1.3,1.05-2.67,2.16-4.21,3.18l-.3.21c-.59.4-1.18.81-1.78,1.21l-2.19,1.38-.91.58c-.21.14-.44.27-.67.41l-2.22,1.34c-.5.32-1.08.64-1.66.96l-2.28,1.27c-.51.28-.99.52-1.46.76-.32.16-2.14,1.11-2.14,1.11-.27.14-.57.29-.88.43l-2.78,1.33c-.63.29-1.21.54-1.8.79l-1.97.84c-.32.14-.65.26-.99.39l-.36.14c-.87.33-1.72.64-2.57.95-.85.29-1.65.53-2.45.78l-1.6.47c-.42.12-.78.2-1.13.29l-.34.08c-.78.18-1.52.38-2.25.58-.37.1-.72.19-1.07.28-.42.11-.83.21-1.25.33l-1.15.32c-.39.12-.83.24-1.27.35l-2.25.6c-2.69.72-5.76,1.08-8.66,1.4h-.11c-.33.05-.65.09-.98.11l-1.07.06c-.71.03-1.37.05-2,.06-.19,0-.38.01-.57.01-1.06,0-1.99-.11-2.82-.21l-.54-.06c-1.53-.19-2.96-.41-4.4-.63-.7-.11-1.41-.22-2.12-.32-1.04-.15-2.97-.26-5.21-.38-3.43-.19-7.69-.42-11.56-.97-.05,0-.09-.01-.14-.02-2.23-.4-4.33-.9-6.27-1.38l-.33-.09c-.22-.06-.44-.12-.66-.17-2.32-.51-5.02-1.12-7.68-1.97-2.27-.73-4.53-1.55-6.73-2.44-2.08-.83-4.21-1.79-6.52-2.91-9.1-4.47-16.76-9.19-23.41-14.43-.94-.73-1.78-1.52-2.59-2.28-.4-.38-.81-.75-1.22-1.12l-.64-.58c-1.39-1.25-2.83-2.55-4.22-3.9-4.37-4.26-7.46-7.7-10.02-11.13-2.37-3.16-4.64-6.48-6.92-10.15-1.67-2.71-3.25-5.6-4.81-8.83-.27-.55-.55-1.08-.84-1.6l-.95-1.67c-1.74-3.05-3.02-6.48-4.04-9.44-.83-2.44-1.48-4.43-2.04-6.29-1.36-4.41-2.27-8.8-2.72-13.05-.08-.71-.15-1.46-.22-2.21l-.04-.38c-.03-.26-.05-.52-.07-.79l-.11-1.94c-.03-.5-.06-.99-.08-1.45-.03-.6-.07-1.22-.14-1.84-.06-.59-.15-1.15-.25-1.66l-.11-.52c-.05-.22-.07-.45-.08-.67,0-.1.01-.99.01-.99,0-.29,0-.62,0-.94-.02-1.16-.08-2.46-.19-4.07-.2-2.81-.14-5.66.15-8.02.09-.64.17-1.23.24-1.83l.1-.91.13-.97.22-1.81.25-1.89.11-.9.41-2.83.47-2.84.19-1.01c1.2-6.46,2.95-12.77,5.19-18.73.86-2.3,1.88-4.7,3.21-7.54,1.12-2.37,2.41-4.81,3.82-7.27,2.74-4.74,5.01-8.1,7.35-10.9l.35-.42c2.83-3.38,5.76-6.87,9.21-9.88,1.26-1.12,3.18-2.86,4.94-4.65.77-.76,1.47-1.51,2.15-2.24l.18-.19c.65-.72,1.33-1.48,1.91-2.2.21-.32.56-.84,1.18-1.29.67-.5,1.37-1.04,2.07-1.58,2.91-2.24,5.92-4.55,9.41-6.37.36-.19.73-.39,1.11-.61.45-.25.86-.48,1.26-.72l1.01-.61c.5-.3.99-.59,1.46-.88,2.64-1.59,5.48-2.96,9.22-4.44,2.52-1,4.83-1.91,7.32-2.99.76-.35,1.59-.68,2.39-.99l.46-.18c.91-.34,1.84-.67,3.07-1.07,2.41-.74,4.51-1.27,6.48-1.62.56-.11,1.19-.24,1.82-.38.61-.13,1.23-.26,1.84-.38,5.32-.98,10.98-1.69,17.84-2.25,1.79-.14,3.64-.21,5.65-.21,1.05,0,2.09.02,3.14.05,2.81.09,5.54.32,8.57.58.31.03.58.07.86.1.32.04.72.09.89.09,4.89.09,9.64,1.26,13.24,2.27,1.15.31,2.39.63,3.6.92,6.97,1.79,13.59,4.58,19.71,8.32,2.07,1.26,4.19,2.63,6.23,3.95l1.08.7c2.31,1.51,4.44,3.15,6.5,4.73,1.05.81,2.11,1.62,3.2,2.42.28.21.53.4.78.6.27.21.54.43.82.63,2.53,1.89,5.14,4.02,8.24,6.73,1,.88,1.75,1.57,2.43,2.26l1.07,1.07c.29.29.56.59.83.88l.29.32c1.49,1.6,2.86,3.24,4.14,4.79,1.46,1.79,2.63,3.27,3.72,4.67,1.5,1.97,2.59,3.49,3.58,4.97,2.6,3.91,4.98,8.08,7.08,12.39.23.47.47.99.71,1.5.13.28.25.55.38.83.35.8.69,1.49,1.01,2.14,2.26,4.37,4.1,9.41,5.77,15.82.78,2.99,1.2,5.94,1.63,9.22.19,1.43.35,2.87.5,4.3.28,2.57.54,4.99.99,7.3.16.84.27,1.54.36,2.22.08.79.14,1.52.2,2.25.1,1.2.12,2.42.13,3.61v.78c.02,4.16-.18,7.85-.61,11.35Z"/>
  <path class="cls-1" d="M246.98,138.66s-.12-1.68-.15-1.99c-.03-.44-.06-.88-.1-1.31l-.24-2.32c-.05-.47-.11-.9-.17-1.34-.04-.29-.08-.58-.12-.87-.06-.43-.11-.91-.15-1.38,0,0-.23-1.85-.26-2.12-.06-.56-.13-1.09-.23-1.53l-.46-2.18c-.09-.37-.2-.82-.32-1.27l-.43-1.72-.87-3.03-.97-3.02-1.07-3.04-.75-1.95c-1.36-3.51-2.61-6.1-4.05-8.4-.22-.36-.42-.73-.62-1.12-.09-.18-.19-.37-.29-.55l-1.23-2.2c-.23-.4-.48-.81-.73-1.23l-1.07-1.78-1.31-2.02c-.23-.35-.4-.62-.59-.89-.57-.82-1.04-1.6-1.48-2.33-.45-.72-1-1.5-1.7-2.41-.51-.63-1.16-1.31-1.9-2.01-2.31-2.07-4.79-4.45-7.75-7.45-.36-.36-.83-.78-1.41-1.27-.36-.29-.79-.61-1.21-.92l-1.28-.97-.8-.59c-.59-.44-1.16-.87-1.72-1.31l-2.48-1.82-.83-.56c-.49-.33-.99-.67-1.5-1-.31-.2-.64-.39-.97-.59l-1.06-.63c-.31-.18-.61-.37-.92-.54l-1.96-1.08c-.19-.1-.38-.21-.57-.31l-1.59-.79c-.41-.2-.82-.41-1.24-.6l-.68-.3c-1.11-.5-2.16-.97-3.23-1.39-.03-.01-.07-.03-.1-.04-.77-.33-1.56-.64-2.35-.94-.57-.22-1.14-.44-1.7-.67l-2.02-.76-1.1-.43-.99-.37c-.58-.22-1.15-.42-1.72-.61-.59-.17-1.17-.32-1.76-.47l-.95-.23c-.11-.02-.81-.15-.81-.15-.61-.11-1.25-.22-1.89-.33-1.09-.16-2.26-.38-3.42-.65-.48-.09-.96-.19-1.45-.28-.62-.12-1.25-.25-1.87-.36-2.85-.48-5.23-1.09-7.52-1.69-1.34-.35-2.61-.68-3.93-.97-1.37-.32-2.3-.58-3.1-.94-.22-.03-.6-.06-1.07-.06-.35,0-.59.02-.72.03-.98.37-2.12.68-3.49.93-.69.12-1.43.26-2.28.36-.38.05-.8.09-1.23.13-.43.05-.87.1-1.33.14l-1.32.11c-.26.02-.48.05-.71.07l-1.21.13c-.58.06-1.15.12-1.73.21l-.18.03c-.22.03-.44.06-.65.1-.71.13-1.37.29-2.03.44-.34.08-.67.16-1.01.24-.34.07-.65.16-.96.23l-.53.14c-.54.14-1.09.27-1.63.39-3.54.85-7.19,1.95-10.8,3.25-6.35,2.28-12.59,5.68-19.1,10.39-.4.3-.85.59-1.3.89l-.71.47c-.47.32-.94.63-1.4.97-.49.37-.98.77-1.48,1.18l-.53.44c-.38.31-.76.65-1.15,1-.28.25-.56.5-.85.74-2.81,2.49-5.44,5.29-8.34,8.42-2.22,2.39-4.28,4.93-6.13,7.55-.02.03-.04.05-.06.08-.22.29-.43.6-.63.9-.16.24-.32.48-.49.71l-.24.35c-.28.4-.56.8-.82,1.21l-1.14,1.73-1.06,1.72c-.12.19-.23.38-.33.56-.1.2-.19.39-.29.59-.22.46-.41.93-.62,1.41l-.23.55c-.2.47-.4.94-.62,1.41l-.87,1.85c-.29.62-.59,1.24-.9,1.87l-.84,1.83c-.28.59-.51,1.16-.74,1.73l-.28.68c-.26.62-.48,1.26-.72,1.94l-.16.46c-1.07,3.16-2.06,6.32-3.22,10.08-1.37,4.41-2.12,9.01-2.22,13.69-.02,1.21-.07,2.27-.14,3.24-.04.84-.1,1.67-.17,2.48l-.06.69c-.28,3.38-.09,7.07.6,11.99.41,2.81.88,5.29,1.44,7.58l.23.97.44,1.65c.1.39.21.79.32,1.18l.29.98c.27.9.53,1.81.83,2.7,1.39,4.28,3.02,8.37,4.85,12.22,1.03,2.15,2.24,4.35,3.41,6.47.53.97,1.06,1.93,1.57,2.87,1.28,2.38,2.84,4.66,4.49,7.07.56.81,1.11,1.62,1.65,2.44.25.38.52.75.79,1.13.22.29.48.6.73.91l.09.1c.64.75,1.2,1.38,1.78,1.91.38.36.72.67,1.07.97l.49.42c.13.1.27.2.4.3.73.54,1.34.95,1.91,1.29.34.14.89.39,1.41.89.57.54,1.26,1.19,1.96,1.78l2.17,1.76.66.5c.54.41,1.08.82,1.61,1.25l.56.45.52.4c.44.34.85.68,1.25,1.03.22.18.47.4.73.59.28.2.59.41.91.62.33.22.66.43,1,.64l.44.27.46.26c.75.41,1.49.85,2.23,1.29.46.27.92.55,1.38.81l1.82,1.1,1.73,1c.87.52,1.76.96,2.76,1.44.89.44,1.87.79,2.88,1.14.46.17.91.31,1.36.45.33.11.67.21,1,.33.34.11.7.24,1.06.36.44.15.88.31,1.32.45.85.28,1.66.57,2.47.87l.15.05c.8.27,1.68.58,2.55.92.34.14.73.25,1.15.36l.53.15c.39.11.78.22,1.17.33.5.16.96.27,1.41.39l2.08.53c.9.21,1.87.41,2.84.6l.6.12.67.11c.95.15,1.9.31,2.85.43l2.06.21c.45.04.89.09,1.34.1.68.03,1.3.07,1.91.11l.91.06c.15.01.3.02.44.02l2.16.1.86.05,3.46.08,2.61-.03c.38-.01.83-.04,1.29-.07l.34-.02c.2-.01.43-.02.65-.02.2,0,.4,0,.58-.03,2.36-.45,4.7-.72,6.96-.99,1.25-.15,2.51-.29,3.77-.47.42-.06.9-.16,1.37-.25l.71-.15.72-.18c2.48-.61,5.04-1.29,8.32-2.22,3.17-.9,5.74-1.67,8.09-2.43l.83-.26.8-.28c.53-.19,1.07-.38,1.61-.59l.51-.21c.93-.38,1.81-.75,2.63-1.16l.65-.31c2.8-1.34,5.45-2.61,7.88-4.35.2-.15.43-.31.67-.47.24-.17.47-.33.7-.5,2.5-1.93,4.63-3.75,6.49-5.54.85-.82,1.71-1.64,2.57-2.45,1.72-1.62,3.34-3.15,4.91-4.79,2.23-2.33,4.29-4.98,6.18-7.48,2.53-3.36,4.63-6.48,6.43-9.53l1.1-1.87c.15-.25.27-.48.38-.71.14-.28.26-.54.37-.79.4-.92.8-1.84,1.2-2.76,1.4-3.21,2.85-6.53,4-9.82.15-.4.26-.72.38-1.05.09-.27.19-.54.28-.8.22-.6.44-1.2.67-1.8l.75-2.16c.14-.41.29-.81.4-1.22.01-.04.02-.08.03-.11,1.16-3.66,1.68-6.52,1.65-9-.01-.61,0-1.24.03-1.88,0-.61.03-1.23.06-1.85,0-.26.03-.55.05-.85.02-.28.04-.56.04-.84l.07-1.85c.06-2.44.11-5.7-.07-8.95l-.05-1.15ZM228.56,158.65c-.78,2.72-2.26,5.11-4.28,6.91-1.09.96-2.3,1.73-3.61,2.3-1.18.53-2.51.87-4.02,1.03-.04,0-.09,0-.13.01-.19.01-.37.03-.56.05l-.57.06c-.24.03-.5.07-.76.12-.62.12-1.25.29-1.79.43-1.3.35-2.59.4-3.73.43l-.65.02c-.18,0-.36.01-.53.01-2.5,0-4.42-.76-6.12-1.43-.21-.08-.42-.17-.64-.25-.07,0-.15,0-.23,0h-.03c-.5,0-1.21.06-1.96.12-1,.08-2.13.17-3.27.17-.32,0-.63,0-.94-.02-.68-.03-1.36-.09-2.03-.15l-.91-.07c-.3.01-.59.03-.89.04-.65.04-1.31.07-1.96.07-.21,0-.42,0-.64-.01-2.02-.07-4.09-.2-6.16-.38-2.19-.19-4.37-.22-6.03-.22-.97,0-1.94,0-2.91.02-.78,0-1.56.01-2.33.02-.67,0-1.24-.09-1.7-.15-.19-.03-.39-.07-.58-.07-.29-.01-.58-.02-.88-.02-.31,0-1.73.02-1.73.02-.68,0-1.36.02-2.05.04-.83.02-1.67.05-2.5.05-.63,0-1.26-.01-1.88-.05-1.29-.07-2.58-.11-3.82-.11-.36,0-1.89.02-2.29.02-.54,0-3-.02-3-.02-.11,0-.44.1-.66.16-.23.07-.47.13-.72.19l-.53.1c-.11.02-.18.03-.36.05,0,0-.17.02-.17.02-.28.03-.56.06-.84.06s-.53-.02-.79-.06l-.69-.09s-.09-.01-.13-.02c-1.11-.19-2.24-.54-3.35-1.03-1.5-.67-2.92-1.6-4.12-2.7-1.24-1.14-2.27-2.62-2.95-4.28-.19-.46-.33-.85-.43-1.23l-.1-.36c-.02-.07-.04-.14-.05-.21l-.24-1.1c-.04-.2-.07-.41-.08-.62-.01-.27,0-.54.02-.81,0-.03.03-.44.03-.44.01-.17.03-.27.04-.36l.05-.4c.35-2.34.39-4.51.15-6.65-.19-1.63,0-3.21.2-4.25.28-1.49.26-3.12.25-4.84v-.97c-.01-1.38-.04-2.76-.06-4.14-.02-1.35-.05-2.7-.06-4.05-.01-2.14,0-4.42.06-6.97,0-.41,0-.83.01-1.25,0-1.51.02-3.08.27-4.68.11-.68.17-1.41.24-2.18.11-1.26.22-2.56.54-3.94.26-1.12.13-2.32-.33-3.25-.69-.94-.8-1.86-.76-2.5.04-.61,0-1.29-.03-2.01-.07-1.26-.14-2.68.14-4.23.02-.14.07-.57-.04-1.46-.22-1.74-.09-3.28.07-4.97l.05-.89c.01-.76.24-1.32.35-1.56,0,0,.19-.48.19-.48.07-.17.14-.35.21-.52l.24-.51c.08-.18.16-.35.25-.53.15-.32.3-.6.46-.89,0,0,.2-.37.21-.4.82-1.46,2.01-2.73,3.44-3.67,1.47-.97,3.15-1.57,4.86-1.72l.3-.03c.54-.06,1.16-.12,1.84-.12.17,0,.33,0,.5.01,2.29.14,4.49.87,6.4,2.12.37.23.78.53,1.25.91.07.05.23.19.39.33l.27.24c.4.37.64.67.8.87,0,0,.12.15.14.18.18.23.28.38.41.56l.33.47.62.91c.24.36.47.73.68,1.11l.15.27.18.35c.18.36.3.64.42.93,0,0,.26.68.27.69.13.36.21.75.22,1.13,0,0,0,.29,0,.29,0,.22.01.45.01.67v1.03s-.02.72-.02.72c-.02.96-.03,1.87,0,2.76,0,.14,0,.28,0,.43.55,2.19.37,4.25.21,6.08l-.02.22c-.02.27,0,.7.04,1.09.24,3.29.01,6.59-.69,9.83-.26,1.21-.43,2.28-.51,3.26-.05.64-.13,1.28-.22,1.91-.14,1.03-.25,1.92-.2,2.74.01.19.02.39.02.58,0,.07,0,.13,0,.2l.11,1.16c.11,1.12.21,2.17.36,3.2.25,1.8.19,3.46.12,5.06l-.03.89c-.03.87,0,1.77.03,2.73.02.76.05,1.52.04,2.28l-.02,1.83s0,.27,0,.3v.11c.05.26.13.49.25.66.02.04.08.12.09.13.37.14.73.23,1.11.28.07,0,.34.02.34.02h-.03s2.72.04,2.72.04c1.12.01,2.19.17,3.14.3.37.05.74.11,1.1.15.77.09,1.57.18,2.25.18.55,0,.98-.06,1.34-.18,1.52-.54,2.98-.63,4.26-.71l.29-.02c1.56-.1,3.2-.15,5.14-.15,1.53,0,3.06.03,4.59.06.54.01,1.01.08,1.38.13,0,0,.69.09.86.12.16.02.33.06.49.06.97.02,1.94.03,2.91.03,1.97.02,4.01.03,6.04.14.7.04,1.39.07,2.08.07.86,0,1.61-.05,2.28-.15.27-.04.55-.06.84-.06.17,0,.35,0,.53.02l1.03.03c1.38.04,2.76.07,4.13.13.67.03,1.27.13,1.78.23.34.06.64.1.91.1s.53-.03.76-.1c1.07-.32,2.19-.54,3.31-.65l.39-.03.29-.02.9-.03s.46,0,.47,0c.53,0,1.11.12,1.59.34.02,0,.1.04.12.05.35.17.7.35,1.05.53l.48.26.38.22c.09.05.15.09.23.12.03.02.07.03.1.05.15.06.41.17.72.35l.58.31c.21.11.43.24.64.38l.14.08c1.28.81,2.35,1.84,3.16,3.04.76,1.11,1.36,2.46,1.71,3.87.28,1.12.42,2.28.41,3.44,0,1.13-.17,2.35-.5,3.52Z"/>
</svg>