<?xml version="1.0" encoding="UTF-8"?>
<svg id="Layer_11" data-name="Layer 11" xmlns="http://www.w3.org/2000/svg" viewBox="0 0 314.01 288">
  <defs>
    <style>
      .cls-1 {
        fill: #737438;
      }
    </style>
  </defs>
  <path class="cls-1" d="M150.94,134.45c1.37-1.44,2.64-3.06,3.8-4.6,1.55-2.07,2.85-3.99,3.95-5.86l.67-1.15c.09-.15.17-.29.23-.44.09-.17.16-.33.23-.49.24-.57.49-1.13.74-1.7.86-1.97,1.75-4.02,2.46-6.04.09-.25.16-.45.23-.64.06-.16.11-.33.17-.49.13-.37.27-.74.41-1.11l.46-1.33c.09-.25.18-.5.25-.75,0-.02.01-.05.02-.07.71-2.25,1.03-4.01,1.01-5.54,0-.38,0-.76.02-1.15,0-.38.02-.75.03-1.14,0-.16.02-.34.03-.52.01-.17.02-.35.03-.52l.04-1.14c.04-1.5.07-3.5-.04-5.51l-.03-.71s-.08-1.04-.09-1.22c-.02-.27-.04-.54-.06-.81l-.15-1.43c-.03-.29-.07-.56-.11-.83-.03-.18-.05-.36-.07-.54-.04-.27-.07-.56-.09-.85,0,0-.14-1.14-.16-1.31-.04-.34-.08-.67-.14-.94l-.28-1.34c-.05-.23-.12-.5-.19-.78l-.27-1.06-.53-1.86-.6-1.86-.66-1.87-.46-1.2c-.84-2.16-1.61-3.76-2.49-5.16-.14-.22-.26-.45-.38-.69-.06-.11-.12-.23-.18-.34l-.76-1.36c-.14-.25-.3-.5-.45-.76l-.66-1.09-.81-1.24c-.14-.22-.25-.38-.36-.55-.35-.51-.64-.98-.91-1.43-.27-.44-.61-.92-1.05-1.48-.32-.39-.71-.81-1.17-1.24-1.42-1.27-2.95-2.74-4.77-4.58-.22-.22-.51-.48-.87-.78-.22-.18-.49-.37-.74-.57l-.79-.6-.49-.36c-.36-.27-.71-.54-1.06-.8l-1.53-1.12-.51-.35c-.3-.2-.61-.41-.92-.61-.19-.12-.39-.24-.6-.36l-.65-.39c-.19-.11-.38-.23-.57-.33l-1.2-.66c-.12-.06-.23-.13-.35-.19l-.98-.49c-.25-.13-.51-.25-.76-.37l-.42-.19c-.68-.31-1.33-.59-1.99-.85-.02,0-.04-.02-.06-.03-.48-.2-.96-.39-1.45-.58-.35-.14-.7-.27-1.05-.41l-1.24-.47-.67-.27-.61-.22c-.36-.14-.71-.26-1.06-.37-.36-.1-.72-.2-1.08-.29l-.58-.14c-.07-.01-.5-.09-.5-.09-.38-.07-.77-.14-1.16-.2-.67-.1-1.39-.24-2.1-.4-.3-.06-.59-.11-.89-.17-.38-.08-.77-.15-1.15-.22-1.76-.29-3.21-.67-4.62-1.04-.82-.21-1.6-.42-2.42-.6-.84-.2-1.42-.36-1.91-.58-.14-.02-.37-.03-.66-.03-.22,0-.37.01-.44.02-.6.23-1.31.42-2.15.57-.42.08-.88.16-1.4.22-.24.03-.49.06-.76.08-.26.03-.53.06-.82.09l-.81.07c-.16.01-.3.03-.43.04l-.75.08c-.36.04-.71.07-1.06.13l-.11.02c-.13.02-.27.04-.4.06-.44.08-.84.18-1.25.27-.21.05-.41.1-.62.15-.21.05-.4.1-.59.14l-.33.08c-.33.08-.67.17-1.01.24-2.18.52-4.42,1.2-6.65,2-3.9,1.4-7.75,3.49-11.75,6.39-.25.18-.52.37-.8.55l-.44.29c-.29.19-.58.39-.86.6-.3.23-.6.48-.91.73l-.33.27c-.23.19-.47.4-.71.61-.17.15-.35.31-.52.46-1.73,1.53-3.35,3.25-5.13,5.18-1.37,1.47-2.63,3.03-3.77,4.64-.01.02-.02.03-.04.05-.14.18-.26.37-.39.56-.1.15-.2.29-.3.44l-.15.22c-.17.25-.34.49-.5.75l-.7,1.06-.65,1.06c-.07.12-.14.23-.2.35-.06.12-.12.24-.18.36-.13.28-.25.57-.38.87l-.14.34c-.12.29-.24.58-.38.87l-.54,1.14c-.18.38-.36.77-.55,1.15l-.51,1.13c-.17.36-.31.72-.45,1.07l-.17.42c-.16.38-.3.77-.44,1.19l-.1.29c-.66,1.94-1.27,3.89-1.98,6.2-.84,2.71-1.3,5.54-1.37,8.42-.01.74-.04,1.4-.09,1.99-.02.52-.06,1.03-.11,1.53l-.03.42c-.17,2.08-.06,4.35.37,7.38.25,1.73.54,3.26.89,4.66l.14.6.27,1.01c.06.24.13.48.19.72l.18.6c.16.56.33,1.11.51,1.66.86,2.63,1.86,5.15,2.98,7.52.64,1.32,1.38,2.67,2.09,3.98.33.6.65,1.19.96,1.77.79,1.46,1.75,2.87,2.76,4.35.34.5.68,1,1.02,1.5.16.23.32.46.49.7.13.18.29.37.45.56l.05.06c.4.46.74.85,1.09,1.17.23.22.44.41.66.59l.3.26c.08.06.16.12.25.19.45.33.83.58,1.18.79.21.09.55.24.87.55.35.34.77.73,1.2,1.1l1.33,1.08.41.31c.33.25.66.51.99.77l.34.28.32.25c.27.21.52.42.77.63.13.11.29.24.45.36.17.12.36.25.56.38.2.13.41.27.61.39l.27.17.29.16c.46.25.92.52,1.37.8.28.17.56.34.85.5l1.12.68,1.06.61c.53.32,1.08.59,1.7.88.55.27,1.15.49,1.77.7.29.1.56.19.84.28.2.07.41.13.62.2.21.07.43.15.65.22.27.09.54.19.81.28.53.17,1.02.35,1.52.53l.09.03c.49.17,1.03.36,1.57.56.21.08.45.15.7.22l.33.09c.24.07.48.14.72.21.31.1.59.17.87.24l1.28.33c.55.13,1.15.25,1.75.37l.37.07.41.07c.58.09,1.17.19,1.75.26l1.27.13c.28.03.55.05.83.06.42.02.8.04,1.18.07l.56.04c.09,0,.18,0,.27.01l1.33.06.53.03,2.13.05,1.6-.02c.23,0,.51-.02.79-.04h.21c.13-.02.26-.02.4-.03.12,0,.25,0,.36-.02,1.45-.28,2.89-.45,4.28-.61.77-.09,1.54-.18,2.32-.29.26-.04.55-.1.84-.16l.44-.09.45-.11c1.53-.37,3.1-.79,5.12-1.37,1.95-.55,3.53-1.03,4.98-1.5l.51-.16.49-.17c.33-.12.66-.24.99-.36l.31-.13c.57-.24,1.11-.46,1.62-.71l.4-.19c1.73-.83,3.35-1.61,4.85-2.68.12-.09.27-.19.41-.29.15-.1.29-.2.43-.31,1.53-1.19,2.85-2.31,3.99-3.41.52-.51,1.05-1.01,1.58-1.51,1.06-1,2.05-1.94,3.02-2.94ZM146.93,112.16c-.12,0-.23.02-.34.03l-.35.04c-.14.02-.31.04-.46.07-.38.07-.77.18-1.1.27-.8.22-1.59.24-2.29.27l-.4.02c-.11,0-.22,0-.33,0-1.54,0-2.72-.47-3.76-.88-.13-.05-.26-.1-.39-.15-.04,0-.09,0-.14,0h-.02c-.31,0-.75.03-1.21.07-.61.05-1.31.11-2.01.11-.19,0-.39,0-.58-.01-.42-.02-.83-.06-1.25-.09l-.56-.05c-.18,0-.36.02-.54.03-.4.02-.8.04-1.2.04-.13,0-.26,0-.39,0-1.24-.05-2.52-.12-3.79-.24-1.35-.12-2.69-.13-3.71-.13-.6,0-1.19,0-1.79.01-.48,0-.96,0-1.43.01-.41,0-.76-.05-1.04-.09-.12-.02-.24-.04-.36-.05-.18,0-.36-.01-.54-.01-.19,0-1.06.01-1.06.01-.42,0-.84.02-1.26.03-.51.01-1.03.03-1.53.03-.39,0-.77,0-1.16-.03-.8-.04-1.59-.07-2.35-.07-.22,0-1.16.01-1.41.01-.33,0-1.85-.01-1.85-.01-.07,0-.27.06-.41.1-.14.04-.29.08-.44.11l-.32.06c-.07.01-.11.02-.22.03,0,0-.11.01-.11.01-.17.02-.34.04-.51.04s-.33-.01-.48-.04l-.42-.05s-.06,0-.08-.01c-.68-.12-1.38-.33-2.06-.63-.92-.41-1.8-.98-2.53-1.66-.77-.7-1.4-1.61-1.82-2.63-.12-.28-.2-.52-.27-.76l-.06-.22s-.02-.08-.03-.13l-.15-.68c-.03-.12-.04-.25-.05-.38,0-.16,0-.33.02-.5,0-.02.02-.27.02-.27,0-.11.02-.16.02-.22l.03-.24c.21-1.44.24-2.77.09-4.09-.12-1,0-1.97.12-2.61.17-.92.16-1.92.15-2.98v-.59c0-.85-.02-1.7-.04-2.55-.02-.83-.03-1.66-.04-2.49,0-1.31,0-2.72.03-4.29,0-.25,0-.51,0-.77,0-.93.01-1.9.17-2.88.07-.42.1-.87.15-1.34.07-.77.14-1.57.33-2.42.16-.69.08-1.43-.2-2-.43-.58-.49-1.15-.47-1.54.03-.37,0-.79-.02-1.24-.04-.77-.09-1.65.08-2.6.02-.09.04-.35-.02-.9-.13-1.07-.06-2.02.04-3.06l.03-.55c0-.47.15-.81.21-.96,0,0,.12-.3.12-.3.04-.11.08-.21.13-.32l.14-.32c.05-.11.1-.22.16-.32.09-.2.19-.37.28-.55,0,0,.12-.22.13-.24.51-.9,1.24-1.68,2.12-2.26.91-.6,1.94-.96,2.99-1.06l.18-.02c.33-.04.71-.08,1.13-.08.1,0,.2,0,.31,0,1.41.08,2.76.54,3.94,1.31.22.14.48.33.77.56.04.03.14.12.24.2l.16.15c.24.23.39.41.49.54,0,0,.07.09.09.11.11.14.17.23.26.34l.2.29.38.56c.15.22.29.45.42.68l.09.16.11.22c.11.22.19.4.26.57,0,0,.16.42.16.42.08.22.13.46.14.7,0,0,0,.18,0,.18,0,.14,0,.28,0,.42v.64s-.01.44-.01.44c0,.59-.02,1.15,0,1.7,0,.09,0,.17,0,.26.34,1.35.23,2.61.13,3.74v.14c-.03.16,0,.43.01.67.15,2.02,0,4.06-.42,6.04-.16.75-.26,1.4-.31,2-.03.39-.08.78-.13,1.18-.08.63-.16,1.18-.12,1.68,0,.12.01.24.01.36,0,.04,0,.08,0,.12l.07.71c.07.69.13,1.33.22,1.97.16,1.11.12,2.13.08,3.11l-.02.54c-.02.53,0,1.09.02,1.68.01.47.03.94.03,1.41v1.13s0,.17,0,.19v.07c.03.16.08.3.15.41.02.02.05.08.05.08.23.09.45.14.69.17.04,0,.21.01.21.01h-.02s1.67.02,1.67.02c.69,0,1.35.1,1.93.19.23.03.45.06.68.09.47.06.96.11,1.39.11.34,0,.61-.04.82-.11.94-.33,1.83-.39,2.62-.43h.18c.96-.07,1.97-.1,3.16-.1.94,0,1.88.02,2.83.04.33,0,.62.05.85.08,0,0,.42.06.53.07.1.01.2.03.3.04.59.01,1.19.02,1.79.02,1.21,0,2.47.02,3.72.08.43.02.86.04,1.28.04.53,0,.99-.03,1.4-.09.17-.02.34-.04.52-.04.11,0,.22,0,.32,0l.63.02c.85.02,1.7.05,2.54.08.41.02.78.08,1.1.14.21.04.4.06.56.06s.32-.02.47-.06c.66-.2,1.35-.33,2.04-.4l.24-.02h.18s.55-.03.55-.03c0,0,.28,0,.29,0,.32,0,.68.07.98.21.01,0,.06.03.07.03.21.1.43.21.64.33l.29.16.24.14c.05.03.09.05.14.07.02,0,.04.02.06.03.09.04.25.1.44.21l.36.19c.13.07.26.15.4.23l.08.05c.79.5,1.45,1.13,1.94,1.87.47.68.84,1.51,1.05,2.38.17.69.26,1.4.25,2.11,0,.69-.1,1.45-.31,2.16-.48,1.67-1.39,3.14-2.63,4.25-.67.59-1.41,1.06-2.22,1.41-.73.33-1.54.54-2.48.64-.03,0-.05,0-.08,0Z"/>
  <path class="cls-1" d="M313.94,236.38c-.1-2.72-.32-5.43-.58-8.13-.52-5.4-1.22-10.76-1.58-16.18-.3-4.52-.79-9.03-.9-13.56-.13-5.16-.02-10.31-.77-15.41-.39-2.65-.83-5.49-.6-8.11.57-6.71,0-13.06-1.72-19.17-1.13-4-1.05-7.97-.33-12.06.26-1.46.5-2.96.56-4.46.21-5.92.35-11.85.5-17.77.03-1.07.14-2.17,0-3.19-.82-6-.68-11.95-.38-18.08.51-10.47.37-21.01.56-31.52.03-1.63.34-3.25.52-4.88.18-1.64.49-3.27.52-4.91l.14-8.42.04-4.21c0-.16,0-.4,0-.6v-.62s-.04-1.24-.04-1.24c-.06-.83-.11-1.66-.2-2.48-.73-6.61-3.09-13.06-6.87-18.43-1.46-2.1-3.07-4.08-4.91-5.77-1.83-1.69-3.88-3.09-6.09-4-3.23-1.31-6.19-2.82-9.28-4.24-3.07-1.43-6.24-2.83-9.6-3.79-2.46-.72-5.03-1.3-7.62-1.59-2.31-.29-4.62-.52-6.93-.54-5.01-.04-10.05-.21-15.07-.04-3.97.07-7.94.32-11.87.97-.44.07-.89.12-1.35.15-1.48-.01-2.99-.11-4.47-.13-7.15-.1-14.3-.33-21.45-.34-2.3,0-4.61.05-6.91.12-1.31.03-2.61.07-3.92.11-2.48.06-4.95.09-7.42.02-4.65-.14-9.25-.42-13.88-.23-2.35.03-4.71.17-7.07.48-5.32.71-10.72,1.12-16.1,1.64-.17.02-.34.02-.52.03-.23,0-.45.01-.68.03-.66.01-1.32.01-1.98.05-.15,0-.3.01-.45.02-5.45,0-10.71-1.07-16.09-1.48-4.5-.34-8.98-1.05-13.31-1.93C106.8.67,97.64-.1,88.28.24c-1.92.04-3.85.12-5.79.25-.71.05-1.42.1-2.13.13-.63,0-1.25-.02-1.86-.07-4.09-.33-8.16-.7-12.19-.5-3.03.03-6.03.31-9.02,1.13-.09.03-.2.04-.3.05-.32-.01-.63-.02-.94,0-2.16.07-4.32.08-6.48.06l-1.62-.02h-.82s-.97,0-.97,0c-.59,0-1.18.02-1.77.05h-.17c-1.29,0-2.58.09-3.87.2-5.14.5-10.24,2.01-14.69,4.61-4.64,2.71-8.85,6.02-12.51,9.87-3.66,3.85-6.77,8.27-9.05,13.15-1,2.11-1.61,4.44-2.4,6.57-.16.45-.32.9-.47,1.36-.14.46-.26.92-.38,1.39-.26.93-.41,1.88-.57,2.82-.14.95-.22,1.91-.28,2.86-.01.48-.02.95-.03,1.43v.7s.02.59.02.59c.13,3.16.5,6.27,1.05,9.26.8,4.35.72,8.39.35,12.46-.45,5-.83,9.85-.23,14.91.34,2.86.51,6.04.09,8.83-.01,1.7-.04,3.4.02,5.1.11,3.02.86,5.68,1.63,8.54.13.49.14,1.01.14,1.51.02,1.74.04,3.48.06,5.22,0,.32,0,.64.11.94.09.26.24.5.39.73,3.87,6.09,4.33,14.62,2.88,21.5-1.11,5.28-1.32,10.64-1.8,15.95-.13.64-.26,1.27-.4,1.9-.29,1.32-.56,2.64-.8,3.97-.06.58-.11,1.15-.16,1.73-1.31,13.79-2.09,27.52-1.97,41.46.08,9.74.41,19.48.48,29.23.03,3.87.13,7.74.05,11.6-.02,2.17.04,4.43.22,6.65.19,2.23.47,4.46.82,6.73.35,2.11.97,4.33,1.88,6.43.91,2.1,2.13,4.08,3.52,5.74,3.5,4.17,7.39,7.76,11.66,10.84,4.27,3.08,8.92,5.65,13.99,7.6l1.38.48.7.23.71.2,1.43.38c.48.11.96.2,1.45.3.97.21,1.95.31,2.94.44.49.06.99.08,1.48.11l.74.04.37.02h.31c.97.04,1.94.06,2.91.06,2.05.02,4.11-.02,6.18-.1.89-.03,1.77-.06,2.66-.1.36-.02.73-.03,1.09-.04.79-.02,1.58-.03,2.38-.04,1.53,0,3.07.01,4.6.05,1.96.04,3.94.12,5.9.13.47,0,.94,0,1.4,0,.02-.02.03-.04.05-.06,3.19.04,6.36-.07,9.42-.76,2.05-.46,3.94-.87,6.12-.78,4.99.2,9.99.43,14.99.45,6.19.03,12.33.2,18.52.53,7.37.39,14.85-.18,22.29-.34,3.32-.07,6.65-.24,9.97-.18.27,0,.55.02.82.04-.05.05-.1.11-.15.16,1.82.19,3.64.49,5.44.44,2.47-.07,4.94-.15,7.41-.24,2.2-.08,4.4-.16,6.6-.24,7.45-.26,14.89-.47,22.36-.28-.02-.03-.04-.05-.06-.08,2.19.04,4.38.11,6.58.22,2.05.11,4.11.2,6.17.28.03.04.05.07.08.11,4.53.16,9.06.27,13.59.3,1.1,0,2.19-.02,3.29-.07,3.03-.08,6.07-.37,9.11-.56.36,0,.71.03,1.07.05,3.17.17,6.34.4,9.51.51.38.01.75.01,1.12.01-.09-.03-.17-.05-.25-.08-.01,0-.02,0-.03-.01.2,0,.41.02.61.03,4.09.13,7.35-.39,9.93-1.37.82.02,1.62.17,2.44.23,1.36.11,2.77-.34,4.15-.42,1.59-.09,3.18-.02,4.76.2.29.04.59.09.88.05.25-.04.49-.14.73-.2,1.17-.31,2.33.16,3.49.25,1.25.1,2.54.09,3.8.09.05,0,.09,0,.14,0,.8,0,1.6-.02,2.4-.06,2.55-.04,5.13-.31,7.75-.96,1.11-.25,2.19-.62,3.31-1.01,1.08-.44,2.2-.9,3.27-1.49,2.17-1.15,4.29-2.65,6.24-4.59,2.01-1.98,3.96-4.14,5.61-6.46,1.66-2.32,3-4.81,3.8-7.29,1.02-3.12,1.75-6.25,2.33-9.38.58-3.13,1.02-6.26,1.42-9.48.13-.89.18-1.78.23-2.67.05-.98.06-1.56.06-2.27.01-1.37-.01-2.74-.07-4.1ZM145.44,156.82l-1.37.82c-.31.2-.66.39-1.02.59l-1.4.78c-.31.17-.61.32-.9.47-.2.1-1.31.68-1.31.68-.16.09-.35.18-.54.27l-1.71.82c-.38.18-.75.33-1.11.49l-1.21.52c-.2.08-.4.16-.61.24l-.22.08c-.53.2-1.06.39-1.58.58-.53.18-1.02.33-1.51.48l-.98.29c-.26.07-.48.12-.7.18l-.21.05c-.48.11-.94.23-1.39.36-.23.06-.44.12-.66.17-.26.07-.51.13-.77.2l-.71.2c-.24.07-.51.15-.78.21l-1.38.37c-1.66.44-3.54.67-5.33.86h-.07c-.2.03-.4.05-.6.07l-.66.04c-.44.02-.84.03-1.23.04-.12,0-.23,0-.35,0-.65,0-1.23-.07-1.73-.13l-.33-.04c-.94-.12-1.82-.25-2.71-.39-.43-.07-.87-.13-1.31-.2-.64-.09-1.83-.16-3.21-.23-2.11-.12-4.73-.26-7.11-.6-.03,0-.06,0-.08-.01-1.37-.25-2.66-.56-3.85-.85l-.21-.05c-.14-.04-.27-.07-.41-.1-1.43-.31-3.09-.69-4.73-1.21-1.39-.45-2.78-.96-4.14-1.5-1.28-.51-2.59-1.1-4.01-1.79-5.6-2.75-10.31-5.65-14.4-8.88-.58-.45-1.09-.93-1.59-1.4-.25-.23-.5-.46-.75-.69l-.39-.36c-.86-.77-1.74-1.57-2.6-2.4-2.69-2.62-4.59-4.73-6.17-6.85-1.46-1.94-2.85-3.99-4.25-6.24-1.03-1.67-2-3.44-2.96-5.43-.17-.34-.34-.67-.52-.99l-.58-1.03c-1.07-1.87-1.86-3.99-2.48-5.81-.51-1.5-.91-2.73-1.26-3.87-.83-2.71-1.4-5.41-1.67-8.03-.05-.44-.09-.9-.14-1.36l-.02-.24c-.02-.16-.03-.32-.04-.48l-.07-1.19c-.02-.31-.04-.61-.05-.89-.02-.37-.05-.75-.09-1.13-.04-.37-.09-.71-.15-1.02l-.07-.32c-.03-.14-.05-.27-.05-.41,0-.06,0-.61,0-.61,0-.18,0-.38,0-.58-.01-.71-.05-1.51-.12-2.51-.12-1.73-.09-3.48.09-4.93.05-.39.1-.76.15-1.12l.06-.56.08-.6.13-1.12.15-1.16.07-.56.25-1.74.29-1.75.12-.62c.74-3.98,1.81-7.86,3.19-11.52.53-1.42,1.16-2.89,1.97-4.64.69-1.46,1.48-2.96,2.35-4.47,1.69-2.92,3.08-4.98,4.52-6.71l.22-.26c1.74-2.08,3.54-4.22,5.67-6.07.77-.69,1.95-1.76,3.04-2.86.48-.47.9-.93,1.32-1.38l.11-.12c.4-.45.82-.91,1.18-1.35.13-.2.34-.52.73-.8.41-.31.84-.64,1.28-.97,1.79-1.38,3.64-2.8,5.79-3.92.22-.12.45-.24.68-.38.28-.16.53-.3.77-.44l.62-.37c.31-.18.61-.36.9-.54,1.62-.98,3.37-1.82,5.67-2.73,1.55-.61,2.97-1.17,4.5-1.84.47-.22.98-.42,1.47-.61l.28-.11c.56-.21,1.13-.41,1.89-.66,1.48-.46,2.77-.78,3.99-1,.34-.07.73-.15,1.12-.23.38-.08.76-.16,1.13-.24,3.27-.6,6.75-1.04,10.97-1.38,1.1-.09,2.24-.13,3.48-.13.64,0,1.29.01,1.93.03,1.73.05,3.41.19,5.27.36.19.02.36.04.53.06.2.02.44.06.55.06,3.01.05,5.93.77,8.15,1.39.7.19,1.47.39,2.21.57,4.29,1.1,8.36,2.82,12.13,5.12,1.28.77,2.58,1.62,3.83,2.43l.67.43c1.42.93,2.73,1.94,4,2.91.65.5,1.3,1,1.97,1.49.17.13.32.25.48.37.17.13.33.26.5.39,1.56,1.16,3.16,2.47,5.07,4.14.62.54,1.08.97,1.5,1.39l.66.66c.18.18.35.36.51.54l.18.2c.92.98,1.76,2,2.54,2.95.9,1.1,1.62,2.01,2.29,2.87.92,1.21,1.6,2.15,2.2,3.06,1.6,2.41,3.07,4.97,4.36,7.62.14.29.29.61.43.93.08.17.15.34.23.51.22.49.42.91.62,1.31,1.39,2.69,2.52,5.79,3.55,9.73.48,1.84.74,3.66,1,5.67.12.88.21,1.76.31,2.65.17,1.58.33,3.07.61,4.49.1.52.17.95.22,1.36.05.49.09.93.12,1.38.06.74.07,1.49.08,2.22v.48c.01,2.56-.11,4.83-.38,6.98-.29,2.44-.67,4.68-1.16,6.82-.08.35-.16.71-.27,1.07l-.29.95c-.11.39-.24.79-.36,1.19l-.2.67s-.44,1.51-.44,1.53c0,0-.73,2.28-.74,2.3l-.44,1.22c-.12.34-.24.67-.36,1.01l-.69,1.74c-.07.18-.14.37-.22.54l-.51,1.16c-.15.34-.3.69-.46,1.03l-.7,1.43c-.19.39-.4.8-.61,1.2l-.43.82c-.22.43-.45.86-.68,1.28l-.82,1.53c-.3.53-.57,1.04-.84,1.54-.18.35-.4.68-.6.97l-.67,1.02c-.17.27-.36.54-.55.81l-1,1.42c-.26.36-.51.68-.75,1l-.35.46c-.32.44-.67.86-1,1.27l-.14.17c-.48.59-.91,1.07-1.33,1.48-.36.36-.71.75-1.06,1.14-.17.19-.34.37-.51.55-.43.48-.86,1.02-1.32,1.59l-.09.11c-.18.23-.37.48-.58.73-.22.27-.45.55-.69.82-.41.46-.86.94-1.32,1.41-.02.02-.03.03-.05.05-.47.46-.96.91-1.47,1.37-.22.21-.49.42-.75.64l-.08.07c-.27.22-.54.43-.81.65-.11.09-.2.16-.3.24-.1.09-.21.17-.31.25-.18.15-.38.31-.57.47l-.7.6c-.19.17-.39.34-.58.49-.8.65-1.64,1.33-2.59,1.96l-.18.13c-.36.25-.73.5-1.09.74l-1.35.85-.56.36c-.13.08-.27.17-.41.25ZM272.86,209.2c-.04.71-.15,1.5-.33,2.23-.18.74-.46,1.45-.81,2.14-.29.55-.66,1.08-1.12,1.53-.23.22-.48.43-.74.61-.06.05-.16.11-.23.14l-.2.1-.4.2-.82.4-.28.14c-.1,0-.21,0-.31,0h-.47s-1.74,0-1.74,0c-2.32-.01-4.64-.03-6.95-.04-2.7-.03-5.33-.04-7.98.04-.45.01-.94,0-1.41,0-2.61-.02-5.23-.03-7.84-.05-.66,0-1.32-.03-1.97-.05-.9-.03-1.79-.05-2.67-.05-.44,0-.88,0-1.32.02-.44.01-.89.03-1.28.08-1.23.19-2.39.79-3.24,1.71-.85.92-1.4,2.16-1.43,3.49-.03,1.14.02,2.41.05,3.57.07,2.25.06,4.52.07,6.8.01,2,.06,3.99.08,5.98.07,4.78.27,9.47.2,14.36,0,.56,0,1.11,0,1.65,0,.56.02,1.12.03,1.68,0,.13,0,.25-.04.37-.04.12-.04.25-.1.36l-.16.34c-.06.11-.13.19-.18.27-.22.3-.44.53-.67.75-.45.43-.92.79-1.41,1.13-.78.53-1.69,1-2.69,1.33-.25.09-.51.15-.77.23-.27.05-.54.12-.82.15-.6.08-1.02.09-1.51.12-3.66.19-6.38-.05-9.36-.24-2.02-.14-2.64-.34-2.94-.61-.03-.02-.09-.05-.16-.07-.14,0-.28,0-.42,0-.17,0-.32,0-.49,0-.31.15-.78.29-1.44.4-1.26.2-3.21.33-6.1.19-1.41-.07-2.81-.18-4.23-.36-.26-.04-.53-.07-.79-.11-.22-.03-.44-.06-.69-.11-.05-.01-.14-.03-.21-.05l-.21-.07c-.14-.05-.24-.11-.36-.16-.45-.23-.83-.48-1.2-.76-.74-.55-1.4-1.15-2.01-1.87-.14-.16-.27-.34-.4-.52l-.09-.15c-.03-.05-.08-.13-.12-.19-.06-.14-.16-.28-.2-.43,0-.15,0-.32,0-.47v-.29s0-.59,0-.59v-2.35c.03-1.57.04-3.13.05-4.69.07-6.11-.02-12.19-.05-18.29,0-1.1.05-2.22.06-3.34,0-.73,0-1.47,0-2.2v-1.1c0-.32-.04-.64-.1-.96-.14-.71-.44-1.38-.86-1.96-.1-.15-.22-.28-.34-.42-.06-.07-.12-.13-.19-.19l-.22-.21-.44-.43c-.13-.12-.26-.24-.41-.35-.56-.44-1.22-.76-1.91-.93-.35-.08-.7-.13-1.05-.14-.4,0-.8,0-1.2-.01-2.73-.03-5.44-.05-8.17-.05-2.21-.01-4.41-.03-6.62-.04-.96,0-1.8.03-2.7.07-2.11.1-4.34.07-6.55.06-1.47,0-2.95,0-4.41,0-.73,0-1.45,0-2.17.01h-1.08s-.61,0-.61,0c-.07,0-.15,0-.22-.01-.07,0-.14-.05-.21-.07-.14-.05-.28-.1-.41-.19-.46-.29-.71-.57-.98-.88-.27-.3-.49-.61-.71-.93-.42-.64-.78-1.3-1.08-1.99-.41-.96-.73-1.98-.82-3.08-.06-1.01-.1-2-.14-2.99-.07-1.99-.14-3.98-.21-6-.05-1.6-.04-3.4.04-4.99.16-3.4.18-6.82.43-10.25.09-1.09.16-2.15.41-3.29.04-.27.19-.62.33-.87.14-.26.3-.51.46-.74.33-.47.68-.9,1.06-1.31.38-.41.78-.81,1.24-1.17.12-.09.23-.18.37-.26.16-.11.34-.2.52-.29h.55s.4,0,.4,0h3.22c3.61,0,7.22,0,10.83,0,2.87,0,5.82-.02,8.57.07,3.06.1,6.19.09,9.26.23.39.01.8.04,1.2.04.39,0,.78-.04,1.16-.13.76-.18,1.49-.54,2.09-1.03.6-.49,1.07-1.11,1.36-1.78.3-.66.43-1.36.41-2,0-.16-.05-.31-.04-.43.05-3.03-.1-6.1.02-9.19.04-1.25.03-2.7,0-4-.06-2.23-.02-4.37.02-6.58.04-1.8.04-3.58-.03-5.5-.1-2.65-.14-5.47-.06-8.32.01-.16-.01-.33.03-.48.08-.14.15-.3.24-.43.08-.13.14-.22.22-.32.07-.1.14-.2.22-.29.3-.37.61-.71.94-1.02.38-.36.78-.7,1.21-1.02.44-.32.85-.61,1.48-.85.09-.04.18-.06.27-.07l.2-.03c.13-.02.26-.03.39-.05.26-.03.51-.06.76-.08.51-.05,1.01-.09,1.51-.13,2.01-.15,4.02-.25,6.02-.35,3.83-.2,7.66-.16,11.48-.12.47,0,1,.04,1.4.02,1.41-.04,2.83-.01,4.26.08.72.05,1.43.11,2.16.2.36.05.72.09,1.1.16.18.03.37.07.57.11.2.05.45.13.64.22.92.43,1.65.99,2.37,1.58.48.41.93.83,1.35,1.35.11.14.2.25.32.44.07.1.12.21.18.32l.08.16c.03.05.01.12.02.18v1.02c0,1.17,0,2.33-.02,3.48-.03,2.31-.1,4.59-.2,6.86-.08,1.91-.15,3.89-.18,5.87-.04,2.72-.17,5.37-.13,8.15,0,.47,0,.94.01,1.4.05,2.37.09,4.76.16,7.1.04,1.3.55,2.56,1.4,3.51.85.96,2.06,1.6,3.35,1.75.59.05,1.3.03,1.96.03h2.01c1.34-.01,2.69-.02,4.03-.03l9.47.03c1.14,0,2.35.03,3.42,0,3.65-.13,7.36-.09,11.04-.08l1.53.02.83.02h.13s.07,0,.07,0l.06.03.24.13c.16.1.28.18.39.26.87.69,1.54,1.48,2.16,2.34.21.3.4.6.57.93.08.17.16.34.23.53.06.19.08.36.12.54.08.36.12.7.16,1.05.05.35.08.69.12,1.04.14,1.38.24,2.73.4,4.05.21,1.8.27,3.73.32,5.66.11,4.96.06,9.93-.27,14.91Z"/>
</svg>