<?xml version="1.0" encoding="UTF-8"?>
<svg id="Layer_11" data-name="Layer 11" xmlns="http://www.w3.org/2000/svg" viewBox="0 0 314.01 288">
  <defs>
    <style>
      .cls-1 {
        fill: #737438;
      }
    </style>
  </defs>
  <path class="cls-1" d="M313.94,236.38c-.1-2.72-.32-5.43-.58-8.13-.52-5.4-1.22-10.76-1.58-16.18-.3-4.52-.79-9.03-.9-13.56-.13-5.16-.02-10.31-.77-15.41-.39-2.65-.83-5.49-.6-8.11.57-6.71,0-13.06-1.72-19.17-1.13-4-1.05-7.97-.33-12.06.26-1.46.5-2.96.56-4.46.21-5.92.35-11.85.5-17.77.03-1.07.14-2.17,0-3.19-.82-6-.68-11.96-.38-18.08.51-10.47.38-21.01.56-31.52.03-1.63.34-3.25.52-4.88.18-1.64.49-3.27.52-4.91l.14-8.42.04-4.21c0-.16,0-.4,0-.6v-.62s-.04-1.24-.04-1.24c-.06-.83-.11-1.66-.2-2.48-.73-6.61-3.09-13.06-6.87-18.44-1.46-2.1-3.07-4.08-4.91-5.77-1.83-1.69-3.88-3.09-6.09-4-3.23-1.31-6.19-2.82-9.28-4.24-3.07-1.43-6.24-2.83-9.6-3.79-2.47-.72-5.03-1.3-7.62-1.59-2.31-.29-4.62-.52-6.93-.54-5.01-.04-10.05-.21-15.07-.04-3.97.07-7.94.32-11.87.97-.44.07-.89.12-1.35.15-1.48-.01-2.99-.11-4.47-.13-7.15-.1-14.3-.33-21.45-.34-2.3,0-4.61.05-6.91.12-1.31.03-2.61.07-3.92.11-2.48.06-4.95.09-7.42.02-4.65-.14-9.26-.42-13.88-.23-2.35.03-4.71.17-7.08.48-5.32.7-10.72,1.12-16.1,1.64-.17.02-.34.02-.52.03-.23,0-.45.01-.68.03-.66.01-1.32.01-1.98.05-.15,0-.3.01-.45.02-5.45,0-10.71-1.07-16.09-1.48-4.5-.34-8.98-1.05-13.31-1.93C106.8.67,97.64-.1,88.28.24c-1.92.04-3.85.12-5.79.25-.71.05-1.42.1-2.13.13-.62,0-1.25-.02-1.86-.07-4.09-.33-8.16-.7-12.19-.5-3.02.03-6.03.31-9.02,1.13-.09.03-.2.04-.3.05-.32-.01-.63-.02-.94,0-2.16.07-4.32.08-6.48.06l-1.62-.02h-.82s-.97,0-.97,0c-.59,0-1.18.02-1.77.05h-.17c-1.29,0-2.58.09-3.87.2-5.14.5-10.24,2.01-14.69,4.61-4.64,2.71-8.85,6.02-12.51,9.87-3.66,3.85-6.77,8.27-9.05,13.15-1,2.11-1.61,4.44-2.4,6.57-.16.45-.32.9-.47,1.36-.14.46-.26.92-.38,1.39-.26.93-.41,1.88-.57,2.82-.14.95-.22,1.91-.28,2.86-.01.48-.02.95-.03,1.43v.7s.02.59.02.59c.13,3.16.5,6.27,1.05,9.26.8,4.35.72,8.39.35,12.46-.45,5-.83,9.85-.23,14.91.34,2.86.51,6.04.09,8.83-.01,1.7-.04,3.4.02,5.1.11,3.02.86,5.68,1.63,8.54.13.49.14,1.01.14,1.51.02,1.74.04,3.48.06,5.22,0,.32,0,.64.11.94.09.26.24.5.39.73,3.87,6.09,4.33,14.62,2.88,21.5-1.11,5.28-1.32,10.64-1.8,15.95-.13.64-.26,1.27-.4,1.9-.29,1.32-.56,2.64-.8,3.97-.05.58-.11,1.15-.16,1.73-1.31,13.79-2.09,27.52-1.97,41.46.08,9.74.41,19.48.48,29.23.03,3.87.13,7.74.05,11.6-.02,2.17.04,4.43.22,6.65.19,2.23.47,4.46.82,6.73.35,2.11.97,4.33,1.88,6.43.91,2.1,2.13,4.08,3.52,5.73,3.5,4.17,7.39,7.76,11.66,10.84,4.27,3.08,8.92,5.65,13.99,7.6l1.38.48.7.23.71.2,1.43.38c.48.11.96.2,1.45.3.97.21,1.95.31,2.94.44.49.06.99.08,1.48.11l.74.04.37.02h.31c.97.04,1.94.06,2.91.06,2.05.02,4.11-.02,6.18-.1.89-.03,1.77-.06,2.66-.1.36-.02.73-.03,1.09-.04.79-.02,1.58-.03,2.38-.04,1.53,0,3.07.01,4.6.05,1.96.04,3.94.12,5.9.13.47,0,.94,0,1.4,0,.02-.02.03-.04.05-.06,3.19.04,6.36-.07,9.42-.76,2.05-.46,3.94-.87,6.12-.78,4.99.2,9.99.43,14.99.45,6.19.03,12.33.2,18.52.53,7.37.39,14.85-.18,22.29-.34,3.32-.07,6.65-.24,9.97-.18.27,0,.55.02.82.04-.05.05-.1.11-.15.16,1.82.19,3.64.48,5.44.44,2.47-.07,4.94-.15,7.41-.24,2.2-.08,4.4-.16,6.6-.24,7.45-.26,14.89-.47,22.36-.28l-.06-.08c2.19.04,4.38.11,6.58.22,2.05.11,4.11.2,6.17.28.03.04.05.07.08.11,4.53.16,9.06.27,13.59.3,1.1,0,2.19-.02,3.29-.07,3.03-.08,6.07-.37,9.11-.56.36,0,.71.03,1.07.05,3.17.17,6.34.4,9.51.51.38.01.75.01,1.12.01-.09-.03-.17-.05-.25-.08-.01,0-.02,0-.03-.01.2,0,.41.02.61.03,4.09.13,7.35-.39,9.93-1.37.82.02,1.62.17,2.44.23,1.36.11,2.77-.34,4.15-.42,1.59-.09,3.18-.02,4.76.2.29.04.59.09.88.04.25-.04.49-.14.73-.2,1.17-.31,2.33.16,3.49.25,1.25.1,2.54.09,3.8.09.05,0,.1,0,.14,0,.8,0,1.6-.02,2.4-.06,2.55-.04,5.13-.31,7.75-.96,1.11-.25,2.19-.62,3.31-1.01,1.08-.44,2.2-.9,3.27-1.49,2.17-1.15,4.29-2.65,6.24-4.59,2.01-1.98,3.96-4.14,5.62-6.46,1.66-2.32,3-4.81,3.8-7.29,1.02-3.12,1.75-6.25,2.33-9.38.58-3.13,1.02-6.26,1.42-9.48.13-.89.18-1.78.23-2.67.05-.98.06-1.56.06-2.27.01-1.37-.01-2.74-.07-4.1ZM235.29,221.35c-.1,1.55-.51,3.11-1.17,4.51-.66,1.4-1.54,2.64-2.52,3.73l-.75.79-.78.73c-.26.25-.54.46-.8.69l-.4.34c-.13.11-.33.23-.49.35l-.51.34-.44.27-.86.52-1.68.99c-4.25,2.51-8.72,4.43-13.06,6.65-.53.27-1.17.51-1.59.81-2.97,2.08-6.34,3.45-9.75,4.82-1.01.41-2.05.92-3.05,1.42-.7.33-1.37.66-2.1.98l-1.11.47c-.26.09-.55.19-.82.27l-.42.12-.37.06c-.99.16-1.93.18-2.82.11-.9-.06-1.75-.21-2.56-.4-1.63-.38-3.13-.94-4.54-1.59-1.41-.65-2.75-1.39-4.01-2.2-2.14-1.36-4.26-2.81-6.39-4.23-1.46-.98-2.83-2.04-4.21-3.1-.69-.53-1.37-1.07-2.06-1.61-.7-.53-1.41-1.05-2.16-1.55-.51-.32-.96-.73-1.45-1.06l-1.87-1.32c-.63-.44-1.25-.88-1.85-1.35-1.22-.92-2.44-1.84-3.64-2.75-1.41-1.12-2.78-2.3-4.06-3.56-1.26-1.27-2.53-2.55-3.76-3.87-1.16-1.27-2.38-2.49-3.57-3.73-1.18-1.26-2.36-2.52-3.51-3.8-1.31-1.54-2.62-3.09-3.91-4.65l-3.76-4.76c-.89-1.17-1.75-2.44-2.7-3.45-1.61-1.71-3.05-3.58-4.48-5.47-1.38-1.92-2.72-3.87-4.04-5.82-1.44-2.18-2.68-4.49-3.92-6.79-1.74-3.09-3.39-6.25-5.71-8.78-.78-.88-1.49-1.84-2.17-2.85-.68-1.01-1.34-2.05-1.97-3.11-.82-1.36-1.63-2.72-2.43-4.1-.77-1.39-1.52-2.79-2.27-4.19-.76-1.4-1.45-2.83-2.16-4.25-.7-1.43-1.42-2.85-2.07-4.3-.39-.84-.7-1.72-1.04-2.58-.34-.86-.65-1.72-1.01-2.57-2.44-5.42-4.75-10.93-6.7-16.53-.55-1.65-1.1-3.26-1.69-4.86-.55-1.61-1.14-3.2-1.81-4.77-.24-.53-.37-1.15-.54-1.73-.45-1.62-.94-3.23-1.36-4.86-.41-1.63-.82-3.26-1.21-4.9-.17-.83-.29-1.68-.39-2.51-.07-.58-.15-1.15-.25-1.71-.11-.56-.21-1.12-.31-1.68-.23-1.11-.52-2.21-.93-3.29-.32-.83-.56-1.68-.79-2.55-.23-.87-.43-1.75-.62-2.64-.2-.89-.28-1.82-.39-2.75-.09-.93-.17-1.88-.22-2.84,0-1.51-.24-3.13-.45-4.66-.31-3.04-.09-5.98.17-8.98.24-2.63.47-5.25,1.06-7.97.19-.81.39-1.64.65-2.48.26-.84.58-1.71,1.06-2.63.12-.23.27-.47.4-.7.15-.24.33-.48.51-.72l.32-.37.16-.18c.06-.06.08-.08.12-.13l.46-.46c.62-.65,1.2-1.15,1.8-1.71,2.38-2.11,4.82-4.01,7.47-5.73,2.41-1.55,4.51-3.31,6.62-5.14,1.69-1.45,3.85-2.78,5.86-4.08,1.96-1.27,3.82-2.16,5.7-2.87.93-.35,1.92-.69,2.79-.94.91-.28,1.87-.58,2.88-.86,1.37-.39,2.4-.44,3.12-.29.72.15,4.43-.11,4.9-.21.96-.22,2.2-.21,3.63.19,1.42.4,3.03,1.17,4.66,2.53.39.34.78.69,1.15,1.08.38.4.71.75,1.12,1.31.6.87,1.04,1.63,1.52,2.42.17.29.34.58.52.85,1.25,1.85,2.52,3.66,3.64,5.56,2.04,3.46,3.99,6.96,5.86,10.48,1.36,2.56,2.76,5.09,4.17,7.62l2.11,3.82c.35.65.7,1.29,1.04,1.97.17.33.34.68.52,1.05.04.09.09.18.13.29l.15.35c.1.26.18.54.26.81l.18.9.13.85c.07.57.13,1.15.15,1.74.05,1.17-.03,2.38-.25,3.56-.31,1.68-1.12,3.23-1.96,4.66-1.1,1.89-2.49,3.54-4,4.94-3.42,3.12-7.28,5.34-11.03,7.14-1.57.75-3.12,1.49-4.53,2.27-.7.39-1.38.8-1.95,1.23-.15.1-.28.21-.41.32-.12.1-.26.23-.31.28-.14.13-.26.27-.36.44-.17.26-.25.57-.22.88l.02.23.05.31c.06.3.12.61.2.93.29,1.27.67,2.59,1.07,3.9.35,1.15.82,2.09,1.35,3.11,1.23,2.37,2.12,5.05,3.1,7.65.65,1.73,1.35,3.47,2.1,5.14.76,1.62,1.52,3.28,2.23,4.93.75,1.64,1.4,3.31,2.09,4.96,1.84,4.63,4.17,9.04,7.08,13.19.56.83,1.14,1.73,1.68,2.65.54.92,1.02,1.87,1.49,2.75,1.94,3.83,4.53,7.29,7.11,10.72,3.29,4.3,6.84,8.38,10.55,12.3.76.84,1.57,1.63,2.36,2.44.79.81,1.58,1.62,2.4,2.39l.79.76.32.31c.05.05.11.11.16.15l.22-.06c.29-.07.57-.16.86-.25l.48-.18c.25-.09.49-.2.74-.31,3.13-1.35,6.2-3.47,9.41-5.02,1.78-.86,3.56-1.81,5.46-2.6,1.89-.78,3.9-1.46,5.99-1.61,1.07-.09,2.18-.09,3.28-.06,1.1.08,2.21.22,3.29.47.28.05.53.15.8.21.26.08.54.13.79.23.51.19,1.05.34,1.54.56.25.1.51.2.76.3.25.1.48.22.73.33.25.11.49.21.73.32.26.16.52.31.78.47.28.17.52.23.65.39l.51.65.46.63.46.62.44.62c.6.82,1.16,1.64,1.73,2.46,1.11,1.65,2.16,3.33,3,5.13.68,1.46,1.66,3.04,2.58,4.42,1.59,2.38,2.81,4.84,4.03,7.39.5,1.05.99,2.01,1.58,3,.58.98,1.24,1.96,1.98,2.96,1.01,1.38,2.02,2.88,2.88,4.58.86,1.68,1.57,3.57,1.88,5.63.18,1.22.37,2.56.28,3.91Z"/>
</svg>