<?xml version="1.0" encoding="UTF-8"?>
<svg id="Layer_11" data-name="Layer 11" xmlns="http://www.w3.org/2000/svg" viewBox="0 0 314.01 288">
  <defs>
    <style>
      .cls-1 {
        fill: #737438;
      }
    </style>
  </defs>
  <path class="cls-1" d="M184.15,141.4l-.35-.28-.38-.23c-.26-.15-.61-.32-.9-.48-.23-.12-.49-.21-.72-.25-.57-.1-1.05-.41-1.53-.73-1.56-1.04-3.12-2.07-4.78-2.96-.59-.32-1.23-.68-1.7-1.18-.07-.07-.21-.11-.32-.17l-2.47-1.34c-.16-.08-.33-.16-.49-.2-.75-.16-1.44-.54-2.13-.92-.19-.11-.34-.29-.51-.44-.15-.13-.27-.3-.44-.4-.57-.32-1.14-.64-1.73-.91-1.14-.53-2.25-1.12-3.28-1.86-.29-.21-.52-.49-.82-.69-.7-.45-1.41-.89-2.15-1.29-1.06-.58-2.14-1.11-3.21-1.68l-2.7-1.46c-.57-.3-1.18-.53-1.75-.85-.69-.38-1.33-.84-2.02-1.19-.46-.24-.87-.7-1.42-.68-.06,0-.19-.06-.26-.12-.52-.45-1.14-.7-1.75-.99-.88-.42-1.81-.76-2.62-1.34-.33-.23-.59-.55-.92-.76-.1-.06-.2-.12-.3-.16l-.24-.08c-.16-.06-.33-.07-.49-.1-.28-.04-.56-.01-.83,0-.34.03-.67.14-1,.21-.58.12-.85.64-1.03,1.05-.13.22-.35.46-.59.64-.1.1-.21.2-.33.3-.1.11-.21.21-.34.31-.22.2-.48.39-.81.49-.08.03-.2,0-.25-.09-.07-.1-.12-.22-.18-.33-.01.14-.03.28-.03.43v.15c.17.14.3.39.37.76.23,1.07.35,2.18.32,3.34.07.53.21,1.06.21,1.59,0,.89-.06,1.77-.11,2.66,0,.18-.09.35-.09.53,0,1.1-.01,2.21.03,3.31.03.77.16,1.53.21,2.3.04.57.01,1.15.01,1.72v1.64s0,1.49,0,1.49v2.35s-.05,2.13-.05,2.13l-.05,1.65-.05,1.49c-.05,1.38.07,2.76-.07,4.15-.07.76.06,1.56.06,2.34,0,.71-.03,1.42-.07,2.12l-.14,2.67c-.01.23,0,.48-.06.69-.16.66-.07,1.32,0,1.95.12,1.01.24,1.98.11,3.02-.07.56-.02,1.15-.02,1.72v.72s0,.36,0,.36c0,.11.02.21.03.31.03.42.19.81.42,1.14.1.14.21.28.29.45.11.15.19.32.3.47.33.5.82.92,1.4,1.14.58.22,1.21.32,1.82.25.3-.04.61-.11.89-.23.15-.04.28-.14.41-.21.13-.07.28-.17.44-.28.96-.65,1.87-1.39,2.96-1.91.55-.26,1.03-.69,1.56-1.02.39-.24.81-.49,1.23-.64,1.22-.45,2.24-1.24,3.35-1.87l1.98-1.11c.24-.13.5-.25.75-.38.96-.55,1.88-1.17,2.94-1.54.48-.16.95-.51,1.42-.76.6-.32,1.2-.68,1.81-.95.45-.2.82-.43,1.18-.73.94-.79,2.02-1.37,3.12-1.93.44-.22.84-.53,1.27-.79l1.68-1.02.69-.39c1.51-.92,3.03-1.81,4.61-2.58.46-.23.89-.55,1.35-.79.46-.24.93-.45,1.4-.67.14-.07.27-.15.4-.23.23-.13.45-.28.68-.4l2.04-.99c.12-.06.24-.12.34-.2l1.67-1.2c.23-.16.5-.35.74-.43.42-.13.8-.33,1.17-.55l.46-.33.41-.38c.14-.17.31-.31.42-.5.28-.35.45-.78.58-1.21.18-.72.23-1.54-.04-2.23-.22-.57-.58-1.08-1.02-1.48Z"/>
  <path class="cls-1" d="M313.94,236.38c-.1-2.72-.32-5.43-.58-8.13-.52-5.4-1.22-10.76-1.58-16.18-.3-4.52-.79-9.03-.9-13.56-.13-5.16-.02-10.31-.77-15.41-.39-2.65-.83-5.49-.6-8.11.57-6.71,0-13.06-1.72-19.17-1.13-4-1.05-7.97-.33-12.06.26-1.46.5-2.96.56-4.46.21-5.92.35-11.85.5-17.77.03-1.07.14-2.17,0-3.19-.82-6-.68-11.95-.38-18.08.51-10.47.37-21.01.56-31.52.03-1.63.34-3.25.52-4.88.18-1.64.49-3.27.52-4.91l.14-8.42.04-4.21c0-.16,0-.4,0-.6v-.62s-.04-1.24-.04-1.24c-.06-.83-.11-1.66-.2-2.48-.73-6.61-3.09-13.06-6.87-18.43-1.46-2.1-3.07-4.08-4.91-5.77-1.83-1.69-3.88-3.09-6.09-4-3.23-1.31-6.19-2.82-9.28-4.24-3.07-1.43-6.24-2.83-9.6-3.79-2.47-.72-5.03-1.3-7.62-1.59-2.31-.29-4.62-.52-6.93-.54-5.01-.04-10.05-.21-15.07-.04-3.97.07-7.94.32-11.87.97-.44.07-.89.12-1.35.15-1.48-.01-2.99-.11-4.47-.13-7.15-.1-14.3-.33-21.45-.34-2.3,0-4.61.05-6.91.12-1.31.03-2.61.07-3.92.11-2.48.06-4.95.09-7.42.02-4.65-.14-9.25-.42-13.88-.23-2.35.03-4.71.17-7.07.48-5.32.71-10.72,1.12-16.1,1.64-.17.02-.34.02-.52.03-.23,0-.45.01-.68.03-.66.01-1.32.01-1.98.05-.15,0-.3.01-.45.02-5.45,0-10.71-1.07-16.09-1.48-4.5-.34-8.98-1.05-13.31-1.93C106.8.67,97.64-.1,88.28.24c-1.92.04-3.85.12-5.79.25-.71.05-1.42.1-2.13.13-.63,0-1.25-.02-1.86-.07-4.09-.33-8.16-.7-12.19-.5-3.03.03-6.03.31-9.02,1.13-.09.03-.2.04-.3.05-.32-.01-.63-.02-.94,0-2.16.07-4.32.08-6.48.06l-1.62-.02h-.82s-.97,0-.97,0c-.59,0-1.18.02-1.77.05h-.17c-1.29,0-2.58.09-3.87.2-5.14.5-10.24,2.01-14.69,4.61-4.64,2.71-8.85,6.02-12.51,9.87-3.66,3.85-6.77,8.27-9.05,13.15-1,2.11-1.61,4.44-2.4,6.57-.16.45-.32.9-.47,1.36-.14.46-.26.92-.38,1.39-.26.93-.41,1.88-.57,2.82-.14.95-.22,1.91-.28,2.86-.01.48-.02.95-.03,1.43v.7s.02.59.02.59c.13,3.16.5,6.27,1.05,9.26.8,4.35.72,8.39.35,12.46-.45,5-.83,9.85-.23,14.91.34,2.86.51,6.04.09,8.83-.01,1.7-.04,3.4.02,5.1.11,3.02.86,5.68,1.63,8.54.13.49.14,1.01.14,1.51.02,1.74.04,3.48.06,5.22,0,.32,0,.64.11.94.09.26.24.5.39.73,3.87,6.09,4.33,14.62,2.88,21.5-1.11,5.28-1.32,10.64-1.8,15.95-.13.64-.26,1.27-.4,1.9-.29,1.32-.56,2.64-.8,3.97-.05.58-.11,1.15-.16,1.73-1.31,13.79-2.09,27.52-1.97,41.46.09,9.74.41,19.48.48,29.23.03,3.87.13,7.74.05,11.6-.02,2.17.04,4.43.22,6.65.19,2.23.47,4.46.82,6.73.35,2.11.97,4.33,1.88,6.43.91,2.1,2.13,4.08,3.52,5.74,3.5,4.17,7.39,7.76,11.66,10.84,4.27,3.08,8.92,5.65,13.99,7.6l1.38.48.7.23.71.2,1.43.38c.48.11.96.2,1.45.3.97.21,1.95.31,2.94.44.49.06.99.08,1.48.11l.74.04.37.02h.31c.97.04,1.94.06,2.91.06,2.05.02,4.11-.02,6.18-.1.89-.03,1.77-.06,2.66-.1.36-.02.73-.03,1.09-.04.79-.02,1.58-.03,2.38-.04,1.53,0,3.07.01,4.6.05,1.96.04,3.94.12,5.9.13.47,0,.94,0,1.4,0,.02-.02.03-.04.05-.06,3.19.04,6.36-.07,9.42-.76,2.05-.46,3.94-.87,6.12-.78,4.99.2,9.99.43,14.99.45,6.19.03,12.33.2,18.52.53,7.37.39,14.85-.18,22.29-.34,3.32-.07,6.65-.24,9.97-.18.27,0,.55.02.82.04-.05.05-.1.11-.15.16,1.82.19,3.64.49,5.44.44,2.47-.07,4.94-.15,7.41-.24,2.2-.08,4.4-.16,6.6-.24,7.45-.26,14.89-.47,22.36-.28-.02-.03-.04-.05-.06-.08,2.19.04,4.38.11,6.58.22,2.05.11,4.11.2,6.17.28.03.04.05.07.08.11,4.53.16,9.06.27,13.59.3,1.1,0,2.19-.02,3.29-.07,3.03-.08,6.07-.37,9.11-.56.36,0,.71.03,1.07.05,3.17.17,6.34.4,9.51.51.38.01.75.01,1.12.01-.09-.03-.17-.05-.25-.08-.01,0-.02,0-.03-.01.2,0,.41.02.61.03,4.09.13,7.35-.39,9.93-1.37.82.02,1.62.17,2.44.23,1.36.11,2.77-.34,4.15-.42,1.59-.09,3.18-.02,4.76.2.29.04.59.09.88.05.25-.04.49-.14.73-.2,1.17-.31,2.33.16,3.49.25,1.25.1,2.54.09,3.8.09.05,0,.1,0,.14,0,.8,0,1.6-.02,2.4-.06,2.55-.04,5.13-.31,7.75-.96,1.11-.25,2.19-.62,3.31-1.01,1.08-.44,2.2-.9,3.27-1.49,2.17-1.15,4.29-2.65,6.24-4.59,2.01-1.98,3.96-4.14,5.62-6.46,1.66-2.32,3-4.81,3.8-7.29,1.02-3.12,1.75-6.25,2.33-9.38.58-3.13,1.02-6.26,1.42-9.48.13-.89.18-1.78.23-2.67.05-.98.06-1.56.06-2.27.01-1.37-.01-2.74-.07-4.1ZM263.09,146.04c-.06,3.91-.09,7.93-.51,11.67-.37,3.26-.57,6.58-1,9.86,0,.09-.01.18-.02.28-.2,2.27-.25,4.69-.45,7.04-.15,1.74-.33,3.58-.6,5.22-.01.08-.03.16-.04.24.04.98.12,1.94.23,2.86.04.24.14.49.1.68-.74,4.16-1.22,8.47-3.07,12.49-.19.4-.37.83-.55,1.26-.2.43-.4.87-.59,1.31-.36.9-.81,1.78-1.19,2.63-1.39,2.91-3.46,5.42-6.02,7.41-2.08,1.64-4.31,2.98-6.77,4.29-3.4,1.84-7.46,2.83-11.39,3.08-1.17.06-2.41.24-3.6.31-5.54.34-11.02.33-16.4.76-2.59.2-5.13.31-7.72.43-2.59.11-5.19.2-7.77.35-.64.04-1.35.01-1.9.11-3.78.68-7.66.62-11.56.56-1.16-.01-2.38.05-3.56.12-6.42.38-12.69.24-18.86-.38-2.6-.25-5.29-.49-7.98-.59-3.69-.17-7.28-.61-11.07-.55-.63.01-1.28-.01-1.9,0-3.22.09-6.47.14-9.66.26-3.82.14-7.59-.13-11.4-.35-3.62-.19-7.31-.29-10.9-.4-4.25-.12-8.54-.19-12.85-.38-1.56-.07-3.2-.24-4.68-.23-5.03.04-10.2-.77-15.14-2.46-2.74-.95-5.29-2.43-7.6-4.18-1.57-1.19-2.99-2.57-4.3-4-.67-.71-1.27-1.46-1.9-2.19-.58-.76-1.22-1.48-1.79-2.24-.2-.26-.4-.52-.6-.79-.19-.27-.35-.56-.53-.85-.17-.29-.34-.58-.51-.88-.14-.3-.29-.61-.43-.92-.14-.31-.28-.62-.42-.93l-.36-.95c-.24-.64-.47-1.28-.66-1.92-1.06-3.31-1.77-6.68-2.32-10.06-.54-3.38-.92-6.76-1.21-10.15-.08-.99-.08-1.98-.1-2.97-.02-.98,0-1.96-.06-2.94-.37-6.32-.63-12.66-.53-18.96.05-3.68.11-7.26-.08-10.87-.03-.61.01-1.28.04-1.92.12-3.56.29-7.12.53-10.67.06-.9.18-1.8.31-2.67.36-2.44.55-4.82.42-7.25-.19-3.69-.03-7.53.73-11.57.3-1.57.46-3.31.68-4.93.43-3.13,1.31-6.26,2.54-9.3,1.07-2.68,2.38-5.33,4.17-7.74,2.13-2.9,4.9-5.41,8.08-7.24,1.6-.89,3.3-1.61,5-2.15.85-.28,1.69-.48,2.55-.71.85-.19,1.7-.35,2.57-.51,3.11-.5,6.01-1.12,8.96-1.76,2.35-.51,5.08-.65,7.63-.85,4.98-.36,8.73.41,12.79,1,1.86.27,2.85.63,3.44,1.1.67.13,1.19.29,1.47.49.11.08-.01.21-.33.28-.14.03-.29.06-.44.09.04.04.09.08.13.11.19,0,.38-.02.56-.02.22,0,.44-.02.66-.03,1.16-1.45,4.15-2.67,10.11-2.75,1.91-.02,3.81,0,5.71.01.35,0,.7,0,1.05,0,2.34-.1,4.69-.29,7.03-.3,4.26-.03,8.53,0,12.78.13,8.31.24,16.58.09,24.87.19,1.5.02,3.02.25,4.53.31,1.99.07,3.99.1,5.98.14,4.46.11,8.95.12,13.36.44,1.84.14,3.71.27,5.53.37,1.81.11,3.64.16,5.48.2,2.98.06,5.99.16,9,.31,1.32.07,2.47,0,3.72-.08,2.93-.17,6.04.21,9.1.74,2.04.35,4.1.78,6.14,1.3,4.02,1.05,7.99,2.84,11.19,5.64,2.22,1.93,4.12,4.18,5.7,6.62,1.58,2.43,2.78,5.12,3.78,7.78.43,1.06.71,2.21,1.01,3.37.23,1.16.47,2.32.57,3.42.54,4.68,1.27,9.3,1.75,13.95.59,5.86,1.01,11.71,1.22,17.58.17,4.92.19,9.85.1,14.77Z"/>
</svg>