<?xml version="1.0" encoding="UTF-8"?>
<svg id="Layer_11" data-name="Layer 11" xmlns="http://www.w3.org/2000/svg" viewBox="0 0 314.01 288">
  <defs>
    <style>
      .cls-1 {
        fill: #737438;
      }
    </style>
  </defs>
  <path class="cls-1" d="M313.94,236.38c-.1-2.72-.32-5.43-.58-8.13-.52-5.4-1.22-10.76-1.58-16.18-.3-4.52-.79-9.03-.9-13.56-.13-5.16-.02-10.31-.77-15.41-.39-2.65-.83-5.49-.6-8.11.57-6.71,0-13.06-1.72-19.17-1.13-4-1.05-7.97-.33-12.06.26-1.46.5-2.96.56-4.46.21-5.92.35-11.85.5-17.77.03-1.07.14-2.17,0-3.19-.82-6-.68-11.95-.38-18.08.51-10.47.37-21.01.56-31.52.03-1.63.34-3.25.52-4.88.18-1.64.49-3.27.52-4.91l.14-8.42.04-4.21c0-.16,0-.4,0-.6v-.62s-.04-1.24-.04-1.24c-.06-.83-.11-1.66-.2-2.48-.73-6.61-3.09-13.06-6.87-18.43-1.46-2.1-3.07-4.08-4.91-5.77-1.83-1.69-3.88-3.09-6.09-4-3.23-1.31-6.19-2.82-9.28-4.24-3.07-1.43-6.24-2.83-9.6-3.79-2.47-.72-5.03-1.3-7.62-1.59-2.31-.29-4.62-.52-6.93-.54-5.01-.04-10.05-.21-15.07-.04-3.97.07-7.94.32-11.87.97-.44.07-.89.12-1.35.15-1.48-.01-2.99-.11-4.47-.13-7.15-.1-14.3-.33-21.45-.34-2.3,0-4.61.05-6.91.12-1.31.03-2.61.07-3.92.11-2.48.06-4.95.09-7.42.02-4.65-.14-9.25-.42-13.88-.23-2.35.03-4.71.17-7.07.48-5.32.71-10.72,1.12-16.1,1.64-.17.02-.34.02-.52.03-.23,0-.45.01-.68.03-.66.01-1.32.01-1.98.05-.15,0-.3.01-.45.02-5.45,0-10.71-1.07-16.09-1.48-4.5-.34-8.98-1.05-13.31-1.93C106.8.67,97.64-.1,88.28.24c-1.92.04-3.85.12-5.79.25-.71.05-1.42.1-2.13.13-.63,0-1.25-.02-1.86-.07-4.09-.33-8.16-.7-12.19-.5-3.03.03-6.03.31-9.02,1.13-.09.03-.2.04-.3.05-.32-.01-.63-.02-.94,0-2.16.07-4.32.08-6.48.06l-1.62-.02h-.82s-.97,0-.97,0c-.59,0-1.18.02-1.77.05h-.17c-1.29,0-2.58.09-3.87.2-5.14.5-10.24,2.01-14.69,4.61-4.64,2.71-8.85,6.02-12.51,9.87-3.66,3.85-6.77,8.27-9.05,13.15-1,2.11-1.61,4.44-2.4,6.57-.16.45-.32.9-.47,1.36-.14.46-.26.92-.38,1.39-.26.93-.41,1.88-.57,2.82-.14.95-.22,1.91-.28,2.86-.01.48-.02.95-.03,1.43v.7s.02.59.02.59c.13,3.16.5,6.27,1.05,9.26.8,4.35.72,8.39.35,12.46-.45,5-.83,9.85-.23,14.91.34,2.86.51,6.04.09,8.83-.01,1.7-.04,3.4.02,5.1.11,3.02.86,5.68,1.63,8.54.13.49.14,1.01.14,1.51.02,1.74.04,3.48.06,5.22,0,.32,0,.64.11.94.09.26.24.5.39.73,3.87,6.09,4.33,14.62,2.88,21.5-1.11,5.28-1.32,10.64-1.8,15.95-.13.64-.26,1.27-.4,1.9-.29,1.32-.56,2.64-.8,3.97-.05.58-.11,1.15-.16,1.73-1.31,13.79-2.09,27.52-1.97,41.46.09,9.74.41,19.48.48,29.23.03,3.87.13,7.74.05,11.6-.02,2.17.04,4.43.22,6.65.19,2.23.47,4.46.82,6.73.35,2.11.97,4.33,1.88,6.43.91,2.1,2.13,4.08,3.52,5.74,3.5,4.17,7.39,7.76,11.66,10.84,4.27,3.08,8.92,5.65,13.99,7.6l1.38.48.7.23.71.2,1.43.38c.48.11.96.2,1.45.3.97.21,1.95.31,2.94.44.49.06.99.08,1.48.11l.74.04.37.02h.31c.97.04,1.94.06,2.91.06,2.05.02,4.11-.02,6.18-.1.89-.03,1.77-.06,2.66-.1.36-.02.73-.03,1.09-.04.79-.02,1.58-.03,2.38-.04,1.53,0,3.07.01,4.6.05,1.96.04,3.94.12,5.9.13.47,0,.94,0,1.4,0,.02-.02.03-.04.05-.06,3.19.04,6.36-.07,9.42-.76,2.05-.46,3.94-.87,6.12-.78,4.99.2,9.99.43,14.99.45,6.19.03,12.33.2,18.52.53,7.37.39,14.85-.18,22.29-.34,3.32-.07,6.65-.24,9.97-.18.27,0,.55.02.82.04-.05.05-.1.11-.15.16,1.82.19,3.64.49,5.44.44,2.47-.07,4.94-.15,7.41-.24.46-.02.92-.03,1.37-.05,1.07-.14,2.25-.33,3.03-1.11.03-.04.07-.08.1-.13.73-1.18.46-2.87.29-4.18-.15-1.18-.36-2.34-.45-3.52-.32-1.64-.49-3.69-.44-6.23.06-2.08.12-4.15.18-6.23.01-.38.03-.77.02-1.14-.08-2.56-.23-5.12-.22-7.67.02-4.65.1-9.3.23-13.94.26-9.07-.07-18.09-.2-27.13-.03-1.64.19-3.3.21-4.95.02-2.17-.04-4.35-.06-6.53-.07-4.23-.14-8.49-.2-12.69-.13-.39-.52-.67-.93-.67l-.62-.03-1.25-.03c-2.02-.02-4.04-.04-6.06-.05-3.27,0-6.55-.09-9.81-.16-1.43-.03-2.66.12-4.01.28-.78.1-1.58.16-2.38.2l-.69.03-1,.02c-.67.02-1.34,0-1.95-.12-1.21-.2-2.37-.88-3.16-1.87-.82-1.01-1.15-2.2-1.2-3.51,0-1.36,0-2.72,0-4.08,0-1.09-.02-2.18-.05-3.27-.12-4.3-.06-8.57.25-12.78.22-2.94.35-5.86.38-8.8.01-1.47,0-2.94-.03-4.42-.02-.86-.05-1.73-.08-2.6-.04-1.16-.02-2.26.42-3.26.34-.8.94-1.53,1.7-2.03.77-.52,1.65-.74,2.6-.8.48-.03.98-.01,1.47,0l.73.02.51.03c.62.04,1.22.09,1.81.14,5.03.48,10.1.36,15.16.33l4.78-.03,2.05-.02c.43-.03.87.05,1.27-.14.39-.18.68-.55.75-.98.05-.43,0-.85,0-1.27l-.04-4.68c-.03-5.35,0-10.71.04-16.07.03-4.25-.06-8.63.26-12.72.27-4.92,1.89-9.72,4.47-13.63,2.66-4.05,5.44-8.36,7.4-12.38.12-.25.16-.55.31-.7,3.27-3.35,6.48-6.89,10.7-9.27,1.71-.94,3.6-2.14,5.37-3.16,3.06-1.72,6.43-2.78,10.07-3,.73-.05,1.51-.03,2.22-.04.67.02,1.34.02,2.01.02,1.35-.01,2.72-.08,4.15-.22,3.92-.39,8.14-.53,12.32-.22,1.25.09,2.57.05,3.86.08,2.97.08,5.95.14,8.93.15,1.49,0,2.97,0,4.46-.03l2.84-.05c1.13,0,2.16.17,3.1.75.88.54,1.58,1.39,1.95,2.34.36.94.41,2.03.39,3.15v4.53c-.02,2.83-.06,5.66,0,8.49.01.7-.05,1.48.03,2.07.62,4.15.4,8.37.21,12.62l-.02.48v.55c0,.52,0,1.05,0,1.57-.01,1.06-.15,2.01-.59,2.9-.58,1.2-1.67,2.17-2.92,2.59-.61.21-1.27.33-1.98.35-.35.02-.71,0-1.07.01h-1c-1.73,0-3.45-.03-5.16-.09-3.42-.12-6.81-.38-10.18-.75-1.42-.16-2.86-.3-4.31-.42-.73-.05-1.46-.11-2.19-.16-.71-.03-1.57-.11-1.96-.09-.17,0-.34.04-.5.1-.17.04-.33.1-.49.19-.37.14-.76.4-1.15.61-.77.51-1.55,1.05-2.27,1.7-1.46,1.25-2.81,2.72-3.81,4.42-.33.56-.67,1.13-.88,1.7-.08.18-.12.36-.16.53-.04.16-.09.32-.09.49,0,.17-.03.34-.01.5l.03.65.13,2.64c.09,1.76.19,3.52.32,5.26.3,4.16.14,8.28.07,12.45v2.98s0,1.2,0,1.2c0,.32,0,.63.03.94.06.63.54,1.18,1.15,1.34.3.09.62.05.93.05h.99s14.04.12,14.04.12c1.69.01,3.48.12,5.07-.03,2.71-.24,5.44-.33,8.17-.35h2.28c.98-.02,1.98,0,2.84.2.87.21,1.69.71,2.28,1.43.07.09.14.18.21.28l.05.07c-.09.1.37.68.37.68l.06.16c.16.43.25.87.27,1.31.07.98-.17,2.1-.34,3.14l-.23,1.18-.23,1.11-.94,4.44c-.81,4.03-1.63,8.1-1.47,12.06.11,2.71-.23,5.55-.53,8.39l-.39,3.41-.49,3.89c-.15.96-.38,1.84-.92,2.6-.52.76-1.28,1.37-2.14,1.71-.85.35-1.78.4-2.77.39h-2.24s-7.59-.07-7.59-.07c-1.08-.01-2.14-.12-3.21-.19-1.06-.06-2.12-.17-3.19-.19-3.27-.02-6.54-.04-9.81-.06-.48-.01-1.02-.04-1.42.29-.4.3-.6.81-.57,1.3-.03,1.47-.07,2.94-.1,4.4-.11,4.01-.16,7.91.14,11.84.05.67.01,1.39,0,2.09-.06,3.88-.12,7.76-.18,11.63-.02.98-.11,1.96-.2,2.92-.26,2.67-.29,5.28.12,7.89.62,4,.82,8.16.62,12.55-.08,1.72.08,3.57.22,5.31.27,3.34.23,6.71.27,10.09.04,2.97.21,5.92.32,8.88.13,3.55.38,7.06.56,10.59l.07,1.33.03.95.03,1.22c0,.09-.01.17-.01.25.06.39.13.77.23,1.14.12.43.26.87.6,1.18.29.26.66.42,1.03.54.81.25,1.65.31,2.49.41.71.09,1.42.22,2.12.37.21,0,.42-.01.63-.02,3.03-.08,6.07-.37,9.11-.56.36,0,.71.03,1.07.05,3.17.17,6.34.4,9.51.51.38.01.75.01,1.12.01-.09-.03-.17-.05-.25-.08-.01,0-.02,0-.03-.01.2,0,.41.02.61.03,4.09.13,7.35-.39,9.93-1.37.82.02,1.62.17,2.44.23,1.36.11,2.77-.34,4.15-.42,1.59-.09,3.18-.02,4.76.2.29.04.59.09.88.05.25-.04.49-.14.73-.2,1.17-.31,2.33.16,3.49.25,1.25.1,2.54.09,3.8.09.05,0,.1,0,.14,0,.8,0,1.6-.02,2.4-.06,2.55-.04,5.13-.31,7.75-.96,1.11-.25,2.19-.62,3.31-1.01,1.08-.44,2.2-.9,3.27-1.49,2.17-1.15,4.29-2.65,6.24-4.59,2.01-1.98,3.96-4.14,5.62-6.46,1.66-2.32,3-4.81,3.8-7.29,1.02-3.12,1.75-6.25,2.33-9.38.58-3.13,1.02-6.26,1.42-9.48.13-.89.18-1.78.23-2.67.05-.98.06-1.56.06-2.27.01-1.37-.01-2.74-.07-4.1Z"/>
</svg>