<?xml version="1.0" encoding="UTF-8"?>
<svg id="Layer_11" data-name="Layer 11" xmlns="http://www.w3.org/2000/svg" viewBox="0 0 209.99 159.75">
  <defs>
    <style>
      .cls-1 {
        fill: #737438;
      }
    </style>
  </defs>
  <path class="cls-1" d="M209.96,33.33l-.02-.51-.02-.67c0-.33,0-.65-.04-.97l-.04-.48c-.03-.15-.07-.3-.1-.45-.27-1.21-.96-2.25-1.86-3.03-.92-.77-2.07-1.24-3.27-1.31-1.2-.08-2.4.23-3.47.92-2.4,1.62-4.81,3.23-7.21,4.85-.4.27-.86.56-1.24.76-2.71,1.37-5.42,3.08-8.19,4.91-3.53,2.12-8.53,6.37-10.17,8.22-1.37,1.54-1.41,1.74-1.5,1.7-.05-.02-.23-.06-.23-.06-.04,0-.11.02-.16.03-.24.06-.52.15-.82.28-.27.12-.51.25-.77.42-1.83,1.2-3.69,2.04-5.42,3.42-.58.47-1.47.94-2.22,1.41-2.79,1.74-5.51,3.63-8.3,5.41-1.9,1.21-3.87,2.5-5.79,3.78-1.85,1.23-3.77,2.37-5.58,3.63-2.98,2.07-5.95,4.17-9.01,6.1-.91.57-1.86,1.11-2.73,1.71-3.23,2.24-6.44,4.48-9.66,6.72-3.92,2.7-7.76,5.6-11.95,7.8-.35.18-.78.55-1.19.83-.82.56-1.56,1.08-2.25,1.45-.69.37-1.32.57-1.87.57-.55,0-1.21-.19-1.94-.59-.72-.38-1.49-.95-2.32-1.54-3.06-2.21-6.31-4.34-9.48-6.51-1.06-.72-2.21-1.42-3.17-2.16-2.74-2.1-5.67-3.82-8.54-5.68-3.56-2.29-7.34-4.2-10.67-7-.12-.1-.33-.2-.49-.31l-6.16-4.06c-2.64-1.74-5.18-3.5-7.71-5.38-3-2.23-6.22-4.43-9.43-6.53-1.47-.96-2.97-1.87-4.49-2.77l-1.16-.68-.58-.34c-.19-.11-.48-.26-.72-.39l-.37-.19c-.08-.04-.07-.04-.11-.06l-.05-.02-.12-.08-.28-.18-1.11-.71c-3.11-2.03-6.18-4.15-9.25-6.25-4.89-3.34-9.81-6.62-14.84-9.7-.5-.31-1.01-.64-1.51-.97-.59-.4-1.19-.8-1.78-1.2l-.33-.19c-.86-.51-1.83-.78-2.8-.73-.96.05-1.92.36-2.7.95-.78.57-1.41,1.37-1.73,2.3l-.12.35c-.03.12-.05.24-.08.36-.02.12-.05.24-.07.37-.01.13-.02.25-.03.38-.02.25-.03.51-.02.77v.64c0,1.96.1,3.93.09,5.89-.01,2.95-.08,5.89-.12,8.83-.08,5.08.01,10.19-.39,15.19-.22,2.76-.32,5.82-.3,8.72.02,3.71.19,7.42.35,11.1.22,5.15.58,10.21.51,15.51,0,.48.06.96.07,1.45.07,4.32.16,8.64.19,12.96.01,3.05-.1,6.1-.11,9.16,0,1.44.1,2.88.15,4.32.03.88.09,1.75.1,2.63,0,2.35.02,4.7.03,7.04,0,.69.02,1.4-.01,2.07-.12,2.43-.16,4.85-.15,7.27l.02,1.81c0,.16,0,.28.01.48.02.23.04.47.08.7.02.25.09.43.14.63l.18.58c.56,1.43,1.33,2.55,2.17,3.57.34.39.76.84,1.01,1.18.95,1.3,2.15,2.38,3.54,3.26.35.22.7.43,1.1.61l.57.28.62.23c.4.17.88.25,1.33.36.22.06.49.05.74.07.25.02.52.03.67.02,1.13-.02,2.22-.08,3.35,0,3.16.24,6.27.4,9.49.01,1.07-.13,2.47-.12,3.72-.12l21.92.04c1.47,0,3.03-.02,4.38-.15,2.53-.24,4.83-.16,7.19.08.78.08,1.75.15,2.53.1,1.86-.11,3.16.07,4.63.3,2.97.47,6.11.85,9.94.57.84-.06,1.78-.06,2.66-.05,5.16.08,10.28.01,15.45-.16,4.56-.15,9.18-.15,13.77-.19,2.46-.03,4.91-.06,7.37-.09,2.47-.02,5.02-.13,7.38,0,3.48.19,6.83.08,10.25.07,5.02-.01,10.05-.09,15.05.21,1.1.07,2.3.02,3.44.06,1.55.05,3.24.05,4.59.22,1.24.15,2.38.2,3.66.22,3.97.08,7.89.08,11.68-.26.35-.03.77-.01,1.15-.02,3.54-.02,7.07-.07,10.59-.15,1.76-.05,3.51-.1,5.25-.16.87-.03,1.75-.07,2.62-.1l1.28-.06c.16,0,.56-.04.86-.08.16-.02.32-.04.48-.07l.42-.12c.21-.06.42-.12.64-.19.2-.08.39-.16.59-.23.41-.15.78-.34,1.14-.52.25-.12.48-.26.71-.4.22-.14.46-.28.68-.43.42-.31.86-.6,1.25-.93.81-.64,1.54-1.36,2.24-2.11.68-.78,1.34-1.57,1.9-2.5.55-.94,1.09-1.91,1.35-3.26.04-.34.07-.68.1-1.03v-.67c0-.43.01-.87.02-1.31.03-.88.05-1.76.08-2.63.04-1.45.17-2.88.19-4.33,0-3.08,0-6.17-.01-9.26.05-3.45.09-6.89.14-10.33,0-.58,0-1.17,0-1.76-.05-3.83-.14-7.74.18-11.39.16-1.76.14-3.38.14-5.09,0-.58-.07-1.15-.08-1.73-.06-3.14-.2-6.3-.15-9.41.08-5.14.13-10.22-.03-15.36-.08-2.63-.15-5.44,0-7.96.2-3.39.2-6.78.25-10.17.02-2.34.04-4.69.06-7.03.08-4.53.16-9.05.24-13.57,0-.59.01-1.2-.02-1.77Z"/>
  <path class="cls-1" d="M7.55,6.17c.1.32.25.56.41.83.07.13.17.27.28.41.11.14.21.28.33.42.29.29.55.59.95.86.76.55,1.58,1.07,2.36,1.59l.59.39.29.19.17.11.69.43,1.38.85c.93.56,1.85,1.11,2.79,1.65.35.2.69.48,1.03.73,1.84,1.37,3.6,2.82,5.57,4.07.89.57,1.75,1.26,2.61,1.92.71.55,1.36,1.17,2.08,1.69,1.55,1.11,3.14,2.17,4.69,3.28l2.04,1.49.09.09.02.03h0s-.06-.05-.06-.05l.04.05c.07.08.17.2.22.25l.17.17c.42.39.7.58,1.01.81.3.21.58.4.86.58l.4.26c.13.08.27.17.28.18h0c.25.19.56.4.85.6,1.96,1.34,3.99,2.67,5.65,4.25.8.76,1.63,1.32,2.5,1.92.29.2.62.35.93.55,1.62,1.07,3.3,2.08,4.85,3.23,2.55,1.9,5.1,3.74,7.79,5.44,1.38.87,2.84,1.81,4.03,2.83,1.6,1.37,3.32,2.57,5.01,3.81,1.17.84,2.36,1.69,3.53,2.54,2.25,1.67,4.5,3.33,6.75,5,.29.22.6.43.91.61,2.9,1.71,5.66,3.71,8.47,5.58.25.16.52.36.71.55,1.33,1.36,2.91,2.55,4.6,3.72,1.98,1.6,5.74,3.26,7.31,3.58.33.07.61.1.85.1.13,0,.21-.02.36,0,.15.01,1.05.3,1.4.32.35.02.74-.13.91-.17.28-.04.61-.16.9-.38,1.06-.8,2.27-1.24,3.26-2.2.33-.32.9-.6,1.35-.89,1.71-1.09,3.36-2.31,5.07-3.42,1.17-.76,2.37-1.57,3.55-2.38,1.13-.78,2.33-1.47,3.43-2.27,1.81-1.33,3.6-2.68,5.5-3.87.56-.35,1.16-.68,1.68-1.07,1.94-1.46,3.88-2.92,5.82-4.38,2.37-1.75,4.63-3.7,7.3-4.97.22-.11.47-.36.71-.54,1.96-1.42,3.8-2.96,5.92-4.25,2-1.22,3.95-2.62,5.92-3.94.66-.44,1.31-.97,1.96-1.33,1.88-1.04,3.48-2.4,5.2-3.64,2.13-1.54,3.94-3.48,6.39-4.68.09-.04.19-.15.28-.22l.92-.68.23-.17c.06-.04.04-.03.11-.08l.49-.31c.17-.11.35-.23.54-.37.17-.12.46-.33.68-.53.12-.1.22-.22.32-.33l.07-.09h0s.22-.17.22-.17c1.58-1.15,3.17-2.2,4.86-3.19,2-1.17,4-2.52,5.92-3.88,1.77-1.25,3.41-2.67,5.16-3.94,1.86-1.34,3.8-2.6,5.71-3.88l1.68-1.13,2.7-1.87c.85-.6,1.32-1.27,1.69-1.83.17-.29.32-.55.42-.9.1-.34.18-.71.17-1.11.01-.79-.25-1.62-.7-2.27-.45-.66-1.08-1.13-1.68-1.32-.2-.07-.4-.15-.65-.22-.24-.07-.46-.15-.75-.2l-.41-.08c-.15-.02-.31-.03-.47-.04-.31-.03-.65-.03-.97-.03l-5.66-.1c-1.21,0-2.43.1-3.64.09-1.82-.01-3.64-.08-5.46-.12-3.14-.08-6.3.01-9.39-.39-1.71-.22-3.6-.32-5.39-.3-2.29.02-4.59.19-6.86.35-3.18.22-6.31.58-9.59.51-.29,0-.59.06-.89.07-2.67.07-5.34.16-8.01.19-1.88.01-3.77-.1-5.66-.11-.89,0-1.78.1-2.67.15-.54.03-1.08.09-1.62.1-1.45,0-2.9.02-4.35.03-.43,0-.86.02-1.28-.01-3-.23-5.99-.19-8.98.02-.29.02-.64.07-.88.03-1.81-.32-3.61,0-5.39.05-.7.02-1.37.08-2.07,0-1.95-.23-3.88-.4-5.87,0-.66.13-1.53.12-2.3.12l-13.55-.03c-.91,0-1.87.02-2.71.14-1.56.23-2.98.14-4.44-.11-.48-.08-1.08-.16-1.56-.12-1.15.1-1.95-.1-2.86-.34-1.83-.5-3.77-.92-6.14-.68-.52.05-1.1.04-1.64.02-3.19-.14-6.36-.13-9.56,0-2.82.12-5.69.09-8.53.15-1.52.04-3.04.08-4.56.12-1.52.03-3.11.15-4.56.03-2.15-.17-4.22-.04-6.34-.01-3.1.04-6.22.14-9.3-.13-.68-.06-1.42,0-2.13-.04-.96-.04-2-.03-2.84-.19-.76-.15-1.47-.18-2.26-.2-.61-.01-1.23-.02-1.83-.02-1.15,0-2.31,0-3.43.03-1.15,0-2.1.25-2.71.62-.31.17-.56.35-.81.56-.25.23-.5.5-.71.82-.08.11-.17.25-.26.38-.08.15-.19.29-.25.44-.34.68-.5,1.48-.44,2.21.02.37.1.72.21,1.03ZM172.99,25.97h0c-.06-.09-.13-.18,0,0Z"/>
</svg>