<?xml version="1.0" encoding="UTF-8"?>
<svg id="Layer_11" data-name="Layer 11" xmlns="http://www.w3.org/2000/svg" viewBox="0 0 156.62 212.71">
  <defs>
    <style>
      .cls-1 {
        fill: #737438;
      }
    </style>
  </defs>
  <path class="cls-1" d="M156.32,179.8c-.31-2.05-1.02-3.94-1.88-5.63-.86-1.69-1.87-3.2-2.88-4.58-.74-1-1.39-1.98-1.98-2.96-.59-.99-1.08-1.95-1.58-3-1.22-2.54-2.44-5-4.03-7.39-.92-1.39-1.9-2.96-2.58-4.42-.84-1.81-1.89-3.49-3-5.13-.57-.82-1.13-1.64-1.73-2.46l-.44-.62-.46-.62-.46-.63-.51-.65c-.14-.17-.37-.23-.65-.39-.26-.15-.52-.31-.78-.47-.24-.11-.48-.21-.73-.32-.24-.11-.48-.22-.73-.33-.25-.1-.5-.2-.76-.3-.49-.22-1.03-.37-1.54-.56-.25-.1-.53-.15-.79-.23-.27-.07-.53-.17-.8-.21-1.08-.26-2.18-.39-3.29-.47-1.1-.03-2.21-.03-3.28.06-2.1.15-4.1.82-5.99,1.61-1.89.79-3.68,1.74-5.46,2.6-3.2,1.55-6.28,3.67-9.41,5.02-.25.1-.49.22-.74.31l-.48.18c-.29.09-.57.19-.86.25l-.22.05c-.06-.04-.11-.1-.16-.15l-.32-.31-.79-.76c-.83-.77-1.61-1.59-2.4-2.39-.79-.81-1.6-1.6-2.36-2.44-3.7-3.92-7.26-8-10.55-12.3-2.58-3.43-5.17-6.89-7.11-10.72-.47-.89-.95-1.84-1.49-2.75-.54-.92-1.12-1.81-1.68-2.65-2.92-4.15-5.24-8.55-7.08-13.19-.69-1.65-1.34-3.32-2.09-4.96-.71-1.65-1.47-3.31-2.23-4.93-.75-1.66-1.45-3.4-2.1-5.14-.98-2.61-1.87-5.28-3.1-7.65-.53-1.02-1-1.96-1.35-3.11-.39-1.31-.77-2.64-1.07-3.9-.08-.32-.14-.62-.2-.93l-.05-.31-.02-.23c-.04-.31.05-.62.22-.88.1-.16.23-.31.36-.44.05-.05.19-.18.31-.28.13-.11.26-.21.41-.32.57-.42,1.24-.83,1.95-1.23,1.41-.79,2.96-1.52,4.53-2.28,3.75-1.8,7.61-4.02,11.03-7.14,1.52-1.4,2.9-3.05,4-4.94.84-1.43,1.65-2.98,1.96-4.66.22-1.19.3-2.39.25-3.56-.02-.59-.08-1.17-.15-1.74l-.13-.85-.18-.9c-.08-.27-.16-.55-.26-.81l-.15-.35c-.05-.11-.09-.21-.13-.29-.17-.37-.34-.72-.52-1.05-.34-.67-.69-1.32-1.04-1.97l-2.11-3.82c-1.41-2.53-2.82-5.06-4.17-7.62-1.87-3.53-3.82-7.03-5.86-10.48-1.12-1.9-2.39-3.71-3.64-5.56-.18-.27-.35-.57-.52-.85-.48-.79-.92-1.55-1.52-2.42-.41-.56-.74-.92-1.12-1.31-.37-.39-.76-.74-1.15-1.08-1.63-1.36-3.24-2.12-4.66-2.53-1.42-.4-2.66-.41-3.63-.19-.48.1-4.18.36-4.9.21-.72-.15-1.75-.1-3.12.29-1.01.28-1.97.58-2.88.86-.87.25-1.86.58-2.79.94-1.88.71-3.74,1.59-5.7,2.87-2.01,1.31-4.17,2.63-5.86,4.08-2.12,1.83-4.22,3.58-6.62,5.14-2.65,1.72-5.09,3.62-7.47,5.73-.6.56-1.18,1.06-1.8,1.71l-.46.46s-.07.06-.12.13l-.16.18-.32.37c-.18.24-.35.49-.51.72-.14.23-.29.47-.4.7-.48.92-.8,1.79-1.06,2.63-.26.84-.47,1.67-.65,2.48-.59,2.71-.82,5.34-1.06,7.97-.26,2.99-.48,5.94-.17,8.98.21,1.53.44,3.15.45,4.66.04.96.12,1.91.22,2.84.11.93.19,1.86.39,2.75.18.9.39,1.78.62,2.64.23.87.47,1.72.79,2.55.4,1.08.7,2.18.93,3.29.1.56.21,1.12.31,1.68.1.56.18,1.13.25,1.71.1.82.21,1.68.39,2.51.38,1.64.8,3.26,1.21,4.9.42,1.63.91,3.24,1.36,4.86.17.58.3,1.2.54,1.73.67,1.57,1.26,3.16,1.81,4.77.59,1.6,1.14,3.21,1.69,4.86,1.95,5.6,4.26,11.1,6.7,16.53.36.85.67,1.72,1.01,2.57.34.86.65,1.74,1.04,2.58.66,1.45,1.37,2.87,2.07,4.3.71,1.42,1.4,2.86,2.16,4.25.75,1.4,1.5,2.8,2.27,4.19.8,1.37,1.6,2.74,2.43,4.1.63,1.06,1.29,2.1,1.97,3.11.68,1.01,1.4,1.97,2.17,2.85,2.32,2.53,3.97,5.7,5.71,8.78,1.24,2.3,2.48,4.6,3.92,6.79,1.32,1.95,2.67,3.9,4.04,5.82,1.43,1.88,2.86,3.76,4.48,5.47.95,1.01,1.81,2.28,2.7,3.45l3.76,4.76c1.29,1.56,2.59,3.11,3.91,4.65,1.15,1.28,2.33,2.54,3.51,3.8,1.2,1.24,2.41,2.46,3.57,3.73,1.23,1.32,2.49,2.6,3.76,3.87,1.28,1.26,2.65,2.43,4.06,3.56,1.21.91,2.42,1.83,3.64,2.75.6.47,1.22.91,1.85,1.35l1.87,1.32c.49.34.94.74,1.45,1.06.75.5,1.46,1.02,2.16,1.55.69.54,1.38,1.08,2.06,1.61,1.37,1.06,2.75,2.12,4.21,3.1,2.13,1.42,4.26,2.88,6.39,4.24,1.27.81,2.6,1.55,4.01,2.2,1.41.65,2.91,1.21,4.54,1.59.81.19,1.66.34,2.56.4.89.07,1.84.05,2.82-.11l.37-.06.42-.12c.28-.08.56-.18.82-.27l1.11-.47c.73-.32,1.4-.65,2.1-.98,1-.5,2.04-1.01,3.05-1.42,3.41-1.37,6.79-2.74,9.75-4.82.43-.3,1.06-.53,1.59-.81,4.34-2.22,8.81-4.14,13.06-6.65l1.68-.99.86-.52.44-.27.51-.34c.16-.11.36-.23.49-.35l.4-.34c.27-.23.55-.44.8-.69l.78-.73.75-.79c.97-1.08,1.86-2.32,2.52-3.73.66-1.4,1.07-2.96,1.17-4.51.1-1.34-.1-2.69-.28-3.91Z"/>
</svg>