<?xml version="1.0" encoding="UTF-8"?>
<svg id="Layer_11" data-name="Layer 11" xmlns="http://www.w3.org/2000/svg" viewBox="0 0 225.95 227.1">
  <defs>
    <style>
      .cls-1 {
        fill: #737438;
      }
    </style>
  </defs>
  <path class="cls-1" d="M225.94,112.63c-.02-1.18-.03-2.41-.13-3.61-.05-.73-.11-1.46-.2-2.25-.08-.67-.2-1.38-.36-2.22-.45-2.31-.71-4.73-.99-7.3-.16-1.43-.31-2.87-.5-4.3-.43-3.28-.85-6.23-1.63-9.22-1.67-6.41-3.51-11.45-5.77-15.82-.32-.65-.66-1.34-1.01-2.14-.13-.27-.25-.55-.38-.83-.24-.52-.47-1.03-.71-1.5-2.1-4.31-4.48-8.48-7.08-12.39-.98-1.47-2.08-3-3.58-4.97-1.08-1.4-2.26-2.88-3.72-4.67-1.27-1.55-2.64-3.19-4.14-4.79l-.29-.32c-.27-.29-.54-.59-.83-.88l-1.07-1.07c-.68-.69-1.43-1.39-2.43-2.26-3.1-2.71-5.71-4.83-8.24-6.73-.27-.2-.55-.41-.82-.63-.25-.2-.5-.39-.78-.6-1.09-.8-2.15-1.62-3.2-2.42-2.06-1.58-4.19-3.21-6.5-4.73l-1.08-.7c-2.04-1.33-4.16-2.7-6.23-3.95-6.12-3.74-12.74-6.53-19.71-8.32-1.21-.29-2.45-.61-3.6-.92-3.6-1.01-8.35-2.18-13.24-2.27-.17,0-.57-.05-.89-.09-.27-.04-.55-.07-.86-.1-3.03-.27-5.76-.5-8.57-.58-1.05-.03-2.09-.05-3.14-.05-2.01,0-3.86.07-5.65.21-6.86.56-12.52,1.27-17.84,2.25-.61.12-1.23.25-1.84.38-.63.14-1.26.27-1.82.38-1.97.35-4.07.88-6.48,1.62-1.23.4-2.16.73-3.07,1.07l-.46.18c-.8.31-1.63.64-2.39.99-2.49,1.09-4.79,2-7.32,2.99-3.74,1.48-6.58,2.85-9.22,4.44-.47.29-.97.58-1.46.88l-1.01.61c-.4.24-.8.46-1.26.72-.38.22-.75.42-1.11.61-3.49,1.82-6.5,4.13-9.41,6.37-.71.54-1.41,1.08-2.07,1.58-.62.45-.97.98-1.18,1.29-.59.72-1.26,1.48-1.91,2.2l-.18.19c-.68.73-1.38,1.47-2.15,2.24-1.76,1.79-3.68,3.52-4.94,4.65-3.45,3.01-6.38,6.5-9.21,9.88l-.35.42c-2.34,2.8-4.61,6.16-7.35,10.9-1.41,2.46-2.69,4.91-3.82,7.27-1.33,2.84-2.35,5.24-3.21,7.54-2.24,5.96-3.99,12.26-5.19,18.73l-.19,1.01-.47,2.84-.41,2.83-.11.9-.25,1.89-.22,1.81-.13.97-.1.91c-.07.59-.15,1.19-.24,1.83-.3,2.35-.35,5.2-.15,8.02.11,1.62.18,2.91.19,4.07,0,.33,0,.65,0,.94,0,0-.01.89-.01.99,0,.23.03.45.08.67l.11.52c.1.51.19,1.07.25,1.66.07.61.11,1.24.14,1.84.02.46.05.95.08,1.45l.11,1.94c.02.27.05.53.07.79l.04.38c.07.75.14,1.5.22,2.21.45,4.25,1.36,8.64,2.72,13.05.56,1.86,1.21,3.85,2.04,6.29,1.02,2.96,2.3,6.4,4.04,9.44l.95,1.67c.29.52.57,1.06.84,1.6,1.57,3.23,3.14,6.12,4.81,8.83,2.28,3.67,4.54,6.99,6.92,10.15,2.56,3.44,5.65,6.87,10.02,11.13,1.39,1.35,2.83,2.64,4.22,3.9l.64.58c.41.37.82.74,1.22,1.12.81.76,1.65,1.54,2.59,2.28,6.65,5.24,14.31,9.96,23.41,14.43,2.31,1.13,4.44,2.08,6.52,2.91,2.2.89,4.46,1.71,6.73,2.44,2.66.85,5.36,1.46,7.68,1.97.22.05.44.11.66.17l.33.09c1.94.48,4.04.98,6.27,1.38.04,0,.09.02.14.02,3.86.55,8.13.79,11.56.97,2.24.12,4.18.23,5.21.38.72.11,1.42.21,2.12.32,1.44.22,2.87.44,4.4.63l.54.06c.82.1,1.76.21,2.82.21.19,0,.38,0,.57-.01.64,0,1.29-.03,2-.06l1.07-.06c.33-.03.65-.06.98-.1h.11c2.91-.33,5.97-.69,8.66-1.41l2.25-.6c.44-.11.87-.23,1.27-.35l1.15-.32c.41-.12.83-.22,1.25-.33.35-.09.69-.18,1.07-.28.73-.2,1.47-.4,2.25-.58l.34-.08c.36-.08.71-.17,1.13-.29l1.6-.47c.8-.24,1.6-.49,2.45-.78.85-.31,1.7-.62,2.57-.95l.36-.14c.34-.13.67-.25.99-.39l1.97-.84c.59-.25,1.17-.5,1.8-.79l2.78-1.33c.31-.15.61-.29.88-.43,0,0,1.82-.95,2.14-1.11.47-.24.95-.48,1.46-.76l2.28-1.27c.58-.32,1.15-.65,1.66-.96l2.22-1.34c.23-.14.46-.27.67-.41l.91-.58,2.19-1.38c.6-.4,1.19-.8,1.78-1.21l.3-.21c1.54-1.02,2.91-2.13,4.21-3.18.32-.25.63-.53.95-.8l1.14-.98c.31-.26.63-.52.93-.76.17-.14.34-.28.51-.41.15-.12.3-.25.48-.39.44-.35.88-.7,1.32-1.05l.13-.11c.43-.35.85-.7,1.22-1.04.82-.74,1.61-1.47,2.38-2.22.03-.03.06-.06.08-.08.75-.77,1.47-1.55,2.15-2.3.4-.43.77-.88,1.13-1.33.33-.41.65-.81.94-1.18l.15-.18c.74-.93,1.44-1.8,2.14-2.59.27-.3.55-.6.82-.9.57-.62,1.14-1.25,1.72-1.85.68-.67,1.38-1.46,2.16-2.41l.23-.28c.54-.67,1.11-1.35,1.63-2.06l.56-.74c.4-.52.8-1.05,1.22-1.63l1.62-2.3c.31-.44.61-.88.89-1.32l1.09-1.65c.32-.48.68-1.02.97-1.58.43-.83.88-1.64,1.36-2.51l1.33-2.48c.39-.68.75-1.38,1.11-2.08l.7-1.33c.35-.65.69-1.31.99-1.95l1.14-2.32c.26-.55.5-1.11.75-1.67l.83-1.88c.13-.29.25-.59.36-.89l1.12-2.83c.2-.54.4-1.09.59-1.64l.71-1.99s1.2-3.73,1.2-3.73c.01-.04.72-2.5.72-2.5l.33-1.08c.2-.65.4-1.3.59-1.93l.47-1.55c.17-.58.31-1.16.44-1.73.8-3.48,1.42-7.11,1.89-11.09.43-3.49.63-7.19.62-11.35v-.78ZM132.34,200.26l-.72.18-.71.15c-.48.1-.95.19-1.37.25-1.26.18-2.52.32-3.77.47-2.26.26-4.59.53-6.96.99-.18.03-.38.02-.58.03-.22,0-.44.01-.65.02l-.34.02c-.45.03-.91.05-1.29.07l-2.61.03-3.46-.08-.86-.05-2.16-.1c-.15,0-.29,0-.44-.02l-.91-.06c-.62-.04-1.24-.08-1.91-.11-.45-.01-.9-.06-1.34-.1l-2.06-.21c-.95-.12-1.9-.27-2.85-.43l-.67-.11-.6-.12c-.97-.2-1.95-.39-2.84-.6l-2.08-.53c-.45-.12-.91-.23-1.41-.39-.39-.12-.78-.23-1.17-.33l-.53-.15c-.41-.12-.81-.23-1.15-.36-.87-.33-1.75-.65-2.55-.92l-.15-.05c-.81-.29-1.61-.58-2.47-.87-.45-.14-.89-.29-1.32-.45-.36-.13-.72-.25-1.06-.36-.33-.11-.67-.22-1-.33-.45-.15-.9-.29-1.36-.45-1.01-.35-1.99-.7-2.88-1.14-1-.48-1.89-.91-2.76-1.44l-1.73-1-1.82-1.1c-.46-.26-.92-.54-1.38-.81-.74-.44-1.48-.88-2.23-1.29l-.46-.26-.44-.27c-.33-.21-.67-.42-1-.64-.32-.21-.63-.43-.91-.62-.27-.2-.51-.41-.73-.59-.41-.35-.82-.68-1.25-1.03l-.52-.4-.56-.45c-.53-.43-1.07-.84-1.61-1.25l-.66-.5-2.17-1.76c-.7-.59-1.38-1.24-1.96-1.78-.53-.51-1.07-.75-1.41-.89-.57-.34-1.18-.75-1.91-1.29-.13-.1-.27-.2-.4-.3l-.49-.42c-.34-.3-.69-.61-1.07-.97-.58-.53-1.14-1.15-1.78-1.91l-.09-.1c-.26-.31-.52-.62-.73-.91-.27-.38-.54-.75-.79-1.13-.54-.81-1.1-1.62-1.65-2.44-1.65-2.41-3.21-4.69-4.49-7.07-.51-.95-1.03-1.9-1.57-2.87-1.17-2.12-2.37-4.32-3.41-6.47-1.83-3.85-3.46-7.94-4.85-12.22-.3-.89-.57-1.79-.83-2.7l-.29-.98c-.11-.39-.21-.78-.32-1.18l-.44-1.65-.23-.97c-.56-2.29-1.04-4.77-1.44-7.58-.69-4.92-.88-8.61-.6-11.99l.06-.69c.07-.81.13-1.64.17-2.48.07-.97.12-2.04.14-3.24.11-4.68.86-9.28,2.22-13.69,1.15-3.76,2.15-6.92,3.22-10.08l.16-.46c.24-.68.46-1.32.72-1.94l.28-.68c.23-.57.46-1.14.74-1.73l.84-1.83c.31-.62.61-1.25.9-1.87l.87-1.85c.22-.47.42-.94.62-1.41l.23-.55c.21-.48.4-.95.62-1.41.09-.2.19-.39.29-.59.1-.19.21-.37.33-.56l1.06-1.72,1.14-1.73c.26-.41.54-.81.82-1.21l.24-.35c.17-.24.33-.47.49-.71.21-.3.41-.61.63-.9.02-.03.04-.05.06-.08,1.84-2.62,3.9-5.15,6.13-7.55,2.9-3.13,5.53-5.93,8.34-8.42.29-.25.57-.49.85-.74.39-.34.78-.69,1.15-1l.53-.44c.49-.41.99-.81,1.48-1.18.46-.34.93-.65,1.4-.97l.71-.47c.45-.29.9-.59,1.3-.89,6.51-4.71,12.76-8.11,19.1-10.39,3.61-1.3,7.26-2.39,10.8-3.25.55-.12,1.1-.26,1.63-.39l.53-.14c.31-.08.62-.16.96-.23.34-.08.67-.16,1.01-.24.66-.16,1.31-.32,2.03-.44.21-.04.43-.07.65-.1l.18-.03c.57-.09,1.15-.15,1.73-.21l1.21-.13c.23-.03.45-.05.71-.07l1.32-.11c.46-.04.9-.09,1.33-.14.43-.04.85-.08,1.23-.13.85-.1,1.59-.23,2.28-.36,1.37-.25,2.51-.56,3.49-.93.13-.01.37-.03.72-.03.47,0,.85.03,1.07.06.8.36,1.74.62,3.1.94,1.32.29,2.59.62,3.93.97,2.29.6,4.66,1.21,7.52,1.69.62.11,1.24.23,1.87.36.48.1.97.19,1.45.28,1.16.26,2.33.48,3.42.65.64.11,1.28.22,1.89.33,0,0,.7.13.81.15l.95.23c.59.15,1.17.3,1.76.47.57.18,1.14.39,1.72.61l.99.37,1.1.43,2.02.76c.57.23,1.14.45,1.7.67.79.31,1.58.61,2.35.94.03.01.07.03.1.04,1.07.42,2.12.89,3.23,1.39l.68.3c.42.19.83.39,1.24.6l1.59.79c.19.1.38.2.57.31l1.96,1.08c.31.17.62.35.92.54l1.06.63c.33.2.67.39.97.59.5.33,1.01.66,1.5,1l.83.56,2.48,1.82c.56.44,1.13.87,1.72,1.31l.8.59,1.28.97c.42.31.85.63,1.21.92.58.49,1.05.91,1.41,1.27,2.96,3,5.44,5.39,7.75,7.45.75.7,1.39,1.38,1.9,2.01.71.91,1.25,1.69,1.7,2.41.44.73.91,1.51,1.48,2.33.19.26.36.53.59.89l1.31,2.02,1.07,1.78c.25.42.51.83.73,1.23l1.23,2.2c.1.18.2.36.29.55.2.38.39.76.62,1.12,1.44,2.29,2.69,4.89,4.05,8.4l.75,1.95,1.07,3.04.97,3.02.87,3.03.43,1.72c.11.45.23.9.32,1.27l.46,2.18c.1.44.16.97.23,1.53.03.28.26,2.12.26,2.12.04.47.09.94.15,1.38.04.29.08.58.12.87.06.44.13.88.17,1.34l.24,2.32c.05.44.08.88.1,1.31.02.3.15,1.99.15,1.99l.05,1.15c.18,3.26.13,6.52.07,8.95l-.07,1.85c0,.28-.02.56-.04.84-.02.3-.04.6-.05.85-.03.62-.05,1.24-.06,1.85-.03.64-.04,1.26-.03,1.88.03,2.48-.49,5.34-1.65,9-.01.04-.02.07-.03.11-.12.41-.26.82-.4,1.22l-.75,2.16c-.23.6-.46,1.21-.67,1.8-.1.27-.19.53-.28.8-.11.32-.23.65-.38,1.05-1.16,3.29-2.6,6.61-4,9.82-.4.92-.8,1.84-1.2,2.76-.11.25-.23.51-.37.79-.11.23-.23.46-.38.71l-1.1,1.87c-1.8,3.04-3.9,6.16-6.43,9.53-1.89,2.51-3.95,5.15-6.18,7.48-1.57,1.64-3.19,3.17-4.91,4.79-.86.81-1.72,1.62-2.57,2.45-1.86,1.79-4,3.61-6.49,5.54-.23.17-.46.33-.7.5-.23.16-.47.33-.67.47-2.43,1.74-5.08,3.01-7.88,4.35l-.65.31c-.82.41-1.7.77-2.63,1.16l-.51.21c-.54.21-1.08.4-1.61.59l-.8.28-.83.26c-2.35.76-4.92,1.53-8.09,2.43-3.28.93-5.84,1.62-8.32,2.22Z"/>
  <path class="cls-1" d="M144.94,138.05c.65,0,1.3-.03,1.96-.07.29-.02.59-.03.89-.04l.91.07c.67.06,1.35.11,2.03.15.31.01.62.02.94.02,1.14,0,2.28-.09,3.27-.17.75-.06,1.46-.12,1.96-.12h.03c.08,0,.16,0,.23,0,.21.08.43.17.64.25,1.69.67,3.61,1.43,6.12,1.43.17,0,.35,0,.53-.01l.65-.02c1.14-.04,2.42-.08,3.73-.43.54-.15,1.17-.31,1.79-.43.26-.05.52-.09.76-.12l.57-.06c.18-.02.37-.04.56-.05.04,0,.09,0,.13-.01,1.51-.16,2.84-.5,4.02-1.03,1.31-.57,2.52-1.34,3.61-2.3,2.02-1.8,3.5-4.19,4.28-6.91.33-1.16.51-2.39.5-3.52,0-1.16-.13-2.31-.41-3.44-.34-1.41-.94-2.76-1.71-3.87-.8-1.19-1.87-2.23-3.16-3.04l-.14-.08c-.22-.13-.43-.27-.64-.38l-.58-.31c-.31-.18-.57-.28-.72-.35-.03-.02-.07-.03-.1-.05-.07-.03-.14-.07-.23-.12l-.38-.22-.48-.26c-.35-.19-.7-.36-1.05-.53-.02,0-.1-.04-.12-.05-.48-.22-1.06-.34-1.59-.34,0,0-.47,0-.47,0l-.9.03-.29.02-.39.03c-1.13.11-2.24.33-3.31.65-.24.07-.49.1-.76.1s-.57-.03-.91-.1c-.51-.1-1.11-.2-1.78-.23-1.38-.05-2.76-.09-4.13-.13l-1.03-.03c-.18,0-.35-.02-.53-.02-.29,0-.57.02-.84.06-.67.1-1.42.15-2.28.15-.69,0-1.38-.03-2.08-.07-2.03-.11-4.07-.12-6.04-.14-.97,0-1.94-.02-2.91-.03-.17,0-.33-.04-.49-.06-.17-.03-.86-.12-.86-.12-.38-.05-.85-.12-1.38-.13-1.53-.03-3.06-.06-4.59-.06-1.95,0-3.58.05-5.14.15l-.29.02c-1.28.08-2.74.17-4.26.71-.35.12-.79.18-1.34.18-.69,0-1.48-.09-2.25-.18-.37-.04-.74-.1-1.1-.15-.95-.14-2.02-.29-3.14-.3l-2.72-.03h.03s-.27-.02-.34-.02c-.38-.05-.74-.14-1.11-.28,0,0-.06-.1-.09-.13-.12-.17-.2-.39-.23-.66v-.11s-.02-.3-.02-.3l.02-1.83c0-.76-.02-1.52-.04-2.28-.03-.96-.06-1.86-.03-2.73l.03-.89c.06-1.6.13-3.26-.12-5.06-.15-1.03-.25-2.09-.36-3.2l-.11-1.16c0-.06,0-.13,0-.2,0-.19,0-.39-.02-.58-.06-.82.06-1.71.2-2.74.08-.63.17-1.27.22-1.91.08-.98.24-2.04.51-3.26.7-3.23.93-6.54.69-9.83-.03-.38-.06-.82-.04-1.09l.02-.22c.16-1.83.34-3.89-.21-6.08,0-.14,0-.29,0-.43-.03-.89-.02-1.8,0-2.76v-.72s.02-1.03.02-1.03c0-.23,0-.45-.01-.67,0,0,0-.28,0-.29-.01-.39-.09-.77-.22-1.13,0,0-.27-.69-.27-.69-.12-.29-.25-.57-.42-.93l-.18-.35-.15-.27c-.21-.38-.44-.75-.68-1.11l-.62-.91-.33-.47c-.13-.18-.24-.33-.41-.56-.02-.03-.14-.18-.14-.18-.16-.2-.4-.5-.8-.87l-.27-.24c-.16-.14-.33-.28-.39-.33-.47-.38-.88-.68-1.25-.91-1.91-1.25-4.11-1.99-6.4-2.12-.17,0-.33-.01-.5-.01-.68,0-1.3.07-1.84.12l-.3.03c-1.71.16-3.39.76-4.86,1.72-1.43.94-2.62,2.21-3.44,3.67-.02.03-.21.4-.21.4-.16.29-.31.57-.46.89-.09.17-.18.35-.25.53l-.24.51c-.08.17-.14.35-.21.52,0,0-.19.48-.19.48-.1.24-.34.8-.35,1.56l-.05.89c-.17,1.69-.29,3.23-.07,4.97.11.9.06,1.32.04,1.46-.28,1.55-.2,2.98-.14,4.23.04.72.07,1.41.03,2.01-.04.63.07,1.56.76,2.5.46.93.58,2.13.33,3.25-.31,1.38-.43,2.68-.54,3.94-.07.77-.13,1.5-.24,2.18-.25,1.6-.26,3.17-.27,4.68,0,.42,0,.83-.01,1.25-.05,2.55-.07,4.83-.06,6.97,0,1.35.03,2.7.06,4.05.03,1.38.05,2.76.06,4.14v.97c.02,1.72.04,3.35-.24,4.84-.2,1.04-.39,2.62-.2,4.25.25,2.15.2,4.31-.15,6.65l-.05.4c-.01.09-.03.18-.04.36,0,0-.03.41-.03.44-.02.27-.04.54-.02.81,0,.21.03.41.08.62l.24,1.1c.02.07.03.14.05.21l.1.36c.11.38.24.78.43,1.23.68,1.66,1.71,3.15,2.95,4.28,1.19,1.1,2.61,2.03,4.12,2.7,1.11.49,2.24.83,3.35,1.03.04,0,.09.01.13.02l.69.09c.26.04.52.06.79.06s.56-.02.84-.06c0,0,.17-.02.17-.02.18-.02.25-.04.36-.05l.53-.1c.25-.06.5-.12.72-.19.22-.07.55-.16.66-.16,0,0,2.47.02,3,.02.41,0,1.94-.02,2.29-.02,1.24,0,2.53.04,3.82.11.62.03,1.25.05,1.88.05.83,0,1.66-.02,2.5-.05.68-.02,1.37-.04,2.05-.04,0,0,1.42-.02,1.73-.02.29,0,.59,0,.88.02.2,0,.39.04.58.07.46.07,1.02.15,1.7.15.78,0,1.55-.01,2.33-.02.97,0,1.94-.02,2.91-.02,1.66,0,3.84.02,6.03.22,2.07.18,4.14.31,6.16.38.21,0,.42.01.64.01Z"/>
</svg>