<?xml version="1.0" encoding="UTF-8"?>
<svg id="Layer_11" data-name="Layer 11" xmlns="http://www.w3.org/2000/svg" viewBox="0 0 232.35 234.02">
  <defs>
    <style>
      .cls-1 {
        fill: #737438;
      }
    </style>
  </defs>
  <path class="cls-1" d="M105.64,179.83c.04,1,.08,1.99.14,2.99.09,1.1.41,2.12.82,3.08.3.69.65,1.36,1.08,1.99.21.32.44.63.71.93.27.31.53.59.98.88.13.09.27.14.41.19.07.02.14.06.21.07.07,0,.15.01.22.01h.61s1.08,0,1.08,0c.72,0,1.44,0,2.17-.01,1.46-.02,2.94-.01,4.41,0,2.2.01,4.44.04,6.55-.06.91-.04,1.74-.08,2.7-.07,2.2.01,4.41.03,6.62.04,2.73,0,5.44.02,8.17.05.4,0,.8,0,1.2.01.35.01.71.06,1.05.14.69.17,1.35.49,1.91.93.14.11.28.23.41.35l.44.43.22.21c.06.07.13.13.19.19.12.13.23.27.34.42.42.58.72,1.25.86,1.96.06.32.1.64.1.96v1.1c0,.73,0,1.47.01,2.2,0,1.12-.06,2.23-.06,3.34.04,6.09.12,12.17.05,18.29-.01,1.56-.03,3.13-.04,4.69v2.35s-.01.59-.01.59v.29c0,.15,0,.31,0,.47.03.15.13.28.2.43.03.07.08.14.12.19l.09.15c.13.18.26.36.4.52.61.71,1.27,1.32,2.01,1.87.37.27.75.53,1.2.76.12.05.22.11.36.16l.21.07c.07.02.15.04.21.05.24.05.46.08.69.11.26.04.53.07.79.11,1.42.17,2.82.28,4.23.36,2.89.14,4.84.01,6.1-.19.66-.11,1.13-.25,1.44-.4.16,0,.32,0,.49,0,.14,0,.28,0,.42,0,.07.02.13.05.16.07.3.27.92.47,2.94.61,2.98.19,5.7.43,9.36.24.48-.03.91-.04,1.51-.12.28-.03.55-.1.82-.15.26-.07.53-.14.77-.23,1.01-.34,1.91-.8,2.69-1.33.49-.34.96-.7,1.41-1.13.23-.22.45-.44.67-.75.05-.07.13-.16.18-.27l.16-.34c.06-.11.07-.24.1-.36.05-.12.04-.24.04-.37,0-.56-.02-1.11-.03-1.68,0-.55,0-1.09,0-1.65.07-4.9-.13-9.58-.2-14.36-.03-1.99-.07-3.98-.09-5.98-.01-2.28,0-4.55-.07-6.8-.04-1.17-.08-2.43-.05-3.57.03-1.33.58-2.57,1.43-3.49.85-.93,2.01-1.53,3.24-1.71.39-.06.84-.07,1.28-.08.44-.01.88-.02,1.32-.02.88,0,1.77.02,2.67.05.64.02,1.31.05,1.97.05,2.61.02,5.23.03,7.84.05.47,0,.96.01,1.41,0,2.65-.08,5.28-.06,7.98-.04,2.31.01,4.63.03,6.95.04h1.74s.47,0,.47,0c.1,0,.21,0,.31,0l.28-.14.82-.4.4-.2.2-.1c.07-.03.17-.09.23-.14.27-.18.51-.39.74-.61.46-.45.83-.98,1.12-1.53.36-.69.63-1.41.81-2.14.19-.73.29-1.52.33-2.23.33-4.98.38-9.95.27-14.91-.05-1.93-.12-3.86-.32-5.66-.16-1.32-.26-2.67-.4-4.05-.03-.34-.06-.69-.12-1.04-.05-.35-.08-.69-.16-1.05-.04-.18-.06-.35-.12-.54-.06-.2-.14-.36-.23-.53-.17-.33-.37-.63-.57-.93-.62-.86-1.29-1.65-2.16-2.34-.1-.08-.23-.16-.39-.26l-.24-.13-.06-.03h-.07s-.13,0-.13,0l-.83-.02-1.53-.02c-3.68,0-7.39-.05-11.04.08-1.07.04-2.28.01-3.42,0l-9.47-.03c-1.34,0-2.69.01-4.03.02h-2.01c-.66,0-1.37.03-1.96-.03-1.29-.14-2.5-.79-3.35-1.75-.86-.95-1.36-2.21-1.4-3.51-.07-2.34-.11-4.73-.16-7.1,0-.46,0-.94-.01-1.4-.04-2.79.09-5.43.13-8.15.03-1.98.1-3.96.18-5.87.1-2.27.17-4.55.2-6.86.02-1.15.02-2.31.02-3.48v-1.02c-.01-.06,0-.12-.03-.18l-.08-.16c-.06-.11-.1-.22-.18-.32-.12-.2-.21-.3-.32-.44-.42-.52-.87-.94-1.35-1.35-.71-.59-1.45-1.14-2.37-1.58-.19-.09-.44-.17-.64-.22-.2-.05-.39-.08-.57-.11-.37-.06-.73-.11-1.1-.16-.72-.09-1.44-.15-2.16-.2-1.43-.09-2.85-.12-4.26-.08-.41.01-.93-.02-1.4-.02-3.83-.04-7.65-.08-11.48.12-2,.1-4,.21-6.02.35-.5.04-1.01.08-1.51.13-.25.02-.51.05-.76.08-.13.01-.26.03-.39.05l-.2.03c-.09,0-.18.03-.27.07-.63.24-1.04.53-1.48.85-.43.32-.83.66-1.21,1.02-.33.31-.65.65-.94,1.02-.08.09-.15.19-.22.29-.08.1-.13.19-.22.32-.09.14-.16.29-.24.43-.05.15-.02.32-.03.48-.08,2.85-.05,5.67.06,8.32.08,1.92.07,3.7.03,5.5-.04,2.21-.08,4.35-.02,6.58.03,1.3.05,2.75,0,4-.11,3.08.04,6.16-.02,9.19-.01.13.03.27.04.43.02.64-.12,1.33-.41,2-.29.66-.77,1.28-1.36,1.78-.6.49-1.32.86-2.09,1.03-.38.09-.77.13-1.16.13-.39,0-.8-.02-1.2-.04-3.07-.14-6.2-.13-9.26-.23-2.76-.09-5.71-.06-8.57-.07-3.61,0-7.22,0-10.83,0h-3.22s-.4.01-.4.01h-.55c-.18.09-.35.18-.52.29-.14.09-.25.18-.37.26-.46.36-.86.76-1.24,1.17-.38.41-.73.84-1.06,1.31-.16.23-.32.48-.46.74-.14.25-.29.6-.33.87-.26,1.15-.32,2.21-.41,3.29-.24,3.43-.27,6.85-.43,10.25-.07,1.59-.09,3.39-.04,4.99.07,2.02.14,4.01.21,6Z"/>
  <g>
    <path class="cls-1" d="M138.98,69.28c0-.73-.02-1.48-.08-2.22-.03-.45-.07-.9-.12-1.38-.05-.41-.12-.85-.22-1.36-.27-1.42-.44-2.91-.61-4.49-.1-.88-.19-1.77-.31-2.65-.26-2.01-.52-3.83-1-5.67-1.02-3.94-2.16-7.04-3.55-9.73-.2-.4-.41-.82-.62-1.31-.08-.17-.16-.34-.23-.51-.15-.32-.29-.64-.43-.93-1.29-2.65-2.75-5.21-4.36-7.62-.61-.91-1.28-1.84-2.2-3.06-.67-.86-1.39-1.77-2.29-2.87-.78-.95-1.63-1.96-2.54-2.95l-.18-.2c-.17-.18-.33-.36-.51-.54l-.66-.66c-.42-.42-.88-.85-1.5-1.39-1.91-1.66-3.51-2.97-5.07-4.14-.17-.12-.34-.25-.5-.39-.15-.12-.31-.24-.48-.37-.67-.49-1.32-.99-1.97-1.49-1.27-.97-2.58-1.98-4-2.91l-.67-.43c-1.26-.82-2.56-1.66-3.83-2.43-3.77-2.3-7.84-4.02-12.13-5.12-.74-.18-1.51-.38-2.21-.57-2.21-.62-5.14-1.34-8.15-1.39-.11,0-.35-.03-.55-.06-.17-.02-.34-.04-.53-.06-1.86-.16-3.54-.31-5.27-.36-.64-.02-1.29-.03-1.93-.03-1.24,0-2.37.04-3.48.13-4.22.34-7.7.78-10.97,1.38-.37.07-.75.16-1.13.24-.39.08-.78.17-1.12.23-1.21.22-2.51.54-3.99,1-.75.25-1.33.45-1.89.66l-.28.11c-.49.19-1,.39-1.47.61-1.53.67-2.95,1.23-4.5,1.84-2.3.91-4.05,1.75-5.67,2.73-.29.18-.59.36-.9.54l-.62.37c-.25.15-.49.29-.77.44-.23.13-.46.26-.68.38-2.15,1.12-4,2.54-5.79,3.92-.43.33-.87.67-1.28.97-.38.28-.6.6-.73.8-.36.45-.77.91-1.18,1.35l-.11.12c-.42.45-.85.91-1.32,1.38-1.08,1.1-2.26,2.17-3.04,2.86-2.12,1.85-3.92,4-5.67,6.07l-.22.26c-1.44,1.73-2.83,3.79-4.52,6.71-.87,1.52-1.66,3.02-2.35,4.47-.82,1.75-1.44,3.22-1.97,4.64-1.38,3.66-2.45,7.54-3.19,11.52l-.12.62-.29,1.75-.25,1.74-.07.56-.15,1.16-.13,1.12-.08.6-.06.56c-.04.37-.09.73-.15,1.12-.18,1.45-.22,3.2-.09,4.93.07.99.11,1.79.12,2.51,0,.2,0,.4,0,.58,0,0,0,.55,0,.61,0,.14.02.28.05.41l.07.32c.06.31.11.66.15,1.02.04.38.07.76.09,1.13.01.28.03.59.05.89l.07,1.19c.01.16.03.32.04.48l.02.24c.04.46.09.92.14,1.36.27,2.61.84,5.32,1.67,8.03.35,1.14.74,2.37,1.26,3.87.63,1.82,1.41,3.94,2.48,5.81l.58,1.03c.18.32.35.65.52.99.96,1.99,1.93,3.76,2.96,5.43,1.4,2.26,2.79,4.3,4.25,6.24,1.58,2.12,3.48,4.23,6.17,6.85.86.83,1.74,1.63,2.6,2.4l.39.36c.25.22.5.46.75.69.5.47,1.02.95,1.59,1.4,4.09,3.22,8.8,6.13,14.4,8.88,1.42.69,2.73,1.28,4.01,1.79,1.36.55,2.75,1.05,4.14,1.5,1.64.52,3.3.9,4.73,1.21.14.03.27.07.41.1l.21.05c1.19.29,2.49.6,3.85.85.03,0,.06,0,.08.01,2.37.34,5,.48,7.11.6,1.38.08,2.57.14,3.21.23.44.06.87.13,1.31.2.89.14,1.77.27,2.71.39l.33.04c.51.06,1.08.13,1.73.13.12,0,.23,0,.35,0,.39,0,.79-.02,1.23-.04l.66-.04c.2-.02.4-.04.6-.06h.07c1.79-.2,3.67-.43,5.33-.87l1.38-.37c.27-.07.54-.14.78-.21l.71-.2c.25-.07.51-.14.77-.2.21-.05.43-.11.66-.17.45-.13.91-.24,1.39-.36l.21-.05c.22-.05.44-.11.7-.18l.98-.29c.49-.15.98-.3,1.51-.48.52-.19,1.05-.38,1.58-.58l.22-.08c.21-.08.41-.16.61-.24l1.21-.52c.36-.15.72-.31,1.11-.49l1.71-.82c.19-.09.38-.18.54-.27,0,0,1.12-.58,1.31-.68.29-.15.58-.3.9-.47l1.4-.78c.36-.2.71-.4,1.02-.59l1.37-.82c.14-.08.28-.17.41-.25l.56-.36,1.35-.85c.37-.24.73-.49,1.09-.74l.18-.13c.95-.63,1.79-1.31,2.59-1.96.2-.16.39-.32.58-.49l.7-.6c.19-.16.39-.32.57-.47.11-.08.21-.17.31-.25.09-.08.19-.15.3-.24.27-.21.54-.43.81-.65l.08-.07c.26-.22.53-.43.75-.64.5-.45.99-.91,1.47-1.37.02-.02.03-.03.05-.05.46-.48.91-.95,1.32-1.41.24-.26.47-.54.69-.82.2-.25.4-.5.58-.73l.09-.11c.46-.57.89-1.11,1.32-1.59.17-.18.34-.37.5-.55.35-.38.7-.77,1.06-1.14.42-.41.85-.9,1.33-1.48l.14-.17c.33-.41.68-.83,1-1.27l.35-.46c.25-.32.49-.65.75-1l1-1.42c.19-.27.38-.54.55-.81l.67-1.02c.2-.29.42-.62.6-.97.27-.51.54-1.01.84-1.54l.82-1.53c.24-.42.46-.85.68-1.28l.43-.82c.21-.4.43-.8.61-1.2l.7-1.43c.16-.34.31-.68.46-1.03l.51-1.16c.08-.18.15-.36.22-.54l.69-1.74c.12-.33.24-.67.36-1.01l.44-1.22s.74-2.3.74-2.3c0-.02.44-1.53.44-1.53l.2-.67c.12-.4.25-.8.36-1.19l.29-.95c.1-.36.19-.71.27-1.07.49-2.14.87-4.38,1.16-6.82.26-2.15.39-4.42.38-6.98v-.48ZM81.41,123.19l-.45.11-.44.09c-.29.06-.58.12-.84.16-.78.11-1.55.2-2.32.29-1.39.16-2.83.33-4.28.61-.11.02-.23.01-.36.02-.14,0-.27,0-.4.02h-.21c-.28.03-.56.04-.79.05l-1.6.02-2.13-.05-.53-.03-1.33-.06c-.09,0-.18,0-.27-.01l-.56-.04c-.38-.03-.76-.05-1.18-.07-.28,0-.55-.04-.83-.06l-1.27-.13c-.59-.07-1.17-.17-1.75-.26l-.41-.07-.37-.07c-.6-.12-1.2-.24-1.75-.37l-1.28-.33c-.28-.07-.56-.14-.87-.24-.24-.07-.48-.14-.72-.21l-.33-.09c-.25-.07-.5-.14-.7-.22-.54-.21-1.08-.4-1.57-.56l-.09-.03c-.5-.18-.99-.36-1.52-.53-.27-.09-.55-.18-.81-.28-.22-.08-.44-.15-.65-.22-.21-.07-.41-.14-.62-.2-.28-.09-.55-.18-.84-.28-.62-.22-1.23-.43-1.77-.7-.61-.29-1.16-.56-1.7-.88l-1.06-.61-1.12-.68c-.28-.16-.57-.33-.85-.5-.45-.27-.91-.54-1.37-.8l-.29-.16-.27-.17c-.2-.13-.41-.26-.61-.39-.2-.13-.39-.26-.56-.38-.16-.12-.32-.25-.45-.36-.25-.21-.5-.42-.77-.63l-.32-.25-.34-.28c-.33-.26-.66-.52-.99-.77l-.41-.31-1.33-1.08c-.43-.36-.85-.76-1.2-1.1-.32-.31-.66-.46-.87-.55-.35-.21-.73-.46-1.18-.79-.08-.06-.16-.12-.25-.19l-.3-.26c-.21-.18-.42-.37-.66-.59-.36-.32-.7-.71-1.09-1.17l-.05-.06c-.16-.19-.32-.38-.45-.56-.17-.23-.33-.46-.49-.7-.33-.5-.68-1-1.02-1.5-1.02-1.49-1.98-2.89-2.76-4.35-.31-.58-.64-1.17-.96-1.77-.72-1.3-1.46-2.65-2.09-3.98-1.13-2.37-2.13-4.89-2.98-7.52-.19-.55-.35-1.1-.51-1.66l-.18-.6c-.07-.24-.13-.48-.19-.72l-.27-1.01-.14-.6c-.35-1.41-.64-2.94-.89-4.66-.43-3.02-.54-5.3-.37-7.38l.03-.42c.04-.5.08-1.01.11-1.53.05-.6.07-1.25.09-1.99.07-2.88.53-5.71,1.37-8.42.71-2.31,1.32-4.26,1.98-6.2l.1-.29c.15-.42.28-.81.44-1.19l.17-.42c.14-.35.28-.7.45-1.07l.51-1.13c.19-.38.37-.77.55-1.15l.53-1.14c.13-.29.26-.58.38-.87l.14-.34c.13-.3.25-.58.38-.87.06-.12.11-.24.18-.36.06-.11.13-.23.2-.35l.65-1.06.7-1.06c.16-.25.33-.5.5-.75l.15-.22c.1-.14.2-.29.3-.44.13-.19.25-.37.39-.56.01-.02.02-.03.04-.05,1.13-1.61,2.4-3.17,3.77-4.64,1.78-1.93,3.4-3.65,5.13-5.18.18-.15.35-.3.52-.46.24-.21.48-.42.71-.61l.33-.27c.3-.25.61-.5.91-.73.28-.21.57-.4.86-.6l.44-.29c.28-.18.55-.36.8-.55,4-2.9,7.85-4.99,11.75-6.39,2.22-.8,4.47-1.47,6.65-2,.34-.08.67-.16,1.01-.24l.33-.08c.19-.05.38-.1.59-.14.21-.05.41-.1.62-.15.4-.1.81-.19,1.25-.27.13-.03.27-.04.4-.06l.11-.02c.35-.06.71-.09,1.06-.13l.75-.08c.14-.02.28-.03.43-.04l.81-.07c.28-.03.56-.05.82-.09.27-.02.52-.05.76-.08.52-.06.98-.14,1.4-.22.84-.15,1.55-.34,2.15-.57.08,0,.23-.02.44-.02.29,0,.52.02.66.03.49.22,1.07.38,1.91.58.81.18,1.59.38,2.42.6,1.41.37,2.87.75,4.62,1.04.38.07.76.14,1.15.22.3.06.59.12.89.17.71.16,1.43.3,2.1.4.39.07.79.13,1.16.2,0,0,.43.08.5.09l.58.14c.36.09.72.19,1.08.29.35.11.7.24,1.06.37l.61.22.67.27,1.24.47c.35.14.7.28,1.05.41.49.19.97.38,1.45.58.02,0,.04.02.06.03.66.26,1.3.55,1.99.85l.42.19c.26.12.51.24.76.37l.98.49c.12.06.23.12.35.19l1.2.66c.19.1.38.22.57.33l.65.39c.2.12.41.24.6.36.31.2.62.41.92.61l.51.35,1.53,1.12c.35.27.7.54,1.06.8l.49.36.79.6c.26.19.52.39.74.57.36.3.65.56.87.78,1.82,1.85,3.35,3.31,4.77,4.58.46.43.86.85,1.17,1.24.43.56.77,1.04,1.05,1.48.27.45.56.93.91,1.43.12.16.22.33.36.55l.81,1.24.66,1.09c.16.26.31.51.45.76l.76,1.36c.06.11.12.22.18.34.12.23.24.47.38.69.88,1.41,1.65,3.01,2.49,5.16l.46,1.2.66,1.87.6,1.86.53,1.86.26,1.06c.07.28.14.56.19.78l.28,1.34c.06.27.1.6.14.94.02.17.16,1.31.16,1.31.03.29.06.58.09.85.02.18.05.36.07.54.04.27.08.54.11.83l.15,1.43c.03.27.05.54.06.81.01.19.09,1.22.09,1.22l.03.71c.11,2,.08,4.01.04,5.51l-.04,1.14c0,.17-.02.35-.03.52-.01.18-.02.37-.03.52-.02.38-.03.76-.03,1.14-.02.39-.02.78-.02,1.15.02,1.53-.3,3.29-1.01,5.54,0,.02-.01.05-.02.07-.07.25-.16.5-.25.75l-.46,1.33c-.14.37-.28.74-.41,1.11-.06.16-.12.33-.17.49-.07.2-.14.4-.23.64-.71,2.03-1.6,4.07-2.46,6.04-.25.57-.49,1.13-.74,1.7-.07.16-.14.31-.23.49-.07.14-.14.28-.23.43l-.67,1.15c-1.11,1.87-2.4,3.79-3.95,5.86-1.16,1.54-2.43,3.17-3.8,4.6-.96,1.01-1.96,1.95-3.02,2.94-.53.5-1.06,1-1.58,1.51-1.15,1.1-2.46,2.22-3.99,3.41-.14.11-.29.21-.43.31-.14.1-.29.2-.41.29-1.49,1.07-3.12,1.85-4.85,2.68l-.4.19c-.51.25-1.05.48-1.62.71l-.31.13c-.33.13-.67.25-.99.36l-.49.17-.51.16c-1.44.47-3.03.94-4.98,1.5-2.02.57-3.59.99-5.12,1.37Z"/>
    <path class="cls-1" d="M89.16,84.92c.4,0,.8-.02,1.2-.04.18,0,.36-.02.54-.03l.56.05c.41.03.83.07,1.25.09.19,0,.38.01.58.01.7,0,1.4-.06,2.01-.11.46-.04.9-.07,1.21-.07h.02c.05,0,.1,0,.14,0,.13.05.26.1.39.15,1.04.41,2.22.88,3.76.88.11,0,.22,0,.33,0l.4-.02c.7-.02,1.49-.05,2.29-.27.33-.09.72-.19,1.1-.27.16-.03.32-.06.46-.07l.35-.04c.11-.01.23-.02.34-.03.03,0,.05,0,.08,0,.93-.1,1.75-.31,2.48-.64.81-.35,1.55-.82,2.22-1.41,1.24-1.11,2.15-2.58,2.63-4.25.21-.72.31-1.47.31-2.16,0-.71-.08-1.42-.25-2.11-.21-.87-.58-1.7-1.05-2.38-.49-.73-1.15-1.37-1.94-1.87l-.08-.05c-.13-.08-.27-.16-.4-.23l-.36-.19c-.19-.11-.35-.17-.44-.21-.02-.01-.04-.02-.06-.03-.04-.02-.09-.04-.14-.07l-.24-.14-.29-.16c-.22-.11-.43-.22-.64-.33-.01,0-.06-.03-.07-.03-.29-.14-.65-.21-.98-.21,0,0-.29,0-.29,0l-.55.02h-.18s-.24.03-.24.03c-.69.07-1.38.2-2.04.4-.15.04-.3.06-.47.06s-.35-.02-.56-.06c-.31-.06-.68-.12-1.1-.14-.85-.03-1.69-.06-2.54-.08l-.63-.02c-.11,0-.22,0-.32,0-.18,0-.35.01-.52.04-.42.06-.87.09-1.4.09-.42,0-.85-.02-1.28-.04-1.25-.07-2.51-.08-3.72-.08-.6,0-1.19,0-1.79-.02-.1,0-.2-.02-.3-.04-.11-.02-.53-.07-.53-.07-.23-.03-.52-.07-.85-.08-.94-.02-1.88-.04-2.83-.04-1.2,0-2.2.03-3.16.09h-.18c-.79.06-1.69.12-2.62.45-.22.08-.48.11-.82.11-.42,0-.91-.06-1.39-.11-.23-.03-.45-.06-.68-.09-.58-.08-1.25-.18-1.93-.19l-1.67-.02h.02s-.17,0-.21-.01c-.23-.03-.46-.08-.69-.17,0,0-.04-.06-.05-.08-.07-.1-.12-.24-.14-.41v-.07s-.01-.19-.01-.19v-1.13c.01-.47,0-.94-.02-1.41-.02-.59-.04-1.14-.02-1.68l.02-.54c.04-.99.08-2.01-.08-3.11-.09-.63-.15-1.28-.22-1.97l-.07-.71s0-.08,0-.12c0-.12,0-.24-.01-.36-.03-.5.04-1.05.12-1.68.05-.39.1-.78.13-1.18.05-.6.15-1.26.31-2,.43-1.99.57-4.02.42-6.04-.02-.24-.04-.5-.02-.67v-.14c.11-1.13.22-2.39-.12-3.74,0-.09,0-.18,0-.26-.02-.55-.01-1.11,0-1.7v-.44s.01-.64.01-.64c0-.14,0-.28,0-.42,0,0,0-.17,0-.18,0-.24-.05-.47-.14-.7,0,0-.16-.42-.16-.42-.07-.18-.15-.35-.26-.57l-.11-.22-.09-.16c-.13-.23-.27-.46-.42-.68l-.38-.56-.2-.29c-.08-.11-.15-.2-.26-.34-.01-.02-.09-.11-.09-.11-.1-.12-.25-.31-.49-.54l-.16-.15c-.1-.09-.2-.17-.24-.2-.29-.23-.54-.42-.77-.56-1.17-.77-2.53-1.22-3.94-1.31-.1,0-.2,0-.31,0-.42,0-.8.04-1.13.08l-.18.02c-1.05.1-2.08.46-2.99,1.06-.88.58-1.61,1.36-2.12,2.26-.01.02-.13.24-.13.24-.1.18-.19.35-.28.55-.06.11-.11.21-.16.32l-.14.32c-.05.11-.09.21-.13.32,0,0-.12.29-.12.3-.06.15-.21.49-.21.96l-.03.55c-.1,1.04-.18,1.99-.04,3.06.07.55.04.81.02.9-.17.95-.12,1.83-.08,2.6.02.44.05.87.02,1.24-.02.39.04.96.47,1.54.28.57.36,1.31.2,2-.19.85-.26,1.65-.33,2.42-.04.47-.08.92-.15,1.34-.16.99-.16,1.95-.17,2.88,0,.26,0,.51,0,.77-.03,1.57-.04,2.97-.03,4.29,0,.83.02,1.66.04,2.49.02.85.03,1.7.04,2.55v.59c.02,1.06.03,2.06-.15,2.98-.12.64-.24,1.61-.12,2.61.15,1.32.12,2.65-.09,4.09l-.03.24c0,.06-.02.11-.02.22,0,0-.02.25-.02.27-.01.17-.02.33-.02.5,0,.13.02.25.05.38l.15.68s.02.08.03.13l.06.22c.06.24.15.48.27.76.42,1.02,1.05,1.93,1.82,2.63.73.68,1.61,1.25,2.53,1.66.69.3,1.38.51,2.06.63.03,0,.06,0,.08.01l.42.05c.16.03.32.04.48.04s.34-.02.51-.04c0,0,.11-.01.11-.01.11-.01.16-.02.22-.03l.32-.06c.15-.03.3-.07.44-.11.13-.04.34-.1.41-.1,0,0,1.52.01,1.85.01.25,0,1.19-.01,1.41-.01.76,0,1.55.02,2.35.07.38.02.77.03,1.16.03.51,0,1.02-.01,1.53-.03.42-.01.84-.02,1.26-.03,0,0,.87-.01,1.06-.01.18,0,.36,0,.54.01.12,0,.24.03.36.05.28.04.63.09,1.04.09.48,0,.96,0,1.43-.01.6,0,1.19-.01,1.79-.01,1.02,0,2.36.02,3.71.13,1.27.11,2.55.19,3.79.24.13,0,.26,0,.39,0Z"/>
  </g>
</svg>