<?xml version="1.0" encoding="UTF-8"?>
<svg id="Layer_11" data-name="Layer 11" xmlns="http://www.w3.org/2000/svg" viewBox="0 0 314.01 288">
  <defs>
    <style>
      .cls-1 {
        fill: #737438;
      }
    </style>
  </defs>
  <path class="cls-1" d="M313.94,236.38c-.1-2.73-.32-5.43-.58-8.13-.52-5.4-1.22-10.76-1.58-16.18-.3-4.52-.79-9.03-.9-13.56-.13-5.16-.02-10.31-.77-15.41-.39-2.65-.83-5.49-.6-8.11.57-6.71,0-13.06-1.72-19.17-1.13-4-1.05-7.97-.33-12.06.26-1.46.5-2.96.56-4.46.21-5.92.35-11.85.5-17.77.03-1.06.14-2.17,0-3.19-.82-6-.68-11.95-.38-18.08.51-10.47.38-21.01.56-31.52.03-1.63.34-3.25.52-4.88.18-1.64.49-3.27.52-4.91l.14-8.42.04-4.21c0-.16,0-.4,0-.6v-.62s-.04-1.24-.04-1.24c-.06-.83-.11-1.66-.2-2.48-.73-6.61-3.09-13.06-6.87-18.44-1.46-2.1-3.07-4.08-4.91-5.76-1.83-1.69-3.88-3.09-6.09-4-3.23-1.31-6.19-2.82-9.28-4.24-3.07-1.43-6.24-2.83-9.6-3.79-2.46-.72-5.03-1.3-7.62-1.59-2.31-.29-4.62-.52-6.93-.54-5.01-.04-10.05-.21-15.07-.04-3.97.07-7.94.32-11.87.97-.44.07-.89.12-1.35.15-1.48-.01-2.99-.11-4.47-.13-7.15-.1-14.3-.33-21.45-.34-2.3,0-4.61.05-6.91.12-1.31.03-2.61.07-3.92.11-2.48.06-4.95.09-7.42.02-4.65-.14-9.25-.42-13.88-.23-2.35.03-4.71.17-7.08.48-5.31.71-10.72,1.12-16.1,1.64-.17.02-.34.02-.52.03-.23,0-.45.01-.68.03-.66.01-1.32.01-1.98.05-.15,0-.3.01-.45.02-5.45,0-10.71-1.07-16.09-1.48-4.5-.34-8.98-1.05-13.31-1.93C106.8.67,97.64-.1,88.28.24c-1.92.04-3.85.12-5.79.25-.71.05-1.42.1-2.13.13-.63,0-1.25-.02-1.86-.07-4.09-.33-8.16-.7-12.19-.5-3.02.03-6.03.31-9.02,1.13-.09.03-.2.04-.3.06-.32-.01-.63-.02-.94,0-2.16.07-4.32.08-6.48.06l-1.62-.02h-.82s-.97,0-.97,0c-.59,0-1.18.02-1.77.05h-.17c-1.29,0-2.58.09-3.87.2-5.14.5-10.24,2.01-14.69,4.61-4.64,2.71-8.85,6.02-12.51,9.87-3.66,3.85-6.77,8.27-9.05,13.15-1,2.11-1.61,4.44-2.4,6.57-.16.45-.32.9-.47,1.36-.14.46-.26.92-.38,1.39-.26.93-.41,1.88-.57,2.82-.14.95-.22,1.91-.27,2.86-.01.48-.02.95-.03,1.43v.7l.02.59c.13,3.16.5,6.27,1.05,9.26.8,4.35.72,8.39.35,12.46-.45,5-.83,9.85-.23,14.91.34,2.86.51,6.04.09,8.83-.01,1.7-.04,3.4.02,5.1.11,3.02.86,5.68,1.63,8.54.13.49.14,1.01.14,1.51.02,1.74.04,3.48.06,5.22,0,.32,0,.64.11.94.09.26.24.5.39.73,3.87,6.09,4.33,14.62,2.88,21.5-1.11,5.28-1.32,10.64-1.8,15.95-.13.64-.26,1.27-.4,1.9-.29,1.32-.56,2.64-.8,3.97-.06.58-.11,1.15-.16,1.73-1.31,13.79-2.09,27.52-1.97,41.46.08,9.74.41,19.48.48,29.23.03,3.87.13,7.74.05,11.6-.02,2.17.04,4.43.22,6.65.19,2.23.47,4.46.82,6.73.35,2.11.97,4.33,1.88,6.43.91,2.1,2.13,4.08,3.52,5.74,3.5,4.17,7.39,7.76,11.66,10.84,4.27,3.08,8.92,5.65,13.99,7.6l1.38.48.7.23.71.2,1.43.38c.48.11.96.2,1.45.3.97.21,1.95.31,2.94.44.49.06.99.08,1.48.11l.74.04.37.02h.31c.97.04,1.94.06,2.91.06,2.05.02,4.11-.02,6.18-.1.89-.03,1.77-.06,2.66-.1.36-.02.73-.03,1.09-.04.79-.02,1.58-.03,2.38-.04,1.53,0,3.07.01,4.6.05,1.96.05,3.94.12,5.9.13.47,0,.94,0,1.4,0,.02-.02.03-.04.05-.06,3.19.04,6.36-.07,9.42-.76,2.05-.46,3.94-.87,6.12-.78,4.99.2,9.99.43,14.99.45,6.19.03,12.33.2,18.52.53,7.37.39,14.85-.18,22.29-.34,3.32-.07,6.65-.24,9.97-.18.27,0,.55.02.82.04-.05.05-.1.11-.15.16,1.82.19,3.64.49,5.44.44,2.47-.07,4.94-.15,7.41-.24,2.2-.08,4.4-.16,6.6-.24,7.45-.26,14.89-.47,22.36-.28-.02-.03-.04-.06-.06-.08,2.19.04,4.38.11,6.58.22,2.05.11,4.11.2,6.17.28.03.04.05.07.08.11,4.53.16,9.06.27,13.59.3,1.1,0,2.19-.02,3.29-.07,3.03-.08,6.07-.37,9.11-.56.36,0,.71.03,1.07.05,3.17.17,6.34.4,9.51.51.38.01.75.01,1.12.01-.09-.03-.17-.05-.25-.08-.01,0-.02,0-.03-.01.2,0,.41.02.61.03,4.09.13,7.35-.39,9.93-1.37.82.02,1.62.17,2.44.23,1.36.11,2.77-.34,4.15-.42,1.59-.09,3.18-.02,4.76.2.29.04.59.09.88.05.25-.04.49-.14.73-.2,1.17-.31,2.33.16,3.49.25,1.25.1,2.54.09,3.8.09.05,0,.1,0,.14,0,.8,0,1.6-.01,2.4-.06,2.55-.04,5.13-.31,7.75-.96,1.11-.25,2.19-.62,3.31-1.01,1.08-.44,2.2-.9,3.27-1.49,2.17-1.15,4.29-2.65,6.24-4.59,2.01-1.98,3.96-4.14,5.62-6.46,1.66-2.32,3-4.81,3.8-7.29,1.02-3.12,1.75-6.25,2.33-9.38.58-3.13,1.02-6.26,1.42-9.48.13-.89.18-1.78.23-2.67.05-.98.06-1.56.06-2.27.01-1.37-.01-2.74-.07-4.1ZM59.79,67.05c.07-.15.17-.29.25-.44.1-.13.19-.27.26-.38.21-.33.46-.59.71-.82.25-.21.5-.39.81-.56.61-.36,1.56-.62,2.71-.62,1.13-.02,2.28-.03,3.43-.03.61,0,1.22,0,1.83.02.79.02,1.5.05,2.26.2.83.16,1.88.15,2.84.19.7.03,1.44-.02,2.13.04,3.08.27,6.2.17,9.3.13,2.11-.03,4.19-.16,6.34.01,1.46.12,3.04,0,4.56-.03,1.52-.04,3.04-.08,4.56-.12,2.84-.05,5.71-.02,8.53-.15,3.2-.14,6.37-.15,9.56,0,.54.02,1.12.03,1.64-.02,2.37-.24,4.31.19,6.14.68.91.25,1.71.44,2.86.34.48-.04,1.08.04,1.56.12,1.46.25,2.88.35,4.44.11.84-.12,1.8-.14,2.71-.14l13.55.03c.77,0,1.64,0,2.3-.12,2-.4,3.92-.23,5.87,0,.7.08,1.37.02,2.07,0,1.78-.04,3.58-.37,5.39-.05.24.04.59,0,.88-.03,2.99-.21,5.98-.25,8.98-.02.41.03.85.01,1.28.01,1.45,0,2.9-.02,4.35-.03.54,0,1.08-.06,1.62-.1.89-.05,1.78-.16,2.67-.15,1.89.01,3.78.12,5.66.11,2.67-.02,5.34-.12,8.01-.19.3,0,.6-.08.9-.07,3.28.07,6.41-.29,9.59-.51,2.27-.16,4.57-.32,6.86-.35,1.8-.02,3.69.08,5.39.3,3.09.41,6.25.31,9.39.39,1.82.05,3.64.11,5.46.12,1.21,0,2.43-.09,3.64-.09l5.66.1c.33,0,.67,0,.97.03.16.01.32.02.47.04l.41.08c.29.05.51.13.75.2.25.07.45.15.65.22.6.2,1.23.66,1.68,1.32.45.65.71,1.48.7,2.27,0,.4-.07.77-.17,1.11-.1.34-.25.61-.42.9-.37.57-.83,1.23-1.69,1.83l-2.7,1.87-1.68,1.13c-1.91,1.28-3.85,2.54-5.71,3.88-1.76,1.27-3.4,2.69-5.17,3.94-1.93,1.37-3.93,2.71-5.92,3.88-1.69.99-3.28,2.04-4.86,3.19l-.22.16h0s-.07.1-.07.1c-.1.12-.21.23-.32.33-.22.2-.51.42-.68.53-.19.13-.37.25-.54.37l-.49.31c-.08.05-.05.04-.11.08l-.23.17-.92.68c-.1.07-.2.18-.28.22-2.45,1.2-4.25,3.14-6.39,4.68-1.72,1.24-3.32,2.6-5.2,3.64-.66.36-1.31.89-1.96,1.33-1.97,1.32-3.92,2.73-5.92,3.94-2.12,1.29-3.96,2.83-5.92,4.25-.24.18-.49.43-.71.54-2.67,1.27-4.93,3.22-7.3,4.97-1.94,1.46-3.88,2.92-5.82,4.38-.53.39-1.12.72-1.68,1.07-1.91,1.2-3.69,2.54-5.5,3.87-1.1.81-2.3,1.5-3.43,2.27-1.18.81-2.38,1.62-3.55,2.38-1.71,1.11-3.36,2.33-5.07,3.42-.46.29-1.02.57-1.35.89-.99.95-2.2,1.4-3.26,2.2-.29.22-.61.34-.9.38-.16.04-.56.19-.91.17-.35-.02-1.25-.31-1.4-.32-.16-.02-.23,0-.36,0-.24,0-.52-.03-.85-.1-1.58-.32-5.33-1.98-7.31-3.58-1.69-1.17-3.27-2.36-4.6-3.72-.19-.19-.46-.39-.71-.55-2.82-1.87-5.58-3.87-8.47-5.58-.31-.18-.62-.4-.91-.61-2.25-1.67-4.5-3.33-6.75-5-1.18-.84-2.36-1.69-3.53-2.54-1.69-1.25-3.41-2.44-5.01-3.81-1.19-1.02-2.65-1.96-4.03-2.83-2.69-1.69-5.24-3.54-7.79-5.44-1.55-1.15-3.23-2.16-4.85-3.23-.3-.2-.63-.34-.93-.55-.87-.61-1.7-1.16-2.5-1.92-1.66-1.58-3.69-2.91-5.65-4.25-.28-.19-.6-.41-.85-.59h0s-.15-.11-.28-.19l-.4-.26c-.28-.18-.56-.37-.86-.58-.31-.22-.59-.42-1.01-.81l-.17-.17s-.15-.16-.22-.25l-.04-.05.06.06h0s-.02-.04-.02-.04l-.09-.09-2.04-1.49c-1.55-1.11-3.14-2.17-4.69-3.28-.73-.52-1.37-1.14-2.08-1.69-.85-.66-1.71-1.35-2.61-1.92-1.97-1.25-3.73-2.69-5.57-4.07-.34-.25-.68-.53-1.03-.73-.93-.54-1.86-1.09-2.79-1.65l-1.38-.85-.69-.43-.17-.11-.29-.19-.59-.39c-.77-.52-1.6-1.04-2.36-1.59-.39-.28-.66-.57-.95-.86-.12-.14-.22-.28-.33-.42-.11-.14-.21-.28-.28-.41-.16-.27-.31-.51-.41-.83-.11-.31-.18-.66-.21-1.03-.05-.74.1-1.53.44-2.21ZM261.75,112.8c-.02,2.34-.04,4.69-.06,7.03-.06,3.4-.06,6.78-.25,10.17-.15,2.52-.08,5.33,0,7.96.16,5.13.11,10.22.03,15.36-.05,3.11.08,6.27.15,9.41.01.58.08,1.15.08,1.73,0,1.71.02,3.33-.14,5.09-.33,3.65-.23,7.56-.18,11.39,0,.58.02,1.17,0,1.76-.05,3.44-.09,6.88-.14,10.33,0,3.08,0,6.17.01,9.26-.01,1.45-.14,2.87-.19,4.33-.02.87-.05,1.75-.08,2.63,0,.44-.01.88-.02,1.31v.67c-.02.34-.05.69-.1,1.03-.26,1.35-.79,2.32-1.35,3.26-.56.93-1.22,1.72-1.9,2.5-.71.75-1.43,1.47-2.24,2.11-.39.33-.83.63-1.25.93-.22.15-.45.28-.68.43-.22.14-.45.28-.71.4-.36.18-.72.38-1.14.52-.2.08-.4.16-.59.23-.22.06-.43.12-.64.19l-.42.12c-.16.03-.32.05-.48.07-.3.04-.7.08-.86.08l-1.28.06c-.87.03-1.74.07-2.62.1-1.75.05-3.5.1-5.25.16-3.51.08-7.04.13-10.59.15-.39,0-.81-.02-1.15.02-3.79.34-7.71.34-11.68.26-1.28-.02-2.42-.07-3.66-.22-1.35-.17-3.04-.17-4.59-.22-1.14-.04-2.33.01-3.44-.06-4.99-.3-10.03-.22-15.04-.21-3.42.01-6.77.13-10.25-.07-2.36-.13-4.92-.02-7.38,0-2.46.03-4.91.06-7.38.09-4.59.04-9.21.03-13.77.19-5.17.18-10.29.24-15.45.16-.88-.01-1.82-.01-2.66.05-3.84.28-6.97-.1-9.94-.57-1.47-.23-2.77-.41-4.63-.3-.78.05-1.75-.02-2.53-.1-2.36-.24-4.66-.31-7.19-.08-1.35.13-2.92.14-4.38.15l-21.92-.04c-1.25,0-2.65,0-3.72.12-3.23.39-6.33.23-9.49-.01-1.13-.08-2.22-.02-3.35,0-.15,0-.42,0-.67-.02-.24-.02-.51-.02-.74-.07-.45-.1-.93-.19-1.33-.36l-.62-.23-.57-.28c-.39-.18-.74-.39-1.1-.61-1.4-.88-2.59-1.96-3.54-3.26-.25-.34-.67-.78-1.01-1.18-.85-1.03-1.62-2.14-2.17-3.57l-.18-.58c-.06-.2-.12-.38-.14-.63-.03-.23-.06-.46-.08-.7-.01-.2,0-.32-.01-.48l-.02-1.81c0-2.42.04-4.84.15-7.27.03-.67.01-1.38.01-2.07,0-2.35-.02-4.7-.03-7.04,0-.88-.06-1.75-.1-2.62-.05-1.44-.16-2.89-.15-4.32.01-3.05.12-6.11.11-9.16-.02-4.32-.12-8.64-.19-12.96,0-.49-.08-.97-.07-1.45.07-5.3-.29-10.36-.51-15.51-.16-3.68-.32-7.39-.35-11.1-.02-2.91.08-5.96.3-8.72.41-5.01.31-10.11.39-15.19.05-2.94.11-5.89.12-8.83,0-1.96-.09-3.93-.09-5.89v-.64c0-.26,0-.52.03-.77,0-.13.01-.26.03-.38.02-.12.05-.24.07-.37.03-.12.04-.24.08-.36l.12-.35c.33-.93.95-1.73,1.73-2.3.77-.59,1.74-.89,2.7-.95.97-.05,1.94.22,2.8.73l.33.19c.59.4,1.19.8,1.78,1.2.5.34,1.01.67,1.51.97,5.04,3.08,9.95,6.36,14.85,9.7,3.07,2.1,6.14,4.22,9.25,6.25l1.11.71.28.18.12.08.05.02s.03.02.11.06l.37.19c.24.13.52.28.72.39l.58.34,1.16.68c1.52.9,3.02,1.81,4.49,2.77,3.21,2.1,6.42,4.3,9.43,6.53,2.53,1.88,5.07,3.64,7.71,5.38l6.16,4.06c.16.11.37.21.49.31,3.33,2.8,7.11,4.71,10.67,7,2.87,1.86,5.8,3.59,8.54,5.68.96.73,2.11,1.43,3.17,2.16,3.17,2.16,6.42,4.29,9.48,6.51.83.59,1.6,1.16,2.32,1.54.72.4,1.38.59,1.94.59.55,0,1.17-.2,1.87-.57.69-.37,1.43-.89,2.25-1.45.4-.27.83-.64,1.19-.83,4.2-2.2,8.03-5.1,11.95-7.8,3.23-2.24,6.44-4.48,9.66-6.72.87-.6,1.82-1.14,2.73-1.71,3.06-1.93,6.02-4.03,9.01-6.1,1.81-1.26,3.73-2.4,5.58-3.63,1.92-1.28,3.89-2.57,5.79-3.78,2.79-1.78,5.51-3.66,8.3-5.41.75-.47,1.64-.94,2.22-1.41,1.73-1.39,3.59-2.22,5.42-3.42.26-.17.49-.3.77-.42.3-.13.58-.22.82-.28.06-.01.13-.03.16-.03,0,0,.18.04.23.06.1.04.13-.15,1.5-1.7,1.64-1.85,6.64-6.1,10.17-8.22,2.77-1.83,5.48-3.54,8.19-4.91.38-.19.84-.49,1.24-.76,2.4-1.61,4.81-3.23,7.21-4.85,1.07-.69,2.27-1,3.47-.92,1.2.07,2.35.54,3.27,1.31.9.78,1.6,1.83,1.87,3.03.03.15.07.3.1.45l.04.48c.04.31.04.64.04.97l.02.67.02.51c.03.58.03,1.19.02,1.77-.08,4.52-.16,9.04-.24,13.57Z"/>
</svg>