<?xml version="1.0" encoding="UTF-8"?>
<svg id="Layer_11" data-name="Layer 11" xmlns="http://www.w3.org/2000/svg" viewBox="0 0 227.23 221.97">
  <defs>
    <style>
      .cls-1 {
        fill: #737438;
      }
    </style>
  </defs>
  <path class="cls-1" d="M156.59,192.97c-.1,1.55-.51,3.11-1.17,4.51-.66,1.4-1.54,2.64-2.52,3.73l-.75.79-.78.73c-.26.25-.54.46-.8.69l-.4.34c-.13.11-.33.23-.49.35l-.51.34-.44.27-.86.52-1.68.99c-4.25,2.51-8.72,4.43-13.06,6.65-.53.27-1.17.51-1.59.81-2.97,2.08-6.34,3.45-9.75,4.82-1.01.41-2.05.92-3.05,1.42-.7.33-1.37.66-2.1.98l-1.11.47c-.26.09-.55.19-.82.27l-.42.12-.37.06c-.99.16-1.93.18-2.82.11-.9-.06-1.75-.21-2.56-.4-1.63-.38-3.13-.94-4.54-1.59-1.41-.65-2.75-1.39-4.01-2.2-2.14-1.36-4.26-2.81-6.39-4.23-1.46-.98-2.83-2.04-4.21-3.1-.69-.53-1.37-1.07-2.06-1.61-.7-.53-1.41-1.05-2.16-1.55-.51-.32-.96-.73-1.45-1.06l-1.87-1.32c-.63-.44-1.25-.88-1.85-1.35-1.22-.92-2.44-1.84-3.64-2.75-1.41-1.12-2.78-2.3-4.06-3.56-1.26-1.27-2.53-2.55-3.76-3.87-1.16-1.27-2.38-2.49-3.57-3.73-1.18-1.26-2.36-2.52-3.51-3.8-1.31-1.54-2.62-3.09-3.91-4.65l-3.76-4.76c-.89-1.17-1.75-2.44-2.7-3.45-1.61-1.71-3.05-3.58-4.48-5.47-1.38-1.92-2.72-3.87-4.04-5.82-1.44-2.18-2.68-4.49-3.92-6.79-1.74-3.09-3.39-6.25-5.71-8.78-.78-.88-1.49-1.84-2.17-2.85-.68-1.01-1.34-2.05-1.97-3.11-.82-1.36-1.63-2.72-2.43-4.1-.77-1.39-1.52-2.79-2.27-4.19-.76-1.4-1.45-2.83-2.16-4.25-.7-1.43-1.42-2.85-2.07-4.3-.39-.84-.7-1.72-1.04-2.58-.34-.86-.65-1.72-1.01-2.57-2.44-5.42-4.75-10.93-6.7-16.53-.55-1.65-1.1-3.26-1.69-4.86-.55-1.61-1.14-3.2-1.81-4.77-.24-.53-.37-1.15-.54-1.73-.45-1.62-.94-3.23-1.36-4.86-.41-1.63-.82-3.26-1.21-4.9-.17-.83-.29-1.68-.39-2.51-.07-.58-.15-1.15-.25-1.71-.11-.56-.21-1.12-.31-1.68-.23-1.11-.52-2.21-.93-3.29-.32-.83-.56-1.68-.79-2.55-.23-.87-.43-1.75-.62-2.64-.2-.89-.28-1.82-.39-2.75-.09-.93-.17-1.88-.22-2.84,0-1.51-.24-3.13-.45-4.66-.31-3.04-.09-5.98.17-8.98.24-2.63.47-5.25,1.06-7.97.19-.81.39-1.64.65-2.48.26-.84.58-1.71,1.06-2.63.12-.23.27-.47.4-.7.15-.24.33-.48.51-.72l.32-.37.16-.18c.06-.06.08-.08.12-.13l.46-.46c.62-.65,1.2-1.15,1.8-1.71,2.38-2.11,4.82-4.01,7.47-5.73,2.41-1.55,4.51-3.31,6.62-5.14,1.69-1.45,3.85-2.78,5.86-4.08,1.96-1.27,3.82-2.16,5.7-2.87.93-.35,1.92-.69,2.79-.94.91-.28,1.87-.58,2.88-.86,1.37-.39,2.4-.44,3.12-.29.72.15,4.43-.11,4.9-.21.96-.22,2.2-.21,3.63.19,1.42.4,3.03,1.17,4.66,2.53.39.34.78.69,1.15,1.08.38.4.71.75,1.12,1.31.6.87,1.04,1.63,1.52,2.42.17.29.34.58.52.85,1.25,1.85,2.52,3.66,3.64,5.56,2.04,3.46,3.99,6.96,5.86,10.48,1.36,2.56,2.76,5.09,4.17,7.62l2.11,3.82c.35.65.7,1.29,1.04,1.97.17.33.34.68.52,1.05.04.09.09.18.13.29l.15.35c.1.26.18.54.26.81l.18.9.13.85c.07.57.13,1.15.15,1.74.05,1.17-.03,2.38-.25,3.56-.31,1.68-1.12,3.23-1.96,4.66-1.1,1.89-2.49,3.54-4,4.94-3.42,3.12-7.28,5.34-11.03,7.14-1.57.75-3.12,1.49-4.53,2.27-.7.39-1.38.8-1.95,1.23-.15.1-.28.21-.41.32-.12.1-.26.23-.31.28-.14.13-.26.27-.36.44-.17.26-.25.57-.22.88l.02.23.05.31c.06.3.12.61.2.93.29,1.27.67,2.59,1.07,3.9.35,1.15.82,2.09,1.35,3.11,1.23,2.37,2.12,5.05,3.1,7.65.65,1.73,1.35,3.47,2.1,5.14.76,1.62,1.52,3.28,2.23,4.93.75,1.64,1.4,3.31,2.09,4.96,1.84,4.63,4.17,9.04,7.08,13.19.56.83,1.14,1.73,1.68,2.65.54.92,1.02,1.87,1.49,2.75,1.94,3.83,4.53,7.29,7.11,10.72,3.29,4.3,6.84,8.38,10.55,12.3.76.84,1.57,1.63,2.36,2.44.79.81,1.58,1.62,2.4,2.39l.79.76.32.31c.05.05.11.11.16.15l.22-.06c.29-.07.57-.16.86-.25l.48-.18c.25-.09.49-.2.74-.31,3.13-1.35,6.2-3.47,9.41-5.02,1.78-.86,3.56-1.81,5.46-2.6,1.89-.78,3.9-1.46,5.99-1.61,1.07-.09,2.18-.09,3.28-.06,1.1.08,2.21.22,3.29.47.28.05.53.15.8.21.26.08.54.13.79.23.51.19,1.05.34,1.54.56.25.1.51.2.76.3.25.1.48.22.73.33.25.11.49.21.73.32.26.16.52.31.78.47.28.17.52.23.65.39l.51.65.46.63.46.62.44.62c.6.82,1.16,1.64,1.73,2.46,1.11,1.65,2.16,3.33,3,5.13.68,1.46,1.66,3.04,2.58,4.42,1.59,2.38,2.81,4.84,4.03,7.39.5,1.05.99,2.01,1.58,3,.58.98,1.24,1.96,1.98,2.96,1.01,1.38,2.02,2.88,2.88,4.58.86,1.68,1.57,3.57,1.88,5.63.18,1.22.37,2.56.28,3.91Z"/>
  <path class="cls-1" d="M100.52,73.07c.04,1,.08,1.99.14,2.99.09,1.1.41,2.12.82,3.08.3.69.65,1.36,1.08,1.99.21.32.44.63.71.93.27.31.53.59.98.88.13.09.27.14.41.19.07.02.14.06.21.07.07,0,.15.01.22.01h.61s1.08,0,1.08,0c.72,0,1.44,0,2.17-.01,1.46-.02,2.94-.01,4.41,0,2.2.01,4.44.04,6.55-.06.91-.04,1.74-.08,2.7-.07,2.2.01,4.41.03,6.62.04,2.73,0,5.44.02,8.17.05.4,0,.8,0,1.2.01.35.01.71.06,1.05.14.69.17,1.35.49,1.91.93.14.11.28.23.41.35l.44.43.22.21c.06.07.13.13.19.19.12.13.23.27.34.42.42.58.72,1.25.86,1.96.06.32.1.64.1.96v1.1c0,.73,0,1.47.01,2.2,0,1.12-.06,2.23-.06,3.34.04,6.09.12,12.17.05,18.29-.01,1.56-.03,3.13-.04,4.69v2.35s-.01.59-.01.59v.29c0,.15,0,.31,0,.47.03.15.13.28.2.43.03.07.08.14.12.19l.09.15c.13.18.26.36.4.52.61.71,1.27,1.32,2.01,1.87.37.27.75.53,1.2.76.12.05.22.11.36.16l.21.07c.07.02.15.04.21.05.24.05.46.08.69.11.26.04.53.07.79.11,1.42.17,2.82.28,4.23.36,2.89.14,4.84.01,6.1-.19.66-.11,1.13-.25,1.44-.4.16,0,.32,0,.49,0,.14,0,.28,0,.42,0,.07.02.13.05.16.07.3.27.92.47,2.94.61,2.98.19,5.7.43,9.36.24.48-.03.91-.04,1.51-.12.28-.03.55-.1.82-.15.26-.07.53-.14.77-.23,1.01-.34,1.91-.8,2.69-1.33.49-.34.96-.7,1.41-1.13.23-.22.45-.44.67-.75.05-.07.13-.16.18-.27l.16-.34c.06-.11.07-.24.1-.36.05-.12.04-.24.04-.37,0-.56-.02-1.11-.03-1.68,0-.55,0-1.09,0-1.65.07-4.9-.13-9.58-.2-14.36-.03-1.99-.07-3.98-.09-5.98-.01-2.28,0-4.55-.07-6.8-.04-1.17-.08-2.43-.05-3.57.03-1.33.58-2.57,1.43-3.49.85-.93,2.01-1.53,3.24-1.71.39-.06.84-.07,1.28-.08.44-.01.88-.02,1.32-.02.88,0,1.77.02,2.67.05.64.02,1.31.05,1.97.05,2.61.02,5.23.03,7.84.05.47,0,.96.01,1.41,0,2.65-.08,5.28-.06,7.98-.04,2.31.01,4.63.03,6.95.04h1.74s.47,0,.47,0c.1,0,.21,0,.31,0l.28-.14.82-.4.4-.2.2-.1c.07-.03.17-.09.23-.14.27-.18.51-.39.74-.61.46-.45.83-.98,1.12-1.53.36-.69.63-1.41.81-2.14.19-.73.29-1.52.33-2.23.33-4.98.38-9.95.27-14.91-.05-1.93-.12-3.86-.32-5.66-.16-1.32-.26-2.67-.4-4.05-.03-.34-.06-.69-.12-1.04-.05-.35-.08-.69-.16-1.05-.04-.18-.06-.35-.12-.54-.06-.2-.14-.36-.23-.53-.17-.33-.37-.63-.57-.93-.62-.86-1.29-1.65-2.16-2.34-.1-.08-.23-.16-.39-.26l-.24-.13-.06-.03h-.07s-.13,0-.13,0l-.83-.02-1.53-.02c-3.68,0-7.39-.05-11.04.08-1.07.04-2.28.01-3.42,0l-9.47-.03c-1.34,0-2.69.01-4.03.02h-2.01c-.66,0-1.37.03-1.96-.03-1.29-.14-2.5-.79-3.35-1.75-.86-.95-1.36-2.21-1.4-3.51-.07-2.34-.11-4.73-.16-7.1,0-.46,0-.94-.01-1.4-.04-2.79.09-5.43.13-8.15.03-1.98.1-3.96.18-5.87.1-2.27.17-4.55.2-6.86.02-1.15.02-2.31.02-3.48v-1.02c-.01-.06,0-.12-.03-.18l-.08-.16c-.06-.11-.1-.22-.18-.32-.12-.2-.21-.3-.32-.44-.42-.52-.87-.94-1.35-1.35-.71-.59-1.45-1.14-2.37-1.58-.19-.09-.44-.17-.64-.22-.2-.05-.39-.08-.57-.11-.37-.06-.73-.11-1.1-.16-.72-.09-1.44-.15-2.16-.2-1.43-.09-2.85-.12-4.26-.08-.41.01-.93-.02-1.4-.02-3.83-.04-7.65-.08-11.48.12-2,.1-4,.21-6.02.35-.5.04-1.01.08-1.51.13-.25.02-.51.05-.76.08-.13.01-.26.03-.39.05l-.2.03c-.09,0-.18.03-.27.07-.63.24-1.04.53-1.48.85-.43.32-.83.66-1.21,1.02-.33.31-.65.65-.94,1.02-.08.09-.15.19-.22.29-.08.1-.13.19-.22.32-.09.14-.16.29-.24.43-.05.15-.02.32-.03.48-.08,2.85-.05,5.67.06,8.32.08,1.92.07,3.7.03,5.5-.04,2.21-.08,4.35-.02,6.58.03,1.3.05,2.75,0,4-.11,3.08.04,6.16-.02,9.19-.01.13.03.27.04.43.02.64-.12,1.33-.41,2-.29.66-.77,1.28-1.36,1.78-.6.49-1.32.86-2.09,1.03-.38.09-.77.13-1.16.13-.39,0-.8-.02-1.2-.04-3.07-.14-6.2-.13-9.26-.23-2.76-.09-5.71-.06-8.57-.07-3.61,0-7.22,0-10.83,0h-3.22s-.4.01-.4.01h-.55c-.18.09-.35.18-.52.29-.14.09-.25.18-.37.26-.46.36-.86.76-1.24,1.17-.38.41-.73.84-1.06,1.31-.16.23-.32.48-.46.74-.14.25-.29.6-.33.87-.26,1.15-.32,2.21-.41,3.29-.24,3.43-.27,6.85-.43,10.25-.07,1.59-.09,3.39-.04,4.99.07,2.02.14,4.01.21,6Z"/>
</svg>