<?xml version="1.0" encoding="UTF-8"?>
<svg id="Layer_11" data-name="Layer 11" xmlns="http://www.w3.org/2000/svg" viewBox="0 0 119.08 225.33">
  <defs>
    <style>
      .cls-1 {
        fill: #737438;
      }
    </style>
  </defs>
  <path class="cls-1" d="M118.67,21.65c-.09-.6-.02-1.38-.03-2.07-.05-2.83-.01-5.66,0-8.49v-4.53c.01-1.12-.04-2.22-.39-3.15-.37-.95-1.07-1.8-1.95-2.34-.94-.58-1.97-.75-3.1-.75l-2.84.05c-1.48.03-2.97.04-4.46.03-2.97,0-5.95-.07-8.93-.15-1.29-.03-2.61,0-3.86-.08-4.18-.31-8.4-.17-12.32.22-1.42.14-2.8.21-4.15.22-.68,0-1.34,0-2.01-.02-.71.01-1.49-.01-2.22.04-3.64.22-7.01,1.27-10.07,3-1.78,1.02-3.67,2.22-5.37,3.16-4.22,2.37-7.43,5.91-10.7,9.27-.16.16-.2.45-.31.7-1.96,4.02-4.74,8.33-7.4,12.38-2.58,3.91-4.2,8.71-4.47,13.63-.32,4.09-.23,8.46-.26,12.72-.04,5.35-.06,10.71-.04,16.07l.04,4.68c0,.42.04.85,0,1.27-.08.42-.36.8-.75.98-.4.19-.84.11-1.27.14l-2.05.02-4.78.03c-5.06.02-10.13.14-15.16-.33-.59-.06-1.2-.1-1.81-.14l-.51-.03-.73-.02c-.49-.02-.99-.03-1.47,0-.95.06-1.83.29-2.6.8-.76.5-1.36,1.23-1.7,2.03-.44,1-.46,2.09-.42,3.26.03.87.05,1.73.08,2.6.04,1.48.05,2.95.03,4.42-.03,2.94-.16,5.87-.38,8.8-.31,4.21-.36,8.48-.25,12.78.03,1.09.04,2.18.05,3.27,0,1.36,0,2.72,0,4.08.05,1.31.38,2.5,1.2,3.51.79.99,1.95,1.67,3.16,1.87.61.12,1.28.14,1.95.12l1-.02.69-.03c.8-.04,1.6-.11,2.38-.2,1.34-.16,2.58-.31,4.01-.28,3.27.07,6.54.15,9.81.16,2.03.02,4.05.04,6.06.05l1.25.03.62.03c.41,0,.8.28.93.67.07,4.19.14,8.45.2,12.69.02,2.18.09,4.35.06,6.53-.02,1.66-.23,3.32-.21,4.95.14,9.04.46,18.06.2,27.13-.13,4.63-.21,9.29-.23,13.94-.01,2.55.15,5.11.22,7.67.01.38,0,.76-.02,1.14-.06,2.08-.12,4.15-.18,6.23-.12,6.5,1.15,9.8,2.8,11.14v.72c0,.21.03.41.08.61-.07.12-.13.24-.2.32-.38.39-.68,1.06-.17,2.1.27.5.77,1.1,1.67,1.49.22.1.47.18.73.25.13.03.26.05.4.08l.23.06c.31.08.65.16,1.03.23,4.41.89,8.43,1.98,13.81,1.95,2.76-.01,5.68.08,8.23-.2,3.2-.36,6.35-.64,9.65-.52l.68.02,1.04.02c.83,0,1.69.05,2.46-.1,1.49-.26,2.89-1.07,3.84-2.28.96-1.23,1.38-2.64,1.35-4.28l-.03-1.22-.03-.95-.07-1.33c-.19-3.53-.44-7.04-.56-10.59-.11-2.96-.28-5.91-.32-8.88-.05-3.38,0-6.75-.27-10.09-.14-1.73-.3-3.59-.22-5.31.2-4.39,0-8.55-.62-12.55-.4-2.62-.38-5.22-.12-7.89.09-.95.18-1.94.2-2.92.06-3.88.12-7.75.18-11.63.01-.7.05-1.42,0-2.09-.29-3.93-.24-7.83-.14-11.84.03-1.47.07-2.93.1-4.4-.03-.49.17-1,.57-1.3.4-.34.94-.31,1.42-.29,3.27.02,6.54.04,9.81.06,1.07.01,2.13.12,3.19.19,1.07.06,2.14.17,3.21.19l7.59.06h2.24c.99.01,1.92-.04,2.77-.39.86-.34,1.61-.95,2.14-1.71.54-.77.77-1.64.92-2.6l.49-3.89.39-3.41c.3-2.84.64-5.68.53-8.39-.16-3.97.66-8.04,1.47-12.06l.94-4.44.23-1.11.23-1.18c.18-1.05.41-2.16.34-3.14-.02-.44-.11-.89-.27-1.31l-.06-.16s-.46-.58-.37-.68l-.05-.07c-.06-.1-.14-.19-.21-.28-.58-.72-1.41-1.22-2.28-1.43-.85-.21-1.85-.22-2.84-.21h-2.28c-2.73.03-5.46.11-8.17.35-1.59.14-3.38.04-5.07.03l-14.04-.12h-.99c-.31,0-.63.04-.93-.05-.61-.16-1.09-.71-1.15-1.34-.02-.31-.02-.63-.03-.94v-1.2s0-2.98,0-2.98c.07-4.17.23-8.29-.07-12.45-.13-1.74-.23-3.5-.32-5.26l-.13-2.64-.03-.65c-.02-.17,0-.33.01-.5,0-.17.05-.33.09-.49.04-.17.08-.35.16-.53.2-.57.54-1.14.88-1.7,1-1.69,2.35-3.17,3.81-4.42.72-.64,1.5-1.19,2.27-1.7.39-.21.78-.47,1.15-.61.16-.08.33-.15.49-.19.16-.06.33-.1.5-.1.4-.02,1.25.05,1.96.09.73.05,1.46.11,2.19.16,1.46.12,2.9.26,4.31.42,3.36.37,6.75.62,10.18.75,1.71.06,3.43.09,5.16.09h1c.36,0,.72,0,1.07-.02.72-.02,1.37-.14,1.98-.35,1.24-.42,2.34-1.39,2.92-2.59.44-.88.57-1.84.59-2.9,0-.53,0-1.05,0-1.57v-.55s.02-.48.02-.48c.19-4.25.41-8.47-.21-12.62Z"/>
</svg>