<?xml version="1.0" encoding="UTF-8"?>
<svg id="Layer_11" data-name="Layer 11" xmlns="http://www.w3.org/2000/svg" viewBox="0 0 314.01 288">
  <defs>
    <style>
      .cls-1 {
        fill: #737438;
      }
    </style>
  </defs>
  <path class="cls-1" d="M121.65,168.68c-.08-1.17-.3-2.61.02-3.76.05-.17.05-.38.05-.57-.07-2.17-.02-4.34-.26-6.49-.03-.23-.02-.47-.02-.7.07-1.79.15-3.58.22-5.37.03-.93.02-1.86.06-2.78.05-1.34.05-2.68.24-4.03.14-1,.07-2.11,0-3.15-.15-2.03-.1-4.04-.02-6.08.05-1.23-.08-2.48-.14-3.72-.01-.23-.08-.46-.08-.69,0-.68-.02-1.32.13-2.01.31-1.45.22-2.99.17-4.51,0-.23-.02-.46,0-.69.04-1.36.11-2.72.13-4.09.02-1.22-.03-2.44,0-3.66.01-.57.14-1.14.17-1.71.05-.69.12-1.39.07-2.07-.01-.19-.02-.37-.03-.56v-.28c0-.09,0-.19-.01-.24,0-.13,0-.25-.01-.38-.02-.14-.03-.29-.04-.43-.07-.6-.17-1.25-.35-1.91-.06-.24-.12-.5-.23-.72-.59-1.16-1.23-2.33-1.87-3.49-.32-.58-.65-1.16-.98-1.71-.08-.14-.16-.27-.24-.38-.07-.11-.17-.25-.26-.38l-.54-.79c-.08-.12-.15-.25-.24-.34-.27-.23-.53-.46-.77-.71-.25-.24-.46-.52-.71-.76-.49-.5-.91-1.06-1.41-1.57-.15-.17-.3-.33-.43-.51-.07-.09-.13-.18-.19-.27-.06-.09-.13-.18-.19-.28-.13-.22-.31-.43-.51-.63-.2-.2-.4-.42-.62-.6-.31-.28-.68-.5-.96-.79-1.32-1.28-2.98-2.15-4.65-2.9-.58-.23-1.17-.44-1.75-.66-.6-.19-1.17-.42-1.76-.69-.4-.17-.84-.29-1.28-.4-.22-.06-.45-.09-.68-.13-.23-.04-.45-.07-.68-.11l-.67-.12c-.22-.03-.45-.05-.68-.07l-1.35-.14c-.42-.03-.84-.06-1.27-.09-.21-.01-.42-.04-.63-.04h-.64c-.42-.01-.85-.03-1.27-.01-.42.03-.84.06-1.26.1-.47.03-.94.11-1.41.17-.47.07-.94.09-1.4.18-.46.07-.93.14-1.39.19-.46.08-.92.16-1.39.22-.16.02-.32.05-.48.09-.16.05-.31.1-.45.17-.64.3-1.26.41-1.86.5-.6.08-1.21.04-1.8.05-.29,0-.57,0-.85.06-.14.03-.28.06-.42.11-.14.06-.28.14-.43.24-.24.17-.6.26-.9.33-.46.08-.87.25-1.27.46-.4.21-.79.45-1.11.83-.18.19-.39.37-.61.55-.22.17-.46.33-.67.51-2.19,1.65-4.15,3.61-5.74,5.84-.29.37-.56.82-.68,1.22-.08.3-.19.59-.32.85-.11.26-.24.51-.39.77-.29.5-.63,1-.98,1.5-.25.36-.36.77-.51,1.17-.39,1.03-.48,2.16-1.09,3.12-.08.13-.09.34-.13.51-.15.89-.29,1.76-.38,2.57-.02.2-.05.4-.05.59l-.02.28-.02.35c-.02.48-.06.96-.12,1.44-.03.26-.01.55-.01.82,0,.93,0,1.86.03,2.79,0,.35.06.69.09,1.04.05.57.15,1.14.14,1.71,0,1.21-.12,2.42-.1,3.62.02,1.71.11,3.42.17,5.13,0,.19.07.38.07.57-.07,2.1.28,4.1.48,6.14.15,1.46.31,2.92.33,4.39.02,1.15-.07,2.36-.28,3.45-.38,1.98-.29,4-.37,6.01-.04,1.16-.1,2.33-.11,3.5,0,.78.09,1.55.08,2.33,0,.97-.07,1.94-.09,2.91-.01.51-.05,1.02,0,1.52.2,2.33.18,4.67.1,7.02-.05,1.47-.13,2.95-.1,4.42.01.69.07,1.39.13,2.08l.02.26v.13s.01.03.02.04v.02s.03.09.04.14c.03.09.07.17.11.24.09.17.24.3.42.38.05.02.09.04.14.05l.08.02h.04s0,.01.03.01h.07c.38.03.75.07,1.12.11,1.25.15,2.47.2,3.72.17l2.92-.06c.08,0,.17-.03.23-.01,1.71.43,3.37-.07,5.05-.11,1.36-.03,2.7-.21,4.06.01.48.08,1.01.02,1.52.04,1.52.05,3.06.02,4.55.17,1.59.15,3.11-.03,4.67-.07.19,0,.42-.07.57-.03,1.87.46,3.77.17,5.65.1,1.56-.06,3.1-.18,4.66-.24.42-.02.85.05,1.27.08,1.44.1,2.87.03,4.31-.02.87-.03,1.75.08,2.63.09,1.89.02,3.8-.03,5.69.11.49.03.96.15,1.38-.05.84-.39.7-1.24.47-1.98-.49-1.55-.58-3.19-.69-4.81Z"/>
  <path class="cls-1" d="M313.94,236.38c-.1-2.72-.32-5.43-.58-8.13-.52-5.4-1.22-10.76-1.58-16.18-.3-4.52-.79-9.03-.9-13.56-.13-5.16-.02-10.31-.77-15.41-.39-2.65-.83-5.49-.6-8.11.57-6.71,0-13.06-1.72-19.17-1.13-4-1.05-7.97-.33-12.06.26-1.46.5-2.96.56-4.46.21-5.92.35-11.85.5-17.77.03-1.07.14-2.17,0-3.19-.82-6-.68-11.95-.38-18.08.51-10.47.37-21.01.56-31.52.03-1.63.34-3.25.52-4.88.18-1.64.49-3.27.52-4.91l.14-8.42.04-4.21c0-.16,0-.4,0-.6v-.62s-.04-1.24-.04-1.24c-.06-.83-.11-1.66-.2-2.48-.73-6.61-3.09-13.06-6.87-18.43-1.46-2.1-3.07-4.08-4.91-5.77-1.83-1.69-3.88-3.09-6.09-4-3.23-1.31-6.19-2.82-9.28-4.24-3.07-1.43-6.24-2.83-9.6-3.79-2.47-.72-5.03-1.3-7.62-1.59-2.31-.29-4.62-.52-6.93-.54-5.01-.04-10.05-.21-15.07-.04-3.97.07-7.94.32-11.87.97-.44.07-.89.12-1.35.15-1.48-.01-2.99-.11-4.47-.13-7.15-.1-14.3-.33-21.45-.34-2.3,0-4.61.05-6.91.12-1.31.03-2.61.07-3.92.11-2.48.06-4.95.09-7.42.02-4.65-.14-9.25-.42-13.88-.23-2.35.03-4.71.17-7.07.48-5.32.7-10.72,1.12-16.1,1.64-.17.02-.34.02-.52.03-.23,0-.45.01-.68.03-.66.01-1.32.01-1.98.05-.15,0-.3.01-.45.02-5.45,0-10.71-1.07-16.09-1.48-4.5-.34-8.98-1.05-13.31-1.93C106.8.67,97.64-.1,88.28.24c-1.92.04-3.85.12-5.79.25-.71.05-1.42.1-2.13.13-.63,0-1.25-.02-1.86-.07-4.09-.33-8.16-.7-12.19-.5-3.03.03-6.03.31-9.02,1.13-.09.03-.2.04-.3.05-.32-.01-.63-.02-.94,0-2.16.07-4.32.08-6.48.06l-1.62-.02h-.82s-.97,0-.97,0c-.59,0-1.18.02-1.77.05h-.17c-1.29,0-2.58.09-3.87.2-5.14.5-10.24,2.01-14.69,4.61-4.64,2.71-8.85,6.02-12.51,9.87-3.66,3.85-6.77,8.27-9.05,13.15-1,2.11-1.61,4.44-2.4,6.57-.16.45-.32.9-.47,1.36-.14.46-.26.92-.38,1.39-.26.93-.41,1.88-.57,2.82-.14.95-.22,1.91-.28,2.86-.01.48-.02.95-.03,1.43v.7s.02.59.02.59c.13,3.16.5,6.27,1.05,9.26.8,4.35.72,8.39.35,12.46-.45,5-.83,9.85-.23,14.91.34,2.86.51,6.04.09,8.83-.01,1.7-.04,3.4.02,5.1.11,3.02.86,5.68,1.63,8.54.13.49.14,1.01.14,1.51.02,1.74.04,3.48.06,5.22,0,.32,0,.64.11.94.09.26.24.5.39.73,3.87,6.09,4.33,14.62,2.88,21.5-1.11,5.28-1.32,10.64-1.8,15.95-.13.64-.26,1.27-.4,1.9-.29,1.32-.56,2.64-.8,3.97-.05.58-.11,1.15-.16,1.73-1.31,13.79-2.09,27.52-1.97,41.46.09,9.74.41,19.48.48,29.23.03,3.87.13,7.74.05,11.6-.02,2.17.04,4.43.22,6.65.19,2.23.47,4.46.82,6.73.35,2.11.97,4.33,1.88,6.43.91,2.1,2.13,4.08,3.52,5.73,3.5,4.17,7.39,7.76,11.66,10.84,4.27,3.08,8.92,5.65,13.99,7.6l1.38.48.7.23.71.2,1.43.38c.48.11.96.2,1.45.3.97.21,1.95.31,2.94.44.49.06.99.08,1.48.11l.74.04.37.02h.31c.97.04,1.94.06,2.91.06,2.05.02,4.11-.02,6.18-.1.89-.03,1.77-.06,2.66-.1.36-.02.73-.03,1.09-.04.79-.02,1.58-.03,2.38-.04,1.53,0,3.07.01,4.6.05,1.96.04,3.94.12,5.9.13.47,0,.94,0,1.4,0,.02-.02.03-.04.05-.06,3.19.04,6.36-.07,9.42-.76,2.05-.46,3.94-.87,6.12-.78,4.99.2,9.99.43,14.99.45,6.19.03,12.33.2,18.52.53,7.37.39,14.85-.18,22.29-.34,3.32-.07,6.65-.24,9.97-.18.27,0,.55.02.82.04-.05.05-.1.11-.15.16,1.82.19,3.64.49,5.44.44,2.47-.07,4.94-.15,7.41-.24,2.2-.08,4.4-.16,6.6-.24,7.45-.26,14.89-.47,22.36-.28-.02-.03-.04-.05-.06-.08,2.19.04,4.38.11,6.58.22,2.05.11,4.11.2,6.17.28.03.04.05.07.08.11,4.53.16,9.06.27,13.59.3,1.1,0,2.19-.02,3.29-.07,3.03-.08,6.07-.37,9.11-.56.36,0,.71.03,1.07.05,3.17.17,6.34.4,9.51.51.38.01.75.01,1.12.01-.09-.03-.17-.05-.25-.08-.01,0-.02,0-.03-.01.2,0,.41.02.61.03,4.09.13,7.35-.39,9.93-1.37.82.02,1.62.17,2.44.23,1.36.11,2.77-.34,4.15-.42,1.59-.09,3.18-.02,4.76.2.29.04.59.09.88.04.25-.04.49-.14.73-.2,1.17-.31,2.33.16,3.49.25,1.25.1,2.54.09,3.8.09.05,0,.1,0,.14,0,.8,0,1.6-.02,2.4-.06,2.55-.04,5.13-.31,7.75-.96,1.11-.25,2.19-.62,3.31-1.01,1.08-.44,2.2-.9,3.27-1.49,2.17-1.15,4.29-2.65,6.24-4.59,2.01-1.98,3.96-4.14,5.62-6.46,1.66-2.32,3-4.81,3.8-7.29,1.02-3.12,1.75-6.25,2.33-9.38.58-3.13,1.02-6.26,1.42-9.48.13-.89.18-1.78.23-2.67.05-.98.06-1.56.06-2.27.01-1.37-.01-2.74-.07-4.1ZM168.82,117.47c.23-.18.45-.36.67-.54.21-.19.45-.34.67-.51.22-.17.44-.34.66-.51.22-.17.45-.32.68-.48l.68-.48c.1-.06,0-.02,0-.02l.03-.04s.03-.06.04-.09c.05-.12.06-.25.04-.35-.01-.08-.04-.14-.07-.2l-.03-.04v-.02s-.02-.04-.02-.04v-.07s-.06-.52-.06-.52c-.07-.7-.11-1.4-.13-2.1-.02-1.09.08-2.25.31-3.29.41-1.89.32-3.81.4-5.72.05-1.11.11-2.22.12-3.33,0-.74-.09-1.48-.09-2.22,0-.92.07-1.85.1-2.77.02-.48.05-.98,0-1.45-.22-2.22-.19-4.45-.11-6.68.05-1.4.14-2.81.11-4.21-.03-1.32-.25-2.64-.26-3.96-.01-1.44.04-2.91.23-4.31.16-1.19.21-2.35.19-3.54l-.07-2.78c0-.07-.03-.16-.02-.22.46-1.63-.08-3.21-.12-4.81-.03-1.29-.22-2.57.01-3.86.08-.45.03-.96.04-1.44.05-1.44.03-2.91.18-4.33.04-.38.06-.75.06-1.12,0-.27,0-.54,0-.8v-.44s.02-.22.02-.22v-.05s.02-.05.02-.05l.04-.1c.12-.27.22-.54.36-.8.07-.13.13-.26.2-.39.08-.12.16-.25.24-.37.16-.25.36-.47.55-.7.2-.2.39-.4.61-.57.11-.08.21-.19.32-.28.11-.09.22-.16.32-.2,1.24-.45,2.35-.65,3.41-.81.53-.07,1.05-.13,1.55-.17.45-.03.9-.07,1.35-.09,1.48-.07,2.96-.21,4.45-.29.4-.02.81.05,1.22.08,1.37.1,2.74.01,4.11-.05.83-.04,1.67.08,2.51.08.87,0,1.75.03,2.59.08,1.24.07,2.48,0,3.71.09.31.02.69.11,1,.04.46-.11.99-.06,1.56.1.57.16,1.14.44,1.67.72.29.15.49.4.57.63.08.23,1.11.69,1.5,1.13.11.13.23.32.33.51.1.19.17.38.23.56.05.15.1.3.15.46.04.13.08.2.12.3.16.38.32.82.44,1.28.26.92.41,1.92.32,2.69,0,.61-.02,1.27-.07,1.77-.03.28-.06.61-.12.97l-.05.28-.07.31c-.04.18-.11.48-.19.73-.09.28-.17.65-.26.97-.24.91-.73,1.76-1.41,2.41-.34.33-.72.61-1.14.85-.2.13-.42.22-.64.33l-.33.15-.28.1c-.18.06-.37.14-.54.19l-.5.15c-.17.05-.33.08-.49.12-.16.04-.33.08-.48.11-.64.14-1.24.22-1.83.33-.25.04-.52.05-.76.04-.96-.02-1.86-.09-2.71-.16l-1.22-.09-1.24-.07c-.88-.05-1.77-.04-2.65-.09-1.28-.07-2.55-.09-3.83-.3-.47-.08-.98-.11-1.48-.1h-.38c-.1.01-.11.02-.15.03-.06.02-.12.05-.17.09-.1.07-.17.16-.23.24.01,0-.08.09-.14.15l-.19.19s-.03.04-.04.05l-.02.02-.03.04c-.04.06-.08.12-.11.19-.01.03-.03.07-.03.1v.05s-.02.03-.02.03h0s0,.02,0,.02v.03c-.02.36-.03.72-.04,1.08-.05,1.17.09,2.36.15,3.55.01.22.08.43.09.65,0,.64.02,1.25-.14,1.92-.33,1.38-.23,2.85-.19,4.29,0,.22.02.44,0,.66-.05,1.3-.12,2.59-.14,3.89-.02,1.16.03,2.33.01,3.49-.01.55-.15,1.08-.19,1.63-.05.65-.13,1.33-.08,1.97.11,1.42-.06,2.8-.13,4.2-.01.26-.04.52,0,.77.39,2.61.57,5.26.65,7.93,0,.15-.01.3.02.43.37,1.43.38,2.9.33,4.4-.02.48-.05.91-.2,1.38-.16.51-.15,1.14-.19,1.73-.03.43.02.88-.04,1.29-.14.94-.18,1.88-.18,2.83,0,.47,0,.95.02,1.42l.02.65c0,.07.01.13.03.2.04.13.12.25.22.33.09.09.2.15.31.22.3.17.6.34.88.54.2.13.42.29.65.44.23.15.46.29.7.43.24.14.46.31.69.47.23.16.46.32.67.49.84.72,1.67,1.47,2.34,2.36,1.28,1.65,2.15,3.59,2.74,5.54.08.28.16.56.23.84.08.28.12.57.17.85.12.57.15,1.15.19,1.72.01.29,0,.58,0,.86v.43c-.02.14-.03.29-.05.43-.03.29-.06.57-.1.86-.05.29-.11.57-.17.85-.07.39-.19.79-.21,1.17-.04.43-.14.83-.26,1.21-.14.37-.31.71-.5,1.03-.21.31-.43.6-.67.86-.24.26-.51.5-.77.72-.25.23-.52.41-.74.65-.11.11-.21.24-.32.38-.11.14-.21.29-.31.46-.08.15-.2.29-.33.42-.14.13-.3.24-.44.34-.84.6-1.61,1.14-2.33,1.97-.2.21-.44.41-.7.6-.26.18-.55.33-.83.48-1.4.71-2.91,1.15-4.42,1.36l-1.14.12-1.12.04c-.37.01-.75-.02-1.13-.03l-.56-.03c-.19-.02-.38-.05-.56-.07-.26-.03-.53-.07-.79-.09-.27-.02-.52-.06-.76-.04-.18.01-.35.02-.53.01-.17,0-.35-.02-.51-.06-.34-.07-.67-.16-.99-.28-.32-.12-.62-.3-.91-.47-.15-.09-.29-.17-.43-.27l-.41-.32c-.19-.15-.4-.27-.61-.38-.2-.12-.41-.24-.62-.37-.13-.08-.27-.16-.4-.24-.14-.08-.26-.17-.39-.25-.26-.17-.54-.34-.78-.53-.24-.2-.48-.41-.7-.65-.21-.23-.38-.51-.53-.8-.08-.15-.27-.3-.41-.45-.17-.19-.35-.39-.52-.59-.17-.2-.31-.42-.47-.63-.31-.42-.55-.88-.8-1.34-.44-.94-.77-1.94-.9-2.98-.05-.28-.11-.58-.17-.86l-.07-.37-.05-.37-.1-.74-.05-.74-.02-.37v-.37c0-.37-.06-.75-.05-1.12,0-.31-.02-.62,0-.93.02-.31.05-.62.1-.93.28-1.3.8-2.53,1.36-3.72.8-1.69,1.88-3.27,3.21-4.59.14-.16.27-.33.43-.46ZM274.44,131.9c0,4.94-.07,9.7-.43,14.18-.05.63-.06,1.44-.05,2.15.02,4.07.05,8.14.07,12.21.01,2.03.03,4.07.07,6.09.03,2.01.1,4.18-.15,6.49-.1.98-.34,2.06-.68,3.1l-.27.75c-.11.25-.22.5-.34.76-.11.25-.25.5-.39.75l-.21.37c-.07.12-.14.25-.23.36-.17.24-.34.48-.51.71-.18.23-.39.45-.58.67-.1.11-.2.22-.3.33l-.33.3c-.23.2-.44.39-.69.58-1.01.76-2.08,1.24-3.07,1.58-.99.34-1.91.55-2.77.74-3.48.75-6.99,1.17-10.45,1.36-3.59.21-7.16.24-10.66.18-2.52-.06-5.04-.11-7.56-.17-2.48-.05-5.02-.09-7.53-.2-3.75-.15-7.92-.08-11.83,0-7.63.16-15.19.11-22.83.03-4.62-.05-9.33.09-13.99.15-.87.01-1.72.08-2.58.09h-.15s-.07,0-.07,0c-.05,0-.09.02-.14.05-.08.05-.16.11-.21.2-.02.04-.04.09-.06.14,0,.02-.01.05-.02.07v.04s0,0,0,0v.05s0,.12,0,.12c-.02.63-.05,1.27-.09,1.93-.33,5.43-.23,11.23-.19,16.93,0,.87.02,1.74,0,2.61-.05,5.12-.12,10.23-.14,15.35,0,4.58,0,9.18.01,13.76-.01,2.15-.15,4.27-.19,6.43-.05,2.58-.13,5.24-.08,7.78.01.7.02,1.4.03,2.09v1.04s.02,1,.02,1c.02,1.37.09,2.95-.33,4.66-.11.43-.25.86-.42,1.28-.08.21-.19.42-.29.62-.1.2-.22.38-.33.57-.46.74-1,1.43-1.63,2.01-1.24,1.18-2.71,2-4.24,2.55-1.12.4-2.34.62-3.46.75-.19.02-.38.04-.56.06l-.57.03c-.38,0-.79-.01-1.18-.03-.8-.09-1.62-.21-2.42-.52l-.3-.11c-.1-.04-.2-.09-.29-.13l-.58-.28c-.37-.23-.75-.44-1.08-.71-.7-.52-1.28-1.15-1.78-1.81l-.36-.51-.31-.52c-.11-.17-.2-.35-.29-.53-.09-.18-.18-.36-.26-.54-.15-.36-.31-.72-.43-1.09l-.18-.55-.15-.55c-.11-.37-.17-.73-.26-1.1-.03-.1-.03-.18-.03-.26v-.24s-.02-.49-.02-.49l-.04-1.96c-.11-5.23-.18-10.5-.22-15.79,0-.58.01-1.21-.02-1.72-.37-5.62-.39-11.49-.34-17.43.02-1.92.05-3.63.2-5.49.16-2.03.15-4.55.19-6.87.03-1.71-.02-3.49.04-5.14.14-3.74.18-7.48.18-11.23,0-1.88-.01-3.75-.02-5.63v-.46c0-.07-.01-.13-.03-.2-.03-.13-.1-.25-.19-.35-.09-.1-.2-.18-.32-.22-.12-.05-.26-.06-.39-.05-2.51.02-4.99.05-7.48.07-2.53.02-5.06,0-7.65-.08-3.51-.12-7.31,0-10.97.04h-1.35s-.2.02-.2.02c-.03,0-.06,0-.09,0-.06,0-.12.02-.17.04-.22.09-.39.27-.46.5v.03s-.04.08-.04.08l-.08.18-.15.36c-.1.24-.21.47-.32.71-.22.46-.45.91-.69,1.35-.47.88-.96,1.71-1.45,2.53-3.58,5.93-7.53,11.67-11.64,17.21-4.65,6.28-9.78,12.15-15.58,17.44-.97.91-2.05,1.85-2.97,2.74-.52.52-1.06.99-1.59,1.45-.53.46-1.05.91-1.58,1.32-.53.41-1.06.81-1.58,1.19-.26.19-.52.38-.78.56-.27.18-.53.35-.79.52-.53.34-1.05.67-1.56.99-.52.32-1.05.6-1.56.89-.52.28-1.03.57-1.55.83-.52.25-1.04.5-1.56.75-.25.12-.5.24-.75.36-.25.11-.5.22-.75.33-.5.22-1,.45-1.51.7-.5.25-1.05.48-1.6.76-.56.27-1.13.59-1.78.89-.54.27-1.15.53-1.77.78-.63.23-1.27.43-1.84.61l-.65.2-.65.18-1.3.36c-.43.13-.87.23-1.31.33-.44.11-.87.22-1.31.33-.89.2-1.78.4-2.69.6-.46.08-.92.17-1.39.26-.23.05-.47.09-.71.14-.24.05-.48.08-.72.12-.52.08-1.05.16-1.61.23-.55.05-1.12.07-1.7.1-1.15.07-2.33.02-3.47-.06-2.83-.22-5.63-.77-8.33-1.63-2.68-.86-5.4-2.03-7.73-3.98-1.16-.97-2.21-2.15-2.97-3.51-.4-.67-.69-1.4-.96-2.13l-.17-.56c-.05-.19-.11-.37-.14-.56-.07-.38-.16-.75-.22-1.13-.23-1.51-.18-3.01-.02-4.46.06-.73.21-1.44.34-2.15.17-.7.31-1.4.52-2.08.53-1.88,1.3-3.89,1.85-5.44.82-2.35,1.91-4.53,3.14-6.59,1.23-2.06,2.6-4,4.05-5.9,1.04-1.35,1.94-2.72,2.95-4.09,2.56-3.49,5.1-7.07,8.24-10.17.41-.41.93-1.07,1.39-1.61.57-.68,1.15-1.35,1.73-2.02l.19-.22s.06-.08.09-.12c.06-.08.1-.17.14-.26.07-.18.1-.38.09-.57l-.03-1.99v-2.04c-.02-1.36-.02-2.72,0-4.08.02-2.72.07-5.44.17-8.16.03-.99.02-2.05.02-3.07,0-3.49,0-6.98,0-10.47,0-1.31-.06-2.6-.09-3.9-.05-2.14-.15-4.29-.14-6.43.02-4.54.14-9.08.14-13.61,0-6.42-.09-12.84-.15-19.26,0-.72-.08-1.44-.07-2.15,0-.49,0-.98.01-1.47,0-.53,0-1.05,0-1.58.04-.44.08-.63.11-.9l.1-.77c.07-.51.17-1.01.25-1.52.37-2.02.88-4,1.55-5.93,1.32-3.86,3.26-7.51,5.81-10.76,3.64-4.65,8.52-8.45,14.03-10.81,2.1-.9,4.35-1.6,6.61-2.07.57-.1,1.13-.23,1.7-.31.57-.08,1.13-.17,1.69-.22.56-.05,1.12-.11,1.67-.14.28-.01.55-.02.82-.03h.41s.22-.02.22-.02c.08,0,.21,0,.32,0,.07,0,.13,0,.19,0,.05,0,.1,0,.15,0,7.44.41,15.03.32,22.58.4,4.38.05,8.75.11,13.13.13,2.92,0,5.84-.09,8.76-.09h2.73c.9.02,1.78.02,2.68.01,1.8-.02,3.61-.06,5.45-.1,1.92-.04,3.9-.04,5.82-.05,1.13-.01,2.27.02,3.41.08.57.04,1.15.07,1.72.13l.43.04c.14.01.32.04.48.06.33.05.66.11.99.18,1.32.3,2.68.82,3.91,1.78.61.47,1.17,1.08,1.61,1.73.44.65.77,1.34,1,2.02.47,1.36.62,2.64.72,3.82.05.59.08,1.14.11,1.7.04.56.05,1.12.08,1.68.09,2.24.11,4.47.1,6.69-.02,2.79-.08,5.57-.15,8.34-.02,1.38-.05,2.76-.07,4.14v2.14s-.02.86-.02.86v.22s0,.11,0,.11c0,.04-.03.06-.04.1l-.2.38-.67,1.24c-.16.3-.33.6-.51.9l-.27.45-.29.48-.22.34-.06.09-.07.07-.14.15-.42.44-.61.65c-.2.22-.38.46-.57.68-.18.23-.38.45-.55.69l-.51.72-.25.36c-.08.12-.15.25-.23.37-1.24,1.99-2.15,4.15-2.73,6.39l-.2.93-.1.46-.07.47-.14.94c-.03.32-.05.64-.07.95-.07.63-.04,1.28-.06,1.92,0,.32.03.64.05.96l.03.48v.24s.04.24.04.24c.27,2.55.95,5.08,1.94,7.41,1.68,3.93,4.51,7.3,8.15,9.57l1.08.63c.18.11.37.19.56.28l.56.27.56.27.58.22c.39.14.77.31,1.17.43,1.58.52,3.21.81,4.86.97.26,0,.57-.01.78.02.36.04.72.1,1.09.11.36.02.73.02,1.1.02.73-.01,1.46-.08,2.19-.19,1.45-.22,2.87-.6,4.24-1.12.67-.29,1.35-.53,1.99-.88.32-.17.65-.31.96-.5l.93-.55c.16-.09.31-.19.45-.29l.44-.3c.3-.2.6-.39.87-.62l.85-.65.8-.7c1.73-1.52,3.12-3.36,4.23-5.35,1.1-1.99,1.92-4.14,2.51-6.4.4-1.59.52-3.43.49-5.16-.01-2.6-.56-5.2-1.46-7.65-.95-2.43-2.25-4.71-3.9-6.69-.22-.26-.42-.54-.66-.78-.24-.25-.47-.49-.71-.74-.11-.13-.24-.24-.37-.35l-.41-.37-.65-.59-.16-.15c-.05-.05-.06-.13-.1-.19l-.17-.4-.17-.4-.14-.37-.11-.29-.14-.4-.13-.41-.03-.1v-.11s0-.22,0-.22v-.74c-.01-.72-.03-1.44-.05-2.16-.08-2.88-.23-5.78-.28-8.73,0-.74-.08-1.58-.03-2.19.14-1.78.27-3.58.44-5.38.17-1.81.37-3.62.67-5.45.07-.46.16-.91.24-1.36.08-.46.17-.9.28-1.39.23-.96.56-2.06,1.29-3.11.36-.52.79-.97,1.25-1.36.46-.39.95-.7,1.44-.96.49-.26.99-.47,1.49-.65.12-.04.25-.09.37-.12l.35-.1c.23-.07.47-.14.7-.2,3.12-.81,6.26-.94,9.21-.96,1.48-.01,2.93,0,4.34-.03,1.45-.05,2.9-.09,4.35-.14,1.58-.05,3.2,0,4.8,0,2.71.02,5.41-.06,8.14-.03,1.36.01,2.72.03,4.09.06l2.05.06,1.03.04.52.03.53.04c3.45.21,6.91,1.03,10.2,2.19,1.72.59,3.4,1.35,5.01,2.2.81.42,1.59.9,2.36,1.37.38.25.75.5,1.12.75.37.25.72.52,1.08.78.53.38,1.02.8,1.54,1.21.5.41.98.85,1.47,1.28.47.45.95.89,1.4,1.36.44.47.91.93,1.32,1.43,1.71,1.95,3.22,4.08,4.45,6.35.64,1.23,1.26,2.67,1.76,3.72.4.77.7,1.56.99,2.34.14.39.25.79.37,1.19l.17.59.14.6c.41,1.59.64,3.2.92,4.84.07.45.11.89.12,1.3.02.41-.02.78-.05,1.1-.08.63.28,2.67.54,4.2.16.91.3,2.22.44,3.71.07.74.14,1.53.21,2.36.07.85.15,1.74.21,2.64.26,3.63.41,7.58.32,10.63Z"/>
</svg>