<?xml version="1.0" encoding="UTF-8"?>
<svg id="Layer_11" data-name="Layer 11" xmlns="http://www.w3.org/2000/svg" viewBox="0 0 244.32 222.49">
  <defs>
    <style>
      .cls-1 {
        fill: #737438;
      }
    </style>
  </defs>
  <path class="cls-1" d="M244.29,86.81c.09-3.06-.06-7.01-.32-10.63-.06-.91-.13-1.79-.21-2.64-.07-.83-.14-1.62-.21-2.36-.13-1.49-.27-2.8-.44-3.71-.27-1.53-.62-3.57-.54-4.2.04-.31.07-.69.05-1.1-.02-.41-.06-.85-.12-1.3-.29-1.64-.52-3.25-.92-4.84l-.14-.6-.17-.59c-.12-.4-.23-.79-.37-1.19-.29-.78-.59-1.57-.99-2.34-.5-1.04-1.12-2.49-1.76-3.72-1.23-2.27-2.73-4.4-4.45-6.35-.42-.5-.88-.95-1.32-1.43-.45-.47-.93-.91-1.4-1.36-.49-.43-.97-.87-1.47-1.28-.51-.4-1-.83-1.54-1.21-.36-.26-.71-.54-1.08-.78-.37-.25-.75-.5-1.12-.75-.77-.47-1.55-.95-2.36-1.37-1.61-.85-3.29-1.61-5.01-2.2-3.29-1.16-6.74-1.98-10.2-2.19l-.53-.04-.52-.03-1.03-.04-2.05-.06c-1.37-.03-2.73-.05-4.09-.06-2.73-.04-5.42.05-8.14.03-1.6,0-3.22-.05-4.8,0-1.45.05-2.9.09-4.35.14-1.41.03-2.86.02-4.34.03-2.95.02-6.09.14-9.21.96-.24.06-.47.13-.7.2l-.35.1c-.12.04-.25.08-.37.12-.5.18-1,.39-1.49.65-.49.27-.98.58-1.44.96-.46.39-.89.84-1.25,1.36-.72,1.05-1.06,2.15-1.29,3.11-.12.49-.2.94-.28,1.39-.08.46-.17.91-.24,1.36-.3,1.82-.49,3.64-.67,5.45-.17,1.81-.3,3.6-.44,5.38-.05.6.02,1.45.03,2.19.04,2.95.2,5.85.28,8.73.02.72.04,1.44.04,2.16v.74s.01.22.01.22v.11s.04.1.04.1l.13.41.14.4.11.29.14.37.17.4.17.4c.03.06.04.14.1.19l.16.15.65.59.41.37c.13.11.25.23.37.35.23.25.47.49.71.74.24.24.44.52.66.78,1.65,1.98,2.95,4.26,3.9,6.69.9,2.44,1.44,5.04,1.46,7.65.03,1.73-.09,3.57-.49,5.16-.58,2.26-1.4,4.41-2.51,6.4-1.1,1.99-2.5,3.83-4.23,5.35l-.8.7-.85.65c-.27.23-.57.42-.87.62l-.44.3c-.15.1-.29.2-.45.29l-.93.55c-.31.19-.64.33-.96.5-.63.35-1.32.59-1.99.88-1.37.52-2.79.91-4.24,1.12-.72.11-1.45.17-2.19.19-.37,0-.73,0-1.1-.02-.37-.01-.73-.07-1.09-.11-.21-.03-.52,0-.78-.02-1.65-.15-3.28-.45-4.86-.97-.4-.12-.78-.29-1.17-.43l-.58-.22-.56-.27-.56-.27c-.19-.09-.38-.17-.56-.28l-1.08-.63c-3.64-2.27-6.46-5.64-8.15-9.57-.99-2.33-1.67-4.86-1.94-7.41l-.03-.24v-.24s-.04-.48-.04-.48c-.01-.32-.05-.64-.05-.96.02-.64-.02-1.28.06-1.92.03-.32.04-.64.07-.95l.14-.94.07-.47.1-.46.2-.93c.58-2.25,1.49-4.41,2.73-6.39.08-.12.15-.25.23-.37l.25-.36.51-.72c.17-.24.37-.46.55-.69.19-.23.37-.46.57-.68l.61-.65.42-.44.14-.15.07-.07.06-.09.22-.34.29-.48.27-.45c.17-.3.34-.6.51-.9l.67-1.24.2-.38s.04-.06.04-.1v-.11s0-.22,0-.22v-.86s.02-2.14.02-2.14c.02-1.38.05-2.76.07-4.14.06-2.77.13-5.55.15-8.34.01-2.22-.01-4.45-.1-6.69-.03-.56-.04-1.12-.08-1.68-.03-.56-.06-1.11-.11-1.7-.1-1.18-.25-2.46-.72-3.82-.24-.68-.56-1.37-1-2.02-.44-.65-1-1.26-1.61-1.73-1.23-.96-2.59-1.49-3.91-1.78-.33-.07-.66-.13-.99-.18-.16-.02-.34-.05-.48-.06l-.43-.04c-.58-.06-1.15-.1-1.72-.13-1.14-.06-2.28-.09-3.41-.08-1.92,0-3.9.01-5.82.05-1.83.04-3.65.08-5.45.1-.9,0-1.78,0-2.68,0h-2.73c-2.92-.02-5.84.08-8.76.08-4.38-.01-8.75-.08-13.13-.13-7.55-.08-15.14.01-22.58-.4-.05,0-.1,0-.15,0-.06,0-.13,0-.19,0-.11,0-.24,0-.32,0h-.22s-.41.02-.41.02c-.27.01-.55.02-.82.03-.55.03-1.11.09-1.67.14-.56.05-1.12.14-1.69.22-.57.08-1.13.2-1.7.31-2.26.46-4.51,1.17-6.61,2.07-5.51,2.36-10.39,6.16-14.03,10.81-2.55,3.25-4.49,6.91-5.81,10.76-.66,1.93-1.18,3.91-1.55,5.93-.08.51-.18,1.01-.25,1.52l-.1.77c-.03.27-.07.46-.11.9,0,.53,0,1.05,0,1.58,0,.49,0,.98-.01,1.47,0,.71.06,1.43.07,2.15.06,6.42.14,12.84.15,19.26,0,4.53-.12,9.07-.14,13.61,0,2.14.09,4.29.14,6.43.03,1.3.08,2.6.09,3.9,0,3.49,0,6.98,0,10.47,0,1.03.02,2.08-.02,3.07-.09,2.72-.15,5.44-.17,8.16-.01,1.36-.01,2.72,0,4.08v2.04s.04,1.99.04,1.99c.01.19-.02.39-.09.57-.04.09-.08.18-.14.26-.03.04-.06.08-.09.12l-.19.22c-.58.67-1.16,1.34-1.73,2.02-.46.54-.97,1.2-1.39,1.61-3.14,3.09-5.68,6.68-8.24,10.17-1,1.37-1.91,2.74-2.95,4.09-1.45,1.89-2.82,3.84-4.05,5.9-1.23,2.06-2.32,4.24-3.14,6.59-.55,1.55-1.32,3.56-1.85,5.44-.21.68-.35,1.39-.52,2.08-.12.71-.27,1.42-.34,2.15-.16,1.45-.21,2.94.02,4.46.05.38.14.75.22,1.13.03.19.09.37.14.56l.17.56c.26.73.56,1.46.96,2.13.76,1.37,1.81,2.54,2.97,3.51,2.33,1.95,5.05,3.11,7.73,3.98,2.7.87,5.5,1.42,8.33,1.63,1.14.08,2.32.13,3.47.06.58-.03,1.15-.05,1.7-.1.55-.07,1.09-.15,1.61-.23.24-.04.48-.07.72-.12.24-.05.47-.1.71-.14.47-.09.93-.18,1.39-.26.91-.2,1.81-.4,2.69-.6.44-.11.88-.22,1.31-.33.44-.11.88-.2,1.31-.33l1.3-.36.65-.18.65-.2c.57-.18,1.21-.39,1.84-.61.62-.25,1.23-.52,1.77-.78.64-.3,1.22-.62,1.78-.89.55-.28,1.1-.51,1.6-.76.51-.25,1-.48,1.51-.7.25-.11.5-.22.75-.33.25-.12.5-.24.75-.36.51-.25,1.03-.5,1.56-.75.52-.26,1.03-.55,1.55-.83.52-.29,1.05-.57,1.56-.89.52-.32,1.04-.65,1.56-.99.26-.17.53-.35.79-.52.26-.19.52-.37.78-.56.52-.38,1.05-.78,1.58-1.19.53-.42,1.04-.87,1.58-1.32.53-.46,1.07-.93,1.59-1.45.92-.9,2-1.83,2.97-2.74,5.79-5.29,10.92-11.17,15.58-17.44,4.11-5.54,8.06-11.28,11.64-17.21.49-.81.98-1.65,1.45-2.53.23-.44.47-.89.69-1.35.11-.23.22-.47.32-.71l.15-.36.08-.18.03-.08v-.03c.07-.22.25-.41.47-.5.06-.02.11-.04.17-.04.03,0,.06,0,.09,0h.2s1.35-.02,1.35-.02c3.66-.03,7.47-.16,10.97-.04,2.58.09,5.12.1,7.65.08,2.49-.02,4.98-.05,7.48-.07.13,0,.26,0,.39.05.12.05.23.13.32.22.09.1.15.22.19.35.02.07.02.13.03.2v.46c0,1.88.02,3.75.02,5.63,0,3.75-.05,7.5-.18,11.23-.06,1.65,0,3.44-.04,5.14-.04,2.32-.03,4.85-.19,6.87-.15,1.86-.18,3.57-.2,5.49-.05,5.95-.03,11.82.34,17.43.03.51.02,1.14.02,1.72.04,5.29.11,10.56.22,15.79l.04,1.96v.49s.02.24.02.24c0,.08,0,.16.03.26.08.37.15.73.26,1.1l.15.55.18.55c.11.36.28.73.43,1.09.08.18.17.36.26.54.09.18.18.36.29.53l.31.52.36.51c.5.66,1.08,1.3,1.78,1.81.33.28.72.49,1.08.71l.58.28c.1.04.19.09.29.13l.3.11c.8.31,1.62.43,2.42.52.39.02.8.04,1.18.03l.57-.03c.19-.01.38-.04.56-.06,1.12-.13,2.34-.34,3.46-.75,1.53-.54,3-1.36,4.24-2.55.63-.58,1.17-1.27,1.63-2.01.11-.19.22-.37.33-.57.1-.21.21-.41.29-.62.18-.42.32-.85.42-1.28.42-1.72.36-3.3.33-4.66l-.02-1v-1.04c-.02-.7-.03-1.39-.04-2.09-.05-2.54.03-5.2.08-7.78.04-2.16.18-4.28.19-6.43,0-4.58,0-9.18-.01-13.76.02-5.12.1-10.23.14-15.35,0-.87,0-1.74,0-2.61-.05-5.69-.15-11.5.19-16.93.04-.65.07-1.29.09-1.93v-.12s0-.05,0-.05h0s0-.05,0-.05c0-.03,0-.05.02-.07.01-.05.03-.09.06-.14.05-.08.12-.15.21-.2.04-.02.09-.04.14-.05h.07s.15,0,.15,0c.86,0,1.71-.07,2.58-.09,4.66-.06,9.36-.2,13.99-.15,7.64.09,15.2.14,22.83-.03,3.91-.08,8.08-.15,11.83,0,2.52.1,5.05.14,7.53.2,2.52.06,5.04.11,7.56.17,3.51.07,7.07.03,10.66-.18,3.47-.19,6.97-.61,10.45-1.36.85-.18,1.77-.4,2.77-.74.99-.34,2.06-.82,3.07-1.58.25-.19.46-.39.69-.58l.33-.3c.1-.11.2-.22.3-.33.2-.22.4-.44.58-.67.17-.24.34-.47.51-.71.09-.12.16-.24.23-.36l.21-.37c.14-.25.28-.5.39-.75.11-.25.23-.5.34-.76l.27-.75c.34-1.04.58-2.12.68-3.1.26-2.31.19-4.48.15-6.49-.03-2.02-.05-4.06-.07-6.09-.02-4.07-.05-8.15-.07-12.21,0-.71,0-1.52.05-2.15.36-4.48.43-9.24.43-14.18ZM91.67,130.36c-.45.21-.96.09-1.48.05-2.04-.15-4.09-.1-6.13-.12-.95,0-1.9-.13-2.84-.1-1.55.05-3.09.14-4.64.03-.46-.03-.92-.11-1.37-.09-1.68.07-3.35.2-5.02.26-2.03.08-4.08.39-6.09-.11-.17-.04-.41.03-.62.03-1.67.05-3.32.24-5.03.08-1.61-.16-3.27-.13-4.9-.18-.55-.02-1.12.04-1.64-.04-1.47-.24-2.92-.04-4.38-.01-1.82.04-3.61.58-5.45.12-.07-.02-.16.01-.25.02l-3.15.07c-1.35.03-2.66-.03-4.01-.19-.4-.05-.8-.09-1.21-.12h-.08s-.02-.01-.03-.01h-.04s-.08-.03-.08-.03c-.05-.01-.11-.03-.15-.05-.2-.09-.36-.23-.46-.41-.05-.08-.09-.17-.12-.26-.01-.05-.03-.1-.04-.15v-.02s-.01-.01-.01-.04v-.14s-.03-.28-.03-.28c-.06-.75-.12-1.49-.14-2.24-.03-1.58.05-3.18.11-4.76.08-2.53.11-5.05-.11-7.56-.05-.54-.01-1.09,0-1.64.03-1.05.1-2.09.1-3.14,0-.84-.1-1.68-.09-2.51.01-1.26.08-2.51.12-3.77.08-2.17-.02-4.35.4-6.48.23-1.18.32-2.48.31-3.72-.02-1.58-.19-3.17-.35-4.74-.22-2.2-.59-4.36-.52-6.62,0-.2-.06-.41-.07-.62-.07-1.84-.17-3.68-.19-5.53-.01-1.3.1-2.6.11-3.91,0-.61-.1-1.23-.15-1.85-.03-.37-.09-.75-.1-1.12-.02-1-.02-2-.03-3,0-.29-.02-.6.01-.88.06-.52.1-1.03.13-1.55l.02-.38.02-.3c0-.2.03-.41.06-.63.1-.87.25-1.81.41-2.77.03-.19.05-.42.14-.55.66-1.03.76-2.24,1.17-3.36.17-.43.28-.87.55-1.26.38-.54.75-1.07,1.06-1.61.16-.28.3-.54.42-.83.14-.29.26-.59.35-.92.12-.43.42-.92.73-1.32,1.72-2.41,3.83-4.52,6.19-6.3.23-.19.48-.36.72-.55.24-.19.46-.38.65-.59.35-.4.77-.66,1.2-.89.43-.22.88-.4,1.37-.49.32-.07.71-.17.97-.35.16-.11.31-.19.46-.25.15-.06.31-.1.46-.12.3-.06.6-.06.92-.06.63-.02,1.29.03,1.94-.06.64-.1,1.31-.22,2.01-.54.15-.07.32-.13.49-.18.17-.04.35-.07.52-.09.5-.07,1-.16,1.5-.24.5-.06,1-.13,1.5-.2.5-.09,1-.12,1.51-.19.5-.06,1.01-.15,1.52-.18.45-.04.9-.08,1.36-.11.45-.02.91,0,1.37,0h.69c.23.01.46.04.68.05.46.03.91.06,1.37.1l1.46.15c.24.03.49.04.73.08l.72.13c.24.04.48.08.73.12.25.04.49.07.73.14.48.12.95.25,1.38.43.63.29,1.26.54,1.9.74.63.24,1.25.47,1.88.72,1.8.81,3.59,1.75,5.01,3.13.3.32.7.56,1.04.86.23.19.45.42.67.64.21.22.41.45.55.68.06.11.13.21.2.3.06.1.13.2.2.29.14.19.29.36.46.55.53.55.99,1.15,1.52,1.69.27.26.5.56.77.82.26.27.54.52.83.77.1.09.17.24.26.37l.59.85c.09.14.21.29.28.41.08.12.17.27.26.41.35.59.71,1.22,1.06,1.84.69,1.25,1.38,2.51,2.01,3.76.11.23.18.51.24.77.19.71.3,1.41.38,2.06.01.16.02.31.04.47,0,.14,0,.27.01.41,0,.05,0,.16,0,.26v.3c.01.2.02.4.04.6.05.73-.03,1.49-.08,2.23-.04.62-.18,1.23-.19,1.85-.02,1.32.03,2.63.01,3.95-.02,1.47-.1,2.94-.14,4.41,0,.25,0,.5,0,.75.05,1.63.15,3.3-.19,4.86-.16.75-.14,1.44-.14,2.17,0,.25.07.49.09.74.06,1.34.2,2.69.15,4.02-.09,2.19-.14,4.36.03,6.55.08,1.12.15,2.32,0,3.4-.2,1.45-.2,2.89-.26,4.34-.04,1-.02,2-.06,3-.08,1.93-.16,3.86-.24,5.79-.01.25-.01.51.02.76.26,2.31.2,4.66.28,7,0,.21,0,.44-.05.62-.35,1.24-.11,2.8-.02,4.06.12,1.74.21,3.51.74,5.18.25.8.4,1.71-.51,2.13Z"/>
  <path class="cls-1" d="M133.67,81.15c-.06.31-.08.62-.1.93,0,.31,0,.62,0,.93-.01.37.05.75.05,1.12v.37s.02.37.02.37l.05.75.1.74.05.37.07.37c.06.29.13.58.17.86.13,1.03.46,2.03.9,2.98.25.46.48.92.8,1.34.15.21.29.43.47.63.17.2.34.39.52.59.13.15.33.3.41.45.15.29.31.56.53.8.22.23.45.44.7.64.25.2.52.36.78.53.13.08.26.18.39.25.14.08.27.16.4.24.21.12.41.24.62.37.21.11.42.22.61.38l.41.32c.14.1.29.18.43.27.3.17.59.35.91.47.32.12.65.21.99.28.17.04.34.05.51.06.17,0,.35,0,.53-.01.23-.02.49.02.76.04.27.02.54.06.79.09.19.02.38.05.56.07l.56.03c.38.01.75.05,1.13.03l1.12-.04,1.14-.12c1.51-.21,3.03-.64,4.42-1.36.28-.15.57-.3.83-.48.26-.19.5-.39.7-.6.72-.82,1.49-1.37,2.33-1.97.14-.1.29-.21.44-.34.14-.13.25-.28.33-.42.1-.17.2-.33.31-.46.11-.14.21-.27.32-.38.22-.23.49-.42.74-.65.26-.22.53-.46.77-.72.23-.27.46-.55.67-.86.19-.32.36-.66.5-1.03.12-.38.23-.78.26-1.21.02-.38.14-.79.21-1.17.06-.28.12-.57.17-.85.04-.29.07-.57.1-.86.01-.14.03-.29.04-.43v-.43c.01-.29.02-.58,0-.87-.04-.58-.07-1.15-.19-1.72-.05-.28-.09-.57-.17-.85-.07-.28-.15-.56-.23-.84-.59-1.96-1.46-3.89-2.74-5.54-.67-.89-1.5-1.65-2.34-2.36-.21-.18-.45-.33-.67-.49-.23-.16-.45-.33-.69-.47-.24-.14-.47-.28-.7-.43-.23-.15-.45-.31-.65-.44-.29-.19-.58-.37-.88-.54-.11-.07-.22-.13-.31-.22-.1-.08-.18-.2-.22-.33-.02-.06-.03-.13-.03-.2l-.02-.65c-.01-.47-.02-.95-.02-1.42,0-.95.05-1.89.18-2.83.06-.42,0-.87.04-1.29.04-.58.03-1.22.19-1.73.15-.47.19-.89.2-1.38.06-1.5.04-2.97-.33-4.4-.03-.13-.02-.29-.02-.43-.08-2.67-.26-5.32-.65-7.93-.04-.24,0-.51,0-.77.07-1.4.24-2.78.13-4.2-.05-.64.03-1.32.08-1.97.04-.55.18-1.08.19-1.63.02-1.16-.03-2.33-.01-3.49.02-1.3.1-2.59.14-3.89,0-.22,0-.44,0-.66-.05-1.44-.15-2.91.19-4.29.16-.66.14-1.27.14-1.92,0-.22-.07-.43-.09-.65-.06-1.18-.2-2.37-.15-3.55.01-.36.03-.72.04-1.08v-.03s0,0,0,0h0s0-.04,0-.04v-.05s.03-.07.05-.1c.03-.07.06-.13.11-.19l.03-.04.02-.02s0,0,.04-.05l.19-.19c.05-.06.15-.16.14-.15.06-.08.13-.17.23-.24.05-.04.1-.07.17-.09.04,0,.04-.02.15-.02h.38c.51-.01,1.01.01,1.48.1,1.28.22,2.55.23,3.83.3.88.05,1.77.05,2.65.09l1.24.07,1.22.09c.85.07,1.75.14,2.71.16.25,0,.52,0,.76-.04.59-.1,1.19-.19,1.83-.33.16-.03.32-.07.48-.11.16-.04.32-.07.49-.12l.5-.15c.17-.05.36-.13.54-.19l.28-.1.33-.15c.22-.1.44-.2.64-.33.41-.24.8-.52,1.14-.85.68-.66,1.17-1.5,1.41-2.41.09-.32.17-.69.26-.97.08-.25.15-.55.19-.73l.07-.31.05-.28c.06-.36.09-.69.12-.97.05-.5.08-1.16.07-1.77.09-.77-.06-1.77-.32-2.69-.13-.46-.28-.9-.44-1.28-.04-.1-.08-.17-.12-.3-.05-.16-.1-.32-.15-.46-.06-.17-.14-.37-.23-.56-.09-.19-.22-.37-.33-.51-.39-.44-1.42-.9-1.5-1.13-.08-.23-.27-.47-.57-.63-.53-.28-1.1-.56-1.67-.72-.57-.16-1.1-.21-1.56-.1-.31.07-.7-.02-1-.04-1.23-.08-2.47-.02-3.71-.09-.84-.05-1.73-.07-2.59-.08-.84,0-1.68-.12-2.51-.08-1.37.06-2.74.15-4.11.05-.41-.03-.82-.1-1.22-.08-1.48.08-2.96.21-4.45.29-.45.02-.9.06-1.35.09-.5.04-1.02.09-1.55.17-1.06.16-2.17.36-3.41.81-.1.04-.21.11-.32.2-.11.09-.21.2-.32.28-.22.17-.41.37-.61.57-.19.23-.4.45-.55.7-.08.12-.16.25-.24.37-.07.13-.14.26-.2.39-.14.26-.24.53-.36.8l-.04.1-.02.05v.05s0,.22,0,.22v.44c-.01.27,0,.54,0,.8,0,.37-.02.75-.06,1.12-.16,1.42-.13,2.88-.18,4.33-.02.48.04.99-.04,1.44-.24,1.3-.04,2.57-.01,3.87.04,1.6.58,3.18.12,4.81-.02.06.01.14.02.22l.07,2.78c.03,1.19-.03,2.35-.19,3.54-.19,1.41-.24,2.87-.23,4.31,0,1.32.24,2.63.26,3.96.03,1.4-.05,2.8-.11,4.21-.08,2.23-.11,4.46.11,6.68.05.47.01.97,0,1.45-.03.92-.1,1.85-.1,2.77,0,.74.1,1.48.09,2.22-.01,1.11-.08,2.22-.12,3.33-.08,1.91.02,3.84-.4,5.72-.23,1.04-.32,2.19-.31,3.29.01.7.06,1.4.13,2.1l.05.52v.07s.01.04.01.04v.02s.04.04.04.04c.04.06.06.12.07.2.01.1,0,.23-.04.35-.01.03-.03.06-.04.09l-.03.04s.1-.04,0,.02l-.68.48c-.22.16-.46.3-.68.48-.22.17-.44.35-.66.51-.22.17-.46.32-.67.51-.22.18-.44.36-.67.54-.16.13-.28.3-.43.46-1.34,1.31-2.42,2.9-3.21,4.59-.56,1.19-1.08,2.42-1.36,3.72Z"/>
</svg>