<?xml version="1.0" encoding="UTF-8"?>
<svg id="Layer_11" data-name="Layer 11" xmlns="http://www.w3.org/2000/svg" viewBox="0 0 210.39 210.98">
  <defs>
    <style>
      .cls-1 {
        fill: #737438;
      }
    </style>
  </defs>
  <path class="cls-1" d="M210.38,116.38c.07-4.25-.19-8.78-.38-13.18-.25-5.53-.51-11.07-.76-16.6-.28-6.58-.53-13.15-.38-19.71.06-2.6.17-5.2.4-7.78.06-.64.11-1.29.19-1.93l.12-.96.06-.48.04-.32c.01-.12.04-.24.02-.35l-.18-2.07c-.05-.67-.15-1.33-.22-1.99-.3-2.48-.91-5.28-1.79-7.64-2.19-5.96-5.01-11.47-8.4-16.7-1.21-1.89-2.59-3.67-4.05-5.4-1.5-1.7-3.07-3.36-4.78-4.87-.84-.79-1.75-1.51-2.62-2.28-.92-.71-1.8-1.48-2.74-2.15-2.77-2.09-5.76-4.03-8.84-5.33-1.31-.57-2.55-1.02-3.94-1.64-3.19-1.37-6.53-2.45-9.96-3.12l-1.59-.3-1.6-.23c-.54-.08-1.07-.15-1.59-.19l-1.57-.16c-2.1-.21-4.19-.45-6.3-.58-1.25-.1-2.51-.18-3.78-.25-1.26-.05-2.53-.08-3.8-.11-2.54-.08-5.08-.05-7.61-.06-2.26-.02-4.52.07-6.78.06-1.72,0-3.44-.09-5.14-.03-9.38.3-18.7.93-28.08,1.16-4.79.12-9.59.25-14.39.37-2.63.09-5.27.19-7.91.28-.39.02-.79,0-1.18,0-2.14-.04-4.27-.08-6.41-.12-2.19-.07-4.03-.04-5.56.06-1.53.08-2.76.21-3.73.41-1.03.21-5.48.14-8.64.56-1.15.24-2.28.47-3.41.7-.57.12-1.14.24-1.71.36-.57.13-1.13.33-1.7.49-1.14.36-2.32.74-3.54,1.19-1.19.51-2.41,1.12-3.7,1.78-.33.17-.66.34-1,.52-.33.17-.65.39-.97.59-.64.4-1.29.81-1.93,1.21-.63.41-1.28.79-1.86,1.23-.58.45-1.13.9-1.66,1.35-.66.56-1.32,1.11-1.98,1.67-.63.58-1.24,1.2-1.87,1.79-.62.59-1.26,1.18-1.9,1.77-.6.63-1.2,1.27-1.83,1.9-.68.7-1.39,1.37-2.01,2.12-.6.76-1.2,1.51-1.8,2.26l-.88,1.14c-.3.37-.53.79-.8,1.19-.51.8-1.02,1.61-1.53,2.41-.24.41-.53.79-.73,1.22l-.65,1.26-1.29,2.52c-.23.41-.4.85-.58,1.29l-.54,1.31c-.37.87-.73,1.74-1.1,2.61-.5,1.5-.99,2.99-1.48,4.48-.13.37-.23.75-.32,1.13l-.28,1.14-.58,2.28c-.11.43-.24.86-.32,1.3l-.24,1.32c-.16.88-.32,1.76-.48,2.63-.07.44-.17.88-.22,1.32l-.12,1.33c-.08.88-.15,1.77-.2,2.64-.03.46-.06.92-.09,1.39-.01.46-.03.93-.04,1.39-.03.93-.08,1.86-.17,2.74-.4,4.54-.48,8.86-.27,13.02.14,2.72.03,5.41-.19,8.18-.08.99-.17,2-.19,3.02-.13,4.01-.22,8.03-.29,12.05,0,.72-.04,1.47,0,2.17.15,4.07.13,8.11.1,12.26-.05,7.1.13,14.25.37,21.38.03,1.11.02,2.21.04,3.31.01,1.11,0,2.22.05,3.34.2,3.82.39,7.61.79,11.46.41,3.86,1.17,7.69,2.32,11.4.87,2.89,1.99,5.72,3.42,8.16,2.09,3.55,4.14,7.36,6.63,10.89,1.82,2.6,3.83,5.09,6.14,7.31,4.14,3.99,8.93,7.43,14.11,9.82,1.53.69,3.19,1.55,4.83,2.25,4.51,1.95,9.25,3.37,14.06,4.33,1.03.19,2.06.35,3.09.52l3.11.37,3.12.25c1.03.07,2.06.13,3.09.2,4.31.3,8.58.57,12.9.56,3.61-.02,7.28-.04,10.92-.06.71,0,1.44.01,2.15.02,4.28-.02,8.35.32,12.52.42,3.05.09,6.09.22,9.03.38,3.49.21,7.01.25,10.56.27,3.55-.06,7.14-.13,10.78-.41,1.33-.09,2.71-.19,4.02-.22,2.21-.08,4.41-.18,6.6-.33,2.19-.17,4.35-.46,6.49-.83.61-.1,1.43-.17,2.15-.27l4.4-.57,4.4-.74c2.93-.57,5.89-1.32,8.68-2.39,5.84-2.23,11.54-5.1,16.59-8.95,1.07-.86,2.15-1.77,3.14-2.65,3.42-2.88,6.2-6.54,8.24-10.16,1.47-2.64,2.77-5.11,4-7.65,1.49-3.12,2.7-6.27,3.53-9.65.5-1.96.98-4.16,1.49-6.05,1.24-4.66,1.59-9.41,2.12-14.12.02-.22-.06-.48-.08-.75-.33-4.39-.27-9.72.1-14.6.38-4.73.27-9.55.35-14.26ZM59.94,23.95c1.91.38,3.74.67,5.68.95,1.94.29,3.99.42,6.34.42,2.41.01,4.95-.01,7.17-.21,2.78-.27,5.51-.53,8.37-.55,6.31-.08,12.3-.79,18.42-1.22,2.55-.17,5.1-.39,7.66-.5,2.91-.13,5.82-.21,8.7-.43,1.49-.12,3.1-.26,4.58-.21,1.89.05,3.74,0,5.54-.03,1.8-.04,3.56-.15,5.29-.31,2.26-.16,4.51-.09,6.8.18.82.11,1.66.21,2.5.27l2.49.19c.83.07,1.66.17,2.49.26l2.49.27c.41.05.83.08,1.24.14l1.19.21c.57.1,1.17.22,1.72.29,3.24.56,6.33,1.8,9.25,3.47l1.86,1.11,1.77,1.25c.29.21.6.4.88.63l.84.69c.55.47,1.14.89,1.67,1.39,1.05,1,2.14,1.96,3.08,3.06,1.01,1.04,1.88,2.21,2.78,3.34.54.72.96,1.51,1.44,2.27l.35.57.31.6c.21.4.41.8.64,1.19,1.46,2.69,2.72,5.52,3.49,8.48.25.73.38,1.48.53,2.22l.23,1.12.04.2v.14s-.02.5-.02.5l-.23,4.8c-.05,2.49-.1,4.97.12,7.3.19,1.7.24,3.45.22,5.21,0,1.77-.05,3.55-.11,5.33-.09,2.62-.18,5.24-.14,7.87.14,4.73.23,9.5.73,14.17.14,1.37.15,2.92.21,4.38l.41,12.14c.06,1.72.13,3.44.19,5.16.07,1.72.12,3.44.12,5.15.03,3.6-.09,7.15.05,10.74.02,1.5.04,3.02.06,4.54.03,1.52-.05,3.04-.07,4.56-.01.59-.06,1.2-.08,1.79-.22,3.55-.68,6.96-1.51,10.22-.37,1.18-.67,2.39-1.22,3.49-.25.56-.49,1.11-.74,1.67-.29.53-.59,1.05-.89,1.56-.65,1.24-1.52,2.38-2.28,3.56-.4.58-.86,1.12-1.28,1.69l-.64.85c-.21.28-.46.54-.69.81-.46.54-.93,1.08-1.4,1.62-.5.51-1,1.02-1.5,1.54l-.75.78-.8.72c-.53.49-1.07.98-1.61,1.47-.84.66-1.69,1.37-2.57,1.95-2.98,1.92-6.15,3.35-9.26,4.82-.45.21-1.08.38-1.62.57l-1.7.42c-.57.13-1.13.31-1.71.37l-1.73.24c-.28.03-.64.1-.72.09l-.82-.05c-2.46-.14-4.93-.32-7.4-.29-5.15-.03-10.33-.06-15.5-.09-1.12,0-2.26.05-3.35.02-3.63-.12-7.29.1-10.68.45-2.46.26-4.75.33-7.06.35-2.84.02-5.59.05-8.44.28-1.66.14-3.52.24-5.12.2-1.98-.05-3.95.03-5.91.11-1.96.08-3.92.2-5.87.16-.18,0-.39.1-.61.15-1.79.39-3.8.64-5.88.72-2.07.09-4.21.05-6.23-.18-1.96-.2-3.94-.32-5.92-.5-.99-.08-1.97-.16-2.96-.24-.98-.08-1.96-.22-2.93-.35-3.54-.41-7.11-.82-10.5-1.96-4.24-1.42-8.19-3.65-11.68-6.46-4.15-3.35-7.72-7.49-10.24-12.23-2.03-3.73-3.53-7.81-3.92-12-.04-.49-.09-.99-.13-1.5-.03-.26-.05-.51-.08-.77l-.05-.81c-.07-1.08-.16-2.15-.29-3.16-.08-.64-.16-1.27-.22-1.9-.05-.64-.1-1.27-.14-1.9-.09-1.27-.16-2.53-.22-3.79-.03-2.53-.08-5.05.06-7.58.14-3.63.21-7.3.2-11.01.01-1.87.06-3.77.12-5.64.12-2.82.27-5.68.16-8.39-.05-1.17-.1-2.24-.03-3.47.15-2.83.32-5.65.43-8.48.15-3.51.3-6.99.48-10.5.09-2.09.14-4.2.16-6.32,0-2.12,0-4.24-.01-6.35-.02-1.89-.07-3.79-.07-5.68-.03-1.44.06-2.89.01-4.32-.05-1.97-.22-3.93-.33-5.9l-.09-1.39c-.03-.09.11-.7.18-1.13.19-.92.3-1.87.57-2.77.89-3.67,2.29-7.23,4.28-10.44,2.02-3.29,4.5-6.29,7.37-8.87.19-.18.38-.37.58-.54l.61-.51,1.21-1.03c.39-.36.84-.65,1.26-.97l1.29-.94c.25-.19.54-.34.82-.49.76-.41,1.51-.84,2.28-1.23l2.36-1.07c.81-.35,1.58-.62,2.26-.93.34-.15.67-.3.98-.44.32-.12.62-.24.91-.36,1.15-.48,6.81-1.46,9.4-.98Z"/>
  <path class="cls-1" d="M54.55,87.36c-.21.95-.42,1.89-.67,2.82-.21.94-.5,1.87-.7,2.84-.79,3.28-1.16,6.68-1.33,10.06-.03.53-.12,1.05-.15,1.57-.04.53-.11,1.06-.11,1.59,0,3.63.34,7.28,1.16,10.82.15.69.31,1.38.53,2.04.21.66.42,1.31.75,1.91.45.87.77,1.8,1.09,2.75.28.96.56,1.93.84,2.89.43,1.42.82,2.87,1.46,4.23,1.13,2.44,2.41,4.87,4.13,6.93.53.59.95,1.36,1.46,2.03,1.35,1.87,2.85,3.63,4.46,5.29.71.68,1.41,1.38,2.17,2l1.12.96,1.15.92c.78.67,1.61,1.27,2.43,1.88.84.58,1.72,1.11,2.64,1.57.79.35,1.55.75,2.35,1.1.8.33,1.58.71,2.39,1,.31.12.63.26.94.39,1.88.74,3.59,1.63,5.46,2.32,1.37.46,2.72,1,4.06,1.46,3.15,1.13,6.57,1.72,10.02,1.72.63.03,1.29,0,1.92.05,1.05.06,2.1.18,3.14.14,1.04-.04,2.08-.12,3.1-.35.29-.08.68-.07,1.02-.11.7-.08,1.39-.14,2.09-.2.7-.08,1.39-.18,2.09-.27,1.4-.15,2.77-.47,4.13-.82.71-.18,1.41-.43,2.12-.62.71-.2,1.42-.38,2.12-.62l2.12-.65,2.09-.75c.61-.2,1.2-.5,1.78-.71.99-.35,1.95-.76,2.84-1.29.45-.26.89-.52,1.31-.79.42-.28.81-.6,1.2-.9,1.13-.86,2.2-1.61,3.33-2.31,1.35-.91,2.66-1.82,3.78-3.04.68-.68,1.39-1.47,2.11-2.05.22-.18.44-.37.65-.56.2-.2.4-.41.59-.62.38-.42.75-.85,1.11-1.28.68-.9,1.36-1.8,2.06-2.68.06-.08.05-.24.09-.37.15-.53.35-1.05.57-1.58.23-.52.45-1.07.73-1.58.57-1.03,1.16-2.07,1.87-2.99.66-.91,1.22-1.89,1.76-2.89.5-1.01,1.03-2.01,1.5-3.03.22-.45.44-.92.64-1.4.2-.48.36-.98.53-1.48.16-.5.34-1,.49-1.51.14-.51.28-1.02.43-1.53.7-2.55,1.25-5.15,1.55-7.77.39-3.13.49-6.28.41-9.42-.1-2.5-.33-4.97-.42-7.47,0-.59-.06-1.21-.15-1.82-.09-.62-.19-1.23-.35-1.8-.8-2.85-1.54-5.62-2.27-8.46-.28-1.01-.58-2.03-1-3.01-.2-.49-.41-.98-.62-1.47-.24-.48-.48-.96-.73-1.43-.48-.97-1.03-1.92-1.53-2.88-.36-.73-.81-1.42-1.23-2.12-.42-.7-.92-1.33-1.46-1.91-.46-.49-.87-.96-1.3-1.52-.49-.65-.94-1.33-1.46-1.96-.52-.63-1.03-1.26-1.58-1.87-.7-.72-1.37-1.48-2.09-2.19-.74-.69-1.42-1.43-2.19-2.09-.45-.4-.91-.79-1.38-1.18-.47-.39-.98-.72-1.47-1.08-.98-.73-2.04-1.34-3.07-1.98-.92-.57-1.91-1.04-2.84-1.6-.73-.39-1.42-.86-2.16-1.21-4.13-1.86-8.5-2.99-12.89-3.93-2.25-.48-4.55-.81-6.85-.95-1.27-.07-2.54-.06-3.8.01-.19,0-.38,0-.57,0l-1.54-.05-1.54.03c-2.11.03-3.5.53-4.35,1.1-.45.31-2.49,0-4.02-.13-1.12-.07-2.21-.14-3.36-.13-.57.03-1.15.08-1.76.16-.3.04-.61.09-.93.16-.31.08-.63.17-.96.27-.67.22-1.37.39-2.03.65-.66.25-1.31.52-1.89.82-.72.39-1.42.81-2.14,1.18-.72.37-1.43.77-2.2,1.1-3.36,1.52-6.11,3.83-8.77,6.2l-1.62,1.53c-.52.53-1.03,1.07-1.56,1.58-.6.6-1.16,1.22-1.74,1.84-.55.63-1.07,1.3-1.55,1.97-.47.73-.98,1.51-1.53,2.16-.68.86-1.32,1.7-1.81,2.62-.25.45-.5.9-.71,1.37-.2.47-.39.94-.56,1.41-.23.61-.47,1.21-.77,1.78-.3.57-.64,1.12-.98,1.69-.25.4-.5.82-.72,1.25-.8,1.73-1.54,3.5-2.16,5.31-.11.32-.25.66-.32.98ZM100.27,73.25c.69.19,1.34.42,2.01.58.67.15,1.36.34,2.15.31.4,0,.82-.02,1.22-.02.2,0,.41-.02.6-.04.2,0,.39-.02.58-.05.94-.15,1.88-.25,2.84-.11,1.04.24,2.07.34,3.11.4,1.03.12,2.05.26,3.09.45.85.19,1.69.43,2.53.7l.71.24.68.31c.46.2.92.38,1.4.53.25.08.51.15.77.24.24.11.47.24.68.4.53.39,1.07.72,1.64.99.56.28,1.1.57,1.7.78.39.14.74.33,1.06.56.32.23.58.55.83.88.18.23.36.47.57.68l.63.61c.21.2.39.44.58.65l1.15,1.32c.14.16.27.33.41.47.43.41.82.86,1.18,1.32.18.23.36.47.54.71.15.26.3.52.45.78.51.9,1.08,1.76,1.52,2.7l.71,1.38c.23.47.4.95.6,1.43.12.3.18.62.27.92.1.31.15.63.24.94l.49,1.57c.08.26.17.52.24.79l.19.8c.13.53.27,1.06.41,1.59.15.53.22,1.07.35,1.61.09.42.18.84.3,1.25.11.41.2.82.38,1.21.25.57.37,1.18.42,1.8,0,.62-.08,1.25-.15,1.87-.08.92-.38,1.81-.46,2.72-.04.41-.07.82-.13,1.22-.08.4-.15.81-.21,1.21s-.12.81-.15,1.22c-.03.41-.12.81-.14,1.23-.04.49-.23.99-.37,1.49-.19.68-.49,1.33-.73,1.99l-.37.99-.45.96c-.25.54-.48,1.1-.72,1.65-.28.53-.58,1.05-.89,1.56l-.5.79c-.17.26-.37.5-.55.76-.37.5-.71,1.02-1.01,1.59-.53.92-1.2,1.76-1.82,2.66-.13.17-.3.3-.44.46-.87.92-1.89,1.59-2.95,2.22-.37.24-.76.47-1.15.69-.19.11-.39.21-.58.31-.21.08-.41.16-.62.23-.49.18-.96.37-1.43.57-.47.2-.91.45-1.39.62-.95.38-1.84.87-2.76,1.37-.34.17-.7.35-1.06.46-1.21.41-2.44.62-3.51,1.37-.16.09-.39.11-.59.17-.81.23-1.63.46-2.46.57-.83.14-1.66.32-2.49.47-.43.09-.87.17-1.31.24-.44.05-.88.07-1.33.09-.44,0-.89.05-1.33.01l-1.33-.09c-.38-.03-.78,0-1.14-.11-.61-.15-1.23-.23-1.84-.27-.61-.07-1.21-.09-1.81-.07-.87.02-1.63-.22-2.39-.47-.46-.18-.9-.37-1.36-.53-.46-.15-.92-.29-1.4-.42-.56-.14-1.18-.32-1.65-.64-.57-.41-1.19-.67-1.81-.94-.61-.3-1.23-.58-1.8-.94-.05-.03-.16.01-.25,0-.71-.03-1.44-.22-2.11-.55-.64-.36-1.24-.84-1.71-1.4-.43-.57-.91-1.08-1.4-1.58-.46-.52-.92-1.05-1.34-1.6-.7-1.03-1.62-1.96-2.37-3-.97-1.28-1.82-2.64-2.63-4.02-.26-.4-.45-.84-.68-1.26-.22-.43-.47-.84-.66-1.27-.38-.88-.82-1.73-1.11-2.65-.26-.72-.54-1.43-.71-2.17-.18-.74-.36-1.48-.35-2.25,0-.72-.14-1.5-.29-2.19-.23-.87-.41-1.74-.43-2.62-.02-.44-.03-.88-.02-1.32.02-.44.08-.88.14-1.32.14-1.26.29-2.51.29-3.8.05-.65.13-1.3.22-1.94.04-.24.07-.49.12-.72.06-.23.11-.46.15-.69.09-.46.14-.92.13-1.39.02-.4.05-.77.2-1.16.29-.91.75-1.77,1.12-2.66.22-.56.55-1.06.82-1.59l.44-.78c.16-.25.34-.5.51-.75.79-1.19,1.54-2.44,2.39-3.62.4-.51.79-1.04,1.21-1.53.33-.37.77-.64,1.09-1.01,1.78-2.01,3.7-3.98,6.03-5.37.57-.39,1.2-.69,1.79-1.04.3-.17.59-.35.9-.51l.92-.45c.34-.17.66-.36.98-.56.33-.18.67-.35,1-.51.1-.05.21-.08.31-.12l.87-.29.88-.22c.6-.15,1.07-.41,1.46-.61.39-.21,2.47-.71,3.4-.45Z"/>
  <path class="cls-1" d="M147.32,52.93c.07.22.15.44.24.65.14.33.25.67.64.89.55.31.56.82.65,1.33.05.37.02.8.21,1.13.16.3.29.61.48.89.2.27.44.52.74.71.17.11.27.31.4.48l.52.69c.19.22.39.42.6.62.34.36.8.57,1.16.91.37.36.79.68,1.3.8.43.09.86.17,1.3.25.08.01.15.06.23.08.49.08.83.51,1.28.75.33.15.64.38.95.64.37.33.78.48,1.21.62.21.06.43.11.65.12.22,0,.44-.01.67-.05.16-.03.33-.05.49-.02.54.14,1.09.19,1.57-.21.07-.06.17-.03.25-.04.69-.12,1.39-.14,2.05-.41.68-.36,1.42-.48,2.16-.72.16-.04.31-.13.48-.15.56-.07,1.03-.43,1.33-.89.21-.35.48-.53.81-.67.39-.18.74-.41.97-.79.14-.21.27-.46.51-.56.6-.27.69-.94,1.09-1.36l-.07-.15c-.16-.42-.22-.78-.16-1.07.03-.15.09-.28.17-.39.08-.12.18-.23.31-.32.25-.18.44-.41.6-.64.15-.24.29-.49.48-.72.36-.42.41-.97.56-1.48.14-.65.27-1.3.29-1.97.04-.39.01-.79,0-1.18,0-.39-.05-.78-.09-1.17-.04-.62-.22-1.21-.03-1.88.07-.31.05-.65-.1-.92-.18-.34-.35-.67-.44-1.03-.09-.36-.14-.72-.17-1.11-.02-.28-.06-.56-.16-.81-.1-.25-.24-.5-.4-.72-.15-.23-.3-.47-.44-.72-.2-.37-.37-.78-.81-.96-.18-.08-.35-.15-.44-.3-.21-.36-.48-.68-.76-1-.34-.4-.74-.73-1.08-1.14-.21-.23-.49-.4-.76-.56-.27-.17-.55-.31-.84-.44-.25-.12-.52-.23-.76-.37-.18-.11-.33-.3-.53-.37-.28-.09-.56-.18-.84-.27l-.86-.18c-.56-.15-1.13-.21-1.69-.39-.57-.18-1.16-.23-1.75-.3-.32,0-.64.1-.96.15h-.14c-.26-.03-.53-.09-.78-.07-.83.03-1.65.67-2.09.4-.64-.4-1.35-.92-2.05-.65-.35.14-.77.18-1.02.5-.32.38-.63.71-1.07.83-.47.18-.85.5-1.19.84-.33.36-.61.78-.93,1.13-.26.3-.46.66-.72.94-.31.31-.58.66-.74,1.09-.08.23-.16.46-.31.62-.4.4-.62.91-.5,1.53.07.4-.1.66-.36.9-.09.09-.19.18-.24.29l-.31.65c-.09.22-.16.45-.25.68-.03.08-.08.16-.07.25.02.51-.05.97-.22,1.44-.12.41-.16.83-.22,1.25-.05.42-.03.85-.06,1.27,0,.13-.08.26-.1.4-.03.13-.08.27-.08.4,0,.46.03.92.12,1.37.04.23.08.45.14.68Z"/>
</svg>