<?xml version="1.0" encoding="UTF-8"?>
<svg id="Layer_11" data-name="Layer 11" xmlns="http://www.w3.org/2000/svg" viewBox="0 0 314.01 288">
  <defs>
    <style>
      .cls-1 {
        fill: #737438;
      }
    </style>
  </defs>
  <path class="cls-1" d="M241.07,165.89c0-1.71-.05-3.43-.12-5.15-.06-1.72-.13-3.44-.19-5.16l-.41-12.14c-.06-1.47-.06-3.01-.21-4.38-.49-4.67-.59-9.44-.73-14.17-.04-2.63.05-5.25.14-7.87.06-1.78.1-3.57.11-5.33.02-1.77-.03-3.51-.22-5.21-.23-2.33-.18-4.81-.12-7.3l.23-4.8.03-.5v-.14s-.05-.2-.05-.2l-.23-1.12c-.15-.75-.29-1.5-.53-2.22-.76-2.96-2.02-5.78-3.49-8.48-.22-.39-.43-.79-.64-1.19l-.31-.6-.35-.57c-.48-.75-.9-1.54-1.44-2.27-.9-1.13-1.76-2.3-2.78-3.34-.95-1.1-2.03-2.07-3.08-3.06-.53-.49-1.12-.92-1.67-1.39l-.84-.69c-.28-.23-.59-.42-.88-.63l-1.77-1.25-1.86-1.11c-2.92-1.67-6.01-2.91-9.25-3.47-.55-.07-1.15-.19-1.72-.29l-1.19-.21c-.41-.05-.83-.09-1.24-.14l-2.49-.27c-.83-.08-1.66-.19-2.49-.26l-2.49-.19c-.84-.06-1.68-.17-2.5-.27-2.29-.27-4.54-.33-6.8-.18-1.73.17-3.49.27-5.29.31-1.8.04-3.64.09-5.54.03-1.48-.04-3.08.1-4.58.21-2.87.22-5.78.3-8.7.43-2.56.11-5.1.33-7.66.5-6.13.42-12.12,1.14-18.42,1.22-2.86.02-5.59.28-8.37.55-2.22.19-4.76.22-7.17.21-2.35,0-4.4-.13-6.34-.42-1.94-.28-3.77-.57-5.68-.95-2.58-.48-8.24.5-9.4.98-.29.12-.59.24-.91.36-.31.14-.64.28-.98.44-.68.31-1.45.57-2.26.93l-2.36,1.07c-.77.39-1.52.82-2.28,1.23-.28.15-.57.3-.82.49l-1.29.94c-.43.32-.87.61-1.26.97l-1.21,1.03-.61.51c-.2.17-.38.36-.58.54-2.86,2.58-5.35,5.58-7.37,8.87-1.99,3.21-3.4,6.77-4.28,10.44-.28.9-.39,1.85-.57,2.77-.07.44-.22,1.04-.18,1.13l.09,1.4c.12,1.96.29,3.93.33,5.9.05,1.43-.04,2.87-.01,4.32,0,1.89.04,3.78.07,5.68,0,2.11,0,4.24.01,6.35-.02,2.12-.07,4.22-.16,6.32-.18,3.51-.34,6.99-.48,10.5-.11,2.83-.28,5.66-.43,8.48-.07,1.23-.02,2.3.03,3.47.12,2.71-.04,5.57-.16,8.39-.06,1.88-.11,3.77-.12,5.64,0,3.71-.06,7.38-.2,11.01-.13,2.53-.09,5.05-.06,7.58.05,1.26.13,2.53.22,3.79.05.63.1,1.27.14,1.9.06.63.14,1.27.22,1.9.13,1.01.22,2.09.29,3.16l.05.81c.03.26.05.52.08.77.05.51.09,1.02.13,1.5.4,4.19,1.9,8.27,3.92,12,2.52,4.74,6.09,8.88,10.24,12.23,3.49,2.81,7.45,5.05,11.68,6.46,3.38,1.13,6.96,1.55,10.5,1.96.97.13,1.94.27,2.93.35.98.08,1.97.16,2.96.24,1.97.18,3.95.3,5.92.5,2.03.23,4.16.27,6.23.18,2.07-.07,4.09-.33,5.88-.72.22-.05.43-.15.61-.15,1.96.03,3.91-.08,5.87-.16,1.96-.08,3.93-.16,5.91-.11,1.61.05,3.46-.05,5.12-.2,2.86-.24,5.61-.26,8.44-.28,2.31-.02,4.6-.08,7.06-.35,3.38-.35,7.05-.56,10.68-.45,1.08.03,2.23-.03,3.35-.02,5.17.03,10.35.06,15.5.09,2.47-.04,4.94.14,7.4.29l.82.05c.08,0,.44-.06.72-.09l1.73-.24c.58-.05,1.14-.24,1.71-.37l1.7-.42c.54-.19,1.17-.36,1.62-.57,3.12-1.47,6.28-2.9,9.26-4.82.88-.58,1.73-1.29,2.57-1.95.54-.49,1.07-.98,1.61-1.47l.8-.72.75-.78c.5-.51,1-1.03,1.5-1.54.47-.54.93-1.08,1.4-1.62.23-.27.48-.52.69-.81l.64-.85c.42-.57.88-1.11,1.28-1.69.76-1.18,1.62-2.31,2.28-3.56.29-.51.6-1.03.89-1.56.25-.55.49-1.11.74-1.67.54-1.11.85-2.31,1.22-3.49.84-3.26,1.29-6.67,1.51-10.22.02-.59.06-1.2.08-1.79.02-1.52.09-3.04.07-4.56-.02-1.52-.04-3.03-.06-4.54-.14-3.59-.02-7.14-.05-10.74ZM210.87,152.36c-.3,2.63-.85,5.22-1.55,7.77-.14.51-.28,1.02-.43,1.53-.14.51-.32,1.01-.49,1.51-.17.5-.33,1-.53,1.48-.2.48-.42.95-.64,1.4-.47,1.02-1.01,2.02-1.5,3.03-.54.99-1.1,1.98-1.76,2.89-.71.93-1.3,1.96-1.87,2.99-.28.52-.5,1.06-.73,1.58-.23.52-.42,1.05-.57,1.58-.04.13-.02.29-.09.37-.7.88-1.37,1.78-2.06,2.68-.36.43-.73.87-1.11,1.28-.19.21-.39.42-.59.62-.21.19-.43.38-.65.56-.73.58-1.43,1.38-2.11,2.05-1.12,1.22-2.43,2.13-3.78,3.04-1.13.7-2.2,1.45-3.33,2.31-.39.3-.78.61-1.2.9-.43.27-.87.54-1.31.79-.89.53-1.86.94-2.84,1.29-.58.21-1.17.51-1.78.71l-2.09.75-2.12.65c-.7.24-1.41.42-2.12.62-.71.19-1.41.44-2.12.62-1.36.35-2.74.67-4.13.82-.7.09-1.39.19-2.09.27-.7.06-1.39.12-2.09.2-.34.04-.73.03-1.02.11-1.01.23-2.05.32-3.1.35-1.04.04-2.09-.08-3.14-.14-.63-.04-1.28-.02-1.92-.05-3.45,0-6.87-.59-10.02-1.72-1.34-.45-2.69-1-4.06-1.46-1.87-.69-3.58-1.58-5.46-2.32-.31-.12-.62-.27-.94-.39-.81-.29-1.59-.67-2.39-1-.8-.34-1.56-.74-2.35-1.1-.92-.46-1.8-.99-2.64-1.57-.82-.61-1.66-1.2-2.43-1.88l-1.15-.92-1.12-.96c-.77-.62-1.46-1.32-2.17-2-1.61-1.66-3.11-3.42-4.46-5.29-.51-.67-.93-1.44-1.46-2.03-1.73-2.06-3-4.49-4.13-6.93-.63-1.36-1.03-2.8-1.46-4.23-.28-.97-.56-1.94-.84-2.89-.31-.95-.64-1.87-1.09-2.75-.32-.59-.54-1.24-.75-1.91-.22-.66-.38-1.35-.53-2.04-.82-3.54-1.16-7.19-1.16-10.82,0-.53.07-1.06.11-1.59.03-.52.12-1.04.15-1.57.17-3.38.54-6.77,1.33-10.06.2-.96.49-1.9.7-2.84.25-.93.46-1.87.67-2.82.07-.32.21-.65.32-.98.62-1.81,1.36-3.57,2.16-5.31.22-.43.47-.85.72-1.25.34-.57.68-1.12.98-1.69.29-.57.53-1.17.77-1.78.17-.47.36-.94.56-1.41.21-.46.46-.91.71-1.37.49-.92,1.14-1.76,1.81-2.62.55-.65,1.05-1.43,1.53-2.16.49-.68,1-1.34,1.55-1.97.57-.61,1.14-1.24,1.74-1.84.53-.52,1.04-1.06,1.56-1.58l1.62-1.53c2.65-2.37,5.4-4.67,8.77-6.2.77-.33,1.48-.73,2.2-1.1.72-.37,1.42-.78,2.14-1.18.58-.3,1.22-.57,1.89-.82.66-.25,1.37-.43,2.03-.65.33-.1.64-.19.96-.27.32-.07.63-.12.93-.16.61-.09,1.19-.13,1.76-.16,1.15,0,2.24.06,3.36.13,1.52.13,3.57.43,4.02.13.85-.58,2.24-1.07,4.35-1.1l1.54-.03,1.54.05c.19,0,.38.02.57,0,1.26-.07,2.53-.09,3.8-.01,2.3.14,4.6.47,6.85.95,4.4.94,8.77,2.07,12.89,3.93.74.35,1.43.82,2.16,1.21.93.56,1.92,1.02,2.84,1.6,1.03.65,2.09,1.26,3.07,1.98.49.36,1.01.69,1.47,1.08.47.39.93.78,1.38,1.18.77.66,1.45,1.4,2.19,2.09.72.71,1.38,1.46,2.09,2.19.54.61,1.06,1.24,1.58,1.87.52.63.97,1.31,1.46,1.96.43.57.84,1.03,1.3,1.52.54.58,1.04,1.21,1.46,1.91.42.69.87,1.39,1.23,2.12.51.96,1.05,1.91,1.53,2.88.25.47.49.95.73,1.43.21.49.42.98.62,1.47.42.98.72,1.99,1,3.01.73,2.84,1.47,5.61,2.27,8.46.16.57.26,1.18.35,1.8.09.62.15,1.24.15,1.82.09,2.49.32,4.97.42,7.47.07,3.14-.03,6.29-.41,9.42ZM226.26,90.39c-.02.66-.15,1.32-.29,1.97-.16.5-.21,1.06-.56,1.48-.19.23-.33.48-.48.72-.16.24-.35.46-.6.64-.13.09-.23.2-.31.32-.09.12-.14.25-.17.39-.06.29,0,.66.16,1.07l.07.15c-.4.41-.49,1.09-1.09,1.36-.24.11-.37.35-.51.56-.23.37-.58.61-.97.79-.33.14-.6.32-.81.67-.3.46-.76.81-1.33.89-.17.01-.32.1-.48.15-.74.24-1.48.36-2.16.72-.65.27-1.36.29-2.05.41-.09.02-.19-.02-.25.04-.48.4-1.03.35-1.57.21-.16-.04-.33,0-.49.02-.22.04-.45.05-.67.05-.22-.01-.44-.06-.65-.12-.43-.14-.84-.29-1.21-.62-.31-.26-.62-.49-.95-.64-.45-.24-.79-.67-1.28-.75-.08-.02-.15-.07-.23-.08-.43-.08-.86-.17-1.3-.25-.52-.13-.93-.44-1.3-.8-.36-.33-.82-.55-1.16-.91-.21-.2-.41-.41-.6-.62l-.52-.69c-.13-.16-.22-.36-.4-.48-.3-.19-.54-.44-.74-.71-.19-.28-.32-.59-.48-.89-.19-.33-.16-.75-.21-1.13-.08-.51-.09-1.01-.65-1.33-.39-.22-.5-.56-.64-.89-.09-.21-.17-.43-.24-.65-.05-.22-.1-.45-.14-.68-.09-.45-.11-.91-.12-1.37,0-.13.05-.27.08-.4.02-.13.09-.27.1-.4.03-.42.01-.85.06-1.27.06-.42.1-.84.22-1.25.17-.47.24-.93.22-1.44,0-.09.04-.17.07-.25.08-.23.16-.45.25-.68l.31-.65c.05-.11.15-.2.24-.29.26-.24.43-.5.36-.9-.12-.62.1-1.13.5-1.53.15-.16.23-.39.31-.62.15-.43.43-.78.74-1.09.26-.28.46-.64.72-.94.32-.35.6-.76.93-1.13.35-.34.73-.66,1.19-.84.43-.13.74-.45,1.07-.83.25-.32.67-.36,1.02-.5.7-.27,1.4.25,2.05.65.44.27,1.26-.38,2.09-.4.26-.02.52.04.78.07h.14c.32-.04.64-.15.96-.14.59.07,1.18.12,1.75.3.56.19,1.12.24,1.69.39l.86.18c.28.08.56.17.84.27.2.07.35.26.53.37.24.15.5.25.76.37.29.13.57.28.84.44.27.17.55.33.76.56.34.41.74.74,1.08,1.14.28.31.55.64.76,1,.1.15.26.22.44.3.44.18.61.59.81.96.14.24.29.48.44.72.16.23.29.47.4.72.1.25.14.53.16.81.03.39.08.76.17,1.11.09.35.26.69.44,1.03.15.27.17.61.1.92-.19.67,0,1.26.03,1.88.04.39.08.78.09,1.17.02.39.04.79,0,1.18Z"/>
  <path class="cls-1" d="M190.53,140.42c-.12-.41-.21-.83-.3-1.25-.13-.53-.21-1.08-.35-1.61-.15-.53-.28-1.06-.41-1.59l-.19-.8c-.07-.26-.16-.52-.24-.79l-.49-1.57c-.09-.31-.14-.63-.24-.94-.09-.31-.15-.63-.27-.92-.2-.48-.38-.97-.6-1.43l-.71-1.38c-.44-.94-1.01-1.8-1.52-2.7-.15-.26-.3-.52-.45-.78-.18-.24-.35-.48-.54-.71-.37-.47-.76-.91-1.18-1.32-.14-.15-.28-.31-.41-.47l-1.15-1.32c-.2-.22-.37-.45-.58-.65l-.63-.61c-.21-.21-.4-.44-.57-.68-.25-.32-.51-.64-.83-.88-.32-.23-.68-.42-1.06-.56-.6-.2-1.14-.5-1.7-.78-.57-.27-1.11-.6-1.64-.99-.21-.15-.44-.28-.68-.4-.25-.09-.52-.17-.77-.24-.48-.14-.94-.33-1.4-.53l-.68-.31-.71-.24c-.84-.27-1.68-.51-2.53-.7-1.04-.18-2.06-.33-3.09-.45-1.04-.06-2.07-.16-3.11-.4-.96-.13-1.9-.03-2.84.11-.19.03-.38.04-.58.05-.2.02-.4.04-.6.04-.41,0-.82.02-1.22.02-.78.04-1.47-.16-2.15-.31-.67-.16-1.32-.38-2.01-.58-.93-.26-3.01.24-3.4.45-.39.2-.86.46-1.46.61l-.88.22-.87.29c-.11.04-.21.07-.31.12-.34.17-.68.33-1,.51-.32.2-.65.39-.98.56l-.92.45c-.3.16-.6.34-.9.51-.59.35-1.22.65-1.79,1.04-2.34,1.39-4.25,3.36-6.03,5.37-.32.37-.77.63-1.09,1.01-.42.49-.81,1.02-1.21,1.53-.85,1.18-1.6,2.43-2.39,3.62-.17.25-.35.49-.51.75l-.44.78c-.28.53-.61,1.04-.82,1.59-.37.89-.83,1.75-1.12,2.66-.14.39-.17.77-.2,1.16,0,.47-.04.93-.13,1.39-.04.23-.1.46-.15.69-.05.23-.08.48-.12.72-.1.64-.18,1.29-.22,1.94,0,1.28-.15,2.54-.29,3.8-.06.44-.12.88-.14,1.32,0,.44,0,.88.02,1.32.02.88.2,1.76.43,2.62.16.69.29,1.47.29,2.19,0,.77.16,1.51.35,2.25.17.74.45,1.45.71,2.17.29.91.73,1.77,1.11,2.65.19.44.44.85.66,1.27.23.42.42.86.68,1.26.81,1.38,1.67,2.74,2.63,4.02.75,1.04,1.67,1.97,2.37,3,.41.55.87,1.07,1.34,1.6.49.5.97,1,1.4,1.58.47.56,1.07,1.04,1.71,1.4.67.32,1.39.52,2.11.55.09,0,.2-.04.25,0,.57.37,1.19.65,1.8.94.62.27,1.25.53,1.81.94.47.32,1.09.5,1.65.64.48.13.94.26,1.4.42.46.16.9.35,1.36.53.76.25,1.52.48,2.39.47.6-.02,1.21,0,1.81.07.61.04,1.23.12,1.84.27.36.1.76.08,1.14.11l1.33.09c.44.03.89,0,1.33-.01.44-.02.89-.04,1.33-.09.44-.07.88-.15,1.31-.24.83-.15,1.66-.33,2.49-.47.84-.12,1.65-.34,2.46-.57.2-.06.44-.08.59-.17,1.07-.75,2.3-.96,3.51-1.37.36-.11.72-.29,1.06-.46.92-.5,1.81-.99,2.76-1.37.48-.18.92-.42,1.39-.62.46-.21.94-.39,1.43-.57.21-.08.41-.15.62-.23.2-.1.39-.2.58-.31.39-.21.77-.44,1.15-.69,1.06-.63,2.07-1.3,2.95-2.22.14-.16.31-.29.44-.46.61-.89,1.29-1.74,1.82-2.66.29-.57.64-1.08,1.01-1.59.18-.26.39-.49.55-.76l.5-.79c.32-.51.61-1.03.89-1.56.24-.55.47-1.11.72-1.65l.45-.96.37-.99c.24-.66.53-1.31.73-1.99.14-.49.33-1,.37-1.49.02-.42.11-.82.14-1.23.04-.41.09-.82.15-1.22.06-.41.14-.81.21-1.21.07-.41.09-.82.13-1.22.08-.91.38-1.8.46-2.72.07-.62.15-1.25.15-1.87-.04-.62-.16-1.23-.42-1.8-.18-.39-.27-.8-.38-1.21Z"/>
  <path class="cls-1" d="M313.94,236.38c-.1-2.72-.32-5.43-.58-8.13-.52-5.4-1.22-10.76-1.58-16.18-.3-4.52-.79-9.03-.9-13.56-.13-5.16-.02-10.31-.77-15.41-.39-2.65-.83-5.49-.6-8.11.57-6.71,0-13.06-1.72-19.17-1.13-4-1.05-7.97-.33-12.06.26-1.46.5-2.96.56-4.46.21-5.92.35-11.85.5-17.77.03-1.07.14-2.17,0-3.19-.82-6-.68-11.95-.38-18.08.51-10.47.37-21.01.56-31.52.03-1.63.34-3.25.52-4.88.18-1.64.49-3.27.52-4.91l.14-8.42.04-4.21c0-.16,0-.4,0-.6v-.62s-.04-1.24-.04-1.24c-.06-.83-.11-1.66-.2-2.48-.73-6.61-3.09-13.06-6.87-18.43-1.46-2.1-3.07-4.08-4.91-5.77-1.83-1.69-3.88-3.09-6.09-4-3.23-1.31-6.19-2.82-9.28-4.24-3.07-1.43-6.24-2.83-9.6-3.79-2.47-.72-5.03-1.3-7.62-1.59-2.31-.29-4.62-.52-6.93-.54-5.01-.04-10.05-.21-15.07-.04-3.97.07-7.94.32-11.87.97-.44.07-.89.12-1.35.15-1.48-.01-2.99-.11-4.47-.13-7.15-.1-14.3-.33-21.45-.34-2.3,0-4.61.05-6.91.12-1.31.03-2.61.07-3.92.11-2.48.06-4.95.09-7.42.02-4.65-.14-9.25-.42-13.88-.23-2.35.03-4.71.17-7.07.48-5.32.7-10.72,1.12-16.1,1.64-.17.02-.34.02-.52.03-.23,0-.45.01-.68.03-.66.01-1.32.01-1.98.05-.15,0-.3.01-.45.02-5.45,0-10.71-1.07-16.09-1.48-4.5-.34-8.98-1.05-13.31-1.93C106.8.67,97.64-.1,88.28.24c-1.92.04-3.85.12-5.79.25-.71.05-1.42.1-2.13.13-.63,0-1.25-.02-1.86-.07-4.09-.33-8.16-.7-12.19-.5-3.03.03-6.03.31-9.02,1.13-.09.03-.2.04-.3.05-.32-.01-.63-.02-.94,0-2.16.07-4.32.08-6.48.06l-1.62-.02h-.82s-.97,0-.97,0c-.59,0-1.18.02-1.77.05h-.17c-1.29,0-2.58.09-3.87.2-5.14.5-10.24,2.01-14.69,4.61-4.64,2.71-8.85,6.02-12.51,9.87-3.66,3.85-6.77,8.27-9.05,13.15-1,2.11-1.61,4.44-2.4,6.57-.16.45-.32.9-.47,1.36-.14.46-.26.92-.38,1.39-.26.93-.41,1.88-.57,2.82-.14.95-.22,1.91-.28,2.86-.01.48-.02.95-.03,1.43v.7s.02.59.02.59c.13,3.16.5,6.27,1.05,9.26.8,4.35.72,8.39.35,12.46-.45,5-.83,9.85-.23,14.91.34,2.86.51,6.04.09,8.83-.01,1.7-.04,3.4.02,5.1.11,3.02.86,5.68,1.63,8.54.13.49.14,1.01.14,1.51.02,1.74.04,3.48.06,5.22,0,.32,0,.64.11.94.09.26.24.5.39.73,3.87,6.09,4.33,14.62,2.88,21.5-1.11,5.28-1.32,10.64-1.8,15.95-.13.64-.26,1.27-.4,1.9-.29,1.32-.56,2.64-.8,3.97-.05.58-.11,1.15-.16,1.73-1.31,13.79-2.09,27.52-1.97,41.46.09,9.74.41,19.48.48,29.23.03,3.87.13,7.74.05,11.6-.02,2.17.04,4.43.22,6.65.19,2.23.47,4.46.82,6.73.35,2.11.97,4.33,1.88,6.43.91,2.1,2.13,4.08,3.52,5.74,3.5,4.17,7.39,7.76,11.66,10.84,4.27,3.08,8.92,5.65,13.99,7.6l1.38.48.7.23.71.2,1.43.38c.48.11.96.2,1.45.3.97.21,1.95.31,2.94.44.49.06.99.08,1.48.11l.74.04.37.02h.31c.97.04,1.94.06,2.91.06,2.05.02,4.11-.02,6.18-.1.89-.03,1.77-.06,2.66-.1.36-.02.73-.03,1.09-.04.79-.02,1.58-.03,2.38-.04,1.53,0,3.07.01,4.6.05,1.96.05,3.94.12,5.9.13.47,0,.94,0,1.4,0,.02-.02.03-.04.05-.06,3.19.04,6.36-.07,9.42-.76,2.05-.46,3.94-.87,6.12-.78,4.99.2,9.99.43,14.99.45,6.19.03,12.33.2,18.52.53,7.37.39,14.85-.18,22.29-.34,3.32-.07,6.65-.24,9.97-.18.27,0,.55.02.82.04-.05.05-.1.11-.15.16,1.82.19,3.64.49,5.44.44,2.47-.07,4.94-.15,7.41-.24,2.2-.08,4.4-.16,6.6-.24,7.45-.26,14.89-.47,22.36-.28-.02-.03-.04-.05-.06-.08,2.19.04,4.38.11,6.58.22,2.05.11,4.11.2,6.17.28.03.04.05.07.08.11,4.53.16,9.06.27,13.59.3,1.1,0,2.19-.02,3.29-.07,3.03-.08,6.07-.37,9.11-.56.36,0,.71.03,1.07.05,3.17.17,6.34.4,9.51.51.38.01.75.01,1.12.01-.09-.03-.17-.05-.25-.08-.01,0-.02,0-.03-.01.2,0,.41.02.61.03,4.09.13,7.35-.39,9.93-1.37.82.02,1.62.17,2.44.23,1.36.11,2.77-.34,4.15-.42,1.59-.09,3.18-.02,4.76.2.29.04.59.09.88.05.25-.04.49-.14.73-.2,1.17-.31,2.33.16,3.49.25,1.25.1,2.54.09,3.8.09.05,0,.1,0,.14,0,.8,0,1.6-.02,2.4-.06,2.55-.04,5.13-.31,7.75-.96,1.11-.25,2.19-.62,3.31-1.01,1.08-.44,2.2-.9,3.27-1.49,2.17-1.15,4.29-2.65,6.24-4.59,2.01-1.98,3.96-4.14,5.62-6.46,1.66-2.32,3-4.81,3.8-7.29,1.02-3.12,1.75-6.25,2.33-9.38.58-3.13,1.02-6.26,1.42-9.48.13-.89.18-1.78.23-2.67.05-.98.06-1.56.06-2.27.01-1.37-.01-2.74-.07-4.1ZM261.84,169.15c-.38,4.88-.43,10.21-.1,14.6.02.27.1.53.08.75-.52,4.7-.88,9.45-2.12,14.12-.51,1.88-.99,4.08-1.49,6.05-.84,3.38-2.04,6.54-3.53,9.65-1.23,2.54-2.53,5.01-4,7.65-2.04,3.62-4.82,7.28-8.24,10.16-1,.88-2.07,1.79-3.14,2.65-5.05,3.85-10.75,6.72-16.59,8.95-2.79,1.07-5.75,1.82-8.68,2.39l-4.4.74-4.4.57c-.72.1-1.53.17-2.15.27-2.13.38-4.3.67-6.49.83-2.19.15-4.39.25-6.6.33-1.32.03-2.69.13-4.02.22-3.63.29-7.22.36-10.78.41-3.55-.01-7.07-.05-10.56-.27-2.94-.16-5.98-.29-9.03-.38-4.18-.09-8.24-.44-12.52-.42-.71,0-1.44-.01-2.15-.02-3.65.02-7.32.04-10.92.06-4.32.02-8.58-.25-12.9-.55-1.03-.07-2.06-.13-3.09-.2l-3.12-.25-3.11-.37c-1.03-.17-2.07-.33-3.09-.52-4.82-.96-9.55-2.38-14.06-4.33-1.64-.7-3.3-1.56-4.83-2.25-5.18-2.39-9.97-5.83-14.11-9.82-2.31-2.21-4.32-4.71-6.14-7.31-2.49-3.53-4.54-7.34-6.63-10.89-1.43-2.44-2.55-5.27-3.42-8.16-1.15-3.71-1.91-7.54-2.32-11.4-.39-3.85-.58-7.64-.79-11.46-.05-1.11-.03-2.22-.05-3.34-.01-1.1,0-2.21-.04-3.31-.25-7.13-.42-14.28-.37-21.38.03-4.16.05-8.19-.1-12.26-.03-.69,0-1.44,0-2.17.07-4.02.15-8.04.29-12.05.03-1.02.11-2.03.19-3.02.22-2.77.32-5.46.19-8.18-.21-4.16-.13-8.47.27-13.02.08-.89.13-1.81.17-2.74.01-.47.03-.93.04-1.39.03-.47.06-.93.09-1.39.06-.88.13-1.76.2-2.64l.12-1.33c.05-.44.14-.88.22-1.32.16-.88.32-1.75.48-2.63l.24-1.32c.08-.44.22-.87.32-1.3l.58-2.28.28-1.14c.09-.38.19-.76.32-1.13.49-1.49.99-2.99,1.48-4.48.37-.87.73-1.74,1.1-2.61l.54-1.31c.18-.44.35-.88.58-1.29l1.29-2.52.65-1.26c.21-.43.49-.81.73-1.22.51-.8,1.02-1.6,1.53-2.41.27-.39.5-.82.8-1.19l.88-1.14c.6-.75,1.2-1.51,1.8-2.26.62-.75,1.33-1.41,2.01-2.12.63-.63,1.23-1.27,1.83-1.9.64-.59,1.27-1.17,1.9-1.77.63-.59,1.23-1.2,1.87-1.79.66-.55,1.32-1.11,1.98-1.67.53-.45,1.08-.9,1.66-1.35.59-.44,1.23-.82,1.86-1.23.64-.4,1.28-.8,1.93-1.21.33-.19.64-.41.97-.59.33-.17.67-.35,1-.52,1.29-.67,2.51-1.27,3.7-1.78,1.22-.44,2.39-.83,3.54-1.19.57-.17,1.13-.37,1.7-.49.57-.12,1.14-.24,1.71-.36,1.13-.23,2.26-.46,3.41-.7,3.16-.42,7.61-.34,8.64-.56.97-.2,2.2-.34,3.73-.41,1.53-.1,3.37-.13,5.56-.06,2.14.04,4.28.08,6.41.12.39,0,.79.02,1.18,0,2.64-.09,5.27-.19,7.91-.28,4.8-.12,9.61-.25,14.39-.37,9.38-.23,18.7-.87,28.08-1.16,1.7-.05,3.42.03,5.14.03,2.26,0,4.52-.09,6.78-.06,2.53,0,5.07-.02,7.61.06,1.27.03,2.54.05,3.8.11,1.26.07,2.52.16,3.78.25,2.11.13,4.2.37,6.3.58l1.57.16c.52.05,1.05.11,1.59.19l1.6.23,1.59.3c3.43.67,6.77,1.75,9.96,3.12,1.39.61,2.62,1.06,3.94,1.64,3.08,1.3,6.07,3.23,8.84,5.33.94.68,1.82,1.44,2.74,2.15.87.77,1.78,1.49,2.62,2.28,1.72,1.51,3.29,3.17,4.78,4.87,1.46,1.73,2.85,3.51,4.05,5.4,3.39,5.23,6.21,10.74,8.4,16.7.89,2.36,1.49,5.16,1.79,7.64.07.67.17,1.33.22,1.99l.18,2.07c.02.12,0,.24-.02.35l-.04.32-.06.48-.12.96c-.08.64-.13,1.29-.19,1.93-.22,2.58-.33,5.18-.4,7.78-.15,6.56.1,13.13.38,19.71.25,5.53.51,11.07.76,16.6.19,4.4.45,8.93.38,13.18-.08,4.71.03,9.53-.35,14.26Z"/>
</svg>