<?xml version="1.0" encoding="UTF-8"?>
<svg id="Bat" xmlns="http://www.w3.org/2000/svg" viewBox="0 0 202.03 345.8">
  <defs>
    <style>
      .cls-1 {
        fill: #633919;
      }

      .cls-2 {
        fill: #8b5332;
      }

      .cls-3 {
        fill: #804b27;
      }

      .cls-4 {
        fill: #392212;
      }

      .cls-5 {
        fill: #965b3e;
      }

      .cls-6 {
        fill: #d49196;
      }

      .cls-7 {
        fill: #6b4a3e;
      }

      .cls-8 {
        fill: #2a1a0f;
      }

      .cls-9 {
        fill: #614338;
      }

      .cls-10 {
        fill: #aa6b47;
      }

      .cls-11 {
        fill: #523930;
      }

      .cls-12 {
        fill: #ba7a6e;
      }

      .cls-13 {
        fill: #4a2b15;
      }

      .cls-14 {
        fill: #22160c;
      }

      .cls-15 {
        fill: #b47246;
      }
    </style>
  </defs>
  <path class="cls-8" d="M201.33,183.11c-.25-13.84-1.49-23.17-3.9-29.38-2.87-7.38-10.83-15.22-19.93-15.22-.11,0-.22,0-.32,0-.84-6.27-1.8-12.74-4.39-19.19-3.63-9.04-8.83-18.63-13.87-27.9-2.99-5.51-5.82-10.72-8.32-15.79-1.33-2.69-2.48-5.45-3.69-8.38-1.19-2.86-2.42-5.82-3.83-8.7-1.38-2.82-3.41-6.43-5.56-10.26-5.5-9.8-13.04-23.23-13.19-29.8-.02-.75.12-1.55.29-2.48.25-1.41.53-3.01.34-4.9-.31-3.03-3-9.06-7.27-10.3-1.2-.35-6.07-.82-7.21-.82-.23,0-.42.01-.56.03-.7.07-1.34.16-2.01.25-.81.11-1.57.22-2.55.3-1.7.14-3.2.73-4.44,1.71-1.95-1.37-4.24-1.38-5.54-1.39-.37,0-.72,0-1.05-.02l-.07-.04c-.67-.33-1.69-.83-3.05-.83-12.42,0-14.47,7.55-14.59,12.05-.05,2.03-.04,3.64-.03,5.06.04,4.64.05,6.21-2.63,12.45-4.41,10.27-10.44,22.04-16.26,33.43-2.77,5.42-5.39,10.53-7.81,15.43-2.05,4.15-4.67,8.85-7.45,13.82-6.3,11.29-13.45,24.09-15.99,34.53-.35,1.41-.71,4.15-1.14,7.33-.18,1.32-.4,2.98-.62,4.43-.16,0-.32,0-.48,0-3.03,0-6.22.93-9.22,2.69-2.08,1.06-3.95,2.56-5.57,4.45-2.63,2.75-4.65,6.02-5.69,9.2C.25,165.48.11,181.92.27,197.85c-.16,8.77-.2,17.7-.12,26.55-.37,28.32-.83,63.56,9.44,93.85,6.19,18.26,15.63,27.52,28.07,27.52,6.32,0,13.27-2.56,20.66-7.61.33-.23.69-.46,1.05-.7,3.3-2.18,8.29-5.46,8.22-11.54-.06-4.97-3.72-8.72-8.06-10.25l.84-2.14c.89-.1,2.3-.32,3.6-.93.89.31,1.82.76,2.84,1.24,1.27.6,2.71,1.28,4.32,1.81,7.85,2.59,18.5,4.02,29.98,4.02s21.5-1.37,29.1-3.85c1.69-.55,3.21-1.25,4.55-1.87,1.21-.56,2.31-1.06,3.38-1.4.9.47,1.97.78,3.22.94.29.66.65,1.48,1,2.31-5.52,1.57-7.27,5.16-7.8,6.91-1.47,4.82,1.2,10.19,7.14,14.37,8.33,5.87,15.69,8.73,22.48,8.73h0c12.01,0,21.02-8.72,27.53-26.66,1.94-5.02,3.59-10.84,4.9-17.24,4.69-21.36,5.19-44.07,5.03-65.44.61-21.03.52-38.48-.3-53.35Z"/>
  <path class="cls-11" d="M154.01,100.15c-9.49-19.67-18.32-43.64-30.41-61.63-1.14-1.7-.7-.51-.8.48-1.54-5.57-4.94-10.94-5.67-16.69-.36-2.84.75-15.1-1.8-15.71l-2.27,2.59c-1.09-.03-1.19-2.35-2.27-2.58-1.45-.31-1.4,1.76-1.62,1.94-1.28.99-2.17-4.01-4.86-1.3-2.83,2.85,1.73,14.55,2.21,18.55.29,2.43-.22,5.07.07,7.38-1.1-.99-2.19-.09-3.24,0-.51.04-1.55.18-2.56.32-1.02-.14-2.06-.28-2.57-.32-.18.11-.32.23-.44.35-.6-.55-1.71-1.55-2.85-.35.36-2.19-.22-4.99.07-7.38.4-3.32,5.77-17.72,1.46-19.11-2.74-.88-2.74,2.02-3.14,1.86-.65-.25-1.43-2.15-2.53-1.92-1.25.26-1.18,2.5-2.32,2.57-.77-3.5-3.36-2.96-3.84.37-.57,3.99.3,8.58-.23,12.76-.7,5.57-4.13,11.71-5.67,17.34l-.65-1.61c-11.63,19.44-20.1,40.46-29.91,60.81-5.38,11.17-13.39,21.54-14.82,34.11h0c3.57-12.61,24.54-34.62,35-42.77h0c4.76-3.71,11.85-7.6,17.5-9.72h0s0,0,0,0c2.72-1.02,5.28-2.07,8.19-2.48.28-.01.59-.04.94-.11,1.55-.14,3.67-.22,5.81-.22,2.13,0,4.26.07,5.81.22h0c.32.06.59.09.85.11,2.92.41,5.49,1.46,8.22,2.48h0c5.73,2.16,12.68,5.96,17.5,9.72h0c3.93,3.07,9.68,8.67,13.3,12.3,9.11,9.11,16.14,18.09,21.69,29.82h0c-2.29-13.15-8.58-20.59-14.17-32.17Z"/>
  <path class="cls-3" d="M196.04,168.29c-.96-9.5-4.97-24.02-16.71-24.83-1.74-.12-4.74,1.31-5.68-.09-1.09-7.8-1.75-15.14-4.71-22.51-5.62-14-15.21-29.5-22.06-43.39-2.75-5.56-4.79-11.5-7.53-17.09-5.01-10.22-18.93-31.44-19.17-41.78-.06-2.52.9-4.61.65-7.06-.21-2.04-2.25-6.15-4.31-6.75-.63-.18-5.55-.72-6.21-.66-1.51.15-2.72.41-4.63.56-2.8.22-3.9,2.67-4.25,5.15h0c-.13.89-.05,2.29,0,3.24h0c.32,5.58,3.27,11.14,3.24,16.85h-7.78c-.64-.64,3.02-13.2,3.24-15.55.13-1.36.18-3.88,0-5.18h0s0,0,0,0c-.73-5.13-3.36-3.92-6.58-4.23-.74-.07-1.61-.82-2.31-.82-5.63,0-10.32,1.48-10.49,8.03-.23,8.99.87,10.02-3,19.03-6.55,15.24-16.59,33.73-24.17,49.06-6.82,13.8-19.65,33.22-23.13,47.51-.69,2.84-1.85,14.56-2.56,15.58-1,1.43-3.89-.02-5.67.11-16.5,1.14-16.94,26.66-17.39,38.4-1.11,28.82-.57,58.08.65,86.89,1.23,28.89,9.6,93.99,53.39,63.7,8.32-5.75,2.48-13.42-6.05-12.21.66-2.26,4.21-13.75,5.62-14.19,1.26-.4,10.17,3.46,12.53,4.15,18.56,5.37,38.43,5.49,57.17.78,3.25-.82,13.2-5.19,15.1-5.06.57.04.68-.06,1.04.45.42.6,4.99,13.37,4.46,13.87-9.43-.94-14.14,6.75-5.13,12.59,42.58,27.59,51.09-32.17,52.47-61.48,1.51-32.16,3.19-71.29-.03-103.05Z"/>
  <path class="cls-2" d="M133.18,186.11c1.68-.37,1.87.69,1.35,2.19-7.37,13.65-14.45,28.16-17.11,43.47-.88,5.06.54,7.48,4.02,11.17,7.76,6.5,15,13.43,21.71,20.81,3.35,7.3,5.21,9.62,12.39,4.22,12.6-9.49,13.96-26.8,11.93-41.32.02-1.35.61-1.85,2-1.65.34.99,1.89,2.44,1.94,2.59,3.8,3.46,4.34,11.05,4.62,16.29,1.19,22.09-11.22,45.16-27.95,58.23-.67-1.46-1.02-2.69-2.86-2.6-1.18.06-8.02,4.02-10.11,4.86-20.49,8.24-37.36,13.58-57.86,5.4-5.77-2.3-16.53-9.29-23.15-9.61-1.84,2.64-5.99-1.95-7.64-3.81-8.33-9.37-20.1-30.21-20.78-42.91-.22-4.22.42-22.58,2.77-25.04.45-.47,1.01-.74,1.66-.82.13-.34,2.03-2.28,2.59-3.89l1.28.62c-1.09,14.45-1.63,33.8,11.53,43.54,4.22,3.12,10.06,5.67,11.05-1.27,6.86-8.56,14.63-16.34,23.31-23.34,4.28-4.41,5.32-7.51,4.05-13.32-3.25-14.8-9.52-28.88-17.06-42.07-.32-1.34.07-1.75,1.5-1.75,18.54-13.74,46.3-13.93,64.81,0Z"/>
  <path class="cls-11" d="M30.78,149.82c-.03.21.03.44,0,.65l-.65,3.89c-.3,21.03-2.05,42.19-1.99,63.19,0,2.6.5,8.02,1.99,10.03-3.17,8.44-4.34,23.96-2.13,32.91,1.9,7.67,18.07,39.29,26.11,39.67v.65l-.65,1.3c-1.17,4.11-6.98,19.7-6.51,22.34,1,5.57,9.69-3.54,12.03,1.66,1.22,2.71-3.59,4.65-5.54,5.48-8.16,3.45-19.65,5.29-26.49-1.35-15.67-15.2-17.78-69.28-18.24-90.63-.35-16.23-.52-33.77,0-49.95.28-8.7.69-27.9,4.45-35.08,3.58-6.84,11.15-9.87,17.62-4.74Z"/>
  <path class="cls-11" d="M148.09,302.1c.46-3.17,4.57-5.23,6.81-7.77,16.22-18.32,25.25-42.75,16.52-66.75,1.54-.71,1.8-3.39,1.93-4.87,2.09-22.68-2.88-46.98-1.93-69.65.14-3.43-.43-4.58,3.84-5.55,4.52-1.03,9.34,1.31,12,4.95,5.45,7.47,4.52,22.29,4.91,31.38,1.51,35.15,2.55,77.41-4.2,111.81-4.43,22.58-9.7,48.09-39.4,36.11-1.78-.72-6.55-2.62-6.02-5.09,1.37-6.43,10.07,3.36,12.55-2.29-2.63-6.8-4.01-15.79-7.01-22.27Z"/>
  <path class="cls-13" d="M69,88.48c-.03-1.13.2-2.61.35-3.53l.1-.66c2.01-13.67,6.35-30.07,10.25-44.36.6-2.21,1.54-4.58,2.44-6.87,1.39-3.52,2.82-7.15,3.25-10.6.27-2.14.19-4.37.11-6.52-.08-2.2-.16-4.29.12-6.22.19-1.32.74-1.9.98-1.9.17,0,.63.4.89,1.6.1.46.51.79.98.79h.06c1.16-.07,1.64-1.1,1.96-1.78.13-.27.37-.78.5-.81.15.05.57.56.77.81.37.45.71.88,1.2,1.07.11.04.27.07.39.07.76,0,1.05-.69,1.2-1.06.29-.69.48-.98.96-.98.18,0,.4.04.65.12,2.35.76-.1,9.91-1.15,13.82-.5,1.86-.89,3.33-1,4.21-.15,1.24-.08,2.55-.02,3.82.06,1.29.12,2.5-.04,3.53-1.09,6.71-2.58,13.48-4.03,20.03-1.92,8.7-3.9,17.69-4.98,26.72-5.27,2.05-11.42,5.42-15.95,8.71Z"/>
  <path class="cls-4" d="M91.66,8.34h0,0M95.71,8.42h0,0M95.64,8.53l.19.05c.1.13.6,1.04.09,4.5-.39,2.63-1.21,5.68-1.86,8.13-.51,1.9-.91,3.4-1.02,4.35-.16,1.33-.09,2.68-.03,3.98.06,1.23.12,2.4-.03,3.32-1.08,6.68-2.58,13.44-4.02,19.97-1.88,8.53-3.83,17.35-4.93,26.22-4.56,1.83-9.7,4.59-13.89,7.41.07-.56.15-1.06.2-1.36.04-.24.07-.47.1-.67,2-13.62,6.33-29.98,10.23-44.24.59-2.16,1.47-4.4,2.41-6.77,1.41-3.57,2.87-7.27,3.31-10.85.28-2.22.2-4.49.11-6.68-.08-2.13-.15-4.14.1-5.97.29.76,1.03,1.28,1.87,1.28h.12c1.45-.09,2.18-1.14,2.59-1.91.37.44.8.89,1.43,1.13.23.09.5.14.74.14,1.43,0,1.96-1.26,2.13-1.68.04-.09.1-.24.15-.35M87.02,8.69h0,0M95.51,6.52c-1.74,0-1.84,2.04-2.16,2.04h-.03c-.61-.24-1.34-1.94-2.35-1.94l-.18.02c-1.25.26-1.18,2.5-2.32,2.57-.36-1.64-1.12-2.39-1.87-2.39-.86,0-1.71.98-1.97,2.75-.57,3.99.3,8.58-.23,12.76-.7,5.57-4.13,11.71-5.67,17.34-3.76,13.75-8.22,30.5-10.28,44.48-.23,1.6-.86,4.66-.09,6.06,4.76-3.71,11.85-7.6,17.5-9.72,1.84-15.97,6.5-31.46,9.07-47.3.36-2.19-.22-4.99.07-7.38.4-3.32,5.77-17.72,1.46-19.11-.36-.12-.68-.17-.95-.17Z"/>
  <path class="cls-5" d="M78.74,39.66l-.65-1.61c-11.63,19.44-20.1,40.46-29.91,60.81-5.38,11.17-13.39,21.54-14.82,34.11,3.57-12.61,24.54-34.62,35-42.77-.77-1.4-.14-4.47.09-6.06,2.05-13.98,6.52-30.73,10.28-44.48Z"/>
  <path class="cls-5" d="M95.58,62.65c1.07-9.58,1.97-19.25,2.6-28.83-.33-.05-1.76-2.2-3.24-.65-2.57,15.84-7.24,31.33-9.07,47.3,3-1.13,5.79-2.29,9.07-2.59-1.89.37-1.38-1.01-1.29-2.24.31-4.15,1.46-8.78,1.93-13Z"/>
  <path class="cls-13" d="M132.86,88.7c-4.58-3.4-10.8-6.82-16.3-8.96-.3-1.78-.49-3.66-.67-5.49-.19-1.91-.38-3.89-.71-5.76-.88-5.01-2.18-10.28-3.43-15.37-1.64-6.68-3.35-13.58-4.16-20.08-.13-1.07-.08-2.23-.03-3.46.06-1.29.12-2.62-.04-3.92-.15-1.22-.63-3.01-1.18-5.09-1.1-4.12-2.93-11-1.32-12.63.47-.47.73-.52.82-.52.3,0,.76.56,1.09.96.49.6,1.05,1.29,1.9,1.29h0c.34,0,.67-.12.96-.34.34-.26.42-.62.51-1.01.04-.18.15-.67.27-.78l.11.05c.18.02.29.2.54.86.24.64.64,1.7,1.81,1.74h.03c.46,0,.86-.31.97-.75.37-1.44.59-1.86.98-1.86h.17s.14.03.14.03c.04,0,.09,0,.19.1,1.15,1.23.85,7.17.69,10.36-.1,1.96-.18,3.5-.06,4.38.45,3.55,1.87,6.93,3.24,10.21.91,2.17,1.85,4.42,2.46,6.62,3.96,14.34,8.76,32.74,10.67,47.82.03.26.1.55.18.85.08.33.13.58.16.76Z"/>
  <path class="cls-4" d="M111.41,8.1h0,0M115.45,8.38h0,0M106.06,8.39h0,0M105.81,8.59c.13.14.26.31.37.43.57.7,1.35,1.65,2.67,1.65.56,0,1.1-.19,1.56-.55.14-.11.25-.22.35-.34.4.67,1.08,1.36,2.26,1.4h.06c.91,0,1.71-.62,1.94-1.51.03-.11.06-.25.1-.4.43,2.08.2,6.6.1,8.73-.1,2-.18,3.59-.06,4.55.47,3.68,1.91,7.13,3.31,10.47.94,2.24,1.82,4.36,2.42,6.5,3.89,14.07,8.58,32.05,10.55,46.93-4.2-2.84-9.31-5.58-13.97-7.44-.24-1.58-.41-3.24-.57-4.86-.19-1.93-.39-3.93-.72-5.84-.89-5.05-2.19-10.33-3.45-15.43-1.64-6.65-3.33-13.53-4.14-19.96-.12-.98-.07-2.1-.02-3.29.06-1.33.12-2.7-.05-4.08-.15-1.29-.64-3.12-1.21-5.23-.66-2.48-1.41-5.29-1.74-7.68-.46-3.31.14-3.96.17-3.98l.06-.06M105.85,6.43c-.44,0-.94.22-1.53.82-2.83,2.85,1.73,14.55,2.21,18.55.29,2.43-.22,5.07.07,7.38,1.44,11.54,5.57,23.97,7.6,35.5.67,3.79.76,7.98,1.48,11.81,5.73,2.16,12.68,5.96,17.5,9.72,1.28-.66.46-2.26.33-3.24-1.9-14.96-6.66-33.33-10.7-47.96-1.54-5.57-4.94-10.94-5.67-16.69-.36-2.84,1.59-15.66-1.8-15.71-.11-.02-.22-.03-.32-.03-1.26,0-1.61,1.3-1.95,2.61-1.09-.03-.73-2.4-2.27-2.58-.1-.02-.2-.03-.28-.03-1.16,0-1.13,1.81-1.34,1.97-.12.09-.23.13-.35.13-.85,0-1.6-2.25-2.99-2.25Z"/>
  <path class="cls-5" d="M154.01,100.15c-9.49-19.67-18.32-43.64-30.41-61.63-1.14-1.7-.7-.51-.8.48,4.04,14.63,8.8,33,10.7,47.96.13.98.94,2.58-.33,3.24,3.93,3.07,9.68,8.67,13.3,12.3,9.11,9.11,16.14,18.09,21.7,29.83-2.29-13.15-8.58-20.59-14.17-32.17Z"/>
  <path class="cls-5" d="M106.61,77.89c3.28.31,6.08,1.46,9.07,2.59-.71-3.83-.81-8.02-1.48-11.81-2.03-11.52-6.15-23.95-7.6-35.5-1.1-.99-2.19-.09-3.24,0,0,.86,0,1.73,0,2.59l.65,5.18c.65,11.39,2.88,22.71,3.88,34.04.1,1.09.72,3.35-1.29,2.89Z"/>
  <path class="cls-9" d="M53.46,302.1l.65-1.3c.27.7-.63,1.23-.65,1.3Z"/>
  <path class="cls-7" d="M30.13,154.35c.02-1.22-.44-3.18.65-3.89-.15,1.2.54,3.16-.65,3.89Z"/>
  <path class="cls-6" d="M95.42,255.6c6.48-1.08,17.45-.39,19.96,6.95,1.34,3.93,1,14.31-2.6,16.89-4.1,2.94-21.56,3.21-24.88-1.07-2.39-3.07-2.72-12.08-1.6-15.69.98-3.15,5.9-6.54,9.12-7.08Z"/>
  <path class="cls-14" d="M134.48,287.2c.3,1.96-1.59,3.39-2.93,4.52-11.79,9.89-41.4,9.68-54.98,3.81-3.58-1.55-8.32-4.04-9.5-8,3.43-.31,6.83,2.45,10.04,3.57,2.16.76,7.18,2.43,9.22,2.39,2.85-.06,9.44-4.9,14.15-5.01,5.39-.13,11.19,4.72,14.86,4.89,6,.27,13.3-5,19.13-6.16Z"/>
  <path class="cls-14" d="M125.84,258.25c8.35-.13,8.24,12.81-.75,12.14-7.6-.57-6.43-12.03.75-12.14Z"/>
  <path class="cls-14" d="M75.26,258.24c7.42-.44,9.06,11.01,1.81,12.08-9.19,1.35-9.72-11.6-1.81-12.08Z"/>
  <path class="cls-14" d="M107.27,263.87c.68-.58,2.49.07,3.12,1.07,3.56,5.68-5.22,14.81-8,9.3-2.04-4.04,2.27-2.65,2.97-2.94,2.38-1,1.42-7.02,1.92-7.43Z"/>
  <path class="cls-14" d="M94.23,263.93c1.18.72-.15,6.52,1.97,7.36.77.31,2.67-.99,3.23.74.94,2.93-2.58,4.31-5.13,3.15-5.01-2.28-4.45-13.93-.07-11.26Z"/>
  <path class="cls-1" d="M32.19,241.44c.5,2.74.9,3.6.83,6.48l1.35,3.22c3.91,16.35,13.61,30.84,23.77,44.01,2.44,2.61,5.06,5.45,8.05,7.41,11.69,7.69,27.25,9.01,40.86,7.96,5.14-.4,10.29-.94,15.32-2.11,2.47-.58,4.92-1.3,7.27-2.26,2.3-.94,4.31-2.32,6.4-3.65,2.61-1.66,7.93-7.73,7.93-7.73,11.04-13.78,20.82-29.4,24.07-46.98l-.72-2.58.68-2.55c-1.61-.31-.77-2.15.79-2.77-.31-.02.19-.16-.06-.28-.48-.23-.5-9.34-.37-10.54l-2.51-2c-2.14.32.53-6.67,3.1-5.73l1.48-.02c.14,1.53.51,1.97,1.12,1.31.77,8.71,2.08,17.95,1.32,26.92-1.21,14.28-12.71,31.68-20.89,43.27-3.46,4.9-7.13,9.66-11.54,13.74-.44,1.13,1.6,1.15,2.59,1.61-5.64-1.11-9.19,2.09-14.12,3.7-15.14,4.95-41.38,4.83-56.5-.16-4.52-1.49-7.82-4.56-12.99-3.54.86-.32,1.71-.69,2.59-.97-8.18-8.43-15.82-19.19-21.91-29.29-12.67-20.99-12.02-31.46-9.84-55.28.83-1.14,1.69-1.57,2.59-1.3,1.66-.35,2.01,1.38,1.03,5.2l-.4,13-1.27,1.89Z"/>
  <path class="cls-12" d="M117.59,264.24c-1.24-8.67-12.93-10.99-20.19-9.93-5.27.77-11.36,5.03-12.1,10.58-.4,3,.45,12.18,2.22,14.51,3.36,4.41,22.68,4.15,26.87.97,3.2-2.42,3.74-12.36,3.2-16.13ZM113.61,278.62c-2.63,2.54-20.2,2.32-23.55.19-2.62-1.67-3.19-10.8-2.59-13.69,2.55-12.28,26.79-12.22,28.23,1.01.25,2.31-.54,10.99-2.09,12.49Z"/>
  <path class="cls-3" d="M68.37,186.11c.06.06-.61.9-.15,1.73,6.94,12.59,11.09,20.07,14.87,34.42,2.26,8.56,5.25,13.19-1.09,20.57-7.22,8.4-17.54,13.82-24.02,23.94-2.24,3.49-.7,6.46-6.5,5.24-12.23-2.57-18.51-18.8-19.39-29.85l.64-18.46c3.02-8.69,5.81-17.41,9.42-25.9,3.44-8.09,9.53-26.47,21.35-16.21,1.12.97,4.15,3.75,4.88,4.52Z"/>
  <path class="cls-6" d="M61.04,186.96c.8.73,3.04,4.94,3.78,6.26,4.82,8.62,8.83,19.62,10.89,29.29,1.06,5.01,2.46,9.68.57,14.59-1.98,5.16-14.4,13.11-18.94,18.65-1.69,2.06-4.03,7.38-4.84,8.12-3.28,3.02-9.84-6.22-11.24-8.87-7.44-14.16-1.07-37.93,4.58-52.22,1.91-4.83,8.3-22.13,15.2-15.83Z"/>
  <path class="cls-12" d="M65.03,191.79c-2.05-3.33-5.07-8.84-9.59-6.45-2.93,1.55-9.17,16.64-10.62,20.49-5.77,15.38-12.64,37.89-2.26,52.47,2.42,3.4,7.43,9.63,11.62,5.81,1.99-1.82,4.96-8.55,7.65-11.47,4.58-4.97,15.03-9.88,15.9-17.15,1.33-11.04-6.79-34.1-12.71-43.7ZM75.79,234.19c-1.02,8.17-12.96,13-17.86,19.08-4.48,5.56-4.9,14.77-12.6,5.51-13.1-15.76-.69-54.02,9.58-69.44.58-.87,1.5-2.44,2.53-2.7,1.4-.36,2.87.88,3.72,1.88,5.94,7,15.74,36.73,14.63,45.67Z"/>
  <path class="cls-3" d="M173.94,226.43c-1.6,1.84-4.53,3.18-4.43,5.33.63,13.2-1.83,30.89-14.5,38.04-10.66,6.01-8.7-.22-14.06-6.9-5.97-7.44-15.12-12.99-21.06-19.77-5.9-6.74-4.29-9.18-2.34-17.26,3.76-15.6,8.55-24.31,15.79-38.04.45-.85-.21-1.67-.15-1.73.32-.35,4.98-4.61,5.61-5.08,12.12-8.91,17.93,10.06,21.26,18.06,3.53,8.47,10.87,18.68,13.88,27.34Z"/>
  <path class="cls-6" d="M149.46,264.44c-.39-.25-3.31-6.37-4.63-8.01-2.32-2.88-6.28-6.46-9.05-9.1-3.72-3.55-10.33-6.45-11.04-12.29-1.29-10.58,7.96-37.15,14.38-45.92,6.98-9.53,11.88,2.89,14.71,9.06,5.78,12.63,12.67,36.44,9.27,49.9-.95,3.75-8.96,19.29-13.63,16.34Z"/>
  <path class="cls-12" d="M156.14,203.13c-1.44-3.61-7.23-17.03-10.21-18.32-.96-.41-1.52-.58-2.59-.39-2.11.39-3.86,3.12-5.03,4.74-6.37,8.87-15.48,34.76-14.24,45.38.87,7.51,11.41,12.86,16.22,18.13,6.66,7.29,7.24,19.15,17.5,7.16,12.87-15.04,4.93-40.19-1.64-56.71ZM156.46,258.51c-7.56,9.3-8.07-.05-12.93-5.83-5.29-6.29-16.64-10.66-17.51-19.42-.84-8.41,5.91-27.72,9.61-35.76,1.43-3.1,6.1-13.94,10.3-10.38,2.15,1.83,9.44,19.58,10.73,23.28,5.12,14.65,10.6,34.85-.19,48.11Z"/>
  <path class="cls-13" d="M109.31,77.19c.03-.1.05-.21.06-.34.01-.17,0-.36-.03-.57l-3.79-32.01s-1.15-10.42-2.18-11.09c-.47-.83-4.57-1-5.13,0-1.03.67-2.18,11.09-2.18,11.09l-3.79,32.01c-.04.21-.04.4-.03.57,0,.13.03.24.06.34v.02c.05.12.1.23.18.32l.02.02.21.18.21.11.04.02c.46.19,1.14.21,2.05.03,1.55-.14,3.67-.22,5.81-.22,2.13,0,4.26.07,5.81.22.91.18,1.59.16,2.05-.03l.04-.02.21-.11.21-.18.02-.02c.07-.09.13-.19.17-.32v-.03Z"/>
  <path class="cls-4" d="M109.31,77.19l.96.28c.04-.15.09-.36.1-.6l-1-.02,1,.07v-.24c0-.18,0-.37-.04-.57l-.99.17.99-.12-3.79-32.01h0s-.29-2.61-.71-5.33c-.21-1.36-.45-2.74-.72-3.86-.13-.56-.27-1.05-.42-1.46-.08-.21-.16-.4-.26-.58-.11-.18-.23-.38-.52-.58l-.54.84.87-.49c-.23-.39-.51-.56-.78-.7-.4-.2-.83-.31-1.3-.39-.47-.08-.98-.12-1.48-.12-.62,0-1.22.06-1.78.2-.28.07-.55.17-.81.31-.26.15-.53.35-.72.69l.87.49-.54-.84c-.29.2-.4.39-.52.58-.19.34-.32.72-.46,1.17-.45,1.56-.85,4.04-1.16,6.17-.3,2.13-.5,3.89-.5,3.9h0s-3.79,32.01-3.79,32.01l.99.12-.99-.16c-.03.2-.05.39-.05.57v.24s1.01-.07,1.01-.07l-1,.02c0,.24.05.45.1.6l.96-.28-.97.26v.02s.01.02.01.02v.02c.08.23.2.46.36.66l.77-.64-.78.63.02.02.06.07.28.24.08.07.3.16.05.03.1.04.37-.93-.38.93c.4.16.84.23,1.3.23.41,0,.85-.05,1.32-.14l-.19-.98.09,1c1.49-.14,3.61-.21,5.71-.21,2.11,0,4.22.07,5.71.21l.09-1-.19.98c.48.09.91.14,1.32.14.46,0,.89-.06,1.3-.23l-.38-.93.37.93.04-.02.06-.02.26-.14.09-.05.29-.25.06-.06.07-.09h0c.17-.19.28-.42.35-.65v-.03s.02-.05.02-.05l-.97-.25.96.28-.96-.28-.97-.25v.03s.96.25.96.25l-.95-.3h0s.11.05.11.05l-.09-.07-.02.03.11.04-.09-.07-.02.02.77.64-.65-.76-.13.11-.12.06.48.88-.37-.93-.04.02h0s0,0,0,0c-.09.04-.26.08-.54.08-.24,0-.56-.03-.94-.11h-.05s-.05-.01-.05-.01c-1.6-.15-3.74-.22-5.9-.22-2.16,0-4.3.07-5.9.22h-.05s-.05.01-.05.01c-.38.07-.7.11-.94.11-.28,0-.45-.04-.54-.08h0s-.05-.02-.05-.02l-.37.93.48-.88-.12-.06-.13-.11-.65.76.78-.63-.02-.02h0s0-.02,0-.02l-.12.1.14-.08-.02-.03-.12.1.14-.08-.04.02.04-.02h0s-.04.02-.04.02l.04-.02h0s-.95.3-.95.3l.97-.26v-.02s-.01-.01-.01-.01h0s-.02-.09-.02-.09v-.02s0-.02,0-.02v-.1c0-.07,0-.15.02-.24v-.02s3.8-32.04,3.8-32.04h0s.07-.65.19-1.63c.19-1.47.49-3.7.84-5.59.17-.95.36-1.81.54-2.44.09-.31.18-.56.24-.71l.06-.12-.2-.13.17.16.02-.03-.2-.13.17.16-.45-.42.33.51.12-.1-.45-.42.33.51.21-.13.12-.22-.29-.16.23.25.07-.09-.29-.16.23.25-.03-.03.02.03h0s-.03-.03-.03-.03l.02.03s.24-.12.54-.18c.31-.06.7-.09,1.1-.09.53,0,1.08.06,1.47.15.19.05.34.1.41.14l.03.02h0s.11-.16.11-.16l-.14.14.03.02.11-.16-.14.14.37-.36-.45.25.08.11.37-.36-.45.25.12.22.21.13.31-.48-.44.36.13.11.31-.48-.44.36.12-.1-.12.08h0s.12-.08.12-.08l-.12.08s.14.27.24.62c.19.63.4,1.58.6,2.63.29,1.58.55,3.39.73,4.81.09.71.17,1.31.22,1.74.05.43.08.68.08.68h0s3.8,32.04,3.8,32.04v.02s.02.24.02.24v.1s0,.02,0,.02v.02s-.02.08-.02.08v.02s0,.02,0,.02l.97.25Z"/>
  <path class="cls-15" d="M175.36,242.89c-.27-.42-.5-.88-.72-1.33-1-2.04-1.8-4.23-2.44-6.09l-.07-.22c-.44-1.28-.9-2.61-1.27-3.92-.36-1.29-.62-2.64-.88-3.95-.26-1.34-.53-2.72-.91-4.08-.56-2.03-1.35-3.99-2.12-5.88-.3-.73-.59-1.47-.88-2.2-.74-1.93-1.5-3.85-2.25-5.77l-.97-2.49c-1.07-2.73-2.15-5.46-3.23-8.18-.32-.79-.63-1.6-.94-2.4-.73-1.87-1.48-3.81-2.32-5.67-2.48-5.44-6.03-11.69-11.48-11.69-3.14,0-6.59,2.06-10.55,6.29l-.97-.24-2.34-.2c-8.81-5.83-19.22-8.91-30.11-8.91s-21.42,3.08-30.36,8.92l-2.45.19-.71.34c-3.99-4.38-7.46-6.51-10.61-6.51-4.2,0-7.66,3.55-11.23,11.5l-.09.2v.04h0s-.11.23-.11.23c-2.18,4.88-4.3,10.14-6.49,16.07-.92,2.48-1.78,5.02-2.61,7.48-.97,2.86-1.97,5.81-3.06,8.66l-.54,1.42c-.83,2.18-1.65,4.35-2.47,6.53l-.61,1.63c-.38,1.01-.77,2.05-1.27,2.98l-.06.11c-.04.07-.12.22-.2.36-.65-.88-1.15-4.54-.29-16.17.08-1.11.14-1.92.16-2.39.26-18.09.88-36.8,1.87-57.2.05-.93.26-1.9.48-2.81.25-1.05.6-2.09.88-2.88l.03-.09.82-4.89-.11-.03c.14-1.04.29-2.25.45-3.54.54-4.4,1.22-9.88,2.08-12.9,3.58-12.66,24.76-34.54,34.64-42.23,4.6-3.58,11.52-7.42,17.23-9.57l.82-.31c2.38-.9,4.62-1.75,7.11-2.11.33-.02.66-.06.99-.12,1.44-.13,3.5-.21,5.66-.21,2.16,0,4.22.08,5.66.21.3.06.58.09.89.11,2.51.36,4.78,1.22,7.18,2.13l.78.3c5.82,2.19,12.59,5.95,17.23,9.57,3.77,2.94,9.27,8.27,13.21,12.21,9.96,9.97,16.37,18.77,21.43,29.41.43,2.48.72,5.06.99,7.55.49,4.35.99,8.85,2.25,13.16,1.21,4.58,1.67,9.54,1.35,14.72v.09s0,.09,0,.09c2.05,18.97,2.55,38.1,1.49,56.88-.15.89.13,2.98.87,7.94.45,3,1.14,7.64,1.21,9.83Z"/>
  <path class="cls-10" d="M100.8,79.74c2.11,0,4.11.07,5.52.2.3.06.61.09.92.12,2.39.34,4.59,1.18,6.93,2.07l.78.29c5.73,2.16,12.39,5.85,16.96,9.42,3.73,2.91,9.19,8.2,13.11,12.13,9.83,9.84,16.17,18.52,21.17,28.99.41,2.41.69,4.92.96,7.35.49,4.39,1,8.92,2.28,13.31,1.18,4.49,1.63,9.34,1.32,14.39v.17s0,.17,0,.17c2.04,18.89,2.54,37.95,1.49,56.66-.15,1,.08,2.81.88,8.2.13.9.29,1.95.45,3.04-.14-.39-.27-.76-.4-1.13l-.07-.2c-.44-1.27-.9-2.59-1.25-3.87-.35-1.25-.6-2.52-.86-3.87-.27-1.36-.54-2.76-.93-4.16-.58-2.08-1.38-4.07-2.16-5.99-.3-.73-.59-1.46-.87-2.19-.75-1.95-1.52-3.9-2.28-5.85l-.94-2.41c-1.07-2.73-2.15-5.48-3.24-8.18-.32-.79-.63-1.59-.94-2.39-.73-1.88-1.49-3.83-2.35-5.72-2.61-5.72-6.38-12.29-12.42-12.29-3.37,0-6.85,1.97-10.88,6.17l-.3-.07-.16-.04h-.17s-2-.18-2-.18c-8.93-5.84-19.45-8.93-30.46-8.93s-21.64,3.09-30.7,8.95l-1.99.15-.39.03-.2.09c-4.02-4.27-7.5-6.28-10.85-6.28-5.97,0-9.64,6.47-12.17,12.11l-.18.4h0s-.03.07-.03.07c-2.19,4.9-4.32,10.18-6.52,16.13-.92,2.49-1.79,5.04-2.62,7.51-.97,2.85-1.97,5.79-3.05,8.63l-.14.36-.41,1.07c-.87,2.29-1.73,4.57-2.6,6.86l-.46,1.21-.04.09c-.06.17-.12.33-.19.49-.07-.89-.11-2.05-.1-3.56.02-3.25.29-6.83.47-9.2.08-1.13.14-1.94.16-2.47.26-18.07.88-36.76,1.87-57.15.04-.84.24-1.76.45-2.62.24-.99.56-1.96.85-2.77l.06-.17.03-.18.65-3.89.3-1.83-.14-.04c.11-.83.22-1.73.33-2.66.54-4.37,1.21-9.8,2.04-12.74,3.38-11.94,24.11-33.78,34.28-41.7,4.52-3.52,11.34-7.3,16.96-9.42l.81-.31c2.31-.87,4.49-1.7,6.85-2.05.34-.02.68-.06,1.03-.12,1.41-.13,3.41-.2,5.52-.2M100.8,77.67c-2.13,0-4.26.07-5.81.22-.35.07-.66.1-.94.11-2.91.41-5.46,1.46-8.19,2.48-5.65,2.12-12.74,6.01-17.5,9.72-10.46,8.15-31.43,30.15-35,42.77-1.15,4.06-1.96,12.25-2.59,16.85-.55.27-.57.49,0,.65l-.65,3.89c-.35.98-.68,1.97-.92,2.99-.24,1-.45,1.99-.5,2.99-.93,19.05-1.59,38.15-1.87,57.22-.08,2.75-1.96,19.58,1.19,19.76h.1c.47.01.88-.85,1.04-1.16.55-1.02.96-2.12,1.37-3.2,1.01-2.69,2.03-5.37,3.05-8.06.18-.48.36-.95.54-1.42,2.03-5.32,3.7-10.8,5.68-16.16,2-5.4,4.12-10.75,6.47-16,.05-.12.21-.34.21-.47,3.08-6.87,6.26-10.89,10.29-10.89,2.91,0,6.27,2.1,10.36,6.74l1.23-.59,2.52-.19c8.96-5.91,19.49-8.9,30.01-8.9s20.88,2.94,29.76,8.88l2.52.21,1.48.37c4.03-4.43,7.34-6.41,10.2-6.41,4.16,0,7.39,4.17,10.54,11.08,1.19,2.61,2.18,5.35,3.24,8.02,1.09,2.72,2.16,5.44,3.23,8.17,1.07,2.75,2.16,5.49,3.22,8.25,1.02,2.64,2.21,5.25,2.97,7.99.73,2.65,1.06,5.38,1.79,8.03.39,1.42.88,2.81,1.36,4.2.73,2.1,1.51,4.2,2.49,6.2.35.71.72,1.46,1.23,2.07.14.16.31.38.52.46h.08c.13,0,.35-.03.34-.03l.16.06c1.47,0-2.16-17.62-1.73-19.31,1.08-18.94.58-37.98-1.49-57.12.32-5.31-.14-10.34-1.39-15.07-1.96-6.73-2.05-13.87-3.24-20.74-5.56-11.73-12.59-20.71-21.69-29.82-3.63-3.63-9.37-9.23-13.3-12.3-4.82-3.76-11.77-7.56-17.5-9.72-2.73-1.03-5.3-2.07-8.22-2.48-.26-.02-.54-.05-.85-.11-1.55-.14-3.67-.22-5.81-.22Z"/>
  <path class="cls-4" d="M26.02,142.68c3.46.47,6.4,1.61,5.99,5.19l.93.89c1.1.69,1.84,1.65,1.83,2.95.76,21.8-.53,44.89-2.66,67.02-.08.88-.03,5.09-.66,7.41-.47,6.11-1.47,10.03-1.41,14.82.34,25.16,14.68,46.42,32.16,65.81,1.53,1.45.63,2.34-2.69,2.69-.56.21-1.52-.29-2.26.63l-3.57,9.08c4.17-.85,9.69,2.18,9.74,6.79.05,4.32-4.42,6.7-7.46,8.78-21.68,14.83-34.99,4.26-42.48-17.82-11.3-33.35-9.64-72.52-9.35-107.38.12-14.77-.94-39.81,3.5-53.37,2.34-7.16,10.51-15.23,18.39-13.5Z"/>
  <path class="cls-13" d="M22.4,146.96c9.59-1.99,7.62,10.84,7.3,17.02-1.15,22.83-3.58,45.85-4.56,68.67-.89,20.81,3.35,39.83,15.96,56.67,5.63,7.53,13.04,10.51,11.13,21.61-.51,2.98-5.81,11.09-4.1,13.48,1.17,1.64,15.97-2.49,9.48,4.2-2.55,2.63-16.66,6.63-20.48,6.78-3.68.14-6.96-2.91-9.38-5.51-17.6-18.92-18-68.94-18.75-94-.66-21.74-1.4-47.72.63-69.3.69-7.39,4.53-17.91,12.78-19.62Z"/>
  <path class="cls-4" d="M32.43,315.16c1.32.74,3.25-.55,5.73,1.73,4.52,4.16.55,11.34-5.04,8.93-3.32-1.43-2.86-4.46-4.12-6.89-7.85-15.18-10.68-25.84-12.81-42.92-4.84-38.86-5.45-78.92.06-117.71,1.4-5.08,8.92-4.89,8.98-.16.06,4.28-4.73,4.73-5.15,5.93-.49,1.39.12,4.02-.09,5.74-4.85,39.87-4.41,77.28,2.91,116.99.82,4.45,6.34,26.57,9.54,28.36Z"/>
  <path class="cls-4" d="M175.11,142.91c7.75-1.74,15.81,5.5,18.46,12.32,4.92,12.65,4.19,38.34,4.31,52.52.29,33.74,2.09,72.26-7.95,104.77-7.64,24.74-20.58,38.99-45.87,21.17-9.04-6.37-7.23-14.27,3.83-14.53.37-.32-3.28-8.69-3.59-9.07-.58-.73-1.18-.45-1.59-.65-2.45-.11-3.67-.82-3.65-2.12,10.88-12.16,21.64-26.69,28.04-41.74,5.64-13.25,4.88-25.11,3.05-39.27-.25-5.18-1.36-12.43-1.31-13.36-4.13-22.15-2.6-34.92-2.68-56.99,0-2,.47-6.61,2.47-7.22l.88-.94c-.36-2.6,1.93-5.63,5.6-4.89Z"/>
  <path class="cls-13" d="M174.91,146.93c6.12-1.87,13.29,5.13,15.14,10.53,3.97,11.62,2.33,32.64,2.53,45.42.5,30.96,2.06,93.39-13.47,119.96-2.05,3.5-8.29,11.58-12.25,12.38-3.79.77-21.59-4.08-23.55-7.26-4.16-6.76,9.36-1.09,10.34-4.03,1.05-3.14-3.9-10.14-4.43-13.55-1.64-10.64,7.89-15.88,13.19-23.67,19.89-29.27,12.89-49.7,11.4-81.92-.66-14.25-1.34-28.52-1.98-42.74-.15-3.41-.84-13.93,3.07-15.13Z"/>
  <path class="cls-4" d="M179.46,154.71c2.94-.66,4.41.54,5.87,2.92,1.99,16.34,3.71,32.61,4.03,49.1.68,35.17-1.13,80.96-17,112.62-1.14,2.27-.11,4.46-3.51,6.21-6.52,3.37-10.35-6.53-4.37-9.56,1.82-.92,3.96-.35,5.12-1.36,1.09-.95,5.15-11.5,5.83-13.61,7.06-22.08,8.45-54.68,9.4-78.08.81-20.09-.69-34.06-3.24-53.8-.2-1.56.37-3.8-.09-5.1-.34-.96-2.44-1.25-3.52-2.31-2.42-2.39-1.97-6.26,1.48-7.04Z"/>
</svg>