<?xml version="1.0" encoding="UTF-8"?>
<svg id="Dark_Green_Bushes" data-name="Dark Green Bushes" xmlns="http://www.w3.org/2000/svg" viewBox="0 0 736 226.76">
  <defs>
    <style>
      .cls-1 {
        fill: #5c5c2c;
      }

      .cls-2 {
        fill: #4a4a28;
      }

      .cls-3 {
        fill: #505228;
      }
    </style>
  </defs>
  <path class="cls-3" d="M280.65.62c20.45-1.9,30.56,4.13,48.94,8.64,25.13,6.17,46.11-8.91,73.24-6.89,22.57,1.67,29.47,11.4,46.76,21.52,20.2,11.82,42.26,2.57,61.73,16.85,7.17,5.26,12.56,13.8,21.45,16.55,15.09,4.68,29.36-7.3,45.08,0,9.26,4.31,13.52,13.83,22.22,19.01,15.69,9.35,28.65-1.15,44.88.21,12.07,1.01,20.38,9.13,31.48,12.32,10.34,2.98,21.16,2.49,31.2,6.8,38.71,16.61,31.47,95.67,2.35,118.52-22.14,17.37-51.75,8.39-77.16,7.17-34.88-1.67-70.05,6.88-105.04,5.21-61.72-3.92-123.62,2.42-185.47-1.97-19.07-2.48-39.42-6.76-58.6-7.75-27.62-1.43-56.29,3.05-84.43,1.99-24.67-.94-48.29-4.58-73.4-3.24-25.76,1.38-48.69,11.55-75.07,6.14-57.71-11.84-60.36-76.63-26.07-115,16.13-18.06,26.39-15.31,48.34-16.71,20.73-1.32,29.67-14.66,44.09-26.77,20.34-17.08,39.87-25.79,66.68-28,12.33-1.02,23.42,1.56,34.65-4.64,21.17-11.69,35.57-27.48,62.15-29.95Z"/>
  <g>
    <path class="cls-2" d="M304.17,3.42l.05,1.81c-8.4-.48-16.7-1.29-25.07.17-18.97,3.32-35.14,19.7-51.38,28.99-22.83,13.07-50.91,9.74-75.73,18.35-29.81,10.34-44.87,37.83-76.97,43.27-18.22,3.09-30.74-2.7-46.56,11.38-3.24,2.89-5.6,7.8-9.64,8.74-1.72-1.73,8.88-12.56,10.58-14.02,14.96-12.84,28.54-9.21,46.24-12.32,27.51-4.84,42-29.59,65.9-41.88,22.96-11.81,48.36-7.67,71.99-15.85,7.19-2.49,14.25-7.72,21.05-11.34,21.79-11.62,43.65-26.12,69.53-17.28Z"/>
    <path class="cls-2" d="M175.25,55.08c-.51,1.01-2.68,1.69-3.75,2.15-10.6,4.61-20.25,6.99-30.46,13.16-24.21,14.63-42.41,45.7-74.94,39.33-1.2-.24-6.73-1.34-6.71-2.62.61-.82,1.41-1.1,2.34-1.39,7.48-2.33,16.27-2.77,23.95-5.34,16.3-5.45,27.87-19.28,41.78-28.62,13.85-9.3,30.92-16.31,47.8-16.67Z"/>
    <path class="cls-2" d="M43.8,109.28c.55,2.28-2.52,2.73-4.3,4.1-12.34,9.55-26.29,33.34-26.28,49.16,0,2.79,2.83,8.37-1.18,7.78-4.98-12.45-.88-27.23,5.27-38.64,5.24-9.71,15.15-20.8,26.49-22.41Z"/>
    <path class="cls-2" d="M558.4,64.42c3.56-3.72,10.28-2.71,14.82-1.42,9.46,2.69,14.01,10.02,21.37,15.39,10.07,7.34,19.99,9.33,32.34,7.22,2.14,1.79-9.44,3.65-10.29,3.72-9.69.81-19.61-2.26-27.1-8.39-5.61-4.59-13.23-16.52-21.49-16.52h-9.66Z"/>
    <path class="cls-2" d="M17,121.12c.11,1.08,0,2.08-.29,3.13-2.64,9.34-8.78,17.61-10.74,28.51-1.82,10.19-.2,15.36.27,24.92.19,3.89-1.32,2.71-2.51,0-4.68-10.68-3.58-26.4.7-37.05,1.36-3.4,8.14-16.88,10.41-18.87.78-.68,1.07-.81,2.16-.64Z"/>
    <path class="cls-2" d="M537.85,64.42c1.26-.27,1.66.28,2.52.9,5.66,4.15,13.92,17.09,16.9,23.59,3.49,7.6,8.89,24.47,9.19,32.6.11,3.1-1.45,3.97-2.55.63-1.01-3.08-1.24-6.91-2.22-10.24-5.28-17.98-13.44-29.63-22.84-45.07-.47-.78-1.21-1.37-1-2.42Z"/>
    <path class="cls-2" d="M594.54,71.89c-.74.78-12-9.18-13.75-10.22-14.62-8.74-24.28-.02-38.29-1.59-.93-.1-1.92-.13-2.16-1.26,14.79.59,27.92-9.18,42.17-.75,3.27,1.93,8.78,8.12,11.12,11.31.63.85,1.17,1.26.9,2.52Z"/>
  </g>
  <path class="cls-2" d="M734.03,152.19c-3.29-15.33-5.03-29.65-15.6-42.03-12.93-15.15-29.59-12.44-46.26-18.54-10.19-3.73-17.71-11.42-29.43-12.31-13.72-1.05-26.03,7.2-39.97,1.35-2.13-.89-5.46-2.32-5.18-5.09,3.36.29,5.83,2.28,9.19,2.95,13.25,2.66,26.17-4.46,40.16-2.78,10.32,1.24,18.96,8.41,28.39,11.49,12.71,4.15,25.8,3.68,37.93,10.66,15.26,8.77,21.46,27.23,22.62,44.04.06.93.69,12.27-1.85,10.27Z"/>
  <path class="cls-2" d="M192,188.94c-7.32,1.49-14.59,2.35-22.11,1.87-13.58-.87-25.28-4.23-38.31-6.55-19.34-3.43-38.25-.3-57.62.35-9.05.3-18.47-.52-27.46-.05-2.75.14-6.02,1.27-8.68,1.3-1.26.01-1.34-.7-.94-1.58.99-2.18,21.78-4.35,25.24-4.67,14.24-1.3,30.1-2.9,44.23-3.74,20.41-1.21,46.59,10.2,68.53,11.82,4.79.36,10.33-.54,14.97-.01.93.1,1.92.13,2.16,1.26Z"/>
  <path class="cls-2" d="M308.5,15.76c.28,1.29-.65,1.41-1.41,2.01-6.51,5.08-13.69,8.69-20.4,14.49-28.99,25.07-44.41,49.64-56.87,85.8-.61,1.76-.09,4.06-2.3,4.85-.87-3.79.51-7.65,1.42-11.35,7.45-30.26,27.67-59.09,51.24-78.97,8.27-6.98,17.8-13.89,28.33-16.83Z"/>
  <path class="cls-2" d="M163.96,178.36c-15.57,2.34-31.12-7.01-45.8-8.09-16.6-1.22-34.68,7.14-51.54,4.17-1.27-.22-3.03-.22-2.34-2,.42-1.08,1.12-.71,1.86-.68,17.57.63,33.61-8.72,52.02-7.73,11.5.61,21.78,6.64,32.72,9.65,3.83,1.05,8.82,1.28,12.03,2.3,1.25.4,1.13,1.3,1.05,2.37Z"/>
  <path class="cls-2" d="M723.43,155.3c-.35.46-9.88,1.17-11.53,1.25-28.91,1.42-57.2-4.21-85.88-.53-8.4,1.08-16.79,3.66-25.31,3.65-.24-1.38.93-1.74,1.96-2.08,2.42-.79,5.96-.68,8.65-1.32,10.98-2.61,21.17-5.34,32.66-5.97,16.68-.91,33.31,2.37,49.84,3.17,9.31.45,18.74-.39,28.06-.02l1.56,1.86Z"/>
  <path class="cls-2" d="M663.62,93.01c.66-.59,8.21,2.53,9.84,2.93,9.8,2.37,19.61,2.19,29.21,6.3,14.7,6.3,22.17,22.44,25.74,37.17l-1.25.64c-5.7-12.92-12.04-27.42-25.94-33.25-9.4-3.95-20.03-4.03-29.49-7.89-.79-.32-9.63-4.54-8.11-5.9Z"/>
  <path class="cls-2" d="M689.79,147.83v1.86c-10.87.35-21.46-3.11-32.17-4.28-7.62-.83-12.68-.45-20.19.84-4.24.73-9.89,2.91-13.54,3.33-2.32.27-2.69-1.13-.59-2.5,3.63-2.38,14.92-4.78,19.51-5.41,16.22-2.22,31.07,4.66,46.97,6.16Z"/>
  <path class="cls-2" d="M717.2,134.12c-2.54.55-2.38-1.74-3.46-3.07-7.13-8.78-11.66-15.97-22.99-20-3.34-1.19-7.45-1.43-10.59-2.5-2.65-.9-1.86-2.22.56-2.49,16.76-1.87,33.6,11.95,36.47,28.06Z"/>
  <g>
    <path class="cls-1" d="M303.47,2.73l.05,1.81c-8.4-.48-16.7-1.29-25.07.17-18.97,3.32-35.14,19.7-51.38,28.99-22.83,13.07-50.91,9.74-75.73,18.35-29.81,10.34-44.87,37.83-76.97,43.27-18.22,3.09-30.74-2.7-46.56,11.38-3.24,2.89-5.6,7.8-9.64,8.74-1.72-1.73,8.88-12.56,10.58-14.02,14.96-12.84,28.54-9.21,46.24-12.32,27.51-4.84,42-29.59,65.9-41.88,22.96-11.81,48.36-7.67,71.99-15.85,7.19-2.49,14.25-7.72,21.05-11.34,21.79-11.62,43.65-26.12,69.53-17.28Z"/>
    <path class="cls-1" d="M174.55,54.39c-.51,1.01-2.68,1.69-3.75,2.15-10.6,4.61-20.25,6.99-30.46,13.16-24.21,14.63-42.41,45.7-74.94,39.33-1.2-.24-6.73-1.34-6.71-2.62.61-.82,1.41-1.1,2.34-1.39,7.48-2.33,16.27-2.77,23.95-5.34,16.3-5.45,27.87-19.28,41.78-28.62,13.85-9.3,30.92-16.31,47.8-16.67Z"/>
    <path class="cls-1" d="M43.1,108.59c.55,2.28-2.52,2.73-4.3,4.1-12.34,9.55-26.29,33.34-26.28,49.16,0,2.79,2.83,8.37-1.18,7.78-4.98-12.45-.88-27.23,5.27-38.64,5.24-9.71,15.15-20.8,26.49-22.41Z"/>
    <path class="cls-1" d="M557.71,63.73c3.56-3.72,10.28-2.71,14.82-1.42,9.46,2.69,14.01,10.02,21.37,15.39,10.07,7.34,19.99,9.33,32.34,7.22,2.14,1.79-9.44,3.65-10.29,3.72-9.69.81-19.61-2.26-27.1-8.39-5.61-4.59-13.23-16.52-21.49-16.52h-9.66Z"/>
    <path class="cls-1" d="M16.31,120.42c.11,1.08,0,2.08-.29,3.13-2.64,9.34-8.78,17.61-10.74,28.51-1.82,10.19-.2,15.36.27,24.92.19,3.89-1.32,2.71-2.51,0-4.68-10.68-3.58-26.4.7-37.05,1.36-3.4,8.14-16.88,10.41-18.87.78-.68,1.07-.81,2.16-.64Z"/>
    <path class="cls-1" d="M537.15,63.73c1.26-.27,1.66.28,2.52.9,5.66,4.15,13.92,17.09,16.9,23.59,3.49,7.6,8.89,24.47,9.19,32.6.11,3.1-1.45,3.97-2.55.63-1.01-3.08-1.24-6.91-2.22-10.24-5.28-17.98-13.44-29.63-22.84-45.07-.47-.78-1.21-1.37-1-2.42Z"/>
    <path class="cls-1" d="M593.84,71.2c-.74.78-12-9.18-13.75-10.22-14.62-8.74-24.28-.02-38.29-1.59-.93-.1-1.92-.13-2.16-1.26,14.79.59,27.92-9.18,42.17-.75,3.27,1.93,8.78,8.12,11.12,11.31.63.85,1.17,1.26.9,2.52Z"/>
  </g>
</svg>