<?xml version="1.0" encoding="UTF-8"?>
<svg id="Light_Green_Bushes" data-name="Light Green Bushes" xmlns="http://www.w3.org/2000/svg" viewBox="0 0 756.25 111.5">
  <defs>
    <style>
      .cls-1 {
        fill: #5c5d2e;
      }

      .cls-2 {
        fill: #737337;
      }

      .cls-3 {
        fill: #8a8944;
      }

      .cls-4 {
        fill: #727538;
      }
    </style>
  </defs>
  <g>
    <path class="cls-4" d="M365.49,70.22c.27.28,2.44,1.23,2.92,1.32,5.28,1,11.5-.9,16.82-1.17,9.49-.49,19.22-.31,28.69-.68,6.89-.26,21.94,1.31,19.8,11.31-1.38,6.45-12.95,9.79-18.63,10.73-19.39,3.23-43.31,1.26-63.17.86-2.22-.05-7.64-1.76-8.67,1.72-1.19,3.98,4.08,7.83-1.39,12.96-6.16,5.79-23.7,3.76-31.69,4.22-42.33-3.77-84.93-2-127.27-5.22-43.91-7.97-89.13-1.93-133.13-4.58-26.61-1.6-44.08-3.68-48.56-33.68C-.94,53.58-2.15,34.23,15.99,30.72c11.3-2.19,25.82,2.12,37.72.52,1.34.1,2.58-.64,3.88-.69,21.32-.83,42.67-1.64,63.97-2.6,17.84-.8,22.45,3.09,38.29,6.73,17.56,4.03,33.82.66,51.09-.24,5.44-.28,17.08.41,18.49,7.02,1.23,5.76-3.73,8.04-7,11.69,2.07,4.87,5.22,2.99,8.77,2.85,36.63-1.47,73.66,1.87,110.3-3.26,7.42-.21,23.03.28,23.68,10.29.14,2.09-1.52,5.26.3,7.18Z"/>
    <path class="cls-2" d="M481.43,67.64c-.48-.5-3.6-1.61-4.5-1.86-11.15-2.99-22.53-.49-33.69-2.49-6.77-1.21-21.5-6.01-15.82-15.48,6.59-11.01,31.19-6.21,41.63-7.95,4.76-.8,4.86-3.38,7.52-5.88,6.42-6.05,18.45-6.47,26.82-6.03,23.1,1.22,28.74,1.27,51.84-.21,2.7-.17,17.27-1.31,16.9-4.85-.34-3.25,4.63-3.88,9.19-11.49,4.31-7.19,21.36-5.15,28.65-5.53,10-.53,19.7-3.22,29.54-4.64,24.91-3.59,48.96,2.14,74.29,1.25,10.49-.37,22.14-1.98,31.37,3.48,16.97,10.05,10.94,42.33,5,57.68-6.31,16.32-23.8,19.73-39.68,20.63-26.95,1.53-54.39-1.77-81.11,1.98l-16.12.03c-1.38.08-2.64-.63-3.98-.71-24.88-1.48-48.68-6.41-73.64-3.27-13.4,1.69-41.12,10.12-52.48,3.42-3.53-2.08-4.95-4.95-4.07-9.04.58-2.7,5.16-6.13,2.37-9.03Z"/>
  </g>
  <g>
    <path class="cls-1" d="M232.68,55.79c1.96,1.7-7.83,4.26-10.47.24-3.41-5.2,10.98-10.9,4.87-16.03-7.44-6.25-35.27,2.24-45.5,2.79-22.96,1.23-39.89-10.25-61.38-11.79-3.64-.26-7.48.14-11.15,0-.95-.04-2.45.58-2.16-.92,1.36-1.12,4.2-1.3,5.96-1.48,23.44-2.37,45.93,7.03,69.29,8,13.44.56,26.31-4.36,39.39-1.6,5.91,1.25,12.13,3.73,9.21,11.11-2.24,5.66-13.47,9.99,1.92,9.67Z"/>
    <path class="cls-1" d="M13.95,91.1c-1.52,1.52-5.26-4.64-5.83-5.62C.48,72.43-5.33,38.98,12.1,31.31c8.19-3.6,17.54-.59,25.69-.28,11.86.44,23.81-.63,35.66.28l-.4,1.48c-9.26.84-18.5,1.95-27.78,2.58-12.33.84-30.91-2.67-37.62,10.71-4.55,9.08-1.74,28.28,2.47,37.41,1.22,2.65,3.74,4.68,3.83,7.62Z"/>
    <path class="cls-1" d="M215.34,57.64c2.89-19.05-17.43-6.82-27.12-5.12-18.3,3.21-38.3-2.25-55.61-7.88-.66-.69-5.85-1.48-5.25-2.79.54-1.17,1.5-.87,2.49-.69,19.17,3.61,33.38,10.04,54.13,7.11,8.94-1.26,38.38-14.17,34.32,5.82-.16.78-2.02,4.61-2.95,3.55Z"/>
    <path class="cls-1" d="M584.64,9.93c-.22-1.51,1.57-2.13,2.67-2.6,7.58-3.22,18.54-1.14,26.76-1.75,8.75-.65,18.33-3.5,27.28-4.32,9.08-.83,18.21-.67,27.29-.04,1.11.08,2.01-.16,2.75.96-.74,1.13-1.64.87-2.75.96-11.8.88-23.45,1.01-35.27,2.53-6.78.87-14.43,3.29-21.15,3.63-5.07.26-10.12-1.32-14.86-1.28-2.07.01-12.22,2.33-12.7,1.91Z"/>
    <path class="cls-1" d="M683.77,7.46l-1.55,1.85c-8.51-.09-16.96,1.29-25.41,1.86-6.51.43-13.3.15-19.82.63-4.31.32-9.56,1.76-13.62,1.88-1.42.04-3.04.36-4.03-.96.63-.9,1.19-1.17,2.2-1.51,3.62-1.2,9.89-2.36,13.76-2.97,15.91-2.52,32.5-2.67,48.47-.78Z"/>
    <path class="cls-1" d="M35.64,39.68c1.58,2.13-7.14,2.66-7.96,2.88-11.52,3.07-16.19,7.93-14.96,20.35.52,5.29,3.74,11.33,4.32,16.13.15,1.27-.81,1.21-1.53.9-.51-.22-2.68-4.08-3.1-4.95-5.43-11.09-7.14-28.18,6.95-33.31,2.32-.84,15.17-3.48,16.28-1.99Z"/>
  </g>
  <path class="cls-1" d="M725.16,2.06c17.19-.01,28,4.96,30.41,23.13,1.42,10.7.75,22-3.96,31.83l-1.3-1.28c3.46-14.01,5.27-34.59-7.38-44.56-11.56-9.11-34.75-5.21-48.96-6.19-1-.07-6.48-.7-6.47-1.57,2.07-2.12,5.27-.35,7.71-.28,10.03.26,19.94-1.07,29.95-1.08Z"/>
  <path class="cls-1" d="M242.52,94.13c.36,1.36-.56,1.5-1.69,1.69-7,1.13-18.17,1.32-25.29.81-8.25-.59-17.09-3.91-25.46-4.9-22-2.61-40.83,3.17-61.89,4.25-12.27.63-27.75-3.41-40.09-5.76-3.78-.72-2.91-2.31.24-2.14,10.03.52,19.96,4.36,29.97,4.21,19.38-.29,37.85-8.44,57.62-7.48,15.72.76,29.15,7.35,44.05,9.24,7.83.99,14.72.03,22.53.08Z"/>
  <path class="cls-1" d="M734.51,69.34c-3.01-.12-5.52-1.75-8.52-2.32-11.51-2.19-23.06.18-34.52.49s-24.3-.77-35.95.6c-6.46.76-15.2,4.46-21.05,4.35-2.17-.04-10.89-2.15-13.25-2.91-.85-.27-2.05-.62-1.96-1.75,4.83-1.43,9.75,1.72,14.53,1.56,4.41-.15,10.52-3.14,15.09-4.17,14.34-3.25,26.52-2.12,40.69-2.01,9.93.08,36.66-1.81,43.93,3.77,1.04.79,1.21.99,1.01,2.39Z"/>
  <path class="cls-3" d="M724.46,1.37c17.19-.01,28,4.96,30.41,23.13,1.42,10.7.75,22-3.96,31.83l-1.3-1.28c3.46-14.01,5.27-34.59-7.38-44.56-11.56-9.11-34.75-5.21-48.96-6.19-1-.07-6.48-.7-6.47-1.57,2.07-2.12,5.27-.35,7.71-.28,10.03.26,19.94-1.07,29.95-1.08Z"/>
  <path class="cls-1" d="M744.99,27.87c2.9,8.67,5.13,17.22,1.77,26.15-4.61,12.27-13.58,6.52-22.66,4.97-6.83-1.16-13.54-1.26-20.29-2.01-2.64-.29-2.95-2.1-.59-2.51,1.67-.29,5.49-.5,7.44-.61,8.03-.48,15.65,1.49,22.94,1.27,12.61-.39,10.29-18.52,9.59-27.3l1.8.05Z"/>
  <path class="cls-1" d="M647.76,60.67c1.96,1.72-9.78,5.99-10.89,6.14-5.08.68-9.99-1.94-14.89-2.34-7.58-.62-14.18,3.8-21.59,4.28-8.89.58-19.05-3.34-27.63-5.33l.03-2.13c9.79-1.45,18.63,3.87,28.22,3.12,6.9-.54,12.13-3.59,19.83-3.15,5.1.29,9.91,2.72,14.86,2.54,4.54-.17,7.8-2.53,12.06-3.12Z"/>
  <path class="cls-1" d="M137.19,85.46c-1.18,1.88-4.57,2.53-6.67,2.93-20.33,3.94-39.51-8.4-61.1-5.33-4.54.64-9.09,2.64-13.72,2.4-.94-.05-1.79.45-1.55-.93,21.67-12.7,46.18.91,69.06,1.57,4.72.14,9.28-.59,13.97-.64Z"/>
  <g>
    <path class="cls-3" d="M231.99,55.09c1.96,1.7-7.83,4.26-10.47.24-3.41-5.2,10.98-10.9,4.87-16.03-7.44-6.25-35.27,2.24-45.5,2.79-22.96,1.23-39.89-10.25-61.38-11.79-3.64-.26-7.48.14-11.15,0-.95-.04-2.45.58-2.16-.92,1.36-1.12,4.2-1.3,5.96-1.48,23.44-2.37,45.93,7.03,69.29,8,13.44.56,26.31-4.36,39.39-1.6,5.91,1.25,12.13,3.73,9.21,11.11-2.24,5.66-13.47,9.99,1.92,9.67Z"/>
    <path class="cls-3" d="M13.26,90.41c-1.52,1.52-5.26-4.64-5.83-5.62C-.22,71.73-6.03,38.28,11.4,30.61c8.19-3.6,17.54-.59,25.69-.28,11.86.44,23.81-.63,35.66.28l-.4,1.48c-9.26.84-18.5,1.95-27.78,2.58-12.33.84-30.91-2.67-37.62,10.71-4.55,9.08-1.74,28.28,2.47,37.41,1.22,2.65,3.74,4.68,3.83,7.62Z"/>
    <path class="cls-3" d="M214.64,56.95c2.89-19.05-17.43-6.82-27.12-5.12-18.3,3.21-38.3-2.25-55.61-7.88-.66-.69-5.85-1.48-5.25-2.79.54-1.17,1.5-.87,2.49-.69,19.17,3.61,33.38,10.04,54.13,7.11,8.94-1.26,38.38-14.17,34.32,5.82-.16.78-2.02,4.61-2.95,3.55Z"/>
    <path class="cls-3" d="M583.94,9.23c-.22-1.51,1.57-2.13,2.67-2.6,7.58-3.22,18.54-1.14,26.76-1.75,8.75-.65,18.33-3.5,27.28-4.32,9.08-.83,18.21-.67,27.29-.04,1.11.08,2.01-.16,2.75.96-.74,1.13-1.64.87-2.75.96-11.8.88-23.45,1.01-35.27,2.53-6.78.87-14.43,3.29-21.15,3.63-5.07.26-10.12-1.32-14.86-1.28-2.07.01-12.22,2.33-12.7,1.91Z"/>
    <path class="cls-3" d="M683.08,6.77l-1.55,1.85c-8.51-.09-16.96,1.29-25.41,1.86-6.51.43-13.3.15-19.82.63-4.31.32-9.56,1.76-13.62,1.88-1.42.04-3.04.36-4.03-.96.63-.9,1.19-1.17,2.2-1.51,3.62-1.2,9.89-2.36,13.76-2.97,15.91-2.52,32.5-2.67,48.47-.78Z"/>
    <path class="cls-3" d="M34.95,38.99c1.58,2.13-7.14,2.66-7.96,2.88-11.52,3.07-16.19,7.93-14.96,20.35.52,5.29,3.74,11.33,4.32,16.13.15,1.27-.81,1.21-1.53.9-.51-.22-2.68-4.08-3.1-4.95-5.43-11.09-7.14-28.18,6.95-33.31,2.32-.84,15.17-3.48,16.28-1.99Z"/>
  </g>
  <path class="cls-1" d="M240.66,57.57c1.32,6.89,2.84,13.86,5.28,20.44,1.49,4,4.68,8.06,4.63,12.4-1.21,1.4-6.13-7.83-6.52-8.65-2.29-4.84-5.86-16.86-5.9-22.05,0-.73.01-1.35.62-1.86l1.88-.28Z"/>
  <path class="cls-1" d="M236.32,71.82c12.27,18.34-1.22,23.17-17.96,17.96-.17-.74.26-1.6.99-1.75,1.67-.36,8.17,1.36,11.12,1.16,11.41-.74,5.69-10,4.62-17.06l1.23-.31Z"/>
</svg>