<?xml version="1.0" encoding="UTF-8"?>
<svg id="Golden_Plants" data-name="Golden Plants" xmlns="http://www.w3.org/2000/svg" viewBox="0 0 458.76 181.91">
  <defs>
    <style>
      .cls-1 {
        fill: #aa9231;
      }

      .cls-2 {
        fill: #887725;
      }

      .cls-3 {
        fill: #b6a133;
      }
    </style>
  </defs>
  <path class="cls-2" d="M458.52,46.12c-.01-.05-.01-.11-.03-.16-1.28-5.02-6.31-5.27-10.16-2.96-3.9,2.34-6.73,6.29-8.19,10.57-1.4,4.11-.63,9.1-3.82,12.25-.79-.41-.53-.95-.46-1.63.45-4.24.93-7.41-.99-11.56-1.52-3.29-5.78-5.41-8.28-2.1-2.61,3.46-1.07,14.37,1.68,17.59,1.23,1.44,3.38,1.99,1.94,4.42-.35.59-.81.59-.88.68-2.57,3.28-5.2,6.53-7.8,9.79-.12.15-.94.37-.97-.5-.03-.98.62-2.59.74-3.77.4-3.81.64-7.49-1.5-10.89-4.25-6.74-11.92-4.39-11.89,3.5.02,5.96,2.95,10.49,7.72,13.87.75.53,2.5.77,2.4,1.88-1.75,2.74-3.67,5.36-5.58,8-.44.61-1,3.1-1.92,2.06-.8-.91-.74-5.35-1.1-6.94-.98-4.35-3.56-8.63-8.16-9.76-5.54-1.36-7.5,4.38-5.56,8.85,2.51,5.8,6.82,7.36,11.48,10.73.36.26.94.92,1.05,1.31.14.52-4.09,7.73-4.86,8.6-.32.36-.52.76-.9.1-.27-.47-.5-2.15-.85-2.98-1.62-3.85-3.91-7.34-7.9-9.12-3.66-1.64-7.12-.22-7.22,4.08-.11,4.77,4.06,9.52,7.81,12.01,1.04.69,5.44,2.36,5.61,3.04-2.33,5.89-4.27,12.01-6.52,17.95-6.53,17.22-5.91,26.22-5.07,28.91.27.85.71,1.52,1.39,1.88-1.03.83-2.07,1.65-3.12,2.44-2.66,1.99-5.4,3.87-8.22,5.64-3.2,2.01-6.51,3.85-9.88,5.55.03.06.05.12.08.18.61,1.02,1.74,1.56,2.85,1.86,1.23.33,2.58.59,3.87.33,1.38-.28,2.46-1.23,3.6-2,1.69-1.15,3.41-2.25,5.08-3.44,3.1-2.2,6.17-4.85,9.06-7.23,3.25-2.68,6.38-5.5,9.45-8.4.06-.06.12-.12.18-.17,2.55-1.54,7.19-7.74,9.55-7.93,1.56-.13,3.32,1.88,4.91,2.53,4.77,1.96,20.2,2.72,19.04-5.28-.45-3.13-4.25-4.22-8.25-4.52-1.27-.2-2.48-.2-3.71-.1-1.98.03-3.76.17-4.88.23,2.95-2.68,7.07-2.88,10.57-4.38,3.27-1.39,6.27-3.74,8.25-6.69.54-.74,1.03-1.52,1.45-2.34.96-1.89,1.32-3.99.91-5.79,0-.14,0-.28-.02-.43l-.06.09c-.54-1.86-1.96-3.34-4.5-3.8-5.17-.94-11.18,4.63-13.95,8.57-1.26,1.79-2.03,3.85-2.77,5.9-.72,1.99-1.43,4.02-2.66,5.77-.72,1.03-1.64,1.86-2.61,2.64-.08.06-.17.13-.27.11-.22-.04-.34-.37-.36-.56-.03-.27.04-.53.09-.79.81-4.03,4.03-8.8,1.02-13.09-4.31-6.15-9.52-1.74-10.5,4.13-.28,1.7-.28,3.45.06,5.14.32,1.64.96,3.22,1.83,4.64.45.73.96,1.42,1.53,2.07.29.33.59.65.91.96.14.14.28.28.43.41.14.12.32.23.4.4.21.43-.19.95-.46,1.24-.82.88-1.67,1.74-2.53,2.58-1.38,1.33-2.78,2.64-4.25,3.87-2.43,2.03-4.99,3.89-7.45,5.87.43-1.64.85-4.02,1.34-6.87.52-2.25.9-4.76,1.3-7.27.59-3.12,1.3-6.46,2.17-9.82,1.64-5.57,3.74-11.03,5.46-16.57,1.39-1.77,4.87,1.51,6.89,1.83,5.6.89,8.98-.91,10.36-3.36.63-.9.9-1.97.7-3.24-.3-3.32-3.64-6.33-9.59-4.93-1.89.44-3.26,1.86-4.86,2.8l-.04-.03,4.43-9.15c3.15-.65,4.48,2.39,7.48,3.2,4.12,1.11,7.79-.53,9.91-2.96.05-.06.1-.12.15-.18.1-.12.19-.24.28-.36.01-.02.03-.03.04-.05,2.12-2.89,2.12-6.6-1.62-8.32-4.06-1.86-7.44,1.15-11.35,1.69l4.26-8.5c.06-.05.13-.1.2-.14,4.73,3.61,9.36,5.13,15.07,2.34,7.23-3.52,6.43-12.1-2.36-11.09-2.99.34-5.59,2.37-8.47,3.06,1.75-1.77,5.77-9.01,8.27-8.64,1.31.2,2.85,2.21,4.67,2.88,3.89,1.42,8.86,1.15,12.43-.95,7.23-4.27,1.73-11.27-5.03-10.66-2.99.27-5.53,2.56-8.49,2.13,2.59-4.19,7.99-4.83,12.02-7.29,3.03-1.85,5.65-4.45,7.18-7.68.56-1.19.97-2.45,1.21-3.74.11-.63.18-1.26.22-1.9,0-.13.03-.26.03-.39.05-.58.17-1.28-.17-1.74Z"/>
  <path class="cls-2" d="M83.55,155.67c-1.81-4.19-14.9-17.07-23.83-31.63-1.28-2.08-7.78-11.4-7.92-13.11-.03-.44-.04-.85.31-1.18,5.38-1.86,11.24-5.45,12.65-11.36.79-3.28.03-6.01-3.12-7.51-7.24-3.44-13.14,5.67-12.46,12.18l-1.53.29-4.96-12.53c.3-.66,6.38-2.11,7.87-2.85,4.3-2.13,7.7-6.81,7.33-11.77-.29-3.94-3.39-7.45-7.54-6.87-6.7.94-7.79,10.69-9.27,15.89-.79-.34-.94-.88-1.16-1.63-.94-3.16-1.71-6.58-2.45-9.81-.29-1.28-1.39-2.24-.69-3.85,6.33-.51,12.17-5.7,13.74-11.75,2.76-10.59-7.94-13.97-12.79-4.97l-2.72,9.44c-1.06-.43-1.02-1.24-1.27-2.15-.53-1.94-2.58-11.91-2.07-13.07l.32-.4c6.56-.51,12.04-3.82,15.01-9.69,3.3-6.52,1.33-14.68-7.39-11.72-6.09,2.06-6.37,9.12-8.49,13.7-.32.69-.36,1.16-1.31,1.15-2.62-7.24,2.19-13.12,2.33-20.31.12-5.91-1.78-15.79-7.58-18.61-3.19-1.55-5.91-.84-7.86,1.05.12-.25.26-.51.4-.76-5.17,1.81-5.46,9.23-4.82,13.85,1.26,9.18,9.05,13.37,11.68,21.65-.06.01-.11.01-.17.02-.04-.05-.09-.1-.13-.15-2.86-2.99-5.07-5.47-8.54-7.12-3.39-2.63-7.17-4.13-11.43-.86-7.93,6.08,7.47,16.97,13.24,17.93.71.12,1.69.11,2.74.09.59.12,1.14.18,1.64.18.48,0,.96-.07,1.43-.15,1.14.09,2.09.33,2.52.9l2.36,16.74c-.62-.84-1.26-1.86-1.91-2.53-3.24-3.4-6.51-6.55-11.38-7.24-1.93-.27-3.63-.13-5.06.32-6.4.98-10.33,6.63-3.63,13.57,5.93,6.14,16.41,6.16,23.91,3.18l3.12,13.7c-.13.12-.34.15-.63.11-1.76-1.13-3.87-2.83-5.01-3.42-1.31-.69-2.72-1.26-4.16-1.66-.31-.16-.57-.28-.77-.34-5.49-1.64-13.77-.75-15.32,5.89-2.04,8.72,7.82,9.92,14.2,9.22.34-.04.73-.11,1.14-.2,3.68-.27,7.01-1.57,10.91-2.64.99-.04,1.82.08,2.36.47.6.43,3.61,9.42,3.56,11.04-.76-.38-1.69-.89-2.34-1.09-2.49-.79-5.03-1.33-7.56-1.37-5.19-.45-10.5.51-12.49,4.33-4.6,8.8,10.86,11.54,16.89,10.66.75-.11,1.86-.53,3.08-1.03.28-.07.55-.14.82-.22.64-.18,1.95-.81,3.3-1.44,1.27-.44,2.32-.65,2.81-.33.74.5,7.55,13.25,9.03,15.45.54.8.71,1.7,1.99,1.43-.26-.75-.54-1.48-.83-2.21.89,1.54,1.77,3.08,2.62,4.63,10.94,19.79,19.85,26.36,23.03,27.71,1.49.63,2.93.61,4.05-.64,1.06-1.18.94-2.8.17-4.58Z"/>
  <path class="cls-1" d="M24.87,49.79c-.03-.14.34-.57.06-1.37-1.13-3.28-3.36-1.71-5.68-1.7-5.19.02-16.62-7.2-17.79-12.4-1.12-4.96,4.25-7.27,8.53-6.08,5.41,1.5,7.98,4.47,11.6,8.26.58.61.89,1.28,1.9.87-.43-5.49-5.71-8.73-8.44-13.3s-4.3-10.55-3.39-16.05S16.79-1.94,22.51.85c5.8,2.83,7.7,12.71,7.58,18.61-.15,7.19-4.96,13.07-2.33,20.31.95.02.99-.46,1.31-1.15,2.12-4.58,2.4-11.63,8.49-13.7,8.73-2.96,10.69,5.2,7.39,11.72-2.97,5.88-8.45,9.19-15.01,9.69l-.32.4c-.52,1.16,1.53,11.13,2.07,13.07.25.91.21,1.72,1.27,2.15l2.72-9.44c4.86-9,15.55-5.62,12.79,4.97-1.58,6.05-7.41,11.24-13.74,11.75-.71,1.6.39,2.56.69,3.85.74,3.22,1.51,6.65,2.45,9.81.22.75.37,1.29,1.16,1.63,1.49-5.2,2.57-14.95,9.27-15.89,4.15-.58,7.25,2.92,7.54,6.87.36,4.96-3.03,9.64-7.33,11.77-1.49.74-7.57,2.19-7.87,2.85l4.96,12.53,1.53-.29c-.69-6.51,5.22-15.63,12.46-12.18,3.15,1.5,3.9,4.23,3.12,7.51-1.41,5.91-6.47,9.67-11.85,11.53-.35.33.05.87.09,1.31.13,1.71,5.44,10.72,6.71,12.81,8.93,14.55,22.02,27.44,23.83,31.63.77,1.78.89,3.4-.17,4.58-1.13,1.25-2.56,1.28-4.05.64-3.18-1.35-12.1-7.92-23.03-27.71-3.77-6.82-7.96-13.5-11.62-20.36-.78-.38-5.83,2.41-7.3,2.83-5.31,1.53-13.07,1.66-17.45-2.23-3.95-3.51-2.53-7.87,1.91-9.99,4.84-2.31,9.92-1.69,14.81-.15,1.05.33,2.81,1.45,3.46,1.57.92.17.7-.34.62-.92-.2-1.41-3.59-11.1-4.19-11.38-.45-.21-1.53-.18-2.06-.05-6.86,1.68-11.73,4.48-19.16,2.23-5.73-1.74-9.54-8.13-3.87-12.23,4.71-3.41,10.76-2.43,15.61.11,1.77.93,5.88,4.52,7.37,4.49,1.7-.03-.19-2.54-.41-3.43-.96-3.88-1.89-7.75-3.06-11.58-.95-.97-2.57.47-3.66.75-6.96,1.78-13.51.93-19.12-3.79-7.41-6.23-3.52-15.27,6.17-13.9,4.88.69,8.14,3.84,11.38,7.24,1,1.05,2,2.94,2.94,3.69.84.67,1.29-.28,1.24-.51-.99-5.02-1.94-10.06-2.97-15.07Z"/>
  <path class="cls-3" d="M15.61,1.62c-4.09,7.39-1.28,15.36,2.39,22.22,1.1,2.06,2.98,3.98,3.96,6.01,3.8,7.86,3.97,19.38,5.66,27.98,3.44,17.42,7.44,33.94,14.48,50.31,3.29,7.65,8.18,14.58,10.89,22.43-1.28.27-1.45-.63-1.99-1.43-1.48-2.19-8.29-14.95-9.03-15.45-1.42-.95-7.58,2.66-10.01,3.01-6.03.88-21.37-1.8-16.89-10.66,3.84-7.59,16.89-5.11,22.39-2.08.53-.58-2.92-10.36-3.56-10.83-2.51-1.81-10.86,1.98-14.42,2.37-6.38.71-16.23-.49-14.2-9.22,1.55-6.64,11.05-7.65,16.55-6.01,1.95.58,7.72,4.77,9.35,5.43l-3.12-13.7c-7.5,2.98-17.98,2.96-23.91-3.18-10.21-10.57,4.3-19.01,14.59-11.66,2.72,1.95,4.91,4.23,7.45,7.99l-2.42-17.19c-2.51-.69-5.93-.38-8.17-.76-5.78-.96-21.32-12.12-13.4-18.19,7.28-5.58,13.25,1.78,18.17,5.9.7.59,1.15,1.97,2.09,2.2-2.62-8.27-10.42-12.47-11.68-21.65-.63-4.62-.35-12.04,4.82-13.85Z"/>
  <g>
    <path class="cls-3" d="M427.95,71.83c.07-.09.53-.09.88-.68,1.44-2.43-.71-2.99-1.94-4.42-2.75-3.21-4.29-14.12-1.68-17.59s6.75-1.19,8.28,2.1c1.92,4.15,1.43,7.31.99,11.56-.07.68-.33,1.23.46,1.63,3.18-3.16,2.42-8.15,3.82-12.25s4.28-8.23,8.19-10.57c3.85-2.31,8.88-2.06,10.16,2.96,1.3,5.1-3.84,11.48-7.57,14.52-4.54,3.7-10.73,3.81-13.84,9.25.49.6.81.37,1.4.21,3.96-1.09,8.49-4.64,12.98-1.94,6.43,3.86,2.41,9.38-3.38,10.77-5.22,1.25-10.16-.41-13.93-4.22h-.42c-.99.3-6.1,6.83-7.03,8.18-.44.64-.96,1.04-.67,1.92l7.3-3.29c8.15-1.73,11.69,6.7,3.65,10.57-4.59,2.21-10.89,1.32-14.54-2.34-1.37.41-1.38,1.6-2.03,2.45-1.61,2.16-3.33,4.44-4.8,6.69-.35.54-.61.91-.4,1.58,4.01-1.81,10.64-6.28,14.76-2.61,2.55,2.27,2,6.04-.29,8.3-2.89,2.84-7.59,3.2-11.18,1.65-1.24-.54-5.35-3.55-5.92-3.39l-5.17,9.69.99.8c3.68-3.86,12.46-4.99,14.13,1.32.73,2.75-.57,4.65-3.02,5.89-4.42,2.24-9.74.49-13.72-1.88-.39-.05-.64.17-.9.42-.99.98-3.35,9.94-3.97,11.82-4.34,13.22-5.44,28.14-7.09,31.47-.7,1.41-1.64,2.34-2.93,2.31-1.37-.04-2.14-.92-2.54-2.18-.84-2.68-1.45-11.69,5.07-28.91,2.25-5.94,4.19-12.06,6.52-17.95-.17-.68-4.57-2.35-5.61-3.04-3.75-2.49-7.92-7.24-7.81-12.01.1-4.3,3.56-5.72,7.22-4.08,3.99,1.79,6.28,5.27,7.9,9.12.35.82.58,2.51.85,2.98.38.66.58.26.9-.1.77-.87,5.01-8.08,4.86-8.6-.11-.39-.69-1.04-1.05-1.31-4.66-3.37-8.97-4.93-11.48-10.73-1.94-4.48.02-10.21,5.56-8.85,4.6,1.13,7.18,5.41,8.16,9.76.36,1.59.29,6.03,1.1,6.94.92,1.04,1.48-1.45,1.92-2.06,1.91-2.64,3.82-5.26,5.58-8,.11-1.1-1.65-1.35-2.4-1.88-4.77-3.38-7.7-7.91-7.72-13.87-.03-7.89,7.63-10.24,11.89-3.5,2.14,3.39,1.91,7.08,1.5,10.89-.12,1.18-.77,2.79-.74,3.77.03.87.85.65.97.5,2.6-3.26,5.22-6.51,7.8-9.79Z"/>
    <path class="cls-3" d="M434.57,120.76c-5.17-.94-11.18,4.63-13.95,8.57-1.26,1.79-2.03,3.85-2.77,5.9-.72,1.99-1.43,4.02-2.66,5.77-.72,1.03-1.64,1.86-2.61,2.64-.08.06-.17.13-.27.11-.22-.04-.34-.37-.36-.56-.03-.27.04-.53.09-.79.81-4.03,4.03-8.8,1.02-13.09-4.31-6.15-9.52-1.74-10.5,4.13-.28,1.7-.28,3.45.06,5.14.32,1.64.96,3.22,1.83,4.64.45.73.96,1.42,1.53,2.07.29.33.59.65.9.96.14.14.28.28.43.41.14.12.32.23.4.4.21.43-.19.95-.46,1.24-.82.88-1.67,1.74-2.53,2.58-1.38,1.33-2.78,2.64-4.25,3.87-2.52,2.11-5.2,4.03-7.75,6.1-2.48,2.01-4.95,4.08-7.51,6-1.53,1.14-3.08,2.25-4.66,3.32-1.55,1.05-3.17,2.01-4.72,3.06-1.64,1.11-3.38,1.94-5.1,2.89-1.57.87-3.54,3.13-1.43,4.63.59.42,1.31.72,2.01.89,1.19.29,2.28-.75,3.21-1.32,1.01-.62,2.01-1.26,3-1.93,1.69-1.15,3.41-2.25,5.08-3.44,3.1-2.2,6.17-4.85,9.06-7.23,3.25-2.68,6.38-5.5,9.45-8.4,3.01-2.84,5.82-5.96,9.06-8.54.48-.38,1.26-.77,1.88-.48.09.03.18.06.26.1.92.44,1.48,1.43,2.28,2.02,3.4,2.52,14.39,3.28,17.66.44,3.13-2.72.72-6.82-2.67-8.11-4.27-1.62-7.4-.91-11.6-.17-.31.05-.62.14-.94.12-.2-.01-.47-.13-.61-.27-.26-.27.09-.43.28-.6.17-.15.35-.29.52-.43.35-.28.71-.54,1.09-.76.76-.45,1.57-.8,2.42-1.06,1.67-.52,3.41-.79,5.1-1.22.82-.21,1.64-.46,2.43-.79,4.16-1.75,7.91-4.85,9.96-8.91,2.03-4,1.43-9-3.67-9.93Z"/>
    <path class="cls-1" d="M448.67,60.18c3.03-1.85,5.65-4.45,7.18-7.68.56-1.19.97-2.45,1.21-3.74.12-.68.2-1.36.23-2.04.03-.68.3-1.68-.33-2.18-.49.64-.83,1.48-1.26,2.17-.45.75-.92,1.49-1.36,2.25-.7,1.19-1.4,2.38-2.11,3.57-20.76,13.22-35.17,34.64-46.85,55.94-6.67,12.18-14.4,37.18-14.91,51.04-.11,3.1,1.77,3.33,2.82,0,1.45-4.56,2.34-14.5,3.65-19.61,1.72-6.72,4.3-13.2,6.36-19.8,1.39-1.77,4.87,1.51,6.89,1.83,14.97,2.38,14.11-14.49,1.47-11.53-1.92.45-3.3,1.91-4.93,2.84l4.47-9.23c3.15-.65,4.48,2.39,7.48,3.2,9.12,2.45,16.05-8.51,8.75-11.86-4.06-1.86-7.44,1.15-11.35,1.69l4.37-8.72c4.76,3.66,9.41,5.22,15.17,2.41,7.23-3.52,6.43-12.1-2.36-11.09-2.99.34-5.59,2.37-8.47,3.06,1.75-1.77,5.77-9.01,8.27-8.64,1.31.2,2.85,2.21,4.67,2.88,3.89,1.42,8.86,1.15,12.43-.95,7.23-4.27,1.73-11.27-5.03-10.66-2.99.27-5.53,2.56-8.49,2.13,2.59-4.19,7.99-4.83,12.02-7.29Z"/>
    <path class="cls-1" d="M439.13,124.48c1.62,6.18-4.57,12.68-10.6,15.25-3.51,1.49-7.62,1.69-10.57,4.38,3.98-.22,16.01-1.34,16.83,4.39,1.16,8-14.27,7.24-19.04,5.28-1.6-.65-3.36-2.66-4.91-2.53-2.91.24-14.36,15.14-16.01,13.63-.27-1.17,5.73-6.99,6.31-7.69,4.25-5.16,15.2-15.21,20.98-18.26,3.52-1.85,7.77-2.47,10.81-5.38l6.2-9.05Z"/>
  </g>
</svg>