<?xml version="1.0" encoding="UTF-8"?>
<svg id="Sky" xmlns="http://www.w3.org/2000/svg" viewBox="0 0 665.01 407.77">
  <defs>
    <style>
      .cls-1 {
        fill: #56abc8;
      }

      .cls-2 {
        fill: #229ad2;
      }

      .cls-3 {
        fill: #88bdbf;
      }
    </style>
  </defs>
  <path class="cls-1" d="M591.01,391.81c1.15-.47,2.31-.95,3.45-1.44,10.23-4.34,19.32-9.66,30.57-10.55,8.63-.68,17.07-5.47,24.28-10.51,20.46-14.29,18.16-37,8.7-57.71-7.33-15.5-25.38-29.89-26.76-47.79-.33-4.28.5-8.32.69-12.51.68-15.7-5.42-40.62-14.66-53.46-7.29-10.13-18.24-14.23-27.7-21.65-35.74-28-26.58-85.31-82.91-89.47-24.44-1.81-48.93,1.87-71.32-11.05-25.45-14.68-33.58-51.05-63.29-59.05-21.73-5.85-36.92,5.71-57.01,9.87C267.15,36.41,228.69-2.23,180.99.53c-64.03,3.7-55,78.21-78.32,119.79-9.7,17.3-28.05,30.23-40.72,45.48-14.98,18.04-23.27,41.71-21.21,65.33,1.33,15.29,7,30.71.86,45.7-5.17,12.62-16.73,22.03-24.16,33.33C9.44,322.33-.21,335.24,0,350.52c.31,21.95,20.02,38.67,38.55,46.88,14.73,6.52,30.79,9.71,46.84,10.31,16.33.61,32.44-3.32,48.63-5.15,39.91-4.51,80.14-3.8,120.24-4.26,42.31,0,84.62-.83,126.93-1.65,19.53-.38,39.3-2.01,58.79-.61,19.87,1.42,39.53,5.16,59.47,5.7,20.09.55,40.63,2.31,60.61-.76,10.68-1.64,20.97-5.1,30.96-9.17Z"/>
  <path class="cls-2" d="M178.77,1.24c33.1-3.19,50.69,8.05,79.02,19.76,3.59,1.48,8.55,2.45,11.58,3.91,2.88,1.39,2.25,3-.77,2.66-13.86-1.55-31.2-10.29-45.69-13.21-34.61-6.99-64.8-3.48-80.49,31.09-16.03,35.32-14.77,65.61-43.45,97.21-10.16,11.2-23.07,17.01-32.84,28.5-2.63,3.1-5.95,9.19-8.36,11.47-1.95,1.84-3.91,1.67-3.16-1.27.95-3.72,11.82-16.82,14.9-20.44,13-15.29,26.62-27.41,35.96-45.83C125.69,75.24,119.51,6.95,178.77,1.24Z"/>
  <path class="cls-2" d="M41.96,308.39c-.24-1.17.58-1.49,1.29-2.11,2.17-1.91,6.16-3.53,8.82-5.43,16.29-11.62,26.95-26.97,45.02-36.77,24.38-13.21,39.54-12.15,65.19-17.22,24.63-4.88,44.03-25.91,69.77-29.99,17.62-2.8,33.62,2.44,49.71,8.82l-1.4,1.43c-18.88-5.46-37.07-9.73-56.02-1.86-22.15,9.2-39.67,26.9-63.79,30.39-28.89,4.18-46.17,2.26-71.68,20.02-12.59,8.76-29.53,27.78-43.35,32.24-1.21.39-2.25.67-3.54.48Z"/>
  <path class="cls-2" d="M251.39,32.04c-6.37-.63-12.62-2.23-18.97-3.02-30.55-3.76-51.65-4.99-68.09,24.07-4.89,8.63-9.53,22.52-14.65,29.96-.59.86-1.28,1.58-2.06,2.26-.35-.42-1.04-.79-1.25-1.25-.74-1.61,2.5-17.92,3.22-20.93,9.83-41.12,38-49.9,76.92-41.21,6.15,1.37,18.44,4.72,23.47,8.13.79.54,1.69.7,1.43,1.98Z"/>
  <path class="cls-2" d="M53.11,213.9c3.13-32.62,29.89-45.08,51.72-62.91,3.83-3.13,9.07-9.58,12.41-11.76.82-.53,1.42-.61,1.55.33.19,1.35-6.68,10.21-8.04,11.78-10.98,12.61-25.98,21.4-36.56,34.7-8.65,10.87-14.89,23.93-19.17,37.1l-1.91.37c.21-3.11-.29-6.54,0-9.6Z"/>
  <path class="cls-2" d="M266.88,209.88c.16,1.06-1.47.66-2.15.6-10.18-.85-18.9-3.75-29.78-3.11-21.37,1.25-35.86,12.65-54.65,19.08-1.27.43-2.28,1.35-3.24-.16,23.95-24.06,58.73-30.35,89.83-16.41Z"/>
  <path class="cls-2" d="M144.2,237.77c-.24,1.16-1.22,1.12-2.15,1.25-6.47.88-11.94,1.65-18.29,3.39-10.25,2.82-22.53,9.1-32.19,11.18-1.04.22-2.05.41-3.12.28-.26-1.19.61-1.48,1.3-2.11,14.06-12.79,35.93-19.54,54.47-13.99Z"/>
  <path class="cls-2" d="M310.49,28.87c12.66-1.49,26.32-11.1,39.82-13.46,41.82-7.33,51.59,28.47,78.89,49.04,27.72,20.89,57.81,14.81,88.69,23.46,45.85,12.84,43.52,63.13,74.55,87.79,6.29,4.99,14.09,8.54,19.84,14.24,9.95,9.87,16.86,27.37,19.81,40.92,4.63,21.3-.27,37.67,11.58,58.44,2.18,3.82,9.38,12.47,10.15,15.9.19.86-.49,1.32-1.28,1.26-6-7.3-12.62-14.8-17.15-23.13-12.53-23.01-8.03-50.82-21.09-73.72-10.77-18.88-28.93-24.43-41.98-41.67-25.19-33.26-23.18-66.64-72.92-73.93-25.65-3.76-46.87-3.23-70.19-17.18-33.09-19.79-38.54-68.27-87.27-54.33-18.48,5.29-28.2,12.55-49.33,8.76-1.22-.22-5.15-.56-4.72-2.4,7.16-.61,15.62.83,22.62,0Z"/>
  <path class="cls-2" d="M489.26,106.94c.64-1.74,3.12-1.3,4.64-1.23,8.55.4,19.72,1.64,27.39,5.46,17.94,8.93,24.08,29.28,31.88,46.19,2.81,6.09,6.93,11.65,8.28,18.37-.88,1.19-1.12.39-1.89.03-16-7.37-27.04-41.82-40.53-54.89-7.95-7.7-19.73-10.07-29.77-13.92Z"/>
  <path class="cls-2" d="M445.27,111.91c.94-.16,1.81-.54,2.78-.63,25.73-2.29,69.31,8.27,78.87,35.77.4,1.15,2.07,6.32.14,5.45-7-5.77-12.84-12.9-20.25-18.17-9.68-6.88-21.57-10.46-32.9-13.57-7.92-2.18-19.67-3.59-26.78-6.68-1-.44-2.09-.79-1.86-2.16Z"/>
  <path class="cls-2" d="M611.32,253.79c-1.03.76-3.04-2.35-3.43-3.06-4.83-8.66-5.84-20.02-11.79-29.73-3.85-6.27-10.63-13.18-13.59-19.88-.49-1.12-.16-1.14.64-1.86,15.38,5.95,24.74,22.12,27.99,37.68,1.18,5.64,2.49,11.33.19,16.84Z"/>
  <path class="cls-3" d="M178.08.55c33.1-3.19,50.69,8.05,79.02,19.76,3.59,1.48,8.55,2.45,11.58,3.91,2.88,1.39,2.25,3-.77,2.66-13.86-1.55-31.2-10.29-45.69-13.21-34.61-6.99-64.8-3.48-80.49,31.09-16.03,35.32-14.77,65.61-43.44,97.21-10.16,11.2-23.07,17.01-32.84,28.5-2.63,3.1-5.95,9.19-8.36,11.47-1.95,1.84-3.91,1.67-3.16-1.27.95-3.72,11.82-16.82,14.9-20.44,13-15.29,26.62-27.41,35.96-45.83C124.99,74.55,118.82,6.26,178.08.55Z"/>
  <path class="cls-3" d="M41.27,307.7c-.24-1.17.58-1.49,1.29-2.11,2.17-1.91,6.16-3.53,8.82-5.43,16.29-11.62,26.95-26.97,45.02-36.77,24.38-13.21,39.54-12.15,65.19-17.22,24.63-4.88,44.03-25.91,69.77-29.99,17.62-2.8,33.62,2.44,49.71,8.82l-1.4,1.43c-18.88-5.46-37.07-9.73-56.02-1.86-22.15,9.2-39.67,26.9-63.79,30.39-28.89,4.18-46.17,2.26-71.68,20.02-12.59,8.76-29.53,27.78-43.35,32.24-1.21.39-2.25.67-3.54.48Z"/>
  <path class="cls-3" d="M250.7,31.35c-6.37-.63-12.62-2.23-18.97-3.02-30.55-3.76-51.65-4.99-68.09,24.07-4.89,8.63-9.53,22.52-14.65,29.96-.59.86-1.28,1.58-2.06,2.26-.35-.42-1.04-.79-1.25-1.25-.74-1.61,2.5-17.92,3.22-20.93,9.84-41.12,38-49.9,76.92-41.21,6.15,1.37,18.44,4.72,23.47,8.13.79.54,1.69.7,1.43,1.98Z"/>
  <path class="cls-3" d="M52.42,213.21c3.13-32.62,29.89-45.08,51.72-62.91,3.83-3.13,9.07-9.58,12.41-11.76.82-.53,1.42-.61,1.55.33.19,1.35-6.68,10.21-8.04,11.78-10.98,12.61-25.98,21.4-36.56,34.7-8.65,10.87-14.89,23.93-19.17,37.1l-1.91.37c.21-3.11-.29-6.54,0-9.6Z"/>
  <path class="cls-3" d="M266.19,209.19c.16,1.06-1.47.66-2.15.6-10.18-.85-18.9-3.75-29.78-3.11-21.37,1.25-35.86,12.65-54.65,19.08-1.27.43-2.28,1.35-3.24-.16,23.95-24.06,58.73-30.35,89.83-16.41Z"/>
  <path class="cls-3" d="M143.5,237.07c-.24,1.16-1.22,1.12-2.15,1.25-6.47.88-11.94,1.65-18.29,3.39-10.25,2.82-22.53,9.1-32.19,11.18-1.04.22-2.05.41-3.12.28-.26-1.19.61-1.48,1.3-2.11,14.06-12.79,35.93-19.54,54.47-13.99Z"/>
</svg>