<?xml version="1.0" encoding="UTF-8"?>
<svg id="Fawn" xmlns="http://www.w3.org/2000/svg" viewBox="0 0 355.99 317.18">
  <defs>
    <style>
      .cls-1 {
        fill: #ca9156;
      }

      .cls-2 {
        fill: #a25c26;
      }

      .cls-3 {
        fill: #844b1f;
      }

      .cls-4 {
        opacity: .91;
      }

      .cls-5 {
        fill: #ebdead;
      }

      .cls-6 {
        fill: #be7739;
      }

      .cls-7 {
        fill: #a2662f;
      }
    </style>
  </defs>
  <path class="cls-6" d="M241.74,168.82c4.3,4.16-9.59,5.61-11.75,6.21-12.76,3.55-25.6,7.51-35.81,16.24-16.92,14.47-18.35,43.09-36.52,56.42-.85.62-1.25,1.17-2.5.9,2.9-7.7,9.7-13.06,13.35-20.42,6.72-13.54,6.28-27.44,18.24-38.76,12.04-11.38,27.16-16.95,43.27-19.93,2.31-.43,10.31-2.03,11.73-.66Z"/>
  <path class="cls-6" d="M222.07,160.61c-1.07-4.18,2.48-8.12,3.02-12.77,1.18-10.07-.43-17.65,3.67-27.93s20.6-30.96,28.3-39.24c4.41-4.74,5.89-3.64,2.68,2.06-8.93,15.8-28.46,34.85-30.16,53.49-.5,5.48.49,10.88-.98,16.37-.77,2.86-3.11,8.09-6.53,8.03Z"/>
  <path class="cls-6" d="M346.62,148.83l-.31-5.58c-2.13-4.36-13.86,3.97-17.05,5.26-22.37,9.02-31.08,9.27-47.69,29.15-1.68,2.01-3.09,6.27-5.89,6.42-2.63.14-2.7-2.15-1.84-4.24,2.01-4.88,14.96-16.62,19.55-20.1,10.34-7.87,17.26-8.94,28.61-13.52,4.67-1.89,15.96-8.35,20.03-8.47,2.31-.07,6.25,1.81,6.94,4.09.54,1.78.27,6.97-2.35,7Z"/>
  <g>
    <path class="cls-6" d="M91.17,155.16c1.64-.15,2.79.95,4.26,1.09,1.89.19,3.56-.68,5.5-.65,5.49.09,8.64,5.42,8.83,10.44.35,9.28-11.22,21.55-20.72,17-1.57-.75-7.73-5.02-8.5-6.37-3.92-6.92,2.52-20.77,10.63-21.51Z"/>
    <path class="cls-6" d="M44.69,218.39c11.08-1.85,24.53,10.56,14.43,20-1.76,1.65-4.66,2.98-6.77,4.38-2.48,1.64-3.3,4.03-7.18,4.04-12.21,0-13.26-26.27-.47-28.41Z"/>
    <path class="cls-6" d="M156.17,139.33c-2.49,2.63-7.28,3.66-10.55,2-6.39-3.25-.4-11.15-1-16.36-.48-4.17-3.93-5.65-3.07-11.1,1.75-11.16,16.91-9.93,18.89,1.48.6,3.47-.26,13.97-1.12,17.54-.45,1.87-1.87,5.08-3.16,6.45Z"/>
    <path class="cls-6" d="M118.44,121.74c2.71-.13,8.2.71,10.5,2.19,6.72,4.32,3.94,19.59-3.37,21.06-2.25.45-12.77-.62-15.03-1.41-11.71-4.12-3.68-21.29,7.91-21.83Z"/>
    <path class="cls-6" d="M61.41,181.82c9.39-1.96,15.98,6.9,9.72,15.29-1.72,2.31-10.03,11.05-12.31,11.85-10.11,3.58-13.2-13.35-9.3-19.83,1.3-2.15,9.46-6.81,11.89-7.32Z"/>
    <path class="cls-6" d="M159.06,157.32c-3.42-3.79-.28-9.33,2.03-12.76,1.36-2.03,7.73-10.1,9.34-11.1,4.61-2.87,9.61-1.6,11.91,3.37,5.29,11.43-7.66,26.41-19.91,22.39-.83-.27-2.85-1.3-3.38-1.89Z"/>
    <path class="cls-6" d="M87.46,117.99c9.41-1.34,11.55,14.93,5.67,20.56-3.76,3.6-6.66,1.46-10.65,2.36-1.6.36-2.6,2.04-4.51,2.33-4.03.6-6.79-2.02-7.06-5.94-.09-1.24,1.69-12.25,2.19-13.2.46-.87,2.01-2.23,2.92-2.66.95-.45,10.34-3.29,11.44-3.45Z"/>
    <path class="cls-6" d="M138.89,147.09c6.21-.71,10.89,6.88,8.85,12.62-1.71,4.82-5.38,4.88-8.89,7.22-4.9,3.26-11.43,9.93-17.77,5.13-4.13-3.13-1.89-7.91.34-11.41,2.38-3.74,13.15-13.06,17.47-13.56Z"/>
    <path class="cls-6" d="M137.04,69.7c6.8-.73,14.31,5.85,14.94,12.6.72,7.63-6.5,18.09-14.84,15.45-4.27-1.35-2.49-6.92-3.81-10.43-1.53-4.06-6.02-5.43-4.54-10.99,1.14-4.29,4.03-6.17,8.25-6.62Z"/>
    <path class="cls-6" d="M115.99,86.44c1.22-.04,1.98-.32,3.39-.04,9.74,1.94,3.82,23.19-7.21,22.14-.94-.09-12.88-4.74-13.37-5.26-2.28-2.36-.49-4.2-.16-6.32.44-2.82-.17-5.32,2.3-7.61,2.75-2.55,11.23-2.77,15.07-2.91Z"/>
    <path class="cls-6" d="M169.25,83.91c6.73-.99,11.71,9.83,12.89,15.32,1.1,5.11,1.17,16.72-5.64,17.97-10.67,1.97-7.11-10.47-8.46-15.03-.3-1.02-2.97-3.07-3.84-4.83-2.62-5.3-1.6-12.45,5.06-13.43Z"/>
    <path class="cls-6" d="M78.16,233.84c3.85-.52,12.3,5.1,13.04,9.03,1.13,5.97-4.98,7.74-8.51,10.43-3.51,2.68-5,6.14-10.36,6.41-8.32.43-8.1-7.49-5.95-13.43,1.19-3.27,8.11-11.95,11.77-12.45Z"/>
    <path class="cls-6" d="M135.77,205.37c12.21-2.55,15.04,12.22,3.7,16.71-5.35,2.12-7.17-.05-11.8.11-4.5.15-13.82,4.92-13.27-4.73.54-9.38,6.26-6.29,11.79-7.42,2.77-.57,6.79-4.09,9.57-4.68Z"/>
    <path class="cls-6" d="M155.63,171.94c3.12-.36,6.18-.16,7.83,2.97,1.25,2.37,1.39,11.05.84,13.75-2.35,11.55-23.52,10.29-20.78-2.82.2-.93,4.16-9.18,4.81-10.06,1.74-2.36,4.48-3.51,7.31-3.84Z"/>
    <path class="cls-6" d="M121.51,182.43c11.45-2.58,21.55,6.85,11.35,16.3-9.63,8.92-24.33,3.71-17.48-9.42.92-1.77,4.32-6.47,6.13-6.88Z"/>
    <path class="cls-6" d="M62.65,151.43c7.14-.98,6.31,9.83,3.78,14.34-4.07,7.24-9.54,9.25-16.59,4.42-4.28-2.93-3.43-9.79-.55-13.51,2.76-3.57,4.78-1.58,8.12-2.41,1.35-.34,3.57-2.6,5.24-2.83Z"/>
    <path class="cls-6" d="M110.35,232c13.22-3.02,15.88,18.51,3,22.2-3.63,1.04-8.86,1.14-9.6-3.47-.68-4.3,1.46-17.56,6.6-18.73Z"/>
    <path class="cls-6" d="M34.76,172.52c7.37-1.7,14.17,8.32,7.31,12.89-1.72,1.15-3.99,1.07-5.6,2.46-2.89,2.49-2.74,8.43-8.53,6.7-4.64-1.39-4.71-14.11-1.64-16.88,1.16-1.04,3.04-1.17,4.25-1.94,1.48-.94,2.22-2.77,4.21-3.22Z"/>
    <path class="cls-6" d="M98.55,204.81c7.79,7.72-4.5,22.67-13.12,15.29-8.82-7.54,4.01-24.32,13.12-15.29Z"/>
    <path class="cls-6" d="M135.15,230.75c8.69-1.93,8.01,10.59.43,11.02-5.43.31-6.68-9.64-.43-11.02Z"/>
    <path class="cls-6" d="M279.38,63.58c4-.1,11.17,5.24,11.3,9.46.21,6.59-9.94-1.52-11.61-3.83-.82-1.13-1.55-2.36-1.86-3.74,0-1.06,1.24-1.87,2.17-1.89Z"/>
    <path class="cls-6" d="M267.21,56.42c-1.67,2.65-16.72-3.49-13.59-8.15,2.15-3.2,16.75,3.12,13.59,8.15Z"/>
    <path class="cls-6" d="M155.93,27.23c-1.56-1.56.04-4.39,2.02-4.78,2.4-.48,11.67.65,12.11,3.41.97,6.14-11.36,4.15-14.12,1.37Z"/>
    <path class="cls-6" d="M237.46,70.67c-3.29,2.07-14-4.01-10.91-9.05,3.12-2.71,10.99,2.92,11.53,5.88.13.74-.15,2.87-.62,3.17Z"/>
    <path class="cls-6" d="M172.32,41.15c2.74-.8,13.31-.03,11.89,4.42-3.76,3.26-12.12,3.68-14.1-1.87-.08-.9,1.42-2.32,2.21-2.55Z"/>
    <path class="cls-6" d="M142.61,41.18c8.76-1.06,11.44,4.66,2.51,6.85-9.31,2.28-11.02-5.82-2.51-6.85Z"/>
    <path class="cls-6" d="M191.53,28.12c1.95-.55,10.67.43,11.65,2.36,2.19,4.27-7.78,4.72-10.26,4.05-3.69-.99-5.18-5.33-1.39-6.41Z"/>
    <path class="cls-6" d="M57.71,69.68c2.8,2.78-3.89,13.27-8.27,9.82-3.25-2.56,4.17-13.91,8.27-9.82Z"/>
    <path class="cls-6" d="M103.55,52.95c1.19-.2,4.14-.56,4.86.43,2.58,6.19-13.58,10.93-12.67,4.83.34-2.27,5.66-4.9,7.81-5.26Z"/>
    <path class="cls-6" d="M72.89,77.43c-4.62-4.6,11.32-14.01,10.21-4.57-.38,3.27-7.72,7.05-10.21,4.57Z"/>
    <path class="cls-6" d="M228.1,35.58c2.11-.46,6.78.46,8.47,1.79,4.03,3.18-3.29,8.23-8.52,4.81-2.6-1.7-3.62-5.79.06-6.6Z"/>
    <path class="cls-6" d="M78.13,45.5c4.95-1.46,5.76,1.78,2.65,5.13-.39.42-4.32,3.9-4.61,4.07-2.78,1.67-5.43-1.23-4.58-3.94.18-.59,5.91-5.07,6.54-5.25Z"/>
    <path class="cls-6" d="M134.55,28.48c-1.31,1.22-13.25,3.46-13.26-.78-.02-4.95,18.64-4.23,13.26.78Z"/>
    <path class="cls-6" d="M94.51,38.46c-2.22-3.51,8.01-7.65,10.3-7.85,2.33-.21,4.43,1.48,2.34,3.62-1.38,1.42-11.2,6.51-12.64,4.23Z"/>
    <path class="cls-6" d="M45.92,107.43c7.25-2.14,4.02,12.44-2.53,10.37-2.4-.76-.94-9.35,2.53-10.37Z"/>
    <path class="cls-6" d="M202.65,47.29c2.61-.07,11.79,1.52,9.85,5.5-2.06,4.22-14.3-.68-9.85-5.5Z"/>
  </g>
  <path class="cls-6" d="M300.14,276.48c-.44-2.86,3.65-3.04,5.78-4.44,6.7-4.4,5.87-11.99,1.02-17.54-2.71-3.11-5.34-3.03-8.65-4.97-.05-2.02,7.96-.27,9.11.17,5.66,2.23,8.77,10.94,8.23,16.55-.64,6.67-9.54,10.12-15.49,10.22Z"/>
  <g>
    <g class="cls-4">
      <polygon class="cls-7" points="283.01 280.67 298.87 291.94 306.99 302.82 302.18 309.45 290.35 313.47 272.96 311.69 261.89 307.08 259.35 305.54 273.19 300.57 281.47 295.72 282.54 288.5 283.01 280.67"/>
      <polygon class="cls-7" points="301.89 245.9 321.33 245.35 329.63 251.12 334.52 257.33 327.5 267.67 312.54 276.72 300.93 279.7 297.98 280 312.71 266.26 312.36 256.44 308.92 251.71 301.89 245.9"/>
    </g>
    <path class="cls-6" d="M350.3,131c-2.54-2.01-5.63-3.08-8.93-3.08-1.61,0-3.2.25-4.73.66,1.68-12.01-3.58-23.67-7.82-33.05l-.7-1.55c-10.05-22.37-23.38-39.84-40.74-53.38-14.48-11.29-31.74-20.08-55.96-28.49C207.6,3.85,183.71,0,156.24,0c-8.16,0-16.75.33-26.26,1-18.64,1.32-31.07,6.42-45.09,14.22-22.24,12.37-41.81,30.44-56.59,52.24C13.37,89.48,3.94,114.44,1.03,139.65c-1.97,17.01-.79,33.83.83,52.47,1.82,20.99,5.15,37.23,16.75,58.14,9.62,17.33,26.25,35.84,44.09,35.84,3.05,0,6.04-.52,8.93-1.56-.14,6.42,1.94,12.45,6.04,17.33,6,7.13,15.83,11.38,26.31,11.38,2,0,3.99-.16,5.92-.47,4.69-.76,9.38-1.9,13.92-3,3.14-.76,6.39-1.55,9.46-2.16,3.9-.78,7.95-1.42,11.87-2.05l-1.38-8.66,1.45,8.65c3.46-.55,7.04-1.12,10.6-1.79,4.37-.82,8.63-1.78,12.75-2.71,9.6-2.16,19.54-4.4,29.04-4.4,6.41,0,12.28.99,17.94,3.03,2.79,1.01,5.44,2.54,8.25,4.17,5.03,2.92,10.72,6.22,18.26,6.87,1.41.12,2.73.14,3.87.14h2.21c1.44,0,2.95.03,4.2.29,1.18.25,2.83,1.01,4.46,1.76,1.64.76,3.34,1.55,5.2,2.13,4.49,1.42,9.97,2.14,16.29,2.14,3.6,0,7.52-.24,11.32-.7l.59-.07c5.4-.64,13.57-1.61,17.62-7.6,1.48-2.19,2.95-5.9,1.54-11.15-1.2-4.46-6.15-9.71-10.89-13.84,10.19-2.12,26.71-7.6,33.39-13.31,6.3-5.39,6.34-11.24,5.8-14.25-1.22-6.8-7.22-11.91-13.03-14.82,3.13-3.45,4.82-7.98,5.85-10.74.09-.25,9.26-25.6,4.41-36.62-.33-.76-.98-2.21-2.16-3.59,2.33-1.6,4.39-3.4,6.06-5.45,3.06-3.76,4.69-9.29,6.28-14.64.77-2.59,1.49-5.04,2.24-6.76.53-1.22,1.5-2.87,2.53-4.62,2.41-4.1,4.65-8.11,5.64-12.2,2.06-8.59-2.35-13.61-5.16-15.83Z"/>
    <g>
      <path class="cls-1" d="M278.29,308.41c-5.42,0-10.01-.58-13.65-1.73-1.33-.42-2.72-1.06-4.19-1.74-2.03-.94-4.13-1.91-6.29-2.37-2.04-.43-4.1-.49-6.02-.49h-2.24c-.93,0-2.02,0-3.09-.1-5.59-.48-9.97-3.03-14.62-5.72-3.01-1.75-6.13-3.56-9.67-4.83-6.63-2.39-13.47-3.55-20.91-3.55-10.47,0-20.89,2.34-30.96,4.61-4.06.91-8.27,1.86-12.46,2.65-3.45.65-6.99,1.22-10.41,1.76-4.01.64-8.15,1.3-12.22,2.11-3.25.65-6.6,1.46-9.83,2.25-4.37,1.06-8.9,2.16-13.24,2.87-1.47.24-2.99.36-4.51.36-7.8,0-15.31-3.16-19.6-8.25-3.37-4-4.64-9.01-3.69-14.5.1-.58.36-1.45.63-2.38.7-2.39,1.43-4.87.92-6.62-.46-1.54-1.58-2.47-3.01-2.47-1.8,0-3.53,1.55-4.92,2.79-.32.29-.69.62-.85.73-3.42,2.35-7.04,3.54-10.76,3.54-14.05,0-28.4-16.87-36.42-31.32-10.84-19.54-13.96-34.83-15.68-54.64-1.58-18.16-2.73-34.52-.86-50.71,2.75-23.81,11.68-47.41,25.82-68.27,14.01-20.67,32.55-37.79,53.6-49.5,13.3-7.4,24.35-11.92,41.44-13.14,9.3-.66,17.68-.98,25.64-.98,26.46,0,49.43,3.7,72.3,11.63,40.46,14.04,71.52,32.54,91.58,77.18l.7,1.56c3.98,8.82,8.5,18.82,7.11,28.36-.75,5.16-9.11,8.3-15.22,10.59-1.84.69-3.58,1.34-5.02,2-16.49,7.56-27.18,16.25-38.13,31-.17.23-.35.46-.54.69-1.23,1.56-3.28,4.16-1.43,7.33.15.25.34.46.58.63.93.64,1.9.97,2.88.97,2.77,0,4.51-2.46,5.91-4.44.43-.61.84-1.19,1.2-1.57,6.04-6.54,14.25-14.75,24.13-20.33,4.61-2.6,9.51-4.63,14.24-6.59,2.99-1.24,6.09-2.52,9.12-3.95,1.43-.67,2.96-1.58,4.59-2.54,3.62-2.14,7.73-4.58,11.12-4.58,1.34,0,2.47.39,3.48,1.18,4.59,3.63,1.82,9.22-2.59,16.71-1.17,1.99-2.28,3.87-3.02,5.58-.96,2.21-1.76,4.91-2.61,7.77-1.34,4.52-2.72,9.19-4.67,11.59-5.56,6.84-18.89,10.63-30.65,13.98-5.4,1.54-10.5,2.99-14.45,4.63-12.17,5.05-14.06,12.9-16.06,21.21-.77,3.19-1.56,6.48-2.95,9.95-6.1,15.27-19.22,27.43-35.11,32.52-4.26,1.37-8.53,1.97-13.86,1.97-2.5,0-4.95-.13-7.54-.26-2.64-.14-5.36-.28-8.18-.28-1.47,0-2.84.04-4.18.11-5.07.29-11.08,2.09-17.45,4-7.16,2.15-14.56,4.37-20.64,4.37-2.6,0-4.72-.4-6.5-1.22-2.7-1.24-5.06-4.02-6.16-7.25-.95-2.78-.86-5.5.26-7.65.57-1.1,1.52-1.26,2.03-1.26.7,0,1.41.28,2,.79.14.15.51.81.75,1.24.93,1.66,2.09,3.72,4.17,3.72.57,0,1.43-.18,2.26-1.01.59-.59,1.24-1.67,1-3.44-.36-2.74-2.78-6.12-4.62-7.2-.73-.43-1.6-.64-2.36-.83-.03,0-.06-.02-.09-.02.58-.67,1.16-1.33,1.74-1.98,4.67-5.32,9.07-10.34,12.59-16.72,2.7-4.91,4.54-10.42,6.32-15.75,2.75-8.21,5.34-15.97,10.79-21.61,3.28-3.39,7.38-6.87,11.73-10.56,10.97-9.29,23.4-19.83,26.6-32.82.84-3.41,1.12-6.87,1.4-10.21.28-3.43.55-6.67,1.36-9.89,3.37-13.32,10.19-22.05,18.08-32.16,1.01-1.29,2.03-2.6,3.07-3.95,1.33-1.73,2.64-3.62,3.9-5.44,1.84-2.65,3.74-5.39,5.72-7.65.49-.55,1.36-1.43,2.25-2.24-.54,2.61-1.35,5.19-2.19,7.87-.87,2.78-1.77,5.66-2.36,8.61-1.41,7.06-.58,13.11.22,18.97.59,4.34,1.16,8.43.87,12.93-.27,4.36-1.64,6.56-3.23,9.11-1.06,1.71-2.27,3.65-3.17,6.33-1.42,4.23-.96,8.43,1.26,11.53,1.92,2.67,4.96,4.19,8.35,4.19,1.93,0,3.91-.48,5.89-1.43.71-.34,4.37-2.64,4.69-5.4.13-1.11-.3-2.14-1.18-2.85-1.1-.89-2.48-.99-3.42-.99-.88,0-1.81.11-2.71.21-.84.1-1.63.19-2.31.19-.84,0-1.08-.15-1.1-.16,0,0-.06-.13-.07-.46-.03-1.58,1.5-4.07,2.86-6.26.92-1.48,1.78-2.89,2.33-4.21,3.3-7.95,1.95-15.72.64-23.24-.52-2.98-1.06-6.06-1.27-9.05-.37-5.12,1.09-9.89,2.64-14.94,1.2-3.9,2.43-7.93,2.71-12.09.24-3.57-.47-6.27-2.11-8.02-1.17-1.25-2.75-1.91-4.56-1.91-2.2,0-4.69.99-7.21,2.85-.08.06-.15.12-.21.18-7.04,6.98-14.65,15.79-22.63,26.2-8.65,11.28-14.82,25.23-16.5,37.31-.25,1.83-.39,3.59-.53,5.28-.32,4.01-.62,7.79-2.42,11.7-2.53,5.52-10.31,13.49-14.05,17.32-3.59,3.68-7.55,7.1-11.39,10.41-.77.67-1.55,1.34-2.33,2.02,1.16-3.2,2.34-6.37,3.5-9.47,8.5-22.71,16.54-44.17,10.16-70.05-7.43-30.19-27.34-46.14-57.57-46.14-2.35,0-4.79.1-7.26.29-32.78,2.55-62.78,42-71.2,54.03-2.02,2.89-3.92,5.98-5.76,8.97-2.21,3.59-4.49,7.29-6.93,10.56-.37.49-1.05,1.25-1.77,2.06-3.27,3.64-5.55,6.41-5.17,8.83.36,2.32,1.94,3.75,4.11,3.75,2.03,0,4.05-1.23,5.17-2.29,5.34-5.03,9.58-11.88,13.68-18.51,2.01-3.25,3.91-6.32,5.9-9.13,11.28-15.92,36.57-42.77,56.42-47.06,4.76-1.03,9.5-1.55,14.08-1.55,18.66,0,33.21,8.39,40.99,23.62,14.84,29.07,4.88,55.55-5.68,83.58-3.07,8.15-6.24,16.57-8.73,25.02-1.14,3.87-1.92,7.3-2.68,10.61-1.87,8.21-3.35,14.69-9.12,22.96-1.96,2.81-4.42,5.49-7.03,8.32-8.05,8.76-17.17,18.69-9.23,32.95,4.16,7.47,10.79,11.1,20.28,11.1,7.41,0,15.42-2.17,23.16-4.27,5.93-1.61,11.53-3.13,16.14-3.44.95-.06,1.92-.09,2.97-.09,2.77,0,5.62.22,8.38.44,2.83.22,5.75.45,8.66.45,2.23,0,4.23-.13,6.12-.4,2.85-.41,5.78-1.44,8.62-2.44,2.62-.92,5.09-1.79,7.06-2,.53-.06,1.16-.09,1.86-.09,6.78,0,19.14,2.67,24.04,5.19,1.77.91,3.37,2.13,5.07,3.41,1.49,1.13,3.03,2.3,4.73,3.27,1.41.81,2.81,1.35,4.17,1.88,1.18.46,2.29.88,3.3,1.45,4.19,2.33,14.76,11.55,15.76,15.29.45,1.67.34,2.97-.33,3.96-1.8,2.66-7.57,3.34-11.39,3.8l-.59.07c-3.48.42-7.03.64-10.28.64ZM202.52,230.21c-3.27,0-4.25,2.12-4.52,3.03-.5,1.68-.25,3.33.72,4.77,2.23,3.32,7.69,4.71,10.57,5.01.81.08,1.67.12,2.58.12,8.52,0,20.16-3.53,24.96-10.06,1.59-2.16,2.04-4.84,1.11-6.66-.68-1.34-2.01-2.11-3.65-2.11-.44,0-.91.05-1.4.16-1.17.26-2.31,1.22-3.91,2.65-.59.53-1.21,1.08-1.59,1.33-3.84,2.54-8.95,4.06-13.66,4.06-.76,0-1.51-.04-2.23-.12-.55-.06-1.65-.42-2.71-.77-2.01-.66-4.29-1.41-6.27-1.41Z"/>
      <path class="cls-1" d="M306.95,237.82c-3.78,0-7.46-.25-11.36-.52-2.16-.15-4.39-.3-6.62-.41-.23-.01-.55-.02-.92-.02-.62,0-1.43.01-2.35.03-1.18.02-2.54.04-3.91.04-3.42,0-5.09-.15-5.9-.29.22-1.05.94-2.73,1.58-4.23.56-1.32,1.15-2.69,1.5-3.85.73-2.37,1.23-4.62,1.67-6.6,1.48-6.7,2.46-11.12,10.42-14.38,2.72-1.12,5.85-2.04,8.88-2.93,2.21-.65,4.49-1.32,6.63-2.07,1.77-.62,3.91-1.51,6.18-2.46,4.06-1.7,8.67-3.62,11.53-4.09.41-.07.76-.1,1.03-.1.59,0,.81,0,1.55,1.68,2.37,5.37-1.68,22.15-4.6,30.03-1.19,3.21-3.42,9.19-7.21,9.68-2.5.33-5.15.48-8.08.48Z"/>
      <path class="cls-1" d="M291.4,275.98c-4.7,0-8.75-3.03-13.05-6.24-2.75-2.05-5.59-4.17-8.69-5.52-3.19-1.38-6.38-2.07-9.46-2.74-1.12-.24-2.27-.49-3.42-.77.26-.32.7-.69,1.42-1.23.51-.38,1.03-.78,1.52-1.25,2.19-2.13,4.29-4.38,6.32-6.55,1.02-1.09,2.04-2.19,3.08-3.27,3.27-1.24,6.89-1.82,11.34-1.82,3.75,0,7.64.42,11.41.83,2.03.22,4.12.45,6.17.6.99.14,2.08.21,3.33.21,1.96,0,4.04-.18,6.05-.35,1.96-.17,3.99-.34,5.84-.34,2.12,0,3.78.23,5.06.7,4.78,1.76,9.98,5.6,10.69,9.56.38,2.09-.56,4.06-2.86,6.03-5.88,5.03-26.26,11.49-33.87,12.1-.3.02-.59.04-.89.04Z"/>
    </g>
    <g>
      <polygon class="cls-3" points="297.98 245.19 306.99 250.89 311.6 259.8 311.6 268.18 309.45 275.98 325.19 270.45 332.17 261.29 331.47 250.89 322.13 244.04 306.27 243.14 297.98 245.19"/>
      <polygon class="cls-3" points="282.99 275.72 282.6 285.17 282.11 292.34 275.88 298.43 253.71 306.24 273.87 313.49 295.05 311.54 302.07 303.84 300.55 292.35 290.22 280.29 282.99 275.72"/>
    </g>
    <path class="cls-6" d="M278.46,282.06c10.52,2.33,10.51,8.54,3.1,15.18-8.06,7.23-16.72,11.6-27.26,6.19-.02-1.4,5.79-.84,7.04-1.01,6.19-.84,20.95-7.69,20.27-15.11-.3-3.21-3.46-2.15-3.15-5.26Z"/>
    <path class="cls-2" d="M234.28,224.31c-.44,0-.91.05-1.4.16-1.17.26-2.31,1.22-3.91,2.65-.59.53-1.21,1.08-1.59,1.33-3.84,2.54-8.95,4.06-13.66,4.06-.76,0-1.51-.04-2.23-.12-.55-.06-1.65-.42-2.71-.77-2.01-.66-4.29-1.41-6.27-1.41-3.27,0-4.25,2.12-4.52,3.03-.5,1.68-.25,3.33.72,4.77,2.23,3.32,7.69,4.71,10.57,5.01.81.08,1.67.12,2.58.12,8.52,0,20.16-3.53,24.96-10.06,1.59-2.16,2.04-4.84,1.11-6.66-.68-1.34-2.01-2.11-3.65-2.11Z"/>
    <path class="cls-2" d="M350.3,131c-2.54-2.01-5.63-3.08-8.93-3.08-1.61,0-3.2.25-4.73.66,1.68-12.01-3.58-23.67-7.82-33.05l-.7-1.55c-10.05-22.37-23.38-39.84-40.74-53.38-14.48-11.29-31.74-20.08-55.96-28.49C207.6,3.85,183.71,0,156.24,0,148.08,0,139.49.33,129.98,1c-18.64,1.32-31.07,6.42-45.09,14.22-22.24,12.37-41.81,30.44-56.59,52.24C13.37,89.48,3.94,114.44,1.03,139.65c-1.97,17.01-.79,33.83.83,52.47,1.82,20.99,5.15,37.23,16.75,58.14,9.62,17.33,26.25,35.84,44.09,35.84,3.05,0,6.04-.52,8.93-1.56-.14,6.42,1.94,12.45,6.04,17.33,6,7.13,15.83,11.38,26.31,11.38,2,0,3.99-.16,5.92-.47,4.69-.76,9.38-1.9,13.92-3,3.14-.76,6.39-1.55,9.46-2.16,3.9-.78,7.95-1.42,11.87-2.05l-1.38-8.66c-4,.64-8.14,1.3-12.21,2.11-3.25.65-6.6,1.46-9.83,2.25-4.37,1.06-8.9,2.16-13.24,2.87-1.47.24-2.99.36-4.51.36-7.8,0-15.31-3.16-19.6-8.25-3.37-4-4.64-9.01-3.69-14.5.1-.58.36-1.45.63-2.38.7-2.39,1.43-4.87.92-6.62-.46-1.54-1.58-2.47-3.01-2.47-1.8,0-3.53,1.55-4.92,2.79-.32.29-.69.62-.85.73-3.42,2.35-7.04,3.54-10.76,3.54-14.05,0-28.4-16.87-36.42-31.32-10.84-19.54-13.96-34.83-15.68-54.64-1.58-18.16-2.73-34.52-.86-50.71,2.75-23.81,11.68-47.41,25.82-68.27,14.01-20.67,32.55-37.79,53.6-49.5,13.3-7.4,24.35-11.92,41.44-13.14,9.3-.66,17.68-.98,25.64-.98,26.46,0,49.43,3.7,72.3,11.63,40.46,14.04,71.52,32.54,91.58,77.18l.7,1.56c3.98,8.82,8.5,18.82,7.11,28.36-.75,5.16-9.11,8.3-15.22,10.59-1.84.69-3.58,1.34-5.02,2-16.49,7.56-27.18,16.25-38.13,31-.17.23-.35.46-.54.69-1.23,1.56-3.28,4.16-1.43,7.33.15.25.34.46.58.63.93.64,1.9.97,2.88.97,2.77,0,4.51-2.46,5.91-4.44.43-.61.84-1.19,1.2-1.57,6.04-6.54,14.25-14.75,24.13-20.33,4.61-2.6,9.51-4.63,14.24-6.59,2.99-1.24,6.09-2.52,9.12-3.95,1.43-.67,2.96-1.58,4.59-2.54,3.62-2.14,7.73-4.58,11.12-4.58,1.34,0,2.47.39,3.48,1.18,4.59,3.63,1.82,9.22-2.59,16.71-1.17,1.99-2.28,3.87-3.02,5.58-.96,2.21-1.76,4.91-2.61,7.77-1.34,4.52-2.72,9.19-4.67,11.59-5.56,6.84-18.89,10.63-30.65,13.98-5.4,1.54-10.5,2.99-14.45,4.63-12.17,5.05-14.06,12.9-16.06,21.21-.77,3.19-1.56,6.48-2.95,9.95-6.1,15.27-19.22,27.43-35.11,32.52-4.26,1.37-8.53,1.97-13.86,1.97-2.5,0-4.95-.13-7.54-.26-2.64-.14-5.36-.28-8.18-.28-1.47,0-2.84.04-4.18.11-5.07.29-11.08,2.09-17.45,4-7.16,2.15-14.56,4.37-20.64,4.37-2.6,0-4.72-.4-6.5-1.22-2.7-1.24-5.06-4.02-6.16-7.25-.95-2.78-.86-5.5.26-7.65.57-1.1,1.52-1.26,2.03-1.26.7,0,1.41.28,2,.79.14.15.51.81.75,1.24.93,1.66,2.09,3.72,4.17,3.72.57,0,1.43-.18,2.26-1.01.59-.59,1.24-1.67,1-3.44-.36-2.74-2.78-6.12-4.62-7.2-.73-.43-1.6-.64-2.36-.83-.03,0-.06-.02-.09-.02.58-.66,1.16-1.33,1.74-1.98,4.67-5.32,9.07-10.34,12.59-16.72,2.7-4.91,4.54-10.42,6.32-15.75,2.75-8.21,5.34-15.97,10.79-21.61,3.28-3.39,7.38-6.87,11.73-10.56,10.97-9.29,23.4-19.83,26.6-32.82.84-3.41,1.12-6.87,1.4-10.21.28-3.43.55-6.67,1.36-9.89,3.37-13.32,10.19-22.05,18.08-32.16,1.01-1.29,2.03-2.6,3.07-3.95,1.33-1.73,2.64-3.62,3.9-5.44,1.84-2.65,3.74-5.39,5.72-7.65.49-.55,1.36-1.43,2.25-2.24-.54,2.61-1.35,5.19-2.19,7.87-.87,2.78-1.77,5.66-2.36,8.61-1.41,7.06-.58,13.11.22,18.97.59,4.34,1.15,8.43.87,12.93-.27,4.36-1.64,6.56-3.23,9.11-1.06,1.71-2.27,3.65-3.17,6.33-1.42,4.23-.96,8.43,1.26,11.53,1.92,2.67,4.96,4.19,8.35,4.19,1.93,0,3.91-.48,5.89-1.43.71-.34,4.37-2.64,4.69-5.4.13-1.11-.3-2.14-1.18-2.85-1.1-.89-2.48-.99-3.42-.99-.88,0-1.81.11-2.71.21-.84.1-1.63.19-2.31.19-.84,0-1.08-.15-1.1-.16,0,0-.06-.13-.07-.46-.03-1.58,1.5-4.07,2.86-6.26.92-1.48,1.78-2.89,2.33-4.21,3.3-7.95,1.95-15.72.64-23.24-.52-2.98-1.06-6.06-1.27-9.05-.37-5.12,1.09-9.89,2.64-14.94,1.2-3.9,2.43-7.93,2.71-12.09.24-3.57-.47-6.27-2.11-8.02-1.17-1.25-2.75-1.91-4.56-1.91-2.2,0-4.69.99-7.21,2.85-.08.06-.15.12-.21.18-7.04,6.98-14.65,15.79-22.63,26.2-8.65,11.28-14.82,25.23-16.5,37.31-.25,1.83-.39,3.59-.53,5.28-.32,4.01-.62,7.79-2.42,11.7-2.53,5.52-10.31,13.49-14.05,17.32-3.59,3.68-7.55,7.1-11.39,10.41-.77.67-1.55,1.34-2.33,2.02,1.16-3.2,2.34-6.37,3.5-9.47,8.5-22.71,16.54-44.17,10.16-70.05-7.43-30.19-27.34-46.14-57.57-46.14-2.35,0-4.79.1-7.26.29-32.78,2.55-62.78,42-71.2,54.03-2.02,2.89-3.92,5.98-5.76,8.97-2.21,3.59-4.49,7.29-6.93,10.56-.37.49-1.05,1.25-1.77,2.06-3.27,3.64-5.55,6.41-5.17,8.83.36,2.32,1.94,3.75,4.11,3.75,2.03,0,4.05-1.23,5.17-2.29,5.34-5.03,9.58-11.88,13.68-18.51,2.01-3.25,3.91-6.32,5.9-9.13,11.28-15.92,36.57-42.77,56.42-47.06,4.76-1.03,9.5-1.55,14.08-1.55,18.66,0,33.21,8.39,40.99,23.62,14.84,29.07,4.88,55.55-5.68,83.58-3.07,8.15-6.24,16.57-8.73,25.02-1.14,3.87-1.92,7.3-2.68,10.61-1.87,8.21-3.35,14.69-9.12,22.96-1.96,2.81-4.42,5.49-7.03,8.32-8.05,8.76-17.17,18.69-9.23,32.95,4.16,7.47,10.79,11.1,20.28,11.1,7.41,0,15.42-2.17,23.16-4.27,5.93-1.61,11.53-3.13,16.14-3.44.95-.06,1.92-.09,2.97-.09,2.77,0,5.62.22,8.38.44,2.83.22,5.75.45,8.66.45,2.23,0,4.23-.13,6.12-.4,2.85-.41,5.78-1.44,8.62-2.44,2.62-.92,5.09-1.79,7.06-2,.53-.06,1.16-.09,1.86-.09,6.78,0,19.14,2.67,24.04,5.19,1.77.91,3.37,2.13,5.07,3.41,1.49,1.13,3.03,2.3,4.73,3.27,1.41.81,2.81,1.35,4.17,1.88,1.18.45,2.29.88,3.3,1.45,4.19,2.33,14.76,11.55,15.76,15.29.45,1.67.34,2.97-.33,3.96-1.8,2.66-7.57,3.34-11.39,3.8l-.59.07c-3.48.42-7.03.64-10.28.64-5.42,0-10.01-.58-13.65-1.73-1.33-.42-2.72-1.06-4.19-1.74-2.03-.94-4.13-1.91-6.29-2.37-2.04-.43-4.1-.49-6.02-.49h-2.24c-.93,0-2.02,0-3.09-.1-5.59-.48-9.97-3.03-14.62-5.72-3.01-1.75-6.13-3.56-9.67-4.83-6.63-2.39-13.47-3.55-20.91-3.55-10.47,0-20.89,2.34-30.96,4.61-4.06.91-8.27,1.86-12.46,2.65-3.45.65-6.99,1.22-10.41,1.76,0,0,0,0-.01,0l1.45,8.65c3.46-.55,7.04-1.12,10.6-1.79,4.37-.82,8.63-1.78,12.75-2.71,9.6-2.16,19.54-4.4,29.04-4.4,6.41,0,12.28.99,17.94,3.03,2.79,1.01,5.44,2.54,8.25,4.17,5.03,2.92,10.72,6.22,18.26,6.87,1.41.12,2.73.14,3.87.14h2.21c1.44,0,2.95.03,4.2.29,1.18.25,2.83,1.01,4.46,1.76,1.64.76,3.34,1.55,5.2,2.13,4.49,1.42,9.97,2.14,16.29,2.14,3.6,0,7.52-.24,11.32-.7l.59-.07c5.4-.64,13.57-1.61,17.62-7.6,1.48-2.19,2.95-5.9,1.54-11.15-1.2-4.46-6.15-9.71-10.89-13.84,10.19-2.12,26.71-7.6,33.39-13.31,6.3-5.39,6.34-11.24,5.8-14.25-1.22-6.8-7.22-11.91-13.03-14.82,3.13-3.45,4.82-7.98,5.85-10.74.09-.25,9.26-25.6,4.41-36.62-.33-.76-.98-2.21-2.16-3.59,2.33-1.6,4.39-3.4,6.06-5.45,3.06-3.76,4.69-9.29,6.28-14.64.77-2.59,1.49-5.04,2.24-6.76.53-1.22,1.5-2.87,2.53-4.62,2.41-4.1,4.65-8.11,5.64-12.2,2.06-8.59-2.35-13.61-5.16-15.83ZM329.02,257.81c.38,2.09-.56,4.06-2.86,6.03-5.88,5.03-26.26,11.49-33.87,12.1-.3.02-.59.04-.89.04-4.7,0-8.75-3.03-13.05-6.24-2.75-2.05-5.59-4.17-8.69-5.52-3.19-1.38-6.38-2.07-9.46-2.74-1.12-.24-2.27-.49-3.42-.77.26-.32.7-.69,1.42-1.23.51-.38,1.03-.78,1.52-1.25,2.19-2.13,4.29-4.38,6.32-6.55,1.02-1.09,2.04-2.19,3.08-3.27,3.27-1.24,6.89-1.82,11.34-1.82,3.75,0,7.64.42,11.41.83,2.03.22,4.12.45,6.17.6.99.14,2.08.21,3.33.21,1.96,0,4.04-.18,6.05-.35,1.96-.17,3.99-.34,5.84-.34,2.12,0,3.78.23,5.06.7,4.78,1.76,9.98,5.6,10.69,9.56ZM322.25,227.65c-1.19,3.21-3.42,9.19-7.21,9.68-2.5.33-5.15.48-8.08.48-3.78,0-7.46-.25-11.36-.52-2.16-.15-4.39-.3-6.62-.41-.23-.01-.55-.02-.92-.02-.62,0-1.43.01-2.35.03-1.18.02-2.54.04-3.91.04-3.42,0-5.09-.15-5.9-.29.22-1.05.94-2.73,1.58-4.23.56-1.32,1.15-2.69,1.5-3.85.73-2.37,1.23-4.62,1.67-6.6,1.48-6.7,2.46-11.12,10.42-14.38,2.72-1.12,5.85-2.04,8.88-2.93,2.21-.65,4.49-1.32,6.63-2.07,1.77-.62,3.91-1.51,6.18-2.46,4.06-1.7,8.67-3.62,11.53-4.09.41-.07.76-.1,1.03-.1.59,0,.81,0,1.55,1.68,2.37,5.37-1.68,22.15-4.6,30.03Z"/>
    <path class="cls-1" d="M325.3,195.95c-.27,0-.62.03-1.03.1-2.86.47-7.46,2.39-11.53,4.09-2.27.95-4.41,1.84-6.18,2.46-2.14.75-4.42,1.42-6.63,2.07-3.03.89-6.16,1.81-8.88,2.93-7.96,3.26-8.94,7.69-10.42,14.38-.44,1.98-.94,4.23-1.67,6.6-.36,1.16-.94,2.53-1.5,3.85-.64,1.5-1.35,3.18-1.58,4.23.81.13,2.48.29,5.9.29,1.37,0,2.73-.02,3.91-.04.92-.02,1.73-.03,2.35-.03.38,0,.69,0,.92.02,2.23.11,4.46.26,6.62.41,3.9.27,7.59.52,11.36.52,2.93,0,5.58-.16,8.08-.48,3.79-.49,6.01-6.47,7.21-9.68,2.93-7.88,6.97-24.65,4.6-30.03-.74-1.68-.96-1.68-1.55-1.68Z"/>
    <g>
      <g>
        <path class="cls-5" d="M89.78,153.77c1.64-.15,2.79.95,4.26,1.09,1.89.19,3.56-.68,5.5-.65,5.49.09,8.64,5.42,8.83,10.44.35,9.28-11.22,21.55-20.72,17-1.57-.75-7.73-5.02-8.5-6.37-3.92-6.92,2.52-20.77,10.63-21.51Z"/>
        <path class="cls-5" d="M43.3,217c11.08-1.85,24.53,10.56,14.43,20-1.76,1.65-4.66,2.98-6.77,4.38-2.48,1.64-3.3,4.03-7.18,4.04-12.21,0-13.26-26.27-.47-28.41Z"/>
        <path class="cls-5" d="M154.78,137.94c-2.49,2.63-7.28,3.66-10.55,2-6.39-3.25-.4-11.15-1-16.36-.48-4.17-3.93-5.65-3.07-11.1,1.75-11.16,16.91-9.93,18.89,1.48.6,3.47-.26,13.97-1.12,17.54-.45,1.87-1.87,5.08-3.16,6.45Z"/>
        <path class="cls-5" d="M117.05,120.35c2.71-.13,8.2.71,10.5,2.19,6.72,4.32,3.94,19.59-3.37,21.06-2.25.45-12.77-.62-15.03-1.41-11.71-4.12-3.68-21.29,7.91-21.83Z"/>
        <path class="cls-5" d="M60.02,180.43c9.39-1.96,15.98,6.9,9.72,15.29-1.72,2.31-10.03,11.05-12.31,11.85-10.11,3.58-13.2-13.35-9.3-19.83,1.3-2.15,9.46-6.81,11.89-7.32Z"/>
        <path class="cls-5" d="M157.67,155.93c-3.42-3.79-.28-9.33,2.03-12.76,1.36-2.03,7.73-10.1,9.34-11.1,4.61-2.87,9.61-1.6,11.91,3.37,5.29,11.43-7.66,26.41-19.91,22.39-.83-.27-2.85-1.3-3.38-1.89Z"/>
        <path class="cls-5" d="M86.07,116.6c9.41-1.34,11.55,14.93,5.67,20.56-3.76,3.6-6.66,1.46-10.65,2.36-1.6.36-2.6,2.04-4.51,2.33-4.03.6-6.79-2.02-7.06-5.94-.09-1.24,1.69-12.25,2.19-13.2.46-.87,2.01-2.23,2.92-2.66.95-.45,10.34-3.29,11.44-3.45Z"/>
        <path class="cls-5" d="M137.5,145.7c6.21-.71,10.89,6.88,8.85,12.62-1.71,4.82-5.38,4.88-8.89,7.22-4.9,3.26-11.43,9.93-17.77,5.13-4.13-3.13-1.89-7.91.34-11.41,2.38-3.74,13.15-13.06,17.47-13.56Z"/>
        <path class="cls-5" d="M135.65,68.31c6.8-.73,14.31,5.85,14.94,12.6.72,7.63-6.5,18.09-14.84,15.45-4.27-1.35-2.49-6.92-3.81-10.43-1.53-4.06-6.02-5.43-4.54-10.99,1.14-4.29,4.03-6.17,8.25-6.62Z"/>
        <path class="cls-5" d="M114.6,85.05c1.22-.04,1.98-.32,3.39-.04,9.74,1.94,3.82,23.19-7.21,22.14-.94-.09-12.88-4.74-13.37-5.26-2.28-2.36-.49-4.2-.16-6.32.44-2.82-.17-5.32,2.3-7.61,2.75-2.55,11.23-2.77,15.07-2.91Z"/>
        <path class="cls-5" d="M167.86,82.52c6.73-.99,11.71,9.83,12.89,15.32,1.1,5.11,1.17,16.72-5.64,17.97-10.67,1.97-7.11-10.47-8.46-15.03-.3-1.02-2.97-3.07-3.84-4.83-2.62-5.3-1.6-12.45,5.06-13.43Z"/>
        <path class="cls-5" d="M76.77,232.45c3.85-.52,12.3,5.1,13.04,9.03,1.13,5.97-4.98,7.74-8.51,10.43-3.51,2.68-5,6.14-10.36,6.41-8.32.43-8.1-7.49-5.95-13.43,1.19-3.27,8.11-11.95,11.77-12.45Z"/>
        <path class="cls-5" d="M134.38,203.98c12.21-2.55,15.04,12.22,3.7,16.71-5.35,2.12-7.17-.05-11.8.11-4.5.15-13.82,4.92-13.27-4.73.54-9.38,6.26-6.29,11.79-7.42,2.77-.57,6.79-4.09,9.57-4.68Z"/>
        <path class="cls-5" d="M154.24,170.55c3.12-.36,6.18-.16,7.83,2.97,1.25,2.37,1.39,11.05.84,13.75-2.35,11.55-23.52,10.29-20.78-2.82.2-.93,4.16-9.18,4.81-10.06,1.74-2.36,4.48-3.51,7.31-3.84Z"/>
        <path class="cls-5" d="M120.12,181.04c11.45-2.58,21.55,6.85,11.35,16.3-9.63,8.92-24.33,3.71-17.48-9.42.92-1.77,4.32-6.47,6.13-6.88Z"/>
        <path class="cls-5" d="M61.26,150.04c7.14-.98,6.31,9.83,3.78,14.34-4.07,7.24-9.54,9.25-16.59,4.42-4.28-2.93-3.43-9.79-.55-13.51s4.78-1.58,8.12-2.41c1.35-.34,3.57-2.6,5.24-2.83Z"/>
        <path class="cls-5" d="M108.96,230.61c13.22-3.02,15.88,18.51,3,22.2-3.63,1.04-8.86,1.14-9.6-3.47-.68-4.3,1.46-17.56,6.6-18.73Z"/>
        <path class="cls-5" d="M33.37,171.13c7.37-1.7,14.17,8.32,7.31,12.89-1.72,1.15-3.99,1.07-5.6,2.46-2.89,2.49-2.74,8.43-8.53,6.7-4.64-1.39-4.71-14.11-1.64-16.88,1.16-1.04,3.04-1.17,4.25-1.94,1.48-.94,2.22-2.77,4.21-3.22Z"/>
        <path class="cls-5" d="M97.16,203.42c7.79,7.72-4.5,22.67-13.12,15.29-8.82-7.54,4.01-24.32,13.12-15.29Z"/>
        <path class="cls-5" d="M133.76,229.36c8.69-1.93,8.01,10.59.43,11.02-5.43.31-6.68-9.64-.43-11.02Z"/>
        <path class="cls-5" d="M277.99,62.19c4-.1,11.17,5.24,11.3,9.46.21,6.59-9.94-1.52-11.61-3.83-.82-1.13-1.55-2.36-1.86-3.74,0-1.06,1.24-1.87,2.17-1.89Z"/>
        <path class="cls-5" d="M265.82,55.03c-1.67,2.65-16.72-3.49-13.59-8.15,2.15-3.2,16.75,3.12,13.59,8.15Z"/>
        <path class="cls-5" d="M154.54,25.84c-1.56-1.56.04-4.39,2.02-4.78,2.4-.48,11.67.65,12.11,3.41.97,6.14-11.36,4.15-14.12,1.37Z"/>
        <path class="cls-5" d="M236.07,69.28c-3.29,2.07-14-4.01-10.91-9.05,3.12-2.71,10.99,2.92,11.53,5.88.13.74-.15,2.87-.62,3.17Z"/>
        <path class="cls-5" d="M170.93,39.76c2.74-.8,13.31-.03,11.89,4.42-3.76,3.26-12.12,3.68-14.1-1.87-.08-.9,1.42-2.32,2.21-2.55Z"/>
        <path class="cls-5" d="M141.22,39.79c8.76-1.06,11.44,4.66,2.51,6.85-9.31,2.28-11.02-5.82-2.51-6.85Z"/>
        <path class="cls-5" d="M190.14,26.73c1.95-.55,10.67.43,11.65,2.36,2.19,4.27-7.78,4.72-10.26,4.05-3.69-.99-5.18-5.33-1.39-6.41Z"/>
        <path class="cls-5" d="M56.32,68.28c2.8,2.78-3.89,13.27-8.27,9.82-3.25-2.56,4.17-13.91,8.27-9.82Z"/>
        <path class="cls-5" d="M102.16,51.56c1.19-.2,4.14-.56,4.86.43,2.58,6.19-13.58,10.93-12.67,4.83.34-2.27,5.66-4.9,7.81-5.26Z"/>
        <path class="cls-5" d="M71.5,76.04c-4.62-4.6,11.32-14.01,10.21-4.57-.38,3.27-7.72,7.05-10.21,4.57Z"/>
        <path class="cls-5" d="M226.7,34.19c2.11-.46,6.78.46,8.47,1.79,4.03,3.18-3.29,8.23-8.52,4.81-2.6-1.7-3.62-5.79.06-6.6Z"/>
        <path class="cls-5" d="M76.74,44.11c4.95-1.46,5.76,1.78,2.65,5.13-.39.42-4.32,3.9-4.61,4.07-2.78,1.67-5.43-1.23-4.58-3.94.18-.59,5.91-5.07,6.54-5.25Z"/>
        <path class="cls-5" d="M133.16,27.09c-1.31,1.22-13.25,3.46-13.26-.78-.02-4.95,18.64-4.23,13.26.78Z"/>
        <path class="cls-5" d="M93.12,37.07c-2.22-3.51,8.01-7.65,10.3-7.85,2.33-.21,4.43,1.48,2.34,3.62-1.38,1.42-11.2,6.51-12.64,4.23Z"/>
        <path class="cls-5" d="M44.53,106.04c7.25-2.14,4.02,12.44-2.53,10.37-2.4-.76-.94-9.35,2.53-10.37Z"/>
        <path class="cls-5" d="M201.26,45.9c2.61-.07,11.79,1.52,9.85,5.5-2.06,4.22-14.3-.68-9.85-5.5Z"/>
      </g>
      <g>
        <path class="cls-5" d="M240.35,167.43c4.3,4.16-9.59,5.61-11.75,6.21-12.76,3.55-25.6,7.51-35.81,16.24-16.92,14.47-18.35,43.09-36.52,56.42-.85.62-1.25,1.17-2.5.9,2.9-7.7,9.7-13.06,13.35-20.42,6.72-13.54,6.28-27.44,18.24-38.76,12.04-11.38,27.16-16.95,43.27-19.93,2.31-.43,10.31-2.03,11.73-.66Z"/>
        <path class="cls-5" d="M220.68,159.22c-1.07-4.18,2.48-8.12,3.02-12.77,1.18-10.07-.43-17.65,3.67-27.93s20.6-30.96,28.3-39.24c4.41-4.74,5.89-3.64,2.68,2.06-8.93,15.8-28.46,34.85-30.16,53.49-.5,5.48.49,10.88-.98,16.37-.77,2.86-3.11,8.09-6.53,8.03Z"/>
        <path class="cls-5" d="M345.22,147.44l-.31-5.58c-2.13-4.36-13.86,3.97-17.05,5.26-22.37,9.02-31.08,9.27-47.69,29.15-1.68,2.01-3.09,6.27-5.89,6.42-2.63.14-2.7-2.15-1.84-4.24,2.01-4.88,14.96-16.62,19.55-20.1,10.34-7.87,17.26-8.94,28.61-13.52,4.67-1.89,15.96-8.35,20.03-8.47,2.31-.07,6.25,1.81,6.94,4.09.54,1.78.27,6.97-2.35,7Z"/>
        <path class="cls-5" d="M277.07,280.67c10.52,2.33,10.51,8.54,3.1,15.18-8.06,7.23-16.72,11.6-27.26,6.19-.02-1.4,5.79-.84,7.04-1.01,6.19-.84,20.95-7.69,20.27-15.11-.3-3.21-3.46-2.15-3.15-5.26Z"/>
      </g>
      <path class="cls-5" d="M298.75,275.09c-.44-2.86,3.65-3.04,5.78-4.44,6.7-4.4,5.87-11.99,1.02-17.54-2.71-3.11-5.34-3.03-8.65-4.97-.05-2.02,7.96-.27,9.11.17,5.66,2.23,8.77,10.94,8.23,16.55-.64,6.67-9.54,10.12-15.49,10.22Z"/>
    </g>
    <path class="cls-6" d="M237.17,226.18c4.06,1.15,1.05,5.82-.68,8.03-6.59,8.46-24.3,12.62-33.82,7.77-1.61-.82-6.93-5.87-3.36-6.55.57-.11,6.75,3.93,9.34,4.29,8.19,1.12,20.13-1.86,25.31-8.66,1.16-1.52,1.36-3.8,3.21-4.88Z"/>
    <path class="cls-6" d="M193.41,264.56v-1.85c10.64-4.02,21.83-1.46,32.53-2.49,14.3-1.39,24.92-11.95,35.94-19.83.23,2.84-3.33,7.07-5.26,8.99-5.35,5.33-24,15.18-31.29,15.18h-31.91Z"/>
  </g>
</svg>