<?xml version="1.0" encoding="UTF-8"?>
<svg id="Lightest_Bushes" data-name="Lightest Bushes" xmlns="http://www.w3.org/2000/svg" viewBox="0 0 708.1 63.44">
  <defs>
    <style>
      .cls-1 {
        fill: #8d8e46;
      }

      .cls-2 {
        fill: #949550;
      }

      .cls-3 {
        fill: #9d9e58;
      }
    </style>
  </defs>
  <g>
    <path class="cls-2" d="M603.07,6.47c3.83-.24,7.3-2.32,11.04-3.03,9.54-1.82,19.15-2.12,28.84-1.96,3.24.05,6.48.19,9.72.19,3.78.06,7.57.08,11.35-.03,9.66-.3,19.36-1.55,28.95-.36,3.18.39,6.41,1.08,9.15,2.75,2.74,1.67,4.96,4.45,5.26,7.65.29,3.1-1.25,6.14-3.42,8.37-3.77,3.87-9.19,5.59-14.45,6.81-29.59,6.88-60.9,2.52-90.51,9.29-8.92,2.04-18.07,5.09-27.02,3.18-8.95-1.91-16.16-8.48-24.74-11.65-5.09-1.88-10.55-2.51-15.97-2.71-3.56-.13-7.47-.2-10.16-2.55-3.08-2.68-3.33-7.68-1.3-11.23,2.02-3.54,5.82-5.76,9.74-6.9,1.3-.38,2.62-.65,3.96-.84,8.04-1.13,16.11.86,24,2.15,5.13.84,10.82,1.87,15.97.68,4.02-.93,7.91-2.59,12.02-2.85,3.06-.2,6.11.4,9.04,1.25,2.87.83,5.46,1.99,8.52,1.8Z"/>
    <path class="cls-2" d="M4.97,29.01c16.25-2.81,32.74-5.64,49.15-4.01,14.19,1.41,28.11,6.12,42.34,5.36,7.79-.42,15.38-2.47,23.07-3.75,11.78-1.97,23.86-2.12,35.69-.47,13.13,1.84,26.02,5.9,39.27,5.85,15.45-.06,30.6-5.74,46.02-4.7,17.08,1.15,32.43,10.33,47.03,19.27,1.55.95,3.31,2.28,3.17,4.1-.1,1.18-1,2.12-1.88,2.92-7.61,6.93-18.18,11.66-28.18,9.22-3.53-.86-6.8-2.56-10.26-3.65-12.97-4.06-27.27.8-40.54-2.16-4.87-1.09-9.46-3.2-14.31-4.42-18.14-4.58-36.73,3.72-55.27,6.2-16.74,2.24-33.71-.33-50.4-2.88-10.99-1.68-21.98-3.37-32.97-5.05-5.89-.9-11.91-1.85-17.12-4.75-2.59-1.44-4.93-3.35-7.67-4.48-8.88-3.67-19.89,1.48-28.33-3.11-2.62-1.42-4.78-5.11-2.65-7.19.63-.62,1.51-.91,2.35-1.17,6-1.86,12.21-3.05,18.47-3.54l-16.97,2.43Z"/>
  </g>
  <g>
    <path class="cls-1" d="M216.22,30.12l-.41,1.87c-2.18.29-4.25,1.15-6.39,1.56-25.9,4.99-43.64-4.31-67.98-5.32-13.69-.57-25.7,2.89-38.8,4.1-1.14.11-1.62.68-2.5-.66.04-1.13,9.46-2.9,11.05-3.22,14.52-2.92,29.68-4.22,44.43-2.6,10.73,1.17,22.03,5.3,32.37,6.12,9.33.74,19.06-.39,28.24-1.85Z"/>
    <path class="cls-1" d="M20.65,40.06c.27,1.61-.24,1.11-1.34,1.42-5.09,1.4-20.6-1.1-18.4-8.43.98-3.25,12.74-6.31,16-6.98,14.27-2.96,29.9-2.57,44.23-.11,1.66.29,10.98,1.88,11.03,3.23-.88,1.25-2.1.98-3.38.94-7.96-.28-17.07-2.79-25.44-3.14-9.27-.39-28.29.54-36.16,5.5-2.48,1.56-3.56,2.55-.79,4.76,3.81,3.03,9.64,2.97,14.25,2.82Z"/>
    <path class="cls-1" d="M614.81,5.28c-.28-1.64.27-1.1,1.34-1.42,1.7-.51,4.6-.97,6.39-1.09,16.79-1.11,34.11-1.24,50.91-1.86,9.22-.34,37.01-1.96,34.48,13.38-.82,4.97-2.34-3.61-2.63-4.21-1.73-3.66-7.7-4.93-11.35-5.41-6.53-.86-12.41,0-18.59.02-20.27.04-40.41-1.06-60.56.59Z"/>
    <path class="cls-1" d="M599.91,6.53c.04,1.13.31,1.3-.92,1.24-3.19-.15-6.98-1.99-10.53-1.89-6.99.21-16.8,6.22-24.89,4.39l-22.01-5.3c.8-1.19,1.5-.93,2.7-.88,9.25.4,16.93,3.86,26.8,3.07,6.83-.54,11.98-3.74,19.25-3.15,3.61.3,6.16,2,9.6,2.51Z"/>
    <path class="cls-1" d="M88.94,35.71c.09,1.45.21,1.1-.92,1.24-5.42.69-13.56-.55-19.08-1.42-11.96-1.89-21.06-5.32-33.73-4.81-1.3.05-5.3,1.7-5.25-.28,1.4-2.71,14.04-1.84,17.06-1.56,13.81,1.31,27.81,6.5,41.91,6.83Z"/>
    <path class="cls-1" d="M538.44,6.53c.58.66-4.68,14.96-7.44,15.52l5.54-14.01,1.9-1.51Z"/>
    <path class="cls-1" d="M539.99,10.26c1.37.97.78,1.14.44,2.28-.68,2.29-2.08,5.09-3.54,7.01-1.5-1.05-.48-1.08-.2-2.04.33-1.12,2.61-7.21,3.31-7.24Z"/>
  </g>
  <path class="cls-3" d="M215.52,29.43l-.41,1.87c-2.18.29-4.25,1.15-6.39,1.56-25.9,4.99-43.64-4.31-67.98-5.32-13.69-.57-25.7,2.89-38.8,4.1-1.14.11-1.62.68-2.5-.66.04-1.13,9.46-2.9,11.05-3.22,14.52-2.92,29.68-4.22,44.43-2.6,10.73,1.17,22.03,5.3,32.37,6.12,9.33.74,19.06-.39,28.24-1.85Z"/>
  <path class="cls-3" d="M19.95,39.36c.27,1.61-.24,1.11-1.34,1.42-5.09,1.4-20.6-1.1-18.4-8.43.98-3.25,12.74-6.31,16-6.98,14.27-2.96,29.9-2.57,44.23-.11,1.66.29,10.98,1.88,11.03,3.23-.88,1.25-2.1.98-3.38.94-7.96-.28-17.07-2.79-25.44-3.14-9.27-.39-28.29.54-36.16,5.5-2.48,1.56-3.56,2.55-.79,4.76,3.81,3.03,9.64,2.97,14.25,2.82Z"/>
  <path class="cls-3" d="M614.12,4.59c-.28-1.64.27-1.1,1.34-1.42,1.7-.51,4.6-.97,6.39-1.09,16.79-1.11,34.11-1.24,50.91-1.86,9.22-.34,37.01-1.96,34.48,13.38-.82,4.97-2.34-3.61-2.63-4.21-1.73-3.66-7.7-4.93-11.35-5.41-6.53-.86-12.41,0-18.59.02-20.27.04-40.41-1.06-60.56.59Z"/>
  <path class="cls-1" d="M115.57,59.22c-7.08-.33-14.28-1.04-21.34-1.94-12.07-1.53-47.03-4.95-55.48-11.58-.75-.59-1.69-.72-1.41-2,15.38,6.35,32.23,6.87,48.54,9.51,9.1,1.47,18.45,3.05,27.51,4.78.91.17,1.93,0,2.18,1.23Z"/>
  <path class="cls-1" d="M208.69,56.73c-8.51-1.41-16.27-5.33-25.17-4.98-6.33.24-40.53,8.93-43.12,6.85-.31-1.89,4.11-2.48,5.56-2.81,12.8-2.91,34.78-7.32,47.23-4.97,4.83.91,11.69,2.84,15.5,5.91Z"/>
  <path class="cls-1" d="M176.41,46.19c.3,1.62-.31,1.09-1.23,1.52-9.77,4.56-40.44,8.7-51.21,7.77-1.27-.11-8.41-1.22-5.14-2.63,2.65-1.14,5.88.27,8.88.19,8.91-.21,19.52-1.91,28.43-3.24,6.79-1.02,13.48-2.7,20.28-3.62Z"/>
  <path class="cls-3" d="M599.21,5.84c.04,1.13.31,1.3-.92,1.24-3.19-.15-6.98-1.99-10.53-1.89-6.99.21-16.8,6.22-24.89,4.39l-22.01-5.3c.8-1.19,1.5-.93,2.7-.88,9.25.4,16.93,3.86,26.8,3.07,6.83-.54,11.98-3.74,19.25-3.15,3.61.3,6.16,2,9.6,2.51Z"/>
  <path class="cls-1" d="M613.49,33.76c-13.95,1.75-26.75,8.81-41.01,5.94-7.06-1.42-19.01-8.03-25.44-11.84-.8-.47-1.57.11-1.22-1.54,11.46,3.24,20.82,10.88,33.22,11.78,10.31.75,19.28-3.68,29.26-4.87,1.36-.16,4.69-1.06,5.19.52Z"/>
  <path class="cls-1" d="M699.79,21.98c1.15.95-2.96,2.44-3.3,2.59-19.45,8.42-43.03,5.42-63.74,7.33-.31-1.88.47-.99,1.51-1.25,17.17-4.31,37.31-1.13,55.87-5.62,1.63-.39,9.27-3.38,9.66-3.06Z"/>
  <path class="cls-3" d="M88.25,35.01c.09,1.45.21,1.1-.92,1.24-5.42.69-13.56-.55-19.08-1.42-11.96-1.89-21.06-5.32-33.73-4.81-1.3.05-5.3,1.7-5.25-.28,1.4-2.71,14.04-1.84,17.06-1.56,13.81,1.31,27.81,6.5,41.91,6.83Z"/>
  <path class="cls-1" d="M683.65,7.69c-.26-1.62.24-1.11,1.34-1.42,4.43-1.22,16.06-.27,18.38,4.36,3.35,6.7-7.41,11.32-12.57,11.36-1.28,0-1.82.36-1.57-1.26,3.95-.19,16.23-6.31,10.54-10.86-.91-.73-6.1-2.18-7.13-2.18h-9Z"/>
  <path class="cls-1" d="M594.24,31.91c.34,1.65-.42,1.07-1.22,1.54-8.91,5.26-21.47,2.6-30-2.29-.55-.99-3.96-1.4-3.53-2.66.51-1.49,1.39-.42,2.04-.2,11.24,3.8,20.33,8.57,32.72,3.61Z"/>
  <path class="cls-1" d="M239.11,54.25c-1.39,1.25-7.68-5.38-8.67-6.53-3.41-4-7.3-10.02-8.08-15.19l16.75,21.73Z"/>
  <path class="cls-1" d="M658.81,25.69c2.12-2.32,7.09-1,10.24-1.24,5.32-.41,10.66-1.6,15.95-2.06.52-.05,2.4-.7,2.36.52-.09,2.51-25.66,4.52-28.55,2.79Z"/>
  <path class="cls-1" d="M231.66,54.88c-1.63,1.62-10.07-9.57-8.69-11.17,1.31-.18,2.02,1.06,2.74,1.91.93,1.12,6.77,8.44,5.95,9.26Z"/>
  <path class="cls-3" d="M537.74,5.83c.58.66-4.68,14.96-7.44,15.52l5.54-14.01,1.9-1.51Z"/>
  <path class="cls-3" d="M539.3,9.57c1.37.97.78,1.14.44,2.28-.68,2.29-2.08,5.09-3.54,7.01-1.5-1.05-.48-1.08-.2-2.04.33-1.12,2.61-7.21,3.31-7.24Z"/>
</svg>