<?xml version="1.0" encoding="UTF-8"?>
<svg id="Layer_11" data-name="Layer 11" xmlns="http://www.w3.org/2000/svg" viewBox="0 0 232.59 228.83">
  <defs>
    <style>
      .cls-1 {
        fill: #737438;
      }
    </style>
  </defs>
  <path class="cls-1" d="M231.71,126.54c-1.26-1.4-3.58-1.32-5.2-.35-1.62.96-2.71,2.58-3.8,4.11s-2.32,3.09-4.05,3.83c.29-2.91.52-5.64.38-8.54-.14-1.29-.29-2.58-.74-3.82-.91-2.51-3.83-5.13-6.1-6.35-.78-.42-1.63-.73-2.37-1.22-3.89-2.56-4.74-8.26-7.27-11.88-1.79-2.57-3.83-4.84-5.99-7.09-2.06-1.23-4.09-2.51-6.02-3.97-2.62-1.98-5.26-3.61-8.03-4.98-.49.03-.95.15-1.33.44-.2.15-.35.33-.47.53-.1,5.36,3,9.91,7.72,12.88,4.23,2.66,8.12,5.17,9.64,10.19.88,2.88-3.01,4.28-4.58,2.3-.49-.47-.98-.94-1.48-1.42l-.08-.09-.18-.15c-1.22-1.15-2.49-2.29-3.81-3.3-.72-.63-1.45-1.25-2.18-1.87-3.32-2.15-6.47-4.39-8.27-8.17-.28-.58-.52-1.17-.72-1.77l-.16-.26c-.02-.09-.04-.18-.06-.27-.03-.18-.08-.37-.12-.55-.13-.46-.23-.93-.33-1.41-.19-.62-.37-1.25-.53-1.89-.2-.77-.39-1.54-.55-2.33-1.09-4.45-1.89-8.95-1.85-13.42.07-.92.05-1.97.28-2.73.17-.57.31-1.14.43-1.71.08-.59.32-1.04.43-1.57.1-.52.36-1.03.54-1.55.17-.53.4-1.05.66-1.57.17-.38.37-.73.58-1.08.24-.33.48-.67.73-1.01,1.23-1.76,2.85-3.26,4.11-5.11.17-.24.49-.53.74-.79,2.61-2.6,5.28-5.18,7.81-7.95.35-.38.75-.75,1.13-1.13,1.3-1.28,2.6-2.56,3.88-3.88.48-.5,1-.94,1.48-1.45l1.21-1.22c.55-.58,1.22-1.32,1.81-1.99.45-.49.88-1.05,1.11-1.48.25-.44.41-.78.55-1.16.3-.74.15-1.84-.15-2.8-.77-.31-1.35-.44-2.18-.6-1.02-.1-2.4.13-3.68.31l-3.04.46c-1.65.24-3.29.47-4.93.68-.37.04-.74.04-1.1.09-2,.3-3.96.47-5.89.5-.96.02-1.92,0-2.85-.05-.47-.02-.93-.06-1.39-.1-.23-.02-.45-.05-.68-.08l-.34-.04-.09-.03c-.16-.05-.23-.1-.32-.15,0-.11.05-.24.07-.32v-.03s.01-.24.01-.24v-.54s0-1.08,0-1.08l-.03-2.15c-.05-2.25-.21-4.61-.47-6.74-.47-3.86-.51-7.81-.7-11.73l-.17-3.41-.18-4.49-.05-1.91c-.02-.29.01-.71-.04-.9l-.21-.5c-.27-.67-.56-1.33-.86-1.98-.06-.09-.06-.22-.17-.28l-.44-.13c-.29-.07-.62-.16-.76-.09l-1.09.2c-.46.41-.95.9-1.42,1.34l-.35.34-.36.45-.72.89c-.5.61-1,1.25-1.47,1.94-.37.52-.73,1.03-1.09,1.54-2.77,3.77-4.98,7.8-7.41,11.54-.76,1.18-1.55,2.31-2.38,3.4-.44.51-.84,1.07-1.31,1.54l-.68.72c-.16.15-.36.31-.59.46-.47.31-1.05.58-1.67.82-.31.12-.63.23-.96.34l-.25.08-.18.05-.15.03s-.9-.13-1.51-.17c-.67-.04-1.36-.05-2.06-.02-3.25.21-6.47,1.12-9.21,2.64-2.32,1.26-4.4,2.76-6.35,4.5-1.51,1.36-2.87,2.9-4.03,4.58-.09.14-.21.28-.27.4-1.62,3.22-3.25,6.27-4,9.73-.59,2.75-.97,5.57-.58,8.41.06.5.12,1.02.19,1.55.06.53.11,1.07.23,1.59.6,3.11,1.7,6.27,3.58,8.86,1.97,2.68,4.17,5.1,6.89,6.92.33.24.7.53,1,.66,3.56,1.63,7.2,3.08,11.04,3.73.52.09.47.07.67.17l.53.23.26.12.09.05c.11.08.28.09.33.22.06.13.1.26.11.39l.02.22.03.38c-.03.3-.02.59-.06.9-.08.63-.22,1.28-.39,1.94-.19.71-.36,1.48-.59,2.23-.79,2.54-2.03,5-3.34,7.41-.8,1.47-1.53,3-2.37,4.47-.89,1.52-1.8,3.08-2.67,4.56-1.29,2.18-2.72,4.28-4.06,6.42-.36.57-.73,1.26-1.1,1.69-.88,1.03-1.42,2.71-2.44,3.56-.14.11-.3.19-.46.26-1.76.79-3.43.65-5.29.47-1.94-.19-3.92-.29-5.87-.21-2.53,0-5,.01-7.33.27-.33.04-.75.04-1.12.02-4.24-.15-8.53-.19-12.86-.19-1.62,0-2.96.32-4.55-.21-.87-.29-1.73-.61-2.58-.97-.26-.11-.52-.22-.75-.39-.95-.7-1.57-2.27-2.21-3.27-.94-1.46-1.91-2.92-2.79-4.42-.81-1.39-1.66-2.84-2.49-4.27-.79-1.37-1.47-2.81-2.22-4.18-1.23-2.26-2.38-4.55-3.12-6.93-.21-.7-.37-1.42-.55-2.09-.16-.62-.29-1.23-.37-1.82-.04-.29-.03-.56-.06-.84l.02-.36.02-.2c.02-.12.05-.25.11-.37.05-.12.21-.13.31-.2l.09-.04.25-.11.5-.22c.19-.09.14-.07.63-.15,3.59-.6,7-1.97,10.33-3.49.28-.13.63-.4.94-.62,2.54-1.7,4.6-3.96,6.44-6.47,1.76-2.42,2.79-5.38,3.35-8.29.11-.49.16-.99.22-1.49.06-.5.12-.98.17-1.45.36-2.65,0-5.29-.55-7.86-.7-3.23-2.22-6.08-3.74-9.1-.05-.11-.17-.25-.25-.38-1.08-1.57-2.35-3.01-3.77-4.29-1.82-1.63-3.77-3.04-5.94-4.21-2.56-1.42-5.58-2.27-8.61-2.47-.65-.04-1.29-.03-1.92.01-.57.03-1.45.14-1.41.16l-.14-.03-.17-.05-.23-.08c-.3-.1-.61-.21-.9-.32-.58-.22-1.12-.48-1.56-.77-.21-.14-.4-.29-.55-.43l-.63-.67c-.44-.44-.82-.96-1.23-1.44-.78-1.02-1.52-2.07-2.23-3.18-2.28-3.5-4.34-7.26-6.93-10.79-.34-.47-.68-.96-1.02-1.44-.45-.64-.91-1.24-1.38-1.81l-.67-.83-.34-.42-.33-.32c-.44-.42-.89-.87-1.33-1.26l-1.02-.19c-.13-.06-.44.02-.71.08l-.41.12c-.11.06-.1.18-.16.26-.28.6-.55,1.22-.8,1.85l-.19.47c-.05.18-.02.57-.04.85l-.05,1.79-.17,4.2-.16,3.19c-.18,3.67-.21,7.37-.65,10.97-.24,1.99-.39,4.2-.44,6.3l-.03,2.01v1.01s0,.5,0,.5v.22s.01.03.01.03c.02.08.06.19.06.3-.08.05-.14.1-.29.14l-.08.02-.32.04c-.21.02-.42.06-.64.07-.43.04-.86.07-1.3.09-.88.05-1.77.06-2.67.04-1.8-.03-3.64-.18-5.51-.47-.33-.05-.69-.05-1.03-.09-1.53-.19-3.07-.41-4.61-.64l-2.84-.43c-1.2-.17-2.48-.38-3.44-.29-.78.16-1.32.28-2.04.57-.28.9-.42,1.92-.14,2.62.12.36.27.68.51,1.09.22.4.62.93,1.04,1.39.55.63,1.18,1.31,1.69,1.86l1.13,1.14c.45.47.93.89,1.38,1.35,1.2,1.23,2.42,2.43,3.63,3.63.36.35.73.7,1.06,1.06,2.37,2.6,4.86,5,7.3,7.44.24.24.54.51.69.73,1.18,1.73,2.7,3.14,3.85,4.78.23.32.45.63.68.94.2.32.38.66.54,1.01.24.49.46.98.61,1.47.16.49.41.97.5,1.45.11.5.33.92.4,1.47.11.53.24,1.06.4,1.59.22.71.2,1.69.27,2.55,0,.17,0,.34-.01.51l.04.19c.14.9.14,1.83.1,2.74-.08,1.88-.33,3.77-.56,5.64-.14,1.14-.3,2.27-.48,3.41-.08.99-.2,1.97-.37,2.95-.24,1.43-.59,2.85-1.06,4.22-.07.3-.14.61-.21.91-.05.19-.16.32-.28.4l-.05.12-.07.16c-.21.72-.52,1.41-.97,2.03-.9,1.25-2.1,2.1-3.51,2.69l-.08.03c-.83.45-1.74.75-2.69.84-2.29.96-4.73,1.46-7.11,2.16-1.85.54-3.54,1.46-5.37,2-1.21.72-2.37,1.53-3.44,2.52-2.56,2.35-6.39-1.46-3.82-3.82,3.46-3.18,7.55-4.87,11.67-6.98,1.25-.64,2.45-1.24,3.64-1.79.33-.19.66-.38,1.01-.53.67-.29,1.35-.56,2.01-.9.31-.16.61-.34.91-.54l.07-.04.06-.06c.09-.09.19-.18.29-.27.11-.11.21-.24.33-.36l.02-.03c.06-.1.12-.2.18-.3.08-.4.15-.81.18-1.23.09-1.21.01-2.42-.32-3.59-.08-.3-.17-.83-.46-1.03-.33-.22-.89-.03-1.25.05-1.86.42-3.76.93-5.42,1.88-1.84,1.05-3.46,2.38-5.39,3.29-.32.15-.65.29-.98.43-.19.15-.38.29-.54.4-.19.13-.46.26-.75.38-.59.25-1.27.46-2,.74-.36.14-.79.33-1.1.5-.4.21-.6.31-1,.51-.2.1-.3.15-.5.26-.2.11-.29.17-.49.28-.39.22-.58.34-.97.56-.33.18-.64.39-.96.59-.38.24-.57.36-.94.6-1.73,1.17-3.4,2.44-4.94,3.79-.99.87-1.95,1.78-2.87,2.65-6.17,5.84-2.16,19.78-.52,26.82.17.71.39,1.57.5,2.15.88,4.45,2.49,8.79,4.24,12.88.34.8.68,1.61,1.04,2.39.36.77.76,1.56,1.11,2.36.04.09.08.17.12.26.17.24.33.49.49.75.53.89.99,1.83,1.45,2.77.17.29.34.58.47.9.14.33-.15.73-.47.82-.01,0-.02,0-.03,0-.02.02-.04.04-.06.06-.08.05-.16.07-.25.08-.09.02-.18.02-.27-.01-.09-.02-.17-.06-.25-.1-.03-.02-.06-.03-.09-.05-.07-.05-.15-.1-.21-.17s-.12-.14-.17-.21c-.02-.03-.04-.06-.06-.1-.03-.06-.05-.12-.08-.19-2.71-3.73-5.38-7.56-7.38-11.72-.19-.25-.4-.49-.65-.72-.31-.29-.69-.55-1.13-.72-.44-.17-.93-.24-1.39-.2-.47.04-.88.15-1.3.36-.42.21-.83.57-1.09,1.01-.26.44-.37.91-.41,1.33-.04.43-.02.84.03,1.22.05.39.12.76.19,1.11.08.35.15.69.24,1.05.18.7.34,1.41.58,2.09.13.41.2.62.33,1.03.12.34.26.67.39,1.01,1.05,2.68,2.5,5.22,4.21,7.53,1.38,1.86,3.07,3.67,4.69,5.04,1.52,1.28,3.04,2.44,4.6,3.44.19.12.39.26.58.38.24.14.36.21.6.36.4.23.79.49,1.2.7.49.26.74.39,1.23.65.41.22.83.42,1.25.61,1.46.67,3.03,1.22,4.59,1.62,1.63.42,3.4.5,4.87,1.41.58.36,1.08.83,1.58,1.3,1.98,1.86,3.85,3.94,6.15,5.39.09.06.19.12.28.17.27.3.57.57.81.87.29.37.54.81.75,1.24.21.43.38.88.53,1.34.03.17.06.35.09.53.04.18.08.39.13.55.09.35.17.71.28,1.06.06.21.09.32.15.53.07.21.1.31.17.52.11.35.24.69.36,1.03.73,1.97,1.74,3.87,3.06,5.56.66.85,1.43,1.65,2.29,2.35.22.17.44.35.67.51.29.19.43.28.71.46.24.15.51.27.76.41.24.13.56.26.84.36.58.2,1.18.33,1.82.38.63.04,1.33,0,2.04-.24.71-.23,1.47-.8,1.89-1.52.56-.98.74-2.2.34-3.28-.12-.33-.17-.79.32-.52.94.52,1.89,1.06,2.84,1.54,1.85.93,3.49,1.43,4.79,3.23,1.13,1.55,1.83,3.37,2.97,4.91.17.24.25.36.42.6.29.39.55.8.86,1.18.36.46.55.69.91,1.14.18.23.27.34.46.57.19.22.29.33.48.55.39.44.58.66.97,1.09.1.11.15.16.24.27.1.1.15.16.25.26.2.21.31.31.51.52.41.42.61.63,1.02,1.04.43.4.64.6,1.07.99,2.86,2.64,6.16,5.01,9.36,6.91,2.36,1.4,4.85,2.53,7.38,3.44,2.53.91,5.19,1.51,7.89,1.87.3.04.45.05.75.09.15.02.22.03.37.05l.19.02.2.02c.61.04,1.25,0,1.88-.2.63-.19,1.28-.56,1.77-1.13.5-.57.76-1.34.81-2.02.01-.17.02-.34,0-.51,0-.1,0-.15-.01-.25l-.04-.27c-.03-.18-.07-.37-.14-.55-.07-.17-.13-.36-.23-.51-.37-.65-.88-1.11-1.37-1.44-.98-.66-1.98-1-2.87-1.35-.22-.09-.44-.17-.64-.25-.21-.09-.36-.16-.59-.27-.42-.22-.85-.43-1.27-.65-.84-.44-1.68-.9-2.5-1.37-1.65-.94-3.26-1.96-4.82-3.03-1.34-.92-2.8-1.91-4.12-2.94-.98-.6-1.93-1.24-2.87-1.92-.14-.1-.29-.2-.44-.31-.05-.04-.1-.09-.14-.14-.03-.02-.06-.05-.07-.06-.22-.16-.44-.31-.68-.44-.33-.18-.4-.6-.24-.91.17-.33.61-.4.91-.24.1.05.19.12.28.18.01,0,.02,0,.04.01.42.26.86.51,1.29.76.36.14.71.29,1.07.43.35.14.71.29,1.06.43.18.07.36.14.58.22.22.07.33.11.54.18,2.89.99,5.83,1.79,8.71,2.39.53.11,1.17.26,1.76.39,2.7.58,5.45,1.02,8.19,1.32,2.74.3,5.5.45,8.24.5,2.74.04,5.5-.07,8.19-.24.67-.04,1.35-.1,2.03-.17,1.71-.16,3.43-.71,5.14-.5,1.95.23,3.59,1.38,5.3,2.25,1.89.96,4.07,1.54,6.13,2.01,2.88.65,5.93.9,8.96.44,1.37-.21,2.77-.56,4.11-1.04,1.32-.48,2.65-1.06,3.88-1.9.51-.35,1.02-.76,1.48-1.3.23-.27.44-.59.62-.95.17-.36.29-.79.31-1.24.02-.44-.07-.9-.21-1.28-.07-.19-.17-.37-.26-.54-.11-.16-.19-.32-.34-.49-.14-.16-.28-.34-.46-.47l-.26-.2c-.09-.06-.19-.11-.28-.16-.11-.06-.17-.09-.29-.14-.11-.04-.17-.06-.28-.1-.09-.03-.19-.06-.29-.09-.11-.02-.17-.03-.28-.05-.12-.02-.24-.03-.35-.04-2.88.46-5.75,1.1-8.69,1.08-.11,0-.21-.03-.29-.07-.03,0-.06,0-.09,0-.86-.03-.86-1.37,0-1.33.41.02.82,0,1.23-.04,1.92-.56,3.82-1.17,5.68-1.89.85-.33,1.7-.68,2.54-1.03,1.98-.84,4.05-2.12,6.16-2.54,1.14-.22,2.32-.17,3.46-.16,3.58.05,7.28.42,10.86.02.66-.07,1.33-.14,1.98-.23s1.32-.22,1.98-.33c.45-.08.9-.17,1.34-.26.44-.11.89-.22,1.33-.33.6-.15,1.21-.28,1.81-.44.71-.21,1.07-.32,1.78-.54,1.2-.33,2.36-.81,3.52-1.21.58-.2,1.15-.46,1.72-.69s1.14-.48,1.71-.72c.56-.27,1.12-.53,1.67-.8s1.12-.51,1.65-.81c3.6-1.85,7-4.04,10.16-6.53l2.32-1.92c.76-.64,1.5-1.31,2.25-2.02.19-.18.38-.37.56-.56.1-.1.19-.2.29-.32l.16-.19c.05-.07.11-.14.18-.24.06-.09.12-.19.17-.28l.13-.27c.08-.18.14-.36.18-.54.09-.36.14-.73.13-1.09-.01-.71-.2-1.45-.64-2.11-.22-.33-.5-.63-.84-.88-.16-.11-.32-.2-.49-.29-.16-.1-.35-.15-.53-.22-.76-.25-1.55-.2-2.2-.05-.66.16-1.23.4-1.74.67-.51.27-.99.56-1.44.84-.45.28-.88.56-1.26.77-1.8.97-3.64,1.89-5.38,2.7-2.5,1.15-5.01,2.26-7.57,3.26-1.3.51-2.61.99-3.93,1.45-.17.06-.37.14-.58.22-.08.04-.17.09-.25.13-1.14.6-1.88,1.16-2.98.65-.01-.46.24-.76.62-1.03,4.12-2.92,8.01-6.05,11.72-9.48,1.93-1.78,3.98-3.47,5.66-5.51,1.83-2.22,2.75-4.82,4.06-7.34.98-1.88,1.95-3.75,2.93-5.63.15-.28.22-.43.37-.71.13-.26.25-.51.36-.75.26-.58.4-.88.66-1.46.43-.96.86-1.91,1.3-2.83.31-.64.7-1.34,1.03-1.82.07-.11.15-.21.22-.3.07-.1.15-.2.22-.27l.2-.21.08-.08.15-.12c.42-.33.87-.66,1.33-.99.94-.65,1.95-1.29,2.99-1.97,1.04-.69,2.11-1.41,3.15-2.28,4.7-3.91,8.59-8.97,10.48-14.81.3-.94.54-1.99.52-2.98-.02-.92-.26-1.8-.88-2.49ZM157.81,141.44c9.04-3.9,18.76-13.14,23.54-21.65.71-1.26.81-2.48,2.14-2.81,1.32-.34,2.91.5,3.32,1.77.22.67,0,1.31-.34,1.99-.15.69-.26,1.48-.5,2.24-.33,1.08-.79,2.13-1.26,3.15-.9,1.95-1.93,3.85-3.08,5.66-2.34,3.67-5.22,6.81-8.82,9.29-3.35,2.3-7.13,3.93-10.94,5.31-3.77,1.36-7.91,3.22-11.99,2.79-1.26-.13-2.08-1.58-1.86-2.74.18-.96.89-1.57,1.75-1.79.29-.18.61-.34.91-.47,2.21-1.02,4.79-1.72,7.12-2.72ZM139.01,40.93h.01s.03-.04.03-.04c7.73-6.59,17.44,4.84,10.64,11.3-6.5,6.18-18.66-4.38-10.69-11.26ZM119.07,135.3c.74.32,1.47.57,2.19.8.2-.06.41-.11.65-.14,3.99-.43,8.06.48,12.15.13,2.8-.82,5.54-2.11,8.23-3.68,2.7-1.58,5.15,2.17,3.21,4.09-.12.33-.32.64-.63.93-1.5,1.36-3.32,2.11-5.26,2.61-.37.09-.73.19-1.1.29-2.03.85-4.15,1.47-6.65,1.73-5.35.57-10.49-.12-15.43-2.23-3.1-1.33-.42-5.84,2.65-4.53ZM78.73,47.93l.03.02h.01c7.46,6.45-3.92,16.32-9.99,10.55-6.36-6.05,2.72-16.74,9.95-10.57ZM57.86,127.39c14.94,11.07,34.78,16.65,52.92,16.07,1.26-.04,3.97-.21,5.02.53.32.22.56.45.81.75.7.85.83,2.11.07,2.6-.37.24-2.82.54-3.54.68-17.24,3.34-36.26-1.04-50.63-11.22-1.83-1.3-6.5-4.68-7.64-6.34-1.19-1.74,1.07-4.21,2.99-3.07ZM45.13,168.8c-.02.08-.06.15-.09.22-.03,1.56-1.3,3.12-3.23,2.56-5.08-1.47-10.17-4.44-13.94-8.42-1.72-1.41-3.2-3.09-3.85-5.21-.06-.19-.08-.39-.09-.58-.37-2.4,3-4.17,4.6-2.08,1.41,1.1,3.11,3,4.03,3.77,3.21,2.71,5.65,3.83,9.38,5.54,1.2.55,2.4.98,2.74,2.1.45.58.65,1.36.45,2.09ZM18.87,126.18c-.42-.6-1.98-2.51-2.08-2.95-.21-.89.77-1.7,1.86-1.83.39-.04.72-.04,1.11.02,1.27.19,3.1,2.19,3.98,3.1,12.66,13.01,30.81,22.77,49.25,25.17,2.17.52,2.08,3.87.02,4.29-1.97.4-7.68-.4-9.9-.74-17.41-2.65-34.14-12.69-44.24-27.07ZM60.88,167.5c-1.48-.26-2.02-1.41-1.87-2.56-.29-1.13.42-2.43,1.83-2.62.89-.12,1.61.13,2.39.14,7.56.1,14.52-.2,21.84-1.38,15.19-2.44,30.87-6.44,46-7.02,1.79-.16,3.58-.25,5.39-.23,1.32.01,2.12.83,2.41,1.81.45,1.12.13,2.61-1.17,3.15-.34.18-.75.29-1.23.29-13.93-.15-26.93,5.85-40.49,8.08-11.39,1.87-23.68,2.35-35.1.34ZM83.72,186.22c-5.36,2.17-13.25,2.35-18.01-1.46-.6-.33-1.19-.69-1.74-1.09-1.02-.75-1.53-2.01-.84-3.2l.11-.15c.29-.9,1.09-1.64,2.16-1.7.09,0,.2,0,.32.02.6-.04,1.21.11,1.73.51,1.5.56,3.32,1.39,4.27,1.66,2.56.72,4.67.88,7.3.3,1.22-.27,2.67-1.05,3.9-.78l.12-.04c2.4-.7,3.65,2.26,2.38,3.79-.14.89-.67,1.73-1.7,2.15ZM125.19,196.36c-1.17,2.6-4.15,3.72-6.68,4.49-2.29.7-4.61.98-6.96,1.06-1.46.13-2.93.19-4.39.22-3.02.05-6.06.07-9.06-.27-4.04.01-8.03-.4-11.62-2.45-.98-.56-1.33-1.44-1.26-2.31-.61-1.59.88-3.66,2.71-3.17,1.75.06,3.96.78,5.51,1.05,8.57,1.48,16.33,2.13,24.69-.86,1.66-.59,4.23-2.46,5.75-1.16h.01c.17.06.33.12.47.21,1.17.68,1.36,2.05.84,3.2ZM169.98,182.01c-1.35,7.26-10.16,9.78-17.4,10.43-1.52.31-3.1.36-4.64.36-.56,0-1.01-.17-1.36-.44-2.2-1.05-1.82-5.04,1.12-4.99.3,0,.62,0,.96,0,4.31-1.49,9.08-1.84,13.08-4.66,1.41-.99,2.41-2.47,3.58-3.35.55-.41,1.1-.61,1.61-.64.02,0,.04,0,.05,0,.11,0,.22,0,.33,0,1.48.1,3.02,1.37,2.66,3.27ZM179.78,154.83c-6.56,7.17-15.35,11.89-24.19,15.72-10.49,4.54-21.26,8.79-32.73,9.81-2,.18-2.79-1.59-2.42-3.13-.09-.68.14-1.39.76-1.89.99-.8,4.98-1.34,6.52-1.77,17.46-4.95,35.53-14.03,49.51-25.34,1.57-1.27,3.35-2.88,4.81-4.31.91-.89,2.73-3.18,4.07-4.33.65-.91,2.11-1.1,3.03-.56,1.17.68,1.36,2.05.84,3.2-2.28,5.02-6.05,9.05-10.2,12.6ZM210.58,136.08c-.48,4.33-1.67,8.42-3.8,12.23-1.98,3.55-4.66,6.68-7.47,9.59-2.78,2.89-5.67,6.38-9.52,7.81-1.19.44-2.57-.5-2.88-1.63-.26-.94.1-1.81.78-2.37.18-.29.4-.57.6-.82,1.54-1.89,3.54-3.66,5.18-5.59,6.38-7.5,11.02-20.08,11.54-29.83.08-1.44-.37-2.58.68-3.47,1.04-.89,2.83-.83,3.76.11.49.5.58,1.17.57,1.93.17.68.42,1.44.55,2.23.18,1.11.23,2.25.26,3.38.06,2.15-.03,4.31-.26,6.44Z"/>
</svg>