<?xml version="1.0" encoding="UTF-8"?>
<svg id="Layer_11" data-name="Layer 11" xmlns="http://www.w3.org/2000/svg" viewBox="0 0 314.01 288">
  <defs>
    <style>
      .cls-1 {
        fill: #737438;
      }
    </style>
  </defs>
  <path class="cls-1" d="M103.22,166.39c14.37,10.18,33.39,14.56,50.63,11.22.72-.14,3.17-.44,3.54-.68.76-.5.63-1.75-.07-2.6-.25-.3-.49-.53-.81-.75-1.04-.74-3.75-.57-5.02-.53-18.14.58-37.98-5-52.92-16.07-1.92-1.13-4.18,1.34-2.99,3.07,1.14,1.66,5.81,5.04,7.64,6.34Z"/>
  <path class="cls-1" d="M82.65,194.19c-3.74-1.71-6.17-2.83-9.38-5.54-.92-.77-2.62-2.67-4.03-3.77-1.6-2.09-4.97-.33-4.6,2.08,0,.19.03.39.09.58.65,2.12,2.13,3.81,3.85,5.21,3.78,3.98,8.86,6.95,13.94,8.42,1.93.56,3.2-1,3.23-2.56.03-.07.06-.14.09-.22.2-.73,0-1.51-.45-2.09-.34-1.12-1.54-1.56-2.74-2.1Z"/>
  <path class="cls-1" d="M113.71,183.57c2.06-.42,2.15-3.77-.02-4.29-18.44-2.4-36.59-12.16-49.25-25.17-.88-.91-2.72-2.91-3.98-3.1-.38-.06-.72-.06-1.11-.02-1.09.13-2.06.94-1.86,1.83.1.43,1.65,2.35,2.08,2.95,10.09,14.37,26.83,24.42,44.24,27.07,2.22.34,7.93,1.14,9.9.74Z"/>
  <path class="cls-1" d="M157.13,169.42c4.93,2.11,10.08,2.8,15.43,2.23,2.5-.27,4.62-.88,6.65-1.73.37-.1.74-.2,1.1-.29,1.94-.49,3.76-1.25,5.26-2.61.32-.29.52-.6.63-.93,1.94-1.92-.51-5.67-3.21-4.09-2.69,1.57-5.43,2.86-8.23,3.68-4.09.35-8.16-.56-12.15-.13-.24.03-.45.08-.65.14-.73-.23-1.46-.48-2.19-.8-3.07-1.31-5.75,3.2-2.65,4.53Z"/>
  <path class="cls-1" d="M190.49,174.22c-.85.21-1.56.83-1.75,1.79-.22,1.16.6,2.61,1.86,2.74,4.08.42,8.21-1.44,11.99-2.79,3.81-1.37,7.59-3,10.94-5.31,3.6-2.48,6.48-5.62,8.82-9.29,1.15-1.81,2.19-3.71,3.08-5.66.47-1.02.93-2.07,1.26-3.15.24-.76.34-1.56.5-2.24.34-.68.56-1.32.34-1.99-.41-1.26-2-2.1-3.32-1.77-1.33.34-1.44,1.56-2.14,2.81-4.78,8.51-14.5,17.75-23.54,21.65-2.33,1.01-4.91,1.71-7.12,2.72-.3.14-.61.29-.91.47Z"/>
  <path class="cls-1" d="M136.68,196.74c13.57-2.23,26.57-8.22,40.49-8.08.48,0,.89-.11,1.23-.29,1.3-.54,1.63-2.03,1.17-3.15-.29-.98-1.08-1.79-2.41-1.81-1.81-.02-3.61.07-5.39.23-15.13.58-30.81,4.57-46,7.02-7.33,1.18-14.29,1.49-21.84,1.38-.78-.01-1.51-.27-2.39-.14-1.41.19-2.12,1.49-1.83,2.62-.15,1.14.38,2.3,1.87,2.56,11.42,2.01,23.7,1.53,35.1-.34Z"/>
  <path class="cls-1" d="M179.77,70.48l-.03.02h-.01c-7.98,6.9,4.19,17.45,10.69,11.28,6.8-6.46-2.91-17.89-10.64-11.3Z"/>
  <path class="cls-1" d="M119.48,77.55h-.01s-.03-.04-.03-.04c-7.23-6.17-16.31,4.52-9.95,10.57,6.08,5.78,17.45-4.09,9.99-10.53Z"/>
  <path class="cls-1" d="M251.28,155.85c-.13-.79-.38-1.55-.55-2.23,0-.76-.08-1.43-.57-1.93-.93-.95-2.72-1-3.76-.11-1.04.89-.6,2.03-.68,3.47-.53,9.75-5.16,22.33-11.54,29.83-1.65,1.93-3.65,3.7-5.18,5.59-.21.25-.42.53-.6.82-.67.57-1.04,1.43-.78,2.37.31,1.14,1.69,2.08,2.88,1.63,3.85-1.43,6.73-4.92,9.52-7.81,2.81-2.91,5.48-6.05,7.47-9.59,2.13-3.81,3.32-7.91,3.8-12.23.24-2.13.32-4.3.26-6.44-.03-1.12-.09-2.27-.26-3.38Z"/>
  <path class="cls-1" d="M229.85,168.62c-.92-.54-2.38-.35-3.03.56-1.34,1.14-3.17,3.44-4.07,4.33-1.46,1.43-3.24,3.04-4.81,4.31-13.97,11.31-32.05,20.39-49.51,25.34-1.54.44-5.53.97-6.52,1.77-.62.5-.86,1.21-.76,1.89-.37,1.53.42,3.31,2.42,3.13,11.47-1.02,22.24-5.27,32.73-9.81,8.84-3.82,17.63-8.55,24.19-15.72,4.15-3.55,7.93-7.58,10.2-12.6.52-1.15.33-2.52-.84-3.2Z"/>
  <path class="cls-1" d="M313.94,236.38c-.1-2.72-.32-5.43-.58-8.13-.52-5.4-1.22-10.76-1.58-16.18-.3-4.52-.79-9.03-.9-13.56-.13-5.16-.02-10.31-.77-15.41-.39-2.65-.83-5.49-.6-8.11.57-6.71,0-13.06-1.72-19.17-1.13-4-1.05-7.97-.33-12.06.26-1.46.5-2.96.56-4.46.21-5.92.35-11.85.5-17.77.03-1.06.14-2.17,0-3.19-.82-6-.68-11.95-.38-18.08.51-10.47.38-21.01.56-31.52.03-1.63.34-3.25.52-4.88.18-1.64.49-3.27.52-4.91l.14-8.42.04-4.21c0-.16,0-.4,0-.6v-.62s-.04-1.24-.04-1.24c-.06-.83-.11-1.66-.2-2.48-.73-6.61-3.09-13.06-6.87-18.44-1.46-2.1-3.07-4.08-4.91-5.77-1.83-1.69-3.88-3.09-6.09-4-3.23-1.31-6.19-2.82-9.28-4.24-3.07-1.43-6.24-2.83-9.6-3.79-2.46-.72-5.03-1.3-7.62-1.59-2.31-.29-4.62-.52-6.93-.54-5.01-.05-10.05-.21-15.07-.04-3.97.07-7.94.32-11.87.97-.44.07-.89.12-1.35.15-1.48-.01-2.99-.11-4.47-.13-7.15-.1-14.3-.33-21.45-.34-2.3,0-4.61.05-6.91.12-1.31.03-2.61.07-3.92.11-2.48.06-4.95.09-7.42.02-4.65-.14-9.25-.42-13.88-.23-2.35.03-4.71.17-7.08.48-5.31.71-10.72,1.12-16.1,1.64-.17.02-.34.02-.52.03-.23,0-.45.01-.68.03-.66.01-1.32.01-1.98.05-.15,0-.3.01-.45.02-5.45,0-10.71-1.07-16.09-1.48-4.5-.34-8.98-1.05-13.31-1.93C106.8.67,97.64-.1,88.28.24c-1.92.04-3.85.12-5.79.25-.71.05-1.42.1-2.13.13-.63,0-1.25-.02-1.86-.07-4.09-.33-8.16-.7-12.19-.5-3.03.03-6.03.31-9.02,1.13-.09.03-.2.04-.3.06-.32-.01-.63-.02-.94,0-2.16.07-4.32.08-6.48.06l-1.62-.02h-.82s-.97,0-.97,0c-.59,0-1.18.02-1.77.05h-.17c-1.29,0-2.58.09-3.87.2-5.14.5-10.24,2.01-14.69,4.61-4.64,2.71-8.85,6.02-12.51,9.87-3.66,3.85-6.77,8.27-9.05,13.15-1,2.11-1.61,4.44-2.4,6.57-.16.45-.32.9-.47,1.36-.14.46-.26.92-.38,1.39-.26.93-.41,1.88-.57,2.82-.14.95-.22,1.91-.27,2.86-.01.48-.02.95-.03,1.43v.7s.02.59.02.59c.13,3.16.5,6.27,1.05,9.26.8,4.35.72,8.39.35,12.46-.45,5-.83,9.85-.23,14.91.34,2.86.51,6.04.09,8.83-.01,1.7-.04,3.4.02,5.1.11,3.02.86,5.68,1.63,8.54.13.49.14,1.01.15,1.51.02,1.74.04,3.48.06,5.22,0,.32,0,.64.11.94.09.26.24.5.39.73,3.87,6.09,4.33,14.62,2.88,21.5-1.11,5.28-1.32,10.64-1.8,15.95-.13.64-.26,1.27-.4,1.9-.29,1.32-.56,2.64-.8,3.97-.06.58-.11,1.15-.16,1.73-1.31,13.79-2.09,27.52-1.97,41.46.08,9.74.41,19.48.48,29.23.03,3.87.13,7.74.06,11.6-.02,2.17.04,4.43.22,6.65.19,2.23.47,4.46.82,6.73.35,2.11.97,4.33,1.88,6.43.91,2.1,2.13,4.08,3.52,5.74,3.5,4.17,7.39,7.76,11.66,10.84,4.27,3.08,8.92,5.65,13.99,7.6l1.38.48.7.23.71.2,1.43.38c.48.11.96.2,1.45.3.97.21,1.95.31,2.94.44.49.06.99.08,1.48.11l.74.04.37.02h.31c.97.04,1.94.06,2.91.06,2.05.02,4.11-.02,6.18-.1.89-.03,1.77-.06,2.66-.1.36-.02.73-.03,1.09-.04.79-.02,1.58-.03,2.38-.04,1.53,0,3.07.01,4.6.05,1.96.05,3.94.12,5.9.13.47,0,.94,0,1.4,0,.02-.02.03-.04.05-.06,3.19.04,6.36-.07,9.42-.76,2.05-.46,3.94-.87,6.12-.78,4.99.2,9.99.43,14.99.45,6.19.03,12.33.2,18.52.53,7.37.39,14.85-.18,22.29-.34,3.32-.07,6.65-.24,9.97-.18.27,0,.55.02.82.04-.05.05-.1.11-.15.16,1.82.19,3.64.49,5.44.44,2.47-.07,4.94-.15,7.41-.24,2.2-.08,4.4-.16,6.6-.24,7.45-.26,14.89-.47,22.36-.28l-.06-.08c2.19.04,4.38.11,6.58.22,2.05.11,4.11.2,6.17.28.03.04.05.07.08.11,4.53.16,9.06.27,13.59.3,1.1,0,2.19-.02,3.29-.07,3.03-.08,6.07-.37,9.11-.56.36,0,.71.03,1.07.05,3.17.17,6.34.4,9.51.51.38.01.75.01,1.12.01-.09-.03-.17-.05-.25-.08-.01,0-.02,0-.03-.01.2,0,.41.02.61.03,4.09.13,7.35-.39,9.93-1.37.82.02,1.62.17,2.44.23,1.36.11,2.77-.34,4.15-.42,1.59-.09,3.18-.02,4.76.2.29.04.59.09.88.05.25-.04.49-.14.73-.2,1.17-.31,2.33.16,3.49.25,1.25.1,2.54.09,3.8.09.05,0,.1,0,.14,0,.8,0,1.6-.02,2.4-.06,2.55-.04,5.13-.31,7.75-.96,1.11-.25,2.19-.62,3.31-1.01,1.08-.44,2.2-.9,3.27-1.49,2.17-1.15,4.29-2.65,6.24-4.59,2.01-1.98,3.96-4.14,5.62-6.46,1.66-2.32,3-4.81,3.8-7.29,1.02-3.12,1.75-6.25,2.33-9.38.58-3.13,1.02-6.26,1.42-9.48.13-.89.18-1.78.23-2.67.05-.98.06-1.56.06-2.27.01-1.37-.01-2.74-.07-4.1ZM272.78,161.59c-1.89,5.85-5.79,10.91-10.48,14.81-1.04.87-2.12,1.59-3.15,2.28-1.04.69-2.05,1.32-2.99,1.97-.47.32-.92.65-1.33.99l-.15.12-.08.08-.2.21c-.07.07-.14.17-.22.27-.07.1-.15.19-.22.3-.33.47-.71,1.17-1.03,1.82-.45.91-.87,1.86-1.3,2.83-.26.58-.4.88-.66,1.46-.11.25-.23.5-.36.75-.15.28-.22.43-.37.71-.98,1.88-1.95,3.75-2.93,5.63-1.31,2.52-2.23,5.12-4.06,7.34-1.68,2.04-3.73,3.73-5.66,5.51-3.71,3.43-7.6,6.56-11.72,9.48-.39.27-.63.58-.62,1.03,1.1.51,1.84-.05,2.98-.65.08-.04.17-.09.25-.13.21-.08.41-.16.58-.22,1.32-.45,2.63-.94,3.93-1.45,2.56-1,5.08-2.11,7.57-3.26,1.75-.81,3.58-1.73,5.38-2.7.38-.21.81-.49,1.26-.77.45-.28.92-.57,1.44-.84.51-.27,1.08-.52,1.74-.67.65-.15,1.44-.2,2.2.05.18.07.37.12.53.22.17.09.33.18.49.29.34.24.62.55.84.88.44.66.62,1.4.64,2.11,0,.36-.03.73-.13,1.09-.05.18-.11.36-.18.54l-.13.27c-.05.1-.11.19-.17.28-.06.09-.12.17-.18.24l-.16.19c-.1.12-.2.22-.29.32-.19.2-.38.38-.56.56-.75.71-1.49,1.37-2.25,2.02l-2.32,1.92c-3.16,2.48-6.56,4.68-10.16,6.53-.53.3-1.1.55-1.65.81s-1.11.53-1.67.8c-.57.24-1.14.48-1.71.72s-1.14.49-1.72.69c-1.16.4-2.32.88-3.52,1.21-.71.21-1.07.32-1.78.54-.6.16-1.21.29-1.81.44-.45.11-.89.22-1.33.33-.45.09-.89.18-1.34.26-.66.11-1.33.25-1.98.33s-1.32.15-1.98.23c-3.58.39-7.28.03-10.86-.02-1.14-.02-2.32-.06-3.46.16-2.11.42-4.18,1.7-6.16,2.54-.84.35-1.69.7-2.54,1.03-1.86.72-3.76,1.33-5.68,1.89-.41.04-.82.06-1.23.04-.86-.03-.86,1.3,0,1.33.03,0,.06,0,.09,0,.08.04.18.06.29.07,2.94.02,5.8-.61,8.69-1.08.12.01.23.02.35.04.11.02.17.03.28.05.09.02.19.06.29.09.11.04.17.06.28.1.11.06.17.09.29.14.09.05.19.09.28.16l.26.2c.18.13.32.3.46.47.15.17.24.33.34.49.09.17.19.35.26.54.15.38.23.84.21,1.28-.02.45-.14.88-.31,1.24-.17.36-.39.68-.62.95-.46.54-.97.95-1.48,1.3-1.23.84-2.55,1.42-3.88,1.9-1.33.48-2.74.83-4.11,1.04-3.03.46-6.08.21-8.96-.44-2.06-.47-4.24-1.05-6.13-2.01-1.71-.87-3.35-2.02-5.3-2.25-1.72-.2-3.44.35-5.14.5-.68.06-1.36.12-2.03.17-2.69.18-5.45.29-8.19.24-2.74-.04-5.5-.2-8.24-.5-2.74-.3-5.49-.74-8.19-1.32-.59-.13-1.24-.27-1.76-.39-2.88-.61-5.82-1.4-8.71-2.39-.22-.07-.33-.11-.54-.18-.22-.08-.4-.15-.58-.22-.35-.14-.71-.28-1.06-.43-.36-.14-.71-.29-1.07-.43-.43-.25-.86-.5-1.29-.76-.01,0-.02,0-.04-.01-.09-.06-.19-.13-.28-.18-.31-.17-.74-.09-.91.24-.16.31-.09.73.24.91.24.13.46.28.68.44.01,0,.04.04.07.06.04.05.09.1.14.14.14.11.29.2.44.31.94.68,1.9,1.31,2.87,1.92,1.32,1.03,2.78,2.02,4.12,2.94,1.56,1.07,3.17,2.09,4.82,3.03.82.47,1.66.93,2.5,1.37.42.22.85.43,1.27.65.23.12.38.19.59.27.2.08.42.17.64.25.89.35,1.9.69,2.87,1.35.49.33,1.01.79,1.37,1.44.1.15.16.34.23.51.07.17.11.36.14.55l.04.27c0,.1,0,.15.01.25.01.16,0,.33,0,.51-.05.68-.32,1.45-.81,2.02-.49.57-1.15.94-1.77,1.13-.63.19-1.27.24-1.88.2l-.2-.02-.19-.02c-.15-.02-.22-.03-.37-.05-.3-.04-.45-.05-.75-.09-2.7-.36-5.35-.96-7.89-1.87-2.53-.91-5.02-2.05-7.38-3.44-3.2-1.89-6.5-4.26-9.36-6.91-.43-.4-.64-.6-1.07-.99-.41-.42-.61-.63-1.02-1.04-.2-.21-.31-.31-.51-.52-.1-.1-.15-.16-.25-.26-.1-.11-.15-.16-.24-.27-.39-.44-.58-.66-.97-1.09-.19-.22-.29-.33-.48-.55-.18-.23-.27-.34-.46-.57-.36-.46-.55-.69-.91-1.14-.31-.38-.57-.79-.86-1.18-.17-.24-.25-.36-.42-.6-1.14-1.54-1.84-3.36-2.97-4.91-1.3-1.8-2.94-2.3-4.79-3.23-.95-.48-1.9-1.02-2.84-1.54-.5-.27-.45.19-.32.52.4,1.07.23,2.3-.34,3.28-.42.72-1.18,1.29-1.89,1.52-.72.24-1.41.29-2.04.24-.64-.04-1.23-.17-1.82-.38-.28-.1-.61-.23-.84-.36-.25-.14-.51-.26-.76-.41-.29-.19-.43-.28-.71-.46-.23-.16-.44-.34-.67-.51-.86-.71-1.63-1.51-2.29-2.35-1.32-1.69-2.33-3.6-3.06-5.56-.12-.33-.25-.68-.36-1.03-.07-.21-.1-.31-.17-.52-.06-.21-.09-.32-.15-.53-.11-.35-.19-.71-.28-1.06-.04-.17-.09-.37-.13-.55-.04-.18-.07-.36-.09-.53-.15-.46-.32-.92-.53-1.34-.21-.43-.46-.87-.75-1.24-.24-.31-.54-.58-.81-.87-.09-.06-.18-.11-.28-.17-2.3-1.44-4.18-3.52-6.15-5.39-.5-.47-1-.94-1.58-1.3-1.47-.91-3.24-.99-4.87-1.41-1.56-.4-3.13-.94-4.59-1.62-.42-.2-.84-.39-1.25-.61-.49-.26-.73-.39-1.23-.65-.41-.21-.8-.47-1.2-.7-.24-.14-.36-.21-.6-.36-.2-.12-.39-.26-.58-.38-1.56-1-3.08-2.16-4.6-3.44-1.62-1.37-3.32-3.19-4.69-5.04-1.71-2.31-3.16-4.85-4.21-7.53-.13-.34-.27-.67-.39-1.01-.13-.41-.2-.62-.33-1.03-.24-.68-.4-1.39-.58-2.09-.09-.36-.17-.69-.24-1.05-.08-.36-.14-.73-.19-1.11-.05-.39-.06-.79-.03-1.22.04-.43.15-.9.41-1.33.26-.43.67-.8,1.09-1.01.43-.21.84-.32,1.3-.36.46-.04.96.02,1.39.2.44.17.82.43,1.13.72.25.23.45.47.65.72,2.01,4.16,4.68,7.99,7.38,11.72.02.06.05.13.08.19.02.03.04.07.06.1.05.07.1.15.17.21s.14.12.21.17c.03.02.06.04.09.05.08.04.16.08.25.1.09.03.18.03.27.01.09,0,.17-.03.25-.08.03-.01.04-.04.06-.06.01,0,.02,0,.03,0,.32-.09.6-.49.47-.82-.13-.32-.3-.61-.47-.9-.46-.93-.92-1.88-1.45-2.77-.15-.26-.32-.5-.49-.75-.04-.09-.08-.17-.12-.26-.35-.8-.74-1.59-1.11-2.36-.36-.77-.7-1.59-1.04-2.39-1.75-4.09-3.36-8.43-4.24-12.88-.12-.58-.34-1.44-.5-2.15-1.64-7.04-5.65-20.98.52-26.82.92-.87,1.88-1.78,2.87-2.65,1.54-1.35,3.2-2.62,4.94-3.79.38-.24.57-.36.94-.6.32-.2.63-.41.96-.59.39-.22.58-.34.97-.56.2-.11.29-.17.49-.28.2-.1.3-.15.5-.26.4-.21.6-.31,1-.51.31-.17.74-.36,1.1-.5.73-.28,1.41-.49,2-.74.29-.12.56-.25.75-.38.16-.11.35-.25.54-.4.33-.14.66-.28.98-.43,1.93-.91,3.55-2.24,5.39-3.29,1.66-.95,3.57-1.46,5.42-1.88.36-.08.91-.27,1.25-.05.29.19.37.73.46,1.03.33,1.17.41,2.38.32,3.59-.03.42-.1.83-.18,1.23-.06.1-.12.2-.18.3l-.02.03c-.12.13-.22.25-.33.36-.09.09-.19.18-.29.27l-.06.06-.07.04c-.29.2-.59.38-.91.54-.65.34-1.33.6-2.01.9-.35.15-.68.34-1.01.53-1.19.55-2.38,1.15-3.64,1.79-4.12,2.11-8.22,3.8-11.67,6.98-2.57,2.36,1.26,6.18,3.82,3.82,1.07-.98,2.23-1.8,3.44-2.52,1.83-.54,3.52-1.46,5.37-2,2.38-.7,4.82-1.2,7.11-2.16.95-.08,1.86-.39,2.69-.84l.08-.03c1.41-.59,2.61-1.44,3.51-2.69.44-.62.75-1.31.97-2.03l.07-.16.05-.12c.13-.08.24-.21.28-.4.08-.3.14-.61.21-.91.47-1.37.82-2.79,1.06-4.22.17-.98.28-1.96.37-2.95.18-1.13.34-2.27.48-3.41.23-1.87.48-3.76.56-5.64.04-.91.04-1.84-.1-2.74l-.04-.19c0-.17.01-.34.01-.51-.06-.86-.04-1.84-.27-2.55-.16-.54-.29-1.07-.4-1.59-.08-.55-.3-.97-.4-1.47-.09-.48-.34-.96-.5-1.45-.16-.49-.38-.98-.61-1.47-.16-.35-.34-.69-.54-1.01-.23-.31-.45-.63-.68-.94-1.15-1.64-2.67-3.04-3.85-4.78-.16-.23-.46-.5-.69-.73-2.44-2.43-4.94-4.84-7.3-7.44-.33-.36-.7-.71-1.06-1.06-1.21-1.19-2.43-2.39-3.63-3.63-.45-.47-.93-.88-1.38-1.35l-1.13-1.14c-.51-.54-1.14-1.23-1.69-1.86-.42-.46-.82-.99-1.04-1.39-.24-.41-.39-.73-.51-1.09-.28-.69-.14-1.72.14-2.62.72-.29,1.26-.41,2.04-.57.96-.09,2.24.12,3.44.29l2.84.43c1.54.23,3.08.44,4.61.64.35.04.7.04,1.03.09,1.87.28,3.71.44,5.51.47.9.02,1.79,0,2.67-.04.44-.02.87-.06,1.3-.09.22-.02.42-.05.64-.07l.32-.04.08-.02c.15-.04.22-.09.29-.14,0-.11-.05-.22-.06-.3v-.03s-.01-.22-.01-.22v-.5s0-1.01,0-1.01l.03-2.01c.05-2.1.19-4.31.44-6.3.44-3.61.48-7.3.65-10.97l.16-3.19.17-4.2.05-1.79c.02-.27-.01-.66.04-.85l.19-.47c.26-.63.52-1.25.8-1.85.06-.08.06-.2.16-.26l.41-.12c.27-.07.58-.15.71-.08l1.02.19c.43.39.89.84,1.33,1.26l.33.32.34.42.67.83c.47.57.93,1.17,1.38,1.81.34.48.69.97,1.02,1.44,2.59,3.53,4.65,7.29,6.93,10.79.71,1.11,1.45,2.16,2.23,3.18.41.48.79,1,1.23,1.44l.63.67c.15.14.33.29.55.43.44.29.98.54,1.56.77.29.11.59.22.9.32l.23.08.17.05.14.03s.84-.12,1.41-.16c.63-.04,1.27-.05,1.92-.01,3.04.2,6.06,1.05,8.61,2.47,2.17,1.18,4.11,2.58,5.94,4.21,1.42,1.27,2.69,2.71,3.77,4.29.08.13.2.27.25.38,1.51,3.01,3.04,5.87,3.74,9.1.55,2.57.9,5.21.55,7.86-.06.47-.11.95-.17,1.45-.06.5-.1,1-.22,1.49-.56,2.91-1.59,5.86-3.35,8.29-1.84,2.51-3.9,4.77-6.44,6.47-.31.22-.66.49-.94.62-3.33,1.52-6.73,2.88-10.33,3.49-.48.08-.44.06-.63.15l-.5.22-.25.11-.09.04c-.1.07-.26.08-.31.2-.06.12-.09.24-.11.37l-.02.2-.02.36c.02.28.02.55.06.84.08.59.2,1.2.37,1.82.18.67.34,1.38.55,2.09.74,2.38,1.9,4.67,3.12,6.93.74,1.37,1.43,2.81,2.22,4.18.83,1.43,1.68,2.88,2.49,4.27.88,1.5,1.84,2.96,2.79,4.42.64.99,1.25,2.57,2.21,3.27.23.17.49.28.75.39.85.36,1.71.68,2.58.97,1.6.52,2.93.2,4.55.21,4.33,0,8.62.04,12.86.19.37.01.79.02,1.12-.02,2.34-.26,4.8-.28,7.33-.27,1.95-.08,3.93.03,5.87.21,1.85.18,3.53.32,5.29-.47.16-.07.32-.15.46-.26,1.02-.85,1.57-2.54,2.44-3.56.37-.44.74-1.12,1.1-1.69,1.34-2.14,2.77-4.24,4.06-6.42.87-1.49,1.78-3.04,2.67-4.56.85-1.47,1.58-3,2.37-4.47,1.31-2.41,2.55-4.87,3.34-7.41.22-.75.39-1.51.59-2.23.18-.66.31-1.32.39-1.94.04-.31.04-.6.06-.9l-.03-.38-.02-.22c-.02-.13-.05-.26-.11-.39-.05-.13-.22-.14-.33-.22l-.09-.05-.26-.12-.53-.23c-.2-.1-.15-.08-.67-.17-3.84-.65-7.48-2.1-11.04-3.73-.3-.14-.68-.42-1-.66-2.72-1.82-4.92-4.23-6.89-6.92-1.88-2.59-2.98-5.75-3.58-8.86-.12-.52-.17-1.06-.23-1.59-.06-.53-.13-1.05-.19-1.55-.38-2.84,0-5.66.58-8.41.75-3.45,2.38-6.5,4-9.73.06-.12.18-.26.27-.4,1.16-1.68,2.52-3.22,4.03-4.58,1.95-1.74,4.03-3.24,6.35-4.5,2.74-1.52,5.96-2.43,9.21-2.64.69-.04,1.38-.03,2.06.02.61.04,1.56.15,1.51.17l.15-.03.18-.05.25-.08c.33-.11.65-.22.96-.34.62-.24,1.2-.51,1.67-.82.23-.15.43-.31.59-.46l.68-.72c.47-.47.87-1.03,1.31-1.54.83-1.09,1.63-2.22,2.38-3.4,2.43-3.74,4.64-7.76,7.41-11.54.36-.51.73-1.02,1.09-1.54.48-.69.97-1.33,1.47-1.94l.72-.89.36-.45.35-.34c.47-.44.95-.93,1.42-1.34l1.09-.2c.13-.07.47.02.76.09l.44.13c.11.06.11.19.17.28.3.64.59,1.31.86,1.98l.21.5c.06.2.02.61.04.9l.05,1.91.18,4.49.17,3.41c.19,3.93.23,7.88.7,11.73.26,2.13.41,4.49.47,6.74l.03,2.15v1.08s0,.54,0,.54v.24s-.01.03-.01.03c-.02.08-.07.21-.07.32.08.05.15.1.32.15l.09.03.34.04c.23.02.45.06.68.08.46.04.92.08,1.39.1.94.05,1.89.07,2.85.05,1.93-.03,3.89-.2,5.89-.5.36-.05.73-.05,1.1-.09,1.64-.21,3.28-.44,4.93-.68l3.04-.46c1.28-.18,2.66-.41,3.68-.31.83.17,1.41.3,2.18.6.3.96.45,2.06.15,2.8-.13.38-.29.72-.55,1.16-.23.43-.66.99-1.11,1.48-.58.67-1.26,1.4-1.81,1.99l-1.21,1.22c-.48.51-1,.95-1.48,1.45-1.29,1.32-2.58,2.6-3.88,3.88-.38.38-.78.75-1.13,1.13-2.53,2.78-5.2,5.35-7.81,7.95-.25.25-.57.54-.74.79-1.26,1.85-2.88,3.35-4.11,5.11-.24.34-.49.67-.73,1.01-.22.35-.41.7-.58,1.08-.25.52-.49,1.04-.66,1.57-.17.52-.44,1.03-.54,1.55-.11.53-.35.98-.43,1.57-.11.57-.25,1.13-.43,1.71-.24.76-.22,1.81-.28,2.73-.04,4.47.76,8.96,1.85,13.42.17.78.36,1.56.55,2.33.16.64.34,1.27.53,1.89.1.48.2.95.33,1.41.04.19.08.37.12.55.02.09.04.18.06.27l.16.26c.21.6.45,1.19.72,1.77,1.81,3.78,4.96,6.02,8.27,8.17.73.62,1.46,1.24,2.18,1.87,1.32,1.01,2.59,2.15,3.81,3.3l.18.15.08.09c.5.48,1,.95,1.48,1.42,1.57,1.98,5.46.58,4.58-2.3-1.53-5.02-5.41-7.53-9.64-10.19-4.72-2.97-7.82-7.52-7.72-12.88.12-.2.27-.38.47-.53.39-.28.85-.41,1.33-.44,2.77,1.37,5.41,3,8.03,4.98,1.93,1.46,3.96,2.74,6.02,3.97,2.17,2.25,4.2,4.53,5.99,7.09,2.53,3.62,3.38,9.32,7.27,11.88.74.49,1.59.8,2.37,1.22,2.28,1.22,5.19,3.85,6.1,6.35.45,1.23.6,2.52.74,3.82.14,2.9-.09,5.64-.38,8.54,1.73-.74,2.95-2.3,4.05-3.83s2.19-3.15,3.8-4.11c1.62-.96,3.94-1.05,5.2.35.62.69.86,1.56.88,2.49.02.99-.21,2.03-.52,2.98Z"/>
  <path class="cls-1" d="M123.75,209.87l-.12.04c-1.23-.27-2.68.51-3.9.78-2.63.58-4.74.42-7.3-.3-.95-.27-2.77-1.1-4.27-1.66-.53-.4-1.13-.55-1.73-.51-.12-.02-.23-.03-.32-.02-1.07.05-1.87.8-2.16,1.7l-.11.15c-.7,1.19-.18,2.45.84,3.2.55.4,1.13.76,1.74,1.09,4.76,3.82,12.66,3.64,18.01,1.46,1.03-.42,1.56-1.26,1.7-2.15,1.27-1.52.02-4.49-2.38-3.79Z"/>
  <path class="cls-1" d="M165.06,222.75c-.14-.08-.3-.15-.47-.19h-.01c-1.52-1.31-4.09.56-5.75,1.15-8.36,2.99-16.12,2.34-24.69.86-1.56-.27-3.77-.99-5.51-1.05-1.83-.49-3.32,1.58-2.71,3.17-.07.86.28,1.74,1.26,2.31,3.59,2.06,7.58,2.47,11.62,2.45,3,.34,6.05.32,9.06.27,1.47-.03,2.93-.09,4.39-.22,2.35-.07,4.67-.35,6.96-1.06,2.53-.78,5.52-1.9,6.68-4.49.52-1.15.33-2.52-.84-3.2Z"/>
  <path class="cls-1" d="M208.02,208.32c-.11-.01-.22-.01-.33,0-.02,0-.04,0-.05,0-.51.03-1.07.22-1.61.64-1.16.88-2.16,2.36-3.58,3.35-4,2.81-8.77,3.16-13.08,4.66-.34,0-.66,0-.96,0-2.95-.05-3.32,3.94-1.12,4.99.35.26.79.44,1.36.44,1.54,0,3.12-.05,4.64-.36,7.24-.65,16.05-3.17,17.4-10.43.35-1.91-1.18-3.17-2.66-3.27Z"/>
</svg>