<?xml version="1.0" encoding="UTF-8"?>
<svg id="Layer_11" data-name="Layer 11" xmlns="http://www.w3.org/2000/svg" viewBox="0 0 243.48 197.04">
  <defs>
    <style>
      .cls-1 {
        fill: #737438;
      }
    </style>
  </defs>
  <path class="cls-1" d="M243.11,132.67c-.6-1.58-2.03-3.99-3.3-3.56-.47.16-.94.32-1.4.47-1.46.52-2.75.91-4.46.61-.72-.13-1.65.02-2.41.18-2.3.49-4.49.62-6.78-.02-1.22-.34-2.69-.44-4.06-.5l-20.59-.81c-.58-.03-1.19-.07-1.79-.11-.31-.05-.6-.13-.8-.29-.57-.49-1.02-.64-1.71-.62-.34.01-.73.07-1.19.15l-.73.14-.17.02.05-.15.1-.32c.21-.65.9-1.5,1.41-2.19.68-.92,1.47-1.71,2.1-2.39.33-.35.6-.66.91-1.07.65-.83,1.3-1.72,1.93-2.69.33-.52.87-1.05,1.31-1.56,1.7-1.93,3.4-4.01,5.08-6.38l.63-.9.19-.27.21-.27c.34-.43.79-.97,1.3-1.67,1.71-2.5,3.22-6.22,2.48-9.64-1.28-5.91-4.33-.77-6.47,2.43-.56.84-1.19,1.65-1.78,2.46-2.05,2.72-4.11,5.41-6.22,7.9-.78.96-1.59,1.77-2.39,2.63-1.32,1.37-2.65,2.75-3.97,4.12-2.77,3.04-5.54,6.09-8.39,8.68-4.04,3.65-8.14,6.74-12.26,9.55-.47.32-.95.49-1.41.83-5.11,3.77-10.05,6.25-15.03,8.83-2.85,1.43-5.72,2.87-8.58,4.31.01.04.03.09.04.13,0,0,.22.85.23.9l.18.8c.05.22.08.45.1.68.12,1.54.38,4.73-2.04,7.29l-2.29,2.58c-.7.78-1.62,1.33-2.65,1.56l-1.19.27c-.77.22-1.49.25-2.13.25,0,0-.21,0-.31,0-.44,0-.8-.05-.97-.07-.03,0-.95-.12-.95-.12l-2.17-.27-4.37-.51c-.76-.09-1.51-.17-2.26-.25-1.85-.2-3.74-.41-5.7-.72-.77.22-1.55.44-2.32.64-.18.24-.39.42-.63.49-1.48.48-.36-.18,1.66-1.35-.05,0-.09-.01-.14-.02-1.29-.24-2.75-.39-4.29-.54-.63-.06-1.25-.13-1.87-.2l-6.51-.7-2.75-.32-2.72.62-3.93.95c-4.67,1.18-9.16,2.16-13.69,3.01l-.54.1-.78.17-.34.08c-.63.15-1.49.35-2.47.36-.22.02-.45.03-.68.03-2.17,0-4.3-.97-5.99-2.72-1.16-1.21-2.08-2.76-2.68-4.48-.28-.77-.49-1.63-.59-2.38-.05-.34-.08-.7-.1-1.1,0-.03,0-.07,0-.1-.13-.03-.26-.06-.4-.08-1.96-.31-3.81-.34-5.75-.31-1.04.03-2.13.35-3.2.54-3.61.76-7.18,1.44-10.76,2.38-2.17.59-4.39,1.58-6.58,2.38-2.28.82-4.59,1.75-6.8,2.69-3.25,1.39-6.47,2.52-9.67,3.92-.45.21-.94.44-1.4.65-.35.15-.69.29-1.01.52-.32.24-.62.54-.9.75-.19.16-.38.37-.55.54-.85.89-1.52,1.71-2.31,2.97.01.03-.22.39-.22.39-.63,1.21-1.05,2.05-1.56,3.1-.75,1.55-1.47,3.27-1.84,5.08-.2.98-.29,1.99-.21,3.01.06.82.22,1.63.06,2.52-.13.77-.48,1.47-.6,2.24-.08.55-.03,1.08.03,1.57.42,3.05,1.6,5.28,3.11,6.45l.09.07,1.1.06c2.81.14,6.46-.33,9.12-1.55,3.29-1.16,6.46-2.53,9.43-4.48.42-.27.95-.5,1.42-.66,5.32-1.87,10.65-3.99,15.73-4.76.54-.07,1.11-.21,1.67-.37,4.26-1.2,8.46-1.98,12.56-2.04,2.13-.08,4.22.22,6.33.46,3.07.37,6.09,1.11,9.23,1.44,2.33.25,4.84,1.1,7.19,1.91,4.6,1.56,9.38,2.48,14.42,2.48.77,0,1.54,0,2.31-.01.8-.03,1.68-.04,2.51-.19,1.68-.23,3.34-.67,4.96-1.27.61-.21,1.18-.32,1.78-.57,1.74-.78,3.36-1.55,5.07-2.75,1.77-1.24,3.58-2.26,5.31-2.93,1.76-.72,3.23-.83,4.98-.84.51.03,1.03.06,1.55.05,3.06.02,6.1.6,9.08,1.56,2.67.88,5.26,2.18,7.85,3.47,1.22.6,2.49.96,3.72,1.57,1.47.72,3,1.45,4.37,2.46,2.08,1.5,5.2,3.85,6.78-3.18.77-3.41-.17-7.36-1.98-7.52-.04,0-.23-1.07-.23-1.07l-.62-.41-1.39-.92-.35-.23-.14-.09.08-.34-.83-.44-.67-.35c-.58-.31-1.2-.59-1.72-.99-1.32-.98-2.64-1.97-3.97-2.96-.87-.61-.82-.66-1.05-.87l-.5-.51-.8-.8-.34-.32-.16-.15-.08-.07.15-.07.33-.14c.09-.04.14-.09.31-.12.96-.17,1.36-.2,1.64-.28.14-.04.24-.09.33-.15l.14-.11,1.37-.96c1.26-.89,2.37-1.75,3.56-2.91,1.29-1.26,2.94-2.39,4.44-3.52,1.1-.84,2.26-1.51,3.32-2.37,4.78-3.88,9.62-6.71,14.36-8.89,3.25-1.49,6.33-2.36,9.63-3.55,2.24-.8,4.61-.98,6.9-1.15,2.29-.22,4.55-.14,6.83-.13,4.25.08,8.54.33,12.76.94,3.97.57,7.97.95,12.05.87,3.68-.07,7.35.73,11.22-1.63.38-.23.76-.5,1.1-.95,1.89-2.53,3.42-8.01,2.31-10.96Z"/>
  <path class="cls-1" d="M186.64,13.38c-.22-.22-.5-.41-.75-.58-.98-.69-2.79-1.2-3.2-1.42-.2-.11-.46-.22-.75-.3-.32-.08-.66-.11-.97-.1-1.02.06-2.01.11-3.01.17-.96.05-1.86.17-2.8.43-.63.18-1.51.22-2.29.32-1.43.17-2.95.4-4.3.6l-2.11.3-2.19.28c-1,.12-2.01.25-3.04.37l-.69.08-.25-.02-.17-.21-.56-.72c-.33-.4-.69-.78-1.03-1.17-.67-.79-1.43-1.52-2.21-2.2-2.59-2.24-5.5-4.05-8.56-5.57-.9-.47-1.84-.88-2.78-1.23-3.53-1.16-7.19-1.68-10.83-1.78-.36-.01-.72,0-1.08,0-.07-.05-.14-.09-.22-.09-.46.02-.88-.28-1.36-.11-.16.06-.37-.03-.56-.06-.7-.1-1.42-.07-2.13-.15-.49-.05-.99-.09-1.5-.1-.48-.01-.97-.13-1.45-.1-3.84.24-7.89,1-11.75,1.23-.86.05-1.71.28-2.55.49-.28.07-.56.19-.85.22-.39.04-.76.15-1.11.29-1.07.43-2.48.35-3.62.59-9.46,1.98-15.09,8.43-22.23,14.24-2.24,1.82-4.93,3.17-6.76,5.41-.68.79-1.17,1.74-1.99,2.42l-.17.24c-.59.64-1.15,1.29-1.77,1.9-.44.42-.94.79-1.36,1.24-2.57,2.65-5.05,5.5-7.35,8.39-1.7,2.13-2.59,5.04-5.03,6.51-.38.23-.78.43-1.12.72-.4.33-.71.76-1,1.2-2.55,3.77-3.86,8.36-6.95,11.76-1.41,1.55-2.16,3.7-2.89,5.71-.84,2.32-2.04,4.22-3.16,6.37-.29.54-.5,1.11-.77,1.66-.3.61-.64,1.2-.95,1.8-.05.1-.09.21-.14.32-.28.7-.53,1.43-1.07,1.98-.26.27-.37.57-.5.87-.05.1-.04.23-.07.34-1.82,5.26-4.53,10.31-6.84,15.38-.35.77-.71,1.55-.86,2.39-.56,3-5.23,6.5-7.26,8.73-2.71,2.95-5.43,5.9-8.08,8.9C12.81,116.75,1.34,127.97.05,135.41c-.15.85.04,1.73.31,2.55,1.22,3.76,4.24,6.29,7.36,8.5,1.55,1.1,3.15,2.13,4.65,3.31,2.53,1.99,4.15,3.59,7.57,3.17,7.95-.98,17.32-14.93,22.28-20.12,3.06-3.2,6.17-6.35,8.9-9.83.26-.33.54-.74.8-.97.29-.28.34-.29.49-.38.14-.08.25-.12.29-.12.06,0-.02,0,.16,0,.16.02.43.06.7.12,1.1.24,2.34.58,3.53.97.94.31,1.87.58,2.82.98.67.28,1.33.56,2.14.78.67.19,1.35.36,2.03.51,1.37.3,2.76.52,4.21.57.96.04,2.18.26,3.28.44,3.46.57,6.95,1.04,10.45,1.37l.06.05c2.61.04,5.2.05,7.79.03.48,1.48.97,2.96,1.26,4.42.62,3.05,1.62,5.84,2.5,8.74l1.28,4.23.2.68c-1.96.48-3.91.99-5.91,1.28-2.01.68-3.92,1.04-5.91,1.26-.69.08-1.53.2-2.19.39-1.57.48-2.73.55-4.04.6-.61.02-1.23.05-1.86.1l-.22.02-.5.29c-.68.4-1.25,1.06-1.52,1.68-.14.31-.26.63-.3.89-.07.29-.11.56-.12.8-.02.26-.03.5-.01.71,0,.23.02.45.06.66.05.4.18.95.35,1.43.33.98.85,1.94,1.56,2.7.71.74,1.68,1.35,2.77,1.15.58.05,1.29-.17,1.99-.32l.85-.18c.19-.04.39-.08.58-.11,4.47-.84,8.87-1.83,13.3-2.95,1.31-.32,2.62-.64,3.94-.96,1.17-.27,2.35-.54,3.53-.82,1.17.14,2.36.28,3.53.42,2.16.23,4.31.47,6.46.7,2.16.25,4.41.41,6.45.79,3.02.57,5.96.81,8.95,1.16l4.36.51,2.18.27.54.07.31.04c.15.02.31.05.46.04.21-.01.82.02,1.05-.08l.63-.14.75-.17.51-.58,1.83-2.08c.92-.94.84-2.27.73-3.55-.06-.27-.12-.54-.18-.81-.05-.2-.1-.4-.15-.61l-.03-.11-.08-.15-.11-.21-.35-.66-.76-.37-.26-.13-.34-.16-.43-.06c-.6-.08-1.22-.14-1.82-.24-1.35-.21-2.83-.39-3.98-.71-1.06-.29-2.05-.45-3.17-.61-3.46-.5-6.89-.92-10.24-.98-.31,0-.67-.07-1.01-.11-1.28-.14-2.55-.28-3.83-.42l-1.91-.2-.83-.08h-.25s-.18-.14-.18-.14c-.29-.03-.58-.06-.87-.09-.16-.57-.34-1.14-.48-1.72-.33-1.34-.76-2.78-.88-4.01-.11-1.13-.34-2.12-.63-3.22-.83-3.12-1.74-6.16-2.96-8.99.32-.03.64-.06.96-.09.07-.03.16-.06.24-.09l.82-.28c.2-.07.49-.07.73-.12,1.52-.32,3.03-.64,4.54-.96,1.62-.47,3.23-1,4.84-1.59,1.44-.58,2.94-1.19,4.43-1.75,1.25-.44,2.44-.98,3.62-1.57,2.55-1.21,4.86-2.85,7.24-4.34l3.82-2.76c1.24-.96,2.42-2.01,3.63-3.01.4-.35.82-.69,1.18-1.09,1.21-1.26,2.43-2.54,3.63-3.8,1.13-1.33,2.28-2.61,3.49-3.79,1.07-1.2,1.92-2.43,2.83-3.71.31-.43.55-.9.81-1.37.71-1.25,1.42-2.5,2.14-3.75.68-1.27,1.26-2.58,1.94-3.83l.81-1.56.69-1.61,1.36-3.24c.39-1.1.72-2.22,1.07-3.34.34-1.12.71-2.23.9-3.39.49-2.36,1.02-4.87,1.49-7.14.65-3.06.88-6.16,1.02-9.21.1-2.11.1-4.21.14-6.28l.14-5.94.12-2.93.09-1.45.05-.72.02-.05.04-.1v-.04s.3-.29.3-.29l.65-.64,1.3-1.28,2.62-2.54c1.75-1.7,3.49-3.4,5.19-5.12.3-.3.65-.64.95-.86,1.08-.81,2.13-1.7,3.17-2.65.52-.49,1.03-.92,1.56-1.53.52-.57,1.01-1.02,1.51-1.55,1.17-1.1,2.53-2.64,3.79-4.21.3-.38.63-.8.95-1.24.34-.48.62-.88.99-1.58.19-.31.33-.78.37-.94.06-.24.12-.47.17-.69.17-.74.2-1.51.26-2.27.03-.4-.15-.71-.41-.97ZM57.25,77.59c.02-.12.05-.24.08-.37-.24-.08.04-.24.07-.34.1-.34.25-.67.5-.92.99-1.01,2.8-.27,3.58.91.78,1.18.99,2.65,1.71,3.87.96,1.61,2.72,2.58,4.49,3.21,13.34,4.72,21.98-6.23,27.57-16.53.56-1.03,1.82-2.67,3.08-2.84,1.45-.19,2.7,1.21,2.46,2.6-.83,4.94-3.12,9.7-6.06,13.73-4.93,6.78-12.98,12.32-21.83,11.53-7.59-.68-16.92-6.07-15.65-14.85ZM136.83,61.25c-.03.11-.06.23-.1.34-8.99,30.12-46.32,57.56-78.42,45.13-4.85-1.88-12.25-5.6-11.41-11.93.73-3.46,2.88-1.99,4.73-.46,3.94,3.26,9.27,5.14,14.18,6.38,22.32,5.63,46.56-8.5,59.36-26.2,1.22-1.69,2.31-3.42,3.33-5.19.13-.26.27-.51.39-.77,1.52-3.13,3.03-6.26,4.58-9.37.36-.72.83-1.53,1.62-1.68.87-.17,1.71.61,1.92,1.47.19.75.03,1.54-.18,2.29ZM144.47,32.8c-12.49,3.69-14.69-13.56-4.67-15.62,10.29-2.11,12.6,13.27,4.67,15.62Z"/>
</svg>