<?xml version="1.0" encoding="UTF-8"?>
<svg id="Layer_11" data-name="Layer 11" xmlns="http://www.w3.org/2000/svg" viewBox="0 0 314.01 288">
  <defs>
    <style>
      .cls-1 {
        fill: #737438;
      }
    </style>
  </defs>
  <path class="cls-1" d="M123.52,146.09c8.85.79,16.9-4.75,21.83-11.53,2.93-4.03,5.22-8.79,6.06-13.73.23-1.39-1.02-2.79-2.46-2.6-1.26.17-2.52,1.81-3.08,2.84-5.58,10.3-14.23,21.25-27.57,16.53-1.77-.63-3.53-1.6-4.49-3.21-.72-1.21-.93-2.69-1.71-3.87-.78-1.18-2.59-1.92-3.58-.91-.25.25-.4.58-.5.92-.03.1-.31.26-.07.34-.02.12-.06.24-.08.37-1.27,8.78,8.06,14.17,15.65,14.85Z"/>
  <path class="cls-1" d="M195.08,86.44c7.93-2.35,5.62-17.73-4.67-15.62-10.02,2.06-7.83,19.31,4.67,15.62Z"/>
  <path class="cls-1" d="M108.92,160.36c32.1,12.43,69.44-15.01,78.42-45.13.03-.11.07-.22.1-.34.21-.75.37-1.54.18-2.29-.22-.86-1.05-1.64-1.92-1.47-.79.16-1.26.96-1.62,1.68-1.56,3.11-3.06,6.24-4.58,9.37-.12.26-.26.51-.39.77-1.02,1.77-2.11,3.51-3.33,5.19-12.8,17.7-37.04,31.83-59.36,26.2-4.91-1.24-10.24-3.12-14.18-6.38-1.85-1.53-3.99-3-4.73.46-.84,6.33,6.56,10.05,11.41,11.93Z"/>
  <path class="cls-1" d="M313.94,236.38c-.1-2.72-.32-5.43-.58-8.13-.52-5.4-1.22-10.76-1.58-16.18-.3-4.52-.79-9.03-.9-13.56-.13-5.16-.02-10.31-.77-15.41-.39-2.65-.83-5.49-.6-8.11.57-6.71,0-13.06-1.72-19.17-1.13-4-1.05-7.97-.33-12.06.26-1.46.5-2.96.56-4.46.21-5.92.35-11.84.5-17.77.03-1.06.14-2.17,0-3.19-.82-6-.68-11.95-.38-18.08.51-10.47.37-21.01.56-31.52.03-1.63.34-3.25.52-4.88.18-1.64.49-3.27.52-4.91l.14-8.42.04-4.21c0-.16,0-.4,0-.6v-.62s-.04-1.24-.04-1.24c-.06-.83-.11-1.66-.2-2.48-.73-6.61-3.09-13.06-6.87-18.43-1.46-2.1-3.07-4.08-4.91-5.77-1.83-1.69-3.88-3.09-6.09-4-3.23-1.31-6.19-2.82-9.28-4.24-3.07-1.43-6.24-2.83-9.6-3.79-2.46-.72-5.03-1.3-7.62-1.6-2.31-.29-4.62-.52-6.93-.54-5.01-.04-10.05-.21-15.07-.04-3.97.07-7.94.32-11.87.97-.44.07-.89.12-1.35.15-1.48-.01-2.99-.11-4.47-.13-7.15-.1-14.3-.33-21.45-.34-2.3,0-4.61.05-6.91.12-1.31.03-2.61.07-3.92.11-2.48.06-4.95.09-7.42.02-4.65-.14-9.25-.42-13.88-.23-2.35.03-4.71.17-7.07.48-5.32.71-10.72,1.12-16.1,1.64-.17.02-.34.02-.52.03-.23,0-.45.01-.68.03-.66.01-1.32.01-1.98.05-.15,0-.3.01-.45.02-5.45,0-10.71-1.07-16.09-1.48-4.5-.34-8.98-1.05-13.31-1.93C106.8.67,97.64-.1,88.28.24c-1.92.04-3.85.12-5.79.25-.71.05-1.42.1-2.13.13-.63,0-1.25-.02-1.86-.07-4.09-.33-8.16-.7-12.19-.5-3.03.03-6.03.31-9.02,1.13-.09.03-.2.04-.3.06-.32-.01-.63-.02-.94,0-2.16.07-4.32.08-6.48.06l-1.62-.02h-.82s-.97,0-.97,0c-.59,0-1.18.02-1.77.05h-.17c-1.29,0-2.58.09-3.87.2-5.14.5-10.24,2.01-14.69,4.61-4.64,2.71-8.85,6.02-12.51,9.87-3.66,3.85-6.77,8.27-9.05,13.15-1,2.11-1.61,4.44-2.4,6.57-.16.45-.32.9-.47,1.36-.14.46-.26.92-.38,1.39-.26.93-.41,1.88-.57,2.82-.14.95-.22,1.91-.27,2.86-.01.48-.02.95-.03,1.43v.7s.02.59.02.59c.13,3.16.5,6.27,1.05,9.26.8,4.35.72,8.39.35,12.46-.45,5-.83,9.85-.23,14.91.34,2.86.51,6.04.09,8.83-.01,1.7-.04,3.4.02,5.1.11,3.02.86,5.68,1.63,8.54.13.49.14,1.01.15,1.51.02,1.74.04,3.48.06,5.22,0,.32,0,.64.11.94.09.26.24.5.39.73,3.87,6.09,4.33,14.62,2.88,21.5-1.11,5.28-1.32,10.64-1.8,15.95-.13.64-.26,1.27-.4,1.9-.29,1.32-.56,2.64-.8,3.97-.06.58-.11,1.15-.16,1.73-1.31,13.79-2.09,27.52-1.97,41.46.08,9.74.41,19.48.48,29.23.03,3.87.13,7.74.06,11.6-.02,2.17.04,4.43.22,6.65.19,2.23.47,4.46.82,6.73.35,2.11.97,4.33,1.88,6.43.91,2.1,2.13,4.08,3.52,5.74,3.5,4.17,7.39,7.76,11.66,10.84,4.27,3.08,8.92,5.65,13.99,7.6l1.38.48.7.23.71.2,1.43.38c.48.11.96.2,1.45.3.97.21,1.95.31,2.94.44.49.06.99.08,1.48.11l.74.04.37.02h.31c.97.04,1.94.06,2.91.06,2.05.02,4.11-.02,6.18-.1.89-.03,1.77-.06,2.66-.1.36-.02.73-.03,1.09-.04.79-.02,1.58-.03,2.38-.04,1.53,0,3.07.01,4.6.05,1.96.04,3.94.12,5.9.13.47,0,.94,0,1.4,0,.02-.02.03-.04.05-.06,3.19.04,6.36-.07,9.42-.76,2.05-.46,3.94-.87,6.12-.78,4.99.2,9.99.43,14.99.45,6.19.03,12.33.2,18.52.53,7.37.39,14.85-.18,22.29-.34,3.32-.07,6.65-.24,9.97-.18.27,0,.55.02.82.04-.05.05-.1.11-.15.16,1.82.19,3.64.49,5.44.44,2.47-.07,4.94-.15,7.41-.24,2.2-.08,4.4-.16,6.6-.24,7.45-.26,14.89-.47,22.36-.28-.02-.03-.04-.05-.06-.08,2.19.04,4.38.11,6.58.22,2.05.11,4.11.2,6.17.28.03.04.05.07.08.11,4.53.16,9.06.27,13.59.3,1.1,0,2.19-.02,3.29-.07,3.03-.08,6.07-.37,9.11-.56.35,0,.71.03,1.07.05,3.17.17,6.34.4,9.51.51.38.01.75.01,1.12.01-.09-.03-.17-.05-.25-.08-.01,0-.02,0-.03-.01.2,0,.41.02.61.03,4.09.13,7.35-.39,9.93-1.37.82.02,1.62.17,2.44.23,1.36.11,2.77-.34,4.15-.42,1.59-.09,3.18-.02,4.76.2.29.04.59.09.88.04.25-.04.49-.14.73-.2,1.17-.31,2.33.16,3.49.25,1.25.1,2.54.09,3.8.09.05,0,.09,0,.14,0,.8,0,1.6-.02,2.4-.06,2.55-.04,5.13-.31,7.75-.96,1.11-.25,2.19-.62,3.31-1.01,1.08-.44,2.2-.9,3.27-1.49,2.17-1.15,4.29-2.65,6.24-4.59,2-1.98,3.96-4.14,5.61-6.46,1.66-2.32,3-4.81,3.8-7.29,1.02-3.12,1.75-6.25,2.33-9.38.58-3.13,1.02-6.26,1.42-9.48.13-.89.18-1.78.23-2.67.05-.98.06-1.56.06-2.27.01-1.37-.01-2.74-.07-4.1ZM58.33,200.11c-3.12-2.21-6.14-4.74-7.36-8.5-.27-.82-.46-1.7-.31-2.55,1.29-7.45,12.76-18.66,17.57-24.1,2.65-3,5.37-5.95,8.08-8.9,2.04-2.22,6.7-5.73,7.26-8.73.16-.83.51-1.62.86-2.39,2.31-5.07,5.03-10.12,6.84-15.38.04-.11.03-.24.07-.34.13-.31.25-.61.5-.87.55-.55.79-1.28,1.07-1.98.04-.11.08-.22.14-.32.32-.6.65-1.19.95-1.8.27-.55.48-1.12.77-1.66,1.12-2.15,2.32-4.05,3.16-6.37.73-2.01,1.48-4.15,2.89-5.71,3.09-3.41,4.4-7.99,6.95-11.76.29-.43.6-.86,1-1.2.34-.28.74-.49,1.12-.72,2.44-1.47,3.33-4.38,5.03-6.51,2.3-2.89,4.77-5.75,7.35-8.39.42-.44.92-.82,1.36-1.24.61-.61,1.18-1.26,1.77-1.9l.17-.24c.82-.68,1.31-1.63,1.99-2.42,1.83-2.24,4.52-3.59,6.76-5.41,7.14-5.81,12.77-12.26,22.23-14.24,1.14-.24,2.55-.16,3.62-.59.35-.14.72-.26,1.11-.29.29-.03.56-.15.85-.22.84-.21,1.69-.44,2.55-.49,3.86-.24,7.91-.99,11.75-1.23.48-.03.97.08,1.45.1.5.01,1.01.05,1.5.1.71.07,1.43.05,2.13.15.19.03.4.12.56.06.48-.17.9.13,1.36.11.08,0,.15.03.22.09.36,0,.72,0,1.08,0,3.64.1,7.31.63,10.83,1.78.94.35,1.88.76,2.78,1.23,3.06,1.52,5.97,3.34,8.56,5.57.78.68,1.53,1.4,2.21,2.2.34.39.7.77,1.03,1.17l.56.72.17.21.25.02.69-.08c1.02-.12,2.04-.25,3.04-.37l2.19-.27,2.11-.3c1.36-.2,2.88-.43,4.3-.6.78-.09,1.67-.14,2.29-.32.94-.26,1.85-.39,2.81-.43,1-.05,1.99-.11,3.01-.17.31,0,.65.02.97.1.29.09.54.19.75.3.41.22,2.22.73,3.2,1.42.25.18.53.36.75.58.26.26.44.57.41.97-.06.76-.09,1.52-.26,2.27-.06.22-.11.45-.17.69-.04.17-.18.63-.37.94-.37.69-.65,1.1-.99,1.58-.32.45-.65.86-.95,1.24-1.26,1.57-2.63,3.12-3.79,4.21-.51.53-.99.99-1.51,1.55-.53.61-1.04,1.05-1.56,1.53-1.04.95-2.09,1.84-3.17,2.65-.3.23-.65.56-.95.86-1.7,1.73-3.44,3.43-5.19,5.12l-2.62,2.54-1.3,1.28-.65.64-.29.29v.04s-.05.1-.05.1l-.02.05-.05.72-.09,1.45-.12,2.93-.14,5.94c-.04,2.07-.03,4.17-.14,6.28-.15,3.06-.37,6.15-1.02,9.21-.47,2.26-1,4.78-1.49,7.14-.19,1.16-.57,2.27-.9,3.39-.35,1.12-.68,2.24-1.07,3.34l-1.36,3.24-.69,1.62-.81,1.56c-.68,1.25-1.26,2.56-1.94,3.83-.71,1.25-1.43,2.5-2.14,3.75-.26.47-.49.94-.81,1.37-.91,1.27-1.76,2.5-2.83,3.71-1.21,1.18-2.36,2.46-3.49,3.79-1.21,1.26-2.43,2.54-3.63,3.8-.36.4-.78.73-1.18,1.09-1.21,1.01-2.38,2.05-3.63,3.01l-3.82,2.76c-2.38,1.49-4.69,3.13-7.24,4.34-1.18.59-2.37,1.13-3.62,1.57-1.48.56-2.98,1.17-4.43,1.75-1.61.59-3.22,1.12-4.84,1.59-1.52.32-3.03.64-4.54.96-.24.05-.53.04-.73.12l-.82.28c-.08.03-.17.06-.24.09-.32.03-.64.06-.96.09,1.22,2.83,2.14,5.87,2.96,8.99.29,1.1.52,2.09.63,3.22.12,1.23.55,2.67.88,4.01.14.58.32,1.15.48,1.72.29.03.58.06.87.09l.18.13h.25s.83.08.83.08l1.91.2c1.27.14,2.55.28,3.83.42.34.04.7.1,1.01.11,3.35.06,6.78.48,10.24.98,1.12.16,2.11.33,3.17.61,1.16.31,2.63.49,3.98.71.6.1,1.22.16,1.82.24l.43.06.34.17.26.13.76.38.35.66.11.21.08.15.03.11c.05.21.1.41.15.61.06.27.12.54.18.81.1,1.28.18,2.61-.73,3.55l-1.83,2.08-.51.58-.75.17-.63.14c-.22.1-.84.07-1.05.08-.16.01-.31-.02-.46-.04l-.31-.04-.54-.07-2.18-.27-4.36-.51c-2.99-.35-5.94-.59-8.95-1.16-2.04-.38-4.29-.55-6.45-.79-2.16-.23-4.31-.47-6.46-.7-1.18-.14-2.36-.28-3.53-.42-1.18.27-2.36.54-3.53.82-1.32.32-2.63.64-3.94.96-4.42,1.12-8.83,2.11-13.3,2.95-.19.04-.38.07-.58.11l-.85.18c-.7.15-1.41.37-1.99.32-1.09.2-2.06-.4-2.77-1.15-.72-.76-1.23-1.72-1.56-2.7-.17-.47-.3-1.03-.35-1.43-.03-.2-.05-.43-.06-.66-.01-.21-.01-.46.01-.71.01-.23.05-.51.12-.8.05-.26.16-.58.3-.89.27-.62.84-1.28,1.52-1.68l.5-.29.22-.02c.63-.05,1.25-.08,1.86-.1,1.32-.05,2.47-.12,4.04-.6.66-.2,1.5-.32,2.19-.39,1.99-.22,3.9-.58,5.91-1.26,2-.29,3.95-.8,5.91-1.28l-.2-.68-1.28-4.23c-.88-2.9-1.88-5.69-2.5-8.74-.3-1.46-.78-2.94-1.26-4.42-2.59.02-5.19.01-7.79-.03l-.06-.05c-3.5-.34-6.99-.8-10.45-1.37-1.1-.18-2.32-.4-3.28-.44-1.45-.06-2.84-.27-4.21-.57-.68-.15-1.36-.33-2.03-.51-.81-.22-1.47-.5-2.14-.78-.95-.41-1.88-.67-2.82-.98-1.19-.4-2.43-.74-3.53-.97-.27-.06-.53-.1-.7-.12-.18-.01-.1,0-.16,0-.04,0-.15.04-.29.12-.15.09-.19.1-.49.38-.25.23-.54.64-.8.97-2.73,3.49-5.85,6.64-8.9,9.83-4.96,5.19-14.33,19.13-22.28,20.12-3.42.42-5.04-1.18-7.57-3.17-1.5-1.17-3.09-2.21-4.65-3.31ZM291.41,197.28c-.34.46-.73.72-1.1.96-3.87,2.36-7.55,1.56-11.22,1.63-4.07.08-8.08-.3-12.05-.87-4.21-.61-8.51-.86-12.76-.94-2.28-.01-4.54-.09-6.83.13-2.29.17-4.67.35-6.9,1.15-3.3,1.19-6.38,2.07-9.63,3.55-4.74,2.18-9.58,5.01-14.36,8.89-1.06.85-2.22,1.53-3.32,2.37-1.49,1.13-3.15,2.26-4.44,3.52-1.19,1.15-2.3,2.01-3.56,2.91l-1.37.96-.14.11c-.1.06-.2.11-.33.15-.28.08-.68.12-1.64.28-.18.03-.22.08-.31.12l-.33.14-.15.07.08.07.16.15.34.32.8.8.5.51c.23.21.18.27,1.05.87,1.33.99,2.65,1.97,3.97,2.96.52.4,1.14.68,1.72.99l.67.35.83.44-.08.34.14.09.35.23,1.39.92.62.41s.19,1.06.23,1.07c1.82.16,2.75,4.11,1.98,7.52-1.58,7.03-4.7,4.68-6.78,3.18-1.37-1.01-2.9-1.74-4.37-2.46-1.23-.6-2.5-.97-3.72-1.57-2.6-1.29-5.19-2.59-7.85-3.47-2.98-.97-6.02-1.54-9.08-1.56-.52,0-1.03-.02-1.55-.05-1.75,0-3.23.12-4.98.84-1.73.67-3.53,1.68-5.31,2.93-1.71,1.2-3.33,1.97-5.07,2.75-.59.25-1.17.36-1.78.57-1.62.6-3.28,1.04-4.96,1.27-.83.15-1.71.16-2.51.19-.77,0-1.54,0-2.31.01-5.05,0-9.82-.92-14.42-2.48-2.35-.8-4.86-1.66-7.19-1.91-3.15-.33-6.17-1.07-9.23-1.44-2.11-.25-4.21-.55-6.33-.46-4.1.07-8.3.85-12.56,2.04-.56.16-1.13.3-1.67.37-5.09.77-10.41,2.89-15.73,4.76-.47.16-1,.39-1.42.66-2.97,1.95-6.14,3.32-9.43,4.48-2.66,1.22-6.31,1.69-9.12,1.55l-1.1-.06-.09-.07c-1.5-1.16-2.69-3.4-3.11-6.45-.07-.49-.12-1.01-.03-1.57.12-.77.47-1.47.6-2.24.15-.89,0-1.69-.06-2.52-.07-1.01.02-2.02.21-3.01.36-1.8,1.08-3.53,1.83-5.08.51-1.05.93-1.89,1.56-3.1,0,0,.24-.36.23-.39.78-1.26,1.46-2.08,2.31-2.97.17-.17.36-.39.55-.54.28-.21.58-.51.9-.75.32-.23.66-.37,1.01-.52.46-.22.95-.44,1.4-.65,3.2-1.39,6.42-2.53,9.67-3.92,2.21-.95,4.52-1.87,6.8-2.69,2.19-.8,4.41-1.79,6.58-2.38,3.59-.95,7.15-1.62,10.76-2.38,1.07-.2,2.16-.51,3.2-.54,1.94-.04,3.8,0,5.75.31.14.02.27.06.4.08,0,.03,0,.07,0,.1.02.4.05.76.1,1.1.1.75.31,1.61.59,2.38.6,1.72,1.52,3.26,2.68,4.48,1.69,1.76,3.82,2.72,5.99,2.72.23,0,.45-.01.68-.03.98,0,1.84-.21,2.47-.36l.35-.08.78-.17.54-.1c4.53-.84,9.02-1.83,13.69-3.01l3.93-.95,2.71-.62,2.75.32,6.51.7c.62.07,1.24.13,1.87.2,1.54.16,3,.3,4.29.54.05,0,.09.02.14.02-2.02,1.17-3.14,1.83-1.66,1.35.24-.08.45-.26.63-.49.77-.2,1.54-.42,2.32-.64,1.95.31,3.85.52,5.7.72.75.08,1.5.16,2.26.25l4.37.51,2.17.27s.92.12.95.12c.17.02.52.07.97.07.1,0,.31,0,.31,0,.64,0,1.36-.03,2.13-.25l1.19-.27c1.03-.23,1.95-.78,2.65-1.56l2.29-2.58c2.42-2.56,2.16-5.74,2.04-7.29-.02-.23-.05-.45-.1-.68l-.18-.8c-.01-.05-.23-.9-.23-.9-.01-.04-.03-.09-.04-.13,2.87-1.44,5.74-2.88,8.58-4.31,4.98-2.59,9.92-5.07,15.03-8.83.46-.34.94-.51,1.41-.83,4.12-2.81,8.23-5.9,12.26-9.55,2.85-2.59,5.62-5.64,8.39-8.68,1.32-1.37,2.64-2.75,3.97-4.12.8-.86,1.61-1.67,2.39-2.63,2.1-2.49,4.17-5.18,6.22-7.9.6-.81,1.22-1.62,1.78-2.46,2.13-3.21,5.19-8.34,6.47-2.43.74,3.42-.77,7.15-2.48,9.64-.51.7-.96,1.24-1.3,1.67l-.21.27-.19.27-.63.9c-1.67,2.38-3.38,4.46-5.08,6.38-.44.51-.98,1.05-1.31,1.56-.63.97-1.28,1.86-1.93,2.69-.31.41-.58.72-.91,1.07-.63.68-1.41,1.46-2.1,2.39-.52.69-1.2,1.54-1.41,2.19l-.1.32-.05.15.17-.02.73-.14c.46-.08.85-.14,1.19-.15.69-.02,1.13.13,1.71.62.19.16.48.25.8.29.59.04,1.21.07,1.79.11l20.59.81c1.38.06,2.84.16,4.06.5,2.29.64,4.48.51,6.78.02.76-.16,1.69-.31,2.41-.18,1.71.3,3-.1,4.46-.61.46-.15.93-.31,1.4-.47,1.28-.43,2.71,1.98,3.3,3.56,1.11,2.95-.42,8.44-2.31,10.96Z"/>
</svg>