<?xml version="1.0" encoding="UTF-8"?>
<svg id="Layer_11" data-name="Layer 11" xmlns="http://www.w3.org/2000/svg" viewBox="0 0 182.6 324">
  <defs>
    <style>
      .cls-1 {
        fill: #737438;
      }
    </style>
  </defs>
  <path class="cls-1" d="M181.27,163.56c-.68-9.74-1.99-25.75-15.6-24.59-2.37.2-2.98,1.36-4.75,2-.34.12-.32.47-.69-.06-.64-.9-.65-4.52-.85-5.9-.64-4.58-1.13-9.59-1.98-14.08-1.78-9.41-9.15-19.35-13.36-28.09-8.77-18.22-16.39-37.03-26.22-54.74-4.89-8.81-10.34-16.07-10.78-26.8-.12-2.79,1.49-8.9-.97-10.61-1.68-1.17-2.29.75-3.19,1.76-.7-2.8-2.73-2.75-4.02-.33-3.33-4.63-5.29-.84-4.98,3.38.4,5.37,4.22,14.03,3.14,18.89-.21.95-1.2,1.54-2.09,1.76-1.22.3-6.04.3-7.24,0-.65-.16-1.63-.67-1.92-1.29-1.56-3.3,2.64-14.95,2.97-19.36.32-4.21-1.65-8.01-4.98-3.38-1.45-2.54-3.12-2.37-4.18.33-1.22-3.25-4-2.44-4.34.8-.39,3.73.54,7.11-.04,11.21-1.33,9.51-5.85,15.48-10.3,23.43-9.92,17.74-17.54,36.67-26.33,54.95-4.22,8.77-11.57,18.65-13.36,28.09-.85,4.5-1.33,9.49-1.98,14.08-.14,1.02-.31,6.16-1.16,6.22-4.78-3.76-11.11-2.8-15.11,1.61-5.71,6.29-5.11,16.61-5.62,24.58-.91,14.29-1.58,28.72-1.3,43.06.44,23.13.2,47.17,4.29,69.92,2.23,12.39,5.5,34.03,16.76,41.39,6.47,4.22,21.38,1.53,27.46-2.76,2.93-2.07,1.65-5.79-1.6-5.46-2.09.21-8.53,4.42-8.98,0-.09-.91,2.31-8.18,2.8-9.7.79-2.47,1.82-4.85,2.67-7.29.64-1.83,1.38-7.21,3.43-7.51,2.94,1,5.65,2.89,8.54,4.19,16.83,7.53,39.57,8.48,57.47,4.66,7.81-1.67,15.24-4.75,22.1-8.76,2.74-.79,3.5,5.5,4.16,7.43.85,2.44,1.87,4.82,2.67,7.29.49,1.52,2.9,8.79,2.8,9.7-.45,4.42-6.89.22-8.98,0-2.17-.22-3.81,1.68-3.16,3.81.73,2.41,9.41,4.97,11.82,5.53,12.46,2.9,19.79.23,25.67-11.29,6.24-12.23,9.92-37.77,10.96-51.69,1.56-20.75,1.27-42.47,1.62-63.27.18-10.57-.56-22.49-1.3-33.11ZM106.29,252.77c.93-3.59,3.9-6.05,7.38-6.13h.17c3.43,0,6.45,2.28,7.51,5.67,1.03,3.32-.09,6.7-2.87,8.62-1.15.8-3.01,1.27-4.95,1.27-1.1,0-2.67-.15-3.9-.87-2.93-1.71-4.23-5.07-3.33-8.56ZM92.24,263.98c.18-.64.73-1.72,2.35-1.72.35,0,.69.05.99.09.19.03.38.06.49.06.73-.08.83-1.36.9-3.17.07-1.89.16-4.04,1.95-4.5.15-.04.3-.06.46-.06.97,0,1.99.71,2.47,1.38,1.21,1.7,1,4.53.4,6.61-.72,2.49-2.06,4.36-3.58,4.99-.53.22-1.19.34-1.9.34h0c-1.32,0-3.19-.44-4.11-1.67-.52-.69-.66-1.5-.42-2.35ZM82.35,254.76c.29-.09.57-.13.83-.13,2.23,0,2.36,2.5,2.47,4.5.07,1.29.16,3.06.8,3.24,0,0,.03,0,.09,0,.14,0,.34-.03.55-.06.28-.04.6-.09.93-.09,1.24,0,1.88.73,2.21,1.34.41.78.41,1.61,0,2.35-.78,1.41-2.76,2.07-3.83,2.15-.13.01-.26.02-.39.02-3.41,0-5.44-3.47-5.93-6.92-.39-2.74.16-5.78,2.29-6.41ZM48.97,256.79c-1.14,1.99-1.61,5.5-4.34,5.46-8.43-.14-15.51-10.06-18.13-17.16-7.4-20.05.22-40.39,8.12-58.87,2.28-5.33,5.43-15.04,11.96-15.99,4.72-.68,8.05,2.42,10.62,5.92,8.77,11.89,14.06,26.62,17.57,40.9,1.44,5.84,3.26,9.68-.96,14.79-7.15,8.65-19.04,14.84-24.84,24.95ZM74.66,260.09c-1.27,1.35-3.35,2.13-5.68,2.13h0c-2.06,0-4-.61-5.3-1.68-2.56-2.09-3.45-5.33-2.33-8.46,1.15-3.24,4.13-5.41,7.4-5.41.88,0,1.78.15,2.65.46,2.44.85,4.3,3,4.97,5.75.66,2.68.02,5.38-1.71,7.22ZM122.31,282.08c-6.09,5.05-17.72,8.07-31.11,8.07,0,0,0,0,0,0-9.49,0-18.3-1.5-24.18-4.1-1.82-.81-7.4-3.72-9.14-6.45-.74-1.16-.92-2.04-.55-2.71.15-.28.54-.76,1.41-.76.24,0,.5.04.79.11,1.7.42,3.6,1.35,5.6,2.34,1.63.8,3.32,1.64,4.81,2.12,2.13.69,4.96,1.46,6.52,1.55.06,0,.11,0,.17,0,1.38,0,3.27-.94,4.93-1.76.95-.47,1.85-.92,2.69-1.23,2.91-1.07,5.03-1.53,7.08-1.53s4.17.46,7.08,1.53c.79.29,1.73.76,2.72,1.25,1.55.77,3.48,1.73,4.52,1.76h.1c1.48,0,4.55-.81,6.73-1.5,1.59-.5,3.31-1.35,4.97-2.17,1.91-.94,3.71-1.82,5.42-2.28.38-.1.79-.21,1.25-.21.15,0,.3.01.46.04.21.03.4.13.55.28.3.29.45.7.43,1.15-.08,1.76-3.2,4.48-3.23,4.51ZM153.38,251.01c-2.81,4.86-9.43,11.15-15.38,11.25-2.72.04-3.2-3.47-4.34-5.46-5.79-10.09-17.68-16.32-24.84-24.95-4.2-5.07-2.45-8.71-1.03-14.53,2.55-10.44,6.3-22.14,11.54-31.51,2.74-4.9,8.11-14.61,13.99-15.57,5.46-.89,8.73,3.23,10.97,7.51,2.9,5.55,5.72,13.06,7.99,18.99,6.56,17.16,10.88,37.33,1.1,54.27Z"/>
</svg>