<?xml version="1.0" encoding="UTF-8"?>
<svg id="Layer_11" data-name="Layer 11" xmlns="http://www.w3.org/2000/svg" viewBox="0 0 197.64 160.86">
  <defs>
    <style>
      .cls-1 {
        fill: #737438;
      }
    </style>
  </defs>
  <path class="cls-1" d="M197.19,14.58c-.24-.24-.54-.44-.82-.63-1.07-.75-3.04-1.3-3.49-1.55-.22-.12-.5-.24-.81-.33-.34-.08-.72-.12-1.06-.11-1.11.06-2.19.12-3.28.18-1.04.05-2.03.19-3.06.47-.68.2-1.65.24-2.5.35-1.56.19-3.21.44-4.69.66l-2.3.33-2.39.3c-1.08.13-2.19.27-3.31.4l-.76.09-.27-.02-.18-.23-.61-.79c-.35-.44-.75-.85-1.12-1.28-.73-.87-1.55-1.65-2.41-2.4-2.82-2.44-6-4.41-9.34-6.07-.98-.51-2.01-.96-3.03-1.34-3.85-1.26-7.84-1.83-11.81-1.94-.39-.01-.79,0-1.18,0-.07-.06-.15-.1-.24-.1-.5.03-.96-.3-1.48-.12-.18.06-.41-.03-.61-.06-.77-.11-1.55-.08-2.33-.16-.53-.05-1.08-.1-1.63-.11-.53-.02-1.05-.14-1.58-.1-4.19.26-8.6,1.09-12.81,1.35-.93.06-1.86.3-2.78.53-.31.08-.61.2-.92.24-.43.04-.83.16-1.21.32-1.17.47-2.71.38-3.95.64-10.31,2.16-16.45,9.19-24.23,15.52-2.45,1.99-5.37,3.46-7.37,5.9-.74.86-1.28,1.9-2.17,2.64l-.18.26c-.64.69-1.26,1.41-1.93,2.07-.48.46-1.02.87-1.48,1.35-2.81,2.88-5.51,6-8.01,9.15-1.85,2.32-2.82,5.49-5.48,7.1-.42.25-.85.47-1.23.78-.44.36-.77.83-1.09,1.3-2.78,4.11-4.21,9.11-7.58,12.82-1.54,1.69-2.35,4.04-3.15,6.22-.92,2.53-2.22,4.6-3.45,6.95-.31.59-.55,1.21-.84,1.8-.33.67-.69,1.31-1.04,1.97-.06.11-.1.23-.15.35-.3.77-.57,1.56-1.17,2.16-.28.29-.41.62-.55.95-.05.11-.04.25-.08.37-1.98,5.74-4.94,11.24-7.46,16.77-.38.84-.77,1.69-.94,2.6-.61,3.27-5.7,7.09-7.92,9.51-2.95,3.22-5.91,6.43-8.81,9.7-5.24,5.93-11.49,12.23-12.89,20.35-.16.93.04,1.88.34,2.78,1.33,4.1,4.62,6.86,8.02,9.26,1.69,1.2,3.43,2.32,5.07,3.6,2.76,2.17,4.52,3.91,8.25,3.45,8.67-1.07,12.62-10.35,18.03-16,3.33-3.48,6.73-6.92,9.7-10.72.28-.36.59-.81.87-1.06.32-.31.37-.32.53-.41.15-.09.27-.13.31-.13.06,0-.02,0,.17,0,.18.02.47.07.76.13,1.2.26,2.55.63,3.85,1.06,1.02.34,2.04.63,3.07,1.07.73.31,1.45.61,2.33.85.73.2,1.47.4,2.22.56,1.49.33,3.01.56,4.59.63,1.04.04,2.38.29,3.57.48,3.77.62,7.57,1.13,11.39,1.5l.27.25.62.04,1.93.13c.44-.07.65.26.97.56l1.08,1.04c-.28.09-.56.18-.82.27-2.3.81-4.47,1.22-6.74,1.47-.75.08-1.67.21-2.39.43-1.71.52-2.97.6-4.41.65-.67.03-1.34.06-2.03.11l-.24.02-.55.32c-.75.43-1.37,1.15-1.66,1.83-.16.34-.28.69-.33.97-.08.32-.12.61-.13.87-.02.28-.03.54-.01.78,0,.25.03.5.06.72.05.44.2,1.04.38,1.55.36,1.07.92,2.12,1.71,2.95.77.81,1.83,1.47,3.02,1.25.63.06,1.41-.18,2.17-.35l.92-.2c.21-.04.42-.08.63-.12,4.87-.92,9.67-1.99,14.49-3.22,1.43-.35,2.86-.7,4.3-1.05,1.28-.3,2.56-.59,3.85-.89,1.28.15,2.57.3,3.85.46,2.35.26,4.7.51,7.05.77,2.35.27,4.81.44,7.03.86,3.29.62,6.5.88,9.76,1.27l4.75.56,2.38.3.59.08.34.05c.17.02.34.06.51.04.23-.01.9.02,1.14-.09l.69-.16.82-.19.55-.63,2-2.27c1-1.03.91-2.48.8-3.87-.06-.29-.13-.59-.19-.88-.05-.22-.11-.44-.17-.66l-.03-.13-.09-.17-.12-.23-.39-.72-.83-.41-.28-.14-.37-.18-.47-.06c-.65-.08-1.33-.16-1.98-.26-1.47-.23-3.08-.43-4.34-.77-1.16-.32-2.24-.49-3.45-.67-3.77-.55-7.51-1-11.17-1.07-.33,0-.73-.07-1.1-.12-1.39-.15-2.78-.31-4.17-.46l-2.08-.22-.9-.09h-.28s-.29-.23-.29-.23l-.23-.15-.6-.41-.38-.27c.07-.05.22-.09.34-.14l.89-.31c.22-.08.54-.07.79-.13,1.65-.35,3.3-.7,4.95-1.05,1.76-.51,3.52-1.09,5.27-1.74,1.57-.63,3.21-1.3,4.83-1.91,1.37-.48,2.65-1.07,3.95-1.71,2.78-1.32,5.3-3.1,7.89-4.73l4.16-3.01c1.36-1.04,2.63-2.19,3.95-3.28.43-.38.9-.75,1.28-1.18,1.32-1.38,2.65-2.77,3.96-4.15,1.23-1.45,2.49-2.84,3.8-4.13,1.17-1.31,2.1-2.65,3.09-4.04.34-.47.6-.98.88-1.49.77-1.36,1.55-2.73,2.33-4.09.74-1.38,1.38-2.81,2.11-4.17l.89-1.7.76-1.76,1.48-3.53c.43-1.2.79-2.42,1.17-3.64.37-1.22.77-2.43.98-3.7.54-2.57,1.11-5.31,1.63-7.78.71-3.33.96-6.71,1.12-10.04.11-2.3.11-4.59.15-6.84l.15-6.48.13-3.19.09-1.58.06-.79.02-.05.04-.11v-.05s.33-.32.33-.32l.71-.7,1.42-1.39,2.85-2.77c1.9-1.85,3.8-3.7,5.65-5.58.33-.33.71-.69,1.04-.94,1.17-.88,2.32-1.85,3.46-2.89.57-.53,1.12-1.01,1.7-1.67.57-.62,1.1-1.12,1.65-1.69,1.27-1.19,2.76-2.88,4.14-4.59.33-.42.68-.87,1.03-1.36.37-.52.68-.96,1.08-1.72.2-.34.36-.85.4-1.03.06-.26.13-.51.19-.76.18-.81.21-1.65.28-2.47.04-.44-.16-.77-.44-1.06ZM56.31,83.81c.11-.38.28-.73.55-1.01,1.08-1.1,3.05-.29,3.9.99.85,1.28,1.08,2.89,1.87,4.22,1.05,1.76,2.96,2.81,4.89,3.5,14.54,5.14,23.97-6.79,30.05-18.02.61-1.12,1.98-2.91,3.35-3.09,1.58-.21,2.94,1.32,2.69,2.84-.91,5.38-3.41,10.57-6.6,14.97-5.38,7.39-14.15,13.43-23.8,12.57-8.27-.74-18.45-6.62-17.06-16.19.02-.13.05-.26.08-.4-.27-.08.04-.26.08-.37ZM142.89,66.77c-.03.12-.07.25-.11.37-9.8,32.83-50.49,62.74-85.49,49.19-5.29-2.05-13.35-6.1-12.44-13.01.8-3.77,3.14-2.17,5.15-.5,4.29,3.55,10.11,5.6,15.46,6.95,24.33,6.14,50.76-9.27,64.7-28.56,1.33-1.84,2.52-3.73,3.63-5.66.14-.28.29-.56.43-.84,1.66-3.41,3.3-6.82,5-10.21.39-.79.9-1.66,1.76-1.83.95-.19,1.86.66,2.1,1.6.2.82.03,1.67-.2,2.49ZM151.22,35.75c-13.62,4.03-16.01-14.78-5.09-17.02,11.21-2.31,13.73,14.47,5.09,17.02Z"/>
</svg>