<?xml version="1.0" encoding="UTF-8"?>
<svg id="Layer_11" data-name="Layer 11" xmlns="http://www.w3.org/2000/svg" viewBox="0 0 270 239.04">
  <defs>
    <style>
      .cls-1 {
        fill: #737438;
      }
    </style>
  </defs>
  <path class="cls-1" d="M215.01,239.04c-4.32,0-7.99-.46-10.89-1.38-1.06-.34-2.17-.85-3.34-1.39-1.62-.75-3.3-1.52-5.02-1.89-1.63-.35-3.27-.39-4.81-.39h-1.79c-.74,0-1.61,0-2.46-.08-4.46-.38-7.96-2.42-11.66-4.56-2.4-1.39-4.89-2.84-7.71-3.85-5.29-1.9-10.74-2.83-16.68-2.83-8.35,0-16.66,1.87-24.7,3.68-3.24.73-6.59,1.48-9.94,2.12-2.75.52-5.57.97-8.3,1.4-3.2.51-6.5,1.03-9.75,1.68-2.59.52-5.26,1.17-7.84,1.79-3.49.85-7.1,1.72-10.56,2.29-1.17.19-2.38.29-3.6.29-6.23,0-12.22-2.52-15.63-6.58-2.69-3.19-3.7-7.19-2.94-11.57.08-.46.28-1.16.5-1.9.56-1.91,1.14-3.88.73-5.28-.36-1.23-1.26-1.97-2.4-1.97-1.44,0-2.82,1.23-3.93,2.23-.26.23-.55.49-.68.58-2.73,1.88-5.61,2.83-8.58,2.83-11.21,0-22.65-13.46-29.05-24.99-8.65-15.59-11.14-27.79-12.51-43.59-1.26-14.49-2.18-27.54-.68-40.45,2.2-18.99,9.32-37.83,20.6-54.46,11.18-16.49,25.97-30.15,42.76-39.49C74.74,5.36,83.56,1.75,97.19.78c7.42-.53,14.11-.78,20.45-.78,21.11,0,39.44,2.95,57.68,9.28,32.28,11.2,57.06,25.96,73.06,61.57l.56,1.24c3.18,7.04,6.78,15.02,5.67,22.62-.6,4.12-7.27,6.62-12.14,8.44-1.47.55-2.86,1.07-4,1.6-13.16,6.03-21.69,12.97-30.42,24.73-.14.18-.28.37-.43.55-.98,1.24-2.62,3.32-1.14,5.85.12.2.27.37.46.5.74.51,1.52.77,2.3.77,2.21,0,3.6-1.96,4.72-3.54.35-.49.67-.95.95-1.25,4.82-5.21,11.37-11.77,19.25-16.22,3.68-2.08,7.58-3.69,11.36-5.26,2.39-.99,4.86-2.01,7.28-3.15,1.14-.54,2.36-1.26,3.66-2.03,2.89-1.71,6.17-3.65,8.87-3.65,1.07,0,1.97.31,2.77.94,3.66,2.9,1.45,7.35-2.07,13.33-.93,1.59-1.82,3.08-2.41,4.45-.77,1.76-1.4,3.92-2.08,6.2-1.07,3.6-2.17,7.33-3.73,9.25-4.43,5.46-15.07,8.48-24.45,11.15-4.31,1.23-8.38,2.38-11.53,3.69-9.71,4.03-11.21,10.29-12.81,16.92-.61,2.54-1.24,5.17-2.35,7.94-4.86,12.18-15.34,21.88-28.01,25.94-3.4,1.09-6.81,1.57-11.06,1.57-1.99,0-3.95-.1-6.01-.21-2.1-.11-4.28-.22-6.53-.22-1.17,0-2.26.03-3.33.09-4.04.23-8.84,1.67-13.92,3.19-5.71,1.71-11.62,3.48-16.46,3.48-2.07,0-3.77-.32-5.19-.97-2.15-.99-4.03-3.21-4.92-5.79-.76-2.22-.68-4.39.21-6.1.46-.88,1.21-1.01,1.62-1.01.56,0,1.13.22,1.59.63.11.12.4.64.6.99.74,1.32,1.67,2.97,3.32,2.97.46,0,1.14-.14,1.8-.81.47-.47.99-1.33.8-2.74-.29-2.19-2.22-4.89-3.69-5.75-.58-.34-1.28-.51-1.88-.66-.02,0-.05-.01-.08-.02.46-.53.92-1.06,1.38-1.58,3.72-4.24,7.24-8.25,10.04-13.34,2.16-3.92,3.63-8.31,5.05-12.56,2.19-6.55,4.26-12.74,8.6-17.24,2.61-2.71,5.89-5.48,9.36-8.42,8.75-7.41,18.67-15.82,21.22-26.18.67-2.72.9-5.48,1.12-8.15.22-2.74.44-5.32,1.09-7.89,2.69-10.63,8.13-17.59,14.43-25.66.8-1.03,1.62-2.08,2.45-3.15,1.06-1.38,2.11-2.89,3.11-4.34,1.47-2.12,2.98-4.3,4.56-6.1.39-.44,1.09-1.14,1.8-1.79-.43,2.08-1.08,4.14-1.75,6.28-.69,2.22-1.41,4.51-1.88,6.87-1.13,5.63-.46,10.46.18,15.14.47,3.46.92,6.73.7,10.32-.22,3.48-1.31,5.23-2.57,7.26-.85,1.36-1.81,2.91-2.53,5.05-1.13,3.38-.77,6.73,1.01,9.2,1.53,2.13,3.96,3.35,6.66,3.35,1.54,0,3.12-.38,4.7-1.14.56-.27,3.49-2.11,3.74-4.31.1-.88-.24-1.71-.94-2.27-.88-.71-1.98-.79-2.73-.79-.7,0-1.45.09-2.16.17-.67.08-1.3.15-1.84.15-.67,0-.86-.12-.88-.13,0,0-.05-.1-.05-.37-.03-1.26,1.2-3.24,2.28-5,.73-1.18,1.42-2.3,1.86-3.36,2.63-6.34,1.55-12.54.51-18.54-.41-2.38-.84-4.83-1.02-7.22-.3-4.08.87-7.89,2.11-11.92.95-3.11,1.94-6.33,2.16-9.64.19-2.85-.37-5-1.68-6.4-.93-1-2.19-1.53-3.64-1.53-1.75,0-3.74.79-5.75,2.28-.06.04-.12.09-.17.15-5.61,5.57-11.69,12.6-18.06,20.9-6.9,9-11.83,20.13-13.17,29.76-.2,1.46-.32,2.86-.42,4.21-.26,3.2-.5,6.22-1.93,9.34-2.02,4.41-8.23,10.76-11.21,13.82-2.86,2.93-6.03,5.67-9.09,8.31-.62.53-1.24,1.07-1.86,1.61.92-2.55,1.87-5.08,2.79-7.55,6.78-18.12,13.19-35.24,8.11-55.89-5.93-24.08-21.81-36.81-45.93-36.81-1.87,0-3.82.08-5.79.23-26.15,2.03-50.09,33.51-56.8,43.11-1.61,2.3-3.13,4.77-4.6,7.16-1.76,2.86-3.58,5.82-5.53,8.43-.29.39-.84,1-1.41,1.64-2.61,2.9-4.43,5.11-4.13,7.04.29,1.85,1.54,3,3.28,3,1.62,0,3.23-.98,4.13-1.83,4.26-4.01,7.64-9.48,10.91-14.77,1.6-2.59,3.12-5.04,4.71-7.28,9-12.7,29.17-34.12,45.01-37.54,3.8-.82,7.58-1.24,11.23-1.24,14.88,0,26.5,6.69,32.7,18.84,11.84,23.19,3.89,44.31-4.53,66.68-2.45,6.5-4.98,13.22-6.97,19.96-.91,3.09-1.53,5.82-2.14,8.47-1.49,6.55-2.67,11.72-7.28,18.32-1.56,2.24-3.53,4.38-5.61,6.64-6.42,6.99-13.7,14.91-7.36,26.29,3.32,5.96,8.61,8.86,16.18,8.86,5.92,0,12.3-1.73,18.47-3.41,4.73-1.28,9.2-2.5,12.88-2.74.75-.05,1.53-.07,2.37-.07,2.21,0,4.49.18,6.69.35,2.25.18,4.59.36,6.91.36,1.78,0,3.37-.11,4.88-.32,2.27-.33,4.61-1.15,6.87-1.94,2.09-.73,4.06-1.43,5.63-1.6.43-.05.92-.07,1.48-.07,5.41,0,15.27,2.13,19.18,4.14,1.41.73,2.69,1.7,4.04,2.72,1.19.9,2.42,1.83,3.78,2.61,1.12.64,2.24,1.08,3.33,1.5.94.36,1.83.71,2.64,1.16,3.35,1.86,11.77,9.22,12.57,12.2.36,1.33.27,2.37-.26,3.16-1.44,2.12-6.04,2.67-9.09,3.03l-.47.06c-2.77.33-5.61.51-8.2.51ZM154.56,176.66c-2.61,0-3.39,1.69-3.61,2.42-.4,1.34-.2,2.66.57,3.81,1.78,2.65,6.14,3.76,8.43,3.99.64.07,1.33.1,2.06.1,6.8,0,16.08-2.81,19.91-8.03,1.27-1.73,1.62-3.86.89-5.31-.54-1.07-1.6-1.68-2.91-1.68-.35,0-.73.04-1.11.13-.93.21-1.84.97-3.12,2.11-.47.42-.96.86-1.27,1.06-3.06,2.03-7.14,3.24-10.9,3.24-.61,0-1.21-.03-1.78-.1-.44-.05-1.31-.34-2.16-.61-1.61-.53-3.43-1.12-5-1.12Z"/>
  <path class="cls-1" d="M237.88,182.73c-3.01,0-5.95-.2-9.07-.42-1.72-.12-3.5-.24-5.28-.33-.19,0-.44-.01-.74-.01-.5,0-1.14.01-1.87.02-.94.02-2.03.03-3.12.03-2.73,0-4.06-.12-4.71-.23.18-.84.75-2.18,1.26-3.37.45-1.06.92-2.15,1.2-3.07.58-1.89.98-3.69,1.33-5.27,1.18-5.34,1.97-8.87,8.32-11.47,2.17-.89,4.67-1.62,7.09-2.33,1.76-.52,3.58-1.05,5.29-1.65,1.41-.49,3.12-1.21,4.93-1.96,3.24-1.35,6.91-2.89,9.2-3.26.33-.05.6-.08.82-.08.47,0,.65,0,1.24,1.34,1.89,4.29-1.34,17.67-3.67,23.95-.95,2.56-2.73,7.33-5.75,7.73-2,.26-4.11.39-6.45.39Z"/>
  <path class="cls-1" d="M225.47,213.18c-3.75,0-6.98-2.42-10.41-4.98-2.19-1.64-4.46-3.33-6.94-4.4-2.55-1.1-5.09-1.65-7.55-2.18-.9-.19-1.81-.39-2.73-.62.21-.25.56-.55,1.13-.98.41-.3.82-.62,1.22-1,1.75-1.7,3.43-3.49,5.05-5.23.81-.87,1.63-1.75,2.46-2.61,2.61-.99,5.49-1.45,9.04-1.45,2.99,0,6.1.34,9.1.66,1.62.17,3.29.36,4.92.48.79.11,1.66.17,2.66.17,1.56,0,3.22-.14,4.83-.28,1.57-.13,3.18-.27,4.66-.27,1.69,0,3.02.18,4.04.56,3.81,1.4,7.97,4.47,8.53,7.63.3,1.67-.45,3.24-2.28,4.81-4.69,4.01-20.95,9.17-27.02,9.66-.24.02-.47.03-.71.03Z"/>
</svg>