<?xml version="1.0" encoding="UTF-8"?>
<svg id="Layer_11" data-name="Layer 11" xmlns="http://www.w3.org/2000/svg" viewBox="0 0 324.89 151.87">
  <defs>
    <style>
      .cls-1 {
        fill: #737438;
      }
    </style>
  </defs>
  <path class="cls-1" d="M324.36,125.58c-2.78-5.63-11.86-8.17-17.17-10.64-5.4-2.5-10.51-5.69-16.34-7.19-3.48-.9-7.13-1.07-10.6-1.97-6.7-1.74-10.43-7.01-15.54-11.21-7.37-6.06-14.25-10.29-22.95-14.23-28.48-12.9-58.39-23.68-88.64-31.7-9.4-2.49-19.52-4.06-28.73-6.84-2.54-.76-10.1-3.58-11.29-5.82-1.98-17.06-17.26-31.26-33.57-34.89C74.56,0,67.7-.25,62.62.25,46.37,1.84,28.77,15.73,25.31,31.93c-1.4,6.57-1.76,12.46-.84,19.14,1.17,8.48,2.9,14.09,2.37,23.04-1.01,16.98-.75,28.05,6.04,42.66.59,1.28.25.63.94,1.96.92,1.77,3.06,3.29.5,4.25-5.69,2.13-14.53,5.35-18.73,5.81-4.3.47-8.64,1.74-12.62,3.55-3.35,1.52-4.27,5.16-.65,6.93,4.24,2.08,12.85,1.67,17.7,1.82,5.33.16,10.62.73,15.92-.39,3.77-.79,10.92-3.99,14.3-3.63,1.55.17,5.94,2.49,7.81,3.15,8.14,2.88,17.03,3.86,25.61,4.34.54.03,1.04.31,1.59.28,11.22,1.07,24.36-2.36,35.12.72,7.5,2.15,14.01,5.68,22.12,6.22,8.64.57,26.06-2.71,33.28-7.64,2.05-1.4,3.35-2.82,2.84-5.48-.85-4.44-9.11-10.98-12.74-13.74-12.6-9.59-30.69-18.27-46.43-11.17-1.55.7-3.45,2.54-4.55,2.76-2.05.41-4.34-2.79-2.25-5.33,2.6-3.17,10.63-5.85,14.65-6.48,12.38-1.93,26.57,3.64,36.62,10.57,4.82,3.32,10.97,7.84,15.05,11.96,4.11,4.14,6.7,9.67,13.14,10.96,10.04,2.01,21.05-.67,31.42-1.4,12.75-.89,22.91-4.26,35.11-6.34,10.74-1.83,21.62-.07,32.54-.62,6.43-.32,13.1-1.23,19.54-.81,3.34.22,7.57,1.83,10.7,1.63,3.05-.2,4.27-2.41,2.94-5.1ZM78.45,17.41c.43-1.3,1.97-2.98,3.5-3.29.39-.08.8-.12,1.2-.12,2.38,0,4.81,1.46,6.19,3.71,1.23,2.01,1.39,4.25.44,6.12-.78,1.52-2.2,2.36-4.02,2.36h0c-2.31,0-4.87-1.37-6.35-3.42-1.21-1.66-1.55-3.57-.96-5.36ZM48.15,17.99c1.37-2.4,3.87-4.02,6.21-4.02,1.04,0,2.01.3,2.88.9,1.3.9,2.06,2.17,2.19,3.69.16,1.84-.66,3.9-2.15,5.38-1.34,1.33-3.53,2.22-5.45,2.22h0c-1.74,0-3.12-.73-3.9-2.05-1.06-1.79-.97-4.02.22-6.12ZM91.81,51.77c-1.91,2.41-4.65,3.69-7.92,3.69-2.01,0-4.11-.5-6.08-1.44-1.17-.56-2.34-1.47-3.48-2.35-1.38-1.07-2.81-2.18-4.04-2.48-.51-.12-.98-.19-1.45-.19-2.07,0-3.59,1.19-5.35,2.58-1.07.84-2.17,1.7-3.48,2.34-2.04,1-4.23,1.53-6.33,1.53-3.32,0-6.17-1.36-8-3.83-.68-.92-.85-2.12-.42-2.98.35-.7,1.04-1.1,1.89-1.1.04,0,.08,0,.13,0,.85.04,1.67.67,2.63,1.4,1.03.78,2.19,1.67,3.33,1.76.11,0,.21.01.32.01h0c2.22,0,4.15-1.81,6.02-3.55.86-.8,1.67-1.56,2.52-2.16.46-.32.99-.62,1.49-.91,1.86-1.06,3.08-1.86,3.08-3.4,0-1.84-1.29-3.85-2.53-5.8-1.32-2.06-2.57-4.01-2.24-5.79.28-1.51,1.66-2.66,3.53-2.94.75-.11,2.11-.18,3.56-.18.66,0,2.3.02,3.26.18,1.83.31,3.69,1.93,3.55,3.86-.12,1.65-1.22,3.29-2.38,5.03-1.51,2.25-3.07,4.58-2.23,6.69.35.88,2.32,2.13,3.76,3.03.88.56,1.72,1.09,2.3,1.57.48.4.96.86,1.43,1.3,1.56,1.48,3.18,3.01,5.28,3.07h.08c1.45,0,2.71-1,3.83-1.89.89-.71,1.66-1.33,2.49-1.33.91,0,1.64.42,1.99,1.16.44.91.23,2.17-.53,3.13Z"/>
</svg>