<?xml version="1.0" encoding="UTF-8"?>
<svg id="Layer_11" data-name="Layer 11" xmlns="http://www.w3.org/2000/svg" viewBox="0 0 314.01 288">
  <defs>
    <style>
      .cls-1 {
        fill: #737438;
      }
    </style>
  </defs>
  <path class="cls-1" d="M100.32,111.74c-7.9,18.48-15.52,38.81-8.12,58.87,2.62,7.1,9.7,17.03,18.13,17.16,2.73.04,3.2-3.47,4.34-5.46,5.8-10.11,17.69-16.31,24.84-24.96,4.22-5.1,2.4-8.95.96-14.79-3.51-14.27-8.8-29.01-17.57-40.9-2.58-3.49-5.9-6.6-10.62-5.92-6.53.95-9.68,10.66-11.96,15.99Z"/>
  <path class="cls-1" d="M165.08,180.2c-.16,0-.32.02-.46.06-1.8.46-1.88,2.6-1.95,4.5-.07,1.8-.17,3.09-.9,3.17-.11,0-.31-.03-.49-.06-.3-.04-.63-.09-.99-.09-1.61,0-2.16,1.08-2.35,1.72-.24.85-.1,1.67.42,2.35.93,1.23,2.8,1.67,4.11,1.67h0c.71,0,1.37-.12,1.9-.34,1.53-.64,2.87-2.5,3.58-5,.6-2.08.8-4.9-.4-6.6-.47-.67-1.5-1.38-2.47-1.38Z"/>
  <path class="cls-1" d="M153.71,187.74c-.33,0-.65.05-.93.09-.21.03-.4.06-.55.06-.06,0-.09,0-.09,0-.63-.18-.73-1.95-.8-3.24-.11-2.01-.24-4.5-2.47-4.5-.26,0-.54.04-.83.13-2.13.62-2.68,3.67-2.29,6.41.49,3.44,2.52,6.92,5.93,6.92.13,0,.26,0,.39-.02,1.07-.08,3.05-.74,3.83-2.15.41-.74.41-1.58,0-2.35-.32-.61-.96-1.34-2.21-1.34Z"/>
  <path class="cls-1" d="M137.1,172.64c-.88-.31-1.77-.46-2.65-.46-3.27,0-6.25,2.18-7.4,5.41-1.12,3.13-.22,6.38,2.33,8.46,1.3,1.07,3.24,1.68,5.3,1.68h0c2.34,0,4.41-.78,5.68-2.13,1.73-1.84,2.37-4.53,1.71-7.21-.67-2.75-2.53-4.9-4.97-5.75Z"/>
  <path class="cls-1" d="M199.37,182.31c1.14,1.99,1.61,5.5,4.34,5.46,5.95-.1,12.57-6.39,15.38-11.25,9.78-16.94,5.46-37.11-1.1-54.27-2.27-5.93-5.09-13.44-7.99-18.99-2.24-4.28-5.51-8.4-10.97-7.51-5.87.95-11.25,10.67-13.99,15.57-5.24,9.37-8.99,21.07-11.54,31.51-1.42,5.82-3.18,9.46,1.03,14.53,7.17,8.64,19.05,14.86,24.84,24.96Z"/>
  <path class="cls-1" d="M313.94,236.38c-.1-2.72-.32-5.43-.58-8.13-.52-5.4-1.22-10.76-1.58-16.18-.3-4.52-.79-9.03-.9-13.56-.13-5.16-.02-10.31-.77-15.41-.39-2.65-.83-5.49-.6-8.11.57-6.71,0-13.06-1.72-19.17-1.13-4-1.05-7.97-.33-12.06.26-1.46.5-2.96.56-4.46.21-5.92.35-11.84.5-17.77.03-1.06.14-2.17,0-3.19-.82-6-.68-11.95-.38-18.08.51-10.47.37-21.01.56-31.52.03-1.63.34-3.25.52-4.88.18-1.64.49-3.27.52-4.91l.14-8.42.04-4.21c0-.16,0-.4,0-.6v-.62s-.04-1.24-.04-1.24c-.06-.83-.11-1.66-.2-2.48-.73-6.61-3.09-13.06-6.87-18.43-1.46-2.1-3.07-4.08-4.91-5.77-1.83-1.69-3.88-3.09-6.09-4-3.23-1.31-6.19-2.82-9.28-4.24-3.07-1.43-6.24-2.83-9.6-3.79-2.46-.72-5.03-1.3-7.62-1.59-2.31-.29-4.62-.52-6.93-.54-5.01-.04-10.05-.21-15.07-.04-3.97.07-7.94.32-11.87.97-.44.07-.89.12-1.35.15-1.48-.01-2.99-.11-4.47-.13-7.15-.1-14.3-.33-21.45-.34-.42,0-.84,0-1.26.01,2.24,4.92,4.5,9.83,6.85,14.7,4.2,8.74,11.58,18.68,13.36,28.09.85,4.5,1.34,9.5,1.98,14.08.19,1.38.21,5,.85,5.9.37.53.35.18.69.06,1.77-.64,2.38-1.8,4.75-2,13.6-1.16,14.91,14.85,15.6,24.59.74,10.61,1.48,22.53,1.3,33.11-.35,20.81-.06,42.53-1.62,63.27-1.05,13.92-4.72,39.46-10.96,51.69-5.87,11.52-13.21,14.19-25.67,11.29-2.41-.56-11.09-3.12-11.82-5.53-.64-2.13.99-4.03,3.16-3.81,2.09.21,8.53,4.42,8.98,0,.09-.91-2.31-8.18-2.8-9.7-.79-2.47-1.82-4.85-2.67-7.29-.67-1.92-1.43-8.22-4.16-7.43-6.87,4.01-14.29,7.09-22.1,8.76-17.89,3.82-40.64,2.87-57.47-4.66-2.89-1.29-5.6-3.19-8.54-4.19-2.05.31-2.8,5.68-3.43,7.51-.85,2.44-1.87,4.82-2.67,7.29-.49,1.52-2.9,8.79-2.8,9.7.45,4.42,6.89.22,8.98,0,3.25-.33,4.53,3.4,1.6,5.46-6.07,4.29-20.99,6.98-27.46,2.76-11.27-7.36-14.54-29-16.76-41.39-4.09-22.75-3.84-46.79-4.29-69.92-.28-14.34.39-28.78,1.3-43.06.51-7.97-.09-18.29,5.62-24.58,3.99-4.4,10.33-5.36,15.11-1.61.85-.06,1.02-5.19,1.16-6.22.65-4.59,1.13-9.58,1.98-14.08,1.79-9.44,9.14-19.32,13.36-28.09,2.64-5.48,5.17-11.02,7.68-16.56C104.19.48,96.31-.05,88.28.24c-1.92.04-3.85.12-5.79.25-.71.05-1.42.1-2.13.13-.62,0-1.25-.02-1.86-.07-4.09-.33-8.16-.7-12.19-.5-3.02.03-6.03.31-9.02,1.13-.09.03-.2.04-.3.06-.32-.01-.63-.02-.94,0-2.16.07-4.32.08-6.48.06l-1.62-.02h-.82s-.97,0-.97,0c-.59,0-1.18.02-1.77.05h-.17c-1.29,0-2.58.09-3.87.2-5.14.5-10.24,2.01-14.69,4.61-4.64,2.71-8.85,6.02-12.51,9.87-3.66,3.85-6.77,8.27-9.05,13.15-1,2.11-1.61,4.44-2.4,6.57-.16.45-.32.9-.47,1.36-.14.46-.26.92-.38,1.39-.26.93-.41,1.88-.57,2.82-.14.95-.22,1.91-.28,2.86-.01.48-.02.95-.03,1.43v.7s.02.59.02.59c.13,3.16.5,6.27,1.05,9.26.8,4.35.72,8.39.35,12.46-.45,5-.83,9.85-.23,14.91.34,2.86.51,6.04.09,8.83-.01,1.7-.04,3.4.02,5.1.11,3.02.86,5.68,1.63,8.54.13.49.14,1.01.14,1.51.02,1.74.04,3.48.06,5.22,0,.32,0,.64.11.94.09.26.24.5.39.73,3.87,6.09,4.33,14.62,2.88,21.5-1.11,5.28-1.32,10.64-1.8,15.95-.13.64-.26,1.27-.4,1.9-.29,1.32-.56,2.64-.8,3.97-.05.58-.11,1.15-.16,1.73-1.31,13.79-2.09,27.52-1.97,41.46.08,9.74.41,19.48.48,29.23.03,3.87.13,7.74.05,11.6-.02,2.17.04,4.43.22,6.65.19,2.23.47,4.46.82,6.73.35,2.11.97,4.33,1.88,6.43.91,2.1,2.13,4.08,3.52,5.74,3.5,4.17,7.39,7.76,11.66,10.84,4.27,3.08,8.92,5.65,13.99,7.6l1.38.48.7.23.71.2,1.43.38c.48.11.96.2,1.45.3.97.21,1.95.31,2.94.44.49.06.99.08,1.48.11l.74.04.37.02h.31c.97.04,1.94.06,2.91.06,2.05.02,4.11-.02,6.18-.1.89-.03,1.77-.06,2.66-.1.36-.02.73-.03,1.09-.04.79-.02,1.58-.03,2.38-.04,1.53,0,3.07.01,4.6.05,1.96.04,3.94.12,5.9.13.47,0,.94,0,1.4,0,.02-.02.03-.04.05-.06,3.19.04,6.36-.07,9.42-.76,2.05-.46,3.94-.87,6.12-.78,4.99.2,9.99.43,14.99.45,6.19.03,12.33.2,18.52.53,7.37.39,14.85-.18,22.29-.34,3.32-.07,6.65-.24,9.97-.18.27,0,.55.02.82.04-.05.05-.1.11-.15.16,1.82.19,3.64.49,5.44.44,2.47-.07,4.94-.15,7.41-.24,2.2-.08,4.4-.16,6.6-.24,7.45-.26,14.89-.47,22.36-.28-.02-.03-.04-.05-.06-.08,2.19.04,4.38.11,6.58.22,2.05.11,4.11.2,6.17.28.03.04.05.07.08.11,4.53.16,9.06.27,13.59.3,1.1,0,2.19-.02,3.29-.07,3.03-.08,6.07-.37,9.11-.56.36,0,.71.03,1.07.05,3.17.17,6.34.4,9.51.51.38.01.75.01,1.12.01-.09-.03-.17-.05-.25-.08-.01,0-.02,0-.03-.01.2,0,.41.02.61.03,4.09.13,7.35-.39,9.93-1.37.82.02,1.62.17,2.44.23,1.36.11,2.77-.34,4.15-.42,1.59-.09,3.18-.02,4.76.2.29.04.59.09.88.05.25-.04.49-.14.73-.2,1.17-.31,2.33.16,3.49.25,1.25.1,2.54.09,3.8.09.05,0,.09,0,.14,0,.8,0,1.6-.02,2.4-.06,2.55-.04,5.13-.31,7.75-.96,1.11-.25,2.19-.62,3.31-1.01,1.08-.44,2.2-.9,3.27-1.49,2.17-1.15,4.29-2.65,6.24-4.59,2.01-1.98,3.96-4.14,5.61-6.46,1.66-2.32,3-4.81,3.8-7.29,1.02-3.12,1.75-6.25,2.33-9.38.58-3.13,1.02-6.26,1.42-9.48.13-.89.18-1.78.23-2.67.05-.98.06-1.56.06-2.27.01-1.37-.01-2.74-.07-4.1Z"/>
  <path class="cls-1" d="M179.23,187.73c1.95,0,3.8-.48,4.95-1.27,2.78-1.92,3.91-5.3,2.87-8.62-1.06-3.39-4.07-5.67-7.51-5.67h-.17c-3.48.07-6.45,2.54-7.38,6.13-.91,3.49.4,6.85,3.33,8.56,1.24.72,2.8.87,3.9.87Z"/>
  <path class="cls-1" d="M132.72,211.56c5.88,2.61,14.69,4.1,24.18,4.1,0,0,0,0,0,0,13.39,0,25.02-3.02,31.11-8.06.03-.03,3.15-2.75,3.23-4.51.02-.45-.13-.85-.43-1.15-.15-.15-.34-.24-.55-.28-.16-.03-.31-.04-.46-.04-.46,0-.87.11-1.25.21-1.7.46-3.51,1.34-5.42,2.28-1.66.82-3.38,1.66-4.97,2.16-2.18.69-5.25,1.5-6.73,1.5h-.1c-1.04-.03-2.97-.99-4.52-1.76-.99-.49-1.93-.96-2.72-1.25-2.91-1.07-5.03-1.53-7.08-1.53s-4.17.46-7.08,1.53c-.84.31-1.74.75-2.69,1.23-1.66.83-3.55,1.76-4.93,1.76-.06,0-.11,0-.17,0-1.56-.09-4.39-.86-6.52-1.55-1.49-.48-3.17-1.31-4.81-2.12-2.01-.99-3.9-1.92-5.6-2.34-.29-.07-.55-.11-.79-.11-.86,0-1.25.47-1.41.76-.37.67-.18,1.55.55,2.71,1.74,2.73,7.32,5.64,9.14,6.45Z"/>
</svg>