<?xml version="1.0" encoding="UTF-8"?>
<svg id="Layer_11" data-name="Layer 11" xmlns="http://www.w3.org/2000/svg" viewBox="0 0 314.01 288">
  <defs>
    <style>
      .cls-1 {
        fill: #737438;
      }
    </style>
  </defs>
  <path class="cls-1" d="M197.12,190.84c-.31,0-.65.04-1,.12-.83.19-1.65.87-2.79,1.89-.42.38-.86.77-1.13.95-2.74,1.81-6.38,2.9-9.74,2.9-.54,0-1.08-.03-1.59-.09-.39-.04-1.17-.3-1.93-.55-1.43-.47-3.06-1-4.47-1-2.33,0-3.03,1.51-3.22,2.16-.35,1.2-.18,2.37.51,3.4,1.59,2.37,5.48,3.36,7.53,3.57.57.06,1.19.09,1.84.09,6.07,0,14.37-2.51,17.79-7.17,1.13-1.54,1.45-3.45.79-4.75-.48-.96-1.43-1.5-2.6-1.5Z"/>
  <path class="cls-1" d="M313.94,236.38c-.1-2.72-.32-5.43-.58-8.13-.52-5.39-1.22-10.76-1.58-16.18-.3-4.52-.79-9.03-.9-13.56-.13-5.16-.02-10.31-.77-15.41-.39-2.65-.83-5.49-.6-8.11.57-6.71,0-13.06-1.72-19.17-1.13-4-1.05-7.97-.33-12.06.26-1.46.5-2.96.56-4.46.21-5.92.35-11.84.5-17.77.03-1.07.14-2.17,0-3.19-.82-6-.68-11.95-.38-18.08.51-10.47.37-21.01.56-31.52.03-1.63.34-3.25.52-4.88.18-1.64.49-3.27.52-4.91l.14-8.42.04-4.21c0-.16,0-.4,0-.6v-.62s-.04-1.24-.04-1.24c-.06-.83-.11-1.66-.2-2.48-.73-6.61-3.09-13.06-6.87-18.43-1.46-2.1-3.07-4.08-4.91-5.77-1.83-1.69-3.88-3.09-6.09-4-3.23-1.31-6.19-2.82-9.28-4.24-3.07-1.43-6.24-2.83-9.6-3.79-2.47-.72-5.03-1.3-7.62-1.6-2.31-.29-4.62-.52-6.93-.54-5.01-.04-10.05-.21-15.07-.04-3.97.07-7.94.32-11.87.97-.44.07-.89.12-1.35.15-1.48-.01-2.99-.11-4.47-.13-7.15-.1-14.3-.33-21.45-.34-2.3,0-4.61.05-6.91.12-1.31.03-2.61.07-3.92.11-2.48.06-4.95.09-7.42.02-4.65-.14-9.26-.42-13.88-.23-2.35.03-4.71.17-7.07.48-5.32.7-10.72,1.12-16.1,1.64-.17.02-.34.02-.52.03-.23,0-.45.01-.68.03-.66.01-1.32.01-1.98.05-.15,0-.3.01-.45.02-5.45,0-10.71-1.07-16.09-1.48-4.5-.34-8.98-1.05-13.31-1.93C106.8.67,97.64-.1,88.28.24c-1.92.04-3.85.12-5.79.25-.71.05-1.42.1-2.13.13-.63,0-1.25-.02-1.86-.07-4.09-.33-8.16-.7-12.19-.5-3.03.03-6.03.31-9.02,1.13-.09.03-.2.04-.3.06-.32-.01-.63-.02-.94,0-2.16.07-4.32.08-6.48.06l-1.62-.02h-.82s-.97,0-.97,0c-.59,0-1.18.02-1.77.05h-.17c-1.29,0-2.58.09-3.87.2-5.14.5-10.24,2.01-14.69,4.61-4.64,2.71-8.85,6.02-12.51,9.87-3.66,3.85-6.77,8.27-9.05,13.15-1,2.11-1.61,4.44-2.4,6.57-.16.45-.32.9-.47,1.36-.14.46-.26.92-.38,1.39-.26.93-.41,1.88-.57,2.82-.14.95-.22,1.91-.28,2.86-.01.48-.02.95-.03,1.43v.7s.02.59.02.59c.13,3.16.5,6.27,1.05,9.26.8,4.35.72,8.39.35,12.46-.45,5-.83,9.85-.23,14.91.34,2.86.51,6.04.09,8.83-.01,1.7-.04,3.4.02,5.1.11,3.02.86,5.68,1.63,8.54.13.49.14,1.01.14,1.51.02,1.74.04,3.48.06,5.22,0,.32,0,.64.11.94.09.26.24.5.39.73,3.87,6.09,4.33,14.62,2.88,21.5-1.11,5.28-1.32,10.64-1.8,15.95-.13.64-.26,1.27-.4,1.9-.29,1.32-.56,2.64-.8,3.97-.05.58-.11,1.15-.16,1.73-1.31,13.79-2.09,27.52-1.97,41.46.09,9.74.41,19.48.48,29.23.03,3.87.13,7.74.05,11.6-.02,2.17.04,4.43.22,6.65.19,2.23.47,4.46.82,6.73.35,2.11.97,4.33,1.88,6.43.91,2.1,2.13,4.08,3.52,5.73,3.5,4.17,7.39,7.76,11.66,10.84,4.27,3.08,8.92,5.65,13.99,7.6l1.38.48.7.23.71.2,1.43.38c.48.11.96.2,1.45.3.97.21,1.95.31,2.94.44.49.06.99.08,1.48.11l.74.04.37.02h.31c.97.04,1.94.06,2.91.06,2.05.02,4.11-.02,6.18-.1.89-.03,1.77-.06,2.66-.1.36-.02.73-.03,1.09-.04.79-.02,1.58-.03,2.38-.04,1.53,0,3.07.01,4.6.05,1.96.04,3.94.12,5.9.13.47,0,.94,0,1.4,0,.02-.02.03-.04.05-.06,3.19.04,6.36-.07,9.42-.76,2.05-.46,3.94-.87,6.12-.78,4.99.2,9.99.43,14.99.45,6.19.03,12.33.2,18.52.53,7.37.39,14.85-.18,22.29-.34,3.32-.07,6.65-.24,9.97-.18.27,0,.55.02.82.04-.05.05-.1.11-.15.16,1.82.19,3.64.49,5.44.44,2.47-.07,4.94-.15,7.41-.24,2.2-.08,4.4-.16,6.6-.24,7.45-.26,14.89-.47,22.36-.28-.02-.03-.04-.05-.06-.08,2.19.04,4.38.11,6.58.22,2.05.11,4.11.2,6.17.28.03.03.05.07.08.11,4.53.16,9.06.27,13.59.3,1.1,0,2.19-.02,3.29-.07,3.03-.08,6.07-.37,9.11-.56.36,0,.71.03,1.07.05,3.17.17,6.34.4,9.51.51.38.01.75.01,1.12.01-.09-.03-.17-.05-.25-.08-.01,0-.02,0-.03-.01.2,0,.41.02.61.03,4.09.13,7.35-.39,9.93-1.37.82.02,1.62.17,2.44.23,1.36.11,2.77-.34,4.15-.42,1.59-.09,3.18-.02,4.76.2.29.04.59.09.88.04.25-.04.49-.14.73-.2,1.17-.31,2.33.16,3.49.25,1.25.1,2.54.09,3.8.09.05,0,.09,0,.14,0,.8,0,1.6-.02,2.4-.06,2.55-.04,5.13-.31,7.75-.96,1.11-.25,2.19-.62,3.31-1.01,1.08-.44,2.2-.9,3.27-1.49,2.17-1.15,4.29-2.65,6.24-4.59,2.01-1.98,3.96-4.14,5.61-6.46,1.66-2.32,3-4.81,3.8-7.29,1.02-3.12,1.75-6.25,2.33-9.38.58-3.13,1.02-6.26,1.42-9.48.13-.89.18-1.78.23-2.67.05-.98.06-1.56.06-2.27.01-1.37-.01-2.74-.07-4.1ZM262.6,219.01c-4.19,3.58-18.72,8.19-24.14,8.63-.21.02-.42.03-.63.03-3.35,0-6.24-2.16-9.3-4.45-1.96-1.46-3.98-2.97-6.2-3.93-2.27-.98-4.55-1.48-6.74-1.95-.8-.17-1.62-.35-2.44-.55.18-.23.5-.49,1.01-.87.36-.27.74-.55,1.09-.89,1.56-1.52,3.06-3.12,4.51-4.67.73-.78,1.46-1.56,2.19-2.33,2.33-.88,4.91-1.3,8.08-1.3,2.67,0,5.45.3,8.13.59,1.45.16,2.94.32,4.4.43.71.1,1.48.15,2.37.15,1.4,0,2.88-.12,4.31-.25,1.4-.12,2.84-.24,4.16-.24,1.51,0,2.69.16,3.61.5,3.4,1.25,7.12,3.99,7.62,6.81.27,1.49-.4,2.89-2.04,4.3ZM226.76,199.64c.16-.75.67-1.95,1.12-3.01.4-.94.82-1.92,1.07-2.75.52-1.69.87-3.29,1.19-4.71,1.06-4.77,1.76-7.92,7.43-10.25,1.94-.8,4.17-1.45,6.33-2.09,1.57-.46,3.2-.94,4.73-1.47,1.26-.44,2.79-1.08,4.4-1.75,2.9-1.21,6.18-2.58,8.22-2.91.29-.05.54-.07.73-.07.42,0,.58,0,1.1,1.2,1.69,3.83-1.19,15.78-3.28,21.4-.85,2.29-2.43,6.55-5.14,6.9-1.78.23-3.67.34-5.76.34-2.69,0-5.32-.18-8.1-.37-1.54-.11-3.13-.22-4.72-.29-.17,0-.39-.01-.66-.01-.44,0-1.02,0-1.67.02-.84.01-1.81.03-2.79.03-2.44,0-3.63-.11-4.21-.2ZM274.07,141.15c-.83,1.42-1.62,2.76-2.15,3.97-.68,1.57-1.25,3.5-1.86,5.54-.95,3.22-1.94,6.55-3.33,8.26-3.96,4.88-13.46,7.58-21.85,9.96-3.85,1.1-7.48,2.13-10.3,3.3-8.67,3.6-10.02,9.19-11.44,15.12-.55,2.27-1.11,4.62-2.1,7.09-4.35,10.88-13.7,19.55-25.02,23.18-3.03.97-6.08,1.41-9.88,1.41-1.78,0-3.53-.09-5.37-.18-1.88-.1-3.82-.2-5.83-.2-1.05,0-2.02.03-2.98.08-3.61.21-7.9,1.49-12.44,2.85-5.1,1.53-10.38,3.11-14.71,3.11-1.85,0-3.37-.28-4.63-.87-1.92-.89-3.6-2.87-4.39-5.17-.68-1.98-.61-3.92.19-5.45.41-.78,1.08-.9,1.45-.9.5,0,1.01.2,1.42.56.1.11.36.57.54.88.66,1.18,1.49,2.65,2.97,2.65.41,0,1.02-.12,1.61-.72.42-.42.88-1.19.72-2.45-.26-1.95-1.98-4.36-3.3-5.13-.52-.31-1.14-.46-1.68-.59-.02,0-.04-.01-.07-.02.41-.47.83-.94,1.24-1.41,3.33-3.79,6.47-7.37,8.97-11.91,1.93-3.5,3.24-7.42,4.51-11.22,1.96-5.85,3.8-11.38,7.69-15.4,2.34-2.42,5.26-4.9,8.36-7.52,7.82-6.62,16.67-14.13,18.96-23.39.6-2.43.8-4.9,1-7.28.2-2.44.39-4.75.97-7.05,2.4-9.5,7.26-15.72,12.89-22.92.72-.92,1.45-1.86,2.19-2.82.95-1.23,1.88-2.58,2.78-3.88,1.31-1.89,2.66-3.84,4.07-5.45.35-.39.97-1.02,1.6-1.6-.39,1.86-.96,3.7-1.56,5.61-.62,1.98-1.26,4.03-1.68,6.14-1.01,5.03-.41,9.35.16,13.52.42,3.09.82,6.01.62,9.22-.19,3.11-1.17,4.68-2.3,6.49-.76,1.22-1.62,2.6-2.26,4.51-1.01,3.02-.68,6.01.9,8.21,1.37,1.9,3.54,2.99,5.95,2.99,1.38,0,2.79-.34,4.2-1.02.5-.24,3.11-1.88,3.34-3.85.09-.79-.22-1.53-.84-2.03-.79-.63-1.77-.7-2.44-.7-.63,0-1.29.08-1.93.15-.6.07-1.16.14-1.64.14-.6,0-.77-.11-.78-.12,0,0-.04-.09-.05-.33-.02-1.12,1.07-2.9,2.04-4.46.65-1.06,1.27-2.06,1.66-3,2.35-5.67,1.39-11.2.45-16.56-.37-2.12-.75-4.32-.91-6.45-.26-3.65.78-7.05,1.88-10.65.85-2.78,1.73-5.65,1.93-8.61.17-2.54-.33-4.47-1.5-5.71-.83-.89-1.96-1.36-3.25-1.36-1.57,0-3.34.7-5.14,2.03-.05.04-.1.08-.15.13-5.01,4.97-10.44,11.26-16.13,18.67-6.17,8.04-10.56,17.98-11.76,26.59-.18,1.31-.28,2.56-.38,3.77-.23,2.86-.44,5.56-1.72,8.34-1.81,3.94-7.35,9.62-10.01,12.34-2.56,2.62-5.38,5.06-8.12,7.42-.55.48-1.11.96-1.66,1.44.82-2.28,1.67-4.54,2.5-6.75,6.06-16.19,11.79-31.48,7.24-49.93-5.3-21.51-19.49-32.88-41.03-32.88-1.67,0-3.41.07-5.17.21-23.36,1.82-44.74,29.93-50.74,38.51-1.44,2.06-2.8,4.26-4.11,6.39-1.57,2.56-3.2,5.2-4.94,7.53-.26.35-.75.89-1.26,1.46-2.33,2.59-3.95,4.56-3.69,6.29.26,1.65,1.38,2.68,2.93,2.68,1.45,0,2.89-.88,3.69-1.63,3.8-3.59,6.82-8.47,9.75-13.19,1.43-2.32,2.79-4.5,4.21-6.51,8.04-11.35,26.06-30.48,40.21-33.54,3.39-.73,6.77-1.1,10.03-1.1,13.3,0,23.67,5.98,29.21,16.83,10.58,20.71,3.48,39.59-4.05,59.57-2.19,5.81-4.45,11.81-6.22,17.83-.81,2.76-1.37,5.2-1.91,7.56-1.33,5.85-2.39,10.47-6.5,16.36-1.4,2-3.15,3.91-5.01,5.93-5.73,6.25-12.23,13.32-6.58,23.48,2.97,5.32,7.69,7.91,14.45,7.91,5.28,0,10.99-1.55,16.5-3.04,4.23-1.15,8.22-2.23,11.51-2.45.67-.04,1.37-.07,2.12-.07,1.98,0,4.01.16,5.97.31,2.01.16,4.1.32,6.17.32,1.59,0,3.01-.09,4.36-.29,2.03-.29,4.12-1.03,6.14-1.74,1.87-.66,3.63-1.28,5.03-1.43.38-.04.83-.06,1.33-.06,4.83,0,13.64,1.9,17.13,3.7,1.26.65,2.4,1.51,3.61,2.43,1.06.81,2.16,1.64,3.37,2.33,1,.57,2.01.96,2.97,1.34.84.32,1.63.63,2.35,1.03,2.99,1.66,10.52,8.23,11.23,10.9.32,1.19.24,2.11-.23,2.82-1.28,1.9-5.4,2.38-8.12,2.71l-.42.05c-2.48.3-5.01.46-7.33.46-3.86,0-7.14-.42-9.73-1.23-.95-.3-1.94-.76-2.99-1.24-1.45-.67-2.95-1.36-4.48-1.69-1.46-.31-2.92-.35-4.29-.35h-1.6c-.66,0-1.44,0-2.2-.07-3.98-.34-7.11-2.16-10.42-4.08-2.15-1.25-4.37-2.53-6.89-3.44-4.72-1.7-9.6-2.53-14.9-2.53-7.46,0-14.89,1.67-22.07,3.29-2.9.65-5.89,1.33-8.88,1.89-2.46.47-4.98.87-7.42,1.25-2.85.45-5.81.92-8.71,1.5-2.32.46-4.7,1.04-7.01,1.6-3.12.76-6.34,1.54-9.44,2.04-1.05.17-2.13.26-3.22.26-5.56,0-10.91-2.25-13.97-5.88-2.4-2.85-3.31-6.42-2.63-10.33.07-.41.25-1.03.45-1.69.5-1.71,1.02-3.47.65-4.72-.32-1.1-1.13-1.76-2.15-1.76-1.28,0-2.52,1.1-3.51,1.99-.23.21-.49.44-.61.52-2.44,1.68-5.02,2.52-7.67,2.52-10.01,0-20.24-12.03-25.95-22.32-7.73-13.92-9.95-24.82-11.17-38.94-1.12-12.94-1.94-24.6-.61-36.14,1.96-16.97,8.33-33.79,18.4-48.65,9.99-14.73,23.2-26.93,38.2-35.28,9.48-5.27,17.35-8.5,29.54-9.36,6.63-.47,12.6-.7,18.27-.7,18.86,0,35.23,2.63,51.53,8.29,28.84,10.01,50.97,23.19,65.27,55l.5,1.11c2.84,6.29,6.06,13.42,5.06,20.21-.54,3.68-6.5,5.91-10.85,7.54-1.31.49-2.55.96-3.58,1.43-11.75,5.39-19.37,11.58-27.17,22.09-.12.16-.25.33-.38.49-.87,1.11-2.34,2.96-1.02,5.22.1.18.25.33.41.45.66.46,1.35.69,2.05.69,1.97,0,3.22-1.75,4.22-3.16.31-.44.6-.85.85-1.12,4.31-4.66,10.15-10.52,17.2-14.49,3.29-1.85,6.77-3.3,10.15-4.7,2.13-.88,4.34-1.8,6.5-2.81,1.02-.48,2.11-1.13,3.27-1.81,2.58-1.53,5.51-3.26,7.93-3.26.95,0,1.76.27,2.48.84,3.27,2.59,1.3,6.57-1.85,11.91Z"/>
</svg>