<?xml version="1.0" encoding="UTF-8"?>
<svg id="Layer_11" data-name="Layer 11" xmlns="http://www.w3.org/2000/svg" viewBox="0 0 314.01 288">
  <defs>
    <style>
      .cls-1 {
        fill: #737438;
      }
    </style>
  </defs>
  <path class="cls-1" d="M199.17,126.24c-.86.17-1.37,1.05-1.76,1.83-1.7,3.39-3.34,6.8-5,10.21-.14.28-.29.56-.43.84-1.11,1.93-2.3,3.82-3.63,5.66-13.95,19.29-40.38,34.7-64.7,28.56-5.35-1.35-11.16-3.4-15.46-6.95-2.02-1.67-4.35-3.27-5.15.5-.92,6.9,7.15,10.96,12.44,13,35,13.55,75.69-16.36,85.49-49.19.04-.12.07-.24.11-.37.23-.82.4-1.67.2-2.49-.23-.94-1.14-1.79-2.1-1.6Z"/>
  <path class="cls-1" d="M204.31,82.3c-10.92,2.25-8.53,21.05,5.09,17.02,8.65-2.56,6.13-19.33-5.09-17.02Z"/>
  <path class="cls-1" d="M131.39,164.34c9.65.86,18.42-5.17,23.8-12.57,3.19-4.39,5.69-9.58,6.6-14.97.25-1.52-1.11-3.05-2.69-2.84-1.37.18-2.74,1.97-3.35,3.09-6.09,11.23-15.51,23.16-30.05,18.02-1.93-.68-3.84-1.74-4.89-3.5-.79-1.32-1.02-2.93-1.87-4.22-.85-1.28-2.82-2.09-3.9-.99-.27.28-.44.63-.55,1.01-.03.11-.34.28-.08.37-.03.13-.06.27-.08.4-1.39,9.57,8.79,15.45,17.06,16.19Z"/>
  <path class="cls-1" d="M313.94,236.38c-.1-2.72-.32-5.43-.58-8.13-.52-5.4-1.22-10.76-1.58-16.18-.3-4.52-.79-9.03-.9-13.56-.13-5.16-.02-10.31-.77-15.41-.39-2.65-.83-5.49-.6-8.11.57-6.71,0-13.06-1.72-19.17-1.13-4-1.05-7.97-.33-12.06.26-1.46.5-2.96.56-4.46.21-5.92.35-11.84.5-17.77.03-1.06.14-2.17,0-3.19-.82-6-.68-11.96-.38-18.08.51-10.47.38-21.01.56-31.52.03-1.63.34-3.25.52-4.88.18-1.64.49-3.27.52-4.91l.14-8.42.04-4.21c0-.16,0-.4,0-.6v-.62s-.04-1.24-.04-1.24c-.06-.83-.11-1.66-.2-2.48-.73-6.61-3.09-13.06-6.87-18.43-1.46-2.1-3.07-4.08-4.91-5.77-1.83-1.69-3.88-3.09-6.09-4-3.23-1.31-6.19-2.82-9.28-4.24-3.07-1.43-6.24-2.83-9.6-3.79-2.46-.72-5.03-1.3-7.62-1.6-2.31-.29-4.62-.52-6.93-.54-5.01-.04-10.05-.21-15.07-.04-3.97.07-7.94.32-11.87.97-.44.07-.89.12-1.35.15-1.48-.01-2.99-.11-4.47-.13-7.15-.1-14.3-.33-21.45-.34-2.3,0-4.61.05-6.91.12-1.31.03-2.61.07-3.92.11-2.48.06-4.95.09-7.42.02-4.65-.14-9.25-.42-13.88-.23-2.35.03-4.71.17-7.08.48-5.32.71-10.72,1.12-16.1,1.64-.17.02-.34.02-.52.03-.23,0-.45.01-.68.03-.66.01-1.32.01-1.98.05-.15,0-.3.01-.45.02-5.45,0-10.71-1.07-16.09-1.48-4.5-.34-8.98-1.05-13.31-1.93C106.8.67,97.64-.1,88.28.24c-1.92.04-3.85.12-5.79.25-.71.05-1.42.1-2.13.13-.62,0-1.25-.02-1.86-.07-4.09-.33-8.16-.7-12.19-.5-3.02.03-6.03.31-9.02,1.13-.09.03-.2.04-.3.06-.32-.01-.63-.02-.94,0-2.16.07-4.32.08-6.48.06l-1.62-.02h-.82s-.97,0-.97,0c-.59,0-1.18.02-1.77.05h-.17c-1.29,0-2.58.09-3.87.2-5.14.5-10.24,2.01-14.69,4.61-4.64,2.71-8.85,6.02-12.51,9.87-3.66,3.85-6.77,8.27-9.05,13.15-1,2.11-1.61,4.44-2.4,6.57-.16.45-.32.9-.47,1.36-.14.46-.26.92-.38,1.39-.26.93-.41,1.88-.57,2.82-.14.95-.22,1.91-.28,2.86-.01.48-.02.95-.03,1.43v.7s.02.59.02.59c.13,3.16.5,6.27,1.05,9.26.8,4.35.72,8.39.35,12.46-.45,5-.83,9.85-.23,14.91.34,2.86.51,6.04.09,8.83-.01,1.7-.04,3.4.02,5.1.11,3.02.86,5.68,1.63,8.54.13.49.14,1.01.14,1.51.02,1.74.04,3.48.06,5.22,0,.32,0,.64.11.94.09.26.24.5.39.73,3.87,6.09,4.33,14.62,2.88,21.5-1.11,5.28-1.32,10.64-1.8,15.95-.13.64-.26,1.27-.4,1.9-.29,1.32-.56,2.64-.8,3.97-.05.58-.11,1.15-.16,1.73-1.31,13.79-2.09,27.52-1.97,41.46.09,9.74.41,19.48.48,29.23.03,3.87.13,7.74.05,11.6-.02,2.17.04,4.43.22,6.65.19,2.23.47,4.46.82,6.73.35,2.11.97,4.33,1.88,6.43.91,2.1,2.13,4.08,3.52,5.74,3.5,4.17,7.39,7.76,11.66,10.84,4.27,3.08,8.92,5.65,13.99,7.6l1.38.48.7.23.71.2,1.43.38c.48.11.96.2,1.45.3.97.21,1.95.31,2.94.44.49.06.99.08,1.48.11l.74.04.37.02h.31c.97.04,1.94.06,2.91.06,2.05.02,4.11-.02,6.18-.1.89-.03,1.77-.06,2.66-.1.36-.02.73-.03,1.09-.04.79-.02,1.58-.03,2.38-.04,1.53,0,3.07.01,4.6.05,1.96.04,3.94.12,5.9.13.47,0,.94,0,1.4,0,.02-.02.03-.04.05-.06,3.19.04,6.36-.07,9.42-.76,2.05-.46,3.94-.87,6.12-.78,4.99.2,9.99.43,14.99.45,6.19.03,12.33.2,18.52.53,7.37.39,14.85-.18,22.29-.34,3.32-.07,6.65-.24,9.97-.18.27,0,.55.02.82.04-.05.05-.1.11-.15.16,1.82.19,3.64.49,5.44.44,2.47-.07,4.94-.15,7.41-.24,2.2-.08,4.4-.16,6.6-.24,7.45-.26,14.89-.47,22.36-.28-.02-.03-.04-.05-.06-.08,2.19.04,4.38.11,6.58.22,2.05.11,4.11.2,6.17.28.03.03.05.07.08.1,4.53.16,9.06.27,13.59.3,1.1,0,2.19-.02,3.29-.07,3.03-.08,6.07-.37,9.11-.56.36,0,.71.03,1.07.05,3.17.17,6.34.4,9.51.51.38.01.75.01,1.12.01-.09-.03-.17-.05-.25-.08-.01,0-.02,0-.03-.01.2,0,.41.02.61.03,4.09.13,7.35-.39,9.93-1.37.82.02,1.62.17,2.44.23,1.36.11,2.77-.34,4.15-.42,1.59-.09,3.18-.02,4.76.2.29.04.59.09.88.04.25-.04.49-.14.73-.2,1.17-.31,2.33.16,3.49.25,1.25.1,2.54.09,3.8.09.05,0,.1,0,.14,0,.8,0,1.6-.02,2.4-.06,2.55-.04,5.13-.31,7.75-.96,1.11-.25,2.19-.62,3.31-1.01,1.08-.44,2.2-.9,3.27-1.49,2.17-1.15,4.29-2.65,6.24-4.59,2.01-1.98,3.96-4.14,5.62-6.46,1.66-2.32,3-4.81,3.8-7.29,1.02-3.12,1.75-6.25,2.33-9.38.58-3.13,1.02-6.26,1.42-9.48.13-.89.18-1.78.23-2.67.05-.98.06-1.56.06-2.27.01-1.37-.01-2.74-.07-4.1ZM255.54,81.68c-.06.24-.12.49-.19.76-.04.18-.2.69-.4,1.03-.41.75-.71,1.2-1.08,1.72-.35.49-.71.94-1.03,1.35-1.38,1.71-2.86,3.4-4.14,4.59-.55.58-1.08,1.08-1.65,1.69-.58.67-1.14,1.14-1.7,1.67-1.13,1.04-2.28,2.01-3.46,2.89-.33.25-.71.61-1.04.94-1.85,1.88-3.75,3.74-5.65,5.58l-2.85,2.77-1.42,1.39-.71.7-.32.32v.05s-.06.11-.06.11l-.02.06-.06.79-.09,1.58-.13,3.19-.15,6.48c-.04,2.26-.03,4.55-.15,6.84-.16,3.33-.4,6.71-1.12,10.04-.52,2.47-1.09,5.21-1.63,7.78-.21,1.27-.62,2.48-.98,3.7-.38,1.22-.74,2.44-1.17,3.64l-1.48,3.53-.76,1.76-.89,1.7c-.74,1.36-1.38,2.79-2.11,4.17-.78,1.36-1.55,2.73-2.33,4.09-.28.51-.54,1.03-.88,1.49-.99,1.39-1.92,2.73-3.09,4.04-1.31,1.28-2.57,2.68-3.81,4.13-1.31,1.38-2.64,2.77-3.96,4.15-.39.44-.85.8-1.28,1.18-1.32,1.1-2.6,2.24-3.95,3.28l-4.16,3.01c-2.59,1.63-5.11,3.41-7.89,4.73-1.29.64-2.58,1.23-3.95,1.71-1.62.61-3.25,1.28-4.83,1.91-1.75.64-3.51,1.22-5.27,1.74-1.65.35-3.3.7-4.95,1.04-.26.05-.58.05-.79.13l-.89.31c-.12.05-.28.08-.34.14l.38.27.6.41.23.15.29.22h.28s.9.09.9.09l2.08.22c1.39.15,2.78.31,4.17.46.37.04.77.11,1.1.12,3.66.06,7.39.52,11.17,1.07,1.22.18,2.3.35,3.45.67,1.26.34,2.87.54,4.34.77.65.1,1.33.18,1.98.26l.47.06.37.18.28.14.83.41.39.72.12.23.09.17.03.12c.06.22.11.44.17.66.07.3.13.59.19.88.11,1.39.2,2.84-.8,3.87l-2,2.27-.55.63-.82.19-.69.16c-.24.11-.91.08-1.14.09-.17.01-.34-.03-.51-.04l-.34-.05-.59-.08-2.38-.3-4.75-.56c-3.26-.39-6.47-.65-9.76-1.27-2.23-.42-4.68-.6-7.03-.86-2.35-.25-4.7-.51-7.05-.77-1.28-.15-2.57-.31-3.85-.46-1.29.3-2.57.59-3.85.89-1.44.35-2.87.7-4.3,1.04-4.82,1.23-9.62,2.3-14.49,3.22-.21.04-.42.08-.63.12l-.92.2c-.76.17-1.53.41-2.17.35-1.19.22-2.24-.44-3.02-1.25-.78-.83-1.34-1.88-1.71-2.95-.19-.52-.33-1.12-.38-1.55-.04-.22-.05-.47-.06-.72-.02-.23-.01-.5.01-.78.01-.26.06-.55.13-.87.05-.28.18-.64.33-.97.29-.68.91-1.4,1.66-1.83l.55-.32.24-.02c.69-.05,1.36-.08,2.03-.11,1.43-.06,2.69-.14,4.41-.65.72-.22,1.64-.35,2.39-.43,2.27-.25,4.44-.66,6.74-1.47.26-.09.54-.18.82-.27l-1.08-1.04c-.32-.3-.53-.62-.97-.56l-1.93-.13-.62-.04-.27-.25c-3.82-.37-7.62-.88-11.39-1.5-1.19-.19-2.53-.44-3.57-.48-1.58-.06-3.1-.3-4.59-.63-.74-.16-1.48-.36-2.22-.56-.88-.24-1.6-.55-2.33-.85-1.03-.44-2.05-.73-3.07-1.07-1.3-.43-2.64-.8-3.85-1.06-.29-.06-.58-.11-.76-.13-.19-.02-.11,0-.17,0-.04,0-.16.04-.31.13-.16.1-.21.11-.53.41-.28.25-.59.7-.87,1.06-2.97,3.8-6.37,7.24-9.7,10.72-5.41,5.65-9.36,14.93-18.03,16-3.73.46-5.5-1.28-8.25-3.45-1.63-1.28-3.37-2.41-5.07-3.6-3.4-2.4-6.69-5.17-8.02-9.26-.29-.9-.5-1.85-.34-2.78,1.4-8.12,7.65-14.41,12.89-20.35,2.89-3.27,5.85-6.48,8.81-9.7,2.22-2.42,7.31-6.25,7.92-9.51.17-.91.56-1.76.94-2.6,2.52-5.52,5.48-11.03,7.46-16.77.04-.12.03-.26.08-.37.14-.34.27-.66.55-.95.6-.6.87-1.4,1.17-2.16.05-.12.09-.23.15-.35.35-.66.71-1.3,1.04-1.97.29-.6.53-1.22.84-1.8,1.22-2.34,2.53-4.42,3.45-6.95.79-2.19,1.61-4.53,3.15-6.22,3.37-3.71,4.8-8.71,7.58-12.82.32-.47.65-.94,1.09-1.3.37-.31.81-.53,1.23-.78,2.66-1.61,3.63-4.77,5.48-7.1,2.5-3.15,5.21-6.26,8.01-9.15.46-.48,1-.89,1.48-1.35.67-.66,1.29-1.37,1.93-2.07l.18-.26c.89-.74,1.43-1.78,2.17-2.64,2-2.44,4.92-3.91,7.37-5.9,7.78-6.33,13.92-13.36,24.23-15.52,1.24-.26,2.78-.17,3.95-.64.39-.16.78-.28,1.21-.32.31-.03.61-.16.92-.24.92-.23,1.85-.47,2.78-.53,4.21-.26,8.62-1.08,12.81-1.35.53-.03,1.05.09,1.58.1.55.01,1.1.06,1.63.11.78.08,1.56.05,2.33.16.21.03.44.12.61.06.52-.18.98.15,1.48.12.09,0,.17.04.24.1.39,0,.78,0,1.18,0,3.97.11,7.96.68,11.81,1.94,1.02.38,2.05.83,3.03,1.34,3.34,1.66,6.51,3.64,9.34,6.07.85.74,1.67,1.53,2.41,2.4.37.43.77.84,1.12,1.28l.61.79.19.23.27.02.76-.09c1.12-.14,2.23-.27,3.31-.4l2.39-.3,2.3-.33c1.48-.22,3.13-.47,4.69-.66.85-.1,1.82-.15,2.5-.35,1.03-.28,2.01-.42,3.06-.47,1.09-.06,2.17-.12,3.28-.18.34-.01.71.02,1.06.11.31.09.59.21.81.33.45.24,2.42.8,3.49,1.55.28.19.58.39.82.63.28.28.48.62.44,1.06-.07.83-.1,1.66-.28,2.47Z"/>
</svg>