<?xml version="1.0" encoding="UTF-8"?>
<svg id="Layer_11" data-name="Layer 11" xmlns="http://www.w3.org/2000/svg" viewBox="0 0 313.03 288">
  <defs>
    <style>
      .cls-1 {
        fill: #737438;
      }
    </style>
  </defs>
  <path class="cls-1" d="M312.95,247.32c-.05-.8-.16-1.6-.45-2.36-.51-1.35-1.45-2.16-2.59-2.96-1.18-.83-2.24-1.89-3.24-2.93-2.09-2.17-3.92-4.58-5.87-6.87-.81-.95-1.64-1.88-2.52-2.76-5.98-6.02-14.96-12.63-22.01-17.49-14.71-10.12-35.46-18.27-53.56-15.45-5.88.92-17.62,4.84-21.42,9.47-3.05,3.7.31,8.39,3.3,7.79,1.62-.32,4.39-3.01,6.66-4.04,23.01-10.39,49.47,2.31,67.89,16.33,5.3,4.03,17.38,13.6,18.62,20.09.75,3.89-1.16,5.96-4.15,8.01-10.55,7.21-36.02,12.02-48.66,11.18-11.87-.79-21.39-5.96-32.35-9.1-15.73-4.5-34.95.52-51.35-1.05-.8.05-1.54-.37-2.33-.41-12.55-.7-25.55-2.14-37.45-6.35-2.73-.97-9.15-4.36-11.42-4.61-4.95-.53-15.4,4.15-20.92,5.31-7.76,1.63-15.49.81-23.28.57-7.1-.22-19.69.38-25.88-2.66-5.29-2.6-3.95-7.92.96-10.14,5.82-2.64,12.16-4.5,18.45-5.19,6.14-.67,19.07-5.37,27.39-8.5,3.74-1.4.61-3.64-.74-6.22-1.02-1.96-.51-1-1.38-2.87-9.93-21.36-10.31-37.55-8.83-62.38.78-13.08-1.76-21.29-3.47-33.69-1.34-9.77-.83-18.38,1.23-27.99,5.06-23.69,30.8-44,54.55-46.34,7.43-.73,17.46-.36,24.73,1.25,23.85,5.31,46.2,26.07,49.09,51.02,1.75,3.28,12.8,7.4,16.51,8.52,13.47,4.06,28.27,6.35,42.01,10,6.72,1.78,13.42,3.66,20.09,5.62,6.72,1.98,13.42,4.05,20.08,6.2.93.3,1.86.62,2.8.91.85.26,1.67.7,2.59.63,1.21-.09,2.32-1.13,2.42-2.36.1-1.3.05-2.64.08-3.94.03-1.07.14-2.17,0-3.19-.82-6-.68-11.95-.38-18.08.51-10.47.37-21.01.56-31.52.03-1.63.34-3.25.52-4.88.18-1.64.49-3.27.52-4.91l.14-8.42.04-4.21c0-.16,0-.4,0-.6v-.62s-.04-1.24-.04-1.24c-.06-.83-.11-1.66-.2-2.48-.73-6.61-3.09-13.06-6.87-18.43-1.46-2.1-3.07-4.08-4.91-5.77-1.83-1.69-3.88-3.09-6.09-4-3.23-1.31-6.19-2.82-9.28-4.24-3.07-1.43-6.24-2.83-9.6-3.79-2.47-.72-5.03-1.3-7.62-1.6-2.31-.29-4.62-.52-6.93-.54-5.01-.04-10.05-.21-15.07-.04-3.97.07-7.94.32-11.87.97-.44.07-.89.12-1.35.15-1.48-.01-2.99-.11-4.46-.13-7.15-.1-14.3-.33-21.45-.34-2.3,0-4.61.05-6.91.12-1.31.03-2.61.07-3.92.11-2.48.06-4.95.09-7.42.02-4.65-.14-9.25-.42-13.88-.23-2.35.03-4.71.17-7.07.48-5.32.7-10.72,1.12-16.1,1.64-.17.02-.34.02-.52.03-.23,0-.45.01-.68.03-.66.01-1.32.01-1.98.05-.15,0-.3.01-.45.02-5.45,0-10.71-1.07-16.09-1.48-4.5-.34-8.98-1.05-13.31-1.93C106.8.67,97.64-.1,88.28.24c-1.92.04-3.85.12-5.79.25-.71.05-1.42.1-2.13.13-.62,0-1.25-.02-1.86-.07-4.09-.33-8.16-.7-12.19-.5-3.02.03-6.03.31-9.02,1.13-.09.03-.2.04-.3.06-.32-.01-.63-.02-.94,0-2.16.07-4.32.08-6.48.06l-1.62-.02h-.82s-.97,0-.97,0c-.59,0-1.18.02-1.77.05h-.17c-1.29,0-2.58.09-3.87.2-5.14.5-10.24,2.01-14.69,4.61-4.64,2.71-8.85,6.02-12.51,9.87-3.66,3.85-6.77,8.27-9.05,13.15-1,2.11-1.61,4.44-2.4,6.57-.16.45-.32.9-.47,1.36-.14.46-.26.92-.38,1.39-.26.93-.41,1.88-.57,2.82-.14.95-.22,1.91-.27,2.86-.01.48-.02.95-.03,1.43v.7s.02.59.02.59c.13,3.16.5,6.27,1.05,9.26.8,4.35.72,8.39.35,12.46-.45,5-.83,9.85-.23,14.91.34,2.86.51,6.04.09,8.83-.01,1.7-.04,3.4.02,5.1.11,3.02.86,5.68,1.63,8.54.13.49.14,1.01.14,1.51.02,1.74.04,3.48.06,5.22,0,.32,0,.64.11.94.09.26.24.5.39.73,3.87,6.09,4.33,14.62,2.88,21.5-1.11,5.28-1.32,10.64-1.8,15.95-.13.64-.26,1.27-.4,1.9-.29,1.32-.56,2.64-.8,3.97-.06.58-.11,1.15-.16,1.73-1.31,13.79-2.09,27.52-1.97,41.46.09,9.74.41,19.48.48,29.23.03,3.87.13,7.74.06,11.6-.02,2.17.04,4.43.22,6.65.19,2.23.47,4.46.82,6.73.35,2.11.97,4.33,1.88,6.43.91,2.1,2.13,4.08,3.52,5.73,3.5,4.17,7.39,7.76,11.66,10.84,4.27,3.08,8.92,5.65,13.99,7.6l1.38.48.7.23.71.2,1.43.38c.48.11.96.2,1.45.3.97.21,1.95.31,2.94.44.49.06.99.08,1.48.11l.74.04.37.02h.31c.97.04,1.94.06,2.91.06,2.05.02,4.11-.02,6.18-.1.89-.03,1.77-.06,2.66-.1.36-.02.73-.03,1.09-.04.79-.02,1.58-.03,2.38-.04,1.53,0,3.07.01,4.6.05,1.96.04,3.94.12,5.9.13.47,0,.94,0,1.4,0,.02-.02.03-.04.05-.06,3.19.04,6.36-.07,9.42-.76,2.05-.46,3.94-.87,6.12-.78,4.99.2,9.99.43,14.99.45,6.19.03,12.33.2,18.52.53,7.37.39,14.85-.18,22.29-.34,3.32-.07,6.65-.24,9.97-.18.27,0,.55.02.82.04-.05.05-.1.11-.15.16,1.82.19,3.64.49,5.44.44,2.47-.07,4.94-.15,7.41-.24,2.2-.08,4.4-.16,6.6-.24,7.45-.26,14.89-.47,22.36-.28-.02-.03-.04-.05-.06-.08,2.19.04,4.38.11,6.58.22,2.05.11,4.11.2,6.17.28.03.03.05.07.08.11,4.53.16,9.06.27,13.59.3,1.1,0,2.19-.02,3.29-.07,3.03-.08,6.07-.37,9.11-.56.35,0,.71.03,1.07.05,3.17.17,6.34.4,9.51.51.38.01.75.01,1.12.01-.09-.03-.17-.05-.25-.08-.01,0-.02,0-.03-.01.2,0,.41.02.61.03,4.09.13,7.35-.39,9.93-1.37.82.02,1.62.17,2.44.23,1.36.11,2.77-.34,4.15-.42,1.59-.09,3.18-.02,4.76.2.29.04.59.09.88.04.25-.04.49-.14.73-.2,1.17-.31,2.33.16,3.49.25,1.25.1,2.54.09,3.8.09.05,0,.09,0,.14,0,.8,0,1.6-.02,2.4-.06,2.55-.04,5.13-.31,7.75-.96,1.11-.25,2.19-.62,3.31-1.01,1.08-.44,2.2-.9,3.27-1.49,2.17-1.15,4.29-2.65,6.24-4.59,2-1.98,3.96-4.14,5.61-6.46,1.66-2.32,3-4.81,3.8-7.29.74-2.28,1.34-4.6,1.84-6.94.25-1.17.48-2.35.68-3.53.18-1.03.58-2.27.53-3.32-.07-1.04-.01-2.11-.08-3.16Z"/>
  <path class="cls-1" d="M102.76,114.46c-.63,1.26-.39,3.01.61,4.36,2.68,3.62,6.83,5.61,11.7,5.61,3.07,0,6.27-.77,9.25-2.23,1.91-.93,3.52-2.2,5.08-3.42,2.58-2.02,4.8-3.77,7.82-3.77.69,0,1.38.09,2.12.27,1.8.44,3.89,2.06,5.91,3.63,1.66,1.29,3.37,2.61,5.09,3.44,2.88,1.38,5.96,2.11,8.9,2.11,4.78,0,8.78-1.87,11.58-5.4,1.11-1.4,1.42-3.24.77-4.57-.52-1.08-1.58-1.7-2.92-1.7-1.21,0-2.33.9-3.64,1.94-1.63,1.3-3.47,2.77-5.59,2.77h-.12c-3.07-.08-5.44-2.32-7.72-4.49-.68-.64-1.38-1.31-2.09-1.9-.84-.7-2.06-1.48-3.36-2.29-2.11-1.33-4.99-3.15-5.5-4.44-1.23-3.09,1.05-6.49,3.26-9.79,1.7-2.54,3.31-4.94,3.48-7.35.2-2.82-2.53-5.2-5.2-5.65-1.4-.23-3.8-.26-4.76-.26-2.12,0-4.11.1-5.2.27-2.72.41-4.75,2.1-5.16,4.3-.48,2.6,1.34,5.45,3.27,8.47,1.82,2.84,3.7,5.78,3.71,8.48,0,2.25-1.78,3.43-4.5,4.97-.74.42-1.51.86-2.18,1.33-1.23.87-2.42,1.98-3.68,3.15-2.73,2.55-5.56,5.19-8.81,5.19h0c-.15,0-.31,0-.46-.02-1.66-.13-3.37-1.43-4.87-2.57-1.4-1.06-2.6-1.99-3.84-2.04-.06,0-.13,0-.19,0-1.24,0-2.25.59-2.76,1.61Z"/>
  <path class="cls-1" d="M112.36,81.6h0c2.81,0,6.02-1.3,7.98-3.25,2.18-2.16,3.38-5.17,3.14-7.86-.2-2.21-1.3-4.08-3.2-5.39-1.27-.88-2.68-1.32-4.21-1.32-3.43,0-7.08,2.36-9.09,5.87-1.75,3.07-1.87,6.33-.33,8.95,1.14,1.93,3.17,3,5.71,3Z"/>
  <path class="cls-1" d="M161.96,81.65h0c2.65,0,4.74-1.23,5.87-3.46,1.4-2.75,1.17-6.01-.64-8.96-2.02-3.3-5.57-5.42-9.05-5.42-.59,0-1.18.06-1.75.18-2.24.47-4.5,2.91-5.12,4.82-.86,2.62-.36,5.41,1.41,7.84,2.17,2.99,5.9,5,9.28,5Z"/>
</svg>