<?xml version="1.0" encoding="UTF-8"?>
<svg id="Layer_11" data-name="Layer 11" xmlns="http://www.w3.org/2000/svg" viewBox="0 0 275.42 221.98">
  <defs>
    <style>
      .cls-1 {
        fill: #737438;
      }
    </style>
  </defs>
  <path class="cls-1" d="M186.07,153.09c18.09-2.82,38.83,5.33,53.53,15.44,7.05,4.85,16.03,11.46,22,17.48,3.01,3.04,5.41,6.62,8.46,9.62.84.83,2.85,2.74,4.16,1.69.15-.12.27-.29.36-.46.69-1.2.72-2.67.79-4.02.16-2.96-.13-5.92-.09-8.88s.03-6.14-.14-9.2c-.23-4.08-.62-8.15-1.03-12.22-.8-7.85-1.67-15.71-1.76-23.61,0-.05-.02-.1-.02-.16-.02-5.16-.51-10.23,0-15.39.5-5,.19-10.01.51-15.01.25-3.87.39-7.76.09-11.64-.15-1.97-.42-3.94-.83-5.87-.38-1.76-.66-3.71-2-5.02-1.64-1.61-3.63-2.13-5.75-2.82-2.5-.81-5-1.6-7.5-2.38-5-1.56-10.02-3.08-15.06-4.55-5.98-1.74-11.97-3.41-17.99-5.01-13.74-3.64-28.53-5.94-42-9.99-3.71-1.12-14.76-5.23-16.5-8.51-2.9-24.93-25.23-45.69-49.07-50.99C108.98,0,98.95-.37,91.53.36c-23.75,2.33-49.47,22.64-54.53,46.32-2.05,9.61-2.57,18.22-1.23,27.98,1.71,12.39,4.24,20.59,3.47,33.67-1.48,24.82-1.1,41,8.83,62.35.87,1.87.36.92,1.38,2.87,1.34,2.58,4.48,4.81.74,6.22-8.32,3.12-21.24,7.82-27.38,8.49-6.29.68-12.63,2.55-18.45,5.18-4.9,2.22-6.24,7.54-.96,10.14,6.19,3.04,18.78,2.44,25.87,2.66,7.79.24,15.52,1.06,23.27-.57,5.51-1.16,15.96-5.83,20.91-5.3,2.27.24,8.69,3.64,11.42,4.61,11.9,4.21,24.89,5.65,37.43,6.35.78.04,1.52.46,2.33.41,16.4,1.57,35.6-3.45,51.33,1.05,10.96,3.14,20.48,8.31,32.34,9.1,12.63.84,38.09-3.97,48.64-11.17,3-2.05,4.9-4.12,4.15-8-1.25-6.49-13.32-16.05-18.62-20.08-18.41-14.01-44.86-26.71-67.86-16.32-2.26,1.02-5.04,3.71-6.66,4.03-2.99.6-6.34-4.08-3.3-7.78,3.81-4.63,15.54-8.55,21.42-9.47ZM114.67,25.45c.62-1.9,2.88-4.35,5.12-4.82.57-.12,1.16-.18,1.75-.18,3.48,0,7.03,2.13,9.04,5.42,1.8,2.94,2.04,6.21.64,8.95-1.14,2.23-3.22,3.46-5.87,3.46h0c-3.38,0-7.11-2.01-9.28-5-1.76-2.43-2.26-5.21-1.4-7.83ZM70.39,26.29c2.01-3.51,5.66-5.87,9.08-5.87,1.53,0,2.94.44,4.21,1.32,1.9,1.31,3.01,3.18,3.2,5.39.24,2.69-.97,5.7-3.14,7.86-1.96,1.94-5.16,3.25-7.97,3.25h0c-2.54,0-4.57-1.06-5.71-3-1.54-2.62-1.42-5.88.33-8.95ZM134.21,75.68c-2.8,3.53-6.8,5.39-11.57,5.39-2.94,0-6.01-.73-8.89-2.11-1.71-.82-3.43-2.15-5.08-3.43-2.02-1.56-4.11-3.18-5.9-3.62-.74-.18-1.44-.27-2.12-.27-3.02,0-5.24,1.75-7.82,3.77-1.56,1.22-3.18,2.49-5.08,3.42-2.98,1.46-6.18,2.23-9.25,2.23-4.86,0-9.01-1.99-11.69-5.6-1-1.35-1.25-3.1-.61-4.36.51-1.02,1.52-1.61,2.76-1.61.06,0,.12,0,.19,0,1.24.06,2.45.98,3.84,2.04,1.5,1.15,3.2,2.44,4.87,2.57.16.01.31.02.46.02h0c3.25,0,6.07-2.64,8.8-5.19,1.26-1.18,2.45-2.29,3.68-3.15.67-.47,1.44-.91,2.18-1.33,2.72-1.54,4.5-2.72,4.5-4.97,0-2.69-1.88-5.63-3.7-8.47-1.93-3.01-3.76-5.86-3.27-8.47.41-2.2,2.43-3.89,5.16-4.3,1.09-.16,3.09-.27,5.2-.27.97,0,3.37.03,4.76.26,2.67.45,5.39,2.82,5.19,5.64-.17,2.41-1.78,4.81-3.48,7.35-2.2,3.29-4.48,6.69-3.26,9.78.51,1.29,3.39,3.11,5.5,4.44,1.29.82,2.51,1.59,3.35,2.29.71.59,1.41,1.26,2.09,1.9,2.28,2.16,4.65,4.4,7.72,4.48h.12c2.12,0,3.97-1.47,5.59-2.76,1.3-1.04,2.43-1.94,3.64-1.94,1.33,0,2.39.62,2.91,1.7.65,1.34.34,3.17-.77,4.57Z"/>
</svg>