<?xml version="1.0" encoding="UTF-8"?>
<svg id="Layer_11" data-name="Layer 11" xmlns="http://www.w3.org/2000/svg" viewBox="0 0 178.69 350.85">
  <defs>
    <style>
      .cls-1 {
        fill: #737438;
      }
    </style>
  </defs>
  <path class="cls-1" d="M178.11,325.05c-1.45-9.15-4.47-18.48-5.81-27.63-.57-3.9-.7-7.92-.97-11.84-.7-9.89-1.28-19.49-2.5-29.38-.72-5.79-2.13-12.1-2.5-17.81-.08-1.22-.41-5.69,1.38-3.57,1.24,1.46,3.2,5.62,5.72,3.32,2.68-2.44.8-10.29.44-13.54-1.56-13.99-1.2-26.99-4.81-40.82-1.11-4.23-2.88-7.74-4.21-11.73-2.01-6.03.92-2.25,3.84-2.56,2.15-.23,2.52-2.79,2.34-4.56-.52-5.02-7.55-12.67-10.57-16.93-3.05-4.29-6.45-8.85-9.25-13.25-5.9-9.27-10.36-18.86-17.83-27.17-2.75-3.06-6.03-5.66-8.59-8.91-5.19-6.56-8.48-18.44-11.33-26.49-1.92-5.43-5.04-11.13-2.89-17.1.98-2.72,5.78-5.89,7.97-8.28,2.1-2.28,1.94-3.67,5.54-4.47,2.76-.61,7.91-.9,10.85-1.02,1.97-.08,4.21.15,5.83,1.38,1.68,1.28,2.3,3.9,2.06,5.91-.13,1.07-1.01,3.42.88,3.39,1.27-.02,3.29-3.35,3.96-4.51,6.22-10.65,4.26-21.76-8.25-25.61-2.94-.9-9.62-1.63-11.32-4-.52-.73-.77-1.69-1.29-2.46-4.38-6.41-10.9-10.5-18.1-13.16-19.67-7.28-46.46,4-57.68,21.1-1.78,2.71-5.52,9.52-4.54,12.68,1.18,3.8,6.32-1.78,7.05-1.27,1.03,3.6-1.61,7.7-3.75,10.47-3.74,4.82-12.92,12.78-13.72,18.78-.65,4.89,2.41,5.55,6.54,5.14.57.52-1.65,3.98-2.06,4.66-5.34,8.9-12.92,14.77-19.19,22.69-8.36,10.56-16.57,28.6-19.92,41.65-.84,3.28-3.01,10.83.73,12.84,1.95,1.05,3.16-.43,2.89,2.97-.23,2.95-1.33,6.07-1.53,9.1-.62,9.38.54,19.76,2.28,28.97.52,2.73,1.81,10.28,4.82,11.12,2.4.66,3.02-1.04,4.05-1.14,1.46-.14,3.29,6.49,3.9,7.89,6.94,16.02,16.7,23.73,31.05,32.71,2.14,1.34,10.1,6.14,12.08,5.66.97-.23.87-1.47.73-2.63-.03-.37-.06-.73-.09-.99l-.04-.39c-.68-6.66-5.92-13.48-10.55-19.49-1.31-1.7-2.55-3.31-3.67-4.89-15.85-22.35-24.05-43.69-25.13-66.39,0,0-.01,0-.02,0-1.28-14.62.28-28.97,6.13-40.7l.15-.31c.71-1.46,1.9-3.91,4.23-4.04.19-.01.38,0,.56.02,1.18.14,2.16.93,2.56,2.06.56,1.6-.23,3.85-1.51,7.11-.27.7-.53,1.36-.65,1.74-1.58,5.16-2.83,9.83-3.39,15.18-.56,5.35-.66,11.43-.62,16.81.06,7.09,1.08,14.15,2.69,21.04,1.93,8.22,4.95,16.18,9.12,23.52,3.5,6.17,8.45,11.4,12.5,17.19,7.67,10.95,20.91,30.72,10.94,43.65-6.44,8.35-18.75,8.68-26.02,18.36-1.6,2.13-5.74,8.57-5.48,11.04.14,1.32,1.35,3.25,2.71,3.56,5.27,1.2,5.84-6.54,9.31-8.68.48.34.47.51.45,1.06-.06,1.34-.87,3.27-.86,4.72,0,2.58,1.71,6.59,4.87,5.23,3.35-1.44,1.76-8.99,3.9-11.33.99-1.08,3.27-1.32,4.6-1.96,1.53-.74,4.39-3.08,5.73-4.27,2.27-2.02,5.98-7.19,8.36-8.2,4.17-1.77,2.13,4.31,1.07,5.53-5.17,5.92-11.42,9.22-15.68,16.51-1.95,3.35-5.83,8.42-2.6,11.86,2.53,2.7,5.7-.8,7.02-2.93.21-.33,2.04-4.52,2.68-3.73.56,2.62-.26,8.79,3.11,9.86,5.44,1.74,5.63-7.19,6.97-10.57,1.46-3.68,6.4-8.69,10.4-5.54,3.42,2.69,3.83,11.23,7.96,12.35,4.14,1.13,5.04-3.41,4.67-6.54-.76-6.39-9.27-11.77-3.88-18.32.85-1.04,1.83-2.07,3.29-1.4.44.2,3.29,4.44,3.82,5.24,4.98,7.44,9.18,15.02,12.13,23.5,2.54,7.32,6.87,25.24,12.66,29.85,3.28,2.61,5.61.64,6.95-2.73.94-2.35.36-4.11,1.01-6.19.14-.44-.21-.55.63-.46.47,2.36,1.19,4.88,2.13,7.09.73,1.7,3.65,6.85,5.07,7.74,2.28,1.43,4.43-.2,4.92-2.55.24-1.18-.32-6.27,2-2.81,3.17,4.72,5.02,11.85,8.56,16.44,4.31,5.59,6.55-.11,7.01-4.51l.31-7.34c.8-.82,3.02,3.17,3.59,3.76,3.28,3.43,6.66,2.78,8.44-1.57,1.76-4.3,1.4-9.32.69-13.81ZM129.86,23.65c5.15,0,5.14,7.99,0,7.99s-5.14-7.99,0-7.99ZM74.21,95.94c-6.24,2.31-6.85-2.35-11.53-4.58-8.11-3.85-13.53,3.98-22.08.83-4.03-1.49-5.05-4.02-2.98-7.84,2.04-3.76,8.22-10.02,8.86-13.64.22-1.26.36-2.84-.51-3.9-.55-.66-1.47-1.04-2.31-1.16-.49-.07-.98-.06-1.47-.03-.73.04-1.45.17-2.17.29-.17.03-.35.05-.5-.03-.68-.4.5-2.87.76-3.34.57-1.03,1.33-1.95,2.02-2.89,5.03-6.81,15.7-14.31,15.91-23.49.06-2.57-1.46-5.11-4.24-5.11-1.17,0-3.69,1.63-2.49-1.6.37-1.01,3.06-4.44,3.9-5.47,14.58-17.98,40.78-26.57,61.22-12.79,3.38,2.28,7.46,6.37,6.21,10.83-.84,3.01-3.16,5.53-5.54,7.44-2.51,2.01-5.83,4-9.14,4.07-.89.02-2.42-.41-3.08.42-1.12,1.39,1.06,2.81,1.9,3.57,1.28,1.18,2.61,2.32,4.04,3.31,1.03.71,2.17,1.46,3.35,1.9.78.29,2.05.63,1.95,1.74-.01.16-.09.31-.17.45-1.12,1.96-3.18,3.39-4.81,4.89-1.65,1.53-3.04,3.24-3.75,5.4-2.91,8.82,4.48,21.68,7.22,30.32.61,1.94,1.12,3.72.37,5.71-1.32,3.47-5.98,1.97-8.95,2.3-3.08.35-5.73,2.32-9.41,2.18-2.58-.1-4.44-2.15-6.63-3.08-6.95-2.94-10.11,1.13-15.94,3.3ZM83.44,111.79l.12-.34c.55-1.6,1.47-4.27,3.86-4.69.19-.03.39-.05.58-.05,1.24,0,2.35.69,2.9,1.8.78,1.58.24,4-.67,7.52-.2.75-.38,1.47-.45,1.88-3.21,17.91.42,32.87,11.77,48.53,7.82,10.79,17.73,18.33,28.23,26.31,6.37,4.85,12.95,9.86,19.01,15.67,3.21,3.08,6.68,6.65,7.14,10.01.27,1.95-.1,3.61-1.02,4.67-.66.76-1.58,1.17-2.57,1.17h0c-1.09,0-2.22-.5-3.34-1.47-1.4-1.22-2.75-2.8-4.06-4.33-1.02-1.19-2.06-2.42-3.07-3.39-5.7-5.51-12.09-10.52-18.28-15.37-8.28-6.49-16.84-13.2-24.04-21.3-.49-.56-.94-1.17-1.36-1.78,5.69,16.33,20.09,33.67,26.14,40.49,2.67,3.01,5.65,6.08,8.8,9.33,7.41,7.64,15.07,15.53,19.87,23.86,1.01,1.75,2.53,4.99,1.37,7.01-.53.91-1.47,1.44-2.58,1.44-.76,0-1.57-.23-2.57-.73-2.38-1.19-5.49-5.23-9.61-10.8-1.19-1.61-2.31-3.12-3.06-4.01-3.82-4.52-7.86-8.9-11.78-13.13-6.9-7.46-14.04-15.18-20.16-23.96-17.46-25.07-31.53-65.27-21.17-94.32ZM171.24,332.56c-2.57-.39-3.26-4.69-7.43-3.55-3.9,1.06-2.43,7.9-4.58,8.55-1.96.59-3.07-2.02-3.91-3.48-1.47-2.58-3.89-9.75-6.28-10.91-2.44-1.19-3.65.07-4.38,2.32-.31.95-.06,3.14-.8,3.8-1.54,1.38-2.37-2.12-2.6-2.9-.47-1.56-.76-3.2-1.36-4.72-.67-1.69-2.26-4.7-3.93-5.44-4.9-2.19-4.19,5.82-5.98,7.55-2.11,2.04-4.04-2.37-4.67-3.77-1.11-2.48-2.13-5-3.1-7.54-1.9-4.99-3.6-10.05-5.33-15.1-.86-2.52-1.73-5.03-2.64-7.53-.45-1.23-.9-2.47-1.37-3.69-.5-1.31-.95-2.33-.91-3.77.01-.35.04-.72.21-1.03.79-1.39,4.41.03,5.57.31,1.66.39,3.32.98,5.01,1.23,8.15,1.22,28.57,2.2,35.1-2.96,1.17-.93,1.93-2.31,3.2-3.14,1.91-1.27,2.75.43,3.6,2.04,1.19,2.27.27,5.25.4,7.71.38,6.66,2.71,12.81,4.24,19.2,1.49,6.25,3.83,16.13,4.21,22.35.1,1.54.08,4.84-2.27,4.48Z"/>
  <path class="cls-1" d="M102.16,17.01c1.14-.25,6.3.73,7.1,1.52,1.54,1.51,1.47,5.42.32,7.16-3.06,4.61-10.2,2.59-10.47-2.97-.08-1.69,1.25-5.31,3.05-5.71Z"/>
  <path class="cls-1" d="M104.91,26.09c-1.68,0-3.54-1.22-3.65-3.48-.05-.98.79-3.04,1.4-3.49h.01c1.34,0,4.34.65,5.18,1.04.61.81.6,3.36-.05,4.34-.92,1.38-2.2,1.59-2.89,1.59ZM107.95,20.21,102.73,19.07"/>
</svg>