<?xml version="1.0" encoding="UTF-8"?>
<svg id="Layer_11" data-name="Layer 11" xmlns="http://www.w3.org/2000/svg" viewBox="0 0 236.85 329.75">
  <defs>
    <style>
      .cls-1 {
        fill: #737438;
      }
    </style>
  </defs>
  <path class="cls-1" d="M235.21,231.07c-.76-3.71-.94-6.92-1.31-10.64-1.65-16.45-2.21-34.59-10.36-49.36-.55-.99-4.39-6.58-5.18-8.77-.14-.39.2-.79.61-.7,3.88.84,10.08,4,11.43-1.64.74-3.09-3.16-7.92-5.08-10.28-8.99-11.03-17.38-19.58-28.64-28.33-4.19-3.25-9.17-6.25-13.16-9.51-1.99-1.63-3.78-3.97-5.71-5.75-.25-.24-.22-.64.07-.83.05-.03.11-.07.16-.11,1.41-1.03,4.23-1.71,5.93-2.64,5.47-3,3.9-7.07-1.53-8.59-4.24-1.18-9.39-1.44-13.85-2.38-8.07-1.71-14.7-2.92-21.22-8.18-1.98-1.59-6.32-5.49-6.31-8.11,0-2.48,1.37-6.09,1.56-8.88.67-9.95-3.52-25.29-8.1-34.17-5.54-10.72-19.14-22.85-30.41-27.17-7.96-3.06-21.56-6.68-29.79-4.21-.74.22-2.14,1.06-2.6,1.06-.5,0-1.84-.85-2.6-1.06-10.69-3.08-29.89,3.05-39.07,9.04C14.66,19.91,6.24,33.57,1.59,51.21c-2.91,11.03-1.47,21.32,1.53,32.16,2.28,8.23,7.67,14.8,6.89,23.74-.24,2.72-1.33,5.75-1.53,8.58-.9,12.56,5.96,23.24,6.74,35.53.55,8.74.48,14.41,2.98,23.06,3.48,12.05,6.62,23.43,12.59,34.58,4.69,8.76,13.56,23.25,21.04,29.5,2.92,2.44,9.9,5.62,6.93,10.21-.03.04-.06.08-.09.11-2.55,2.31-4.66,5.44-7.16,7.75-5.69,5.27-13.76,6.68-19.76,12.1-3.36,3.04-8.19,10.09-9.04,14.54-1.02,5.31,5.23,7.48,7.78,3.19.62-1.05,1.03-2.61,1.72-3.79.85-1.46,2.08-3.13,3.67-3.85.22-.1.5-.02.64.18s.16.45.17.76c.05,1.62-.78,3.72-.64,5.51.18,2.34,1.65,5.56,4.41,5.35,4.03-.31,3.78-7.06,4.63-9.79,1.15-3.68,3.55-3.76,6.43-5.21,2.61-1.31,6.26-5,8.51-7.11,1.68-1.57,5.88-6.51,7.64-7.06.32-.1.93.15,1.4.3.22.07.37.27.37.51v1.69c0,.12-.04.24-.12.34-6.93,8.59-16.73,14.52-21.16,25.13-1.2,2.87-3.17,7.85.16,9.94,4.68,2.93,7.2-5.07,10.1-7.46.31-.25.78-.08.86.31.18.95.01,2.69.06,3.19.27,2.88,1.17,6.09,4.52,6.53,4.57.59,4.81-7.19,5.88-10.22,1.39-3.94,4.49-7.29,8.51-8.65,4.01-1.36,5.73.93,7.49,4.01,1.45,2.54,3.25,8.38,6.29,9.02,1.98.41,4.3-.63,4.85-2.68.98-3.64-2.1-9.46-4.02-12.54-2.16-3.47-4.84-4.75-2.11-9.2.81-1.32,3.42-4.24,4.58-5.53.37-.41,1.7-1.83,2.41-2.3.18-.12.4-.12.58,0,4.15,2.68,8.36,4.67,13.09,6.14,5.11,1.59,8.27,1.51,12.56,5.2,12.59,10.82,15.23,27.78,27.86,38.3,3.76,3.13,7.7,3.84,11.03-.32,1.52-1.9,1.56-3.56,1.79-5.8.03-.27.26-.48.53-.48h0c.24,0,.45.16.51.39.33,1.39,1.33,2.85,2.13,4,2.37,3.41,7.45,9.16,12.03,8.46,2.16-.33,3.26-2.7,3.21-4.7-.02-.82-1.38-3.88.13-3.82.87.03,2.86,3.55,3.57,4.4.96,1.15,2.24,2.09,3.22,3.21,2.48,2.86,6.81,8.95,10.04,10.48,2.68,1.26,5.39.86,6.65-2.04,1.37-3.16.9-6.41.64-9.71-.03-.44.45-.72.82-.49,1.02.63,2.45,2.53,2.97,2.99,7.61,6.59,15.36,2.2,14.86-7.51-.37-7.29-3.37-11.83-5.98-18.21-1.89-4.62-4.91-12.27-5.59-17.07-.18-1.26-.32-2.34,1.04-2.24.22.02.4.18.47.39,1.22,3.9,7.31,6.85,8.75,1.54.67-2.47.12-4.1.07-6.36-.14-6.03-.22-12.04-.95-18.04-.43-3.55-1.59-7.6-1.8-11.06-.09-1.52-.13-3.19,1.7-2.51.09.03.17.1.23.18,2.32,3.05,6.05,7.65,10.32,5.71,4.78-2.18,1.75-9.9,1-13.56ZM114.58,202.29c-13.58-25.45-16.82-45.32-11.21-68.57l.07-.3c.72-3,2.2-9.23,6.5-9.49.09,0,.18,0,.27,0,1.03,0,3.51.41,4.39,4.23.66,2.83.02,5.9-.54,8.61-.21,1.01-.41,1.96-.53,2.85-2.91,20.58.25,34.83,10.55,47.65,11.81,14.7,26.26,26.19,42.95,34.14.69.33,1.68.73,2.73,1.15,4.4,1.77,7.88,3.29,9.36,5.43,1.14,1.65,1.4,3.37.75,4.85-.65,1.47-2.09,2.42-4.05,2.68-.28.04-.58.06-.9.06h0c-3.52,0-9.2-2.37-13.75-4.43-7.7-3.49-15.55-8.34-23.34-14.41-.53-.41-1.26-1.07-2.11-1.83-.46-.41-1.1-.99-1.77-1.56,1.64,2.79,4.09,6.28,7.3,10.39,16.1,20.59,38.04,34.68,63.44,40.77.27.06.53.16.76.3,2.79,1.68,2.7,3.79,2.53,4.63-.4,1.95-2.33,3.43-4.9,3.77-.53.07-1.11.1-1.72.1-6.78,0-17.88-4.37-23.36-6.95-24.43-11.49-48.13-35.43-63.39-64.06ZM124.64,37.81c1.21,3.86,2.6,9.88,2.38,13.88-.22,4-4.72,4.81-5.76,1.14-.71-2.52-.82-6.15-1.45-8.97-1.19-5.35-2.82-10.22-6.29-14.54-7.03-8.73-20.52-11.11-29.68-4.27-1.12.83-4.13,4.03-4.91,4.28-2.85.91-4.93-1.77-3.45-4.37.85-1.48,3.15-3.59,4.51-4.68,3.86-3.1,8.25-5.25,13.25-5.74,15.56-1.52,27,9.23,31.39,23.26ZM101.84,63.26c-3.03,4.99-10,5.93-13.73,1.27-4.08-5.1-1.21-14.31,5.43-15.39,7.57-1.23,12.01,8,8.3,14.12ZM74.22,99.12c-.88,1.02-1.85,1.24-2.5,1.24h0c-2.16,0-3.38-2.15-4.18-3.58l-.18-.31c-2.91-5.03-4.03-12.24-3-19.29.54-3.73,3.39-7.7,7.6-7.7h.11c4.62.08,7.05,5.19,7.42,10.22.45,6.1-1.01,14.48-5.27,19.43ZM52.19,66.9c-8.2,3.3-14.96-6.06-10.88-13.33.97-1.72,3.38-4.09,5.37-4.43,10.49-1.78,14.41,14.17,5.5,17.76ZM76.43,61.05c-.35,3.97-2.1,6.35-4.72,6.35h0c-.82,0-2.48-.71-3.07-1.29-1.44-1.43-1.52-3.88-1.57-5.67-.01-.35-.02-.67-.04-.93-.46-5.36-.73-12.72.59-17.39.84-2.96,2.91-3.4,4.07-3.4.01,0,.07,0,.08,0,4.01.06,4.47,5.5,4.63,7.29.43,5.05.44,10.39.03,15.03ZM63.15,28.55c-.99-.73-1.93-2.08-2.9-2.92-8.25-7.03-22.07-5.61-29.26,2.3-7.02,7.72-6.9,15.09-8.79,24.59-.71,3.59-5.39,3.63-5.76-.53-.77-8.65,4.26-22.12,10.11-28.51,4.06-4.42,11.7-8.33,17.71-8.94,8.54-.87,17.76,2.71,23.03,9.57,2.68,3.48-.47,7.13-4.13,4.43ZM18.8,67.5c.95-.28,2.29.19,2.98.88,1.35,1.35,3.32,6.37,4.52,8.34,4.61,7.61,11.49,14.37,20.64,15.8,2.54.4,7.67,0,9.71,1.01,2.4,1.18,3.11,4.54.44,5.82-5.24,2.52-16.92-.56-21.87-3.38-6.6-3.76-13.43-12.88-16.26-19.88-.74-1.83-3.01-7.75-.16-8.6ZM36.19,143.15c.74-2.08,1.64-3.21,2.84-3.57.34-.1.67-.15,1-.15.12,0,.24,0,.36.02,2.21.22,3.56,2.56,4.68,8.06,1.08,5.33,1.92,12.85,2.27,17.95.33,4.77-1.05,7.42-4.1,7.88-.36.05-.72.08-1.06.08h0c-4.77,0-5.65-5.03-5.98-6.92-.89-5.11-2.06-17.54,0-23.35ZM56.92,179.71c.26-.18.56-.31.87-.36.43-.07.85-.11,1.25-.11,5.03,0,5.4,5.23,5.6,8.04.05.77.11,1.5.21,2.08.91,5.3,3,10.4,5.23,15.59.2.47.48,1,.77,1.56,1.19,2.28,2.82,5.41,1.1,8.56-.8,1.47-2.13,2.28-3.75,2.28-.99,0-2.08-.31-3.33-.96-2.09-1.08-3.57-4.02-4.91-6.93l-.16-.34c-2.59-5.59-5.43-14.16-5.63-21.44-.02-.71,1.05-6.78,2.75-7.98ZM79.34,178.46c-.36.26-.8.4-1.24.4-.1,0-.2,0-.3-.02-5.11-.73-6.55-4.71-7.6-7.6-2.53-6.99-3.55-14.93-2.86-22.35.02-.21.02-.51.02-.83.01-1.61.04-4.96,3.35-5.71.43-.1.9-.15,1.35-.15,1,0,1.91.25,2.62.72,1.87,1.23,2.22,4.32,2.52,8.55.05.76.1,1.48.16,1.88.44,3,1.22,6.69,2.21,10.37.22.82.6,1.89,1.01,3.02.74,2.05,1.51,4.18,1.64,5.81.19,2.23-.92,4.51-2.89,5.94ZM84.49,96.16c.52-2.7,3.72-3.07,5.91-3.29,2.83-.28,5.17-.09,8.05-.84,8.3-2.15,14.13-8.09,18.5-15.19,1.41-2.29,2.39-5.05,3.8-7.23.53-.82,1.16-1.87,2.18-2.11,1.71-.39,2.98.53,3.15,2.26.34,3.41-4.32,11.53-6.3,14.5-6.63,9.93-16.87,16.92-29.38,15.95-2.37-.18-6.56-.73-5.92-4.06Z"/>
</svg>