<?xml version="1.0" encoding="UTF-8"?>
<svg id="Layer_11" data-name="Layer 11" xmlns="http://www.w3.org/2000/svg" viewBox="0 0 156.06 330.54">
  <defs>
    <style>
      .cls-1 {
        fill: #737438;
      }
    </style>
  </defs>
  <path class="cls-1" d="M155.94,253.11c-.59-2.97-6.36-10.16-8.77-12.21-5.14-4.38-12.36-5.34-17.25-9.52-1.27-1.09-4.8-4.46-5.56-5.76-1.62-2.73-.49-6.08,1.41-8.32,3-3.54,5.88-5.46,8.54-9.68,5.23-8.29,5.5-15.02,6.51-24.41.09-.83.68-5.64,1.46-5.9.03-.01.07,0,.1.02,4.74,2.41,6.35-5.64,7.13-8.88,1.96-8.03,4.59-17.86,4-26.09-.22-3.08-1.28-6.29-1.66-9.36.17-1.81,2.89-1.17,3.29-4.18.77-5.84-5.23-11.73-5.98-17.44-.7-5.31,1.64-10.22.69-15.6-.73-4.14-3.13-8.37-4.48-12.36-.78-2.31-1.28-4.72-2.07-7.04-.52-1.51-2.52-5.26-2.16-6.56.13-.46.65-.74.76-1.45.65-4.25-2.85-9.22-4.61-12.94-.02-.05-.01-.11.02-.15,1.12-1.51,1.53-2.58,1.27-4.55-.59-4.38-3.88-6.62-4.13-11.88-.44-9.16,5.79-12.76,8.98-20.03,1.23-2.8,2.78-6.63,3.74-9.51.91-2.72,1.73-6.21-.83-8.29-3.06-2.49-6.56.27-9.48,1.58-1.38.62-2.78.83-4.14,1.65-2.16,1.3-6.2,5.76-7.91,7.83-3.29,3.97-5.03,8.06-9.26,11.45-1.88,1.51-3.1,1.56-5.49,1.35-6.08-.53-10.21-2.71-16.84-1.87-3.87.49-10.51,3.18-13.95,1.19-4.35-2.51-8.63-10.47-12.3-14.48-4.4-4.81-7.74-6.77-13.87-9.04-4.48-1.65-7.68.43-7.25,5.32.24,2.67,4.23,12.44,5.65,15.05,3.01,5.53,7.99,9.27,8.13,16.45.08,4.07-1.47,5.84-2.94,9.16-.99,2.23-2.74,6.6-.12,8.11l.05.35c-1.5,3.91-5.37,8.89-4.69,13.26.11.72.63,1,.76,1.45.31,1.09-1.67,5.87-2.03,7.51-1.12,5.2-1.14,11.42-5.95,14.75-4.2,2.91-7.11,2.54-11.29,4.17-3.6,1.41-4.84,4.7-1.66,7.45,1.61,1.4,4.29,1.81,3.24,4.34-1.66,3.99-8.88,9.61-12.07,13.33-5.12,5.97-17.46,20.92-19.2,28-.61,2.46-.3,5.74,3.01,5.52,1.5-.1,3.78-2.16,4.03.08,0,.03,0,.05,0,.08-2.18,5.52-4.25,10.6-5.65,16.41-3.06,12.73-2.57,24.31-4.03,37.1-.41,3.64-2.15,9.67-.2,12.97,2.46,4.19,5.56-1.21,7.28-3.13.45-.21.57.47.62.75.18,1.08.13,2.68.07,3.8-.28,5.23-1.26,10.75-1.66,16.01-.72,9.52-1.65,22.36-.83,31.75.15,1.74,1.06,5.4,3.52,4.35,1.64-.71,2.51-4.4,3.25-4.76.61-.29.69,1.27.7,1.5.24,4.64-2.17,11-3.19,15.61-1.75,7.89-5.15,20-4.56,27.76.48,6.43,4.61,11.23,9.96,4.96,1.11-1.3,1.76-2.98,3.05-4.08.1-.08.25,0,.24.12-.12,3.39-.58,6.5.14,9.9,1.12,5.26,3.94,6.03,7,1.46,2.98-4.46,5.21-10.35,7.74-15.18.47-.9.59-2.01,1.4-2.73.08-.07.2-.03.24.06.69,1.88-.32,4.12.12,6.24.42,2.04,2.21,3.36,4.29,2.47,1.34-.57,4.39-5.57,5.09-7.06.99-2.11,1.58-4.56,2.16-6.81.59-.16.67.26.75.75.45,2.68-.08,3.85,1.51,6.51,3.41,5.73,7.18.11,9.28-3.31,5.51-8.98,7.44-21.14,11.88-30.91,3.77-8.29,10.57-16.21,15.9-23.57,1.83-2.53,3.39-5.31,5.18-7.8,1.53-2.13,2.97-4.5,5.48-1.99,5.79,5.8-2.54,11.43-3.3,17.15-.31,2.33,0,5.77,2.9,6.18,5.55.79,5.64-10.26,9.99-12.06,4.39-1.82,8.5,3.24,9.74,6.96.98,2.94,1.38,9.78,6.08,8.31,3.24-1.02,2.51-6.28,3-8.88.01-.06.07-.11.13-.12.34-.03.58.03.87.27.61.51,1.54,3.02,2.33,4.02,1.35,1.69,3.57,3.35,5.65,1.8,3.9-2.89.24-8.98-1.79-12.02-3.88-5.8-9.88-9.1-14.5-13.93-1.02-1.07-4.74-7.59-.67-6.3,1.69.54,3.25,2.54,4.45,3.75,1.65,1.67,3.16,3.39,5.09,4.75,1.51,1.07,2.88,2.45,4.66,3.07,1.25.43,2.87.61,3.87,1.55,2.21,2.05,1.42,12.88,6.21,11.54,4-1.12,2.44-7.03,1.94-9.99-.01-.07.03-.15.1-.16.58-.13,2.09,1.5,2.37,1.86,1.69,2.18,2.47,6.07,5.93,6.07,2.78,0,3.89-2.38,3.39-4.9ZM85.73,147.04c-5.63,29.26-19.11,57.45-38.97,81.54-5.89,7.14-13.58,16.19-20.88,22.84-.14.13-.31.28-.49.45-1.09,1.01-2.04,1.88-2.7,2.31-.85.55-1.75.84-2.61.84-1.19,0-2.23-.55-2.86-1.5-.09-.14-.17-.28-.24-.43-.2-.44-.31-.93-.33-1.44,0-.17,0-.34.02-.52.05-.53.2-1.07.44-1.61.04-.1.1-.19.16-.28s.13-.17.21-.25c.43-.45.86-.89,1.29-1.34,1.47-1.51,2.99-3.08,4.38-4.69,12.57-14.53,22.18-27.69,29.38-40.23.71-1.24,1.44-2.53,2.19-3.86,1.12-2,2.27-4.1,3.43-6.3,2.7-5.12,5.44-10.71,7.89-16.62,1.4-3.37,2.71-6.85,3.86-10.38.05-.16-.16-.27-.26-.13-.52.7-1.05,1.41-1.59,2.11-4.9,6.35-10.92,12.83-17.68,19.09-1.5,1.39-3.04,2.77-4.62,4.14-1.57,1.37-3.18,2.72-4.82,4.05-1.64,1.33-3.3,2.65-5,3.94-3.64,2.77-10.4,7.94-14.87,10.37-.09.05-.18.11-.27.16-.51.31-1.29.79-2.3.79-.07,0-.15,0-.22,0-1.5-.1-2.75-.96-3.34-2.28-.08-.18-.15-.36-.2-.54-.11-.37-.16-.75-.16-1.13,0-.19.01-.38.04-.57.11-.76.42-1.5.93-2.14.1-.12.21-.23.34-.32,1.04-.79,2.08-1.58,3.1-2.38,7.17-5.56,13.92-11.16,20.08-16.7,12.3-11.04,24.7-23.75,32.13-41.78,3.69-8.97,6.79-25.43.19-34.06-1.52-1.99-3.31-3.9-5.57-5.06-2.05-1.05-4.67-1.42-6.95-1.24-1.39.11-2.69.71-3.95,1.26-.59.26-1.13.65-1.79.66-1.7.03-3.33-.79-3.86-2.49-.53-1.73.26-3.68,1.97-4.85,2.28-1.55,4.5-3.04,7.29-3.4,1.52-.19,3.06-.15,4.59-.15,8.69,0,15.92,3.94,19.85,10.82,7.22,12.63,4.82,32.56,2.75,43.32ZM74.72,46.16c.18-.55,1.25-2.88,1.69-3.02.31-.1.64-.04.92.12l9.79,8.39s.03.03.04.06c.61,1.33-2.08,4.4-3.22,5.04-3.01,1.71-6.4,1.11-8.31-1.85-1.79-2.78-1.89-5.64-.9-8.74ZM100.43,74.82l-.08.13c-.49.82-1.24,2.06-2.75,2.49-.16.05-.33.08-.47.09-.04,0-.13,0-.17,0-1.48,0-2.85-1.27-4.08-3.77-1.6-3.26-2.61-9.4-1.5-13,.35-1.14,1.83-3.79,3.95-4.27.54-.12,1.06-.18,1.56-.18,3.38,0,5.71,2.65,6.07,6.92.32,3.76-.75,8.63-2.53,11.58ZM110.17,56.79c-1.15-.62-4.09-3.72-3.46-5.08,0-.02.02-.04.04-.06l8.81-7.71s0,0,.01,0c.35-.25,1.05-.71,1.44-.78.77-.15,1.39,1.13,1.7,1.79.49,1.07,1,2.98,1.11,4.13.51,5.42-4.09,10.72-9.64,7.71ZM121.42,36.7c-4.45,3.85-10.5,8.46-15.29,11.88-7.36,5.25-11.24,5.23-18.56-.11-4.82-3.51-11.25-8.31-15.63-12.26-1.15-1.03-2.28-2.09-3.27-3.28-.58-.71-1.17-1.45-1.6-2.26-.66-1.24-.33-1.94,1.1-2.34.24-.07.5-.1.76-.1,1.06,0,2.12.55,3.11,1.14,1.67,1,3.33,2.34,4.94,3.63,1.17.94,2.28,1.83,3.37,2.58,4.46,3.08,8.15,5.44,10.96,7.02,2.39,1.34,4.17,1.94,5.77,1.94,2.25,0,4.5-1.27,7.66-3.22,2.9-1.78,6.33-4.03,9.4-6.18.84-.59,1.8-1.37,2.82-2.2,1.91-1.55,3.88-3.16,5.73-4.04.99-.47,1.8-.7,2.51-.7.97,0,2.23.49,1.71,1.63-.2.44-.54.81-.8,1.22-.44.71-.9,1.4-1.4,2.06-.98,1.29-2.08,2.49-3.31,3.55Z"/>
</svg>