<?xml version="1.0" encoding="UTF-8"?>
<svg id="Layer_11" data-name="Layer 11" xmlns="http://www.w3.org/2000/svg" viewBox="0 0 262.33 256.84">
  <defs>
    <style>
      .cls-1 {
        fill: #737438;
      }
    </style>
  </defs>
  <path class="cls-1" d="M178.69,42.5c1.91-2.88,2.02-9.34-.53-11.84-1.33-1.3-9.87-2.93-11.76-2.51-2.97.66-5.18,6.64-5.04,9.45.45,9.2,12.26,12.54,17.33,4.91Z"/>
  <path class="cls-1" d="M261.52,244.04c-1.45-3.87-4.08-7.1-6.62-10.3-2.72-3.43-5.01-7.06-7.35-10.74-9.77-15.34-17.15-31.21-29.51-44.97-4.56-5.07-9.97-9.37-14.22-14.74-8.59-10.86-14.03-30.51-18.75-43.84-3.19-8.99-8.34-18.42-4.79-28.3,1.62-4.5,9.56-9.74,13.19-13.7,3.47-3.78,3.21-6.08,9.16-7.39,4.57-1.01,13.09-1.5,17.96-1.7,3.25-.13,6.96.24,9.64,2.28,2.79,2.11,3.8,6.46,3.41,9.78-.21,1.77-1.68,5.65,1.46,5.6,2.1-.04,5.44-5.55,6.55-7.46,10.29-17.63,7.04-36.01-13.66-42.38-4.86-1.5-15.92-2.69-18.73-6.62-.86-1.2-1.28-2.8-2.14-4.07-7.25-10.61-18.04-17.37-29.95-21.78-32.56-12.04-76.89,6.62-95.45,34.91-2.95,4.49-9.14,15.75-7.51,20.99,1.95,6.29,10.46-2.95,11.66-2.1,1.7,5.96-2.66,12.74-6.21,17.32-6.19,7.98-21.39,21.14-22.71,31.08-1.08,8.09,3.99,9.19,10.82,8.5.94.85-2.72,6.58-3.4,7.72-8.83,14.73-21.38,24.44-31.76,37.55-6.95,8.78-12.56,18.63-17.53,28.64-3,6.06-5.77,12.23-8.25,18.52-2.24,5.69-4.73,11.58-5.99,17.62-1.49,7.18-1.36,14.51,3.72,20.27,2.46,2.79,5.61,4.91,8.92,6.62,6.91,3.58,14.59,5.2,22.33,5.46,4.05.13,8.06-.31,12.1-.24,4.37.08,8.73.42,13.1.19,3.96-.2,7.89-.86,11.85-1.18,6.03-.48,11.97.14,17.99.13,5.95,0,11.91.14,17.87.45,7.37.39,14.85-.18,22.29-.34,3.32-.07,6.65-.24,9.97-.18.27,0,.55.02.82.04l-.15.16c1.82.19,3.64.49,5.44.44,2.47-.07,4.94-.15,7.41-.24,2.2-.08,4.4-.16,6.6-.24,7.45-.26,14.89-.47,22.36-.28l-.06-.08c2.19.04,4.38.11,6.58.22,2.05.11,4.11.2,6.17.28l.08.11c4.53.16,9.06.27,13.59.3,1.1,0,2.19-.02,3.29-.07,2.28-.06,4.55-.24,6.83-.4,5.58-.4,11.15.66,16.76.27,3.31-.23,6.6-.82,9.9-1.19,1.76-.19,3.53-.32,5.3-.29,2,.03,4.04.27,5.98-.2,4.92-1.19,5.15-6.42,3.64-10.43ZM212.24,39.14h0c8.52,0,8.51,13.22,0,13.22h0c-8.52,0-8.51-13.22,0-13.22ZM55.31,194.66c-.45,1.16-.88,2.25-1.08,2.89-2.62,8.54-4.68,16.26-5.61,25.12-.77,7.35-1.01,15.52-1.03,23.19-.05.27-.1.53-.16.79-.19.8-.44,1.63-.91,2.32-.01,0-.02.02-.03.03-.79.55-1.71.82-2.65.92-.26,0-.52,0-.78,0h0c-1.32-.1-2.64-.24-3.96-.4-.71-.19-1.4-.45-2.05-.84-.84-.52-1.56-1.24-1.97-2.15-.23-.51-.34-1.05-.41-1.6-.78-21,2.24-41.3,10.71-58.27l.25-.52c1.17-2.42,3.14-6.48,7.01-6.68h0c.31-.02.63,0,.93.03,1.96.24,3.58,1.54,4.24,3.4.93,2.65-.38,6.38-2.5,11.76ZM147.41,239.63c.18.93.46,1.82.46,2.78,0,.94-.11,1.95-.4,2.85-.31.97-.96,1.49-1.97,1.6-2.06.22-4.19.14-6.26.2-.5.01-1.01.03-1.52.03-1.53,0-3.08-.14-4.41-.98-.86-.54-1.28-1.63-1.69-2.52-.22-.47-.41-.95-.6-1.43-2.7-20.09-1.79-39.83,4.39-57.16l.2-.57c.91-2.64,2.43-7.07,6.39-7.76.32-.06.65-.08.97-.08h0c2.05,0,3.89,1.14,4.79,2.98,1.29,2.61.4,6.62-1.11,12.44-.32,1.25-.63,2.43-.75,3.11-2.86,15.94-2.41,30.46,1.51,44.52ZM187.87,151c-1.23,3.23-4.21,3.85-7.45,3.88-1.8.02-3.69-.15-5.4-.16-.68,0-1.34.02-1.95.09-4.78.55-8.93,3.45-14.45,3.61-.37.01-.74,0-1.12,0-4.27-.17-7.34-3.56-10.97-5.09-2.88-1.22-5.36-1.71-7.62-1.7-6.78.01-11.52,4.47-18.77,7.16-1.94.72-3.54,1.03-4.93,1.04-6.01.04-7.86-5.62-14.15-8.61-2.93-1.4-5.66-1.86-8.27-1.8-7.09.17-13.35,4.27-20.8,4.44-2.35.05-4.82-.29-7.48-1.26-6.67-2.46-8.36-6.65-4.93-12.98,3.37-6.22,13.6-16.58,14.67-22.57.37-2.09.6-4.7-.85-6.45-.91-1.1-2.43-1.72-3.82-1.91-.4-.05-.81-.08-1.21-.08-.41,0-.81,0-1.22.03-1.21.07-2.39.28-3.59.48-.14.02-.28.04-.42.04-.14,0-.28-.03-.4-.1-1.12-.65.82-4.74,1.25-5.52.94-1.71,2.19-3.22,3.35-4.79,8.32-11.28,25.98-23.68,26.33-38.88.1-4.25-2.42-8.46-7.02-8.45-.97,0-2.49.68-3.53.68-1.04,0-1.58-.66-.59-3.33.62-1.67,5.07-7.35,6.45-9.06,15.84-19.53,39.95-32.37,64.22-32.44,12.71-.04,25.47,3.43,37.09,11.27,5.59,3.77,12.34,10.54,10.27,17.93-1.4,4.97-5.23,9.15-9.18,12.31-4.16,3.33-9.65,6.62-15.12,6.74h0c-.74.02-1.74-.15-2.69-.15s-1.86.16-2.41.84c-1.85,2.3,1.76,4.65,3.14,5.91,2.12,1.95,4.32,3.83,6.69,5.48,1.71,1.18,3.58,2.42,5.55,3.14,1.3.48,3.39,1.04,3.23,2.88-.02.27-.15.51-.28.74-1.85,3.24-5.27,5.6-7.96,8.1-2.72,2.53-5.03,5.37-6.21,8.94-4.81,14.6,7.42,35.88,11.94,50.18,1.02,3.21,1.86,6.16.61,9.44Z"/>
</svg>