<?xml version="1.0" encoding="UTF-8"?>
<svg id="Layer_11" data-name="Layer 11" xmlns="http://www.w3.org/2000/svg" viewBox="0 0 253.62 261.96">
  <defs>
    <style>
      .cls-1 {
        fill: #737438;
      }
    </style>
  </defs>
  <path class="cls-1" d="M252.74,201.4c-.21-2.17-.65-4.3-.97-6.46-.29-1.97-.36-3.9-.42-5.88-.12-4.27-.73-8.5-.93-12.76-.13-2.79.06-5.58.02-8.37-.03-1.83-.23-3.65-.46-5.47-.21-1.64-.34-3.05-1.19-4.49-1.47-2.48-3.81-4.23-5.93-6.11-3.07-2.7-6.22-5.3-9.45-7.81-4.97-3.86-10.89-7.42-15.62-11.29-2.55-2.08-4.58-5.34-7.46-6.91-.14-.64.18-.72.6-1.03,2.91-2.11,7.63-2.25,10.13-5.5,3.39-4.4-1.25-6.96-5.13-7.98-4.46-1.18-9.44-1.41-14.04-2.32-5.32-1.06-13.09-2.69-18.1-4.44-4.27-1.5-13.1-8.36-15.35-12.28-2.2-3.82-.12-7.34.4-11.38,1.64-12.81-4-33.52-10.44-44.74-6.8-11.84-21.89-25.1-34.6-30.11-9.84-3.88-25.72-7.99-35.99-5.09-.82.23-2.57,1.25-3.03,1.2-.51-.06-1.7-.88-2.5-1.12-10.36-3.03-26.33,1.12-36.27,5.01C31.45,11.78,15.32,27.05,8.86,41.26-.78,62.45-2.61,76.21,3.65,98.95c2.35,8.54,7.67,15.6,8.18,24.54.26,4.61-1.5,8.91-1.82,13.45-1.12,15.71,7.08,27.9,8,43.26.56,9.33.46,16.05,3.09,25.27,4.14,14.51,8.22,29.05,15.39,42.42.96,1.78,1.95,3.55,2.96,5.31s2,4.01,3.42,5.54c1.15,1.24,2.69,1.75,4.34,1.85,3.66.22,7.36.27,10.99.78,1.48.08,2.96.14,4.46.12,7.09-.08,14.14-.16,21.23.12,7.34.29,14.66.49,22.01.25,7.48-.25,14.93-.87,22.4-1.16,5.04-.19,10.09,0,15.13.15.76.02,1.73.08,2.25-.57.17-.21.29-.47.36-.73.24-.84.1-1.75-.23-2.56-.87-2.12-2.56-4.08-3.78-6.03-1.35-2.16-2.66-4.35-3.92-6.57-2.45-4.29-4.74-8.68-6.84-13.15-2.01-4.27-3.84-8.63-5.46-13.07-7.67-21.07-8.51-45.54-2.2-63.86.55-1.6,2.22-6.45,6.18-7.2.3-.06.6-.09.9-.09,1.39,0,2.75.63,3.72,1.72,2.7,3.03,1.81,8.9.47,15.7-.24,1.24-.45,2.3-.56,3.07-3.11,22.98.97,39.99,13.24,55.12,5.91,7.3,12.52,14.04,19.68,20.12,3.52,2.99,7.17,5.81,10.96,8.45,3.56,2.49,7.35,5.31,11.34,7.07,1.15.51,2.37.82,3.6,1.07,7.32,1.47,14.93.81,22.35,1.11,4.09.16,8.56-.36,12.56-1.3,4.23-.99,8.16-2.74,11.31-5.77,1.31-1.25,2.49-2.63,3.58-4.08,2.11-2.79,3.93-5.78,5.72-8.78.04-.49.28-.83.61-1.04,2.12-3.62,2.89-7.58,3.2-11.74.32-4.33.42-8.65.88-12.96.44-4.11.29-8.25-.13-12.35-.26-.24-.45-.57-.49-1.01ZM83.35,46.09c.53-.16,1.06-.24,1.57-.24,1.64,0,3.08.82,4.06,2.3,1.57,2.39,1.69,6.54,1.69,11.33,0,.68,0,1.29,0,1.79.01.63.04,1.3.06,1.99.13,3.92.28,8.37-.67,11.99-1.06,4.02-3.86,4.46-5.01,4.46-.65,0-1.34-.12-2.05-.36-2.27-.76-3.54-3.5-3.88-8.38-.31-4.54-.23-10.93.01-14.89,0-.05.31-4.73,1.05-6.73.37-1.01,1.56-2.78,3.16-3.26ZM93.82,91.16c1.4,7.94-.12,17.38-3.79,23.51-.02.03-2.14,3.52-3.05,4.13-.51.34-1.1.52-1.72.52h0c-3.42,0-6.38-6.37-6.71-7.09-2.45-5.45-4.75-19.55-.22-25.97,2.3-3.26,4.91-3.94,6.69-3.94,4.12,0,7.9,3.8,8.79,8.84ZM19.16,61.33c-.07-20.65,13.08-43.85,35.86-44.45,9.08-.24,19.55,4.57,24.94,11.94,2.22,3.04.24,7.03-3.43,5.98-1.88-.54-3.72-3.27-5.26-4.55-10.41-8.63-26.84-6.21-35.43,3.82-7.51,8.77-7.46,17.35-9.54,27.9-1.03,5.23-7.11,4.2-7.13-.64ZM63.21,78.53c-9.43,5.77-19.17-5.17-14.73-14.37,1.52-3.14,4.7-6.05,8.35-6.21,10.35-.43,15,15.31,6.38,20.57ZM50.89,205.75c-.37.05-.73.08-1.08.08-2.49,0-5.71-1.29-6.88-7.45-1.01-5.26-3.12-21.99.25-29.56,0-.02.82-1.81,1.58-2.52.58-.54,1.32-.88,2.2-.99.11-.01.21-.02.32-.02.05,0,.09,0,.14,0,3.92.21,5.39,5.9,6.41,12.06.85,5.15,1.97,13.32,2.31,19.43.4,7.08-3.12,8.66-5.25,8.97ZM41.76,113.92c-8.08-4.6-15.93-15.28-19.45-23.81-.94-2.29-3.82-9.73.33-10.37.84-.13,2.41.6,3.02,1.21,6.65,12.82,14.94,26.85,30.76,28.87,3.34.43,9.67-.27,12.11,2.07,1.89,1.82,1.49,5.21-1.05,6.16-6.67,2.49-19.6-.65-25.7-4.13ZM84.27,256.7c-.9.79-2.06,1.2-3.34,1.2-2.78,0-5.65-1.93-6.94-3.74-4.8-6.76-10-23.74-9.77-31.87.11-3.79,1.88-9.81,6.18-9.81,1.88,0,3.62,1.21,5.18,3.59.24.37.38.79.4,1.23.48,8.85,3.21,16.78,7.16,25.96.17.4.44.92.72,1.48,1.61,3.19,4.32,8.54.41,11.95ZM94.24,211.73c-.45.37-1.01.57-1.59.57-.11,0-.22,0-.33-.02-6.56-.87-8.47-6.8-9.87-11.13l-.03-.08c-2.45-7.6-3.6-17.58-2.92-25.44.46-5.35,3.18-6.73,4.77-7.07.44-.1.88-.14,1.3-.14,5.27,0,5.58,6.4,5.74,9.48.03.63.06,1.22.11,1.59.67,5.07,1.77,10.44,3.27,15.97.24.88.6,1.83.97,2.85,1.48,3.96,3.51,9.37-1.42,13.44ZM148.62,87.23c-2.51,8.29-11.25,20.73-18.52,25.47-6.56,4.27-20.22,8.15-27.68,5.26-3.58-1.38-2.57-5.79.39-7.1,2.49-1.1,7.7-.67,10.59-1.04,12.68-1.62,20.88-11.08,26.82-21.53,1.46-2.56,3.07-8.16,6.39-8.54,1.43-.16,2.91,1.74,2.99,3.04.05.88-.69,3.45-.99,4.44ZM100.88,63.66c2.13-4.76,6.75-8.06,11.5-8.19h.21c3.31,0,7.21,2.13,9.07,4.19,1.97,2.19,4.02,7.82,3.51,10.81-.34,2-2.17,3.46-4.34,3.46-.84,0-1.64-.22-2.33-.64-1.39-.84-1.74-2.32-2.09-3.76-.43-1.78-.79-2.99-1.94-3.55-.71-.35-1.36-.53-1.95-.53-.45,0-1.83,0-3.84,2.53-.15.19-.36.57-.56.93-.72,1.3-1.93,3.48-4.51,3.5-1.93,0-2.9-1.06-3.31-1.69-1.04-1.6-.85-3.84.58-7.06ZM143.46,61.66c-1.75-10.15-2.2-19.1-9.29-27.43-8.9-10.45-25.27-12.65-35.99-3.62-2.14,1.8-5.86,7.14-8.72,2.89-2.17-3.22,2.56-7.27,4.89-9.26,5.27-4.5,12.23-7.26,19.21-7.36,23.33-.33,37.08,23.06,37.18,44.08.03,5.34-6.31,6.28-7.28.7Z"/>
</svg>