<?xml version="1.0" encoding="UTF-8"?>
<svg id="Layer_11" data-name="Layer 11" xmlns="http://www.w3.org/2000/svg" viewBox="0 0 247.78 317.48">
  <defs>
    <style>
      .cls-1 {
        fill: #737438;
      }
    </style>
  </defs>
  <path class="cls-1" d="M70.16,281.21c-1.43-.88-3.81,3.35-4.39,4.44-4.26,7.95-5.82,17.57-11.88,24.78-8.93,10.62-21.85,9.77-21.38-6.24.05-1.7,1.53-7.2.12-8.25-2.49-1.84-5.16,1.06-7.28,2.1-5.8,2.84-21.76,9.55-22.78-1.56-.95-10.41,10.16-24.38,12.89-34.9,1.65-6.35-1.16-3.41-5.01-2.99-9,.99-12.42-6.34-9.38-14.09,2.94-7.48,13.26-15.33,18.26-22.77,1-1.49,5.45-8.54,5.72-9.75.06-.26.09-.51.06-.78-1.33.2-2.91-.95-3.44-2.11-1.67-3.67,2.37-11.23,3.53-15.13,1.7-5.72,2.92-11.18,4.95-16.91.58-1.64,3.13-6.18,2.2-7.58-.38-.57-3.27-.56-3.81-2.91-.73-3.16,3.14-8.48,4.9-11.1,4.6-6.85,10.12-13.62,16.79-18.53,1.24-.91,5.25-3.02,5.85-3.91,1-1.48-.54-1.8-.88-2.86-.86-2.65.54-4.15,2.37-5.74,12.88-7.81,30.02-12.63,40.88-23.37,1.77-1.75,3.47-4.05,3.33-6.68-.35-6.4-4.07-15.59-5.25-22.36-2.23-12.86.37-29.43,5.45-41.42.76-1.79,2.58-4.2,2.82-5.93,1.02-7.4-7.5-15.51-2.61-22.79,2.95-4.38,6.85.31,10.53.47,3.14.14,6.93-1.16,10.1-1.36,6.91-.44,12.48,1.92,17.83,6.05,5.69-.34,12.12-.7,17.84-.35,3.34.2,7.82,1.72,10.75,1.72,3.12,0,7.62-1.51,11.08-1.72,5.71-.34,12.15.02,17.84.35,5.26-4.17,10.99-6.51,17.83-6.05,3.08.2,6.71,1.41,9.76,1.37,4.15-.06,9.27-5.83,11.62,1.13,2.78,8.25-4.39,13.63-3.36,21.18.24,1.79,2.74,5.77,3.59,7.84,3.51,8.56,5.1,18.92,5.47,28.16.46,11.43-3.85,22.04-5.96,33.08-.7,3.64-2.22,10.95-1.8,14.37.29,2.3,4.59,9.71,5.73,12.77,2.84,7.62,5.64,18.18,6.38,26.24.27,2.97,1.3,10.62-2.88,11.25-1.29.2-2.85-.58-3.36,1.01-.61,1.86,0,6.31-.15,8.59-.51,7.38-3.92,16.6-6.9,23.37-1.3,2.95-4.28,10.62-8.48,9.17-1.48-.51-2.29-2.64-3.8-.93-4.44,7.11-10.59,12.76-15.97,19.01-2.52,2.93-6.69,10.91-11.05,10.66-1.22-.07-2.71-1.63-3.04-1.56-2.42,2.44-2,6.36-4.94,8.54-3.68,2.74-5.97-.31-9.64.79-.69.21-9.96,6.14-10.69,6.8-6.21,5.63,4.76,13.14,9.35,15.53,9.51,4.95,15.79,6.69,21.35,16.99,1.59,2.94,4.71,8.8.86,11.15-7.02,4.27-7.23-8.88-12.69-9.69l-.55.82c.86,3.42,1.63,10.12-2.75,11.39-5.27,1.52-5.08-7.18-6.01-10.02-1.11-3.41-4.96-3.17-7.55-4.89-3.46-2.3-9.77-8.91-13.13-12.1-1.49-1.41-3.28-5.1-5.87-3.19-2.91,2.13,2.32,7.3,4.02,9.08,6.5,6.81,19.2,15.37,20.71,25.03.4,2.57-.21,5.45-3.2,5.94-4.99.81-7.8-9.04-9.92-8.61-.94,1.23-.41,3.18-.61,4.78-.31,2.54-1.49,5.31-4.27,5.84-5.39,1.03-5.46-7.92-7.02-11.52-2.09-4.83-10.13-11.79-15-6.8-3.18,3.26-5.71,16.15-12.29,11.56-3.86-2.69.22-10.6,2.07-13.71,1.21-2.04,4.34-5.19,4.34-7.47,0-2.46-3.53-6.47-5.24-8.24-.53-.55-1.29-1.53-2.03-1.67-4.36-.84-6.79,6.4-11.6,4.2-1.17-.53-1.15-1.46-2.69-1.03-5.59,1.54-8.73,9.21-15.48,7.43-2.01-.53-4.05-4.02-6.06-3.4-3.69,1.13-5.25,15.73-11.56,14.99-3.28-.38-2.8-4.5-3.61-4.99ZM118.54,18.87c-.89.21-3.42,2.8-4.11,3.62-16.18,19.5-11.48,63.3,16.98,68.8,2.74.53,6.5.97,8.1-2.01,3.34-6.23-7.52-8.43-11.09-10.47-15.11-8.65-20.89-32.41-12.87-47.46,1.15-2.15,6.27-8.42,6.44-9.73.27-2.07-1.51-3.2-3.45-2.76ZM218.45,18.87c-1.61.37-1.89,2.22-1.44,3.65.24.74,3.09,3.85,3.82,4.92,10.57,15.47,6.83,40.11-9.18,50.57-3.76,2.46-12.97,4.09-12.97,9.24,0,4.72,5.42,4.7,8.76,4.05,28.49-5.52,33.1-49.43,16.8-68.96-1.46-1.74-3.36-4.02-5.8-3.47ZM134.35,22.91c-2.27.52-2.07,3.17-.92,4.81,2.04,2.9,7.89,5.56,10.94,7.56,6.18,4.06,10.51,7.24,13.78,14.14.93,1.95,2.61,8.46,4.45,9.01,5.68,1.7,1.87-7.74.93-10.01-4.91-11.96-10.69-15.16-21.12-21.26-1.46-.86-5.01-3.79-5.97-4.12-.74-.26-1.34-.29-2.1-.11ZM202.64,22.9c-.86.2-3.23,2.42-4.3,3.1-9.64,6.05-15.32,7.43-21.22,18.47-1.23,2.3-4.16,9.18-4.21,11.55-.06,2.69,3.17,3.48,4.75,1.1,1.46-2.18,2.35-6.52,3.83-9.29,2.7-5.07,6.61-8.41,11.32-11.56,3.21-2.15,12.84-6.61,13.42-10.47.34-2.25-1.51-3.37-3.58-2.9ZM136.72,39.03c-3.86.7-5.36,9.35-4.93,12.53,1.06,7.73,14.08,9.1,19.3,4.56,2.07-1.8.82-4.21-.32-6.39-1.75-3.34-10.23-11.4-14.05-10.71ZM201.31,39.04c-4.75.64-16.18,10.69-14.66,15.84.58,1.96,6,3.73,7.88,3.9,9.12.83,15.03-5.35,11.73-14.42-.68-1.85-2.61-5.64-4.95-5.33ZM168.66,65.28c-.74.22-2.57,3.16-3.07,4-3.94,6.62-4.18,11.56-.71,18.49.34.67,3.13,5.49,3.37,5.71.6.54,1.77.53,2.37,0,4.91-8.36,8.18-13.68,3.25-23.1-.94-1.8-2.89-5.78-5.2-5.09ZM134.69,122.46c-1.54.34-2.55,2.64-3.1,3.98-2.27,5.55-3.38,12.45-5.55,18.33-14.1,38.34-46.01,73.57-78.61,97.31-2.34,1.7-10.65,6.45-11.39,8.79-1.18,3.75,2.74,4.36,5.58,3.9,8.24-1.31,22.72-12.59,29.41-18.02,23.12-18.8,43.49-42.37,57.2-68.94,5.27-10.21,14.39-29.49,11.24-40.85-.61-2.18-2.03-5.1-4.78-4.5Z"/>
</svg>