<?xml version="1.0" encoding="UTF-8"?>
<svg id="Layer_11" data-name="Layer 11" xmlns="http://www.w3.org/2000/svg" viewBox="0 0 313.92 286.84">
  <defs>
    <style>
      .cls-1 {
        fill: #737438;
      }
    </style>
  </defs>
  <path class="cls-1" d="M218.1,120.86c-3.96-.08-12.52-2.72-14.42,1.96-1.6,3.93,1.19,6.41,4.87,6.98,11.47,1.77,25.7.05,36.12,5.86,2.56,1.43,6.38,5.92,8.26,6.34,5.53,1.25,10.69-3.03,14.3,3.35,2.44,4.31,1.39,7.68.53,12.22,3.66,4.01,7.06-6.44,7.69-9.22,3.12-13.85-.96-29.6-13.43-37.16-2.36,1.86-3.94,4.62-6.52,6.25-7.46,4.7-28.16,3.61-37.41,3.41Z"/>
  <path class="cls-1" d="M313.88,236.38c-.07-2.7-.26-5.41-.52-8.13-.52-5.4-1.22-10.76-1.58-16.18-.3-4.52-.79-9.03-.9-13.56-.13-5.16-.02-10.31-.77-15.41-.39-2.65-.83-5.49-.6-8.11.57-6.71,0-13.06-1.72-19.17-1.13-4-1.05-7.97-.33-12.06.26-1.46.5-2.96.56-4.46.21-5.92.35-11.85.5-17.77.03-1.06.14-2.17,0-3.19-.82-6-.68-11.95-.38-18.08.51-10.47.37-21.01.56-31.52.03-1.63.34-3.25.52-4.87.18-1.64.49-3.27.52-4.91l.14-8.42.04-4.21c0-.16,0-.4,0-.6v-.62s-.04-1.25-.04-1.25c-.06-.83-.11-1.66-.2-2.48-.73-6.61-3.09-13.06-6.87-18.44-1.46-2.1-3.07-4.08-4.91-5.77-1.83-1.69-3.88-3.09-6.09-4-3.23-1.31-6.19-2.82-9.28-4.24-3.07-1.43-6.24-2.83-9.6-3.79-2.46-.72-5.03-1.3-7.62-1.59-2.31-.29-4.62-.52-6.93-.54-5.01-.04-10.05-.21-15.07-.04-3.97.07-7.94.32-11.87.97-.44.07-.89.12-1.35.15-1.48-.01-2.99-.11-4.47-.13-7.15-.1-14.3-.33-21.45-.34-2.3,0-4.61.05-6.91.12-1.31.03-2.61.07-3.92.11-2.48.06-4.95.09-7.42.02-4.65-.14-9.26-.42-13.88-.23-2.35.03-4.71.17-7.08.48-5.32.71-10.72,1.12-16.1,1.64-.17.02-.34.02-.52.03-.23,0-.45.01-.68.03-.66.01-1.32.01-1.98.05-.15,0-.3.01-.45.02-5.45,0-10.71-1.07-16.09-1.48-4.5-.34-8.98-1.05-13.31-1.93C106.8.67,97.64-.1,88.28.24c-1.92.04-3.85.12-5.79.25-.71.05-1.42.1-2.13.13-.62,0-1.25-.02-1.86-.07-4.09-.33-8.16-.7-12.19-.5-3.02.03-6.03.31-9.02,1.13-.09.03-.2.04-.3.06-.32-.01-.63-.02-.94,0-2.16.07-4.32.08-6.48.06l-1.62-.02h-.82s-.97,0-.97,0c-.59,0-1.18.02-1.77.05h-.17c-1.29,0-2.58.09-3.87.2-5.14.5-10.24,2.01-14.69,4.61-4.64,2.71-8.85,6.02-12.51,9.87-3.66,3.85-6.77,8.27-9.05,13.15-1,2.11-1.61,4.44-2.4,6.57-.16.45-.32.9-.47,1.36-.14.46-.26.92-.38,1.39-.26.93-.41,1.88-.57,2.82-.14.95-.22,1.91-.28,2.86-.01.48-.02.95-.03,1.43v.7s.02.59.02.59c.13,3.16.5,6.27,1.05,9.26.8,4.35.72,8.39.35,12.46-.45,5-.83,9.85-.23,14.91.34,2.86.51,6.04.09,8.83-.01,1.7-.04,3.4.02,5.1.11,3.02.86,5.68,1.63,8.54.13.49.14,1.01.14,1.51.02,1.74.04,3.48.06,5.22,0,.32,0,.64.11.94.09.26.24.5.39.73,3.87,6.09,4.33,14.62,2.88,21.5-1.11,5.28-1.32,10.64-1.8,15.95-.13.64-.26,1.27-.4,1.9-.29,1.32-.56,2.64-.8,3.97-.05.58-.11,1.15-.16,1.73-1.31,13.79-2.09,27.52-1.97,41.46.09,9.74.41,19.48.48,29.23.03,3.87.13,7.74.06,11.6-.02,2.17.04,4.43.22,6.65.19,2.23.47,4.46.82,6.73.35,2.11.97,4.33,1.88,6.43.91,2.1,2.13,4.08,3.52,5.73,2.96,3.53,6.28,6.66,9.91,9.48,3.37,2.63,6.95,5.38,11.35,5.88,1.17.13,2.4.08,3.48-.41,3.06-1.41,2-5.09,1.84-7.76-.21-3.42-.33-6.84-.35-10.27-.04-6.84.33-13.68,1.22-20.46.57-4.35,1.35-8.68,2.37-12.95-.79-3.53-3.73-2.48-6.14-3.61-7.71-3.6-2.52-19.87-.88-26.16,6.77-25.96,22.57-60.66,40.29-80.81,1.31-1.48,11.09-9.93,9.44-11.55-16.21,4.34-10.59-4.91-2.72-11.55,15.65-13.2,44.36-24.95,64.56-27.94,2.49-.37,7.18.25,9.37-.98,1.64-.92-2.27-2.27-2.76-2.73-5.63-5.24,3.8-10.5,8.08-12.03,28.52-10.17,78.77,9.97,97.49,33.03,3.86,4.75,5.81,10.76,9.5,15.45,7.31,9.3,17.75,15.93,19.11,29.57.95,9.53-2.53,29.57-12.35,33.88-12.79,5.62-7.86-13.75-10.74-15.65-3.57-.84-7.32.34-10.87-.69-3.33-.97-9.94-7.71-12.04-7.95-12.6,2.64-36.2,12.61-30.5,29.19,3.55,10.33,28.55,26.29,37.58,34.84,1.35,1.27,7.23,6.36,5.44,8.2-.23.23-3.31.4-4.09.24-7.86-1.56-19.65-8-28.49-10.51-29.49-8.39-75.03-17.62-91.03,17.19-5.4,11.74-6.3,24.77-3.42,37.3,1.2,5.24,2.99,10.33,5.17,15.23,1.9,4.28,3.78,10.11,8.36,12.16,5.55,2.49,13.06,2.74,18.42-.28.55-.31,1.09-.68,1.37-1.24.39-.77.17-1.72-.24-2.48-1.41-2.59-3.26-4.98-4.73-7.55-1.52-2.66-2.92-5.39-4.15-8.2-2.42-5.53-4.16-11.39-4.79-17.41-.32-3.05-.34-6.12-.07-9.17,3.08-33.54,53.17-20.06,74.09-13.86,11.2,3.32,22.25,7.24,32.83,12.22,9.61,4.51,18.81,9.91,27.23,16.39,3.45,2.65,6.77,5.48,9.93,8.47,3.5,3.31,6.68,7.03,11.26,8.91,2.15.88,4.61,1.25,6.89.67,2.19-.55,3.36-2.16,4.23-4.15,2.16-4.98,3.04-10.23,4.01-15.53.93-5.11,1.19-10.2,1.05-15.31Z"/>
  <path class="cls-1" d="M213.75,92.34c-3.68-1.84-7.75-3.1-11.92-2.4-3.25.55-4.63,2.31-5.62,5.33-5.61,17.17,17.99,22.45,23.53,7.72,2.31-6.13-.72-8.02-6-10.65Z"/>
  <path class="cls-1" d="M250.65,111.98c4.92-3.15,2.34-11.06-3.78-9.9-7.85,1.48-3.82,14.77,3.78,9.9Z"/>
</svg>