<?xml version="1.0" encoding="UTF-8"?>
<svg id="Layer_11" data-name="Layer 11" xmlns="http://www.w3.org/2000/svg" viewBox="0 0 314.01 288">
  <defs>
    <style>
      .cls-1 {
        fill: #737438;
      }
    </style>
  </defs>
  <path class="cls-1" d="M313.94,236.38c-.04-1.09-.11-2.17-.18-3.26-.11-1.63-.24-3.25-.39-4.87-.52-5.4-1.22-10.76-1.58-16.18-.3-4.52-.79-9.03-.9-13.56h0c-.03-1.2-.05-2.39-.06-3.59-.02-1.3-.05-2.6-.09-3.89,0,0,0,0,0,0,0-.18,0-.36-.01-.53,0,0,0,0,0,0-.09-2.47-.24-4.94-.6-7.4-.39-2.65-.83-5.49-.6-8.11.57-6.71,0-13.06-1.72-19.17-1.13-4-1.05-7.97-.33-12.06.26-1.46.5-2.96.56-4.46.21-5.92.35-11.85.5-17.77.03-1.06.14-2.17,0-3.19-.82-6-.68-11.95-.38-18.08.51-10.47.37-21.01.56-31.52.03-1.63.34-3.25.52-4.88.18-1.64.49-3.27.52-4.91l.14-8.42.04-4.21c0-.16,0-.4,0-.6v-.62s-.04-1.25-.04-1.25c-.06-.83-.11-1.66-.2-2.48-.73-6.61-3.09-13.06-6.87-18.44-1.46-2.1-3.07-4.08-4.91-5.77-1.83-1.69-3.88-3.09-6.09-4-3.23-1.31-6.19-2.82-9.28-4.24-3.07-1.43-6.24-2.83-9.6-3.79-2.47-.72-5.03-1.3-7.62-1.59-2.31-.29-4.62-.52-6.93-.54-5.01-.05-10.05-.21-15.07-.04-3.97.07-7.94.32-11.87.97-.44.07-.89.12-1.35.15-1.48-.01-2.99-.11-4.47-.13-7.15-.1-14.3-.33-21.45-.34-2.3,0-4.61.05-6.91.12-1.31.03-2.61.07-3.92.11-2.48.06-4.95.09-7.42.02-4.65-.14-9.26-.42-13.88-.23-2.35.03-4.71.17-7.07.48-5.32.71-10.72,1.12-16.1,1.64-.17.02-.34.02-.52.03-.23,0-.45.01-.68.03-.66.01-1.32.01-1.98.05-.15,0-.3.01-.45.02-5.45,0-10.71-1.07-16.09-1.48-4.5-.34-8.98-1.05-13.31-1.93C106.8.67,97.64-.1,88.28.24c-1.92.04-3.85.12-5.79.25-.71.05-1.42.1-2.13.13-.63,0-1.25-.02-1.86-.07-4.09-.33-8.16-.7-12.19-.5-3.03.03-6.03.31-9.02,1.13-.09.03-.2.04-.3.06-.32-.01-.63-.02-.94,0-2.16.07-4.32.08-6.48.06l-1.62-.02h-.82s-.97,0-.97,0c-.59,0-1.18.02-1.77.05h-.17c-1.29,0-2.58.09-3.87.2-5.14.5-10.24,2.01-14.69,4.61-4.64,2.71-8.85,6.02-12.51,9.87-3.66,3.85-6.77,8.27-9.05,13.15-1,2.11-1.61,4.44-2.4,6.57-.16.45-.32.9-.47,1.36-.14.46-.26.92-.38,1.39-.26.93-.41,1.88-.57,2.82-.14.95-.22,1.91-.28,2.86-.01.48-.02.95-.03,1.43v.7s.02.59.02.59c.13,3.16.5,6.27,1.05,9.26.8,4.35.72,8.39.35,12.46-.45,5-.83,9.85-.23,14.91.34,2.86.51,6.04.09,8.83-.01,1.7-.04,3.4.02,5.1.11,3.02.86,5.68,1.63,8.54.13.49.14,1.01.14,1.51.02,1.74.04,3.48.06,5.22,0,.32,0,.64.11.94.09.26.24.5.39.73,3.87,6.09,4.33,14.62,2.88,21.5-1.11,5.28-1.32,10.64-1.8,15.95-.13.64-.26,1.27-.4,1.9-.29,1.32-.56,2.64-.8,3.97-.05.58-.11,1.15-.16,1.73-1.31,13.79-2.09,27.52-1.97,41.46.09,9.74.41,19.48.48,29.23.03,3.87.13,7.74.05,11.6-.02,2.17.04,4.43.22,6.65.19,2.23.47,4.46.82,6.73.1.6.23,1.21.37,1.82,0,0,0,0,0,0,0,.02.01.04.02.06.16.67.35,1.35.56,2.02,0,0,0,0,0,0,.05.14.09.29.14.43.24.71.49,1.41.79,2.1.23.53.48,1.04.74,1.55.3.58.64,1.14.98,1.69.23.36.46.7.7,1.05-.18-.25-.35-.5-.52-.76.17.27.36.52.54.78.06.09.12.18.18.27.26.37.54.72.82,1.06.01.01.02.03.03.04.01.02.03.04.05.06,1.31,1.56,2.67,3.03,4.09,4.43,0,0,0,.01.01.01.04.04.08.08.12.12.88.86,1.78,1.68,2.69,2.48.53.47,1.06.93,1.61,1.38,1.02.83,2.06,1.64,3.13,2.41,4.27,3.08,8.92,5.65,13.99,7.6l1.38.48.7.23.71.2,1.43.38c.19.04.38.08.56.12.29.06.59.12.88.18.97.21,1.95.31,2.94.44.49.06.99.08,1.48.11l.74.04.37.02h.31c.97.04,1.94.06,2.91.06.77,0,1.55,0,2.32,0,1.28-.01,2.57-.04,3.86-.09.89-.03,1.77-.06,2.66-.1.36-.02.73-.03,1.09-.04.79-.02,1.58-.03,2.38-.04,1.53,0,3.07.01,4.6.05.49.01.98.03,1.46.04.99.03,1.98.05,2.97.07.49,0,.98.02,1.47.03.47,0,.94,0,1.4,0l.05-.06c.8,0,1.59,0,2.39,0,1.18-.02,2.35-.08,3.51-.2.2-.02.39-.05.59-.08.47-.05.93-.12,1.4-.19.37-.06.74-.13,1.11-.21.06-.01.12-.02.17-.03.08-.01.16-.03.24-.05.51-.12,1.02-.23,1.52-.33.78-.16,1.55-.29,2.34-.37.45-.05.9-.07,1.37-.08.3,0,.59-.01.9,0,2.5.1,5,.21,7.49.29.89.03,1.77.05,2.66.08,1.61.04,3.23.08,4.84.08,3.15.01,6.3.07,9.44.16,3.03.09,6.05.21,9.08.37,2.76.15,5.54.16,8.33.1,4.65-.09,9.31-.35,13.96-.44,1.25-.03,2.5-.07,3.76-.11,1.24-.04,2.48-.07,3.72-.08.83,0,1.66,0,2.49,0,.27,0,.55.02.82.04l-.15.16c1.82.19,3.64.49,5.44.43.95-.03,1.91-.06,2.86-.09,1.52-.05,3.04-.09,4.56-.15,1.35-.05,2.7-.1,4.05-.15.85-.03,1.7-.06,2.55-.09,7.45-.26,14.89-.47,22.36-.28l-.06-.08c2.19.04,4.38.11,6.58.22,2.05.11,4.11.2,6.17.28l.08.11c4.53.16,9.06.27,13.59.3,1.1,0,2.19-.02,3.29-.07,3.03-.08,6.07-.37,9.11-.56.13,0,.27.01.4.02.22,0,.44.02.66.03.99.05,1.97.11,2.95.17.6.04,1.2.07,1.8.11,1.58.09,3.17.18,4.76.23.38.01.75.01,1.12.01l-.25-.08h-.03c.2,0,.41,0,.61.01,4.09.13,7.35-.39,9.93-1.37.82.02,1.62.17,2.44.23,1.36.11,2.77-.34,4.15-.42,1.59-.09,3.18-.02,4.76.2.29.04.59.09.88.05.11-.02.21-.05.32-.08.06-.02.12-.03.17-.05.08-.03.16-.05.24-.07,1.17-.31,2.33.16,3.49.25,1.25.1,2.54.09,3.8.09h.09s.06,0,.06,0c.31,0,.62-.02.93-.02.49,0,.98,0,1.48-.04,1.27-.02,2.56-.1,3.85-.25.7-.08,1.4-.19,2.1-.33.6-.11,1.2-.24,1.8-.38,1.11-.25,2.19-.62,3.31-1.01,1.08-.44,2.2-.9,3.27-1.49,2.17-1.15,4.29-2.65,6.24-4.59,2.01-1.98,3.96-4.14,5.61-6.46,1.66-2.32,3-4.81,3.8-7.29,1.02-3.12,1.75-6.25,2.33-9.38.58-3.13,1.02-6.26,1.42-9.48.13-.89.18-1.78.23-2.67.03-.49.04-.88.05-1.24s.01-.68.02-1.03c.01-1.37-.01-2.74-.07-4.1ZM44.2,284.83h0s0,0,0-.02c0,0,0,.01,0,.02ZM253.05,199.01c-.11.42-.25.83-.42,1.22-.43.98-1.06,1.85-1.84,2.62-.62.62-1.35,1.17-2.14,1.65-2.39,1.45-5.43,2.31-8.49,2.57-.91.08-1.8.1-2.66.08-6.92-.15-12.44-3.08-18.21-4.44-5.05-1.19-10.28-1.18-16.8,2.96-7.04,4.47-8.4,10.64-18.63,7.02-8-2.83-13.12-8.64-22.61-7.96-7.74.56-12.32,8.02-19.7,9.09-5.8.84-9.46-2.07-14.83-1.58-4.62.42-11.76,5.34-17.57,5.91-1.34.13-2.61.03-3.76-.4-.88-.33-1.68-.87-2.4-1.64-4.84-5.24,6.86-16.81,2.16-22.61-1.2-1.48-3.44-1.36-4.03-2.31-.4-.65-.03-1.8,1.98-4.3,2.22-2.77,4.65-4.95,6.99-7.13.33-.31.67-.62,1-.93.41-.38.81-.77,1.21-1.16,0,0,.01-.01.02-.02.37-.37.74-.74,1.1-1.12,2.53-2.65,4.76-5.66,6.28-9.92,4.03-11.33,6.87-26.32-1.32-36.44-3.28-4.05-11.57-8.41-12.09-13.82-.3-3.06.12-5.04,2.71-6.8,3.55-2.41,8.07-4.23,12.37-4.56,4.67-.35,9.38.77,14.02-.09,1.22-.23,2.46-.62,3.33-1.51,2.05-2.11.08-4.4-1.94-5.43-3.67-1.88-7.93-2.16-11.89-3.31-4.12-1.19-7.9-3.32-11.9-4.86-2.03-.78-4.11-1.41-6.23-1.89-1.89-.43-3.45-.44-4.93-1.78-2.59-2.35-3.35-5.78-4.31-9-1.05-3.52-3.61-6.42-2.03-10.15,4.67-11.02,28.79-20.97,40.03-22.74,29.09-4.58,61.41,11.27,80.48,32.66,2.1,2.35,10.52,12.79,10.42,15.28-.13,3.27-3.84.61-6.25.97-12.38,1.87-4.34,20.59-.1,26.91.2.3.42.59.63.89,3.82,5.38,8.95,10.01,13.4,14.83,4.12,4.47,8.17,9.08,10.83,13,.19.29.39.57.57.86,1.39,2.17,2.29,4.09,2.46,5.63,0,.08.01.16.01.23,0,.13.01.25,0,.36-.06,1.27-.88,1.47-1.91,1.35-.8-.21-1.58-.36-2.35-.47-.15-.03-.29-.05-.43-.06,0,0,0,0-.01,0-.16-.02-.33-.02-.49-.04-.44-.04-.89-.05-1.33-.04-.44,0-.87.04-1.29.1-.12.02-.25.03-.37.05-.19.03-.37.08-.55.13-.21.05-.41.11-.62.18-.06.02-.13.03-.19.06-.12.04-.22.1-.33.15-2.22.97-3.6,3.07-3.45,6.7.01.44.05.87.1,1.31,0,0,0,0,0,0,.19,1.43.78,3,1.66,4.67,3.79,7.21,12.75,16.09,15.68,22.33,1.21,2.58,1.45,4.82.98,6.73ZM283.96,272.75h0s.01,0,.02.01c0,0-.01,0-.02-.01ZM291.73,269c-.06.35-.22.66-.43.94-.08.06-.15.12-.23.17-.65.3-1.31.58-1.98.83-.02,0-.04.01-.06.02-.77.2-1.55.37-2.32.55-.57.06-1.14.1-1.71.11-1,.01-2.06-.11-2.9-.72-.59-.42-1.07-1.05-1.53-1.65-1.35-2.3-2.73-4.59-4.17-6.86-2.18-3.46-5.55-5.77-4.02-10.45.37-1.13,1.31-1.89,2.45-2.15,3.85-.87,5.09.7,7.32,3.38.6.72,1.22,1.5,1.84,2.33,1.15,1.52,2.33,3.22,3.52,5.02,0,0,0,0,0,.01.03.04.06.08.08.13.95,1.45,1.91,2.97,2.87,4.52.21.34.42.68.63,1.03-.24-.54-.48-1.07-.61-1.59.13.53.38,1.06.61,1.59,0,0,0,0,0,0,0,0,0,0,0,0,.4.9.78,1.82.62,2.78ZM303.53,203.02c-.09.35-.23.77-.59.93-.39.17-.87.12-1.28.03-.42-.1-.84-.24-1.25-.39-10.54-5.52-21.73-9.77-32.26-15.35-5.81-3.08-11.57-6.46-16.63-10.69-2.2-1.84-4.44-3.68-6.29-5.89-1.37-1.63-2.87-4.13-3.24-6.25-.63-3.6,4.85-1.93,7.01-2.44,2.38-.56,4.29-1.94,5.01-4.35,1.35-4.56-1.29-9.89-3.53-13.7-6.99-11.88-27.57-27.86-28.98-40.7-.11-.99-.39-4.02.82-4.27,3.18.67,8.53,6.85,11.65,3.89,3.4-3.23-1.02-13.69-2.81-17.35-17.24-35.25-69.41-59.37-107.05-47.87-15.84,4.84-29.43,14.21-38.7,27.99-.19.28-.38.56-.64.77-.3.25-.68.38-1.05.51-10.47,3.62-21.68,6.38-28.7,15.66-8.96,11.84-11.4,25.01-6.36,39.18.94,2.63,4.66,9.19,7.79,8.94,2.47-.2,1.37-4.27,1.12-5.72-.48-2.77.1-5.77,1.13-8.35.15-.38.32-.76.63-1.02,1.18-1.01,3.58-.16,4.93-.06,1.79.14,3.59.27,5.38.09,5.78-.58,12.4-3.37,17.97-3.93,3.84-.39,7.05,1.42,9.73,3.99,2.15,2.06,4.23,5.47,6.33,7.49,4.88,4.72,11.64,7.35,13.72,14.5,3.28,11.27-3.03,24.84-9.98,33.57-4.19,5.26-13.51,12.62-13.78,19.65-.23,6.13,7.28,4.11,6.19,9.03-2.1,9.47-16.71,24.07-23.49,31.24-10.76,11.38-20.43,26.68-27.8,42.59-.22.25-.49.45-.82.53-.42.1-.88.03-1.3-.03-.45-.06-.89-.15-1.34-.24-.67-.14-1.59-.31-1.91-1.01,0-.02,0-.03-.02-.05-.01-.09-.03-.17-.04-.26-.07-.64.12-1.13.39-1.69.15-.32.29-.64.41-.97,7.75-16.39,17.67-31.64,28.24-42.82.6-.64,1.27-1.34,1.98-2.08,5.51-5.77,16.48-17.26,19.46-24.58-2.27-1.28-5.95-4.02-5.72-9.87.28-7.35,6.35-13.72,11.23-18.83,1.47-1.54,2.85-2.99,3.8-4.18,5.82-7.31,11.65-19.13,8.96-28.38-.87-2.99-3.18-4.83-6.88-7.61-1.76-1.32-3.58-2.68-5.31-4.36-1.34-1.3-2.52-2.83-3.67-4.31-.92-1.19-1.87-2.42-2.64-3.17-2.55-2.44-4.18-2.44-4.71-2.44-.15,0-.3,0-.46.02-2.28.23-5,.97-7.89,1.76-3.29.9-6.7,1.83-10.09,2.17-.81.08-1.63.12-2.51.12-1.44,0-2.81-.11-4.02-.21l-.26-.02c-.16.66-.3,1.31-.36,1.74.04.26.11.65.17.96.52,2.79,1.23,6.62-1.13,9.69-1.25,1.63-3.1,2.62-5.21,2.79-.21.02-.42.02-.63.02-8.27,0-13-12.65-13.05-12.78-5.55-15.61-3.06-31.03,7.2-44.58,7.19-9.5,16.31-12.54,25.14-15.48,1.81-.6,3.66-1.22,5.52-1.9,8.87-13.66,23.47-24.12,41.35-29.58,6.84-2.09,14.27-3.15,22.08-3.15,37.29,0,76.77,23.21,91.82,54,3.9,7.97,7.34,18.62,1.6,24.06-1.64,1.56-3.71,2.38-5.97,2.38-.74,0-1.46-.09-2.15-.24,3.04,5.08,8.23,10.83,12.99,16.11,4.99,5.53,9.7,10.75,12.63,15.73,4.88,8.29,5.94,15.7,2.99,20.87-1.23,2.15-3.54,4.61-7.82,5.75,7.43,9.22,26.63,17.93,39.99,24,3.61,1.64,6.91,3.14,9.83,4.55.58.34,1.15.68,1.71,1.06.37.25.75.48.99.87.18.29.31.63.41.96.06.63.1,1.26.13,1.89-.02.36-.06.72-.15,1.08ZM86.56,91.19c-.31.32-2.51,1.23-3.02,1.24-3.41.08-9.08-7.57-6.68-10.65,3.97-5.07,13.72,5.26,9.69,9.41Z"/>
  <path class="cls-1" d="M132.48,67.08c-1.32-.49-9.82,1.18-11.51,1.8-4.92,1.79-4.52,10.41-2.14,14.21,3.47,5.54,11.53,6.23,16.05,1.71,1.78-1.78,3.22-5.64,3.09-8.14-.15-3-2.51-8.48-5.49-9.58Z"/>
</svg>