<?xml version="1.0" encoding="UTF-8"?>
<svg id="Layer_11" data-name="Layer 11" xmlns="http://www.w3.org/2000/svg" viewBox="0 0 313.94 288">
  <defs>
    <style>
      .cls-1 {
        fill: #737438;
      }
    </style>
  </defs>
  <path class="cls-1" d="M116.58,285.93c-1.85-1.61-3.7-3.23-5.55-4.84-.39-.34-.77-.68-1.15-1.02-3.73-2.65-8.07-7-10.61-9.33-3.5-3.2-7.09-6.45-10.47-9.78-.75-.74-2.7-3.37-3.48-3.73-.75-.35-1.04.52-1.58.89-3.67,2.5-3.95-.91-3.82-3.82.08-1.82,1.13-6.01.51-7.46-.58-1.38-1.83-.44-2.73.07-1.78,1.01-5.92,5.14-7.54,5.04-.74-.05-1.36-.5-1.46-1.24-.23-1.84,1.18-2.87,1.33-4.71.24-3-1.33-1.92-2.92-.68-3.76,2.94-6.69,6.49-5.29,11.59.78,2.83,7.9,10.82,10.1,13.74,2.55,3.38,5.01,6.81,7.5,10.23,1,1.09,1.73,2.44,2.5,3.69.46.75.91,1.51,1.35,2.27,1.62-.34,3.19-.59,4.95-.53,4.99.2,9.99.43,14.99.45,4.91.02,9.79.14,14.68.35-.45-.39-.89-.8-1.31-1.17Z"/>
  <path class="cls-1" d="M90.11,98.96c6.35-1.08,5.99-11.05-1-10.69-7.88.4-7.3,12.1,1,10.69Z"/>
  <path class="cls-1" d="M71.18,287.05c-.82-1.71-1.65-3.41-2.53-5.09-.43-.83-.88-1.65-1.33-2.48-2.37-3.02-4.76-6.03-7.04-9.11-2.99-4.03-6.27-9.83-9.59-13.35-2.01-2.13-2.61-.2-3.87,1.52-4.78,6.56-8.62,14.41-13.35,21.06-1.3,1.83-2.63,3.17-4.02,4.14,1.48.72,3,1.38,4.57,1.98l1.38.48.7.23.71.2,1.43.38c.48.11.96.2,1.45.3.97.21,1.95.31,2.94.44.49.06.99.08,1.48.11l.74.04.37.02h.31c.97.04,1.94.06,2.91.06,2.05.02,4.11-.02,6.18-.1.89-.03,1.77-.06,2.66-.1.36-.02.73-.03,1.09-.04.79-.02,1.58-.03,2.38-.04,1.53,0,3.07.01,4.6.05,1.96.05,3.94.12,5.9.13.12,0,.24,0,.36,0-.14-.28-.27-.57-.41-.85Z"/>
  <path class="cls-1" d="M186.98,285.75c.49-.5,1.02-1.05,1.6-1.51,2.46-2.42,4.9-4.87,7.31-7.35,4.37-4.97,9.89-9.73,14.36-14.46,3.39-3.6,7.54-7.6,7.4-13.01-.06-2.47-4.47-14.24-5.72-17.01-2.04-4.54-1.92.12-2.2,1.84-.39,2.47-1.86,4.23-4.32,2.42-1.84-1.35-5.66-7.72-6.9-9.97-.73-1.33-3.67-8.09-4.33-8.49-1.21-.73-1.41.06-1.65,1.08-.32,1.38-.09,4.17-1.69,4.83-2.32.95-4.07-2.23-5.01-3.87-3.58-6.23-7.35-14.46-10.42-21.07-3.3-7.1-5.31-11.53-5.03-19.6.02-.48-.33-1.12-.86-.84-.81.43-1.79,3.74-3.81,4.29-4.35,1.19-2.96-6.6-2.7-9,.62-5.73,1.62-12.28,2.76-17.93,1.21-5.97,3.38-11.1,5.54-16.73.16-2.32-4.85-.79-6.2-.79-1.43,0-2.41-.79-2.06-2.29.21-.93,4.7-4.91,5.69-6,3.37-3.73,7.38-8.51,10.45-12.49.81-1.05,3.44-4.02.97-4.56-2.61-.57-5.93-.56-8.66-1.01-1.03-.17-5.69-1.04-6.19-1.57-.6-.63-.3-1.65.41-2.06,1.05-.62,4.01-.74,5.43-1.1,4.59-1.16,15.64-6.91,18.04-10.97.23-.39.5-.76.58-1.23l-.37-.52c-2.39-.19-9.07.49-10.65-1.49-.62-.77-.53-1.61.36-2.11.56-.31,3.57-.58,4.59-.81,5.35-1.21,8.28-3.79,12.81-6.3,11.79-6.54,29.83-9.73,42.21-3.29,3.77,1.96,6.58,5.13,10.75,6.56,4.16,1.43,8.63,1.23,12.9,2.17,7.12,1.57,23.15,8.81,25.33,16.28,1.07,3.67-.8,3.48-3.82,3.37-12.12-.44-24.28-3.4-34.39,5.17-5.01,4.25-7.32,8.75-3.14,14.82,2.86,4.16,12.35,7.5,17.03,10.18,10.4,5.95,16.94,12.33,23.73,22.15,1.97,2.85,5.11,7.46,6.22,10.65.57,1.65.26,3.52-1.8,3.61-2.44.11-8.54-5.2-11.06-6.49-.94-.48-3.17-1.55-2.99.27.17,1.74,6.64,8.04,8.2,9.59,3.88,3.85,7.95,7.72,12.04,11.35,2.95,2.62,9,6.73,10.99,9.71.66.99,1.57,2.21.34,3.19-1.9,1.51-4.77-1.1-6.81-.4-.52.73,1.4,2.79,1.89,3.35,2.22,2.54,5.01,4.77,7.74,7-.03-.41-.06-.82-.09-1.23-.3-4.52-.79-9.03-.9-13.56-.13-5.16-.02-10.31-.77-15.41-.39-2.65-.83-5.49-.6-8.11.57-6.71,0-13.06-1.72-19.17-1.13-4-1.05-7.97-.33-12.06.26-1.46.5-2.96.56-4.46.21-5.92.35-11.85.5-17.77.03-1.07.14-2.17,0-3.19-.82-6-.68-11.95-.38-18.08.51-10.47.37-21.01.56-31.52.03-1.63.34-3.25.52-4.88.18-1.64.49-3.27.52-4.91l.14-8.42.04-4.21c0-.16,0-.4,0-.6v-.62s-.04-1.24-.04-1.24c-.06-.83-.11-1.66-.2-2.48-.73-6.61-3.09-13.06-6.87-18.43-1.46-2.1-3.07-4.08-4.91-5.77-1.83-1.69-3.88-3.09-6.09-4-3.23-1.31-6.19-2.82-9.28-4.24-3.07-1.43-6.24-2.83-9.6-3.79-2.46-.72-5.03-1.3-7.62-1.59-2.31-.29-4.62-.52-6.93-.54-5.01-.04-10.05-.21-15.07-.04-3.97.07-7.94.32-11.87.97-.44.07-.89.12-1.35.15-1.48-.01-2.99-.11-4.47-.13-7.15-.1-14.3-.33-21.45-.34-2.3,0-4.61.05-6.91.12-1.31.03-2.61.07-3.92.11-2.48.06-4.95.09-7.42.02-4.65-.14-9.25-.42-13.88-.23-2.35.03-4.71.17-7.07.48-5.32.7-10.72,1.12-16.1,1.64-.17.02-.34.02-.52.03-.23,0-.45.01-.68.03-.66.01-1.32.01-1.98.05-.15,0-.3.01-.45.02-5.45,0-10.71-1.07-16.09-1.48-4.5-.34-8.98-1.05-13.31-1.93C106.8.67,97.64-.1,88.28.24c-1.92.04-3.85.12-5.79.25-.71.05-1.42.1-2.13.13-.63,0-1.25-.02-1.86-.07-4.09-.33-8.16-.7-12.19-.5-3.03.03-6.03.31-9.02,1.13-.09.03-.2.04-.3.06-.32-.01-.63-.02-.94,0-2.16.07-4.32.08-6.48.06l-1.62-.02h-.82s-.97,0-.97,0c-.59,0-1.18.02-1.77.05h-.17c-1.29,0-2.58.09-3.87.2-5.14.5-10.24,2.01-14.69,4.61-4.64,2.71-8.85,6.02-12.51,9.87-3.66,3.85-6.77,8.27-9.05,13.15-1,2.11-1.61,4.44-2.4,6.57-.16.45-.32.9-.47,1.36-.14.46-.26.92-.38,1.39-.26.93-.41,1.88-.57,2.82-.14.95-.22,1.91-.28,2.86-.01.48-.02.95-.03,1.43v.7s.02.59.02.59c.13,3.16.5,6.27,1.05,9.26.8,4.35.72,8.39.35,12.46-.45,5-.83,9.85-.23,14.91.34,2.86.51,6.04.09,8.83-.01,1.7-.04,3.4.02,5.1.11,3.02.86,5.68,1.63,8.54.13.49.14,1.01.14,1.51.02,1.74.04,3.48.06,5.22,0,.32,0,.64.11.94.09.26.24.5.39.73,3.87,6.09,4.33,14.62,2.88,21.5-1.11,5.28-1.32,10.64-1.8,15.95-.13.64-.26,1.27-.4,1.9-.29,1.32-.56,2.64-.8,3.97-.05.58-.11,1.15-.16,1.73-1.31,13.79-2.09,27.52-1.97,41.46.04,4.27.12,8.55.21,12.82,2.89-2.37,5.9-4.72,8.27-7.43.49-.56,2.41-2.62,1.89-3.35-2.04-.7-4.91,1.91-6.81.4-1.23-.98-.32-2.2.34-3.19,1.99-2.97,8.03-7.08,10.99-9.71,4.09-3.63,8.16-7.5,12.04-11.35,1.56-1.55,8.03-7.85,8.2-9.59.18-1.83-2.05-.76-2.99-.27-2.52,1.3-8.62,6.6-11.06,6.49-2.06-.09-2.37-1.96-1.8-3.61,1.11-3.19,4.25-7.8,6.22-10.65,6.79-9.82,13.33-16.2,23.73-22.15,4.68-2.68,14.17-6.03,17.03-10.18,4.18-6.07,1.87-10.58-3.14-14.82-10.11-8.57-22.27-5.61-34.39-5.17-3.02.11-4.9.3-3.82-3.37,2.19-7.47,18.21-14.71,25.33-16.28,4.26-.94,8.73-.74,12.9-2.17,4.18-1.43,6.99-4.61,10.75-6.56,12.38-6.43,30.42-3.25,42.21,3.29,4.53,2.51,7.46,5.1,12.81,6.3,1.02.23,4.03.5,4.59.81.9.5.98,1.34.36,2.11-1.58,1.99-8.26,1.3-10.65,1.49l-.37.52c.08.46.35.84.58,1.23,2.4,4.07,13.45,9.81,18.04,10.97,1.42.36,4.38.48,5.43,1.1.71.42,1,1.43.41,2.06-.5.53-5.17,1.4-6.19,1.57-2.73.45-6.05.44-8.66,1.01-2.47.54.16,3.5.97,4.56,3.07,3.98,7.07,8.76,10.45,12.49.99,1.1,5.48,5.08,5.69,6,.35,1.5-.64,2.29-2.06,2.29-1.35,0-6.35-1.53-6.2.79,2.17,5.63,4.33,10.76,5.54,16.73,1.15,5.65,2.15,12.19,2.76,17.93.26,2.4,1.65,10.19-2.7,9-2.02-.55-3-3.86-3.81-4.29-.53-.28-.87.36-.86.84.28,8.07-1.72,12.51-5.03,19.6-3.07,6.61-6.84,14.83-10.42,21.07-.94,1.64-2.69,4.82-5.01,3.87-1.6-.66-1.36-3.45-1.69-4.83-.24-1.02-.43-1.81-1.65-1.08-.66.4-3.6,7.16-4.33,8.49-1.23,2.24-5.05,8.62-6.9,9.97-2.46,1.8-3.93.05-4.32-2.42-.27-1.73-.16-6.38-2.2-1.84-1.25,2.78-5.66,14.54-5.72,17.01-.14,5.41,4.01,9.42,7.4,13.01,4.47,4.74,9.98,9.5,14.36,14.46,2.41,2.48,4.84,4.93,7.31,7.35.58.46,1.11,1.01,1.6,1.51.53.54,1.04,1.09,1.55,1.65,5.14-.05,10.3-.35,15.45-.46,3.32-.07,6.65-.24,9.97-.18.27,0,.55.02.82.04-.05.05-.1.11-.15.16,1.82.19,3.64.49,5.44.44,2.47-.07,4.94-.15,7.41-.24,2.2-.08,4.4-.16,6.6-.24,4.02-.14,8.04-.27,12.06-.32.26-.28.52-.57.79-.84Z"/>
  <path class="cls-1" d="M126.99,197.47c-.44,1.23-1.8,4.39.29,4.78,1.37.25,2.21-.78,3.03-1.68,5.85-6.43,7.86-25.58,4.31-33.33-.24-.51-.89-1.67-1.6-1.17-.05.04-.36,1.06-.41,1.27-.64,2.69.13,7.02-.06,10.06-.48,7.65-3.09,13.16-5.57,20.07Z"/>
  <path class="cls-1" d="M19.3,199.76c2.14-.28,4.82-2.51,6.53-3.81,10.97-8.34,23.11-20.76,28.43-33.65.5-1.2,2.07-5.53-.7-4.98-2.2.43-4.16,5.6-5.3,7.53-8.03,13.57-17.06,23.79-29.85,33.12-1.07,1.38-1.1,2.05.89,1.79Z"/>
  <path class="cls-1" d="M288.17,195.94c1.71,1.3,4.39,3.54,6.53,3.81,1.99.26,1.96-.41.89-1.79-12.79-9.34-21.82-19.55-29.85-33.12-1.14-1.93-3.1-7.09-5.3-7.53-2.77-.55-1.2,3.78-.7,4.98,5.32,12.88,17.46,25.31,28.43,33.65Z"/>
  <path class="cls-1" d="M244.65,142.32c.04-.68.23-3.09-.6-3.23-2.3-.41-3.89,6.61-4.1,8.2-3.51,26.94,18.83,54.05,36.96,71.38,9.69,9.27,21.22,18.96,32.52,26.18.85.54,2.36,1.51,4.02,2.51.09-.65.17-1.29.25-1.95.13-.88.18-1.77.23-2.65-1.48-.92-2.88-1.8-3.92-2.55-9.13-6.56-18.22-14.24-26.47-21.88-3.67-3.41-9.48-8.5-12.33-12.41-.76-1.05-1.88-3.3.42-2.67,1.3.36,7.88,5.55,9.68,6.74,5.82,3.84,16.14,10.59,22.6,12.49.83.24,2.88.97,3.21-.15.24-.96-.65-1.83-1.33-2.41-4.72-4-12.61-7.75-18.04-11.42-19.27-13.02-46.31-36.04-43.78-61.92.14-1.42.59-2.85.68-4.27Z"/>
  <path class="cls-1" d="M2.03,246.46c1.05-.65,1.95-1.23,2.54-1.61,11.3-7.22,22.83-16.91,32.52-26.18,18.13-17.34,40.47-44.44,36.96-71.38-.21-1.59-1.81-8.61-4.1-8.2-.83.15-.65,2.55-.6,3.23.09,1.42.54,2.85.68,4.27,2.53,25.88-24.52,48.9-43.78,61.92-5.43,3.67-13.32,7.42-18.04,11.42-.69.58-1.57,1.44-1.33,2.41.33,1.11,2.38.39,3.21.15,6.46-1.9,16.77-8.65,22.6-12.49,1.81-1.19,8.38-6.38,9.68-6.74,2.3-.63,1.18,1.62.42,2.67-2.85,3.91-8.65,9.01-12.33,12.41-8.25,7.64-17.34,15.32-26.47,21.88-.59.42-1.29.88-2.05,1.37,0,.05,0,.1,0,.15-.02,1.54.01,3.13.09,4.72Z"/>
  <path class="cls-1" d="M140.42,169.98c.36.79,1.35,2.24,2.32,2.09,1.51-.53,1.39-2.55,1.3-3.91-.28-4.07-3.91-17.54-6.31-20.68-.38-.49-1.2-1.3-1.86-1.2-.51.08-.9.54-1.02,1.02-.61,2.63,1.2,5.85,1.91,8.34,1.16,4.05,2.07,10.89,3.66,14.34Z"/>
  <path class="cls-1" d="M186.72,202.25c2.09-.39.74-3.55.29-4.78-2.48-6.91-5.08-12.43-5.57-20.07-.19-3.04.58-7.37-.06-10.06-.05-.21-.36-1.23-.41-1.27-.71-.5-1.36.66-1.6,1.17-3.55,7.75-1.54,26.91,4.31,33.33.82.9,1.67,1.93,3.03,1.68Z"/>
  <path class="cls-1" d="M232.08,284.56c.77-1.25,1.5-2.6,2.5-3.69,2.49-3.42,4.95-6.85,7.5-10.23,2.2-2.92,9.32-10.91,10.1-13.74,1.41-5.1-1.53-8.65-5.29-11.59-1.6-1.24-3.17-2.32-2.92.68.15,1.84,1.55,2.87,1.33,4.71-.09.74-.71,1.2-1.46,1.24-1.62.1-5.76-4.03-7.54-5.04-.9-.51-2.15-1.45-2.73-.07-.61,1.45.43,5.64.51,7.46.13,2.91-.14,6.32-3.82,3.82-.54-.37-.83-1.24-1.58-.89-.78.36-2.73,2.98-3.48,3.73-3.37,3.33-6.97,6.58-10.47,9.78-2.54,2.33-6.89,6.68-10.61,9.33-.38.34-.77.68-1.15,1.02-1.85,1.61-3.7,3.23-5.55,4.84-.23.2-.47.42-.7.63,2.09.04,4.18.11,6.28.22,2.05.11,4.11.2,6.17.28.03.04.05.07.08.11,4.53.16,9.06.27,13.59.3,1.1,0,2.19-.02,3.29-.07,1.47-.04,2.93-.13,4.4-.23.51-.87,1.03-1.74,1.55-2.6Z"/>
  <path class="cls-1" d="M195.21,104.8c.24-.75.42-1.52-.43-1.93-.59-.16-1.14.28-1.62.55-1.64.93-6.09,4.06-7.09,5.51-.79,1.14-1.28,3.08.67,3.15,2.14.08,7.83-5.23,8.48-7.27Z"/>
  <path class="cls-1" d="M280.54,279.6c-4.74-6.65-8.58-14.5-13.35-21.06-1.25-1.72-1.85-3.65-3.87-1.52-3.32,3.52-6.6,9.32-9.59,13.35-2.29,3.08-4.67,6.09-7.04,9.11-.45.82-.89,1.65-1.33,2.48-.88,1.68-1.72,3.38-2.53,5.09-.03.07-.07.14-.1.2,1.03.05,2.06.1,3.09.14.38.01.75.01,1.12.01-.09-.03-.17-.05-.25-.08-.01,0-.02,0-.03-.01.2,0,.41.02.61.03,4.09.13,7.35-.39,9.93-1.37.82.02,1.62.17,2.44.23,1.36.11,2.77-.34,4.15-.42,1.59-.09,3.18-.02,4.76.2.29.04.59.09.88.05.25-.04.49-.14.73-.2,1.17-.31,2.33.16,3.49.25,1.25.1,2.54.09,3.8.09.05,0,.1,0,.14,0,.8,0,1.6-.02,2.4-.06,2.41-.04,4.85-.29,7.32-.86-2.39-.94-4.61-2.61-6.76-5.62Z"/>
  <path class="cls-1" d="M128.52,120.26c-.37-.11-.85-.2-1.22-.07-1.07.36.62,4.04.98,4.81,1.31,2.84,3.87,6.12,6.3,8.1.86.7,3.3,2.34,4.28,1.35.7-1.26-.28-2.88-.95-4.01-1.02-1.71-7.84-9.7-9.39-10.17Z"/>
  <path class="cls-1" d="M223.9,98.96c8.3,1.42,8.88-10.28,1-10.69-6.99-.36-7.35,9.6-1,10.69Z"/>
  <path class="cls-1" d="M120.84,103.42c-.48-.27-1.02-.71-1.62-.55-.86.41-.67,1.18-.43,1.93.65,2.05,6.33,7.35,8.48,7.27,1.94-.07,1.45-2,.67-3.15-.99-1.45-5.45-4.58-7.09-5.51Z"/>
  <path class="cls-1" d="M179.43,133.09c2.43-1.98,4.99-5.25,6.3-8.1.35-.77,2.05-4.45.98-4.81-.36-.12-.85-.04-1.22.07-1.55.47-8.38,8.46-9.39,10.17-.67,1.12-1.65,2.75-.95,4.01.98.99,3.42-.65,4.28-1.35Z"/>
  <path class="cls-1" d="M171.26,172.08c.96.15,1.95-1.31,2.32-2.09,1.59-3.45,2.5-10.29,3.66-14.34.71-2.49,2.52-5.71,1.91-8.34-.11-.48-.51-.95-1.02-1.02-.66-.1-1.48.71-1.86,1.2-2.4,3.14-6.02,16.61-6.31,20.68-.09,1.35-.21,3.38,1.3,3.91Z"/>
</svg>