<?xml version="1.0" encoding="UTF-8"?>
<svg id="Layer_11" data-name="Layer 11" xmlns="http://www.w3.org/2000/svg" viewBox="0 0 233.77 260.45">
  <defs>
    <style>
      .cls-1 {
        fill: #737438;
      }
    </style>
  </defs>
  <path class="cls-1" d="M219.33,259.15c1.3-.26,2.56-.65,3.71-1.29,2.7-1.52,3.32-3.88,3.99-6.69.76-3.18,1.49-6.38,2.12-9.59,1.25-6.3,2.2-12.73,2.13-19.17-.01-1.03-.05-2.06-.13-3.08-.34-4.74-1.97-9.69-2.55-14.42.26-2.79,4.46-1.81,5.07-6.45,1.19-8.99-8.06-18.08-9.22-26.87-1.07-8.18,2.52-15.75,1.06-24.03-1.12-6.38-4.82-12.89-6.9-19.04-1.2-3.56-1.97-7.28-3.19-10.84-.8-2.33-3.89-8.11-3.32-10.1.2-.71,1-1.14,1.17-2.24,1.01-6.55-4.39-14.2-7.1-19.93-.04-.08-.02-.16.03-.23,1.72-2.33,2.36-3.98,1.95-7.01-.91-6.75-5.98-10.2-6.37-18.3-.68-14.11,8.92-19.66,13.83-30.87,1.89-4.32,4.28-10.21,5.76-14.65,1.4-4.2,2.67-9.57-1.27-12.78-4.71-3.83-10.11.41-14.6,2.43-2.12.95-4.29,1.28-6.39,2.55-3.32,2.01-9.55,8.88-12.19,12.06-5.07,6.12-7.75,12.42-14.26,17.64-2.9,2.32-4.78,2.41-8.45,2.09-9.37-.81-15.74-4.18-25.95-2.88-5.96.75-16.19,4.9-21.5,1.84-6.71-3.87-13.29-16.13-18.94-22.31-6.78-7.42-11.92-10.44-21.37-13.93-6.9-2.55-11.84.66-11.17,8.2.37,4.12,6.52,19.16,8.71,23.19,4.63,8.52,12.31,14.29,12.53,25.34.12,6.27-2.26,9-4.53,14.11-1.52,3.44-4.23,10.16-.18,12.5l.08.54c-2.32,6.03-8.27,13.69-7.23,20.43.17,1.11.97,1.53,1.17,2.24.48,1.68-2.58,9.04-3.12,11.58-1.73,8.01-1.76,17.6-9.17,22.73-6.46,4.49-10.96,3.91-17.39,6.43-5.55,2.17-7.46,7.24-2.56,11.49,2.49,2.16,6.61,2.79,5,6.69-2.55,6.14-13.68,14.8-18.59,20.53-7.89,9.19-26.9,32.23-29.59,43.15-.93,3.8-.46,8.85,4.64,8.5,2.32-.16,5.82-3.33,6.22.13,0,.04,0,.08-.02.12-.81,2.06-1.63,4.11-2.43,6.18-.75,1.94-1.19,3.42-.23,5.41,1.15,2.38,3.35,4.03,5.73,5.05,11.17,4.78,24,5.61,36.03,4.34,5.28-.56,10.52-1.45,15.8-1.97,2.67-.26,5.35-.43,8.04-.41,2.37.02,4.79.14,6.89-1.18,2.19-1.38,3.72-4,5.26-6.03,1.83-2.4,3.58-4.86,5.25-7.37,3.46-5.18,6.59-10.58,9.32-16.17,1.22-2.5,2.36-5.04,3.42-7.61,5.69-13.81,10.47-39.19.3-52.47-5.13-6.7-9.95-9.56-16.13-9.56-2.94,0-3.39-.36-7.52.96-.81.26-2.04.8-3.35,1.37-3.57,1.56-8.79,2.73-10.33-2.28-.82-2.67.4-5.68,3.04-7.47,7.98-5.43,12.03-6.55,21.55-6.55,13.39,0,24.53,6.08,30.59,16.67,11.12,19.46,7.43,50.17,4.24,66.75-.92,4.77-1.97,9.51-3.16,14.22-.59,2.36-1.22,4.71-1.88,7.06-.54,1.93-1.86,4.55-1.26,6.56.8,2.71,3.96,3.06,6.31,3.44,6.53,1.06,13.4.97,20.01.97,9.92-.1,19.75-.73,29.68-.29,10.64.47,21.45,2.13,32.1,1.91,3-.06,6-.61,8.97-.99.62-.08,1.23-.17,1.84-.29ZM123.92,87.43c-4.63,2.63-9.86,1.71-12.8-2.85-2.76-4.28-2.91-8.69-1.39-13.47.27-.85,1.92-4.44,2.6-4.66.48-.16.98-.07,1.41.19l15.08,12.93s.05.05.07.08c.95,2.04-3.21,6.78-4.96,7.77ZM149.35,115.28l-.12.2c-.76,1.27-1.91,3.18-4.24,3.84-.25.07-.5.12-.73.13-.07,0-.19,0-.26,0-2.27,0-4.39-1.96-6.28-5.81-2.47-5.02-4.02-14.48-2.31-20.02.54-1.75,2.82-5.84,6.08-6.57.82-.18,1.63-.28,2.41-.28,5.21,0,8.8,4.09,9.35,10.67.49,5.8-1.15,13.3-3.9,17.84ZM164.35,87.49c-1.77-.96-6.3-5.73-5.34-7.83.01-.03.04-.06.06-.08l13.58-11.88s.01,0,.02-.01c.54-.39,1.62-1.1,2.22-1.21,1.19-.23,2.15,1.75,2.62,2.76.76,1.64,1.54,4.58,1.71,6.37.79,8.36-6.29,16.52-14.86,11.88ZM190.18,46.01c-.3.68-.84,1.25-1.23,1.89-.67,1.09-1.39,2.15-2.16,3.18-1.51,1.99-3.21,3.84-5.1,5.47-6.86,5.93-16.18,13.03-23.56,18.31-11.34,8.09-17.31,8.05-28.6-.17-7.43-5.41-17.34-12.81-24.08-18.88-1.76-1.59-3.51-3.21-5.03-5.05-.9-1.09-1.8-2.23-2.46-3.48-1.01-1.91-.51-2.98,1.7-3.6.37-.1.77-.16,1.17-.16,1.64,0,3.27.84,4.79,1.76,2.58,1.55,5.14,3.6,7.62,5.59,1.81,1.45,3.52,2.82,5.19,3.98,6.88,4.75,12.56,8.39,16.88,10.81,3.69,2.07,6.43,2.99,8.89,2.99,3.47,0,6.93-1.96,11.8-4.95,4.47-2.74,9.75-6.21,14.49-9.52,1.3-.91,2.78-2.11,4.35-3.38,2.94-2.39,5.98-4.86,8.83-6.22,1.52-.72,2.78-1.07,3.87-1.07,1.49,0,3.43.75,2.64,2.52Z"/>
</svg>