<?xml version="1.0" encoding="UTF-8"?>
<svg id="Layer_11" data-name="Layer 11" xmlns="http://www.w3.org/2000/svg" viewBox="0 0 249.87 347.83">
  <defs>
    <style>
      .cls-1 {
        fill: #737438;
      }
    </style>
  </defs>
  <path class="cls-1" d="M131.55,96.29c-.13.14-1.96.23-2.43.14-4.66-.92-11.64-4.74-16.87-6.23-17.46-4.97-44.44-10.43-53.91,10.18-10.53,22.9,8.75,46.37,23.48,62.06,18.91,20.15,39.03,33.71,62.03,48.62,7.62,4.94,17.49,12.19,25.32,16.13,2.84,1.43,5.59,2.59,8.51.46,4.12-3.01,1.69-7.49-1.67-9.82-5.82-4.03-12.94-7.66-19.04-11.59-27.12-17.51-53.28-35.72-74.05-60.75-7.92-9.54-16.34-21.17-15.14-34.22,1.82-19.86,31.49-11.88,43.88-8.21,29.43,8.72,47.64,21.85,60.94,49.7,11.4,23.87,23.26,45.96,37.02,68.58,5.86,9.62,21.62,30.61,23.05,40.74.81,5.72-1.73,9.86-7.92,9-3.2-.45-5.45-3.23-7.76-4.14-2.67-1.05.36,2.96.76,3.56,3.06,4.54,6.12,8.26,8.77,13.21,8.24,15.41,14.65,32.85,22.41,48.59,2.54,6.49-.28,11.61-7.56,9-2.09-.75-4.96-4.72-5.8-4.55-1.6.32-.29,3.3-.23,4.46.44,9.1-7.21,7.42-12.26,3.24-8.71-7.21-22.76-32.32-28.66-43.07-7.3-13.31-12.19-28.65-23.59-39.12-5.13-4.71-20.87-16.8-27.76-15.89-2.11.28-3.86,2.05-5.93,2.75-4.1,1.39-6.71.08-7.6,5.73-1.16,7.32,4.04,9.99,7.11,15.63,1.78,3.28,5.15,12,.21,14.02-5.7,2.33-7.59-7.33-9.32-10.67-4.6-8.86-12.3-3.32-15.01,3.65-1.49,3.84-1.62,13.71-7.91,11.34-5.14-1.93-2.12-11.29-.3-14.87.86-1.69,4.36-4.81,1.46-5.75-1.88.01-5.7,5.91-6.49,7.58-.74,1.56-2.58,6.96-2.7,8.48-.07.89.61,2.17.7,3.23.26,2.89-.61,7.4-4.4,6.96-5.67-.65-5.87-12.04-10.47-14.79-5.18-3.09-10.42,3.05-12.07,7.54-1.27,3.47-1.69,13.59-7.55,11.35-5.73-2.19-2.16-10.61-.29-14.5.67-1.39,4.98-6.81,1.09-6.81-1.92,0-5.41,6.71-6.26,8.49-1.41,2.95-2.9,10.53-6.99,10.15-4.01-.38-4.2-5.51-3.31-8.56,2.02-6.97,12.85-20.28,19.97-22.2,2.45-.66,6.56-.2,8.5-1.23,2.06-1.09,8.09-8.93,7.67-11.28-.13-.74-2.65-3.03-3.41-4.19-5.88-8.87-2.31-21.31-8.06-29.06-2.14-2.89-10.13-6.47-13.66-8.68-16.62-10.41-28.11-18.97-36.38-37.5-.79-1.77-3.05-9.88-4.91-9.86-1.1,0-1.84,1.99-4.52,1.28-3.59-.96-5.03-9.85-5.64-13.1-2.78-14.76-4.05-30.12-.54-44.86-.47-2.09-2.21-1.47-3.63-2.14-4.56-2.13-1.49-11.77-.52-15.5,4.01-15.38,13.37-35.93,23.86-47.86.77-.88,6.57-5.88,5.59-6.84-9.6,2.57-6.27-2.91-1.61-6.84,9.27-7.82,26.27-14.78,38.24-16.55,1.48-.22,4.25.15,5.55-.58.97-.54-1.34-1.35-1.64-1.62-3.34-3.11,2.25-6.22,4.79-7.13,16.89-6.02,46.65,5.91,57.74,19.56,2.29,2.81,3.44,6.37,5.63,9.15,4.33,5.51,10.51,9.43,11.32,17.51.56,5.65-1.5,17.51-7.32,20.07-7.57,3.33-4.66-8.15-6.36-9.27-2.11-.5-4.33.2-6.44-.41-1.97-.57-5.89-4.57-7.13-4.71-7.46,1.57-21.44,7.47-18.06,17.29,2.1,6.12,16.91,15.57,22.26,20.63.8.75,4.28,3.77,3.22,4.86ZM102.99,23.22c-1.93.32-2.74,1.37-3.33,3.16-3.32,10.17,10.65,13.3,13.94,4.57,1.37-3.63-.42-4.75-3.55-6.31-2.18-1.09-4.59-1.83-7.06-1.42ZM129.67,30.41c-4.65.88-2.26,8.75,2.24,5.86,2.91-1.87,1.39-6.55-2.24-5.86ZM138.64,35.81c-1.4,1.1-2.33,2.74-3.86,3.7-4.42,2.78-16.68,2.14-22.16,2.02-2.34-.05-7.41-1.61-8.54,1.16-.95,2.33.7,3.8,2.88,4.14,6.79,1.05,15.22.03,21.4,3.47,1.52.85,3.78,3.5,4.89,3.76,3.27.74,6.33-1.79,8.47,1.98,1.45,2.55.83,4.55.32,7.24,2.17,2.37,4.18-3.81,4.55-5.46,1.85-8.2-.57-17.53-7.96-22.01ZM116.68,234.75c-1.71.48-5.32,9.39-6.59,11.45-2,3.25-4.98,6.48-8.79,7.43-5.26,1.31-7.31-1.15-10.97,4.17s-4.56,11.39-.03,16.19c.57.15.73-.5.96-.84,4.11-5.99,9.97-15,17.24-17.36,2.69-.87,6.43-.4,8.54-1.19,1.63-.61,6-5.49,6.22-7.14.29-2.15-2.29-4.16-3.19-6.14-.8-1.77-1.19-7.18-3.39-6.57Z"/>
</svg>