<?xml version="1.0" encoding="UTF-8"?>
<svg id="Layer_11" data-name="Layer 11" xmlns="http://www.w3.org/2000/svg" viewBox="0 0 253.19 263.77">
  <defs>
    <style>
      .cls-1 {
        fill: #737438;
      }
    </style>
  </defs>
  <path class="cls-1" d="M248.89,165.43c-1.11-5.9-4.03-10.58-7.94-15.1-1.98-2.29-4.48-4.05-6.88-5.91-4.98-3.87-10.92-7.44-15.66-11.31-2.37-1.94-4.5-4.72-6.8-6.84-.3-.28-.26-.77.09-.99.07-.04.13-.08.19-.13,1.68-1.23,5.04-2.03,7.06-3.14,6.5-3.57,4.64-8.42-1.82-10.22-5.05-1.41-11.17-1.71-16.48-2.84-9.6-2.03-17.49-3.48-25.25-9.74-2.35-1.9-7.52-6.54-7.51-9.65,0-2.95,1.63-7.24,1.86-10.57.8-11.84-4.19-30.1-9.64-40.66-6.59-12.76-22.78-27.19-36.19-32.34-9.47-3.64-25.65-7.95-35.46-5.01-.88.26-2.54,1.26-3.1,1.26-.59,0-2.19-1.01-3.09-1.27-12.72-3.66-35.57,3.63-46.49,10.75C17.44,23.69,7.42,39.95,1.89,60.95c-3.46,13.12-1.76,25.37,1.82,38.27,2.71,9.79,9.13,17.61,8.2,28.25-.28,3.24-1.58,6.85-1.82,10.21-1.07,14.95,7.1,27.66,8.02,42.28.66,10.4.57,17.15,3.54,27.44,4.14,14.34,7.88,27.89,14.98,41.16,1.16,2.18,2.2,4.5,3.74,6.45.81,1.03,1.75,1.95,2.76,2.79,3.87,3.22,8.3,5.06,13.32,5.48,3.26.28,6.55-.1,9.79.07,3.47.18,6.96.2,10.43.3,11.77.34,23.5-.06,35.27-.58,5.39-.24,10.78-.36,16.17-.41,5.13-.04,10.55.54,15.64-.07.46-.06.92-.14,1.31-.39,1.01-.66,1.02-2.13.75-3.31-1.44-6.47-6.38-12.36-9.46-18.14-16.16-30.29-20.02-53.94-13.34-81.61l.08-.35c.85-3.57,2.62-10.98,7.73-11.29.11,0,.22-.01.32-.01,1.22,0,4.17.49,5.23,5.03.78,3.37.02,7.02-.65,10.24-.25,1.2-.48,2.33-.63,3.39-3.46,24.49.29,41.45,12.55,56.71,10.91,13.58,23.72,24.84,38.19,33.63,3.29,1.75,6.89,3.44,10.49,4.43,3.48.96,7,1.02,10.56,1.28,3.15.23,6.29.54,9.46.52,6.28-.03,12.67-1.1,17.95-4.69,10.79-7.33,15.42-19.15,17.62-31.46,2.68-14.93.62-28.83-1.44-43.66-.78-5.6-.54-11.49-1.53-17.13-.02-.11-.04-.23-.06-.34ZM85.31,46.08s.08,0,.1,0c4.77.08,5.32,6.55,5.51,8.68.51,6.01.52,12.36.04,17.89-.42,4.73-2.5,7.55-5.62,7.55h0c-.98-.01-2.95-.84-3.65-1.53-1.72-1.71-1.81-4.62-1.87-6.75-.01-.42-.02-.79-.05-1.1-.55-6.38-.87-15.14.7-20.69,1-3.52,3.46-4.05,4.85-4.05ZM94.6,94.84c.53,7.26-1.2,17.23-6.27,23.12-1.05,1.22-2.2,1.47-2.98,1.47h0c-2.57,0-4.02-2.56-4.98-4.26l-.21-.37c-3.46-5.98-4.79-14.56-3.57-22.96.65-4.44,4.04-9.16,9.05-9.16h.13c5.49.09,8.39,6.17,8.83,12.16ZM19.55,61.88c-.92-10.29,5.07-26.33,12.04-33.93,4.83-5.27,13.93-9.91,21.07-10.64,10.17-1.04,21.13,3.22,27.41,11.39,3.18,4.14-.55,8.48-4.91,5.28-1.18-.87-2.29-2.48-3.46-3.47-9.82-8.37-26.26-6.67-34.82,2.73-8.36,9.18-8.21,17.96-10.46,29.27-.85,4.27-6.42,4.33-6.86-.63ZM62.11,79.61c-9.75,3.92-17.81-7.21-12.94-15.86,1.15-2.04,4.03-4.87,6.39-5.27,12.48-2.12,17.15,16.87,6.55,21.13ZM51.45,206.29c-.43.06-.85.1-1.26.1h0c-5.68,0-6.72-5.99-7.12-8.24-1.06-6.08-2.45-20.88,0-27.79.88-2.48,1.95-3.83,3.38-4.24.41-.12.79-.18,1.19-.18.14,0,.28,0,.43.02,2.63.27,4.24,3.05,5.56,9.59,1.28,6.34,2.28,15.3,2.7,21.36.39,5.67-1.25,8.83-4.88,9.38ZM41.92,114.23c-7.85-4.48-15.98-15.33-19.35-23.66-.88-2.17-3.59-9.23-.2-10.24,1.14-.34,2.73.23,3.55,1.05,1.6,1.6,3.95,7.58,5.38,9.93,5.49,9.06,13.67,17.1,24.57,18.81,3.02.48,9.13,0,11.55,1.21,2.85,1.41,3.7,5.4.53,6.92-6.24,3-20.14-.67-26.02-4.03ZM85.63,255.96c-.96,1.75-2.54,2.71-4.46,2.71-1.18,0-2.48-.37-3.97-1.14-2.48-1.29-4.25-4.78-5.85-8.25l-.18-.4c-3.09-6.66-6.47-16.85-6.7-25.51-.02-.85,1.25-8.07,3.27-9.5.31-.22.66-.36,1.03-.43.52-.09,1.02-.13,1.49-.13,5.99,0,6.43,6.23,6.67,9.57.07.92.13,1.78.25,2.47,1.09,6.31,3.57,12.38,6.23,18.56.24.56.57,1.19.92,1.85,1.42,2.72,3.36,6.44,1.31,10.19ZM94.41,212.38c-.43.31-.95.48-1.47.48-.12,0-.24,0-.36-.02-6.09-.87-7.8-5.6-9.04-9.05-3.01-8.32-4.22-17.77-3.41-26.6.02-.25.03-.61.03-.99.02-1.92.05-5.91,3.99-6.8.52-.12,1.07-.18,1.61-.18,1.19,0,2.27.29,3.12.85,2.23,1.46,2.65,5.14,3,10.17.06.9.12,1.76.19,2.24.52,3.58,1.45,7.96,2.63,12.34.26.97.72,2.24,1.2,3.59.88,2.44,1.79,4.97,1.96,6.91.22,2.66-1.1,5.36-3.44,7.07ZM142.56,100.29c-7.9,11.82-20.08,20.14-34.96,18.98-2.82-.22-7.8-.87-7.04-4.84.62-3.22,4.42-3.65,7.04-3.91,3.37-.34,6.16-.11,9.58-.99,9.88-2.56,16.81-9.62,22.02-18.08,1.68-2.73,2.85-6,4.52-8.6.63-.98,1.38-2.23,2.6-2.51,2.04-.46,3.55.63,3.75,2.69.4,4.06-5.14,13.72-7.5,17.26ZM111.32,58.48c9.01-1.47,14.3,9.52,9.88,16.8-3.6,5.94-11.9,7.06-16.33,1.51-4.85-6.07-1.44-17.03,6.46-18.32ZM151.17,61.51c-.26,4.76-5.62,5.72-6.85,1.36-.85-3-.97-7.31-1.72-10.67-1.42-6.37-3.35-12.16-7.49-17.3-8.36-10.39-24.42-13.22-35.32-5.08-1.33.99-4.91,4.8-5.84,5.09-3.39,1.09-5.87-2.11-4.1-5.2,1.01-1.76,3.75-4.27,5.37-5.57,4.6-3.69,9.82-6.25,15.77-6.83,18.52-1.81,32.13,10.99,37.36,27.68,1.44,4.6,3.09,11.76,2.83,16.51Z"/>
</svg>