<?xml version="1.0" encoding="UTF-8"?>
<svg id="Layer_11" data-name="Layer 11" xmlns="http://www.w3.org/2000/svg" viewBox="0 0 282.54 233.98">
  <defs>
    <style>
      .cls-1 {
        fill: #737438;
      }
    </style>
  </defs>
  <path class="cls-1" d="M269.38,230.72c3.44-.45,7.27-1.06,9.95-3.43,1.83-1.61,2.97-3.82,3.17-6.25.26-3.11-.87-6.27-1.63-9.25-.81-3.16-1.69-6.3-2.9-9.33-1.19-2.99-5.14-9.11-5.54-11.41-.51-2.98,1.71-2.04,3.52-3.54,3.15-2.61.38-8.36-1.08-11.37-6.87-14.14-19.59-30.22-32.37-39.38-5.19-3.72-16.19-7.59-16.41-14.79-.17-5.59,3.83-16.4,5.09-22.46,4.26-20.56.87-42.14-7.41-61.23-.65-1.5-1.82-2.6-2.32-4.37-2.85-10.08,8.25-17.92,3.92-29.77-3.16-8.63-10.18-.88-15.14-.87-3.56,0-8.32-1.56-12.04-1.81-9.35-.63-16.8,1.76-24.07,7.56-8.6.05-17.25-.67-25.83.01-3.88.31-9.02,2.09-12.53,2.18-3.46.08-9.35-1.86-13.33-2.18-8.4-.68-16.96.01-25.39-.01-7.4-5.51-14.7-8.18-24.07-7.56-5.54.37-10.54,2.77-16.07.9-3.85-1.3-6.99-4.75-10.38.28-6.64,9.85,4.79,20.12,3.45,29.75-.42,3.04-4.73,10.27-6.09,13.97-4.73,12.88-7.15,32.61-5.39,46.16,1.95,14.98,9.19,29.17,5.59,44.95-1.66,7.29-8.45,10.57-13.23,15.74-9.22,9.99-16.26,22.66-22.23,34.78C4.78,195.83.42,204.82.01,213.7c-.1,2.14.48,4.49,2.19,5.79.96.73,2.15,1.05,3.31,1.36,6.85,1.81,13.19,4.72,19.76,7.31,3.71,1.46,7.6,3.47,11.68,3.41,1.34-.02,2.7-.34,3.8-1.1.26-.18.51-.4.67-.68.18-.33.22-.72.25-1.09,1.25-14.32,3.79-30.06,10.62-42.9,1.65-3.11,6.06-7.88,9.61-4.6,3.67,3.39-.83,9.47-2.1,13-2.09,5.81-3.89,11.73-5.25,17.75-.89,3.97-1.56,7.99-2.26,12-.47,2.69-1.16,5.91,1.79,7.44,5.09,2.65,11.3,1.39,16.77,1.34,6.43-.06,12.85-.08,19.28.04,6.27.11,12.52.39,18.77.84,6.05.43,12.12.44,18.18.3,6.14-.14,12.27-.42,18.4-.56,6.09-.14,12.16,0,18.25.1,6.05.1,12.06-.07,18.09-.56,6-.49,11.97-1,18-1.04,5.37-.04,10.73.08,16.1.21,2.63.06,5.26.13,7.89.17,2.77.04,6.35,1.08,8.51-1.23,2.13-2.28.85-4.95.23-7.52-.55-2.28-1.16-4.54-1.85-6.78-1.37-4.51-3.02-8.94-4.88-13.27-3.76-8.75-8.43-17.11-13.72-25.03-.37-.56-.75-1.11-1.12-1.66-1.43-2.09-6.55-7.85-6.65-9.77-.15-2.94,3.1-4.21,5.68-3.51,2.78.76,8.28,8.64,10.15,11.24,5.55,7.67,10.44,15.83,14.43,24.42,1.96,4.23,3.71,8.56,5.19,12.97,1.42,4.22,2.18,8.68,3.63,12.87.45,1.29,1.05,2.55,1.92,3.62.99,1.21,2.38,2.16,3.93,2.38,1.97.28,3.95-.05,5.94-.06,2.37-.02,4.74.11,7.11.17,2.45.07,4.78-.02,7.06-.32ZM96.14,117.78c-2.71,6.35-12.91,3.02-17.71,1.22-32.24-12.08-35.71-66.96-14.82-90.36,1.87-2.1,5.33-5.52,8.11-2.97.97.89,1.35,2.65.83,3.89-5.21,6.85-10.7,13.85-12.16,22.6-3.57,21.45,3.99,44.56,24.54,54.11,4.35,2.02,14.29,4.31,11.22,11.51ZM109.7,82.31c-9.45,5.94-22.75-2.27-21.79-13.33.55-6.41,6.2-12.96,12.83-13.49,12.42-.98,20.9,19.31,8.96,26.81ZM120.38,65.02c-3.93-8.11-9.73-12.84-17.09-17.67-3.9-2.56-17.24-8.81-16.72-13.99.09-.94,1.18-2.57,2.1-2.84,3.43-1.02,6.88,3.01,9.8,4.72,14.35,8.41,22.55,12.49,29.32,29.06,1.19,2.91,5.89,14.01-.4,13.36-3.64-.37-5.5-9.54-7-12.65ZM141.61,116.01c-1.31,2.71-3.33,5.03-4.37,7.88-.58.63-2.59.9-3.23.13-4.33-7.58-9.34-14.45-7.21-23.72.74-3.2,4.5-11.01,6.81-13.25,3.14-3.04,6.76,4.22,8,6.64,4.34,8.46,4.1,13.81,0,22.31ZM149.77,67.12c-1.22,2.72-2.72,10.22-5.98,10.55-6.49.65-2.06-9.27-.96-12.14,3.5-9.14,10-18.21,18.02-23.87,3.42-2.42,7.18-3.75,10.69-5.8,1.79-1.05,6.84-5.06,8.04-5.33,3.95-.89,5.95,2.42,3.9,5.68-2.95,4.69-13.27,9.34-18.09,12.66-7.62,5.26-11.79,9.72-15.62,18.25ZM160.09,81.01c-9.24-7.85-2.37-23.39,8.36-25.08,7.39-1.17,12.2,3.21,14.39,9.9,4.39,13.37-12.18,24.16-22.75,15.17ZM191.09,119.58c-4.68,1.59-14.98,4.31-16.54-2.66-1.73-7.74,10.59-9.71,15.55-12.59,22.13-12.88,27.75-46.79,13.78-67.53-1.04-1.55-5.03-5.96-5.34-7.14-.59-2.23.42-4.72,2.9-4.93,2.82-.24,7.53,5.9,9.03,8.15,17.07,25.65,13.33,75.63-19.38,86.71Z"/>
</svg>