<?xml version="1.0" encoding="UTF-8"?>
<svg id="Layer_11" data-name="Layer 11" xmlns="http://www.w3.org/2000/svg" viewBox="0 0 309.93 288">
  <defs>
    <style>
      .cls-1 {
        fill: #737438;
      }
    </style>
  </defs>
  <path class="cls-1" d="M157.4,225.49c-.38-1.01-.74-1.97-.97-2.85-1.5-5.53-2.6-10.9-3.27-15.97-.05-.37-.08-.96-.11-1.59-.15-3.08-.46-9.48-5.74-9.48-.42,0-.86.05-1.3.14-1.58.34-4.3,1.72-4.77,7.07-.68,7.85.47,17.84,2.92,25.44l.03.08c1.4,4.33,3.31,10.25,9.87,11.13.11.01.22.02.33.02.58,0,1.14-.2,1.59-.57,4.93-4.06,2.9-9.48,1.42-13.44Z"/>
  <path class="cls-1" d="M145.59,271.95c-.28-.56-.55-1.09-.72-1.48-3.95-9.18-6.69-17.11-7.16-25.96-.02-.44-.16-.87-.4-1.23-1.56-2.38-3.3-3.59-5.18-3.59-4.29,0-6.07,6.01-6.18,9.81-.24,8.13,4.97,25.11,9.77,31.87,1.29,1.81,4.16,3.74,6.94,3.74,1.29,0,2.44-.42,3.35-1.2,3.91-3.41,1.2-8.75-.41-11.95Z"/>
  <path class="cls-1" d="M147,146.52h0c.62,0,1.21-.18,1.72-.52.9-.61,3.02-4.09,3.05-4.13,3.67-6.13,5.19-15.58,3.79-23.51-.89-5.04-4.67-8.84-8.79-8.84-1.78,0-4.39.68-6.69,3.94-4.53,6.42-2.24,20.52.22,25.97.33.73,3.29,7.09,6.71,7.09Z"/>
  <path class="cls-1" d="M175.29,44.08c-6.98.1-13.93,2.86-19.21,7.36-2.33,1.99-7.06,6.04-4.89,9.26,2.86,4.25,6.57-1.08,8.72-2.89,10.72-9.02,27.09-6.83,35.99,3.62,7.09,8.33,7.54,17.27,9.29,27.43.96,5.58,7.3,4.64,7.28-.7-.1-21.03-13.86-44.41-37.18-44.08Z"/>
  <path class="cls-1" d="M164.16,145.17c7.46,2.89,21.12-.99,27.68-5.26,7.27-4.74,16.01-17.18,18.52-25.47.3-.99,1.04-3.56.99-4.44-.08-1.31-1.56-3.21-2.99-3.04-3.31.38-4.93,5.98-6.39,8.54-5.95,10.45-14.14,19.91-26.82,21.53-2.89.37-8.1-.06-10.59,1.04-2.96,1.31-3.97,5.72-.39,7.1Z"/>
  <path class="cls-1" d="M165.35,99.61c2.58-.02,3.79-2.2,4.51-3.5.2-.36.41-.74.56-.93,2.01-2.53,3.39-2.53,3.84-2.53.59,0,1.24.18,1.95.53,1.15.57,1.52,1.77,1.94,3.55.34,1.44.7,2.92,2.09,3.76.69.42,1.49.64,2.33.64,2.17,0,3.99-1.45,4.34-3.46.52-2.99-1.54-8.63-3.51-10.81-1.86-2.06-5.76-4.19-9.07-4.19h-.21c-4.75.14-9.37,3.43-11.5,8.2-1.44,3.21-1.62,5.46-.58,7.06.41.63,1.38,1.69,3.31,1.69Z"/>
  <path class="cls-1" d="M103.5,141.12c6.1,3.48,19.03,6.62,25.7,4.13,2.54-.95,2.94-4.34,1.05-6.16-2.43-2.34-8.77-1.65-12.11-2.07-15.81-2.02-24.11-16.05-30.76-28.87-.61-.6-2.17-1.34-3.02-1.21-4.14.64-1.27,8.08-.33,10.37,3.52,8.53,11.38,19.21,19.45,23.81Z"/>
  <path class="cls-1" d="M248.15,284.84c-.02-.14-.05-.27-.1-.4-.19-.52-.61-.9-1.06-1.22-4.89-3.48-9.93-6.73-14.63-10.49-4.9-3.92-9.55-8.14-13.93-12.64-3.2-3.28-6.25-6.71-9.13-10.27-12.27-15.14-16.35-32.14-13.24-55.12.1-.77.31-1.84.56-3.07,1.34-6.8,2.23-12.68-.47-15.7-.97-1.09-2.33-1.72-3.72-1.72-.3,0-.6.03-.9.09-3.95.75-5.62,5.61-6.18,7.2-6.31,18.32-5.47,42.78,2.2,63.86,2.14,5.89,4.67,11.64,7.48,17.24,3.02,6.02,6.37,11.87,10,17.54,1.65,2.58,3.63,6.21,6.84,7.01,1.29.32,2.76.17,4.08.2,2.3.06,4.59.1,6.89.11.78,0,1.5.15,1.41-.88,0-.02,0-.05-.01-.08-.19-1.04-.8-1.89-1.37-2.74-.66-.97-1.28-1.97-1.9-2.98-.04-.07-.09-.15-.15-.24,1.22,1.02,2.45,2.09,3.29,2.82.87.76,1.82,1.88,2.91,2.31,1.1.44,2.07.84,3.24,1.03.86.14,1.73.22,2.59.24.8.02,1.59-.15,2.39-.12.36,0,.71.03,1.07.05,1.66.09,3.32.19,4.98.29,1.6.09,3.31.35,4.91.11h-.24c.63-.02,1.26-.21,1.8-.54-.07.04-.14.07-.2.11.29-.15.47-.64.55-.94.08-.34.11-.72.06-1.07Z"/>
  <path class="cls-1" d="M146.66,73.06c-.51,0-1.04.08-1.57.24-1.6.48-2.79,2.25-3.16,3.26-.74,1.99-1.05,6.68-1.05,6.73-.25,3.96-.33,10.35-.01,14.89.34,4.89,1.61,7.63,3.88,8.38.71.24,1.4.36,2.05.36,1.15,0,3.95-.44,5.01-4.46.95-3.62.8-8.07.67-11.99-.02-.69-.05-1.36-.06-1.99-.01-.5-.01-1.11,0-1.79,0-4.79-.12-8.94-1.69-11.33-.97-1.48-2.42-2.3-4.06-2.3Z"/>
  <path class="cls-1" d="M111.55,233.03c.35,0,.71-.03,1.08-.08,2.13-.31,5.65-1.89,5.25-8.97-.35-6.11-1.46-14.28-2.31-19.43-1.02-6.16-2.49-11.84-6.41-12.06-.05,0-.09,0-.14,0-.11,0-.21,0-.32.02-.88.11-1.62.45-2.2.99-.76.71-1.57,2.5-1.58,2.52-3.37,7.57-1.25,24.3-.25,29.56,1.18,6.15,4.39,7.45,6.88,7.45Z"/>
  <path class="cls-1" d="M309.92,45.75v-.62s-.04-1.24-.04-1.24c-.06-.83-.11-1.66-.2-2.48-.73-6.61-3.09-13.06-6.87-18.43-1.46-2.1-3.07-4.08-4.91-5.77-1.83-1.69-3.88-3.09-6.09-4-3.23-1.31-6.19-2.82-9.28-4.24-3.07-1.43-6.24-2.83-9.6-3.79-2.47-.72-5.03-1.3-7.62-1.6-2.31-.29-4.62-.52-6.93-.54-5.01-.04-10.05-.21-15.07-.04-3.97.07-7.94.32-11.87.97-.44.07-.89.12-1.35.15-1.48-.01-2.99-.11-4.47-.13-7.15-.1-14.3-.33-21.45-.34-2.3,0-4.61.05-6.91.12-1.31.03-2.61.07-3.92.11-2.48.06-4.95.09-7.42.02-4.65-.14-9.26-.42-13.88-.23-2.35.03-4.71.17-7.08.48-5.32.7-10.72,1.12-16.1,1.64-.17.02-.34.02-.52.03-.23,0-.45.01-.68.03-.66.01-1.32.01-1.98.05-.15,0-.3.01-.45.02-5.45,0-10.71-1.07-16.09-1.48-4.5-.34-8.98-1.05-13.31-1.93C106.8.67,97.64-.1,88.28.24c-1.92.04-3.85.12-5.79.25-.71.05-1.42.1-2.13.13-.62,0-1.25-.02-1.86-.07-4.09-.33-8.16-.7-12.19-.5-3.02.03-6.03.31-9.02,1.13-.09.03-.2.04-.3.06-.32-.01-.63-.02-.94,0-2.16.07-4.32.08-6.48.06l-1.62-.02h-.82s-.97,0-.97,0c-.59,0-1.18.02-1.77.05h-.17c-1.29,0-2.58.09-3.87.2-5.14.5-10.24,2.01-14.69,4.61-4.64,2.71-8.85,6.02-12.51,9.87-3.66,3.85-6.77,8.27-9.05,13.15-1,2.11-1.61,4.44-2.4,6.57-.16.45-.32.9-.47,1.36-.14.46-.26.92-.38,1.39-.26.93-.41,1.88-.57,2.82-.14.95-.22,1.91-.28,2.86-.01.48-.02.95-.03,1.43v.7s.02.59.02.59c.13,3.16.5,6.27,1.05,9.26.8,4.35.72,8.39.35,12.46-.45,5-.83,9.85-.23,14.91.34,2.86.51,6.04.09,8.83-.01,1.7-.04,3.4.02,5.1.11,3.02.86,5.68,1.63,8.54.13.49.14,1.01.14,1.51.02,1.74.04,3.48.06,5.22,0,.32,0,.64.11.94.09.26.24.5.39.73,3.87,6.09,4.33,14.62,2.88,21.5-1.11,5.28-1.32,10.64-1.8,15.95-.13.64-.26,1.27-.4,1.9-.29,1.32-.56,2.64-.8,3.97-.05.58-.11,1.15-.16,1.73-1.31,13.79-2.09,27.52-1.97,41.46.08,9.74.41,19.48.48,29.23.03,3.87.13,7.74.05,11.6-.02,2.17.04,4.43.22,6.65.19,2.23.47,4.46.82,6.73.35,2.11.97,4.33,1.88,6.43.91,2.1,2.13,4.08,3.52,5.73,3.5,4.17,7.39,7.76,11.66,10.84,4.27,3.08,8.92,5.65,13.99,7.6l1.38.48.7.23.71.2,1.43.38c.48.11.96.2,1.45.3.97.21,1.95.31,2.94.44.49.06.99.08,1.48.11l.74.04.37.02h.31c.97.04,1.94.06,2.91.06,2.05.02,4.11-.02,6.18-.1.89-.03,1.77-.06,2.66-.1.36-.02.73-.03,1.09-.04.79-.02,1.58-.03,2.38-.04,1.53,0,3.07.01,4.6.05,1.96.04,3.94.12,5.9.13.47,0,.94,0,1.4,0,.02-.02.03-.04.05-.06,3.19.04,6.36-.07,9.42-.76,2.05-.46,3.94-.87,6.12-.78,2.59.1,5.18.21,7.76.29,1.32.04,2.64.08,3.96.11.97.02,2.43.35,2.96-.69.75-1.46.08-3.3-.82-4.48-1.33-1.75-2.36-3.65-3.41-5.58-.15-.28-.31-.56-.46-.85-7.17-13.36-11.25-27.9-15.39-42.42-2.63-9.22-2.53-15.94-3.09-25.27-.92-15.36-9.13-27.55-8-43.26.33-4.54,2.09-8.84,1.82-13.45-.51-8.93-5.83-16-8.18-24.54-6.26-22.74-4.43-36.5,5.21-57.69,6.46-14.21,22.59-29.49,37.15-35.2,9.94-3.9,25.91-8.04,36.27-5.01.81.24,1.99,1.06,2.5,1.12.46.05,2.21-.97,3.03-1.2,10.27-2.89,26.15,1.22,35.99,5.09,12.72,5.01,27.81,18.26,34.6,30.11,6.44,11.22,12.08,31.93,10.44,44.74-.52,4.04-2.59,7.56-.4,11.38,2.25,3.92,11.09,10.78,15.35,12.28,5.01,1.76,12.78,3.39,18.1,4.44,4.6.91,9.58,1.14,14.04,2.32,3.88,1.02,8.52,3.58,5.13,7.98-2.5,3.25-7.22,3.39-10.13,5.5-.42.31-.74.39-.6,1.03,2.88,1.57,4.91,4.83,7.46,6.91,4.73,3.87,10.65,7.42,15.62,11.29,1.94,1.51,3.85,3.05,5.73,4.63,1.76,1.47,3.32,2.96,5.54,3.71,1.04.35,2.15.02,2.73-.93.38-.61.32-1.14.31-1.83-.03-3.34.37-6.64.17-10s-.69-6.5-1.49-9.67c-.11-.44-.21-.89-.35-1.32-1.13-4-1.05-7.97-.33-12.06.26-1.46.5-2.96.56-4.46.21-5.92.35-11.84.5-17.77.03-1.07.14-2.17,0-3.19-.82-6-.68-11.95-.38-18.08.51-10.47.37-21.01.56-31.52.03-1.63.34-3.25.52-4.88.18-1.64.49-3.27.52-4.91l.14-8.42.04-4.21c0-.16,0-.4,0-.6Z"/>
  <path class="cls-1" d="M110.22,91.37c-4.44,9.2,5.3,20.14,14.73,14.37,8.61-5.27,3.97-21.01-6.38-20.57-3.64.15-6.83,3.06-8.35,6.21Z"/>
  <path class="cls-1" d="M116.76,44.08c-22.79.6-35.94,23.8-35.86,44.45.02,4.84,6.1,5.87,7.13.64,2.09-10.56,2.03-19.14,9.54-27.9,8.59-10.03,25.02-12.45,35.43-3.82,1.55,1.28,3.39,4.01,5.26,4.55,3.68,1.06,5.66-2.93,3.43-5.98-5.39-7.38-15.86-12.18-24.94-11.94Z"/>
</svg>