<?xml version="1.0" encoding="UTF-8"?>
<svg id="Layer_11" data-name="Layer 11" xmlns="http://www.w3.org/2000/svg" viewBox="0 0 194.86 324">
  <defs>
    <style>
      .cls-1 {
        fill: #737438;
      }
    </style>
  </defs>
  <path class="cls-1" d="M117.29,40.21c-1.84,1.75-5-1.9-6.88-2.3-.72.14-.55,1.93-.48,2.52.83,7.58,12.98,17.01,17.11,24.02,3.44,5.85,3.81,11.88-4.9,10.85-.05.48.01.91.16,1.37,3.26,10.33,26.2,18,35.43,23.04,13.54,7.39,22.41,20.54,28.6,34.29,1.46,3.23,4.06,6.45,2.89,10.25-.64,2.07-2.8,2.03-3.12,2.48-.75,1.06,2.37,6.58,2.93,8.02,3.02,7.73,4.39,16.15,5.18,24.39.41,4.26,1.14,10.4.19,14.48-.29,1.24-1.94,3.58-3.35,3.33s-2.36-3.08-3.57-.72c-1.62,3.16,1.49,12.57,2.21,16.33,3.11,16.23.21,32.54.1,48.86-.52,3.55-.64,6.8-2.09,10.15-1.19,2.74-3.04,5.79-6.5,5.24-5.81-.92-6.78-9.84-9.77-13.72l-.45-.1c-1.99,1.07-4.1,1.54-6.26.71s-3.47-3.94-4.62-.35c-2.13,6.62-3.97,17.58-8.93,22.68-2.88,2.96-7.01,2.37-8.63-1.51l-.87.17c-.96,1.58,1.38,4.85,2.55,5.97,3.65,3.49,10.78,4.03,13.61,7.81,1.16,1.55,2.84,5.72,3.57,7.65,1.21,3.24,2.24,6.51,1.88,10.03-.48,4.64-5.18,6.74-6.71.92-.77-2.94-1.11-6.72-2.87-9.37-1.43-2.16-2.6-.68-2.3,1.62.51,3.9,2.53,7.15,2.03,11.59-.4,3.51-4.21,4.21-5.86,1.08-2.45-4.64-.76-11.17-5.4-15.68-6.51-6.33-8.01,5.94-9.66,9.65-1,2.25-3.5,5.15-5.55,2.16-2.14-3.11-.46-8.74.8-12.01,1.32-3.42,3.65-6.47,3.59-10.38-.04-2.4-2.1-6.16-2.83-8.74-.49-1.73-.64-3.69-1.16-5.3-.4-1.23-1.13-1.72-1.38-.15-.79,4.89-1.21,15-5.35,18.11-2.2,1.65-4.62-.89-5.68-2.82-.69-1.26-.92-2.67-1.46-3.98-.14-.33-.03-.78-.5-.68-.64,1.58-.19,3.29-.34,4.93-.18,1.89-2.14,9.41-3.97,9.97-1.67.51-3.18-.71-3.81-2.18-.45-1.05-.36-3.7-1.76-2.7-.72.52-3.27,14.52-4.6,17.16-1.44,2.84-3.5,2.68-5.18.15l-3.29-9.29c-.85-.17-1.46,2.63-1.8,3.29-3.4,6.56-7.7,2.68-9.59-2.44-2.91-7.88-1-16.66-2.06-24.8-.16-1.21-.76-2.77-2.14-2.87-1.31.27-1.36,4.51-1.67,5.81-.49,2.08-1.98,4.43-1.97,6.56.02,6.02,9.21,17.21,4.12,22.78-2.44,2.67-4.79-1.5-5.61-3.58-1.2-3.04-2.75-13.16-7.98-9.67-4.85,3.23-4.62,9.79-6.04,14.7-.55,1.91-1.38,4.16-3.86,3.32-3.34-1.12-2.46-6.41-1.93-9.11.3-1.52,1.86-4.89,1.8-5.88-.06-1.07-1.09-1.78-2.15-1.27-.77.38-2.07,3.76-2.38,4.76-.93,3-.59,7.97-4.15,9.11-1.56.5-3.1-.33-3.61-1.87-1.52-4.61,1.63-13.02,3.87-17.25.64-1.2,1.79-3.15,2.64-4.16,3.28-3.95,10.76-4.38,13.89-8.54.67-.89,2.13-3.85,1.84-4.84-.59-2.03-2.24.62-3.34.97-5.67,1.78-8.59-7.37-9.78-11.33-1.26-4.21-2.52-13.33-5.05-16.37-3.47-4.16-4.3,2.62-7.45,2.67-4.53.07-6.85-9.2-8.27-12.44-1.91-4.37-4.57-8.45-6.58-12.79-2.15-4.63-3.68-9.56-5.88-14.17l-.39-.31c-.89-.26-2.07,1.32-3.3,1.24-3.82-.24-4.98-7.4-5.56-10.38-1.82-9.28-3.18-20.45-2.14-29.82.26-2.34,1.09-4.89,1.33-7.17.35-3.44-.82-2-2.92-3.12-3.3-1.76-1.42-8.74-.68-11.7,3.72-14.97,12.5-32.46,23.03-43.6,4-4.23,12.63-12.85,13.87-18.44.64-2.91-3.79-1.71-3.66-5.33.16-4.15,5.66-8.49,8.13-11.6,4.1-5.15,7.83-13.17,5.89-19.82-1.23-4.22-5.22-5.78-8.1-8.56-1.24-1.2-2.46-3.21-3.74-4.42-1.58-1.51-3.47-2.58-5.74-2.35-3.29.33-7.2,1.97-10.61,2.32-2.09.21-3.97-.27-5.93-.15-.58.36-1.34,3.68-1.37,4.44-.03,1.07,1.23,4.46-.49,4.6-1.85.15-4.05-3.72-4.6-5.28-2.97-8.36-1.53-16.14,3.76-23.13,4.64-6.13,10.85-6.89,17.66-9.54,5.09-8.45,13.79-14.13,23.13-16.99,22.22-6.79,53.01,7.45,63.19,28.26,1.06,2.16,3.67,8.34,1.66,10.24ZM39.96,106.49c3.39,3.67,10.17-1.93,14.01-2.28,3.17-.29,5.33,1.43,8.75.93,4.36-.63,7.06-5.04,11.63-5.37,5.61-.4,8.63,3.03,13.35,4.7,6.04,2.13,6.84-1.51,11-4.15,8.8-5.58,13.63,1.55,22.24.82,4.81-.41,9.58-3.32,7.03-8.73-2.13-4.53-9.65-11.43-10.24-15.94-.66-5.12,3.2-5.84,7.26-4.6.35-.18.52-.41.55-.82.37-4.54-13.5-16.83-16.48-21.27-2.5-3.73-7.25-14.79.06-15.89,1.43-.21,3.61,1.36,3.69-.57.06-1.47-4.91-7.63-6.15-9.02-11.26-12.63-30.34-21.98-47.51-19.28-6.64,1.04-20.87,6.92-23.63,13.43-1.08,2.54.34,3.07,1.1,5.18s.95,5.06,3.06,6.46c1.31.87,3.6.76,5.21,1.25,1.73.53,3.37,1.73,5.08,2.4,2.47.97,9.79,2.23,11.12,3.84.28.34.48.72.51,1.17-.16,1.52-1.62,1.94-2.96,2.12-3.55.5-6.26-.73-9.88.32-1.19.35-5.02,2.16-5.97,2.87-1.08.8-1.01,2.32-.9,3.53.31,3.2,5.2,5.77,7.14,8.16,4.84,5.97,3.16,14.82.78,21.51-2.05,5.76-6.33,7.65-9.79,11.96-2.92,3.63.02,2.43,1.21,3.9,2.78,3.42-4.14,10.25-1.28,13.35ZM30.26,32.74c2.38-2.45-3.38-8.55-5.72-5.56-1.42,1.82,1.93,6.33,3.94,6.29.3,0,1.6-.54,1.78-.73ZM141.4,126.37c-.67.15-1.23.6-1.45,1.27-.91,2.76,1.08,4.13,2.37,6.17,15.8,25.02,23.04,52.93,15.33,82.25-.67,2.56-3,7.33-2.49,9.61.5,2.23,3.6,2.35,4.97.35.91-1.32,2.9-6.38,3.47-8.09,6.89-20.86,3.88-51.18-6.29-70.56-2.89-5.51-7.7-14.36-11.59-19-1.32-1.58-2.05-2.51-4.32-1.99ZM47.26,149.84c-1.74-1.73-4.32.02-5.42,1.72-2.54,3.91-5.04,13.78-5.95,18.53-2.23,11.62-3.36,23.45-1.36,35.15,1.28,7.51,3.24,15.44,5.51,22.71.94,3.02,2.43,8.2,3.74,10.88.65,1.33,1.67,2.07,3.14,1.44,2.71-1.17.99-4.18.59-6.19-2.31-11.56-5.96-23.09-6.96-34.85-1.07-12.61,1.24-26.41,5-38.51.82-2.63,4.13-8.46,1.71-10.86ZM94.69,309.43c2.27,2.03,3.4-3.33,3.76-4.72.57-2.26,1.12-7.94,2.96-9.28,2.06-1.5,3.36,0,4.35,1.75.24.42,1.28,3.93,2.27,2.16.76-1.36.38-4.62.54-6.26.25-2.44,1.92-8.7,5.4-6.15,1.28.94,3.68,8.33,5.86,4.49,1.14-2.01,1.22-6.59,1.28-8.92.01-.44.34-.98.27-1.32-.07-.37-1.53-1.52-1.94-2.46-.65-1.51-.79-3.44-.72-5.07.2-4.55,1.18-9.22.69-13.94-.32-3.1-3.09-1.81-5.28-2.54-5.24-.96-9.97,2.05-14.98,1.72-4.29-.29-8.47-3.69-12.98-2.13-1.16.4-2.62,1.59-3,2.78-.34,1.05-.76,4.11-.84,5.28-.43,6.89,4.9,15.14-1.01,21.08.47,6.46-.94,13.68.42,19.97.33,1.52,1.05,2.39,2.75,1.89,1.59-.47,2.12-5.05,5.77-4.29,3.21.67,2.9,4.59,4.42,5.95Z"/>
  <path class="cls-1" d="M58.79,28.96c-2.66,2.67-7.42,2.26-9.47-1.01-1.4-2.24-1.64-7.33,1.26-8.39.99-.36,6.02-1.35,6.79-1.06,1.75.65,3.15,3.88,3.24,5.65.08,1.48-.78,3.76-1.82,4.81Z"/>
</svg>