<?xml version="1.0" encoding="UTF-8"?>
<svg id="Layer_11" data-name="Layer 11" xmlns="http://www.w3.org/2000/svg" viewBox="0 0 314.01 288">
  <defs>
    <style>
      .cls-1 {
        fill: #737438;
      }
    </style>
  </defs>
  <path class="cls-1" d="M191.72,73.61c1.91-2.88,2.02-9.34-.53-11.84-1.33-1.3-9.87-2.93-11.76-2.51-2.97.66-5.18,6.64-5.04,9.45.45,9.2,12.26,12.54,17.33,4.91Z"/>
  <path class="cls-1" d="M313.94,236.38c-.1-2.72-.32-5.43-.58-8.13-.52-5.39-1.22-10.76-1.58-16.18-.3-4.52-.79-9.03-.9-13.56-.13-5.16-.02-10.31-.77-15.41-.39-2.65-.83-5.49-.6-8.11.57-6.71,0-13.06-1.72-19.17-1.13-4-1.05-7.97-.33-12.06.26-1.46.5-2.96.56-4.46.21-5.92.35-11.84.5-17.77.03-1.07.14-2.17,0-3.19-.82-6-.68-11.95-.38-18.08.51-10.47.37-21.01.56-31.52.03-1.63.34-3.25.52-4.88.18-1.63.49-3.26.52-4.91l.14-8.42.04-4.21c0-.16,0-.4,0-.6v-.62s-.04-1.24-.04-1.24c-.06-.83-.11-1.66-.2-2.49-.73-6.61-3.09-13.06-6.87-18.43-1.46-2.1-3.07-4.08-4.91-5.76-1.83-1.69-3.88-3.09-6.09-4-3.23-1.31-6.19-2.82-9.28-4.24-3.07-1.43-6.24-2.83-9.6-3.79-2.47-.72-5.03-1.3-7.62-1.59-2.31-.29-4.62-.52-6.93-.54-5.01-.04-10.05-.21-15.07-.04-3.97.07-7.94.32-11.87.97-.44.07-.89.12-1.35.15-1.48-.01-2.99-.11-4.47-.13-7.15-.1-14.3-.33-21.45-.34-2.3,0-4.61.05-6.91.12-1.31.03-2.61.07-3.92.11-2.48.06-4.95.09-7.42.02-4.65-.14-9.25-.42-13.88-.23-2.35.03-4.71.17-7.07.48-5.32.71-10.72,1.12-16.1,1.64-.17.02-.34.02-.52.03-.23,0-.45.01-.68.03-.66.01-1.32.01-1.98.05-.15,0-.3.01-.45.02-5.45,0-10.71-1.07-16.09-1.48-4.5-.34-8.98-1.05-13.31-1.93C106.8.67,97.64-.1,88.28.24c-1.92.04-3.85.12-5.79.25-.71.05-1.42.1-2.13.13-.63,0-1.25-.02-1.86-.07-4.09-.33-8.16-.7-12.19-.5-3.03.03-6.03.31-9.02,1.13-.09.03-.2.04-.3.05-.32-.01-.63-.02-.94,0-2.16.07-4.32.08-6.48.06l-1.62-.02h-.82s-.97,0-.97,0c-.59,0-1.18.02-1.77.05h-.17c-1.29,0-2.58.09-3.87.2-5.14.5-10.24,2.01-14.69,4.61-4.64,2.71-8.85,6.02-12.51,9.87-3.66,3.85-6.77,8.27-9.05,13.15-1,2.11-1.61,4.44-2.4,6.57-.16.45-.32.9-.47,1.36-.14.46-.26.92-.38,1.39-.26.93-.41,1.88-.57,2.82-.14.95-.22,1.91-.28,2.86-.01.48-.02.96-.03,1.43v.7s.02.59.02.59c.13,3.16.5,6.27,1.05,9.26.8,4.35.72,8.39.35,12.46-.45,5-.83,9.86-.23,14.91.34,2.86.51,6.04.09,8.83-.01,1.7-.04,3.4.02,5.1.11,3.02.86,5.68,1.63,8.54.13.49.14,1.01.14,1.51.02,1.74.04,3.48.06,5.22,0,.32,0,.64.11.94.09.26.24.5.39.73,3.87,6.09,4.33,14.62,2.88,21.5-1.11,5.28-1.32,10.64-1.8,15.95-.13.64-.26,1.27-.4,1.9-.29,1.32-.56,2.64-.8,3.97-.05.58-.11,1.15-.16,1.73-1.31,13.79-2.09,27.52-1.97,41.46.08,9.74.41,19.48.48,29.23.03,3.87.13,7.74.05,11.6-.02,2.17.04,4.43.22,6.65.19,2.23.47,4.46.82,6.73.35,2.11.97,4.33,1.88,6.43.11.25.24.5.36.75h0s0,0,0,0c.21.45.44.88.67,1.31.01.02.03.04.04.07.23.4.46.8.7,1.19.07.12.15.23.23.34.2.3.39.59.59.88.3.41.6.81.92,1.19,3.5,4.17,7.39,7.76,11.66,10.84,3.73,2.69,7.76,5,12.11,6.84.62.26,1.25.52,1.88.76l1.38.48.7.23.71.2,1.43.38c.48.11.96.2,1.45.3.97.21,1.95.31,2.94.44.49.06.99.08,1.48.11l.74.04.37.02h.31c.97.04,1.94.06,2.91.06,2.05.02,4.11-.02,6.18-.1.89-.03,1.77-.06,2.66-.1.36-.02.73-.03,1.09-.04.79-.02,1.58-.03,2.38-.04,1.53,0,3.07.01,4.6.05,1.96.04,3.94.12,5.9.13.47,0,.94,0,1.4,0l.05-.06c3.19.04,6.36-.07,9.42-.76,1.03-.23,2.01-.45,3.01-.6,1-.15,2.02-.23,3.11-.19,2.5.1,5,.21,7.49.29,2.5.08,5,.15,7.5.16,6.19.03,12.33.2,18.52.53,7.37.39,14.85-.18,22.29-.34,3.32-.07,6.65-.24,9.97-.18.27,0,.55.02.82.04l-.15.16c1.82.19,3.64.49,5.44.43,2.47-.07,4.94-.15,7.41-.24,2.2-.08,4.4-.16,6.6-.24,7.45-.26,14.89-.47,22.36-.28l-.06-.08c2.19.04,4.38.11,6.58.22,2.05.11,4.11.2,6.17.28l.08.11c4.53.16,9.06.27,13.59.3,1.1,0,2.19-.02,3.29-.07,2.28-.06,4.55-.24,6.83-.4.76-.05,1.52-.11,2.28-.15.36,0,.71.03,1.07.05,3.17.17,6.34.4,9.51.51.38.01.75.01,1.12.01h0l-.25-.08h-.03c.2,0,.41,0,.61.01,2.04.07,3.88-.03,5.53-.27,1.65-.24,3.11-.61,4.4-1.11.82.02,1.62.17,2.44.23,1.36.11,2.77-.34,4.15-.42,1.59-.09,3.18-.02,4.76.2.29.04.59.09.88.05.25-.04.49-.14.73-.2,1.17-.31,2.33.16,3.49.25,1.25.1,2.54.09,3.8.09h.14c.8,0,1.6-.02,2.4-.06,2.55-.04,5.13-.31,7.75-.96,1.11-.25,2.19-.62,3.31-1.01,1.08-.44,2.2-.9,3.27-1.49,2.17-1.15,4.29-2.65,6.24-4.59.46-.46.92-.93,1.38-1.4,1.34-1.41,2.63-2.9,3.79-4.47,0,0,0-.01.01-.02h0c.14-.19.3-.38.43-.58,1.66-2.32,3-4.81,3.8-7.29,1.02-3.12,1.75-6.25,2.33-9.38.58-3.13,1.02-6.26,1.42-9.48.13-.89.18-1.78.23-2.67.05-.98.06-1.56.06-2.27.01-1.37-.01-2.74-.07-4.1ZM48.88,280.15s0,0,0-.01c0,0,.01,0,.02.01,0,0-.01,0-.02,0ZM68.34,225.77c-.45,1.16-.88,2.25-1.08,2.88-2.62,8.54-4.68,16.26-5.61,25.12-.77,7.35-1.01,15.52-1.03,23.19-.05.27-.1.53-.16.79-.19.8-.44,1.63-.91,2.32-.01,0-.02.02-.03.03-.79.55-1.71.82-2.65.92-.26,0-.52,0-.78,0-1.32-.1-2.64-.24-3.96-.4-.71-.19-1.4-.45-2.05-.84-.84-.52-1.56-1.24-1.97-2.15-.23-.51-.34-1.05-.41-1.6-.78-21,2.24-41.29,10.71-58.26l.25-.52c1.17-2.42,3.14-6.48,7.01-6.68.31-.02.63,0,.93.03,1.96.24,3.58,1.54,4.24,3.4.93,2.65-.38,6.38-2.5,11.76ZM160.44,270.74c.18.93.46,1.82.46,2.78,0,.94-.11,1.95-.4,2.85-.31.97-.96,1.49-1.97,1.6-2.06.22-4.19.14-6.26.2-2.01.06-4.15.17-5.94-.94-.86-.54-1.28-1.63-1.69-2.52-.22-.47-.41-.95-.6-1.43-2.7-20.09-1.79-39.83,4.39-57.16l.2-.57c.91-2.64,2.43-7.07,6.39-7.76.32-.06.65-.08.97-.08,2.05,0,3.89,1.14,4.79,2.98,1.29,2.61.4,6.62-1.11,12.44-.32,1.25-.63,2.43-.75,3.11-2.86,15.94-2.41,30.46,1.51,44.51ZM162.04,276.11s.02-.05.04-.08c0,.01,0,.02.01.03-.02.02-.03.03-.05.04ZM200.9,182.11c-2.19,5.74-9.9,3.25-14.8,3.81-5.1.58-9.48,3.84-15.58,3.6-4.27-.17-7.34-3.56-10.97-5.09-11.51-4.87-16.73,1.88-26.39,5.45-10.32,3.82-11.34-3.89-19.08-7.57-13.41-6.38-22.39,6.59-36.54,1.37-6.67-2.46-8.36-6.65-4.93-12.98,3.37-6.22,13.6-16.58,14.67-22.57.37-2.09.6-4.7-.85-6.45-.91-1.1-2.43-1.72-3.82-1.91-.8-.11-1.62-.1-2.43-.05-1.21.07-2.39.28-3.59.48-.28.05-.58.09-.82-.06-1.12-.65.82-4.74,1.25-5.52.94-1.71,2.19-3.22,3.35-4.79,8.32-11.28,25.98-23.68,26.33-38.88.1-4.25-2.42-8.46-7.02-8.45-1.94,0-6.1,2.7-4.12-2.65.62-1.67,5.07-7.35,6.45-9.06,24.13-29.76,67.49-43.98,101.32-21.16,5.59,3.77,12.34,10.54,10.27,17.93-1.4,4.97-5.23,9.15-9.18,12.31-4.16,3.33-9.65,6.62-15.12,6.74-1.47.03-4-.67-5.1.69-1.85,2.3,1.76,4.65,3.14,5.91,2.12,1.95,4.32,3.83,6.69,5.48,1.71,1.18,3.58,2.42,5.55,3.14,1.3.48,3.39,1.04,3.23,2.88-.02.27-.15.51-.28.74-1.85,3.24-5.27,5.6-7.96,8.1-2.72,2.53-5.03,5.37-6.21,8.94-4.81,14.6,7.42,35.88,11.94,50.18,1.02,3.21,1.86,6.16.61,9.44ZM281.24,275.44c-.4.72-1.1.97-1.81,1.2-.64.13-1.3.23-1.93.12-.8-.13-1.4-.66-1.96-1.21-4.95-6.95-10.43-14.32-14.96-21.44-9.77-15.34-17.15-31.21-29.51-44.97-4.56-5.07-9.97-9.37-14.22-14.74-8.59-10.86-14.03-30.51-18.75-43.84-3.19-8.99-8.34-18.42-4.79-28.3,1.62-4.5,9.56-9.74,13.19-13.7,3.47-3.78,3.21-6.08,9.16-7.39,4.57-1.01,13.09-1.5,17.96-1.7,3.25-.13,6.96.24,9.64,2.28,2.79,2.11,3.8,6.46,3.41,9.78-.21,1.77-1.68,5.65,1.46,5.6,2.1-.04,5.44-5.55,6.55-7.46,10.29-17.63,7.04-36.01-13.66-42.38-4.86-1.5-15.92-2.69-18.73-6.62-.86-1.21-1.28-2.8-2.14-4.07-7.25-10.61-18.04-17.37-29.95-21.78-32.56-12.04-76.89,6.62-95.45,34.91-2.95,4.49-9.14,15.75-7.51,20.99,1.95,6.29,10.46-2.95,11.66-2.1,1.7,5.96-2.66,12.74-6.21,17.32-6.19,7.98-21.39,21.14-22.71,31.08-1.08,8.09,3.99,9.19,10.82,8.5.94.86-2.72,6.58-3.4,7.72-8.83,14.73-21.38,24.44-31.76,37.55-13.11,16.55-25.99,44.21-32.02,65.44,0,.02-.02.03-.03.06-.02.1-.05.2-.08.31-.11.38-.21.76-.32,1.13-.25.74-.59,1.45-1.19,1.97-.38.33-.87.56-1.38.59-.55.07-1.11-.69-1.43-1.06-.41-.47-.77-1-.97-1.6-.29-.85-.32-1.75-.24-2.65,5.81-20.55,18.59-49.41,33.13-67.76,4.2-5.3,8.71-10.04,13.08-14.63,6.66-7,12.96-13.61,17.99-21.87-2.16-.66-3.91-1.77-5.29-3.34-2.37-2.71-3.26-6.44-2.64-11.11,1.19-8.97,9.8-18.29,17.39-26.51,2.52-2.73,4.9-5.31,6.48-7.34,1.08-1.39,1.96-2.65,2.66-3.78-.33.04-.66.05-.99.05-3.78,0-6.87-2.4-8.07-6.26-2.61-8.42,5.62-21.92,8.2-25.86,15.94-24.28,48.17-41.23,78.4-41.23,8.53,0,16.56,1.37,23.87,4.08,14.53,5.37,25.53,13.42,32.71,23.93.71,1.03,1.17,2.06,1.54,2.88.15.34.36.79.48,1,1.43,1.28,7.45,2.59,10.37,3.22,2,.43,3.88.84,5.42,1.32,13.42,4.13,19.05,12.21,21.41,18.25,3.75,9.61,2.16,21.17-4.47,32.54-4.24,7.26-7.55,10.25-11.43,10.31h-.16c-2.42,0-4.53-.95-5.95-2.69-2.44-2.98-1.69-6.69-1.29-8.69.05-.25.1-.47.13-.66.22-1.87-.45-3.96-1.17-4.51-.68-.51-2.1-1.13-5.02-1.13-.31,0-.61,0-.91.02-7.56.31-13.9.89-16.95,1.57-2.15.47-2.23.58-3.49,2.32-.66.91-1.47,2.04-2.67,3.34-1.47,1.6-3.31,3.19-5.27,4.88-2.31,2-6.19,5.34-6.74,6.88-2.23,6.19.32,12.75,3.01,19.7.6,1.54,1.22,3.14,1.78,4.73.9,2.54,1.81,5.27,2.78,8.15,3.88,11.58,8.7,26,15.06,34.04,2.22,2.8,4.85,5.34,7.64,8.03,2.11,2.04,4.3,4.14,6.35,6.43,9.01,10.02,15.5,21.14,21.77,31.89,2.66,4.56,5.41,9.28,8.32,13.83,3.42,5.36,7.44,10.96,11.34,16.37,1.29,1.79,2.57,3.57,3.81,5.31.15.21.32.44.49.67.29.67.56,1.35.17,2.07ZM225.27,70.25c8.52,0,8.51,13.22,0,13.22s-8.51-13.22,0-13.22Z"/>
</svg>