<?xml version="1.0" encoding="UTF-8"?>
<svg id="Layer_11" data-name="Layer 11" xmlns="http://www.w3.org/2000/svg" viewBox="0 0 267.92 298.03">
  <defs>
    <style>
      .cls-1 {
        fill: #fff;
      }

      .cls-2 {
        fill: #737438;
      }
    </style>
  </defs>
  <path class="cls-1" d="M36.22.01s.01,0,.02,0c0,0-.01,0-.02-.01,0,0,0,0,0,.01Z"/>
  <path class="cls-2" d="M86.4,77.21c-1.32-.49-9.82,1.18-11.51,1.8-4.92,1.79-4.52,10.41-2.14,14.21,3.47,5.54,11.53,6.23,16.05,1.71,1.78-1.78,3.22-5.64,3.09-8.14-.15-3-2.51-8.48-5.49-9.58Z"/>
  <path class="cls-2" d="M267.86,246.52c-.04-1.09-.11-2.17-.18-3.26-.11-1.63-.24-3.25-.39-4.87-.3-3.09-.28-6.47-1.16-9.46-.8-2.7-2.51-5.58-4.12-7.89-2.06-2.97-4.7-4.94-7.53-7.1-.21-.1-.42-.2-.63-.31-.75-.39-1.48-.8-2.18-1.25-.02-.01-.03-.02-.04-.03-9.74-4.87-19.92-8.87-29.55-13.98-5.81-3.08-11.57-6.46-16.63-10.69-2.2-1.84-4.44-3.68-6.29-5.89-1.37-1.63-2.87-4.13-3.24-6.25-.63-3.6,4.85-1.93,7.01-2.44,2.38-.56,4.29-1.94,5.01-4.35,1.35-4.56-1.29-9.89-3.53-13.7-6.99-11.88-27.57-27.86-28.98-40.7-.11-.99-.39-4.02.82-4.27,3.18.67,8.53,6.85,11.65,3.89,3.4-3.23-1.02-13.69-2.81-17.35-17.24-35.25-69.41-59.37-107.05-47.87-15.84,4.84-29.43,14.21-38.7,27.99-.19.28-.38.56-.64.77-.3.25-.68.38-1.05.51-10.47,3.62-21.68,6.38-28.7,15.66C-.01,105.53-2.45,118.7,2.58,132.87c.94,2.63,4.66,9.19,7.79,8.94,2.47-.2,1.37-4.27,1.12-5.72-.48-2.77.1-5.77,1.13-8.35.15-.38.32-.76.63-1.02,1.18-1.01,3.58-.16,4.93-.06,1.79.14,3.59.27,5.38.09,5.78-.58,12.4-3.37,17.97-3.93,3.84-.39,7.05,1.42,9.73,3.99,2.15,2.06,4.23,5.47,6.33,7.49,4.88,4.72,11.64,7.35,13.72,14.5,3.28,11.27-3.03,24.84-9.98,33.57-4.19,5.26-13.51,12.62-13.78,19.65-.23,6.13,7.28,4.11,6.19,9.03-2.1,9.47-16.71,24.07-23.49,31.24-6.31,6.68-11.79,14.13-16.65,21.92-2.56,4.1-4.96,8.31-7.19,12.61-1.95,3.74-4.81,7.92-4.8,12.27.01,4.01,2.21,6.97,6.08,8.05,1.97.55,4.04.61,6.08.66,3.79.1,7.58.23,11.36.25.47,0,.94,0,1.4,0l.05-.06c.8,0,1.59,0,2.39,0,2.38-.05,4.74-.24,7.03-.75.51-.12,1.02-.23,1.52-.33,1.5-.3,2.97-.52,4.61-.45,2.5.1,5,.21,7.49.29.42.01.83.02,1.25.04,2.08.06,4.17.11,6.25.12,3.1.01,6.18.06,9.26.15,3.08.09,6.17.21,9.26.38,2.76.15,5.54.16,8.33.1,4.65-.09,9.31-.35,13.96-.44,2.49-.05,4.99-.16,7.48-.19.83,0,1.66,0,2.49.01.27,0,.55.02.82.04l-.15.16c1.82.19,3.64.49,5.44.44,2.47-.07,4.94-.15,7.41-.24,2.2-.08,4.4-.16,6.6-.24,7.45-.26,14.89-.47,22.36-.28l-.06-.08c.55.01,1.1.03,1.64.04,1.64.04,3.29.1,4.93.18,1.54.08,3.08.14,4.63.21.51.02,1.03.05,1.54.07l.08.11c4.53.16,9.06.27,13.59.3,1.1,0,2.19-.02,3.29-.07,3.03-.08,6.07-.37,9.11-.56.09,0,.18,0,.27.01.27.01.53.02.8.04,1.19.06,2.38.14,3.57.21.4.02.79.05,1.19.07,1.58.09,3.17.18,4.76.23.38.01.75.01,1.12.01l-.25-.08h-.03c.2,0,.41,0,.61.01,4.09.13,7.35-.39,9.93-1.37.82.02,1.62.17,2.44.23,1.36.11,2.77-.34,4.15-.42,1.59-.09,3.18-.02,4.76.2.02,0,.04,0,.05,0,.13.02.27.04.4.05.14.01.29.01.43,0,.25-.04.49-.14.73-.2,1.17-.31,2.33.16,3.49.25,1.25.1,2.54.09,3.8.09h.14c.8,0,1.6-.02,2.4-.06,1.27-.02,2.56-.1,3.85-.25,1.29-.15,2.59-.38,3.9-.71,1.11-.25,2.19-.62,3.31-1.01,1.08-.44,2.2-.9,3.27-1.49,2.17-1.15,4.29-2.65,6.24-4.59,2.01-1.98,3.96-4.14,5.61-6.46,1.66-2.32,3-4.81,3.8-7.29,1.02-3.12,1.75-6.25,2.33-9.38.58-3.13,1.02-6.26,1.42-9.48.13-.89.18-1.78.23-2.67.03-.49.04-.88.05-1.24,0-.36.01-.68.01-1.03.01-1.37-.01-2.74-.07-4.1ZM40.48,101.33c-.31.32-2.51,1.23-3.02,1.24-3.41.08-9.08-7.57-6.68-10.65.74-.95,1.69-1.36,2.71-1.37,4.43-.04,10.25,7.41,6.98,10.78ZM206.97,209.15c-.11.42-.25.83-.42,1.22-.43.98-1.06,1.85-1.84,2.62-.62.62-1.35,1.17-2.14,1.65-2.39,1.45-5.43,2.31-8.49,2.57-.91.08-1.8.1-2.66.08-6.92-.15-12.44-3.08-18.21-4.44-5.05-1.19-10.28-1.18-16.8,2.96-7.04,4.47-8.4,10.64-18.63,7.02-8-2.83-13.12-8.64-22.61-7.96-7.74.56-12.32,8.02-19.7,9.09-5.8.84-9.46-2.07-14.83-1.58-4.62.42-11.76,5.34-17.57,5.91-1.34.13-2.61.03-3.76-.4-.88-.33-1.68-.87-2.4-1.64-4.84-5.24,6.86-16.81,2.16-22.61-1.2-1.48-3.44-1.36-4.03-2.31-.4-.65-.03-1.8,1.98-4.3,2.22-2.77,4.65-4.95,6.99-7.13.33-.31.67-.62,1-.93.41-.38.81-.77,1.21-1.16,0,0,.01-.01.02-.02.37-.37.74-.74,1.1-1.12,2.53-2.65,4.76-5.66,6.28-9.92,4.03-11.33,6.87-26.32-1.32-36.44-3.28-4.05-11.57-8.41-12.09-13.82-.3-3.06.12-5.04,2.71-6.8,3.55-2.41,8.07-4.23,12.37-4.56,4.67-.35,9.38.77,14.02-.09,1.22-.23,2.46-.62,3.33-1.51,2.05-2.11.08-4.4-1.94-5.43-3.67-1.88-7.93-2.16-11.89-3.31-4.12-1.19-7.9-3.32-11.9-4.86-2.03-.78-4.11-1.41-6.23-1.89-1.89-.43-3.45-.44-4.93-1.78-2.59-2.35-3.35-5.78-4.31-9-1.05-3.52-3.61-6.42-2.03-10.15,4.67-11.02,28.79-20.97,40.03-22.74,29.09-4.58,61.41,11.27,80.48,32.66,2.1,2.35,10.52,12.79,10.42,15.28-.13,3.27-3.84.61-6.25.97-12.38,1.87-4.34,20.59-.1,26.91.19.28.4.58.63.89,3.82,5.38,8.95,10.01,13.4,14.83,4.12,4.47,8.17,9.08,10.83,13,.19.29.39.57.57.86,1.39,2.17,2.29,4.09,2.46,5.63,0,.08.01.16.01.23,0,.12,0,.24,0,.36-.06,1.27-.88,1.47-1.91,1.35-.8-.21-1.58-.36-2.35-.47-.15-.03-.29-.05-.43-.06,0,0,0,0-.01,0-.17-.02-.33-.02-.49-.04-.44-.04-.89-.05-1.33-.04-.44,0-.87.04-1.29.1-.12.02-.25.03-.37.05-.19.03-.37.08-.55.13-.21.05-.42.11-.62.18-.06.02-.13.03-.19.06-.12.04-.22.1-.33.15-2.22.97-3.6,3.07-3.45,6.7.01.44.05.87.1,1.31,0,0,0,0,0,0,.19,1.43.78,3,1.66,4.67,3.79,7.21,12.75,16.09,15.68,22.33,1.21,2.58,1.45,4.82.98,6.73ZM245.65,279.14c-.06.35-.22.66-.43.94-.08.06-.15.12-.23.17-.65.3-1.31.58-1.98.83-.02,0-.04.01-.06.02-.77.2-1.55.37-2.32.55-.57.06-1.14.1-1.71.11-1,.01-2.06-.11-2.9-.72-.59-.42-1.07-1.05-1.53-1.65,0,0,0,0,0,0-1.35-2.3-2.73-4.59-4.17-6.86-2.18-3.46-5.55-5.77-4.02-10.45.37-1.13,1.31-1.89,2.45-2.15,3.85-.87,5.09.7,7.32,3.38.6.72,1.22,1.5,1.84,2.33,2.3,3.06,4.73,6.79,7.11,10.71.4.9.78,1.82.62,2.78Z"/>
</svg>