<?xml version="1.0" encoding="UTF-8"?>
<svg id="Layer_11" data-name="Layer 11" xmlns="http://www.w3.org/2000/svg" viewBox="0 0 236.85 329.94">
  <defs>
    <style>
      .cls-1 {
        fill: #737438;
      }
    </style>
  </defs>
  <path class="cls-1" d="M234.37,226.37c-2.54-18.36-1.34-37.97-10.52-54.77-1.3-2.37-3.16-4.63-4.39-6.95-.56-1.06-1.25-2.12-1.06-3.38,3.79.96,9.87,4.31,11.86-.85,1.13-2.93-2.12-7.12-3.9-9.4-8.91-11.41-18.16-20.7-29.58-29.58-4.19-3.26-9.18-6.26-13.17-9.51-2.15-1.75-3.86-4.5-6.29-5.82-.12-.54.15-.61.51-.87,2.45-1.78,6.43-1.9,8.54-4.64,2.86-3.71-1.05-5.86-4.32-6.73-3.76-.99-7.96-1.19-11.84-1.96-4.49-.89-11.03-2.26-15.26-3.75-3.6-1.26-11.05-7.05-12.94-10.35-1.85-3.22-.1-6.19.33-9.59,1.38-10.8-3.37-28.26-8.8-37.72-5.73-9.99-18.45-21.16-29.17-25.38-8.3-3.27-21.68-6.73-30.34-4.3-.69.19-2.16,1.06-2.55,1.01-.43-.05-1.43-.75-2.11-.94-8.74-2.56-22.2.94-30.58,4.23-12.28,4.81-25.87,17.69-31.32,29.67C-.66,52.65-2.2,64.25,3.08,83.42c1.98,7.2,6.47,13.15,6.9,20.69.22,3.89-1.26,7.51-1.54,11.34-.95,13.24,5.97,23.52,6.75,36.47.47,7.86.38,13.53,2.6,21.3,3.49,12.24,6.93,24.49,12.97,35.76,4.6,8.57,13.6,23.29,20.89,29.37,3.33,2.78,10.51,5.68,6.57,10.85-1.62,2.13-5.58,6.24-7.64,7.99-5.36,4.56-12.52,6.08-18.07,10.74-3.78,3.18-8.78,10.14-9.83,14.99-.77,3.56,1.65,6.56,5.4,5.4,2.97-.92,3.71-7.49,6.92-9.32,2.77-1.58,1.11,3.07,1.03,4.4-.16,2.67.55,6.51,3.67,7.08,4.47.83,4.47-7.23,5.23-9.82,1.05-3.57,3.47-3.78,6.26-5.08,5.34-2.49,10.15-9.98,14.8-13.4.34-.25.69-.43,1.04-.59.96-.44,2.1.25,2.09,1.3-.01,1.24-.73,2.46-1.51,3.35-7.04,8.05-15.87,13.41-19.86,23.97-.99,2.63-2.3,5.49-.51,8.03,1.84,2.62,4.71,1.59,6.56-.45.75-.82,4.15-7.04,5.21-6.28.5,2.95-.03,9.15,3.89,10.05,5.63,1.29,5.48-6.76,6.91-10.44,1.79-4.63,9.05-11.6,13.88-7.28,2.33,2.08,3.76,8.01,5.98,10.58,2.41,2.79,6.8,1.63,7.33-1.85.43-2.8-2.25-8.48-3.72-10.96-1-1.69-4.06-5.01-3.92-6.77.04-.48.53-1.85.76-2.33.72-1.57,4.19-5.58,5.51-7.05.37-.42,2.05-2.2,2.42-2.12,3.24,2.43,7.03,4.39,10.85,5.72,5.49,1.91,10.14,1.79,14.79,5.75,12.81,10.93,15.44,28.09,28.04,38.47,4,3.29,7.73,3.94,11.18-.46.88-1.12,1.26-1.98,1.51-3.39.19-1.07-.37-2.16.79-2.88,2.24,4.67,7.52,12.18,12.94,13.1,1.26.21,2.32-.02,3.3-.84,2.36-1.99,1.02-5.08,1.07-7.67.33.02.71-.07,1.03.04.41.14,2.96,3.98,3.57,4.7,2.77,3.28,8.19,9.8,11.36,12.24,6.45,4.96,9.53-1.28,9.17-7.33-.08-1.33-.78-2.81-.3-4.13.83-.59,2.62,2.19,3.21,2.77,4.5,4.37,11.37,5.69,14.41-.93,2.58-5.61-.28-13.83-2.55-19.21-2.86-6.78-5.87-12.98-7.63-20.26-.23-.94-1.11-3.49-.18-4.08,1.35-.86,2,2,2.88,2.91,2.53,2.59,6.55,2.58,7.26-1.58.38-2.22.15-6.43.08-8.83-.15-5.43-.58-11.09-1.28-16.5-.3-2.31-2.15-10.21-1.34-11.84.91-1.84,2.16.6,2.75,1.23,2.33,2.46,5.69,6.31,9.43,4.27,1.17-.64,2.2-2.26,2.36-3.59.55-4.46-1.76-10.07-2.4-14.67ZM36.4,142.33s.7-1.53,1.33-2.13c.49-.46,1.11-.74,1.86-.84.09-.01.18-.02.27-.02.04,0,.08,0,.11,0,3.3.18,4.55,4.97,5.41,10.17.72,4.34,1.66,11.23,1.95,16.38.34,5.97-2.63,7.3-4.42,7.56-.31.04-.61.07-.91.07-2.1,0-4.81-1.09-5.8-6.28-.85-4.44-2.63-18.54.21-24.92ZM87.35,61.04c-1.63,0-2.45-.89-2.79-1.43-.87-1.35-.72-3.24.49-5.95,1.79-4.02,5.69-6.79,9.7-6.91h.18c2.79,0,6.08,1.79,7.65,3.53,1.66,1.84,3.39,6.6,2.96,9.12-.29,1.69-1.83,2.91-3.66,2.91-.71,0-1.39-.19-1.97-.54-1.17-.71-1.47-1.96-1.76-3.17-.36-1.5-.67-2.52-1.64-2.99-.6-.29-1.15-.44-1.64-.44-.38,0-1.54,0-3.24,2.13-.13.16-.3.48-.47.78-.61,1.1-1.63,2.93-3.8,2.95ZM79.1,76.85c1.18,6.69-.1,14.66-3.19,19.82-.02.03-1.81,2.97-2.57,3.48-.43.29-.93.44-1.45.44h0c-2.88,0-5.38-5.37-5.66-5.98-2.07-4.59-4.01-16.48-.18-21.89,1.94-2.75,4.14-3.32,5.64-3.32,3.48,0,6.66,3.2,7.41,7.45ZM53.29,66.21c-7.95,4.86-16.16-4.36-12.42-12.11,1.28-2.65,3.97-5.1,7.04-5.23,8.73-.37,12.64,12.9,5.38,17.34ZM86.68,93.46c2.1-.93,6.49-.57,8.93-.88,10.69-1.36,17.6-9.34,22.62-18.15,1.23-2.16,2.59-6.88,5.38-7.2,1.21-.14,2.45,1.46,2.52,2.57.05.74-.58,2.91-.83,3.74-2.11,6.99-9.48,17.48-15.61,21.47-5.53,3.6-17.04,6.87-23.33,4.44-3.02-1.17-2.17-4.89.33-5.99ZM120.95,51.98c-1.48-8.56-1.85-16.1-7.83-23.12-7.5-8.81-21.3-10.66-30.34-3.05-1.81,1.52-4.94,6.02-7.35,2.43-1.83-2.72,2.15-6.13,4.12-7.81,4.45-3.79,10.31-6.12,16.19-6.21,19.66-.28,31.26,19.44,31.35,37.17.02,4.5-5.32,5.3-6.13.59ZM76.44,50.14c0,.57,0,1.09,0,1.51.01.53.03,1.1.05,1.68.11,3.31.24,7.05-.56,10.11-.89,3.39-3.25,3.76-4.22,3.76-.55,0-1.13-.1-1.73-.3-1.92-.64-2.99-2.95-3.27-7.07-.27-3.83-.2-9.21.01-12.55,0-.04.26-3.99.89-5.67.32-.85,1.32-2.35,2.66-2.75.45-.13.89-.2,1.32-.2,1.38,0,2.6.69,3.42,1.94,1.33,2.01,1.43,5.52,1.42,9.55ZM64.52,29.34c-1.58-.45-3.13-2.76-4.44-3.84-8.78-7.28-22.63-5.24-29.87,3.22-6.33,7.39-6.29,14.63-8.04,23.53-.87,4.41-6,3.54-6.01-.54-.06-17.41,11.02-36.97,30.24-37.48,7.65-.2,16.48,3.85,21.03,10.07,1.87,2.57.21,5.93-2.9,5.04ZM19.08,67.23c.71-.11,2.03.51,2.54,1.02,5.61,10.8,12.6,22.64,25.93,24.34,2.81.36,8.16-.23,10.21,1.75,1.6,1.54,1.26,4.39-.88,5.19-5.63,2.1-16.53-.55-21.67-3.48-6.81-3.88-13.43-12.88-16.4-20.07-.8-1.93-3.22-8.21.28-8.74ZM54.13,187.41c.09-3.2,1.59-8.27,5.21-8.27,1.58,0,3.05,1.02,4.37,3.03.2.31.32.67.34,1.04.4,7.46,2.71,14.14,6.04,21.88.14.33.37.78.61,1.25,1.36,2.69,3.64,7.2.35,10.07-.76.66-1.74,1.01-2.82,1.01-2.35,0-4.77-1.62-5.85-3.15-4.05-5.7-8.43-20.01-8.24-26.87ZM78.11,178.98c-.09,0-.19,0-.28-.02-5.53-.74-7.14-5.73-8.32-9.38l-.02-.07c-2.07-6.41-3.03-14.82-2.46-21.45.39-4.51,2.68-5.67,4.02-5.96.37-.08.74-.12,1.1-.12,4.44,0,4.71,5.4,4.84,7.99.03.53.05,1.03.09,1.34.57,4.27,1.49,8.8,2.76,13.46.2.74.5,1.55.82,2.4,1.25,3.34,2.96,7.9-1.2,11.33-.38.31-.85.48-1.34.48ZM106.07,183.92c-6.47-17.77-7.18-38.4-1.86-53.84.46-1.35,1.87-5.44,5.21-6.07.25-.05.51-.07.76-.07,1.18,0,2.32.53,3.14,1.45,2.28,2.55,1.53,7.51.4,13.24-.21,1.04-.38,1.94-.47,2.59-2.62,19.38.82,33.71,11.16,46.47,11.42,14.09,26,25.83,41.05,33.05.82.39,2.01.87,3.26,1.38,4.91,1.98,8.79,3.67,10.47,5.95,1.52,2.07,1.16,3.8.82,4.65-.62,1.52-2.11,2.58-4.09,2.9-.32.05-.67.08-1.04.08-2.69,0-7.02-1.4-13.65-4.4-7.36-3.34-15.11-8.02-21.81-13.19-.57-.44-1.48-1.23-2.53-2.14-.71-.62-1.74-1.52-2.77-2.38.05.08.09.15.13.2,12.43,20.42,33.62,38.06,55.29,46.04,2.31.85,4.75,1.52,7.12,2.17,1.9.52,3.86,1.06,5.78,1.7,3.73,1.24,5.7,2.9,5.85,4.93.08,1.1-.35,2.68-2.87,3.95-1.09.55-2.44.82-4.12.82-3.92,0-8.75-1.48-11.63-2.36l-.08-.02c-38.27-11.7-70.98-52.68-83.51-87.11Z"/>
</svg>