<?xml version="1.0" encoding="UTF-8"?>
<svg id="Layer_11" data-name="Layer 11" xmlns="http://www.w3.org/2000/svg" viewBox="0 0 236.85 287.49">
  <defs>
    <style>
      .cls-1 {
        fill: #737438;
      }
    </style>
  </defs>
  <path class="cls-1" d="M232.58,252.3c-2.37-3.21-9.66-12.75-10.01-16.17-.2-2,.49-4.28.31-6.49-.24-2.87-1.61-5.38-3.18-7.7-1.13-1.67-5.1-5.85-5.05-7.55.04-1.12.65-2.19.57-3.56-.44-7.62-9.59-13.58-14.28-18.98-.27-.31-2.99-3.47-1.47-3.53,2.2,1.74,7.32,5.52,9.57,2.2,1.85-2.73-1.19-6.76-2.83-8.95-2.16-2.9-4.69-5.55-6.88-8.42-7.58-9.95-12.54-21.38-21.04-30.75-2.93-3.23-7.01-6.7-9.57-10.15-.6-.81-1.54-2.76.14-2.79.92-.02,3.66,2.19,5.14,2.52,2.31.51,3.47-.68,3.26-2.96-.27-2.99-4.3-7.3-6.32-9.57-5.69-6.36-12.45-12.1-19.31-17.18-4.86-3.59-10.07-5.67-15.18-8.66-2.31-1.35-7.07-4.76-6.81-7.77.25-2.75,2.81-7.97,3.68-11.05,5.07-17.81,3.15-40.55-6.04-56.76C121.28,7.44,107.85.83,95.9.55c-8.34-.69-16.44.11-24.72.62C63.95,1.61,55.17-.05,47.6,0c-12.73.08-22.58,1.42-32.33,10.28C-2.19,26.15-4.07,65.03,6.53,84.92c1.36,2.55,4.11,6.08,4.19,9.08.1,3.61-4.14,9.95-5.4,13.73-2.98,9.01-2.62,20.72-1.35,30.06,3.85,28.24,19.5,57.33,42.96,73.86,2.55,1.8,6.52,3.54,8.65,5.47,1.36,1.24,1.87,3.4.87,4.99-.76,1.21-6.31,6.57-7.64,7.66-4.51,3.68-10.26,5.02-15.13,8.12-4.85,3.09-10.28,9.33-11.81,14.97-.86,3.17.85,5.83,4.25,5.44,2.78-.32,3.09-2.66,4.24-4.59,1.05-1.77,2.42-4.46,4.76-4.21.18.18-.61,4.32-.61,5.15-.02,5.15,5.37,7.93,7.52,2.2.9-2.39-.49-6.93,1.35-8.66,1.31-1.23,3.78-1.46,5.45-2.2,4.7-2.09,9.83-8.8,13.98-11.91,1.35-1.01,4-1.01,3.81,1.44-.11,1.44-3,3.92-4.13,5.01-6.33,6.07-16.35,13.39-17.89,22.72-.6,3.64,1.93,6.32,5.49,4.61,2.6-1.25,3.52-4.87,5.41-6.5,1.87-1.61,1.28,2.05,1.39,3,.26,2.32.89,4.98,3.51,5.61,1.91.46,3.52-.06,4.4-1.82,2.2-4.41,1.21-8.69,5.78-12.46,2.69-2.22,7.09-4.34,10.05-1.38,2.81,2.81,5.06,13.98,10.97,10.04,3.33-2.22.42-8.21-1.11-10.93-.92-1.63-4.76-6.08-4.61-7.48,1.08-4.14,4.92-6.88,7.64-9.99l.6-.29c2.5,1.42,5.04,2.98,7.72,4.06,2.05.83,4.3,1.21,6.32,1.92,6.18,2.16,12.05,4.64,18.65,5.48,7.96,1.01,14.86.04,22.84,2.18,11.66,3.12,16.25,14.14,23.48,22.72,4.1,4.86,14.81,15.35,21.33,15.48,2.52.05,5.37-2.07,5.72-4.61.67-4.96-3.48-8.62-3.51-13.37,1.43-.28,2.23.47,3.24,1.32,1.33,1.11,2.5,2.68,3.81,3.84,2.56,2.24,8.39,6.26,11.84,5.97,4.8-.41,1.93-6.89,1.71-9.65.42-.04.78-.03,1.17.15.73.34,2.95,2.81,3.85,3.5,2.43,1.85,7.91,3.31,10.55,1.48,3.25-2.25,3.88-7.32,1.74-10.53-.5-.75-4.24-3.84-3.48-4.61,1.7.4,4.15,2.24,5.36-.08,1.62-3.1-2.26-6.41-3.89-8.61ZM153.01,154.28c1.15,1.14,1.09,3.46.81,4.39-.74,2.47-7.03,5.88-8.13,6.25-1.34.46-2.88.71-4.45.71h0c-3.74,0-7.27-1.33-9.45-3.56-1.71-1.75-2.39-3.9-1.73-5.47.49-1.16,1.6-1.85,2.97-1.85.79,0,1.66.21,2.66.66.81.36,1.49.7,2.09,1.01,1.36.69,2.18,1.11,3.35,1.11.66,0,1.44-.13,2.39-.39,1.33-.37,1.76-.8,2.61-1.67.3-.31.64-.66,1.06-1.04.77-.7,1.99-1.14,3.19-1.14,1.06,0,1.99.35,2.63.98ZM124.03,118.79c.28-.51.77-.86,1.34-.99.38-.08.77-.12,1.16-.12,1.67,0,2.99.74,4.16,1.39.49.27.96.53,1.38.7,1.2.46,2.25.68,3.19.68,1.29,0,2.46-.42,3.69-1.33.17-.12.43-.37.7-.61,1.07-.98,2.54-2.33,4.36-2.33.76,0,1.86.24,2.84,1.37.95,1.1,1.24,2.48.8,3.87-1.09,3.5-6.76,6.4-8.73,6.91-.99.26-2.09.39-3.25.39-3.32,0-6.8-1.09-9.07-2.83-2.87-2.21-3.83-4.86-2.57-7.09ZM56.16,49.59c-.29,2.11-2.12,4.37-4.38,4.37-.9,0-1.75-.35-2.45-1.02-1.18-1.12-1.22-2.7-1.25-3.74,0-.24-.01-.53-.04-.65-.48-2.67-1.5-2.67-1.84-2.67-.12,0-.25.01-.38.03-.49.1-1.51,1.55-1.94,2.17-.8,1.13-1.48,2.11-2.59,2.43-.27.08-.55.12-.84.12-1.52,0-3.55-1.16-4.04-2.83-1.11-3.75,2.77-8.18,5.16-9.51,1.33-.74,2.75-1.11,4.21-1.11,2.74,0,5.49,1.35,7.55,3.71,2.18,2.5,3.24,5.75,2.83,8.71ZM71.24,87.16c-.06.07-.12.15-.17.22-.38.48-1.09,1.39-2.34,1.39-.77,0-1.48-.35-2.13-1.04-4.86-5.22-4.56-13.32-4.36-15.68.22-2.5,1.77-6.74,5.01-7.47.45-.1.9-.15,1.35-.15,3.77,0,6.17,3.46,6.5,6.71.31,3.03.57,10.66-3.86,16.04ZM78.24,29.41c-7.63,6.52-6.7,17.74-7.58,26.85-.22,2.24-3.06,2.37-3.75.36-.91-11.34-.06-25.03-12.46-30.21-5.57-2.33-10.13-1.58-15.66.34-1.31.46-3.79,1.97-4.93,1.72-.64-.14-6.49-4.75-7.42-5.55-.65-.55-3.42-2.91-3.26-3.55,1-1.34,3-2.59,4.49-3.45,4.08-2.36,9.12-4.13,13.86-4.39,5.42-.29,9.95,1.08,14.57,3.8,6.18,3.62,10.15,9.24,17.95,4.89,3.51-1.95,6.54-4.77,10.3-6.47,8.89-4.02,18.63-2.24,26.66,2.87.78.49,2.38,1.46,2.96,2.04.28.29.36.46.32.87-.08.73-3.5,3.61-4.29,4.27-.84.7-5.65,4.48-6.24,4.65-.45.12-.89.14-1.34,0-8.06-4.23-16.85-5.31-24.19.95ZM83.5,52.84c-2.38-2.62-3.03-6.35-1.73-9.98,1.48-4.12,4.97-7.16,8.9-7.73.58-.08,1.15-.13,1.68-.13,2.51,0,4.6.95,6.37,2.89,1.11,1.22,2.9,4.69,3.13,6.42.38,2.87-.49,5.69-2.45,7.93-2.13,2.44-5.31,3.89-8.49,3.89h0c-2.84,0-5.47-1.17-7.4-3.29ZM167.82,233.91l2.15,2.1c.07.07.14.15.2.23.97,1.29,1.13,2.97.43,4.38-.71,1.41-2.12,2.29-3.68,2.29-.49,0-.97-.09-1.44-.25-2.28-.81-7.95-6.03-8-6.08-.88-.82-1.64-1.7-2.38-2.54-.56-.64-1.09-1.25-1.62-1.78-1.37-1.36-2.73-2.69-4.09-4-4.9-4.77-9.54-9.28-14-14.68-12.31-14.89-24.57-34.5-37.48-59.95-4.66-9.18-8-17.86-10.22-26.54-.08-.32-.17-.63-.25-.94-.69-2.57-1.48-5.47.19-8.55,1.05-1.93,2.61-3.04,4.28-3.04.69,0,1.73.2,2.76,1.14.65.59,1.3,2.04,1.31,2.05.99,2.22,1.82,4.66,2.62,7.01.59,1.73,1.14,3.37,1.75,4.91,9.34,23.61,28.01,53.83,52.41,67.82,2.05,1.17,4.55,2.33,6.97,3.44,3.3,1.52,6.72,3.1,9.35,4.87,1.81,1.23,2.97,2.98,3.1,4.69.1,1.34-.42,2.61-1.48,3.59-.92.85-2.15,1.28-3.67,1.28h0c-2.96,0-6.53-1.65-8.89-2.74-.27-.13-.52-.24-.75-.34-5.33-2.4-11.09-5.73-17.1-9.88-.6-.42-1.35-1.03-2.14-1.67-.01,0-.02-.02-.03-.03,8.25,12.21,19.16,22.89,29.72,33.22ZM186.89,185.15c-2.77,3.06-7.84,4.43-11.63,4.43-.93,0-1.8-.08-2.6-.24-2.27-.44-8.06-3.18-8.26-7.02-.06-1.09.37-1.78.74-2.17.37-.39,1.03-.85,2.1-.85,1.37,0,2.98.77,4.79,1.71.33.17.78.4.88.44.76.23,1.57.35,2.4.35,1.32,0,2.7-.3,3.97-.88.23-.1.78-.52,1.18-.83,1.27-.97,2.72-2.07,4.35-2.07.9,0,1.71.34,2.35.97,1.71,1.7.99,4.78-.25,6.15Z"/>
  <path class="cls-1" d="M194.54,283.53c-3.79-.08-12.83-7.49-18.38-14.07-1.75-2.08-3.33-4.3-5.01-6.65-5.13-7.2-10.43-14.65-20.48-17.34-5.33-1.43-10.16-1.58-14.84-1.73-2.89-.09-5.63-.18-8.53-.55-4.93-.62-9.51-2.28-14.35-4.04-1.16-.42-2.32-.84-3.49-1.25-1.02-.36-2.04-.63-3.02-.89-1.13-.3-2.2-.58-3.12-.96-1.94-.78-3.85-1.88-5.87-3.04-.46-.27-.92-.53-1.38-.79-.6-.34-1.28-.51-1.95-.51-.58,0-1.17.13-1.71.39l-.6.29c-.49.23-.92.56-1.27.97-.63.72-1.36,1.45-2.14,2.23-2.48,2.47-5.28,5.28-6.35,9.37-.05.19-.09.39-.11.58-.25,2.35,1.27,4.54,3.76,7.94.52.7,1.16,1.58,1.34,1.9,1.66,2.96,2.09,4.79,2.14,5.6-.81-.88-1.91-3.07-2.54-4.33-.99-1.97-1.92-3.84-3.2-5.13-1.71-1.71-3.9-2.62-6.33-2.62-3.93,0-7.36,2.35-9.05,3.75-3.95,3.27-4.85,6.95-5.57,9.92-.32,1.32-.6,2.48-1.11,3.58,0,0-.01,0-.02,0-.1-.15-.35-.66-.52-2.12,0-.12,0-.27,0-.43.04-1.55.1-3.68-1.43-5.25-.83-.85-1.94-1.32-3.13-1.32s-2.31.46-3.36,1.36c-1.25,1.08-2.09,2.45-2.82,3.66-.49.81-1.15,1.9-1.62,2.22,0-.1.01-.21.04-.34,1.04-6.31,7.39-12.03,12.99-17.08,1.32-1.19,2.56-2.31,3.73-3.43l.49-.46c2.53-2.36,4.65-4.52,4.85-7.1.13-1.75-.39-3.35-1.47-4.53-1.09-1.17-2.63-1.82-4.35-1.82-1.53,0-3.1.52-4.31,1.43-1.81,1.36-3.63,3.16-5.55,5.07-2.55,2.53-5.43,5.4-7.66,6.39-.35.15-.93.32-1.49.48-1.57.45-3.52,1-5.06,2.45-.9.84-1.45,1.84-1.78,2.89-.18-.53-.48-1-.96-1.48-.65-.65-1.5-1.06-2.41-1.15-.24-.02-.47-.04-.7-.04-4.27,0-6.47,3.77-7.65,5.79l-.22.38c-.36.61-.63,1.19-.88,1.71-.14.29-.32.68-.46.93,0-.11.03-.26.08-.43,1.27-4.7,6.14-10.13,10.11-12.66,1.83-1.16,3.87-2.08,6.03-3.05,3.19-1.43,6.48-2.9,9.47-5.35.98-.8,7.27-6.68,8.49-8.62,1.96-3.11,1.29-7.42-1.55-10.02-1.59-1.45-3.7-2.64-5.74-3.8-1.24-.7-2.41-1.36-3.29-1.99-21.57-15.2-37.4-42.47-41.31-71.16-.89-6.53-1.92-18.89,1.19-28.29.37-1.12,1.2-2.79,2-4.4,1.81-3.64,3.68-7.4,3.59-10.68-.09-3.3-2-6.43-3.54-8.95-.42-.69-.82-1.35-1.11-1.89C.11,64.45,1.85,27.83,17.93,13.21c8.44-7.67,16.95-9.17,29.69-9.25h.31c3.13,0,6.63.31,10.01.61,3.54.31,7.19.64,10.64.64,1,0,1.95-.03,2.84-.08,1.43-.09,2.85-.18,4.27-.28,4.58-.31,8.91-.6,13.32-.6,2.35,0,4.49.08,6.56.25.08,0,.16.01.23.01,11.31.26,23.09,6.77,28.02,15.46,8.35,14.73,10.64,36.32,5.68,53.72-.29,1.01-.84,2.41-1.42,3.9-1.08,2.77-2.2,5.63-2.4,7.88-.49,5.5,5.95,9.9,8.75,11.54,1.94,1.14,3.88,2.14,5.76,3.11,3.2,1.65,6.22,3.21,9.06,5.31,7.64,5.65,13.76,11.09,18.71,16.64l.4.45c1.27,1.41,2.3,2.63,3.08,3.65-.84-.41-1.67-.68-2.59-.68-2.01.04-3.64,1.02-4.43,2.64-1.37,2.79.5,5.67,1.1,6.48,1.77,2.39,4.08,4.66,6.3,6.86,1.27,1.26,2.48,2.45,3.51,3.58,4.65,5.12,8.17,10.88,11.9,16.98,2.75,4.49,5.59,9.13,8.92,13.51,1.11,1.45,2.28,2.83,3.42,4.17,1.23,1.44,2.38,2.8,3.44,4.22,1.14,1.53,1.91,2.71,2.3,3.54-.73-.35-1.83-1.02-3.41-2.27-.7-.55-1.57-.85-2.45-.85-.06,0-.11,0-.17,0-1.74.07-3.23,1.08-3.9,2.62-1.15,2.68.64,5.28,2.55,7.47,1.39,1.6,3.04,3.15,4.78,4.79,3.89,3.67,8.31,7.83,8.54,11.81,0,.15-.09.53-.18.87-.16.62-.37,1.4-.4,2.33-.08,2.52,1.62,4.81,4.45,8.28.52.64,1.06,1.3,1.28,1.63,1.62,2.39,2.37,4.12,2.51,5.8.06.72-.04,1.61-.15,2.55-.14,1.21-.3,2.59-.15,4.02.36,3.52,4.12,9.19,10.07,17.19l.69.93c.41.55.86,1.08,1.35,1.65.17.2.39.45.62.73-.08,0-.17,0-.26,0-1.04,0-2.06.41-2.81,1.17-.81.82-1.26,1.91-1.25,3.07,0,2.36,1.8,4.14,3.7,6.02.25.25.48.47.63.64.92,1.54.54,4.03-.78,4.95-.06.03-.39.14-1.02.14-1.73,0-3.92-.78-4.88-1.51-.21-.16-.84-.79-1.25-1.2-1.46-1.45-2.34-2.29-3.34-2.75-.77-.36-1.58-.53-2.47-.53-.22,0-.45.01-.69.03-2.17.18-3.79,2.09-3.62,4.26.07.9.29,1.85.51,2.85.14.62.36,1.58.47,2.36-2.05-.59-5.5-2.66-7.97-4.82-.47-.41-.98-.96-1.51-1.54-.73-.79-1.48-1.61-2.37-2.35l-.15-.13c-1.03-.87-2.59-2.17-5.04-2.17-.44,0-.9.05-1.35.14-1.86.37-3.2,2.01-3.19,3.91.02,3.03,1.14,5.52,2.14,7.71,1,2.2,1.6,3.63,1.4,5.1-.08.4-1.02,1.18-1.7,1.18h0ZM91.9,110.58c-3.12,0-6.02,1.91-7.76,5.11-2.43,4.47-1.29,8.68-.53,11.47l.24.89c2.29,8.97,5.74,17.92,10.52,27.36,13.04,25.71,25.46,45.56,37.96,60.68,4.6,5.56,9.3,10.14,14.28,14.98,1.36,1.32,2.71,2.64,4.07,3.99.43.43.91.98,1.42,1.56.77.89,1.64,1.89,2.68,2.86,1.9,1.75,6.61,5.93,9.37,6.91.9.32,1.83.48,2.77.48,3.07,0,5.84-1.72,7.22-4.48,1.38-2.76,1.07-6.03-.8-8.53-.19-.25-.38-.47-.58-.66l-2.17-2.12c-5.12-5.01-10.32-10.09-15.23-15.38.13.06,1.12.51,1.12.51,2.67,1.24,6.72,3.1,10.54,3.1,2.51,0,4.7-.8,6.35-2.33,1.94-1.79,2.94-4.27,2.74-6.8-.22-2.9-2.03-5.77-4.83-7.67-2.9-1.96-6.46-3.6-9.91-5.19-2.34-1.08-4.76-2.19-6.66-3.28-23.51-13.49-41.6-42.85-50.69-65.84-.58-1.46-1.12-3.05-1.69-4.73-.83-2.45-1.69-4.97-2.75-7.36,0-.02-.02-.04-.03-.06-.47-1.01-1.23-2.4-2.23-3.31-1.54-1.4-3.46-2.17-5.43-2.17ZM167.23,175.35c-1.93,0-3.7.74-4.97,2.08-1.28,1.35-1.92,3.16-1.82,5.11.34,6.39,8.01,10.02,11.46,10.69,1.05.21,2.18.31,3.36.31,4.33,0,10.74-1.5,14.57-5.73,2.69-2.98,3.38-8.36.11-11.62-1.37-1.37-3.2-2.12-5.14-2.12-2.97,0-5.24,1.73-6.75,2.88-.2.15-.42.32-.6.45-.72.3-1.45.45-2.15.45-.35,0-.68-.04-.99-.11-.13-.07-.29-.15-.42-.22-2.32-1.2-4.39-2.17-6.65-2.17ZM133.04,150.79c-2.97,0-5.51,1.63-6.62,4.27-1.3,3.09-.33,6.84,2.54,9.78,2.9,2.98,7.5,4.75,12.28,4.75,2.01,0,3.99-.32,5.74-.92.09-.03,9.15-3.94,10.63-8.86.61-2.02.63-5.9-1.81-8.33-1.38-1.38-3.31-2.14-5.42-2.14s-4.37.81-5.86,2.17c-.47.43-.87.83-1.21,1.18-.22.22-.47.48-.57.55h0s-.09.04-.29.09c-.81.22-1.2.25-1.33.25-.19,0-.62-.21-1.54-.68-.61-.31-1.37-.7-2.29-1.11-1.52-.67-2.91-1-4.26-1ZM126.53,113.72c-.67,0-1.34.07-1.99.21-1.68.36-3.12,1.43-3.96,2.92-2.23,3.98-.82,8.75,3.61,12.17,2.97,2.29,7.27,3.65,11.48,3.65,1.49,0,2.92-.17,4.24-.51,2.48-.64,9.81-4.1,11.52-9.56.85-2.71.27-5.5-1.59-7.64-1.53-1.76-3.6-2.74-5.83-2.74-3.37,0-5.76,2.2-7.04,3.38-.17.15-.31.29-.43.39-.63.46-.99.51-1.28.51-.31,0-.86-.07-1.77-.42-.16-.06-.57-.29-.87-.46-1.35-.75-3.39-1.89-6.09-1.89ZM65.48,60.96c-4.42,1.53-6.82,6.52-7.19,10.74-.24,2.77-.56,12.3,5.4,18.72,1.78,1.91,3.71,2.31,5.03,2.31,3.18,0,4.89-2.18,5.46-2.9l.12-.16c5.37-6.52,5.1-15.42,4.73-18.95-.41-3.97-2.93-8.14-7.03-9.66,1.43-.94,2.41-2.52,2.59-4.41.17-1.72.27-3.51.37-5.24.44-7.58.86-14.74,5.84-18.99,2.73-2.33,5.73-3.46,9.18-3.46,3.24,0,6.8,1.01,10.6,3.01.21.11.43.2.65.27.59.19,1.21.28,1.84.28.58,0,1.17-.08,1.76-.25,1.68-.47,6.33-4.27,7.71-5.42,4.69-3.9,5.52-5.23,5.69-6.9.17-1.59-.3-2.92-1.44-4.07-.75-.76-1.86-1.48-3.24-2.34l-.41-.26c-5.85-3.73-12.25-5.7-18.51-5.7-4.15,0-8.15.86-11.91,2.56-2.51,1.13-4.62,2.62-6.66,4.05-1.35.95-2.63,1.85-3.94,2.57s-2.43,1.08-3.45,1.08c-1.89,0-3.69-1.21-6.46-3.19-1.28-.91-2.6-1.85-4.11-2.74-5.1-2.99-9.91-4.38-15.15-4.38-.54,0-1.09.01-1.64.04-4.99.27-10.68,2.06-15.62,4.91-1.89,1.09-4.25,2.59-5.68,4.51-.31.42-.54.89-.67,1.4-.71,2.8,1.31,4.78,4.48,7.49,6.78,5.79,9.16,6.44,9.19,6.44.36.08.74.12,1.13.12,1.7,0,3.38-.79,4.85-1.48.4-.19.89-.42,1.1-.49,3.17-1.1,5.4-1.57,7.46-1.57,1.8,0,3.51.36,5.37,1.14,8.01,3.35,9.06,11.11,9.75,22.57.09,1.46.17,2.9.29,4.3.03.33.1.66.2.97.44,1.27,1.27,2.33,2.32,3.05ZM92.35,31.04c-.72,0-1.48.06-2.25.17-5.36.78-10.09,4.83-12.06,10.32-1.8,5.04-.86,10.27,2.53,13.99,2.69,2.95,6.36,4.58,10.33,4.58,4.31,0,8.6-1.96,11.47-5.24,2.72-3.11,3.93-7.04,3.39-11.06-.35-2.62-2.54-6.82-4.12-8.56-2.53-2.78-5.66-4.19-9.3-4.19ZM44.76,53.07c.36.93.93,1.88,1.84,2.74,1.43,1.36,3.27,2.11,5.18,2.11,4.53,0,7.78-3.96,8.3-7.79.56-4.07-.85-8.5-3.77-11.85-2.8-3.22-6.64-5.06-10.53-5.06-2.15,0-4.21.54-6.14,1.61-3.35,1.86-8.86,7.91-7.03,14.09,1.05,3.54,4.81,5.66,7.84,5.66.66,0,1.31-.09,1.93-.27.95-.27,1.73-.72,2.38-1.25Z"/>
</svg>