<?xml version="1.0" encoding="UTF-8"?>
<svg id="Layer_11" data-name="Layer 11" xmlns="http://www.w3.org/2000/svg" viewBox="0 0 314.01 287.97">
  <defs>
    <style>
      .cls-1 {
        fill: #fff;
      }

      .cls-2 {
        fill: #737438;
      }
    </style>
  </defs>
  <path class="cls-1" d="M145.85,188.56c3.85,3.44,5.77-5.65,6.36-8,.97-3.83,1.9-13.45,5.01-15.72,3.49-2.55,5.7,0,7.38,2.96.4.71,2.17,6.66,3.85,3.65,1.28-2.3.64-7.83.91-10.6.42-4.13,3.25-14.74,9.14-10.41,2.18,1.6,6.24,14.12,9.93,7.6,1.93-3.4,2.07-11.17,2.17-15.11.02-.75.57-1.65.46-2.23-.12-.62-2.6-2.57-3.28-4.16-1.1-2.55-1.34-5.83-1.22-8.58.34-7.7,2-15.62,1.17-23.62-.54-5.25-5.23-3.06-8.94-4.31-8.88-1.63-16.88,3.48-25.37,2.91-7.26-.49-14.35-6.26-21.99-3.61-1.96.68-4.43,2.7-5.08,4.71-.57,1.78-1.29,6.96-1.41,8.95-.73,11.67,8.3,25.65-1.72,35.71.8,10.95-1.59,23.18.71,33.84.55,2.57,1.77,4.05,4.65,3.2,2.7-.8,3.59-8.55,9.77-7.26,5.44,1.13,4.91,7.78,7.48,10.08Z"/>
  <g>
    <path class="cls-2" d="M116.18,110.74c-6.63.52-12.28,7.07-12.83,13.49-.95,11.06,12.34,19.27,21.79,13.33,11.94-7.51,3.46-27.8-8.96-26.81Z"/>
    <path class="cls-2" d="M175.54,136.26c10.57,8.99,27.14-1.81,22.75-15.17-2.2-6.69-7-11.07-14.39-9.9-10.73,1.69-17.6,17.22-8.36,25.08Z"/>
    <path class="cls-2" d="M195.02,85.77c-1.2.27-6.25,4.29-8.04,5.33-3.51,2.05-7.27,3.38-10.69,5.8-8.02,5.67-14.52,14.74-18.02,23.87-1.1,2.87-5.53,12.79.96,12.14,3.27-.33,4.76-7.83,5.98-10.55,3.82-8.53,7.99-13,15.62-18.25,4.82-3.33,15.14-7.98,18.09-12.66,2.05-3.26.06-6.57-3.9-5.68Z"/>
    <path class="cls-2" d="M87.98,84.8c.53-1.24.15-3-.83-3.89-2.78-2.55-6.24.87-8.11,2.97-20.89,23.4-17.41,78.28,14.82,90.36,4.8,1.8,15,5.13,17.71-1.22,3.08-7.2-6.87-9.49-11.22-11.51-20.55-9.55-28.11-32.67-24.54-54.11,1.46-8.75,6.95-15.75,12.16-22.6Z"/>
    <path class="cls-2" d="M205.54,159.57c-4.95,2.88-17.28,4.85-15.55,12.59,1.56,6.97,11.86,4.25,16.54,2.66,32.71-11.08,36.45-61.05,19.38-86.71-1.5-2.25-6.22-8.39-9.03-8.15-2.48.21-3.5,2.7-2.9,4.93.31,1.18,4.3,5.59,5.34,7.14,13.97,20.74,8.35,54.65-13.78,67.53Z"/>
    <path class="cls-2" d="M77.36,236.45c-3.55-3.29-7.96,1.49-9.61,4.6-5.1,9.59-7.51,20.87-9.23,31.5-.35,2.17-.66,4.34-.92,6.52-.25,2.08-.84,4.3-.45,6.4.15.8.58,1.58,1.3,1.96,1.11.59,2.82.33,4.07.43.96.08,2.55.37,3.37-.32.16-.13.27-.31.37-.49.62-1.07.97-2.24,1.27-3.42,0-.01,0-.02,0-.03.84-11.65,3.73-23.06,7.72-34.14,1.27-3.53,5.77-9.6,2.1-13Z"/>
    <path class="cls-2" d="M235.62,229.93c-1.87-2.59-7.38-10.48-10.15-11.24-2.58-.71-5.83.57-5.68,3.51.1,1.92,5.22,7.68,6.65,9.77,7.15,10.45,13.22,21.69,17.56,33.6,1.26,3.47,2.38,6.99,3.32,10.56.48,1.8.95,3.62,1.3,5.45.3,1.59.69,3,2.13,3.94,2.22,1.45,6.22.6,7.55-1.74,1.62-2.86-.4-7.36-1.18-10.22-.82-2.98-1.76-5.93-2.81-8.84-2.12-5.87-4.69-11.58-7.62-17.1-3.27-6.15-6.99-12.06-11.07-17.71Z"/>
    <path class="cls-2" d="M298.34,275.23c.58.93,2.15.86,3.09.53,1.35-.47,2.5-1.39,3.45-2.46,2.23-2.53,4.04-5.82,5.08-9.02,1.02-3.12,1.75-6.25,2.33-9.38.58-3.13,1.02-6.26,1.42-9.48.13-.89.18-1.78.23-2.67.05-.98.06-1.56.06-2.27.01-1.37-.01-2.74-.07-4.1-.1-2.72-.32-5.43-.58-8.13-.52-5.4-1.22-10.76-1.58-16.18-.3-4.52-.79-9.03-.9-13.56-.13-5.16-.02-10.31-.77-15.41-.39-2.65-.83-5.49-.6-8.11.57-6.71,0-13.06-1.72-19.17-1.13-4-1.05-7.97-.33-12.06.26-1.46.5-2.96.56-4.46.21-5.92.35-11.85.5-17.77.03-1.06.14-2.17,0-3.19-.82-6-.68-11.95-.38-18.08.51-10.47.37-21.01.56-31.52.03-1.63.34-3.25.52-4.88.18-1.64.49-3.27.52-4.91l.14-8.42.04-4.21c0-.16,0-.4,0-.6v-.62s-.04-1.25-.04-1.25c-.06-.83-.11-1.66-.2-2.48-.73-6.61-3.09-13.06-6.87-18.44-1.46-2.1-3.07-4.08-4.91-5.77-1.83-1.69-3.88-3.09-6.09-4-3.23-1.31-6.19-2.82-9.28-4.24-3.07-1.43-6.24-2.83-9.6-3.79-2.46-.72-5.03-1.3-7.62-1.59-2.31-.29-4.62-.52-6.93-.54-5.01-.05-10.05-.21-15.07-.04-3.97.07-7.94.32-11.87.97-.44.07-.89.12-1.35.15-1.48-.01-2.99-.11-4.47-.13-7.15-.1-14.3-.33-21.45-.34-2.3,0-4.61.05-6.91.12-1.31.03-2.61.07-3.92.11-2.48.06-4.95.09-7.42.02-4.65-.14-9.25-.42-13.88-.23-2.35.03-4.71.17-7.07.48-5.32.71-10.72,1.12-16.1,1.64-.17.02-.34.02-.52.03-.23,0-.45.01-.68.03-.66.01-1.32.01-1.98.05-.15,0-.3.01-.45.02-5.45,0-10.71-1.07-16.09-1.48-4.5-.34-8.98-1.05-13.31-1.93C106.8.67,97.64-.1,88.28.24c-1.92.04-3.85.12-5.79.25-.71.05-1.42.1-2.13.13-.63,0-1.25-.02-1.86-.07-4.09-.33-8.16-.7-12.19-.5-3.03.03-6.03.31-9.02,1.13-.09.03-.2.04-.3.05-.32-.01-.63-.02-.94,0-2.16.07-4.32.08-6.48.06l-1.62-.02h-.82s-.97,0-.97,0c-.59,0-1.18.02-1.77.05h-.17c-1.29,0-2.58.09-3.87.2-5.14.5-10.24,2.01-14.69,4.61-4.64,2.71-8.85,6.02-12.51,9.87-3.66,3.85-6.77,8.27-9.05,13.15-1,2.11-1.61,4.44-2.4,6.57-.16.45-.32.9-.47,1.36-.14.46-.26.92-.38,1.39-.26.93-.41,1.88-.57,2.82-.14.95-.22,1.91-.28,2.86-.01.48-.02.95-.03,1.43v.7s.02.59.02.59c.13,3.16.5,6.27,1.05,9.26.8,4.35.72,8.39.35,12.46-.45,5-.83,9.85-.23,14.91.34,2.86.51,6.04.09,8.83-.01,1.7-.04,3.4.02,5.1.11,3.02.86,5.68,1.63,8.54.13.49.14,1.01.14,1.51.02,1.74.04,3.48.06,5.22,0,.32,0,.64.11.94.09.26.24.5.39.73,3.87,6.09,4.33,14.62,2.88,21.5-1.11,5.28-1.32,10.64-1.8,15.95-.13.64-.26,1.27-.4,1.9-.29,1.32-.56,2.64-.8,3.97-.05.58-.11,1.15-.16,1.73-1.31,13.79-2.09,27.52-1.97,41.46.09,9.74.41,19.48.48,29.23.03,3.87.13,7.74.05,11.6-.02,2.17.04,4.43.22,6.65.19,2.23.47,4.46.82,6.73.35,2.11.97,4.33,1.88,6.43,1.43,3.29,3.64,6.07,6.1,8.65.74.77,2.35,2.38,3.41,1.18.27-.3.42-.69.54-1.08.52-1.58.64-3.21.92-4.83.1-.58.22-1.15.38-1.71,3.66-16.54,20.67-45.07,30.09-55.29,4.77-5.18,11.56-8.45,13.23-15.74,3.6-15.79-3.64-29.98-5.59-44.95-1.76-13.56.66-33.28,5.39-46.16,1.36-3.69,5.66-10.93,6.09-13.97,1.34-9.62-10.09-19.89-3.45-29.75,3.39-5.03,6.53-1.58,10.38-.28,5.52,1.87,10.53-.54,16.07-.9,9.37-.62,16.67,2.05,24.07,7.56,8.43.03,16.99-.66,25.39.01,3.98.32,9.87,2.26,13.33,2.18,3.51-.08,8.65-1.86,12.53-2.18,8.58-.69,17.23.03,25.83-.01,7.27-5.81,14.72-8.2,24.07-7.56,3.72.25,8.48,1.82,12.04,1.81,4.96-.01,11.98-7.77,15.14.87,4.34,11.84-6.77,19.69-3.92,29.77.5,1.77,1.67,2.87,2.32,4.37,8.28,19.09,11.67,40.67,7.41,61.23-1.26,6.06-5.26,16.87-5.09,22.46.22,7.2,11.22,11.06,16.41,14.79,12.78,9.16,25.5,25.24,32.37,39.38,1.46,3,4.23,8.76,1.08,11.37-1.81,1.5-4.02.56-3.52,3.54.39,2.3,4.35,8.42,5.54,11.41,2.19,5.49,3.57,11.25,4.74,17.03.04.19.1.35.19.49Z"/>
    <path class="cls-2" d="M113.9,90.49c-2.92-1.71-6.37-5.74-9.8-4.72-.91.27-2,1.91-2.1,2.84-.51,5.17,12.82,11.43,16.72,13.99,7.36,4.83,13.16,9.56,17.09,17.67,1.51,3.11,3.36,12.27,7,12.65,6.29.65,1.58-10.46.4-13.36-6.77-16.57-14.97-20.65-29.32-29.06Z"/>
    <path class="cls-2" d="M149.05,142.31c-2.31,2.23-6.07,10.04-6.81,13.25-2.13,9.27,2.89,16.13,7.21,23.72.64.77,2.65.5,3.23-.13,1.04-2.85,3.06-5.18,4.37-7.88,4.1-8.49,4.34-13.84,0-22.31-1.24-2.42-4.86-9.68-8-6.64Z"/>
  </g>
</svg>