<?xml version="1.0" encoding="UTF-8"?>
<svg id="Layer_11" data-name="Layer 11" xmlns="http://www.w3.org/2000/svg" viewBox="0 0 270.94 240.54">
  <defs>
    <style>
      .cls-1 {
        fill: #737438;
      }
    </style>
  </defs>
  <path class="cls-1" d="M255.59,80.75c-1.36-13.64-11.8-20.27-19.11-29.57-3.69-4.69-5.64-10.7-9.5-15.45C208.25,12.68,158.01-7.46,129.48,2.71c-4.28,1.53-13.71,6.79-8.08,12.03.49.46,4.41,1.82,2.76,2.73-2.19,1.22-6.88.61-9.37.98-20.2,2.99-48.9,14.74-64.56,27.94-7.87,6.64-13.49,15.88,2.72,11.55,1.65,1.62-8.13,10.06-9.44,11.55C25.81,89.63,10.01,124.33,3.23,150.29c-1.64,6.29-6.83,22.56.88,26.16,2.4,1.12,5.35.08,6.14,3.61.12.54-.39,1.67-.51,2.23-.19.88-.37,1.76-.55,2.64-.33,1.69-.63,3.39-.89,5.09-.52,3.4-.91,6.81-1.18,10.24-.52,6.69-.42,13.35-.32,20.04.06,3.88.8,7.83,2.7,11.25,3.2,5.75,9.77,8.27,16.04,8.84,2.67.25,5.36.15,8.02-.12,2.59-.26,5.15-.34,7.76-.45,5.48-.23,10.97-.46,16.38-1.37,9-1.51,17.74-.08,26.77.17,4.72.13,9.48.47,14.18-.19,2.53-.36,5.06-1.39,5.75-4.11.38-1.51.16-3.04-.33-4.53-10.26-18.96-15.02-39.77-5.58-60.3,16-34.81,61.54-25.58,91.03-17.19,8.83,2.51,20.62,8.95,28.49,10.51.79.16,3.87,0,4.09-.24,1.79-1.84-4.1-6.93-5.44-8.2-9.02-8.55-34.02-24.51-37.58-34.84-5.7-16.58,17.9-26.55,30.5-29.19,2.11.24,8.72,6.98,12.04,7.95,3.55,1.03,7.3-.15,10.87.69,2.88,1.9-2.05,21.27,10.74,15.65,9.82-4.31,13.3-24.35,12.35-33.88ZM218.94,51.35c6.12-1.16,8.7,6.75,3.78,9.9-7.59,4.87-11.63-8.42-3.78-9.9ZM168.28,44.54c.99-3.02,2.36-4.79,5.62-5.33,4.16-.7,8.23.56,11.92,2.4,5.29,2.63,8.31,4.53,6,10.65-5.55,14.73-29.14,9.45-23.53-7.72ZM247.52,97.62c-.63,2.78-4.03,13.22-7.69,9.22.86-4.54,1.91-7.91-.53-12.22-3.61-6.38-8.77-2.1-14.3-3.35-1.88-.42-5.7-4.91-8.26-6.34-10.42-5.81-24.66-4.09-36.12-5.86-3.68-.57-6.47-3.05-4.87-6.98,1.9-4.68,10.47-2.04,14.42-1.96,9.25.2,29.95,1.29,37.41-3.41,2.58-1.63,4.16-4.39,6.52-6.25,12.48,7.56,16.55,23.31,13.43,37.16Z"/>
  <path class="cls-1" d="M267.89,220.94c-19.76-23.03-45.04-36.77-79.38-46.95-20.92-6.2-71.01-19.67-74.09,13.86-1.15,12.5,3.11,24.55,9.28,35.24,2.11,3.66,4.74,7.05,7.94,9.83,3.11,2.71,7.12,5.43,11.26,6.14,1.13.19,2.28.22,3.43.23,7.27.04,14.46-1.07,21.71-1.3,12.6-.36,25.31.09,37.91.43,6.49.17,13.05.47,19.54.04,5.92-.39,11.72-1.31,17.67-1.42,4.05-.08,8.11.05,12.16-.17,3.69-.2,7.54-.49,10.93-2.08,1.18-.55,2.3-1.28,3.15-2.27,3.26-3.82.59-8.08-1.52-11.58Z"/>
</svg>