<?xml version="1.0" encoding="UTF-8"?>
<svg id="Layer_11" data-name="Layer 11" xmlns="http://www.w3.org/2000/svg" viewBox="0 0 311.46 165.16">
  <defs>
    <style>
      .cls-1 {
        fill: #737438;
      }
    </style>
  </defs>
  <path class="cls-1" d="M151.09,74.73c-.48-4.43-1.25-9.48-2.13-13.84-.94-4.61-2.61-8.57-4.28-12.92-.12-1.79,3.75-.61,4.79-.61,1.1,0,1.86-.61,1.59-1.77-.16-.72-3.63-3.79-4.39-4.64-2.61-2.88-5.7-6.57-8.07-9.65-.63-.81-2.66-3.1-.75-3.52,2.01-.44,4.58-.43,6.69-.78.79-.13,4.4-.8,4.78-1.21.46-.49.23-1.27-.32-1.59-.81-.48-3.1-.57-4.19-.85-3.54-.9-12.07-5.33-13.93-8.47-.18-.3-.39-.59-.45-.95l.29-.4c1.85-.15,7,.38,8.22-1.15.48-.6.41-1.24-.28-1.63-.43-.24-2.76-.45-3.54-.63-4.13-.93-6.39-2.93-9.89-4.87-9.1-5.05-23.03-7.51-32.59-2.54-2.91,1.51-5.08,3.96-8.3,5.07-3.22,1.1-6.67.95-9.96,1.68-5.5,1.21-17.87,6.8-19.56,12.57-.83,2.84.62,2.69,2.95,2.6,9.36-.34,18.75-2.62,26.56,3.99,3.87,3.28,5.65,6.76,2.42,11.44-2.21,3.21-9.54,5.79-13.15,7.86-8.03,4.59-13.08,9.52-18.32,17.1-1.52,2.2-3.95,5.76-4.8,8.22-.44,1.27-.2,2.72,1.39,2.79,1.89.08,6.59-4.01,8.54-5.01.73-.37,2.45-1.2,2.31.21-.13,1.34-5.13,6.21-6.33,7.4-2.99,2.98-6.14,5.96-9.29,8.77-2.28,2.03-6.95,5.2-8.48,7.49-.51.77-1.21,1.71-.27,2.46,1.47,1.17,3.68-.85,5.26-.31.4.56-1.08,2.16-1.46,2.59-2.7,3.09-6.49,5.58-9.47,8.42-.89.85-3.84,3.57-2.35,4.78,1.44,1.17,5.35-1.9,3.25,2.02-1.32,2.47-4.44,4.65-6.65,6.38-5.3,4.16-11.66,8.05-16.48,12.69-3.29,3.17-1.8,5.28,2.54,4.28,2.62-.6,5.7-2.45,8.44-2.06,3.52.5.07,3.82-1.08,5.08-5.74,6.29-13.41,12.09-18.68,18.66-4.15,5.17.28,5.42,4.69,5.21,4.5-.21,9.22-1.12,13.72-1.56,7.85-.76,15.74-1.44,23.62-1.91,7.01-.42,12.06,1.04,16.65-5.4,3.66-5.13,6.62-11.2,10.31-16.26.97-1.33,1.43-2.82,2.99-1.17,2.57,2.72,5.1,7.2,7.4,10.31,1.77,2.38,3.61,4.7,5.44,7.03.35.63.69,1.27,1.03,1.91.71,1.37,1.2,2.71,2.41,3.72.15.12.3.24.47.32.71.31,1.65.1,2.41.12.95.03,1.89.05,2.84.05.28,0,.57,0,.84-.07.51-.12,1.09-.52,1.37-.96.43-.66-.23-1.4-.56-1.95-.44-.73-.96-1.38-1.46-2.07-1.92-2.64-3.82-5.29-5.79-7.9-1.7-2.25-7.2-8.42-7.8-10.61-1.09-3.93,1.18-6.68,4.08-8.95,1.23-.96,2.45-1.79,2.26.52-.12,1.42-1.2,2.22-1.02,3.64.07.57.55.92,1.12.96,1.25.08,4.45-3.11,5.82-3.89.7-.4,1.66-1.12,2.11-.06.47,1.12-.33,4.36-.4,5.76-.1,2.25.11,4.88,2.95,2.95.42-.29.64-.96,1.22-.69.6.28,2.1,2.3,2.69,2.88,2.6,2.57,5.38,5.08,8.08,7.55,1.96,1.8,5.32,5.16,8.19,7.2.3.26.59.53.89.79,1.47,1.28,2.82,2.82,4.61,3.67,1.16.55,2.46.6,3.72.55,1.12-.04,4.82.02,2.68-1.89-.64-.57-1.23-1.22-1.84-1.83-1.24-1.24-2.48-2.49-3.7-3.75-3.38-3.83-7.64-7.51-11.08-11.17-2.62-2.78-5.82-5.87-5.71-10.05.05-1.91,3.45-10.99,4.42-13.14,1.58-3.5,1.49.09,1.7,1.42.3,1.91,1.43,3.26,3.34,1.87,1.42-1.04,4.37-5.96,5.33-7.7.57-1.03,2.83-6.25,3.34-6.55.94-.56,1.09.05,1.27.84.25,1.06.07,3.22,1.3,3.73,1.79.73,3.14-1.72,3.87-2.99,2.76-4.81,5.67-11.17,8.05-16.27,2.55-5.48,4.1-8.91,3.88-15.14-.01-.37.25-.87.66-.65.63.33,1.39,2.89,2.94,3.32,3.36.92,2.29-5.09,2.09-6.95ZM48.71,93.21c9.87-7.21,16.85-15.1,23.05-25.58.88-1.49,2.4-5.48,4.09-5.81,2.14-.42.92,2.92.54,3.85-4.11,9.95-13.48,19.54-21.95,25.98-1.32,1.01-3.39,2.73-5.04,2.94-1.54.2-1.51-.32-.69-1.38ZM63.14,109.2c-7.49,7.16-16.39,14.64-25.11,20.21-1.74,1.11-7,4.51-8.78,4.61-1.72.1-1.11-1.43-.32-2.25,1.76-1.81,6.34-4.28,8.65-5.94,7.05-5.07,14.07-11,20.44-16.9,2.84-2.63,7.32-6.57,9.52-9.58.59-.81,1.45-2.55-.32-2.06-1,.28-6.08,4.28-7.48,5.2-4.5,2.97-12.46,8.17-17.45,9.64-.64.19-2.23.75-2.48-.11-.18-.74.5-1.41,1.03-1.86,3.65-3.09,9.74-5.98,13.93-8.82,14.88-10.06,35.76-27.83,33.81-47.81-.11-1.09-.45-2.2-.53-3.29-.03-.53-.18-2.38.47-2.5,1.77-.32,3.01,5.11,3.17,6.33,2.71,20.8-14.54,41.73-28.54,55.12ZM104.08,16.77c-6.41,1.09-6.85-7.94-.77-8.25,5.4-.28,5.67,7.42.77,8.25ZM140.99,41.07c.51.87,1.27,2.12.73,3.09-.75.76-2.64-.5-3.31-1.04-1.88-1.53-3.85-4.06-4.86-6.25-.27-.59-1.58-3.44-.75-3.71.28-.09.65-.03.94.06,1.19.36,6.47,6.53,7.25,7.86ZM126.22,21.27c-.18-.58-.33-1.17.34-1.49.46-.13.88.21,1.25.42,1.27.72,4.71,3.13,5.47,4.25.61.88.99,2.38-.51,2.43-1.65.06-6.04-4.04-6.54-5.62ZM135.12,95.22c-.63.7-1.29,1.49-2.34,1.3-1.61-.3-.57-2.74-.23-3.69,1.92-5.34,3.93-9.59,4.3-15.5.15-2.35-.45-5.69.04-7.77.04-.17.28-.95.32-.98.55-.38,1.05.51,1.23.91,2.74,5.99,1.19,20.78-3.33,25.74ZM144.72,73.22c-.75.11-1.51-1.01-1.79-1.62-1.23-2.66-1.93-7.95-2.82-11.07-.55-1.92-1.95-4.41-1.48-6.44.09-.37.39-.73.78-.79.51-.08,1.14.55,1.44.93,1.85,2.42,4.65,12.82,4.87,15.97.07,1.04.16,2.61-1,3.02Z"/>
  <path class="cls-1" d="M309.8,159.9c-5.26-6.57-12.94-12.37-18.68-18.66-1.15-1.26-4.6-4.59-1.08-5.08,2.75-.39,5.83,1.46,8.44,2.06,4.35,1,5.84-1.11,2.54-4.28-4.83-4.64-11.18-8.53-16.48-12.69-2.2-1.73-5.32-3.91-6.65-6.38-2.1-3.92,1.8-.85,3.25-2.02,1.5-1.21-1.46-3.94-2.35-4.78-2.98-2.84-6.77-5.33-9.47-8.42-.38-.43-1.86-2.03-1.46-2.59,1.57-.54,3.79,1.47,5.26.31.95-.75.25-1.7-.27-2.46-1.53-2.29-6.2-5.47-8.48-7.49-3.16-2.8-6.3-5.79-9.29-8.77-1.2-1.19-6.2-6.06-6.33-7.4-.14-1.41,1.58-.58,2.31-.21,1.95,1,6.65,5.1,8.54,5.01,1.59-.07,1.83-1.51,1.39-2.79-.86-2.46-3.28-6.02-4.8-8.22-5.24-7.59-10.3-12.51-18.32-17.1-3.62-2.07-10.94-4.65-13.15-7.86-3.23-4.69-1.45-8.17,2.42-11.44,7.81-6.62,17.2-4.33,26.56-3.99,2.33.09,3.78.23,2.95-2.6-1.69-5.77-14.06-11.36-19.56-12.57-3.29-.72-6.74-.58-9.96-1.68-3.23-1.11-5.4-3.56-8.3-5.07-9.56-4.97-23.49-2.51-32.59,2.54-3.5,1.94-5.76,3.94-9.89,4.87-.78.18-3.11.38-3.54.63-.69.39-.76,1.04-.28,1.63,1.22,1.53,6.38,1,8.22,1.15l.29.4c-.06.36-.27.65-.45.95-1.85,3.14-10.39,7.58-13.93,8.47-1.09.28-3.38.37-4.19.85-.55.32-.78,1.1-.32,1.59.38.41,3.99,1.08,4.78,1.21,2.11.35,4.67.34,6.69.78,1.91.42-.12,2.71-.75,3.52-2.37,3.07-5.46,6.76-8.07,9.65-.77.85-4.23,3.92-4.39,4.64-.27,1.16.49,1.77,1.59,1.77,1.04,0,4.91-1.18,4.79.61-1.67,4.35-3.35,8.31-4.28,12.92-.89,4.36-1.66,9.42-2.13,13.84-.2,1.86-1.27,7.87,2.09,6.95,1.56-.43,2.32-2.98,2.94-3.32.41-.22.68.28.66.65-.22,6.23,1.33,9.66,3.88,15.14,2.37,5.1,5.28,11.45,8.05,16.27.73,1.27,2.08,3.72,3.87,2.99,1.24-.51,1.05-2.67,1.3-3.73.19-.79.33-1.4,1.27-.84.51.31,2.78,5.53,3.34,6.55.95,1.73,3.9,6.65,5.33,7.7,1.9,1.39,3.04.04,3.34-1.87.21-1.33.12-4.93,1.7-1.42.96,2.14,4.37,11.23,4.42,13.14.11,4.18-3.09,7.27-5.71,10.05-3.45,3.66-7.71,7.33-11.08,11.17-1.68,1.73-3.39,3.44-5.11,5.14-.39.48-.81.9-1.07,1.47-.03.07-.07.16-.03.24.03.06.09.1.15.12.66.31,1.74.09,2.45.09,1.44,0,2.8.12,4.21-.24,1.94-.49,3.4-2.29,4.87-3.58.3-.26.59-.52.89-.79,2.88-2.05,6.23-5.41,8.19-7.2,2.7-2.47,5.48-4.98,8.08-7.55.58-.58,2.09-2.6,2.69-2.88.58-.27.8.4,1.22.69,2.84,1.93,3.05-.7,2.95-2.95-.06-1.41-.87-4.64-.4-5.76.45-1.07,1.41-.34,2.11.06,1.37.78,4.57,3.97,5.82,3.89.57-.04,1.05-.39,1.12-.96.18-1.42-.91-2.22-1.02-3.64-.19-2.31,1.02-1.48,2.26-.52,2.9,2.27,5.17,5.01,4.08,8.95-.6,2.18-6.1,8.36-7.8,10.61-1.97,2.61-3.87,5.26-5.79,7.9-.51.7-1.03,1.36-1.49,2.11-.29.48-.8.99-.81,1.59-.02,1.18,1.72.7,2.4.72,1.16.03,2.31.06,3.47.12.99.05,2.02-.09,2.85-.66,1-.68,1.36-2,1.9-3.04.33-.64.68-1.28,1.03-1.91,1.83-2.33,3.67-4.65,5.44-7.03,2.31-3.11,4.84-7.59,7.4-10.31,1.56-1.65,2.02-.16,2.99,1.17,3.69,5.07,6.65,11.13,10.31,16.26,4.59,6.44,9.64,4.98,16.65,5.4,7.88.47,15.77,1.15,23.62,1.91,4.5.44,9.22,1.35,13.72,1.56,4.41.21,8.83-.04,4.69-5.21ZM170.47,41.07c.78-1.32,6.06-7.49,7.25-7.86.28-.09.66-.15.94-.06.83.28-.48,3.12-.75,3.71-1.01,2.2-2.99,4.73-4.86,6.25-.66.54-2.55,1.81-3.31,1.04-.54-.97.22-2.23.73-3.09ZM168.53,71.6c-.28.61-1.04,1.73-1.79,1.62-1.16-.41-1.07-1.97-1-3.02.22-3.15,3.02-13.55,4.87-15.97.29-.38.92-1.01,1.44-.93.39.06.7.42.78.79.47,2.03-.92,4.52-1.48,6.44-.9,3.12-1.6,8.41-2.82,11.07ZM178.68,96.52c-1.06.2-1.71-.6-2.34-1.3-4.51-4.96-6.07-19.75-3.33-25.74.18-.4.69-1.29,1.23-.91.04.03.28.82.32.98.5,2.08-.1,5.42.04,7.77.37,5.9,2.38,10.16,4.3,15.5.34.95,1.39,3.39-.23,3.69ZM185.23,21.27c-.5,1.58-4.89,5.68-6.54,5.62-1.5-.05-1.12-1.55-.51-2.43.77-1.12,4.21-3.53,5.47-4.25.37-.21.79-.55,1.25-.42.66.32.52.91.34,1.49ZM207.38,16.77c-4.9-.84-4.63-8.53.77-8.25,6.08.31,5.64,9.35-.77,8.25ZM235.6,61.82c1.7.34,3.21,4.32,4.09,5.81,6.2,10.48,13.18,18.37,23.05,25.58.83,1.07.85,1.58-.69,1.38-1.65-.21-3.72-1.94-5.04-2.94-8.47-6.44-17.84-16.03-21.95-25.98-.38-.93-1.6-4.27.54-3.85ZM282.21,134.02c-1.78-.1-7.05-3.5-8.78-4.61-8.73-5.57-17.63-13.06-25.11-20.21-14-13.39-31.25-34.32-28.54-55.12.16-1.23,1.39-6.65,3.17-6.33.64.12.5,1.97.47,2.5-.07,1.09-.42,2.2-.53,3.29-1.95,19.98,18.93,37.76,33.81,47.81,4.19,2.84,10.29,5.73,13.93,8.82.53.45,1.21,1.12,1.03,1.86-.25.86-1.84.3-2.48.11-4.99-1.47-12.95-6.68-17.45-9.64-1.4-.92-6.47-4.93-7.48-5.2-1.77-.49-.91,1.25-.32,2.06,2.2,3.02,6.68,6.95,9.52,9.58,6.37,5.9,13.39,11.83,20.44,16.9,2.31,1.66,6.89,4.13,8.65,5.94.79.81,1.4,2.34-.32,2.25Z"/>
</svg>