<?xml version="1.0" encoding="UTF-8"?>
<svg id="Layer_11" data-name="Layer 11" xmlns="http://www.w3.org/2000/svg" viewBox="0 0 277.07 245.1">
  <defs>
    <style>
      .cls-1 {
        fill: #737438;
      }
    </style>
  </defs>
  <path class="cls-1" d="M276.66,194.93c-.98-10.68-4.7-24.68-8.46-34.77-1.51-4.05-7.21-13.88-7.6-16.92-.57-4.52,1.46-14.21,2.38-19.03,2.8-14.64,8.51-28.69,7.9-43.83-.5-12.25-2.6-25.97-7.25-37.31-1.13-2.75-4.44-8.02-4.76-10.39-1.37-10.01,8.14-17.14,4.45-28.07-3.11-9.22-9.9-1.57-15.4-1.5-4.05.05-8.85-1.54-12.94-1.81-9.06-.6-16.65,2.5-23.62,8.02-7.54-.45-16.06-.92-23.63-.47-4.59.28-10.55,2.29-14.69,2.28-3.89,0-9.81-2.01-14.24-2.28-7.57-.46-16.09.02-23.63.47-7.09-5.47-14.47-8.6-23.62-8.02-4.2.26-9.22,1.98-13.39,1.8-4.88-.21-10.05-6.42-13.96-.62-6.48,9.64,4.81,20.39,3.45,30.19-.32,2.29-2.73,5.48-3.73,7.85-6.73,15.89-10.19,37.85-7.23,54.88,1.56,8.97,6.49,21.15,6.96,29.62.19,3.49-2.07,6.53-4.41,8.85-14.39,14.23-37.1,20.62-54.16,30.96-2.43,2.11-4.28,4.09-3.14,7.6.45,1.41,2.5,1.82,1.17,3.79-.79,1.18-6.1,3.97-7.75,5.18-6.35,4.68-12.61,10.06-14.66,18-2.39,9.29,1.64,19,6.94,26.54,1.86,2,3.77,3.95,5.75,5.83,2.3,2.17,4.58,4.19,7.42,5.63,2.36,1.2,4.89,2.01,7.42,2.78,2.86.87,5.73,1.7,8.64,2.4,5.84,1.4,11.73,2.52,17.75,2.51,8.96-.02,17.87-1.1,26.83-1.08,1.56,0,3.15.02,4.63-.48,2.29-.76,4.02-2.65,5.35-4.66,9.78-14.71,18.23-30.46,24.33-47.06,2.87-7.8,4.34-16.94,7.35-24.29.73-1.77,2.06-4.82,4.1-5.27,3.65-.8,5.53,3.07,6.33,5.96,4.17,15.05-7.91,40.6-14.89,54.13-2.55,4.94-5.3,9.78-8.19,14.55-.48,1.16-1.22,2.53-1.42,3.77-.13.79.06,1.68.67,2.19.38.32.89.47,1.38.57,1.31.27,2.66.3,3.99.32,11.23.2,22.46-.01,33.7-.01,5.35,0,10.7.13,16.05.14,5.37,0,10.73-.11,16.1-.11.33,0,.62.06.87.17,1.56-.15,3.12-.3,4.69-.33,3.54-.08,7.08-.04,10.61-.07,11.54-.1,23.08.17,34.62.26,5.88.05,11.76.05,17.64-.07,4.44-.09,10.09.62,13.43-2.91,1.78-1.88,2.76-4.37,3.39-6.88.93-3.7,1.72-7.57,1.98-11.38.21-3.03-.6-8.92.2-11.38.68-2.1,2.75-1.08,4.46-1.34,5.53-.84,4.17-10.97,3.81-14.9ZM133.62,118.3c-2.12,3.95-7.1,3.37-10.73,2.67-37.7-7.29-43.94-65.33-22.5-91.16.91-1.1,4.26-4.53,5.45-4.8,2.58-.59,4.93.91,4.57,3.65-.22,1.73-7.01,10.04-8.53,12.89-10.63,19.94-2.98,51.42,17.05,62.88,4.73,2.71,19.11,5.62,14.69,13.87ZM148.96,74.36c-6.92,6.02-24.18,4.2-25.57-6.04-.58-4.22,1.42-15.68,6.53-16.6,5.07-.92,16.3,9.76,18.62,14.18,1.51,2.88,3.17,6.08.43,8.46ZM158.33,65.47c-4.33-9.13-10.07-13.36-18.26-18.73-4.04-2.65-11.79-6.17-14.5-10.01-1.53-2.18-1.8-5.68,1.21-6.37,1.01-.23,1.81-.19,2.78.15,1.27.44,5.97,4.33,7.91,5.46,13.82,8.09,21.48,12.33,27.98,28.17,1.24,3.01,6.29,15.53-1.24,13.27-2.43-.73-4.66-9.35-5.89-11.93ZM174.83,123.85c-.78.7-2.33.71-3.13,0-.33-.29-4.02-6.67-4.47-7.56-4.59-9.18-4.28-15.72.95-24.5.66-1.11,3.08-5,4.07-5.3,3.06-.92,5.64,4.36,6.89,6.74,6.54,12.49,2.2,19.53-4.3,30.61ZM189.23,63.38c-1.95,3.67-3.14,9.42-5.07,12.31-2.1,3.15-6.38,2.1-6.3-1.46.07-3.15,3.95-12.26,5.58-15.3,7.82-14.63,15.34-16.46,28.12-24.47,1.43-.9,4.56-3.84,5.7-4.1,2.74-.62,5.2.86,4.75,3.85-.77,5.11-13.53,11.03-17.78,13.88-6.23,4.17-11.42,8.6-14.99,15.31ZM206.52,77.88c-2.5-.23-9.68-2.58-10.44-5.17-2.02-6.83,13.13-20.15,19.42-20.99,3.11-.42,5.67,4.6,6.56,7.06,4.37,12.01-3.46,20.2-15.54,19.1ZM223.64,120.96c-4.43.86-11.61.89-11.61-5.36,0-6.83,12.2-8.99,17.18-12.24,21.21-13.86,26.17-46.5,12.16-67-.97-1.42-4.75-5.54-5.07-6.52-.61-1.89-.23-4.35,1.9-4.83,3.23-.73,5.76,2.29,7.69,4.6,21.6,25.87,15.5,84.06-22.25,91.37Z"/>
</svg>