<?xml version="1.0" encoding="UTF-8"?>
<svg id="Layer_11" data-name="Layer 11" xmlns="http://www.w3.org/2000/svg" viewBox="0 0 314.01 287.23">
  <defs>
    <style>
      .cls-1 {
        fill: #737438;
      }
    </style>
  </defs>
  <path class="cls-1" d="M231.09,147.24c-4.98,3.25-17.18,5.42-17.18,12.24,0,6.25,7.18,6.22,11.61,5.36,37.75-7.31,43.86-65.49,22.25-91.37-1.93-2.31-4.46-5.33-7.69-4.6-2.14.49-2.51,2.94-1.9,4.83.31.98,4.09,5.09,5.07,6.52,14.01,20.5,9.05,53.14-12.16,67Z"/>
  <path class="cls-1" d="M217.38,95.61c-6.29.85-21.44,14.17-19.42,20.99.77,2.59,7.94,4.94,10.44,5.17,12.08,1.1,19.91-7.09,15.54-19.1-.9-2.46-3.45-7.48-6.56-7.06Z"/>
  <path class="cls-1" d="M112.29,72.53c.35-2.74-1.99-4.25-4.57-3.65-1.18.27-4.54,3.7-5.45,4.8-21.44,25.83-15.2,83.87,22.5,91.16,3.63.7,8.62,1.28,10.73-2.67,4.42-8.26-9.96-11.17-14.69-13.87-20.03-11.46-27.68-42.94-17.05-62.88,1.52-2.85,8.31-11.16,8.53-12.89Z"/>
  <path class="cls-1" d="M219.14,74.23c-1.15.26-4.28,3.21-5.7,4.1-12.77,8.02-20.3,9.84-28.12,24.47-1.63,3.04-5.51,12.16-5.58,15.3-.08,3.56,4.2,4.61,6.3,1.46,1.93-2.9,3.12-8.65,5.07-12.31,3.57-6.72,8.76-11.14,14.99-15.31,4.25-2.85,17.01-8.76,17.78-13.88.45-2.98-2.01-4.47-4.75-3.85Z"/>
  <path class="cls-1" d="M313.94,236.38c-.1-2.72-.32-5.43-.58-8.13-.52-5.4-1.22-10.76-1.58-16.18-.3-4.52-.79-9.03-.9-13.56-.13-5.16-.02-10.31-.77-15.41-.39-2.65-.83-5.49-.6-8.11.57-6.71,0-13.06-1.72-19.17-1.13-4-1.05-7.97-.33-12.06.26-1.46.5-2.96.56-4.46.21-5.92.35-11.84.5-17.77.03-1.06.14-2.17,0-3.19-.82-6-.68-11.95-.38-18.08.51-10.47.37-21.01.56-31.52.03-1.63.34-3.25.52-4.88.18-1.64.49-3.27.52-4.91l.14-8.42.04-4.21c0-.16,0-.4,0-.6v-.62s-.04-1.24-.04-1.24c-.06-.83-.11-1.66-.2-2.48-.73-6.61-3.09-13.06-6.87-18.43-1.46-2.1-3.07-4.08-4.91-5.77-1.83-1.69-3.88-3.09-6.09-4-3.23-1.31-6.19-2.82-9.28-4.24-3.07-1.43-6.24-2.83-9.6-3.79-2.46-.72-5.03-1.3-7.62-1.6-2.31-.29-4.62-.52-6.93-.54-5.01-.04-10.05-.21-15.07-.04-3.97.07-7.94.32-11.87.97-.44.07-.89.12-1.35.15-1.48-.01-2.99-.11-4.47-.13-7.15-.1-14.3-.33-21.45-.34-2.3,0-4.61.05-6.91.12-1.31.03-2.61.07-3.92.11-2.48.06-4.95.09-7.42.02-4.65-.14-9.26-.42-13.88-.23-2.35.03-4.71.17-7.07.48-5.32.71-10.72,1.12-16.1,1.64-.17.02-.34.02-.52.03-.23,0-.45.01-.68.03-.66.01-1.32.01-1.98.05-.15,0-.3.01-.45.02-5.45,0-10.71-1.07-16.09-1.48-4.5-.34-8.98-1.05-13.31-1.93C106.8.67,97.64-.1,88.28.24c-1.92.04-3.85.12-5.79.25-.71.05-1.42.1-2.13.13-.63,0-1.25-.02-1.86-.07-4.09-.33-8.16-.7-12.19-.5-3.03.03-6.03.31-9.02,1.13-.09.03-.2.04-.3.06-.32-.01-.63-.02-.94,0-2.16.07-4.32.08-6.48.06l-1.62-.02h-.82s-.97,0-.97,0c-.59,0-1.18.02-1.77.05h-.17c-1.29,0-2.58.09-3.87.2-5.14.5-10.24,2.01-14.69,4.61-4.64,2.71-8.85,6.02-12.51,9.87-3.66,3.85-6.77,8.27-9.05,13.15-1,2.11-1.61,4.44-2.4,6.57-.16.45-.32.9-.47,1.36-.14.46-.26.92-.38,1.39-.26.93-.41,1.88-.57,2.82-.14.95-.22,1.91-.28,2.86-.01.48-.02.95-.03,1.43v.7s.02.59.02.59c.13,3.16.5,6.27,1.05,9.26.8,4.35.72,8.39.35,12.46-.45,5-.83,9.85-.23,14.91.34,2.86.51,6.04.09,8.83-.01,1.7-.04,3.4.02,5.1.11,3.02.86,5.68,1.63,8.54.13.49.14,1.01.14,1.51.02,1.74.04,3.48.06,5.22,0,.32,0,.64.11.94.09.26.24.5.39.73,3.87,6.09,4.33,14.62,2.88,21.5-1.11,5.28-1.32,10.64-1.8,15.95-.13.64-.26,1.27-.4,1.9-.29,1.32-.56,2.64-.8,3.97-.05.58-.11,1.15-.16,1.73-1.31,13.79-2.09,27.52-1.97,41.46.09,9.74.41,19.48.48,29.23.01,1.4.04,2.75-.02,4.15-.04.9.18,1.93.96,2.38,2.23,1.29,5.32-3.36,6.55-4.58,2.46-2.44,5.08-4.73,7.87-6.79,1.64-1.21,6.95-4,7.75-5.18,1.33-1.97-.72-2.39-1.17-3.79-1.14-3.52.71-5.5,3.14-7.6,17.06-10.34,39.77-16.73,54.16-30.96,2.35-2.32,4.6-5.36,4.41-8.85-.46-8.48-5.4-20.65-6.96-29.62-2.96-17.04.5-39,7.23-54.88,1.01-2.38,3.42-5.56,3.73-7.85,1.36-9.8-9.94-20.56-3.45-30.19,3.9-5.8,9.08.4,13.96.62,4.16.18,9.19-1.53,13.39-1.8,9.16-.58,16.53,2.55,23.62,8.02,7.54-.45,16.06-.92,23.63-.47,4.43.27,10.36,2.28,14.24,2.28,4.13,0,10.1-2,14.69-2.28,7.57-.46,16.09.02,23.63.47,6.97-5.52,14.56-8.62,23.62-8.02,4.09.27,8.88,1.86,12.94,1.81,5.5-.07,12.29-7.72,15.4,1.5,3.69,10.93-5.82,18.06-4.45,28.07.32,2.37,3.63,7.64,4.76,10.39,4.65,11.35,6.76,25.07,7.25,37.31.61,15.14-5.1,29.2-7.9,43.83-.92,4.83-2.95,14.51-2.38,19.03.38,3.04,6.09,12.87,7.6,16.92,3.76,10.09,7.48,24.09,8.46,34.77.36,3.94,1.72,14.07-3.81,14.9-1.71.26-3.77-.77-4.46,1.34-.8,2.47,0,8.36-.2,11.38-.22,3.25-.84,6.46-1.61,9.62-.53,2.17-3.71,6.62-1.63,8.63.98.94,2.42,1.15,3.77,1.28,6.3.62,12.78.53,18.8-1.42,9.22-2.99,17.57-10.96,20.57-20.27,1.02-3.12,1.75-6.25,2.33-9.38.58-3.13,1.02-6.26,1.42-9.48.13-.89.18-1.78.23-2.67.05-.98.06-1.56.06-2.27.01-1.37-.01-2.74-.07-4.1Z"/>
  <path class="cls-1" d="M135.46,212.1c-.8-2.89-2.69-6.76-6.33-5.96-2.04.45-3.38,3.5-4.1,5.27-3.01,7.35-4.48,16.49-7.35,24.29-3.16,8.6-6.96,16.95-11.24,25.05-4.3,8.14-10.4,15.68-14.17,24.01-.11.25-.23.54-.13.8.08.23.29.38.51.49,2.81,1.48,8.32,1.23,11.4,1.05,4.6-.26,6.34-3.09,8.53-6.63,2.86-4.63,5.51-9.4,8-14.23,6.98-13.53,19.07-39.08,14.89-54.13Z"/>
  <path class="cls-1" d="M125.27,112.2c1.4,10.25,18.65,12.06,25.57,6.04,2.74-2.39,1.09-5.58-.43-8.46-2.33-4.42-13.55-15.1-18.62-14.18-5.11.93-7.1,12.39-6.53,16.6Z"/>
  <path class="cls-1" d="M174.13,130.38c-.99.3-3.41,4.19-4.07,5.3-5.22,8.78-5.54,15.31-.95,24.5.45.89,4.14,7.27,4.47,7.56.8.71,2.35.7,3.13,0,6.51-11.08,10.84-18.12,4.3-30.61-1.25-2.38-3.83-7.66-6.89-6.74Z"/>
  <path class="cls-1" d="M139.36,79.84c-1.94-1.13-6.63-5.02-7.91-5.46-.98-.34-1.78-.38-2.78-.15-3.01.69-2.74,4.19-1.21,6.37,2.7,3.85,10.45,7.36,14.5,10.01,8.19,5.38,13.93,9.6,18.26,18.73,1.23,2.59,3.46,11.2,5.89,11.93,7.52,2.26,2.47-10.25,1.24-13.27-6.5-15.85-14.16-20.08-27.98-28.17Z"/>
</svg>