<?xml version="1.0" encoding="UTF-8"?>
<svg id="Layer_11" data-name="Layer 11" xmlns="http://www.w3.org/2000/svg" viewBox="0 0 314.01 287.41">
  <defs>
    <style>
      .cls-1 {
        fill: #737438;
      }
    </style>
  </defs>
  <path class="cls-1" d="M194.62,99.45c-.47-1.01-1.43-2.99-2.62-2.76-.59.11-1.67.82-2.22,1.21,0,0-.01,0-.02.01l-13.57,11.88s-.05.05-.06.08c-.96,2.09,3.56,6.87,5.34,7.83,8.57,4.64,15.65-3.53,14.86-11.88-.17-1.79-.95-4.73-1.71-6.37Z"/>
  <path class="cls-1" d="M204.66,73.7c-1.09,0-2.36.35-3.87,1.07-2.84,1.35-5.89,3.83-8.83,6.22-1.57,1.27-3.05,2.48-4.35,3.38-4.74,3.31-10.02,6.78-14.49,9.52-4.88,2.99-8.33,4.95-11.8,4.95-2.46,0-5.2-.92-8.89-2.99-4.33-2.43-10.01-6.06-16.88-10.81-1.67-1.15-3.38-2.53-5.19-3.98-2.48-1.99-5.04-4.04-7.62-5.59-1.52-.91-3.15-1.76-4.79-1.76-.41,0-.8.05-1.17.16-2.2.62-2.71,1.69-1.7,3.6.66,1.25,1.56,2.39,2.46,3.48,1.52,1.83,3.27,3.46,5.03,5.05,6.73,6.07,16.64,13.47,24.08,18.88,11.29,8.22,17.26,8.26,28.6.17,7.39-5.27,16.7-12.38,23.56-18.31,1.89-1.63,3.59-3.48,5.1-5.47.77-1.02,1.49-2.08,2.16-3.18.39-.63.92-1.21,1.23-1.89.79-1.77-1.15-2.52-2.64-2.52Z"/>
  <path class="cls-1" d="M161.12,149.67c.07,0,.19,0,.26,0,.23-.01.48-.06.73-.13,2.33-.66,3.48-2.57,4.24-3.84l.12-.2c2.75-4.54,4.39-12.04,3.9-17.84-.56-6.58-4.14-10.67-9.35-10.67-.77,0-1.58.09-2.41.28-3.26.73-5.54,4.82-6.08,6.57-1.71,5.55-.15,15,2.31,20.02,1.9,3.86,4.01,5.81,6.28,5.81Z"/>
  <path class="cls-1" d="M139.59,190.02c-6.05-10.59-17.2-16.67-30.59-16.67-9.53,0-13.57,1.12-21.55,6.55-2.64,1.8-3.86,4.8-3.04,7.48,1.53,4.96,6.78,3.82,10.33,2.27,1.31-.57,2.55-1.11,3.35-1.37,4.14-1.32,4.58-.96,7.52-.96,6.18,0,11,2.86,16.13,9.56,10.17,13.28,5.39,38.66-.3,52.47-2.45,5.95-5.34,11.72-8.62,17.25-1.44,2.43-2.95,4.81-4.53,7.15-1.25,1.86-2.64,3.63-3.76,5.58-.53.92-1.05,1.86-1.54,2.8-.68,1.31-1.29,3.38.35,4.27.57.31,1.25.38,1.9.39,4.1.05,15.53.44,16.5.49,2.19.11,4.39.14,6.58.12,2.74-.02,5.22-.35,7.22-2.41,2.21-2.26,2.76-5.16,3.58-8.11.93-3.36,1.79-6.73,2.58-10.13.78-3.32,1.49-6.65,2.13-9.99,3.19-16.58,6.88-47.29-4.24-66.75Z"/>
  <path class="cls-1" d="M313.94,236.38c-.1-2.73-.32-5.43-.58-8.13-.52-5.4-1.22-10.76-1.58-16.18-.3-4.52-.79-9.03-.9-13.56-.13-5.16-.02-10.31-.77-15.41-.39-2.65-.83-5.49-.6-8.11.57-6.71,0-13.06-1.72-19.17-1.13-4-1.05-7.97-.33-12.06.26-1.46.5-2.96.56-4.46.21-5.92.35-11.85.5-17.77.03-1.06.14-2.17,0-3.19-.82-6-.68-11.95-.38-18.08.51-10.47.37-21.01.56-31.52.03-1.63.34-3.25.52-4.88.18-1.64.49-3.27.52-4.91l.14-8.42.04-4.21c0-.16,0-.4,0-.6v-.62s-.04-1.24-.04-1.24c-.06-.83-.11-1.66-.2-2.48-.73-6.61-3.09-13.06-6.87-18.44-1.46-2.1-3.07-4.08-4.91-5.76-1.83-1.69-3.88-3.09-6.09-4-3.23-1.31-6.19-2.82-9.28-4.24-3.07-1.43-6.24-2.83-9.6-3.79-2.46-.72-5.03-1.3-7.62-1.59-2.31-.29-4.62-.52-6.93-.54-5.01-.04-10.05-.21-15.07-.04-3.97.07-7.94.32-11.87.97-.44.07-.89.12-1.35.15-1.48-.01-2.99-.11-4.47-.13-7.15-.1-14.3-.33-21.45-.34-2.3,0-4.61.05-6.91.12-1.31.03-2.61.07-3.92.11-2.48.06-4.95.09-7.42.02-4.65-.14-9.25-.42-13.88-.23-2.35.03-4.71.17-7.08.48-5.32.71-10.72,1.12-16.1,1.64-.17.02-.34.02-.52.03-.23,0-.45.01-.68.03-.66.01-1.32.01-1.98.05-.15,0-.3.01-.45.02-5.45,0-10.71-1.07-16.09-1.48-4.5-.34-8.98-1.05-13.31-1.93C106.8.67,97.64-.1,88.28.24c-1.92.04-3.85.12-5.79.25-.71.05-1.42.1-2.13.13-.62,0-1.25-.02-1.86-.07-4.09-.33-8.16-.7-12.19-.5-3.02.03-6.03.31-9.02,1.13-.09.03-.2.04-.3.06-.32-.01-.63-.02-.94,0-2.16.07-4.32.08-6.48.06l-1.62-.02h-.82s-.97,0-.97,0c-.59,0-1.18.02-1.77.05h-.17c-1.29,0-2.58.09-3.87.2-5.14.5-10.24,2.01-14.69,4.61-4.64,2.71-8.85,6.02-12.51,9.87-3.66,3.85-6.77,8.27-9.05,13.15-1,2.11-1.61,4.44-2.4,6.57-.16.45-.32.9-.47,1.36-.14.46-.26.92-.38,1.39-.26.93-.41,1.88-.57,2.82-.14.95-.22,1.91-.28,2.86-.01.48-.02.95-.03,1.43v.7s.02.59.02.59c.13,3.16.5,6.27,1.05,9.26.8,4.35.72,8.39.35,12.46-.45,5-.83,9.85-.23,14.91.34,2.86.51,6.04.09,8.83-.01,1.7-.04,3.4.02,5.1.11,3.02.86,5.68,1.63,8.54.13.49.14,1.01.14,1.51.02,1.74.04,3.48.06,5.22,0,.32,0,.64.11.94.09.26.24.5.39.73,3.87,6.09,4.33,14.62,2.88,21.5-1.11,5.28-1.32,10.64-1.8,15.95-.13.64-.26,1.27-.4,1.9-.29,1.32-.56,2.64-.8,3.97-.05.58-.11,1.15-.16,1.73-1.31,13.79-2.09,27.52-1.97,41.46.09,9.74.41,19.48.48,29.23.03,3.87.13,7.74.05,11.6-.02,2.17.04,4.43.22,6.65.19,2.23.47,4.46.82,6.73.35,2.11.97,4.33,1.88,6.43.91,2.1,2.13,4.08,3.52,5.74,2.01,2.39,4.18,4.64,6.51,6.71,1.15,1.02,2.33,2,3.55,2.94,1.37,1.05,2.85,2.51,4.73,1.82.84-.31,1.33-.9,1.8-1.63.88-1.38,1.51-2.91,2.08-4.44.29-.77.55-1.56.84-2.33.31-.81.7-1.72.09-2.5-.39-.49-.99-.5-1.56-.38-1.46.3-2.75,1.3-4.26,1.4-5.1.34-5.57-4.71-4.64-8.5,2.68-10.92,21.7-33.95,29.59-43.15,4.92-5.73,16.04-14.39,18.59-20.53,1.62-3.89-2.51-4.53-5-6.69-4.9-4.24-2.99-9.31,2.56-11.49,6.43-2.52,10.93-1.94,17.39-6.43,7.4-5.14,7.43-14.72,9.17-22.73.55-2.53,3.6-9.89,3.12-11.58-.2-.71-1-1.14-1.17-2.24-1.05-6.74,4.91-14.4,7.23-20.43l-.08-.54c-4.05-2.33-1.34-9.06.18-12.5,2.27-5.11,4.65-7.84,4.53-14.11-.22-11.06-7.89-16.82-12.52-25.34-2.19-4.02-8.34-19.07-8.71-23.19-.67-7.53,4.27-10.75,11.17-8.2,9.45,3.49,14.59,6.51,21.37,13.93,5.66,6.18,12.24,18.44,18.94,22.31,5.31,3.06,15.54-1.09,21.5-1.84,10.21-1.29,16.58,2.07,25.95,2.88,3.68.32,5.55.24,8.45-2.09,6.51-5.21,9.19-11.51,14.26-17.64,2.63-3.18,8.86-10.05,12.19-12.06,2.1-1.27,4.27-1.59,6.39-2.55,4.49-2.02,9.9-6.26,14.6-2.43,3.94,3.21,2.67,8.58,1.27,12.78-1.48,4.44-3.87,10.33-5.76,14.65-4.91,11.21-14.51,16.75-13.83,30.87.39,8.1,5.46,11.55,6.37,18.3.41,3.03-.23,4.68-1.95,7.01-.05.07-.06.16-.03.23,2.71,5.73,8.1,13.38,7.1,19.93-.17,1.1-.96,1.53-1.17,2.24-.57,1.99,2.52,7.77,3.32,10.1,1.22,3.57,1.99,7.29,3.19,10.84,2.08,6.15,5.78,12.66,6.9,19.04,1.46,8.28-2.14,15.85-1.06,24.03,1.15,8.79,10.4,17.88,9.22,26.87-.61,4.64-4.81,3.65-5.07,6.45.58,4.73,2.21,9.68,2.55,14.42.46,6.46-.32,12.97-1.45,19.32-.43,2.42-.92,4.82-1.45,7.22-.52,2.34-1.47,4.73-.65,7.12.51,1.5,1.49,2.05,3.01,2.27,1.51.21,3.06.19,4.58.29,1.47.1,2.95.19,4.41.38.16-.06.32-.11.48-.17.82.02,1.62.17,2.44.23,1.36.11,2.77-.34,4.15-.42,1.59-.09,3.18-.02,4.76.2.29.04.59.09.88.05.25-.04.49-.14.73-.2,1.17-.31,2.33.16,3.49.25,1.25.1,2.54.09,3.8.09.05,0,.09,0,.14,0,.8,0,1.6-.01,2.4-.06,2.55-.04,5.13-.31,7.75-.96,1.11-.25,2.19-.62,3.31-1.01,1.08-.44,2.2-.9,3.27-1.49,2.17-1.15,4.29-2.65,6.24-4.59,2.01-1.98,3.96-4.14,5.61-6.46,1.66-2.32,3-4.81,3.8-7.29,1.02-3.12,1.75-6.25,2.33-9.38.58-3.13,1.02-6.26,1.42-9.48.13-.89.18-1.78.23-2.67.05-.98.06-1.56.06-2.27.01-1.37-.01-2.74-.07-4.1Z"/>
  <path class="cls-1" d="M130.86,96.86c-.43-.25-.93-.34-1.41-.19-.68.22-2.33,3.81-2.6,4.66-1.52,4.78-1.37,9.19,1.39,13.47,2.94,4.56,8.17,5.48,12.8,2.85,1.76-1,5.91-5.73,4.96-7.77-.02-.03-.04-.06-.07-.08l-15.08-12.93Z"/>
</svg>