<?xml version="1.0" encoding="UTF-8"?>
<svg id="Fledgling" xmlns="http://www.w3.org/2000/svg" viewBox="0 0 70.8 57.83">
  <defs>
    <style>
      .cls-1 {
        fill: #31180f;
      }

      .cls-2 {
        fill: #b78f2e;
      }

      .cls-3 {
        fill: #f5bf19;
      }

      .cls-4 {
        fill: #974322;
      }

      .cls-5 {
        fill: #642c17;
      }

      .cls-6 {
        fill: #c15629;
      }
    </style>
  </defs>
  <path class="cls-1" d="M69.26,6.48c-1.81.01-3.6.21-5.41.32-1.52.09-2.99.11-4.38-.59-1.95-.97-3.07-3.38-5.42-3.46-.75-.03-1.49.07-2.24.06-.86-.02-1.73-.2-2.57-.33-1.65-.25-3.35-.52-5.02-.27h-.02c-1.2,1.47-1.94,3.46-2.27,5.14-.47,2.41.16,4.65,2.06,6.26,2.23,1.88,5.03,2.63,7.8,3.3,1.34.33,2.72.63,3.98,1.17,1.1.47,2.09,1.14,3.01,1.89-.1-1.93-.29-3.87-.3-5.8-.01-1.81,2.78-1.81,2.81-.02,1.22-1.73,3.19-2.85,4.92-4.15,1.38-1.04,2.44-2.13,3.07-3.53h-.03Z"/>
  <path class="cls-5" d="M56.99,19.8c-2.48-1.62-5.55-1.88-8.33-2.74-2.59-.8-5.44-2.19-6.9-4.6-1.31-2.17-1.06-4.85-.24-7.15.34-.95.79-1.91,1.36-2.8-.87.24-1.72.56-2.56.93-1.81,1.43-3.68,2.76-5.72,3.78-1.52,1.6-2.73,3.46-4.19,5.12-1.96,2.22-4.63,3.48-6.81,5.43-2.23,1.98-3.91,4.74-5.48,7.25-1.31,2.09-2.5,4.27-3.36,6.59.17.36.2.79-.06,1.24-1.3,2.3-2.01,4.92-3.53,7.1-1.47,2.11-3.48,3.68-5.39,5.37-.85.75-1.65,1.55-2.4,2.39-.64.72-1.35,1.56-1.59,2.51-.42,1.7,1.53,2.97,2.59,3.97.59.56,1.14,1.52,1.9,1.85.4.18.95-.14,1.42-.42,2.04-1.21,3.65-3.14,5.16-4.92,1.47-1.73,3.24-3.74,5.6-4.13,2.28-.38,4.64.42,6.85.9,2.45.54,4.82.95,7.34.81,2.01-.11,4.01-.31,6.02-.41.16-.17.35-.31.62-.39,2.58-.76,5.18-1.58,7.51-2.96,4.47-2.65,6.52-7.36,8.91-11.75,1.46-2.67,2.76-5.51,3.05-8.58.09-.98.1-1.97.08-2.95-.58-.52-1.2-1.01-1.86-1.44Z"/>
  <path class="cls-4" d="M70.58,5.74c-.09-.09-.19-.16-.29-.23-.38-.27-1.08-.46-1.24-.55-.08-.04-.18-.08-.29-.12-.12-.03-.26-.04-.38-.04-.4.02-.78.04-1.17.06-.37.02-.72.07-1.09.17-.24.07-.59.09-.89.12-.55.07-1.15.16-1.67.23l-.82.12-.85.11c-.39.05-.78.1-1.18.14l-.27.03h-.1s-.07-.09-.07-.09l-.22-.28c-.13-.16-.27-.3-.4-.46-.26-.31-.55-.59-.86-.85-1.01-.87-2.14-1.57-3.33-2.16-.35-.18-.71-.34-1.08-.48-1.37-.45-2.79-.65-4.21-.69-.14,0-.28,0-.42,0l-.09-.03c-.18,0-.34-.11-.53-.04l-.22-.02c-.27-.04-.55-.03-.83-.06-.19-.02-.39-.03-.58-.04-.19,0-.38-.05-.56-.04-1.49.09-3.06.39-4.56.48-.33.02-.66.11-.99.19-.11.03-.22.07-.33.08-.15.01-.3.06-.43.11-.42.17-.96.14-1.41.23-3.67.77-5.86,3.27-8.63,5.53-.87.71-1.91,1.23-2.62,2.1-.26.31-.45.68-.77.94l-.07.09c-.23.25-.45.5-.69.74-.17.16-.36.31-.53.48-1,1.03-1.96,2.14-2.85,3.26-.66.83-1,1.96-1.95,2.53-.15.09-.3.17-.44.28-.16.13-.28.3-.39.46-.99,1.46-1.5,3.24-2.7,4.57-.55.6-.84,1.44-1.12,2.22-.33.9-.79,1.64-1.23,2.47-.11.21-.2.43-.3.64-.12.24-.25.47-.37.7l-.05.12c-.11.27-.2.56-.42.77-.1.1-.14.22-.2.34l-.03.13c-.7,2.04-1.76,4-2.66,5.97-.14.3-.27.6-.34.93-.22,1.16-2.03,2.52-2.82,3.39-1.05,1.15-2.11,2.29-3.14,3.46-1.87,2.11-4.09,4.36-4.59,7.25-.06.33.02.67.12.99.47,1.46,1.64,2.44,2.86,3.3.6.43,1.22.83,1.8,1.28.98.77,1.61,1.39,2.94,1.23,3.09-.38,4.49-3.68,6.42-5.7,1.19-1.24,2.4-2.46,3.46-3.82.1-.13.21-.29.31-.38.11-.11.13-.11.19-.15l.11-.05h.06c.06,0,.17.03.27.05.43.09.91.22,1.37.38.36.12.73.22,1.09.38.26.11.52.22.83.3.26.07.52.14.79.2.53.12,1.07.2,1.63.22.37.01.85.1,1.27.17,1.34.22,2.7.4,4.06.53l.09.09.22.02.69.05c.16-.02.23.09.34.2l.39.37c-.1.03-.2.06-.29.1-.82.29-1.59.44-2.4.52-.27.03-.6.08-.85.15-.61.18-1.06.21-1.57.23-.24,0-.48.02-.72.04h-.09s-.19.12-.19.12c-.27.15-.49.41-.59.65-.06.12-.1.25-.12.35-.03.11-.04.22-.05.31,0,.1-.01.19,0,.28v.04c.11.05.2.14.24.29.09.34.42.65.7.85.32.23.68.4,1.04.55.37.16.75.26,1.15.34h.03c1.73-.33,3.45-.72,5.16-1.15.51-.12,1.02-.25,1.53-.37.46-.11.91-.21,1.37-.32.46.05.91.11,1.37.16.84.09,1.67.18,2.51.27.84.1,1.71.16,2.51.31,1.17.22,2.31.31,3.47.45l.75.09.13-.03c.45,0,.91,0,1.36,0,.42,0,.83-.02,1.22-.16.39-.14.76-.32,1.11-.54.12-.08.24-.16.36-.24.31-.36.29-.85.25-1.33-.02-.1-.05-.21-.07-.32l-.06-.24v-.04s-.04-.06-.04-.06l-.04-.08-.14-.26-.3-.15-.1-.05-.13-.06-.17-.02c-.23-.03-.47-.06-.71-.09-.52-.08-1.1-.15-1.55-.28-.41-.11-.8-.18-1.23-.24-1.34-.19-2.67-.36-3.98-.38-.12,0-.26-.03-.39-.04-.5-.05-.99-.11-1.49-.16l-.74-.08-.32-.03h-.1s-.1-.08-.1-.08l-.08-.05-.21-.15-.13-.1.12-.05.32-.11c.08-.03.19-.03.28-.05.59-.12,1.18-.25,1.76-.37.63-.18,1.25-.39,1.88-.62.56-.22,1.14-.46,1.72-.68.49-.17.95-.38,1.41-.61.99-.47,1.89-1.1,2.81-1.68l1.48-1.07c.48-.37.94-.78,1.41-1.17.15-.14.32-.27.46-.42.47-.49.94-.99,1.41-1.48.44-.52.89-1.01,1.36-1.47.42-.47.75-.94,1.1-1.44.12-.17.21-.35.31-.53.28-.48.55-.97.83-1.46.26-.49.49-1,.75-1.49l.32-.61.27-.63.53-1.26c.15-.43.28-.86.42-1.3.13-.44.27-.87.35-1.32.19-.91.4-1.89.58-2.77.25-1.19.34-2.39.4-3.58.04-.82.04-1.63.05-2.44l.05-2.31.05-1.14.03-.56.02-.28v-.02s.02-.04.02-.04v-.02s.12-.11.12-.11l.25-.25.5-.5,1.02-.99c.68-.66,1.35-1.32,2.01-1.99.12-.12.25-.25.37-.34.42-.31.83-.66,1.23-1.03.2-.19.4-.36.61-.6.2-.22.39-.4.59-.6.45-.43.98-1.03,1.47-1.64.12-.15.24-.31.37-.48.13-.18.24-.34.39-.61.07-.12.13-.3.14-.37.02-.09.05-.18.07-.27.07-.29.08-.59.1-.88.01-.16-.06-.28-.16-.38ZM20.34,30.67l.03-.14c-.09-.03.02-.09.03-.13.04-.13.1-.26.2-.36.38-.39,1.09-.1,1.39.35.3.46.38,1.03.66,1.5.37.63,1.05,1,1.74,1.25,5.18,1.83,8.54-2.42,10.7-6.42.22-.4.71-1.04,1.19-1.1.56-.08,1.05.47.96,1.01-.32,1.92-1.21,3.77-2.35,5.33-1.91,2.63-5.04,4.78-8.48,4.48-2.95-.26-6.57-2.36-6.08-5.77ZM51.24,24.32l-.04.13c-3.49,11.69-17.98,22.35-30.45,17.52-1.88-.73-4.76-2.17-4.43-4.63.28-1.34,1.12-.77,1.84-.18,1.53,1.26,3.6,2,5.5,2.48,8.66,2.19,18.08-3.3,23.05-10.17.47-.65.9-1.33,1.29-2.02.05-.1.1-.2.15-.3.59-1.21,1.18-2.43,1.78-3.64.14-.28.32-.59.63-.65.34-.07.66.23.75.57.07.29.01.6-.07.89ZM54.2,13.28c-4.85,1.43-5.7-5.26-1.81-6.06,3.99-.82,4.89,5.15,1.81,6.06Z"/>
  <path class="cls-3" d="M70.62,5.73c-.09-.09-.2-.16-.3-.23-.39-.27-1.11-.47-1.27-.56-.08-.04-.18-.09-.3-.12-.13-.03-.26-.04-.38-.04-.4.02-.8.04-1.19.07-.38.02-.74.07-1.11.17-.25.07-.6.09-.91.13-.57.07-1.17.16-1.71.24l-.84.12-.87.11c-.39.05-.8.1-1.2.15l-.2.02c-.33.29-.61.59-.76,1.08-.21.68-.28,1.39-.41,2.09-.21,1.1-.53,2.18-.73,3.29-.19,1.07-.29,2.28.21,3.28.28.56.73.98,1.26,1.31.13.08.27.17.41.23l.23.09.23.05.22-.04c.14-.04.27-.11.38-.2.12-.1.23-.22.34-.33l.52-.51,1.04-1.01c.69-.67,1.38-1.35,2.06-2.03.12-.12.26-.25.38-.34.43-.32.84-.67,1.26-1.05.21-.19.41-.37.62-.61.21-.22.4-.41.6-.62.46-.43,1-1.05,1.5-1.67.12-.15.25-.32.38-.49.13-.19.25-.35.39-.62.07-.12.13-.31.15-.37.02-.1.05-.19.07-.27.07-.3.08-.6.1-.9.01-.16-.06-.28-.16-.38Z"/>
  <path class="cls-3" d="M47.81,55.08l.2-.03c.36-.04.71-.08,1.07-.12.34-.04.68-.06,1.02-.09l.71-.8c.36-.37.33-.88.29-1.38-.02-.1-.05-.21-.07-.32l-.06-.24v-.04s-.04-.06-.04-.06l-.04-.08-.14-.26-.3-.15-.1-.05-.13-.06-.17-.02c-.23-.03-.47-.06-.71-.09-.52-.08-1.1-.15-1.55-.28-.41-.11-.8-.18-1.23-.24-1.34-.19-2.67-.36-3.98-.38-.12,0-.26-.03-.39-.04-.5-.05-.99-.11-1.49-.16l-.74-.08-.32-.03h-.1s-.1-.08-.1-.08l-.08-.05c-.39-.26-.7-.57-1.2-.57-.26,0-.53.02-.8.02-.89.03-1.78.1-2.66.18-.62.06-1.25.14-1.87.21-.28.03-.56.05-.84.08-.16.01-.31.03-.46.07-.08.02-.38.09-.39.2l.03.07.24.21.28.27c-.1.03-.2.06-.29.1-.82.29-1.59.44-2.4.52-.27.03-.6.08-.85.15-.61.18-1.06.21-1.57.23-.24,0-.48.02-.72.04h-.09s-.19.12-.19.12c-.27.15-.49.41-.59.65-.06.12-.1.25-.12.35-.03.11-.04.22-.05.31,0,.1-.01.19,0,.28l.02.25c.02.16.07.37.14.55.09.25.21.49.36.72.51.32,1.01.57,1.6.72l.12.02c.12-.03.25-.06.37-.08l.33-.07.22-.04c1.73-.33,3.45-.71,5.16-1.15.51-.12,1.02-.25,1.53-.37.46-.11.91-.21,1.37-.32.46.05.91.11,1.37.16.84.09,1.67.18,2.51.27.84.1,1.71.16,2.51.31,1.17.22,2.31.31,3.47.45l1.69.2.22.03Z"/>
  <path class="cls-6" d="M53.05,1.04c2.03.74-.03,1.01-.52.94C38.04-.24,27.47,9.44,20.29,21.1c-3.37,5.48-5.35,12.29-8.54,17.56-2.99,4.94-11.64,9.51-8.98,15.11.18.38-.11.84-.53.78C.89,54.38-.05,53.08,0,51.6c.16-4.59,7.27-9.53,9.74-13.61,1.95-3.22,2.78-6.94,4.45-10.27C19.73,16.74,29.59,2.89,42.48.48c2.44-.46,6.27-1.01,10.56.56Z"/>
  <path class="cls-5" d="M61.26,17.37c2.58,0,.1,13.49-.52,15.5-4.98,16.15-21.44,18.56-36.23,17.22-1.2-.11-6.32-.88-6.35-2.33-.05-2.08,7.16.25,8.35.32,21.69,1.4,31.98-6.06,33.71-27.76.1-1.19-.2-2.16,1.03-2.96Z"/>
  <path class="cls-1" d="M20.4,29.23c.04-.13.1-.26.2-.36.38-.39,1.09-.1,1.39.35.3.46.38,1.03.66,1.5.37.63,1.05,1,1.74,1.25,5.18,1.83,8.54-2.42,10.7-6.42.22-.4.71-1.04,1.19-1.1.56-.08,1.05.47.96,1.01-.32,1.92-1.21,3.77-2.35,5.33-1.91,2.63-5.04,4.78-8.48,4.48-2.95-.26-6.57-2.36-6.08-5.77l.03-.14c-.09-.03.02-.09.03-.13Z"/>
  <path class="cls-1" d="M51.24,23.16l-.04.13c-3.49,11.69-17.98,22.35-30.45,17.52-1.88-.73-4.76-2.17-4.43-4.63.28-1.34,1.12-.77,1.84-.18,1.53,1.26,3.6,2,5.5,2.48,8.66,2.19,18.08-3.3,23.05-10.17.47-.65.9-1.33,1.29-2.02.05-.1.1-.2.15-.3.59-1.21,1.18-2.43,1.78-3.64.14-.28.32-.59.63-.65.34-.07.66.23.75.57.07.29.01.6-.07.89Z"/>
  <path class="cls-2" d="M48.36,54.12c-1.15-.23-2.3-.43-3.46-.6-1.14-.17-2.27-.25-3.38-.56-1.06-.31-2.09-.56-3.2-.63-1.1-.07-2.23-.03-3.32.17-1.17.22-2.3.62-3.44.98-1.07.34-2.16.62-3.27.82-.52.09-1.04.17-1.56.22-.26.03-.53.05-.79.07-.23.02-.46,0-.69.03l-.08.04v.04c0,.11.11.19.16.27l.12.17.13.15c.33.35.87.5,1.32.59,1.11.23,2.23.08,3.32-.2.48-.12.96-.27,1.44-.43.87-.28,1.73-.6,2.62-.84.63-.18,1.31-.35,1.98-.35,3.82-.14,8.39,1.8,12.65,1.3.22-.03.47-.02.68-.09.19-.07.35-.2.49-.34l.19-.23c.05-.07.26-.24.06-.27-.14-.02-.29-.02-.43-.03-.15-.01-.3-.04-.45-.07-.36-.06-.71-.13-1.06-.2Z"/>
  <path class="cls-2" d="M70.53,5.66c-.5-.05-.84,1.36-1,1.68-.31.6-.72,1.16-1.16,1.67-.63.72-1.39,1.32-2.05,2.01-.68.71-1.45,1.37-2.18,2.02-.77.68-1.46,1.45-2.3,2.06-.45.33-.99.74-1.58.66-.54-.07-.95-.53-1.13-1.02-.29-.81-.16-1.77-.02-2.6.15-.88.39-1.75.63-2.61.28-1.03.72-1.94,1.12-2.92.12-.28.24-.58.07-.86l-.04-.04c-.12.01-.23.03-.35.04l-.2.02c-.12.01-.35.34-.42.43-.34.43-.53,1.05-.73,1.56-.33.81-.65,1.67-.81,2.54-.24,1.04-.39,2.12-.38,3.19,0,1.53.38,3.68,2.26,3.85.19.02.39.01.58,0,.16-.02.33-.16.45-.24.28-.19.55-.41.81-.62.8-.65,1.56-1.33,2.32-2.02.9-.82,1.79-1.65,2.67-2.49.54-.52,1.11-1.03,1.64-1.57.53-.53,1.1-1.12,1.47-1.78l.09-.19c.08-.16.13-.33.19-.5.11-.35.18-.71.23-1.07.02-.12.04-.27.06-.41.08-.49-.05-.77-.24-.78Z"/>
</svg>