<?xml version="1.0" encoding="UTF-8"?>
<svg id="Tree" xmlns="http://www.w3.org/2000/svg" xmlns:xlink="http://www.w3.org/1999/xlink" viewBox="0 0 506.3 551.8">
  <defs>
    <style>
      .cls-1 {
        fill: #392212;
      }

      .cls-2 {
        fill: #301c0f;
      }

      .cls-3 {
        fill: #5c5c2c;
      }

      .cls-4 {
        fill: none;
      }

      .cls-5 {
        fill: #4a4a28;
      }

      .cls-6 {
        fill: #5c5d2e;
      }

      .cls-7 {
        fill: #505228;
      }

      .cls-8 {
        fill: #523016;
      }

      .cls-9 {
        clip-path: url(#clippath);
      }
    </style>
    <clipPath id="clippath">
      <path class="cls-4" d="M476.56,435.81c-7.72,18.28,7.74,29.99,16.21,43.27,11.53,18.08-6.81,29.48-22.91,32.06-16.13,2.58-27.89,2.58-43.53,9.3-7.01,3.01-13.44,7.93-20.28,10.79-7.1,2.97-15.07,4.57-22.75,4.94-8.51.41-16.98-1.18-25.49-.77-3.08.15-6.21.59-9.09,1.73-2.9,1.14-5.01,3.36-7.85,4.56-6.9,2.9-14.15.89-21.34,1.21-7.47.33-14.87.41-22.18,2.08-7.49,1.71-14.8,4.15-22.34,5.6-7.54,1.46-15.59,1.89-23.02-.39-7.35-2.26-14.42-6.29-21.38-9.56-14.85-6.98-29.82-13.94-45.65-18.4-10.67-3.01-21.69-4.81-32.79-4.82-10.3,0-21.26.84-31.24,3.45-7.99,2.09-16.09,3.92-24.11,5.92-15.59,3.88-31.4,6.68-47.51,5.73-11.57-.68-23.59-1.49-34.07-6.9-13.01-6.71-18.24-22.04-13.5-35.66,2.57-7.38,7.37-13.63,12.84-19.11,5.15-5.16,11.93-9.36,16.27-15.2,3.95-5.32,6.16-12.82,7.97-19.13,1.76-6.16,2.76-12.56,2.43-18.98-.69-13.23-6.93-25.35-13.39-36.62-6.41-11.19-16.53-21.48-17.53-34.67-2.32-30.61,32.44-50.57,29.15-86.33-1.75-18.99-14.9-39.02,7.12-52.08,15.72-9.33,32.88-13.73,39.23-34.11,6.15-19.72-7.03-40.15,20.71-48.27,21.03-6.16,69.88-4.6,65.34-38.97-2.22-16.78-32.86-27.02-10.19-45.72,25.51-21.04,89.25-12.79,121.15-11.18,18.42.93,28.1-.32,46.56,3.37,10.98,2.2,24.14,18.67,35.28,20.02,11,1.34,24.22-5.89,35.15-3.17,18.93,4.7,32.22,12.28,44,26.88,3.14,3.89,6.26,7.84,8.53,12.29,4.51,8.85,3.89,19.29-.1,28.25-2.62,5.89-5.59,10.58-5.35,17.22.25,7.32,1.51,14.66,1.35,21.98-.07,3.26.95,6.4.89,9.53-.39,19.4-18.45,25.46-19.9,39.82-3.75,37.03,37.13,30.54,49.2,55.82,13.04,27.3-22.83,36.13-22.98,62.88-.2,36.34,40.19,38.95,49.26,67.46,8.56,26.9-19.93,24.39-28.16,43.88Z"/>
    </clipPath>
  </defs>
  <g class="cls-9">
    <path class="cls-1" d="M473.22,537.46c-60.61-8.02-121.49-12.4-182.41-17.47-48.97-4.07-115.09-9.83-161.08-26.06-46.34-16.35-61.02-78.2-66.82-121.47-3.94-29.37-10.76-84.05,24.96-96.54,29.57-10.34,34.94,14.67,56.64,20.15,16.32,4.12,30.73-3.38,46.63-2.02,8.21.7,16.39,5.18,22.6,10.39,3.65-4.52,7.33-1.44,11.88-1.14-1-1.47-8.17-8.95-3.76-9.29,2.12-.16,10.11,3.58,13.04,4.36,10.78,2.87,21.51,1.49,32.09,2.62,1.83.2,4.88,2.14,7.27,2.63,5.63,1.17,11.99.39,17.54-1.07,4.19-1.1,7.89-3.53,12.21-4.01l.94-.82c-.64-2.43-2.69-15.07-4.31-15.86l-3.81,3.71c-18.24,14.53-27.43-2.57-46-1.39-6.74.43-11.25,1.71-18.49.51-4.17-.69-14.01-3.76-9.54-9.42,1.93-2.44,14.88-5.36,18.76-6.73,10.75-3.81,20.78-8.42,29.83-15.37.48-1.99-8.96-5.21-10.76-5.44-7.39-.94-7.29,2.22-12.01,5.28-3.71,2.41-16.68,7.33-20.71,6-.66-.22-1.37-.58-1.61-1.28-.25-1.05-.25-2.08.21-3.08.93-2.02,12.02-11.04,11.89-11.87-1.33-4.26-12.25-6.84-15.08-4.06-.63.62-.7,1.83-1.43,2.63-5.21,5.73-12.94,13.9-18.55,19.11-13.93,12.9-25.54,10.24-42.32,4.63-18.69-6.25-26.44-13.7-42.18-23.28-5.42-3.3-12.38-7.02-18.14-9.67-8.94-4.11-22.89-5.49-17.29-19.19,3.2-7.82,12.91-12.27,20.16-15.76,24.31-11.68,48.82-18.36,69.34-37.26,19.03-17.52,19.68-35.75,51.24-37.41,21.99-1.15,28.64,8.04,44.98,18.8,9.11,6,20.93,9.47,31.97,7.76l.17.17.03.02.38.02c.96.05,2.21-.11,3.11-.53,1.07-.38,2.11-.83,3.08-1.45.54-.2,1.07-.43,1.6-.66,1.49-.53,2.96-1.06,4.39-1.28.18-.02.38-.07.57-.13,1.45-.41,2.89-.67,4.29-.7.73-.03,1.44.07,2.16.16,1.05.13,2.08.38,3.15.49.8.09,1.65.38,2.45.65,1.57.53,3.2.85,4.92.85.26,0,.52,0,.79,0,.27,0,.57-.02.86-.07.57-.08,1.14-.23,1.69-.43.21-.07.4-.11.61-.19.59-.27,1.15-.53,1.73-.94.61-.42,1.22-.77,1.81-1,.6-.25,1.1-.28,1.7-.29.18,0,.35.02.53.02,1.04,0,2.08.2,3.1.53.91.3,1.79.74,2.68,1.18.42.2.85.33,1.27.53.5.25,1.02.5,1.49.84.71.51,1.77,1.31,2.31-1.09.1-.42.19-.85.24-1.28.03-.29.08-.61,0-.9-.09-.33-.42-.43-.69-.58-.55-.32-1.03-.74-1.57-1.08-1.03-.64-2.02-1.34-2.87-2.21l.58-.28c.26-.14.51-.29.76-.45.48-.33.89-.71,1.31-1.11.42-.41.93-.74,1.4-1.09.38-.29.77-.52,1.13-.81,1.63-1.32,3.28-2.29,4.9-3.03,1.11-.51,2.16-.81,3.29-1.21.76-.27,1.57-.34,2.35-.39.78-.08,1.55-.05,2.33-.04,1.45.03,2.91.11,4.35.32,1.35.2,2.72.33,4.11.3,1.25-.02,2.51.25,3.83-.56.13-.08.26-.17.38-.33.64-.86,1.17-2.73.79-3.74-.2-.54-.69-1.36-1.13-1.21-.16.05-.32.11-.48.16-.5.18-.94.31-1.52.21-.25-.04-.56,0-.82.06-.79.17-1.53.21-2.31,0-.3-.08-.64-.12-.97-.15-.63-.04-1.64-.18-2.27-.27-.95-.13-1.91-.21-2.87-.25-.45-.02-.9-.04-1.35-.05-.41-.01-.81-.08-1.22-.08-.4,0-.8,0-1.2.01-.12,0-.25.02-.41.05l-.25.05h-.06s.02-.05.02-.05l.03-.11c.07-.22.31-.51.48-.75.23-.31.5-.58.72-.81.11-.12.2-.23.31-.37.22-.28.44-.59.66-.92.11-.18.3-.36.45-.53.58-.66,1.16-1.37,1.73-2.18l.21-.31.07-.09.07-.09c.12-.15.27-.33.44-.57.58-.85,1.1-2.12.85-3.29-.44-2.01-1.48-.26-2.21.83-.19.29-.4.56-.61.84-.7.93-1.4,1.85-2.12,2.7-.27.33-.54.6-.82.9-.45.47-.9.94-1.35,1.41-.94,1.04-1.89,2.08-2.86,2.96-1.38,1.25-2.78,2.3-4.18,3.26-.16.11-.32.17-.48.28-1.74,1.29-3.43,2.13-5.13,3.01-.61.32-1.22.65-1.84.93-.56.25-1.05.54-1.66.68-1.22.28-2.53.31-3.78.41-1.25.1-2.49.19-3.74.28-1.48.11-2.95.21-4.43.3-1.55.1-1.05-1.01-2.59-.92-1.45.08-4.95,1.35-6.4,1.41-1.15.05-2.3.11-3.45.12-1.14,0-2.26-.14-3.4-.15-.09,0-.19,0-.28,0-.35.01-.73.12-1.09.18-1.23.26-2.45.49-3.67.81-.62.17-1.25.43-1.87.67-2.77.47-5.77,1.4-8.52,1.51-7.76.29-17.47-1.64-22.91-7.55,6.65-1.43,13.55-3.08,19.69-6.1,5.7-2.81,16.44-12.64,21.19-13.57,1.17-.23,2.53.05,3.73-.04-1.2-6.93-7.95-14.47-15.68-11.91-.96.32-5.95,6.9-7.77,8.45-8.82,7.53-22.31,9.55-33.64,8.7-2.52-.19-14.08-2.16-12.95-6.01.13-.45,5.85-4.36,6.9-5.3,4.23-3.79,8.22-9.18,10.53-14.39.33-.74,1.99-4.49,2-4.75.2-3.23-9.22-6.4-10.68-2.76-.32.8-.16,2-.52,2.96-1.09,2.86-2.86,6.12-5.08,8.24-1.81,1.73-9.7,6.8-11.65,4.07-1.54-2.16,3.37-11.33,3.73-14.11-2.48-4.14-8.56-5.8-12.82-3.75-3.27,1.57-1.3,3.99-1.58,7.11-1.44,16.01-26.82,15.74-38.24,19.12-20.33,6.02-25.64,16.9-41.19,27.17-12.79,8.46-25.19,4.83-39.63,5.56-19.53.99-56.53,11.47-57.67-19.39-.43-11.71,2.75-23.38,7.69-33.92,4.75-10.15,11.44-20.14,19.26-28.2,10.67-11.01,24.71-18.78,39.79-21.68,14.46-2.78,30.02-1.39,43.27-7.83,11.73-5.7,20.07-16.87,31.72-22.73,15.62-7.85,35.17-5.21,50.22-14.1,3.56-2.1,7-5.22,7.5-9.32.51-4.1-3.61-8.63-7.45-7.1-1.28.51-2.27,1.55-3.28,2.5-15.07,14.12-39.4,9.54-58.7,16.88-8.85,3.37-16.49,9.21-24.69,13.95-8.2,4.74-17.61,8.47-26.96,6.94-1.42-.23-2.99-.71-3.65-1.99-.67-1.31-.11-2.89.5-4.24,7.86-17.56,22.81-33.32,41.83-36.22,11.83-1.8,23.77,1.47,35.7,2.41,13.59,1.06,27.41-.97,40.12-5.89.85-.33,1.73-.7,2.3-1.41.92-1.15.74-2.82.43-4.26-.81-3.78-2.2-7.44-4.09-10.81-10.85,6.25-23.14,9.98-35.63,10.84-3.33.23-7.57-.35-8.53-3.55-.42-1.39-.03-2.9.49-4.25,4.2-10.91,15.97-16.61,26.79-21.04,15.1-6.17,31.68-11.96,47.4-7.59,10.83,3.01,20.13,10.63,31.21,12.51,3.81.64,7.91.53,11.3-1.33,3.39-1.86,5.83-5.78,5.07-9.57-.33-1.66-1.55-3.37-3.23-3.37-1.04,0-1.95.63-2.86,1.11-6.65,3.5-14.51-.69-21.46-3.53-21.63-8.83-46.03-4.36-69.28-2.04-1.74.17-4.09-2.02-2.41-2.48l-18.28-.13c-6.45,15.46-14.3,32.37-29.77,38.81-7.43,3.09-15.74,3.3-23.48,5.5-8.1,2.3-15.55,6.83-21.32,12.96-1.17,1.25-2.63,2.68-4.31,2.32-.94-.2-1.66-.94-2.24-1.7-6.46-8.43-1.46-21.52,7.34-27.46,8.8-5.95,19.94-6.82,30.5-7.95s21.81-3.05,29.5-10.38c1.91-1.83,3.17-5.65.68-6.56-.85-.31-1.78-.05-2.64.2-10.64,3.11-21.54,5.35-32.54,6.71-3.88.48-8.18.74-11.31-1.61-3.12-2.35-3.36-8.31.36-9.51-3.28-3.02-8.78-1.98-12.23.85-3.44,2.83-5.48,6.98-7.93,10.7-4.38,6.66-10.35,12.25-17.28,16.19-.96.54-2.04,1.07-3.12.86-1.67-.34-2.48-2.21-2.91-3.85-2.26-8.54-1.66-17.8,1.68-25.98h-13.92c-4.81,11.54-5.02,24.93-.58,36.63,4.15,10.93,12.31,21.53,9.95,32.98-1.98,9.58-10.88,16.13-19.79,20.15-4.8,2.17-10.29,3.89-15.25,2.14-3.06-1.08-5.52-3.37-7.88-5.59-7.86-7.39-13.63-15.12-25.18-24.67-2.95-2.44-7.77-8.6-8.95-10.43-3.14-4.89-3.16-9.23-5.22-14.94C15.8-60.22-6.33-63.06-.24-77.91c-20.62,13.7.69,24.04-19.93,37.75C-17.99-25.54-3.25-16.92,8.9-8.51,19.35-1.28,29.23,7.68,33.96,19.48c4.73,11.79,3.01,26.89-6.78,34.98-3.27,2.7-7.59,4.52-11.88,3.76-6.08-1.07-8.59-6.1-11.46-10.92C-.92,39.29-3.95,30.45-8.88,22.55c-.91-1.46-1.9-2.92-2.99-4.32-3.86-2.37-7.61-5.05-12.07-6.12-3.88-.93-7.89-.74-11.86-1.01-1.15.17-2.3.22-3.43.05-3.61-.54-7.12-1.98-10.37-3.6-6.14-3.06-14.02-7.85-16.69-14.56-7.02-17.67,9.76-31.84,11.44-48.66.86-8.58-.15-17.73-3.41-25.71h-13.9c2.22,8.3,5.93,21.47-.31,28.95-3.28,3.94-6.56-1.75-8.95-3.75-2.66-2.23-5.99-4.16-8.42-6.64-5.06-5.14-8.39-12.61-12.44-18.55h-11.59c-.76.9-.08,1.51.26,2.31,1.81,4.18,5.53,8.64-1.28,9.71-6.19.97-23.71-1.54-30.39-2.9-3.16-.64-12.81-4.66-14.93-3.62-4.17,2.06.92,7.33,3.28,8.89,18.23,12.07,43.33,4.21,60.14,18.07,3.97,3.27,7.7,7.58,7.88,13.02.11,3.37-1.83,14.26-6.12,14.26-1.67,0-8.08-6.83-10.19-8.41-13.44-10.11-23.91-7.52-38.06-12.34-17.98-6.13-21.1-24.81-30.25-38.98h-17.96l.34,2.92c-1.34,1.89-12.02-2.11-14.24-2.92h-47.51c-9.27,3.81-18.49,10.92-29.12,9.13-1.75-.29-5.41-2.91-6.21-2.51-3.59,1.77-2.85,10.57.41,12.37,13.81,7.65,31.55-5.69,44.05-10.15,14.8-5.29,31.88,1.58,46.21,6.8,10.12,3.68,16.42,5.63,23.44,14.22,5.28,6.46,11.56,14.16-1.44,15.33-8.47.76-27.82-5.53-35.49-9.66-.98-.53-.35-1.6-1.58-1.33-.77.38-4.12,9.96-4.3,11.34-1.16,8.83,4.22,6,9.94,6.76,4.31.58,9.3,3.29,13.75,4.21,16.41,3.39,33.05-3.66,49.58-2.65,23,1.4,38.31,16.49,47.29,36.71,3.54,7.96-4.57,6.6-10.16,6.11-20.3-1.78-28.38-15.49-45.43-21.19-19.24-6.44-40.61-2.46-57.75-15.82-3.4-2.65-5.86-8.49-9.1-.96-.75,1.74-2.24,7.67-1.35,9.1.29.46,8.03,5.25,9.18,5.88,14.26,7.83,31.58,6.28,46.55,12.54,11.88,4.97,17.23,13,26.89,20.04,16.07,11.73,36.33,7.35,54.66,11.97,33.08,8.35,63.02,49.15,61.77,83.12-1.14,30.86-38.15,20.38-57.67,19.39-14.44-.73-26.83,2.89-39.63-5.56-15.55-10.28-20.86-21.15-41.19-27.17-11.42-3.38-36.79-3.11-38.24-19.12-.28-3.12,1.69-5.54-1.58-7.11-4.27-2.05-10.34-.39-12.82,3.75.36,2.78,5.28,11.95,3.73,14.11-1.96,2.74-9.84-2.34-11.65-4.07-2.22-2.13-3.99-5.39-5.08-8.24-.36-.95-.2-2.15-.52-2.96-1.45-3.64-10.87-.47-10.68,2.76.02.26,1.68,4.01,2,4.75,2.31,5.2,6.29,10.59,10.53,14.39,1.05.94,6.77,4.85,6.9,5.3,1.13,3.85-10.44,5.82-12.95,6.01-11.33.85-24.82-1.17-33.64-8.7-1.82-1.55-6.81-8.13-7.77-8.45-7.73-2.56-14.48,4.98-15.68,11.91,1.2.1,2.56-.19,3.73.04,4.75.93,15.49,10.76,21.19,13.57,6.14,3.02,13.04,4.66,19.69,6.1-5.44,5.91-15.15,7.84-22.91,7.55-2.75-.1-5.75-1.04-8.52-1.51-.62-.24-1.25-.5-1.87-.67-1.22-.32-2.44-.55-3.67-.81-.36-.07-.74-.17-1.09-.18-.66-.01-1.3,0-1.96.11l-.14.03v.03c0,.14-.02.26-.03.37-.03.26-.11.55-.2.81-.2.59-.52,1.11-.91,1.53-.58.6-1.3.93-2.04.93h-.23c-.33-.01-.63-.08-.84-.13l-.12-.03-.27-.06-.18-.04c-1.54-.29-3.08-.62-4.67-1.03l-1.34-.32-.93-.21-.94.11-2.22.24c-.21.02-.42.05-.64.07-.53.05-1.02.1-1.46.19h-.05c-.21.03-.22.09-.44.08-.67.11-1.31.18-1.94.25-.26.03-.51.06-.77.09l-1.49.17-.74.09-.32.04c-.06,0-.18.03-.33.03h-.11c-.22,0-.46-.01-.73-.09l-.41-.09c-.35-.08-.67-.27-.9-.53l-.78-.88c-.83-.87-.74-1.96-.69-2.49l.03-.23.06-.27.08-.31v-.04c-.96-.49-1.94-.98-2.91-1.47-1.7-.88-3.38-1.73-5.13-3.01-.16-.12-.32-.17-.48-.28-1.41-.96-2.81-2.01-4.18-3.26-.97-.88-1.92-1.92-2.86-2.96-.45-.47-.9-.94-1.35-1.41-.27-.29-.55-.57-.82-.9-.72-.85-1.42-1.77-2.12-2.7-.2-.28-.42-.55-.61-.84-.73-1.09-1.77-2.84-2.21-.83-.25,1.17.26,2.44.85,3.29.17.24.33.42.44.57l.07.09.07.09.21.31c.57.81,1.15,1.52,1.73,2.18.15.17.33.36.45.53.21.33.44.63.66.92.1.14.2.25.31.37.21.23.48.5.72.81.18.23.41.53.48.75l.03.11.02.05h-.06s-.25-.05-.25-.05c-.16-.03-.29-.05-.41-.05-.4-.01-.8-.02-1.2-.01-.41,0-.81.07-1.22.08-.45.01-.9.03-1.35.05-.9.04-1.8.11-2.69.23-.67.09-1.36.24-2.03.27-.47.02-.97.05-1.39.17-.78.22-1.53.17-2.31,0-.26-.06-.58-.1-.82-.06-.58.1-1.02-.03-1.52-.21-.16-.05-.32-.11-.48-.16-.44-.15-.92.67-1.13,1.21-.38,1.01.14,2.88.79,3.74.12.16.25.25.38.33,1.32.81,2.57.53,3.83.56,1.39.03,2.76-.1,4.11-.3,1.44-.21,2.9-.29,4.35-.32.78,0,1.55-.03,2.33.04.78.06,1.59.12,2.35.39,1.13.41,2.18.7,3.29,1.21,1.62.74,3.27,1.71,4.9,3.03.36.29.76.52,1.13.81.47.35.97.68,1.4,1.09.42.4.83.79,1.31,1.11.24.17.5.32.76.45l.58.28c-.85.87-1.84,1.56-2.87,2.21-.54.34-1.02.76-1.57,1.08-.26.15-.59.26-.69.58-.08.29-.04.6,0,.9.05.43.14.86.24,1.28.54,2.4,1.6,1.6,2.31,1.09.47-.34.99-.59,1.49-.84.42-.21.85-.33,1.27-.53.89-.44,1.77-.89,2.68-1.18,1.02-.33,2.05-.53,3.1-.53.18,0,.35,0,.53-.02.6,0,1.1.04,1.7.29.59.23,1.21.57,1.81,1,.58.41,1.14.67,1.73.94.2.09.4.12.61.19.55.2,1.12.35,1.69.43.28.05.58.06.86.07.26,0,.53,0,.79,0,1.72,0,3.35-.31,4.92-.85.8-.27,1.66-.56,2.45-.65,1.07-.11,2.1-.36,3.15-.49.72-.08,1.44-.19,2.16-.16,1.4.02,2.83.29,4.29.7.19.05.39.1.57.13,1.42.22,2.9.74,4.39,1.28.53.23,1.06.46,1.6.66.97.62,2.01,1.07,3.08,1.45.91.42,2.15.58,3.11.53l.38-.02.03-.02.17-.17c11.04,1.71,22.86-1.76,31.97-7.76,16.34-10.76,22.99-19.96,44.98-18.8,31.56,1.65,32.21,19.88,51.24,37.41,20.52,18.9,45.03,25.58,69.34,37.26,7.25,3.48,16.96,7.94,20.16,15.76,5.61,13.7-8.34,15.08-17.29,19.19-5.76,2.65-12.72,6.37-18.14,9.67-15.74,9.58-23.49,17.03-42.18,23.28-16.78,5.61-28.39,8.27-42.32-4.63-5.62-5.2-13.34-13.38-18.55-19.11-.73-.8-.8-2.01-1.43-2.63-2.83-2.78-13.75-.2-15.08,4.06-.12.83,10.97,9.85,11.89,11.87.46,1,.46,2.03.21,3.08-.24.71-.96,1.06-1.61,1.28-4.03,1.33-17-3.59-20.71-6-4.72-3.06-4.62-6.22-12.01-5.28-1.8.23-11.25,3.45-10.76,5.44,9.05,6.95,19.08,11.56,29.83,15.37,3.87,1.37,16.83,4.29,18.76,6.73,4.48,5.66-5.36,8.73-9.54,9.42-7.24,1.2-11.74-.08-18.49-.51-18.57-1.18-27.76,15.92-46,1.39l-3.81-3.71c-1.62.79-3.67,13.43-4.31,15.86l.94.82c4.32.48,8.03,2.9,12.21,4.01,5.55,1.46,11.91,2.24,17.54,1.07,2.38-.5,5.43-2.44,7.27-2.63,10.58-1.13,21.31.25,32.09-2.62,2.93-.78,10.92-4.53,13.04-4.36,4.41.34-2.77,7.81-3.76,9.29,4.54-.3,8.22-3.38,11.88,1.14,6.22-5.21,14.4-9.69,22.6-10.39,15.9-1.35,30.32,6.14,46.63,2.02,21.7-5.48,27.07-30.49,56.64-20.15,35.72,12.49,28.91,67.17,24.96,96.54-5.81,43.27-20.49,105.12-66.82,121.47-45.99,16.23-112.11,21.99-161.08,26.06-60.92,5.06-121.8,9.45-182.41,17.47-44.23,5.85-87.85,19.25-131.89,26.57v1.16H605.1v-1.16c-44.04-7.32-87.66-20.72-131.89-26.57Z"/>
    <path class="cls-2" d="M-30.36,261c-8.95-5.56-19.43-6.37-29.78-5.54-5.5.44-10.9,2.9-16.52,2.31-1.53-1.34,7.01-4,7.67-4.2,46.55-14.35,65.56,25.18,76.49,62.28,6.67,22.62,6.15,41.19,6.19,64.49,0,5,.8,10.34,0,15.59-.71,4.63-5.69,4.67-6.34-1.13-1.63-14.66,1.37-32.26.6-47.53-1.22-24.34-16.67-72.81-38.31-86.25Z"/>
    <path class="cls-2" d="M.57,441.32c1.91-8.43,2.66-17.83,5.31-25.97.29-.89,1.86-6.19,3.18-5.21,3.28,8.31,1.35,18.66-.17,27.34-3.22,18.34-9.96,40.9-15.05,59.11-4.9,17.53-10.65,33.99-20.99,49.11l-2.01.59c4.22-18.53,11.63-36.02,16.63-54.33,4.48-16.4,9.35-34.12,13.09-50.64Z"/>
    <path class="cls-2" d="M-30.62,50.36c1.51,1.23,4.59,6.01,6.3,7.9C-3.78,81.03,7.72,103.15,4.44,135.23c-.74,7.22-2.02,16.26-7.82,21.14-.92-.63-.83-.96-.82-1.94.03-3.84,2.2-9.41,2.77-13.48,4.69-33.28-5.02-52.04-23.2-78.03-1.12-1.6-9.89-11.88-8.58-13.14.37-.36,1.95.06,2.59.59Z"/>
    <path class="cls-2" d="M7.04,86.87c6.75,16.6,7.13,41.52,6.13,59.39-.06,1.03-.63,5.79-1.4,10.1-.52,2.88-2.1,16.7-2.7,17.95-.28.57-1.15.61-1.38.02-.19-.46.23-.86.26-1.47.09-1.99,1.17-15.14,1.27-17.15,1.31-26.15,2.71-54.2-10.45-77.35-8.67-15.25-31.41-31.06-21.27-50.04.09-.16.37-.68.73-1.27.49-.78,1.68-.2,1.38.67-3.46,9.98-1.53,17.12,4.91,26.07C-7.02,65.53,1.22,72.57,7.04,86.87Z"/>
    <path class="cls-2" d="M-10.08,168.3l-.09-.06c-1.88-1.18-.42-4.06,1.62-3.18,2.95,1.27,5.69,3.11,8.06,5.24,15.45,13.9,11.18,45.33,10.16,64.01-.33,6.1.69,20.68-.19,26.73-.29,1.95-3.05,2.06-3.52.15-.51-2.13-1.47-11.25-1.5-11.66-2.07-24.57,10.78-65.2-14.54-81.23Z"/>
    <path class="cls-2" d="M13.08,298.46c-.92.21-1.07-.62-1.42-1.18-2.89-4.58-5.22-12.5-7.73-17.76-6.64-13.93-17.42-34.88-34.22-37.66-3.24-.54-7.63.31-10.07-.27-1.48-.35-2.17-1.51-1.09-2.71,2.74-3.05,13.05-1.22,16.71-.03,15.66,5.1,27.08,24.84,33.44,39.13,1.21,2.73,8.23,19.25,4.39,20.49Z"/>
    <path class="cls-2" d="M19.24,118.76c-.21.87.41,1.02-1.14.86-.77-3.03-1.56-6.41-1.77-9.53-.58-8.47-.45-20.47,0-29.02.18-3.42,1.08-7.22,1.19-10.69,1.17.22.94,1.23,1.15,2.03,1.07,4.15.37,8.53.56,12.77.41,8.99,2.02,25.24.01,33.58Z"/>
    <path class="cls-8" d="M-30.98,260.34c-8.95-5.56-19.43-6.37-29.78-5.54-5.5.44-10.9,2.9-16.52,2.31-1.53-1.34,7.01-4,7.67-4.2,46.55-14.35,65.56,25.18,76.49,62.28,6.67,22.62,6.15,41.19,6.19,64.49,0,5,.79,10.34,0,15.59-.71,4.63-5.69,4.67-6.34-1.13-1.63-14.66,1.37-32.26.6-47.53-1.22-24.34-16.67-72.81-38.31-86.25Z"/>
    <path class="cls-8" d="M-.04,440.66c1.91-8.43,2.66-17.83,5.31-25.97.29-.89,1.86-6.19,3.18-5.21,3.28,8.31,1.35,18.66-.17,27.34-3.22,18.34-9.96,40.9-15.05,59.11-4.9,17.53-10.65,33.99-20.99,49.11l-2.01.59c4.22-18.53,11.63-36.02,16.63-54.33,4.48-16.4,9.35-34.12,13.09-50.64Z"/>
    <path class="cls-8" d="M-31.24,49.7c1.51,1.23,4.59,6.01,6.3,7.9C-4.4,80.37,7.1,102.48,3.82,134.56c-.74,7.22-2.02,16.26-7.82,21.14-.92-.63-.83-.96-.82-1.94.03-3.84,2.2-9.41,2.77-13.48,4.69-33.28-5.02-52.04-23.2-78.03-1.12-1.6-9.89-11.88-8.58-13.14.37-.36,1.95.06,2.59.59Z"/>
    <path class="cls-8" d="M6.42,86.21c6.75,16.6,7.13,41.52,6.13,59.39-.06,1.03-.63,5.79-1.4,10.1-.52,2.88-2.1,16.7-2.7,17.95-.37.77-1.07.81-1.38.02-.19-.46.23-.86.26-1.47.08-1.73,1.14-14.61,1.23-16.36,1.32-26.37,2.88-54.76-10.41-78.14-8.67-15.25-31.41-31.06-21.27-50.04.18-.33,1.15-2.13,2.04-3.05.37-.38.98.04.79.53-4.4,11.01-2.65,18.48,4.2,27.98C-7.64,64.86.6,71.9,6.42,86.21Z"/>
    <path class="cls-8" d="M-10.7,167.63l-.09-.06c-1.88-1.18-.42-4.06,1.62-3.18,1.18.51,2.33,1.11,3.43,1.78,1.65,1.01,3.21,2.18,4.63,3.46,15.45,13.9,11.18,45.33,10.16,64.01-.33,6.1.69,20.67-.19,26.73-.29,1.95-3.05,2.06-3.52.15-.51-2.13-1.47-11.25-1.5-11.66-2.07-24.57,10.78-65.2-14.54-81.23Z"/>
    <path class="cls-8" d="M12.49,298.41c-.92.21-1.07-.62-1.42-1.18-2.89-4.58-5.22-12.5-7.73-17.76-6.64-13.93-17.42-34.88-34.22-37.66-3.24-.54-7.63.31-10.07-.27-1.48-.35-2.17-1.51-1.09-2.71,2.74-3.05,13.05-1.22,16.71-.03,15.66,5.1,27.08,24.84,33.44,39.13,1.21,2.73,8.23,19.25,4.39,20.49Z"/>
    <path class="cls-8" d="M18.63,118.1c-.21.87.41,1.02-1.14.86-.77-3.03-1.56-6.41-1.77-9.53-.58-8.47-.45-20.47,0-29.02.18-3.42,1.08-7.22,1.19-10.69,1.17.22.94,1.23,1.15,2.03,1.07,4.15.37,8.53.56,12.77.41,8.99,2.02,25.24.01,33.58Z"/>
    <path class="cls-2" d="M47.79,42.73C54.94,16.11,31.07-1.52,15.69-18.61c-1.69-1.88-3.23-4.37-5-6.44-1.21-1.42-3.53-.54-3.53,1.32v.57c0,.48.17.94.48,1.31C21.65-5.47,44.71,11.13,44.71,34.54c0,16.6-16.18,33.99-32.89,26.57-1.25-.55-2.3-1.43-3.42-2.14-1.34-.86-3.1.1-3.1,1.69h0c0,.61.27,1.19.75,1.57,16.38,12.88,36.93-1.58,41.75-19.5Z"/>
    <path class="cls-2" d="M53.5,15.92c.61-.75-.4-2.53-.76-3.3-2.86-6.13-10.29-12.35-14.57-17.87-12.94-16.71-18.12-35.09-11.03-55.61,2.16-6.25,6.5-12.55,5.8-19.4h-2.9c-2.51,9.64-8.32,17.56-9.78,27.59C16.36-25.81,32.74-3.63,50.59,14.2c.76.76,1.8,1.61,2.91,1.72Z"/>
    <path class="cls-2" d="M36.01,38.31c-1.02,4.57-3.03,8.7-4.91,12.83-.24.54.39,1.05.85.69,1.76-1.39,3.58-6.01,3.95-6.69,3.5-6.46,4.58-13.79,2.73-20.93-1.78-6.88-5.78-12.99-10.28-18.39-2.35-2.82-4.87-5.49-7.49-8.07-2.59-2.55-5.17-5.38-8.13-7.51-1.73-1.25-3.68-2.22-5.54-3.25-1.15-.64-2.34-1.45-3.58-1.91-.36-.13-3.8-1.63-3.8-1.25s2.01,1.76,2.37,2.08c.85.75,1.71,1.51,2.55,2.27,1.7,1.51,3.38,3.04,5.05,4.59,3.21,2.98,6.39,5.98,9.65,8.91,2.52,2.25,5.02,4.54,7.3,7.03,4.27,4.67,7.95,10.05,9.39,16.3,1.02,4.38.86,8.94-.12,13.32Z"/>
    <path class="cls-2" d="M113.5,486.06c-25.97-16.93-42.73-66-48.18-95.51-3.5-18.94-6.47-43.83-5.42-62.99.46-8.41,2.92-16.84,2.68-25.24-.01-.44-.57-.62-.86-.28-1.59,1.89-1.97,4.46-2.56,6.82-12.62,50.99,4.13,146.33,49.24,178.82,4.24,3.06,10.76,7.62,16.08,6.54.21-.04.36-.23.38-.44.06-.71-.1-1.01-.64-1.64-1.19-1.37-8.4-4.57-10.72-6.08Z"/>
    <path class="cls-2" d="M51.08,308.89c2.14-6.96,6.05-13.33,7.68-20.41-1.45-.29-1.46.19-2.23.95-6.13,6.06-11.71,23.44-13.24,31.95-7.78,43-4.08,103.89,23.11,139.93,2.16,2.86,7.98,10.23,7.76,2.13-19.91-32.58-29.77-70.33-28.74-108.65.37-13.87,1.6-32.68,5.67-45.9Z"/>
    <path class="cls-2" d="M67.5,261c8.95-5.56,19.43-6.37,29.78-5.54,5.5.44,10.9,2.9,16.52,2.31,1.53-1.34-7.01-4-7.67-4.2-46.55-14.35-65.56,25.18-76.49,62.28-6.67,22.62-6.15,41.19-6.19,64.49,0,5-.79,10.34,0,15.59.71,4.63,5.69,4.67,6.34-1.13,1.63-14.66-1.37-32.26-.6-47.53,1.22-24.34,16.67-72.81,38.31-86.25Z"/>
    <path class="cls-2" d="M36.57,441.32c-1.91-8.43-2.66-17.83-5.31-25.97-.29-.89-1.86-6.19-3.18-5.21-3.28,8.31-1.35,18.66.17,27.34,3.22,18.34,9.96,40.9,15.05,59.11,4.9,17.53,10.65,33.99,20.99,49.11l2.01.59c-4.22-18.53-11.63-36.02-16.63-54.33-4.48-16.4-9.35-34.12-13.09-50.64Z"/>
    <path class="cls-2" d="M44.35,127.63c1.98,19.73,19.93,29.96,38.48,28.77,11.62-.74,22.86-6.48,34.23-7.48,6.14-.54,13.09.59,19.05-.07,3.08-.34,10.16-2.79,2.89-3.48-9.8-.93-21.97-1.01-31.58.86-17.13,3.34-28.8,10.41-45.94.18-17.06-10.19-14.16-34.84-8.37-51.01,5.87-16.41,16.68-25.44,26.73-38.74.9-1.19,7.54-9.58,6.72-10.37-1.37-1.3-7.65,5.47-8.7,6.64-19.46,21.7-36.66,43.33-33.52,74.68Z"/>
    <path class="cls-2" d="M168.86,145.92c.18-.35-.22-.71-.55-.51-4.67,2.79-8.31,7.03-12.84,10.04-21.62,14.36-48.94,10.85-71.42,22.44-13.19,6.81-29.84,21.32-27.55,37.82.17,1.2,2.16,7.15,3.77,6.31.14-.07.22-.23.21-.38-2.17-22.94,18.75-38.48,38.4-44.55,23.98-7.42,56.75-5.22,69.98-31.16Z"/>
    <path class="cls-2" d="M17.29,433.57c-.34-2.09-.8-4.16-1.76-6.06-7.55-.93-3.7,10.69-3.39,15.26,1.04,15.53,2.57,30.86,4.06,46.35.9,9.36.83,20.45,2.38,29.49.54,3.13,2.96,5.18,5.93,3.28,1.47-.94,1.05-9.74.96-11.91-1.84-41.58-7.1-69.8-8.18-76.41Z"/>
    <path class="cls-2" d="M67.76,50.36c-1.51,1.23-4.59,6.01-6.3,7.9-20.54,22.77-32.04,44.89-28.76,76.96.69,6.72,4.22,21.92,9.05,26.97.71.75,1.98.2,1.97-.83v-.03c-.03-3.84-4.57-16.32-5.15-20.39-4.69-33.28,5.02-52.04,23.2-78.03,1.12-1.6,9.89-11.88,8.58-13.14-.37-.36-1.95.06-2.59.59Z"/>
    <path class="cls-2" d="M135.82,175.5c-2.25-.34-4.05.5-6.09,1.15-13.12,4.17-40.64,15.18-49.82,24.91-10.59,11.23-12.95,26.61,1.86,35.24,11.27,6.56,25.22,7.81,37.21,14.93,7.13,4.24,12.48,11.07,20.32,13.56-.2-.66-.54-1.25-1.02-1.75-6.91-7.22-21.02-16.75-30.28-20.54-11.83-4.86-35.21-7.18-32.86-24.77,2.78-20.85,34.42-28.89,50.46-36.44,3.45-1.62,7.73-3.39,10.22-6.29Z"/>
    <path class="cls-2" d="M69.38,175.97c9.39-4.8,20.54-6.12,29.35-11.84.33-.22.17-.74-.23-.71-9.76.69-20.32,2.77-29.29,6.58-25.09,10.62-30.91,36.14-22.6,60.53,1.44,1.08,2.14-3.18,2.24-3.83.95-5.97-.07-10.47.08-16.15.38-15.17,6.81-27.61,20.46-34.58Z"/>
    <path class="cls-2" d="M64.84,480.84c-2.74-5.27-10.42-24.78-14.43-26.7-.7-.34-1.18-.74-2.06-.54.04,2.17-.16,4.35.15,6.51,2.1,14.7,25.42,52.44,36.92,62.15.52.44,3.67,3.04,4.06,2.6l-.55-2.64c-7.83-13.87-16.74-27.24-24.09-41.38Z"/>
    <path class="cls-2" d="M30.11,86.87c-6.75,16.6-7.13,41.52-6.13,59.39.11,1.98,2.09,17.58,3.79,17.64,1.37-.86.51-1.28.46-2.18-1.31-27.81-4.02-58.43,10.15-83.37,8.67-15.25,31.41-31.06,21.27-50.04-.27-.5-2.34-4.33-3.21-3.45,4.87,11.52,3.23,19.14-3.82,28.91-8.47,11.75-16.71,18.79-22.53,33.09Z"/>
    <path class="cls-2" d="M47.22,168.3c2.59-1.64,5.57-2.61,8.12-4.2.39-.24.22-.85-.23-.87-6.5-.29-12.72,2.8-17.47,7.07-15.45,13.9-11.18,45.33-10.16,64.01.41,7.53-.27,15.36,1.7,22.67.04.16.16.3.32.34,1.82.48,3.13-8.27,3.2-9.12,2.07-24.57-10.78-63.87,14.54-79.9Z"/>
    <path class="cls-2" d="M18.51,310.49c1.03.15,1.12-.76,1.47-1.41,2.81-5.27,4.73-14.18,7.07-20.16,6.18-15.86,16.34-39.78,34.6-44.2,3.52-.85,8.41-.27,11.05-1.11,1.6-.51,2.27-1.83.98-3.07-3.26-3.13-14.45-.29-18.38,1.32-16.81,6.87-27.78,29.52-33.62,45.75-1.12,3.1-7.49,21.84-3.17,22.89Z"/>
    <path class="cls-2" d="M18.26,128.56c-.7-.92-1.05,0-1.16.85-.64,5.29-.37,10.93-.58,16.23-.6,14.59-.84,29.38-.6,44.06.36,21.32.46,42.98,1.16,64.31.17,5.34.37,12.73,1.26,17.86.13.75.15,2.95,1.37,2.68.67-.2,1.41-4.58,1.47-5.49,1.33-17.57-1.05-36.76,0-54.51-2.89-25.96-1.45-52.21-2.94-78.17-.15-2.59.16-5.25.02-7.84Z"/>
    <path class="cls-2" d="M61.09,17.33c.39,4.2,6.52,6.45,10.2,6.89,14.27,1.68,32.29-7.79,39.34-20.21,8.01-14.1,5.26-30.78-2.73-44.22-.68-1.14-5.89-8.69-6.36-8.97-.35-.2-1.55-.39-1.63.16,3.22,9.91,10.44,18.36,11.51,29.05,2.9,28.87-24.1,46.95-50.33,37.3Z"/>
    <path class="cls-2" d="M196.07,132.92c-.35-1.85-3.38,1.07-3.78,1.43-9.09,8.06-16.73,20.22-26.34,28.7-19.12,16.88-45.44,21.73-67.02,33.79-5.28,2.95-12.34,7.13-14.67,12.85,7.19-6.05,14.02-9.88,22.61-13.6,25.27-10.95,51.16-17.72,70.38-39.12l18.82-24.04Z"/>
    <path class="cls-2" d="M202.68,278.56c8.78-1.45,15.93-7.03,24.13-10.05,11.21-4.13,23.91-6.2,33-14.79-7.2,1.75-13.66,5.98-20.71,8.54-5.82,2.11-11.71,3.31-17.51,5.67-11.7,4.77-14,7.49-27.71,8.8-.64.06-1.97.68-1.85-.41,10.9-6.13,21.9-12.12,30.42-21.44,2.43-2.66,4.59-5.96,6.94-8.71,1.69-1.98,5.72-4.3,5.23-6.94-6.87,4.94-11.81,12.42-17.98,17.94-5.66,5.06-12.65,8.63-18.76,13.1-1.96,1.44-5.51,5.34-7.24,6.08-.75.32-7.3,1.58-8.16,1.59-1.52,0-2.83-1.05-4.35-1.05-.01.53.54.82.95,1.08,8.49,5.31,23.16,4.41,32.33,7.06,3.01.87,4.57,2.89,7.27,4.02-2.29-9.58-14.88-6.43-22.21-8.2l-9.65-2.22c5.49.08,10.37.84,15.87-.07ZM185.64,278.62h-1.15v-.57h1.15v.57Z"/>
    <path class="cls-2" d="M50.37-2.96c4.86,5.44,8.75,14.34,15.91,16.53,12.09,3.7,34.06-8.53,38.12-20.42,3.42-10.02.85-20.41-4.52-29.13l-1.15.29c-.39,2.99,2.23,6.76,3.06,9.68,2.23,7.82,1.4,17.24-3.92,23.63-5.75,6.91-21.57,15.04-30.45,12.47-5.69-1.64-12.85-13.83-17.93-18.57-1.46-1.37-9.45-7.91-10.74-8.39-1.09-.41-1,.59-.74,1.32,1,2.8,9.66,9.57,12.34,12.57Z"/>
    <path class="cls-2" d="M63.84,88.16c.08-.44-.49-.71-.77-.35-1.91,2.41-5.51,12.68-5.76,13.53-3.76,12.72-5.9,27.37,4.92,37.37,12.16,11.25,40.58,3.88,55.92,2.02,1.53-.18,3.83.55,5.03-.51.27-.24.12-.7-.24-.75-19.37-2.58-58.75,13.02-64.62-14.81-1.37-6.48.42-15.2,1.78-21.7,1.04-4.98,2.82-9.83,3.74-14.8Z"/>
    <path class="cls-2" d="M181.68,17.56c.34-.42-.17-.99-.62-.71-2.83,1.77-8.26,6.22-9.52,6.95-18.82,10.8-44.04,5.94-64.72,15.81-14.61,6.97-29.03,18.57-35.99,33.43-.22.46.37.9.75.56.65-.59,1.21-1.56,1.65-2.12,11.48-14.5,21.06-24.48,39.12-30.99,23.05-8.3,52.78-2.3,69.34-22.93Z"/>
    <path class="cls-2" d="M90.07,490.95c-1.26-1.28-6.42-6.93-7.82-6.65-1.68,1.29-.69,3.2-.17,4.8,2.7,8.33,27.65,34.38,35.62,38.54.65.34,1.02.91,1.91.7,1.67-1.81-7.66-13.41-9.28-15.34-6.01-7.14-13.7-15.34-20.25-22.05Z"/>
    <path class="cls-2" d="M167.82-28.59c-13.81,4.16-28.32,18.33-33.85,31.71-.27.65.59,1.17,1.03.63.15-.18.29-.38.46-.57,2-2.28,4.2-5.64,6.17-8.15,12.96-16.58,26.97-23.63,48.39-22.34,9.26.56,31.56,6.58,38.92,2.48.66-.37.99.03.74-1.29-21.03,1.21-40.96-8.76-61.85-2.47Z"/>
    <path class="cls-2" d="M67.73,275.72c4.96-1.49,10.58-5.67,15.55-7.63,12.07-4.76,23.39-3.55,34.59,2.7,10.61,5.91,18.52,17.6,31.27,18.83-3.52-2.79-7.37-5.16-10.95-7.88-11.38-8.64-19.4-17.57-34.6-19.86-10.8-1.63-24.47,2.25-32.94,9.21-.51.42-5.8,5.48-2.92,4.61Z"/>
    <path class="cls-2" d="M226.57,99.9c.23-.23-.01-.62-.33-.52-15.96,4.99-31.35,5.37-46.4,13.82-8.88,4.99-14.78,11.83-22.31,18.25-2.66,2.26-6.78,4.54-8.97,6.67-.53.52-1.14.89-1.18,1.63-.01.21.2.37.4.32,11.37-2.85,18.48-13.17,27.49-19.85,9.74-7.23,20.02-11.07,31.68-14.09,6.3-1.63,14.77-1.36,19.62-6.23Z"/>
    <path class="cls-2" d="M177.53,129.15c-.95-.17-1.56.45-2.27.92-4.82,3.14-9.27,8.69-14.35,12.3-6.93,4.92-16.37,9.51-24.52,11.98-2.85.87-23.71,4.8-23.74,6.38,1.45,1.36,4.75,1.01,6.67.89,15.64-.98,36.13-9.6,48.05-19.74,1.36-1.16,11.66-11.25,10.15-12.73Z"/>
    <path class="cls-2" d="M183.62,137.26c8.02-6.72,12.03-12.58,22.58-16.82,14.4-5.78,22.44-2.27,36.49-2.28,1.24,0,2.4.48,2.05-1.18-22.33-8.41-53.15-2.04-63.15,21.43,1.09.25,1.38-.61,2.03-1.15Z"/>
    <path class="cls-2" d="M91.18,40.8c-.52.43-.05,1.27.58,1.03,7.56-2.82,14.27-7.4,22.04-9.73,13.94-4.17,28.81-2.98,42.77-6.48,3.47-.87,7.58-2.01,10.11-4.7.41-.43,0-1.13-.59-1-3.02.69-5.86,2.17-8.84,2.91-21.77,5.39-46.89.62-65.42,17.43-.22.2-.45.36-.66.53Z"/>
    <path class="cls-2" d="M177.14,293.2c-1.88-.61-12.84,2.05-16.09,2.25-23.17,1.44-24.91-7.02-41.61-17.54-7.35-4.63-18.12-8.66-26.32-4.86-2.44,1.86,3.54.62,3.95.57,3.17-.36,4.35-.18,7.57.04,9.73.67,25.13,17.75,35.42,21.86,11.89,4.75,25.88,1.28,38.05-.69.16-.79-.21-1.4-.97-1.65Z"/>
    <path class="cls-2" d="M101.34,18.47c-8.62,6.73-23.68,12.98-34.68,9.6-.55-.17-.97.49-.61.94.31.39.79.67,1.22.97,8.85,6.07,29.66-4.24,36.97-10.35,9.81-8.2,19.99-21.67,16.19-35.08-.14-.48-.77-.56-1.05-.15-.83,1.24-.16,3.38-.36,4.82-1.69,12.36-7.97,21.67-17.68,29.25Z"/>
    <path class="cls-2" d="M248.96-23.13c.26-.31-.1-.78-.46-.59-3.38,1.75-6.23,4.61-9.74,6.39-13.44,6.82-29.45,5.11-43.96,8.76-12.12,3.04-21.45,9.83-31.22,17.11-.35.26-.06.8.35.66,6.67-2.28,12.01-7.52,18.23-10.72,13.9-7.15,26.68-6.07,41.28-8.55,9.58-1.63,19.22-5.52,25.53-13.07Z"/>
    <path class="cls-2" d="M283.55,146.54c-13.75-5.29-24.02-17.11-37.84-22.71-11.32-4.58-23.21-4.57-34.56-.48-.3.11.04.83.12,1.13l-.51-.4c.09.34.43.53.77.44,13.67-3.88,25.73-2.1,38.23,4.52,9.12,4.83,22.56,17.39,31.83,18.58,1.21.16,2.31.54,1.96-1.09Z"/>
    <path class="cls-2" d="M189.17,116.74c-.61.42-4.33,2.94-3.53,3.71,6.94-2.64,13.41-6.08,20.61-8.06,7.74-2.14,16.88-2.53,23.72-6.98,7.35-4.78,10.94-12.93,11.86-21.45-1.36-1.56-4.39,7.66-4.71,8.31-10.27,20.59-31.3,12.89-47.95,24.47Z"/>
    <path class="cls-2" d="M192.3,285.01c-9.37-.65-18.14,2.35-27.3,3.39-3.31.38-6.76-.21-10.06.66.18,1.02,1.16,1.01,1.94,1.24,13.13,3.95,28.73-6.77,45.96-.19,8.24,3.15,11.98,8.93,17.56,15.17-3.35-12.25-15.99-19.44-28.1-20.27Z"/>
    <path class="cls-2" d="M293.02,145.26h0c2.94.09,9.57-.08,11.86-2.16.28-.25.05-.72-.32-.65-.49.08-1,.16-1.51.24l.21-.2c-2.65-.93-5.02.64-7.79.59-2.37-.05-6.95-1.06-9.37-1.68-15.65-4.05-23.18-20.42-39.61-22.09-.33,1.48.4,1.01,1.09,1.5,2.85,2.02,6.48,3.51,9.52,5.56,12,8.09,19.84,18.77,35.93,18.9Z"/>
    <path class="cls-2" d="M261.54,118.43c-7.52-1.88-14.89-7.66-22.93-6-.23.05-.24.36-.02.42,10.29,2.9,19.81,9.63,30.75,9.94,6.11.18,18.18-2.17,23.1-5.92.83-.63,2.03-1.32,2.13-2.46.01-.16-.14-.29-.29-.23-11.23,3.82-20.7,7.26-32.74,4.25Z"/>
    <path class="cls-2" d="M196.65-2.94c-13.01,2.34-23.37,12.22-35.35,17.08-6.95,2.82-13.46,3.22-20.39,5.11-.59.16-1.76.14-1.62.97,5.23,1.39,11.26.12,16.46-1.19,11.53-2.91,28.42-14.12,39.16-20.51.63-.38,2.93-1.19,1.73-1.45Z"/>
    <path class="cls-2" d="M118.12,11.64l-6.6,8.25-.07.07c-4.1,3.43-7.65,6.88-12.32,9.63-7.78,4.6-18.88,7.2-23.52,15.48-.24.42.21.91.65.71,4.2-1.9,7.5-5.38,11.66-7.69,3.91-2.18,8.27-3.53,12.15-5.81,7.16-4.2,16.14-11.85,18.91-20.17.18-.53-.53-.9-.87-.47Z"/>
    <path class="cls-2" d="M172.44,277.88c1.24-.43,3.3-.91,3.93-2.14l-15.35,1.15c-6.73-.68-12.97-1.92-19.22-4.53-5.75-2.4-10.72-6.3-16.4-8.79-.66.62,2.68,3.61,3.2,4.04,11.2,9.34,29.7,15.14,43.85,10.27Z"/>
    <path class="cls-2" d="M84.89,227.88c3.18,2.81,10.19,4.19,14.25,6.03,13.91,6.3,25.49,14.36,38.15,22.68,1.13.46,1.1-1.18.77-1.65-.17-.23-4.17-2.05-5.1-2.72-4.31-3.14-8.17-6.98-12.6-9.99-11.15-7.58-24.28-11.31-36.68-16.33-.23,1.09.55,1.4,1.2,1.98Z"/>
    <path class="cls-2" d="M263.87,84.84c-2.94,3.42-4.57,8.03-7.81,11.31-7.78,7.89-18.84,9.46-28.68,13.03-.66.24-2.33.61-2.34,1.42,17.7.09,36.64-9.97,41.71-27.8-.59-.63-2.48,1.57-2.88,2.04Z"/>
    <path class="cls-2" d="M157.59-29.16c-3.15,1.14-6.19,3.35-8.86,5.23-9.81,6.89-20.39,16.52-24.36,28.11-.07.22.08.45.31.46.85.05,1.2-.29,1.88-.91,1.99-1.82,4.87-7.26,6.96-9.84,7.17-8.87,16.37-14.75,24.43-22.46.27-.26,0-.71-.36-.58Z"/>
    <path class="cls-2" d="M196.84,3.9c-2.54,1.42-5.93,3.22-7.14,5.89,1.41,1.06,7.5-3.28,9.05-3.98,12.06-5.46,20.23-4.46,32-7.4.51-.13,6.73-1.9,5.3-3.1-13.59,1.86-26.93,1.74-39.2,8.59Z"/>
    <path class="cls-2" d="M255.48,291.35c4.64.28,9.47,1.72,14.17,1.76-3.65-3.26-10.52-4.35-15.32-4.66-5.84-.37-11.91.93-17.4.6-4.73-.29-9.47-2.52-14.2-2.88,8.69,7.87,21.97,4.53,32.76,5.18Z"/>
    <path class="cls-2" d="M294.12,300.48c-9.65,1.75-14.62,2.27-24.48-.12-3.67-.89-16.17-6.13-18.8-5.5-1.78.42-.13,1.56.84,2.02,10.8,5.13,30.4,10.52,41.71,5.78,2.28-.96,4.5-2.87.73-2.18Z"/>
    <path class="cls-2" d="M268.49,253.71c-3.93,1.59-6.59,4.58-10.61,6.47-5.14,2.42-12.04,4.83-17.47,6.86-5.21,1.95-11.63,2.92-15.94,6.36,11.37-2.58,24.08-6.38,34.57-11.48,1.29-.63,11.2-6.49,9.46-8.21Z"/>
    <path class="cls-2" d="M315.42,103.65c-6.53,4.07-11.85,9.76-18.52,13.63-2.82,1.63-6.27,2.76-9.01,4.31-.79.45-1.68.48-1.42,1.76,6.11-.52,11.66-3.46,16.64-6.82,4.67-3.16,10.21-7.59,12.32-12.87Z"/>
    <path class="cls-2" d="M239.21,286.76c6.65.44,13.8-1.41,20.25-.55,5.32.7,11.47,5.11,16.99,6.18,1.14.22,2.9.75,2.47-1.01-7.89-1.75-14.47-7.27-22.91-7.55-4.29-.14-9.44,1.49-13.88,1.63-2.74.08-6.56-1.02-9.56-.46.98,1.43,4.9,1.64,6.64,1.76Z"/>
    <path class="cls-2" d="M267.34,295.71c10.33,4.98,26.37,4.48,35.34-3.18-5.45.65-10.45,3.53-15.94,4.04-6.73.62-12.91-1.07-19.4-.86Z"/>
    <path class="cls-2" d="M271.55,126.81c-.46-.16-.81.43-.45.75,5.96,5.33,13.22,11.26,21.47,11.46.78.02,1.65.05,2.18-.47.27-.27.1-.72-.27-.76-9.12-.9-14.88-8.22-22.93-10.98Z"/>
    <path class="cls-2" d="M209.41,298.02c-4.5-2.69-10.38-5.05-15.65-4.91-.32,1.54.39,1,1.14,1.44,3.28,1.93,7.26,2.75,10.65,4.44,3.29,1.63,5.69,4.31,9.06,5.13.46-3.11-2.93-4.73-5.2-6.09Z"/>
    <path class="cls-2" d="M270.63,86.71l-15.48,20.82c-.27.37.13.86.54.66,3.14-1.52,10.89-10.71,11.88-12.13,1.86-2.68,3.7-5.73,3.85-9.06.02-.44-.53-.65-.79-.29Z"/>
    <path class="cls-2" d="M188.54,6.03c.39-.47.95-.75,1.14-1.28.14-.41-.3-.79-.7-.62-3.03,1.3-14.39,9.76-18.3,13.15-.41.36-.07,1.03.46.9,6.53-1.54,13.3-7.25,17.4-12.14Z"/>
    <path class="cls-2" d="M217.7,263.46c-1.01.5-10.16,6.33-8.87,7.63l11.19-5.89,13.13-5.11c-5.1-.18-10.86,1.11-15.45,3.37Z"/>
    <path class="cls-2" d="M130.6,5.74c-.89-.96-4.23,4.29-4.56,4.99-3.15,6.74-.28,12.66,7.67,10.57,3.6-.95-4.3-2.46-4.69-2.68-4.27-2.34,2.5-11.88,1.58-12.88Z"/>
    <path class="cls-2" d="M297.18,111.77c2.89-1.96,10.46-10.55,11.07-13.89.18-.97.11-1.47-.93-1.76-1.77,4.36-5.7,8.71-8.97,12.18-1.09,1.16-3.08,2.12-3.8,3.16-1.38,2,1.47,1.09,2.63.3Z"/>
    <path class="cls-2" d="M229.1,239.81c-.45-.41-3.5,2.11-4.06,2.59-2,1.71-6.98,6.43-8.42,8.38-.58.79-1.09,1.17-.84,2.34,1.28,1.38,12.49-11.89,13.32-13.32Z"/>
    <path class="cls-2" d="M297.46,124.52l-14.96,3.89-1.26,1.31c5.23-.55,12.91-.58,16.22-5.21Z"/>
    <path class="cls-2" d="M239.53,240.39c-.63-.63-3.55,2.62-4.07,3.17-.82.87-9.17,9.69-8.67,10.15,1.09.25,1.38-.61,2.03-1.15,1.21-1.01,11.63-11.24,10.72-12.16Z"/>
    <path class="cls-2" d="M325.48,143.03c-9.83-1.77-10.49,1.29-18.22,3.87-2.97.99-6.19.87-9.12,1.91-.29.1-.3.52,0,.63,6.38,2.33,13.4-3.84,19.34-4.45,6.01-.62,10.14,1.94,15.47,1.22.3-.04.4-.43.15-.6-1.93-1.27-5.59-2.21-7.62-2.58Z"/>
    <path class="cls-2" d="M374.53,130.93c-.02-.16-.14-.29-.3-.29-9.03.04-19.85-1.97-25.72,6.47-.17.24.07.57.35.47,2.2-.8,3.91-2.64,6.14-3.54,5.51-2.21,11.3-1.26,17.01-1.75.95-.08,2.65-.19,2.53-1.36Z"/>
    <path class="cls-2" d="M333.44,141.18c-2.91,0-5.77-1.58-8.59-.76-.21.06-.28.34-.1.48,5.36,4.03,12.53.92,18.79,1.28.25.01.39-.28.21-.46-2.5-2.51-7.21-.54-10.31-.54Z"/>
    <path class="cls-2" d="M317.9,137.71c.99-.35,1.03-.9.97-1.71-.02-.21-.19-.39-.4-.41-2.21-.17-4.1.26-6.21.88-1.18.35-3.79,1.08-4.33,2.43-.12.3.11.62.43.6,1.97-.13,8.68-1.49,9.54-1.8Z"/>
    <path class="cls-8" d="M47.06,42C54.21,15.38,30.35-2.25,14.97-19.34c-1.69-1.88-3.23-4.37-5-6.44-1.21-1.42-3.53-.54-3.53,1.32v.57c0,.48.17.94.48,1.31C20.92-6.2,43.98,10.4,43.98,33.81c0,16.6-16.18,33.99-32.89,26.57-1.25-.55-2.3-1.43-3.42-2.14-1.34-.86-3.1.1-3.1,1.69h0c0,.61.27,1.19.75,1.57,16.38,12.88,36.93-1.58,41.75-19.5Z"/>
    <path class="cls-8" d="M52.83,15.25c.61-.75-.4-2.53-.76-3.3-2.86-6.13-10.29-12.35-14.57-17.87-12.94-16.71-18.12-35.09-11.03-55.61,2.16-6.25,6.5-12.55,5.8-19.4h-2.9c-2.51,9.64-8.32,17.56-9.78,27.59C15.7-26.47,32.07-4.3,49.92,13.53c.76.76,1.8,1.61,2.91,1.72Z"/>
    <path class="cls-8" d="M35.34,37.65c-1.02,4.57-3.03,8.7-4.91,12.83-.24.54.39,1.06.85.69,1.76-1.39,3.58-6.01,3.94-6.68,3.63-6.7,4.63-14.29,2.54-21.64-2.02-7.1-6.34-13.36-11.11-18.9-2.01-2.33-4.14-4.57-6.33-6.73-2.66-2.63-5.26-5.28-8.38-7.33-2.51-1.65-4.99-3.34-7.44-5.09-3.89-2.79-7.7-5.71-11.27-8.9-7.99-7.15-13.1-14.98-13.37-15.22-.54-.49-.94-1.07-1.59-1.32-.36-.13-.73.16-.73.54v3.73c0,.16.06.31.18.41.29.27,7.22,8.79,16.48,17.08C-.69-14.31,4.89-10.25,10.52-6.34c3.15,2.19,5.91,5.06,8.73,7.65,2.51,2.3,4.97,4.66,7.24,7.19,4.33,4.83,7.96,10.43,9.19,16.89.77,4.06.56,8.23-.34,12.25Z"/>
    <path class="cls-8" d="M43.69,126.96c1.98,19.73,19.93,29.96,38.48,28.77,11.62-.74,22.86-6.48,34.23-7.48,6.14-.54,13.09.59,19.05-.07,3.08-.34,10.16-2.79,2.89-3.48-9.8-.93-21.97-1.01-31.58.86-17.13,3.34-28.8,10.41-45.94.18-17.06-10.19-14.16-34.84-8.37-51.01,5.87-16.41,16.68-25.44,26.73-38.74.9-1.19,7.54-9.58,6.72-10.37-1.37-1.3-7.65,5.47-8.7,6.64-19.46,21.7-36.66,43.33-33.52,74.68Z"/>
    <path class="cls-8" d="M67.09,49.7c-1.51,1.23-4.59,6.01-6.3,7.9-20.54,22.77-32.04,44.89-28.76,76.96.69,6.72,4.22,21.92,9.05,26.97.71.75,1.98.2,1.97-.83v-.03c-.03-3.84-4.57-16.32-5.15-20.39-4.69-33.28,5.02-52.04,23.2-78.03,1.12-1.6,9.89-11.88,8.58-13.14-.37-.36-1.95.06-2.59.59Z"/>
    <path class="cls-8" d="M68.71,175.31c9.34-4.77,20.42-6.11,29.21-11.75.37-.24.18-.82-.26-.79-9.72.7-20.2,2.78-29.13,6.56-25.09,10.62-30.91,36.14-22.6,60.53,1.44,1.08,2.14-3.18,2.24-3.83.95-5.97-.07-10.47.08-16.15.38-15.17,6.81-27.61,20.46-34.58Z"/>
    <path class="cls-8" d="M29.44,86.21c-6.75,16.6-7.13,41.52-6.13,59.39.1,1.82,1.8,15.28,3.4,17.36.16.21.47.23.69.07.94-.73.21-1.15.17-1.98-1.31-27.81-4.02-58.43,10.15-83.37,8.67-15.25,31.41-31.06,21.27-50.04-.18-.33-1.15-2.14-2.04-3.05-.37-.38-.98.04-.79.53,4.4,11.01,2.65,18.48-4.2,27.99-8.47,11.75-16.71,18.79-22.53,33.09Z"/>
    <path class="cls-8" d="M46.56,167.63c2.6-1.65,5.6-2.62,8.15-4.22.38-.24.21-.83-.23-.85-6.51-.3-12.75,2.79-17.51,7.07-15.45,13.9-11.18,45.33-10.16,64.01.41,7.54-.27,15.38,1.7,22.7.03.12.1.23.21.28,1.87.86,3.23-8.22,3.3-9.08,2.07-24.57-10.78-63.87,14.54-79.9Z"/>
    <path class="cls-8" d="M17.6,128.56c-.7-.92-1.05,0-1.16.85-.64,5.29-.37,10.93-.58,16.23-.6,14.59-.84,29.38-.6,44.06.36,21.32.46,42.98,1.16,64.31.17,5.34.37,12.73,1.26,17.86.13.75.15,2.95,1.37,2.68.67-.2,1.41-4.58,1.47-5.49,1.33-17.57-1.05-36.76,0-54.51-2.89-25.96-1.45-52.21-2.94-78.17-.15-2.59.16-5.25.02-7.84Z"/>
    <path class="cls-8" d="M61.73,17.12c-.61-.2-1.18.43-.91,1.02,1.48,3.25,6.58,5.03,9.8,5.41,14.27,1.68,32.29-7.79,39.34-20.21,8.01-14.1,5.26-30.78-2.73-44.22-.68-1.14-5.89-8.69-6.36-8.97-.12-.07-.35-.14-.6-.18-.55-.08-.99.46-.81.99,3.32,9.63,10.24,17.95,11.29,28.39,2.86,28.39-23.21,46.35-49.02,37.76Z"/>
    <path class="cls-8" d="M49.71-3.62c4.86,5.44,8.75,14.34,15.91,16.53,12.09,3.7,34.06-8.53,38.12-20.42,3.42-10.02.85-20.41-4.52-29.13l-1.15.29c-.39,2.99,2.23,6.76,3.06,9.68,2.23,7.82,1.4,17.24-3.92,23.63-5.75,6.91-21.57,15.04-30.45,12.47-5.69-1.64-12.85-13.83-17.93-18.57-1.46-1.37-9.45-7.91-10.74-8.39-1.09-.41-1,.59-.74,1.32,1,2.8,9.66,9.57,12.34,12.57Z"/>
    <path class="cls-8" d="M63.24,87.16c.05-.31-.32-.53-.55-.32-1.81,1.64-5.78,12.95-6.04,13.84-3.76,12.72-5.9,27.37,4.92,37.37,12.16,11.25,40.68,4.18,56.02,2.33,1.6-.19,3.97.63,5.1-.68.17-.19.04-.51-.22-.54-19.3-2.71-58.92,12.78-64.81-15.15-1.37-6.48.42-15.2,1.78-21.7,1.07-5.09,2.9-10.05,3.8-15.14Z"/>
    <path class="cls-8" d="M180.77,17.2c.39-.47-.2-1.13-.71-.8-2.91,1.89-7.97,6.04-9.18,6.73-18.82,10.8-44.04,5.94-64.72,15.81-14.51,6.92-28.82,18.4-35.83,33.1-.27.56.48,1.04.89.58.52-.58.97-1.34,1.35-1.81,11.48-14.5,21.06-24.48,39.12-30.99,22.93-8.26,52.49-2.36,69.09-22.63Z"/>
    <path class="cls-8" d="M90.4,40.23c-.47.42.02,1.19.6.97,7.6-2.82,14.33-7.43,22.13-9.76,13.94-4.17,28.81-2.98,42.77-6.48,3.49-.87,7.62-2.02,10.15-4.74.39-.41,0-1.1-.54-.97-3.05.68-5.91,2.18-8.92,2.92-21.77,5.39-46.89.62-65.42,17.43-.26.23-.54.42-.78.63Z"/>
    <path class="cls-8" d="M100.67,17.81c-8.53,6.66-23.35,12.85-34.32,9.71-.71-.2-1.18.71-.62,1.18.27.22.57.42.87.62,8.85,6.07,29.66-4.24,36.97-10.35,9.74-8.14,19.86-21.49,16.27-34.82-.16-.61-1.01-.71-1.28-.13-.58,1.26-.02,3.21-.2,4.54-1.69,12.36-7.97,21.67-17.68,29.25Z"/>
    <path class="cls-8" d="M117.52,10.89l-6.67,8.34-.07.07c-4.1,3.43-7.66,6.88-12.32,9.63-7.8,4.61-18.93,7.21-23.55,15.53-.22.4.2.87.62.68,4.22-1.89,7.54-5.4,11.72-7.72,3.91-2.18,8.27-3.53,12.15-5.81,7.19-4.22,16.22-11.91,18.95-20.28.17-.51-.5-.87-.84-.45Z"/>
    <path class="cls-8" d="M112.83,485.39c-25.97-16.93-42.73-66-48.18-95.51-3.5-18.94-6.47-43.83-5.42-62.99.46-8.36,2.88-16.73,2.68-25.07-.01-.5-.66-.71-.97-.32-1.5,1.88-1.88,4.38-2.45,6.69-12.62,50.99,4.13,146.33,49.24,178.82,4.23,3.05,10.72,7.6,16.03,6.55.24-.05.41-.26.43-.5.05-.68-.12-.98-.65-1.59-1.19-1.37-8.4-4.57-10.72-6.08Z"/>
    <path class="cls-8" d="M50.42,308.22c2.14-6.96,6.05-13.33,7.68-20.41-1.45-.29-1.46.19-2.23.95-6.13,6.06-11.71,23.44-13.24,31.95-7.78,43-4.08,103.89,23.11,139.93,2.16,2.86,7.98,10.23,7.76,2.13-19.91-32.58-29.77-70.33-28.74-108.65.37-13.87,1.6-32.68,5.67-45.9Z"/>
    <path class="cls-8" d="M66.84,260.34c8.95-5.56,19.43-6.37,29.78-5.54,5.5.44,10.9,2.9,16.52,2.31,1.53-1.34-7.01-4-7.67-4.2-46.55-14.35-65.56,25.18-76.49,62.28-6.67,22.62-6.15,41.19-6.19,64.49,0,5-.79,10.34,0,15.59.71,4.63,5.69,4.67,6.34-1.13,1.63-14.66-1.37-32.26-.6-47.53,1.22-24.34,16.67-72.81,38.31-86.25Z"/>
    <path class="cls-8" d="M35.9,440.66c-1.91-8.43-2.66-17.83-5.31-25.97-.29-.89-1.86-6.19-3.18-5.21-3.28,8.31-1.35,18.66.17,27.34,3.22,18.34,9.96,40.9,15.05,59.11,4.9,17.53,10.65,33.99,20.99,49.11l2.01.59c-4.22-18.53-11.63-36.02-16.63-54.33-4.48-16.4-9.35-34.12-13.09-50.64Z"/>
    <path class="cls-8" d="M168.17,145.31c.19-.36-.23-.74-.58-.53-4.64,2.79-8.27,7.01-12.79,10.01-21.62,14.36-48.94,10.85-71.42,22.44-13.19,6.81-29.84,21.32-27.55,37.82.17,1.2,2.15,7.13,3.76,6.31.15-.07.23-.24.22-.4-2.16-22.93,18.76-38.47,38.4-44.54,23.97-7.41,56.7-5.23,69.96-31.1Z"/>
    <path class="cls-8" d="M16.33,433.07c-.34-2.09-.8-4.16-1.76-6.06-7.55-.93-3.7,10.69-3.39,15.26,1.04,15.53,2.57,30.86,4.06,46.35.9,9.36.83,20.45,2.38,29.49.54,3.13,2.96,5.18,5.93,3.28,1.47-.94,1.05-9.74.96-11.91-1.03-23.33-4.4-53.32-8.18-76.41Z"/>
    <path class="cls-8" d="M135.15,174.84c-2.25-.34-4.05.5-6.09,1.15-13.12,4.17-40.64,15.18-49.82,24.91-10.59,11.23-12.95,26.61,1.86,35.24,11.27,6.56,25.22,7.81,37.21,14.93,7.13,4.24,12.48,11.07,20.32,13.56-.2-.66-.54-1.24-1.02-1.75-6.91-7.22-21.02-16.75-30.28-20.54-11.83-4.86-35.21-7.18-32.86-24.77,2.78-20.85,34.42-28.89,50.46-36.44,3.45-1.62,7.73-3.39,10.22-6.29Z"/>
    <path class="cls-8" d="M64.17,480.17c-2.74-5.27-10.42-24.78-14.43-26.7-.7-.34-1.18-.74-2.06-.54.04,2.17-.16,4.35.15,6.51,2.1,14.7,25.42,52.44,36.92,62.15.52.44,3.67,3.04,4.06,2.6l-.55-2.64c-7.83-13.87-16.74-27.24-24.09-41.38Z"/>
    <path class="cls-8" d="M17.84,309.82c1.03.15,1.12-.76,1.47-1.41,2.81-5.27,4.73-14.18,7.07-20.16,6.18-15.86,16.34-39.78,34.6-44.2,3.52-.85,8.41-.27,11.05-1.11,1.6-.51,2.27-1.83.98-3.07-3.26-3.13-14.45-.29-18.38,1.32-16.81,6.87-27.78,29.52-33.62,45.75-1.12,3.1-7.49,21.84-3.17,22.89Z"/>
    <path class="cls-8" d="M195.4,132.26c-.35-1.85-3.38,1.07-3.78,1.43-9.09,8.06-16.73,20.22-26.34,28.7-19.12,16.88-45.44,21.73-67.02,33.79-5.28,2.95-12.34,7.13-14.67,12.85,7.19-6.05,14.02-9.88,22.61-13.6,25.27-10.95,51.16-17.72,70.38-39.12l18.82-24.04Z"/>
    <path class="cls-8" d="M202.01,277.9c8.78-1.45,15.93-7.03,24.13-10.05,11.21-4.13,23.91-6.2,33-14.79-7.2,1.75-13.66,5.98-20.71,8.54-5.82,2.11-11.71,3.31-17.51,5.67-11.7,4.77-14,7.49-27.71,8.8-.64.06-1.97.68-1.85-.41,10.9-6.13,21.9-12.12,30.42-21.44,2.43-2.66,4.59-5.96,6.94-8.71,1.69-1.98,5.72-4.3,5.23-6.94-6.87,4.94-11.81,12.42-17.98,17.94-5.66,5.06-12.65,8.63-18.76,13.1-1.96,1.44-5.51,5.34-7.24,6.08-.75.32-7.3,1.58-8.16,1.59-1.52,0-2.83-1.05-4.35-1.05-.01.53.54.82.95,1.08,8.49,5.31,23.16,4.41,32.33,7.06,3.01.87,4.57,2.89,7.27,4.02-2.29-9.58-14.88-6.43-22.21-8.2l-9.65-2.22c5.49.08,10.37.84,15.87-.07ZM184.98,277.95h-1.15v-.57h1.15v.57Z"/>
    <path class="cls-8" d="M89.4,490.28c-1.26-1.28-6.42-6.93-7.82-6.65-1.68,1.29-.69,3.2-.17,4.8,2.7,8.33,27.65,34.38,35.62,38.54.65.34,1.02.91,1.91.7,1.67-1.81-7.66-13.41-9.28-15.34-6.01-7.14-13.7-15.34-20.25-22.05Z"/>
    <path class="cls-8" d="M167.16-29.26c-13.84,4.17-28.39,18.4-33.88,31.8-.26.63.56,1.14,1,.61.17-.2.94-1.44,1.12-1.65,2-2.28,3.6-4.63,5.56-7.14,12.96-16.58,26.97-23.63,48.39-22.34,9.26.56,31.56,6.58,38.92,2.48.66-.37.99.03.74-1.29-21.03,1.21-40.96-8.76-61.85-2.47Z"/>
    <path class="cls-8" d="M67.07,275.05c4.96-1.49,10.58-5.67,15.55-7.63,12.07-4.76,23.39-3.55,34.59,2.7,10.61,5.91,18.52,17.6,31.27,18.83-3.52-2.79-7.37-5.16-10.95-7.88-11.38-8.64-19.4-17.57-34.6-19.86-10.8-1.63-24.47,2.25-32.94,9.21-.51.42-5.8,5.48-2.92,4.61Z"/>
    <path class="cls-8" d="M225.91,99.23c.23-.23-.01-.62-.32-.52-15.96,5-31.36,5.37-46.41,13.82-8.88,4.99-14.78,11.83-22.31,18.25-2.66,2.26-6.78,4.54-8.97,6.67-.53.52-1.15.89-1.18,1.63-.01.21.2.37.4.32,11.37-2.84,18.49-13.17,27.49-19.85,9.74-7.23,20.02-11.07,31.68-14.09,6.3-1.63,14.78-1.36,19.62-6.23Z"/>
    <path class="cls-8" d="M176.87,128.48c-.95-.17-1.56.45-2.27.92-4.82,3.14-9.27,8.69-14.35,12.3-6.93,4.92-16.37,9.51-24.52,11.98-2.85.87-23.71,4.8-23.74,6.38,1.45,1.36,4.75,1.01,6.67.89,15.64-.98,36.13-9.6,48.05-19.74,1.36-1.16,11.66-11.25,10.15-12.73Z"/>
    <path class="cls-8" d="M182.95,136.59c8.02-6.72,12.03-12.58,22.58-16.82,14.4-5.78,22.44-2.27,36.49-2.28,1.24,0,2.4.48,2.05-1.18-22.33-8.41-53.15-2.04-63.15,21.43,1.09.25,1.38-.61,2.03-1.15Z"/>
    <path class="cls-8" d="M176.47,292.53c-1.88-.61-12.84,2.05-16.09,2.25-23.17,1.44-24.91-7.02-41.61-17.54-.25-.16-.49-.31-.74-.46-2.5-1.52-5.13-2.84-7.88-3.88-2.76-1.04-5.66-1.8-8.61-2-1.42-.1-2.86-.07-4.27.13-1.42.2-2.97.54-4.24,1.2-.4.21-1.74,1.23-.57,1.29.39,0,.75-.08,1.13-.13.24-.03.47-.06.71-.08,1.09-.09,2.21-.07,3.29-.1,3.36-.07,6.82-.13,10.08.82,3.13.91,5.88,2.7,8.54,4.54,2.06,1.43,4.05,2.95,6.03,4.48,2.02,1.57,4.02,3.16,6.04,4.72,1.89,1.45,3.81,2.88,5.8,4.18,1.68,1.1,3.43,2.14,5.3,2.89,11.89,4.75,25.88,1.28,38.05-.69.16-.79-.21-1.4-.97-1.65Z"/>
    <path class="cls-8" d="M248.29-23.79c.26-.32-.1-.78-.46-.59-3.38,1.75-6.23,4.6-9.74,6.38-13.44,6.82-29.45,5.11-43.96,8.76-12.12,3.04-21.45,9.83-31.22,17.11-.35.26-.06.81.36.67,6.67-2.28,12.01-7.51,18.22-10.71,13.9-7.15,26.68-6.07,41.28-8.55,9.58-1.63,19.22-5.52,25.53-13.06Z"/>
    <path class="cls-8" d="M282.89,145.87c-13.75-5.29-24.02-17.11-37.84-22.71-11.32-4.58-22.7-4.17-34.04-.08-.3.11-.47.43-.39.74.09.34.43.53.77.44,13.67-3.88,25.21-2.5,37.72,4.12,9.12,4.83,22.56,17.39,31.83,18.58,1.21.16,2.31.54,1.96-1.09Z"/>
    <path class="cls-8" d="M188.51,116.08c-.61.42-4.33,2.94-3.53,3.71,6.94-2.64,13.41-6.08,20.61-8.06,7.74-2.14,16.88-2.53,23.72-6.98,7.35-4.78,10.94-12.93,11.86-21.45-1.36-1.56-4.39,7.66-4.71,8.31-10.27,20.59-31.3,12.89-47.95,24.47Z"/>
    <path class="cls-8" d="M191.63,284.34c-9.37-.65-18.14,2.35-27.3,3.39-3.31.38-6.76-.21-10.06.66.18,1.02,1.16,1.01,1.94,1.24,13.13,3.95,28.73-6.77,45.96-.19,8.24,3.15,11.98,8.93,17.56,15.17-3.35-12.25-15.99-19.44-28.1-20.27Z"/>
    <path class="cls-8" d="M292.62,144.59l.09.02c3.1.07,8.97-.13,11.55-2.28.25-.21.06-.63-.27-.57-1.29.22-2.82.29-4.33.38-1.57,0-3.13.3-4.87.27-2.37-.05-6.95-1.06-9.37-1.68-15.65-4.05-23.18-20.42-39.61-22.09-.33,1.48.4,1.01,1.09,1.5,2.85,2.02,6.48,3.51,9.52,5.56,12.07,8.14,19.92,18.89,36.2,18.9Z"/>
    <path class="cls-8" d="M260.87,117.77c-7.44-1.86-14.73-7.53-22.67-6.05-.29.05-.31.46-.02.54,10.19,2.94,19.65,9.56,30.49,9.87,6.11.18,18.18-2.17,23.1-5.92.8-.61,1.96-1.28,2.12-2.36.03-.2-.18-.37-.37-.3-11.19,3.81-20.64,7.22-32.65,4.22Z"/>
    <path class="cls-8" d="M195.99-3.61c-13.01,2.34-23.37,12.22-35.35,17.08-6.95,2.82-13.46,3.22-20.39,5.11-.59.16-1.76.14-1.62.97,5.23,1.39,11.26.12,16.46-1.19,11.53-2.91,28.42-14.12,39.16-20.51.63-.38,3.39-1.17,1.73-1.45Z"/>
    <path class="cls-8" d="M171.77,277.21c1.24-.43,3.3-.91,3.93-2.14l-15.35,1.15c-6.73-.68-12.97-1.92-19.22-4.53-5.75-2.4-10.72-6.3-16.4-8.79-.66.62,2.68,3.61,3.2,4.04,11.2,9.34,29.7,15.14,43.85,10.27Z"/>
    <path class="cls-8" d="M84.22,227.21c3.18,2.81,10.19,4.19,14.25,6.03,13.91,6.3,25.49,14.36,38.15,22.68,1.13.46,1.1-1.18.77-1.65-.17-.23-4.17-2.05-5.1-2.72-4.31-3.14-8.17-6.98-12.6-9.99-11.15-7.58-24.28-11.31-36.68-16.33-.23,1.09.55,1.4,1.2,1.98Z"/>
    <path class="cls-8" d="M263.21,84.17c-2.94,3.42-4.57,8.03-7.81,11.31-7.78,7.89-18.84,9.46-28.68,13.03-.66.24-2.33.61-2.34,1.42,17.7.09,36.64-9.97,41.71-27.8-.59-.63-2.48,1.57-2.88,2.04Z"/>
    <path class="cls-8" d="M156.85-29.8c-3.12,1.15-6.13,3.33-8.79,5.2-9.8,6.88-20.37,16.51-24.35,28.08-.08.23.09.47.32.49.83.04,1.18-.3,1.85-.91,1.99-1.82,4.87-7.26,6.96-9.84,7.15-8.85,16.32-14.72,24.37-22.4.28-.27,0-.75-.38-.61Z"/>
    <path class="cls-8" d="M196.18,3.24c-2.54,1.42-5.93,3.22-7.14,5.89,1.41,1.06,7.5-3.28,9.05-3.98,12.06-5.46,20.23-4.46,32-7.4.51-.13,6.73-1.9,5.3-3.1-13.59,1.86-26.93,1.74-39.2,8.59Z"/>
    <path class="cls-8" d="M254.82,290.68c4.64.28,9.47,1.72,14.17,1.76-3.65-3.26-10.52-4.35-15.32-4.66-5.84-.37-11.91.93-17.4.6-4.73-.29-9.47-2.52-14.2-2.88,8.69,7.87,21.97,4.53,32.76,5.18Z"/>
    <path class="cls-8" d="M293.46,299.81c-9.65,1.75-14.62,2.27-24.48-.12-3.67-.89-16.17-6.13-18.8-5.5-1.78.42-.13,1.56.84,2.02,10.8,5.13,30.4,10.52,41.71,5.78,2.28-.96,4.5-2.87.73-2.18Z"/>
    <path class="cls-8" d="M267.82,253.05c-3.93,1.59-6.59,4.58-10.61,6.47-5.14,2.42-12.04,4.83-17.47,6.86-5.21,1.95-11.63,2.92-15.94,6.36,11.37-2.58,24.08-6.38,34.57-11.48,1.29-.63,11.2-6.49,9.46-8.21Z"/>
    <path class="cls-8" d="M314.75,102.99c-6.53,4.07-11.85,9.76-18.52,13.63-2.82,1.63-6.27,2.76-9.01,4.31-.79.45-1.68.48-1.42,1.76,6.11-.52,11.66-3.46,16.64-6.82,4.67-3.16,10.21-7.59,12.32-12.87Z"/>
    <path class="cls-8" d="M238.55,286.09c6.65.44,13.8-1.41,20.25-.55,5.32.7,11.47,5.11,16.99,6.18,1.14.22,2.9.75,2.47-1.01-7.89-1.75-14.47-7.27-22.91-7.55-4.29-.14-9.44,1.49-13.88,1.63-2.74.08-6.56-1.02-9.56-.46.98,1.43,4.9,1.64,6.64,1.76Z"/>
    <path class="cls-8" d="M266.67,295.05c10.33,4.98,26.37,4.48,35.34-3.18-5.45.65-10.45,3.53-15.94,4.04-6.73.62-12.91-1.07-19.4-.86Z"/>
    <path class="cls-8" d="M271.04,126.2c-.49-.17-.87.46-.48.81,5.94,5.3,13.15,11.15,21.34,11.35.75.02,1.59.04,2.12-.42.31-.27.11-.78-.29-.82-9.02-.92-14.75-8.12-22.69-10.92Z"/>
    <path class="cls-8" d="M208.74,297.36c-4.5-2.69-10.38-5.05-15.65-4.91-.32,1.54.39,1,1.14,1.44,3.28,1.93,7.26,2.75,10.65,4.44,3.29,1.63,5.69,4.31,9.06,5.13.46-3.11-2.93-4.73-5.2-6.09Z"/>
    <path class="cls-8" d="M269.95,86.07l-15.45,20.78c-.28.37.13.88.55.67,3.15-1.56,10.87-10.7,11.86-12.12,1.86-2.67,3.69-5.71,3.84-9.04.02-.44-.54-.66-.8-.3Z"/>
    <path class="cls-8" d="M187.88,5.37c.32-.38.74-.64.99-1,.33-.47-.21-1.07-.73-.83-3.22,1.51-13.96,9.5-17.95,12.91-.46.39-.07,1.14.52,1,6.46-1.62,13.12-7.25,17.17-12.09Z"/>
    <path class="cls-8" d="M217.03,262.79c-1.01.5-10.16,6.33-8.87,7.63l11.19-5.89,13.13-5.11c-5.1-.18-10.86,1.11-15.45,3.37Z"/>
    <path class="cls-8" d="M129.94,5.08c-.89-.96-4.23,4.29-4.56,4.99-3.15,6.74-.28,12.66,7.67,10.57,3.6-.95-4.3-2.46-4.69-2.68-4.27-2.34,2.5-11.88,1.58-12.88Z"/>
    <path class="cls-8" d="M296.51,111.11c2.89-1.96,10.46-10.55,11.07-13.89.18-.97.11-1.47-.93-1.76-1.77,4.36-5.7,8.71-8.97,12.18-1.09,1.16-3.08,2.12-3.8,3.16-1.38,2,1.47,1.09,2.63.3Z"/>
    <path class="cls-8" d="M228.43,239.15c-.45-.41-3.5,2.11-4.06,2.59-2,1.71-6.98,6.43-8.42,8.38-.58.79-1.09,1.17-.84,2.34,1.28,1.38,12.49-11.89,13.32-13.32Z"/>
    <path class="cls-8" d="M296.8,123.85l-14.96,3.89-1.26,1.31c5.23-.55,12.91-.58,16.22-5.21Z"/>
    <path class="cls-8" d="M238.86,239.73c-.63-.63-3.55,2.62-4.07,3.17-.82.87-9.17,9.69-8.67,10.15,1.09.25,1.38-.61,2.03-1.15,1.21-1.01,11.63-11.24,10.72-12.16Z"/>
    <path class="cls-8" d="M324.82,142.37c-9.83-1.77-10.49,1.29-18.22,3.87-2.97.99-6.18.87-9.11,1.91-.3.1-.3.53,0,.64,6.38,2.32,13.39-3.84,19.33-4.45,6.01-.61,10.14,1.94,15.46,1.22.3-.04.41-.44.15-.6-1.94-1.27-5.58-2.21-7.61-2.57Z"/>
    <path class="cls-8" d="M373.54,129.97c-9.01.04-19.8-1.96-25.68,6.43-.18.26.07.6.36.49,2.18-.81,3.88-2.63,6.1-3.52,5.51-2.21,11.3-1.26,17.01-1.75.94-.08,2.63-.19,2.53-1.35-.01-.17-.15-.3-.32-.3Z"/>
    <path class="cls-8" d="M332.77,140.52c-2.93,0-5.81-1.6-8.66-.74-.19.06-.23.32-.07.43,5.38,4.08,12.59.93,18.88,1.31.23.01.35-.26.19-.42-2.49-2.57-7.23-.58-10.35-.58Z"/>
    <path class="cls-8" d="M317.24,137.04c.97-.34,1.02-.87.97-1.64-.02-.25-.22-.46-.47-.48-2.18-.16-4.05.27-6.15.89-1.15.34-3.64,1.04-4.28,2.32-.17.34.12.74.5.71,2.11-.17,8.57-1.49,9.42-1.79Z"/>
    <path class="cls-7" d="M270.75,161.33c3.08,2.6-.06,8.35,1.01,9.86,2.62,1.29,6.92-.21,9.48,1.69,2.93,2.18-.61,12.6,6.93,12.21,5.43-.28,4.26-6.54,5.25-9.96,2.06-7.13,8.59-5.42,10.47-7.76,1.72-2.14.22-6.14,3.47-8.88,5.14-4.31,8.17,2.83,13.12.18,3.14-1.68,1.55-8.22,7.12-9.39,4.53-.95,5.92,3.44,8.92,3.64,3.14.21,4.9-4.71,9.29-2.88,3.69,1.54,3.2,4.84,5.32,7.63l8.73,2.28,2.77,6.79c1.77,1,3.78-.32,5.46-.17,4.81.44,5.43,8.05,9.06,8.61,2.74.42,3.07-5.96,3.53-7.45,2.07-6.79,4.56-1.35,7.24-2.73,1.66-.85.94-4.9,2.97-6.45,2.67-2.04,6.25.71,9.05.27,3.18-.5,5.19-7.76,11.15-7.05,6.28.74,6.87,9.81,7.08,14.72,3.15,1.74,6.71.31,9.48,2.87,2.82,2.6,1.42,5.6,2.7,8.77,3.18.55,10.32.31,12.14,3.44,2.23,3.84-2.99,7.76-2.17,10.36.35,1.12,8.24,3.38,9.22,6.69,1.68,5.63-4.92,8.43-.21,13.14,4.71,4.72,9.61-5.08,16.77-2.65,6.9,2.35,2.33,10.95,5.33,13.48,2.63,2.22,12.51.88,14.38,5.02,2.67,5.93-5.52,11.24-4.32,14.88,1.01,3.07,16.31,1.93,13,12-1.34,4.08-6.44,5.71-6.59,8.15-.32,5.35,8.05,7.86.26,14.34-1.69,1.41-6.13,3.21-6.9,4.86-1.2,2.56.35,5.08.17,7.78-.59,8.74-11.06,5.23-16.07,2.55-2.35-1.26-8.91-6.64-10.79-6.81-3.58-.31-2.52,6.65-7.58,7.47-7.32,1.19-10.8-5.46-14.04-5.25-6.01.39-10.93,19.43-21.46,10.83-4.92-4.02-2.7-9.7-4.87-13.94-.91-1.79-4.33-2.85-5.03-5.55-.46-1.79.27-3.69-.43-5.45-.9-1.51-5.24-.66-6.8-3.19-1.65-2.68-.47-7.27-1.42-9.16-.54-1.07-2.55-1.09-3.54-2.34-1.15-1.45-.96-3.97-2.33-5.32-2.11-2.08-6.77-.67-9.74-1.43-2.66-.68-5.5-4.01-7.96-4.4-3.88-.61-7.82,1.99-13.23.89-4.25-.86-5.31-3.74-8.25-5.86-7.7-5.56-6.15,2.18-11.11,3.49-4.17,1.1-7.04-1.12-9.59-.78-2.83.38-6.17,5.18-10.89,5.64-4.08.39-11.5-3.22-14.4-1.52-2.96,1.73-4.39,11.57-8.94,15.17-5.52,4.37-20.31,7.73-22.5-1.6-.54-2.31.38-5.94-2.06-7.39-2.49-1.2-8.92,4.52-15.1.44-2.85-1.88-2.93-5.87-4.15-6.47-5.26,1.21-9.52-.16-11.21-5.51-3.72.7-5.99,2.82-10.1,2.18-4.93-.77-5.54-5.36-6.7-5.7-2.68.58-4.21,1.91-7.11.69-1.3-.55-1.9-2.5-3.87-1.85-.82.27-2.9,4.4-4.48,5.55-6.24,4.53-10.49-4.41-15.91-2.99-6.1,1.6-12.16,19.44-19.93,14.67-2.2-1.35-2.31-3.31-1.23-5.53-5.33.9-6.05-5.02-7.65-8.83-6.27,3.06-10.02,1.67-14.39-3.37-3.11,1.26-5.9,4.12-9.35,2.12-2.45-1.41-1.5-4.26-2.67-6.14-2.08-3.36-10.84-2.84-10.67-8.76.1-3.65,4.94-5.25,5.35-7.69.56-3.34-3.21-6.07-1.05-10.42,1.81-3.64,7.61-3.5,9.3-5.39,2.07-2.32-.06-6.27,2.7-8.47,4.41-3.52,8.82,2.23,12.12,1.59,2-.39,6.31-5.95,9.62-7.48,3.61-1.67,14.03-2.31,15.36-5.22.69-1.5.48-3.69,1.18-5.28,1.81-4.1,7.68-3.43,11.31-3.98,1.68-1.22,1.6-3.42,2.67-4.98,3.52-5.16,9.4,0,11.37-1.27,1.99-6.22,1.08-14.99,10.69-12.01,2.44.75,3.88,4.92,6.45,4.78,3.14-1.7.3-15.07,9.8-10.44,4.29,2.09,9.29,10.67,11.78,11.18,3.19.66,3.03-1.53,5.01-2.39,6.06-2.61,5.68,3.87,9.61,4.25,4.05.4,9.16-5.32,13.59-1.58Z"/>
    <path class="cls-5" d="M253.04,160.7c-7.25-2.47-9.91,6.04-16.77-.56-1.98-1.9-6.18-9.64-9.27-8.76-2.99.85-1.96,7.96-5.49,9.84-4.74,2.52-7.36-4.84-11.57-2.3-2.26,1.36-1.83,7.7-4.81,10.03-3.5,2.73-6.21-.26-9.3.69-2.19.67-2.06,5.87-6.71,6.81-2.26.46-4.65-.34-6.78,1.29-1.62,1.24-2.26,5.27-3.7,7.05-2.9,3.59-10.95,4.02-15.19,5.98-4.69,2.16-7.57,8.12-12.95,7.53-1.75-.19-3.76-1.63-5.35-1.64-4.37-.03-3.59,4.83-5.86,7.58-2.02,2.45-4.18,2.25-6.4,3.6-4.39,2.67-.83,7.36-1.59,11.35-.59,3.14-5.52,5.41-3.7,9.59.77,1.76,5.69,2.05,7.23,3.39,1.32,1.14,2.41,5.94,3.29,6.14,2.47-.8,4.68-2.75,7.46-2.23,3,.57,4.5,3.96,7.33,5.06,2.62,1.01,6.18,1.24,8.99,1.3,1.91,1.64-7.23,3.45-8.38,3.38-4.65-.29-7.33-5-8.99-5.17-2.21-.22-4.78,3.09-7.93,2.13-3.94-1.19-3.5-5.94-4.82-7.27-1.37-1.37-5.8-1.02-8.01-4.63-4.04-6.59,2.38-9.01,3.34-13,.48-1.99-1.24-6.29-.22-9.58,1.18-3.83,6.74-4.66,8.88-6.99,2.14-2.34,1.37-5.4,4.67-7.67,4.76-3.27,9.03.61,11.62-.09,1.5-.41,4.31-3.88,5.76-4.87,4.45-3.04,16.09-4.96,17.89-7.4,1.33-1.8,1.43-4.47,3.54-6.45,3.67-3.43,7.33-1.4,9.87-2.91,1.28-.76,2.17-4.87,4.57-6.16,3.15-1.69,7.54.76,8.78,0,2.08-5.23,3.82-13.09,11.34-11.38,1.41.32,5.46,4.02,6.29,3.4.73-2.83,2.57-9.12,5.74-9.84,8.85-2.01,10.59,11.86,16.88,11.64,2.84-.1,8.85-3.64,10.31,1.14Z"/>
    <path class="cls-5" d="M406.5,284.76c3.85,1.11,2.95,6.97,5.02,9.97,6.06,8.77,13.5-6.45,18.94-8.64,7.93-3.19,7.26,4.59,13.96,3.99,4.83-.44,4.69-7.37,11.12-6.47,2.41.34,7.91,4.64,11.19,5.88,1.44.54,6.56,2.14,7.83,2.2,5.41.27,1.74-5.06,1.86-7.8.18-4.16,4.25-4.34,6.8-6.17,1.18-.85,4.39-4.57,4.75-5.88.78-2.83-3.16-6.49-2.69-10.24.53-4.22,8.6-6.15,6.07-11.97-.88-2.02-9.75-3.66-11.3-6.37-2.91-5.1,4.87-9.01,2.44-14.2-1.67-3.57-11.14-1.22-14.13-9.38-1.13-3.09-.63-7.42-4.35-8.59-4.34-1.36-6.27,2.28-9.73,3-5.09,1.06-8.13-1.83-7.8-6.92,2.36.35,3.02,3.26,5.64,3.52,4.48.44,7.14-5.88,14.38-2.09,5.44,2.85,3.17,9.02,6.48,12.34,3.04,3.04,8.72,1.76,11.72,5.33,3.98,4.74.62,9.54-1.69,14.04.56,2.89,12.78,3.6,12.52,11.63-.19,5.91-5.8,7.76-6.15,10.24-.35,2.43,2.56,5.25,2.85,7.77.64,5.55-6.03,11.73-10.78,13.65-1.27,2.04,2.64,7.78-1.84,11.09-6.25,4.63-19.64-4.19-25.22-7.56l-.85.28c-2.87,5.03-6.81,8.13-12.96,6.51-4.88-1.29-4.38-7.79-11.16-2.37-3.15,2.52-6.88,8.44-10.91,9.08-10.06,1.59-12-7.98-12.01-15.83Z"/>
    <path class="cls-5" d="M392.47,160.79c-1.23,5.21-3.45,7.3-8.94,7.23-1.37,3.79-1.93,9.24-7.26,8.55-4.2-.54-4.35-5.85-6.22-6.75-1.44-.69-3.7-.08-5.45-.42-5.34-1.04-3.79-7.25-5.71-8.4-7.07.3-10.36-2.08-13.89-7.88-3.79,1.78-6.78,2.46-10.82.83-1.64-.66-2.86-2.53-4.87-1.97-2.98.81-4.25,9.71-11.32,9.93-2.68.09-5.57-1.95-8.41-1.1-1.56,3.33-2.19,7.41-5.56,9.43-1.83,1.1-5.43,1.6-6.7,3-2.52,2.77-1.68,10.36-6.25,12.28-2.93,1.23-.33-3.58-.08-4.8,1.11-5.37.72-9.65,6.34-12.47,1.49-.75,3.94-.98,5.08-1.97,1.49-1.3,2.03-4.71,3.04-6.36,4.23-6.88,9.71-.53,14.48-2.54,1.34-.56,3.68-5.72,5.2-7.19,5.28-5.08,9.5,1.44,15.08.39,1.33-.25,2.77-1.55,4.32-1.61,4.66-.16,5.28,5.83,8.62,7.18,2.76,1.11,5.34-.39,8.06,1.35,3.16,2.03,2.19,6.43,3.55,7.62,1.7,1.47,5.63.27,7.87,1.54,1.92,1.09,2.83,5.51,4.2,5.8,1.99.42,2.27-5.62,3.53-7.03,1.66-1.86,5.16-.75,6.73-2.09,1.06-.91,1.48-4.67,2.98-5.83,2.82-2.17,10.22,1.65,13.52-1.77.75-.78.88-2.1,1.77-2.94,3.26-3.08,9.99-1.2,12.47,2.17,3.06,4.15.22,6.54,1.15,10.62.28,1.24,2.74,3.05,1.65,3.66-1.71.94-4.86-.47-5.58-2.07-1.81-4.01,3.37-10.85-3.68-12.22-4.01-.78-3.42,2.3-5.12,4.03-4.02,4.1-12.38.93-13.76,1.82Z"/>
    <path class="cls-5" d="M472.5,275.5c-1.35,1.3-1.18,4.8-4.68,5.6-6.98,1.6-10.42-4.68-14-4.62-3.06.05-4.03,4.36-8.67,3.45-5.01-.98-5.13-7.5-12.46-6.31-5.28.86-6.8,11.65-14.69,10.52-4.13-.59-3.71-4.88-5.37-7-.85-1.09-2.91-1.24-4.06-2.99-1.09-1.66-.9-4.02-1.81-5.24-.75-1.01-2.71-1.24-3.75-2.13-1.98-1.69-3.02-5.62-3.01-8.17,0-1.25-.49-2.44,1.19-2.08.53,2.26,1.7,5.31,3.28,7.02,1.41,1.53,3.93,2.12,4.79,3.14.99,1.17,1.04,3.97,2,5.35,1.06,1.53,3.04,1.43,3.89,2.28,1.18,1.18,1.97,6.27,3.95,6.32,3.46.08,7.17-10.22,13-11.14,1.89-.3,4.72-.19,6.57.41,2.72.89,5.56,5.54,7.61,5.9,1.36.23,3.96-2.69,5.45-3.14,5.83-1.77,9.09,4.91,13.84,5.04,3.33.09,2.46-1.8,3.57-3.51,2.46-3.77,8.93-2.54,9.97-4.14,1.65-4.17-2.36-7.67-2.47-11.58-.07-2.41,1.97-5.03,1.57-7.52-.33-2.05-4.94-3.52-6.48-5.31-4.68-5.43.72-10.09-.86-12.66-3.42-2.37-8.65-1.49-10.76-5.71-.96-1.93-.65-5.84-2.64-6.8-1.74-.84-4.58.62-6.62.75-6.8.46-13.07-3.11-13.75-10.35-.27-2.89.97-5.23.39-8.03-.48-2.31-2.86-3.35-2.8-5.72,9.88,2.49,2.81,13.22,8.21,18.54,5.48,5.4,12.29-.22,16.72,2.69,2.67,1.76,1.75,7.2,3.89,9.04,2.25,1.93,7.8.76,9.84,4.85,1.87,3.74-1.3,5.93-.79,9.01.81,4.94,8.97,4.69,8.56,10.77-.13,1.87-1.86,4.45-1.73,6.51.26,3.86,5.46,6.58,3.06,12.52-1.82,4.52-8.44,2.92-9.99,4.42Z"/>
    <path class="cls-5" d="M373.43,247.28c.33.32.93,1.91.74,2.2-6.46,1.63-12.68,1.66-18.97-.72-3.55-1.34-9.12-6-12.49-5.79-2.47.15-5.36,4-8.36,4.62-3.15.65-5.73-.9-8.55-.32-5.76,1.18-6.84,5.23-15.42,4.57-1.68-.13-3.5-1.19-5.04-.92-4.21.73-5.34,5.85-7.48,9-4.97,7.33-13.64,12.39-22.63,9.43-7.25-2.38-5.89-11.53-8.04-12.51-6.44,2.07-18.08,4.59-17.67-5.59-3.43-.26-7.12,1.06-9.73-1.73-1.06-1.13-1.33-3.09-2.77-3.72l-5.14-.13c.03-1.17,2.66-2.58,3.66-2.85,5.51-1.52,5.18,4.56,7.94,5.38,2.97.89,7.18-2.49,8.83,1.74,1.02,2.61-.49,4.54,3.53,5.28,4.79.89,9.7-3.38,13.25-1.49,4.86,2.58,1.04,12.08,10.71,12.26,13.21.24,14.24-18.08,22.98-19.4,4.19-.64,7.9,1.83,12.76,1,3.4-.58,7.02-3.97,10.29-4.44,2.7-.39,4.96.95,7.95.33,2.97-.62,5.62-4.71,9.49-4.53,5.22.24,11.89,6.92,18.87,7.61,2.52.25,9.84-.68,11.31.74Z"/>
    <path class="cls-5" d="M220.67,168.98l.04,1.72c-7.96-1.08-8.03,8.05-15.14,9.27-1.77.3-3.93-.23-5.44.44-1.69.76-2.19,4.06-4.17,5.24-1.97,1.18-4.75.9-6.74,2.08-2.07,1.24-4.34,5.59-7.15,7.55-4.68,3.27-10.48,3.72-15.48,6.27-3.45,1.76-6.38,4.68-9.67,6.79-4.96,3.16-9.06,4.04-11.61,10.73-1.94,5.08,4.09,3.82,7.2,4.82,4.45,1.44,6.2,7.02,9.37,10.03,3.65,3.46,9.58,5.56,13.5,8.85.81.68,1.98,1.34,1.81,2.59-9.12-.6-15.48-4.65-21.46-11.16-1.36-1.48-2.44-4.28-4.09-5.31-2.19-1.37-5.43-.91-7.96-2.04-7.72-3.46-1.45-13.05,2.11-17.3,3.29-3.93,5.84-3.71,9.83-6.05,3.12-1.83,5.62-4.63,9.01-6.28,4.49-2.18,10.44-2.75,14.53-5.46,3.43-2.28,5.1-6.6,8.9-8.15,1.69-.69,4.69-.77,5.94-1.71.87-.65,1.22-2.33,2.02-3.27,3.79-4.46,6.88-1.41,11-3.7,1.83-1.02,2.37-2.93,3.99-4.24,2.75-2.21,6.32-3.13,9.66-1.72Z"/>
    <path class="cls-5" d="M344.18,222.44c-2.09,4.41-6.08,10.14-11.46,10.03-2.09-.04-3.9-1.32-6.04-.84-5.49,1.22-9.15,9.14-17.42,8.96-1.95-.04-4.74-1.46-6.53-1.43-7.51.16-13.44,16.46-19.83,15.5-5-.76-4.28-8.79-8.83-10.62-4.89-1.97-12.47,2.72-15.72-3.09,1.69-.11,3.16.4,5.01.33,5.43-.23,10.91-3.11,15.57,2.02,1.18,1.3,3.24,7.61,4.91,7.32,1.5-.27,7.18-8.38,8.87-9.98,2.11-1.99,6.62-4.95,9.52-5.06,2.15-.08,4.96,1.33,7.07,1.35,7.63.06,11.48-9.1,19.28-8.62,1.57.1,3.25,1.07,4.64,1,3.84-.2,7.44-5.59,10.96-6.87Z"/>
    <path class="cls-5" d="M263.04,180.69c2.45-3.13,5.79-2.69,9.04-1.1,7.49,3.66,6.07,15.58,17.82,11.21,7.63-2.84,6.18-9.24,9.87-11.88,2.28-1.62,5.99-1.05,8.55-2.04,3.68-1.41,4-6.74,7.22-8.66,2.69-1.6,4.7-.74,7.51-1.31,3.49-.72,7.78-4.83,11.71-1.8-5.93,2.54-10.85,6.2-17.62,5.88-2.44,3.21-3.34,7.44-7.51,8.96-2.11.77-6.02.55-7.52,1.89-1.06.94-1.62,4.13-2.49,5.74-3.5,6.4-12.98,10.86-19.83,7.24-6.38-3.37-6.9-15.21-16.74-14.13Z"/>
    <path class="cls-3" d="M252.7,159.79c-7.25-2.47-9.91,6.04-16.77-.56-1.98-1.9-6.18-9.64-9.26-8.76-2.99.85-1.96,7.96-5.49,9.84-4.74,2.52-7.36-4.84-11.57-2.3-2.26,1.36-1.83,7.7-4.81,10.03-3.5,2.73-6.21-.26-9.3.69-2.19.67-2.06,5.87-6.71,6.81-2.26.46-4.65-.34-6.78,1.29-1.62,1.24-2.26,5.27-3.7,7.05-2.9,3.59-10.95,4.02-15.19,5.98-4.69,2.16-7.57,8.12-12.95,7.53-1.75-.19-3.76-1.63-5.35-1.64-4.37-.03-3.59,4.83-5.86,7.58-2.02,2.45-4.18,2.25-6.4,3.6-4.39,2.67-.83,7.36-1.59,11.35-.59,3.14-5.52,5.41-3.7,9.59.77,1.76,5.69,2.05,7.23,3.39,1.32,1.14,2.41,5.94,3.29,6.14,2.47-.8,4.68-2.75,7.46-2.23,3,.57,4.5,3.96,7.33,5.06,2.62,1.01,6.18,1.24,8.99,1.3,1.91,1.64-7.23,3.45-8.38,3.38-4.65-.29-7.33-5-8.99-5.17-2.21-.22-4.78,3.09-7.93,2.13-3.94-1.19-3.5-5.94-4.82-7.27-1.37-1.37-5.8-1.02-8.01-4.63-4.04-6.59,2.38-9.01,3.34-13,.48-1.99-1.24-6.29-.22-9.58,1.18-3.83,6.74-4.66,8.88-6.99,2.14-2.34,1.37-5.4,4.67-7.67,4.76-3.27,9.03.61,11.62-.09,1.5-.41,4.31-3.88,5.76-4.87,4.45-3.04,16.09-4.96,17.89-7.4,1.33-1.8,1.43-4.47,3.54-6.45,3.67-3.43,7.33-1.4,9.87-2.91,1.28-.76,2.17-4.87,4.57-6.16,3.15-1.69,7.54.76,8.78,0,2.08-5.23,3.82-13.09,11.34-11.38,1.41.32,5.46,4.02,6.29,3.4.73-2.83,2.57-9.12,5.74-9.84,8.85-2.01,10.59,11.86,16.88,11.64,2.84-.1,8.85-3.64,10.31,1.14Z"/>
    <path class="cls-3" d="M392.13,159.88c-1.23,5.21-3.45,7.3-8.94,7.23-1.37,3.79-1.93,9.24-7.26,8.55-4.2-.54-4.35-5.85-6.22-6.75-1.44-.69-3.7-.08-5.45-.42-5.34-1.04-3.79-7.25-5.71-8.4-7.07.3-10.36-2.08-13.89-7.88-3.79,1.78-6.78,2.46-10.82.83-1.64-.66-2.86-2.53-4.87-1.97-2.98.81-4.25,9.71-11.32,9.93-2.68.09-5.57-1.95-8.41-1.1-1.56,3.33-2.19,7.41-5.56,9.43-1.83,1.1-5.43,1.6-6.7,3-2.52,2.77-1.68,10.36-6.25,12.28-2.93,1.23-.33-3.58-.08-4.8,1.11-5.37.72-9.65,6.34-12.47,1.49-.75,3.94-.98,5.08-1.97,1.49-1.3,2.03-4.71,3.04-6.36,4.23-6.88,9.71-.53,14.48-2.54,1.34-.56,3.68-5.72,5.2-7.19,5.28-5.08,9.5,1.44,15.08.39,1.33-.25,2.77-1.55,4.32-1.61,4.66-.16,5.28,5.83,8.62,7.18,2.76,1.11,5.34-.39,8.06,1.35,3.16,2.03,2.19,6.43,3.55,7.62,1.7,1.47,5.63.27,7.87,1.54,1.92,1.09,2.83,5.51,4.2,5.8,1.99.42,2.27-5.62,3.53-7.03,1.66-1.86,5.16-.75,6.73-2.09,1.06-.91,1.48-4.67,2.98-5.83,2.83-2.17,10.22,1.65,13.52-1.77.75-.78.88-2.1,1.77-2.94,3.26-3.08,9.99-1.2,12.47,2.17,3.06,4.15.22,6.54,1.15,10.62.28,1.24,2.74,3.05,1.65,3.66-1.71.94-4.86-.47-5.58-2.07-1.81-4.01,3.37-10.85-3.68-12.22-4.01-.78-3.42,2.3-5.12,4.03-4.02,4.1-12.38.93-13.76,1.82Z"/>
    <path class="cls-3" d="M220.33,168.07l.04,1.72c-7.96-1.08-8.03,8.05-15.14,9.27-1.77.3-3.93-.23-5.44.44-1.69.76-2.19,4.06-4.17,5.24-1.97,1.18-4.75.9-6.74,2.08-2.07,1.24-4.34,5.59-7.15,7.55-4.68,3.27-10.48,3.72-15.48,6.27-3.45,1.76-6.38,4.68-9.67,6.79-4.96,3.16-9.06,4.04-11.61,10.73-1.94,5.08,4.09,3.82,7.2,4.82,4.45,1.44,6.2,7.02,9.37,10.03,3.65,3.46,9.58,5.56,13.5,8.85.81.68,1.98,1.34,1.81,2.59-9.12-.6-15.48-4.65-21.46-11.16-1.36-1.48-2.44-4.28-4.09-5.31-2.19-1.37-5.43-.91-7.96-2.04-7.72-3.46-1.45-13.05,2.11-17.3,3.29-3.93,5.84-3.71,9.83-6.05,3.12-1.83,5.62-4.63,9.01-6.28,4.49-2.18,10.44-2.75,14.53-5.46,3.43-2.28,5.1-6.6,8.9-8.15,1.69-.69,4.69-.77,5.94-1.71.87-.65,1.22-2.33,2.02-3.27,3.79-4.46,6.88-1.41,11-3.7,1.83-1.02,2.37-2.93,3.99-4.24,2.75-2.21,6.32-3.13,9.66-1.72Z"/>
    <path class="cls-3" d="M262.7,179.78c2.45-3.13,5.79-2.69,9.04-1.1,7.49,3.66,6.07,15.58,17.82,11.21,7.63-2.84,6.18-9.24,9.87-11.88,2.28-1.62,5.99-1.05,8.55-2.04,3.68-1.41,4-6.74,7.22-8.66,2.69-1.6,4.7-.74,7.51-1.31,3.49-.72,7.78-4.83,11.71-1.8-5.93,2.54-10.85,6.2-17.62,5.88-2.44,3.21-3.34,7.44-7.51,8.96-2.11.77-6.02.55-7.52,1.89-1.06.94-1.62,4.13-2.49,5.74-3.5,6.4-12.98,10.86-19.83,7.24-6.38-3.37-6.9-15.21-16.74-14.13Z"/>
    <path class="cls-7" d="M335.21,324.99c-2.45-2.3-4.84-10.58-6.22-11.17-2.73-1.16-5.03,1.32-7.52,2.25-12.44,4.64-16.17-3.88-16.15-14.99-5.23-2.11-10.63-3.54-10.92-10.27-.22-5.07,3.11-6.08,3.56-8.87.61-3.87-3.41-6.22.57-11.15,3.49-4.32,9.4-2.92,11.06-4.52,1.35-1.3,1.14-6.85,3.51-8.7,3.25-2.54,6.44,1.17,9.71.5,1.82-.37,4.22-3.67,6.5-4.71,5.25-2.38,11.88-.83,16,3.02,1.4,1.31,3.67,5.28,5.39,5.79,3.22.96,7.13-1.02,10.6,1.16,2.81,1.77,2.45,4.88,4.01,7.16,4.21,6.19,16.08-2.77,21.34,5.71,4.04,6.52-2.09,11.32-1,14.5.53,1.54,9.11,5.56,10.24,9.18,1.07,3.42-.55,8.07-3.55,10.04-3.37,2.21-9.59,1.31-11.74,3.55-4.02,4.2,3.91,15.89-7.51,15.69-7.77-.14-10.28-4.2-15.55-7.97-6.51-4.65-6.23.64-9.87,4.04-3.59,3.36-8.93,3.08-12.46-.23Z"/>
    <path class="cls-5" d="M350.64,263c-6.29-.85-9.74-8.65-16.71-7.6-2.82.42-5.7,3.75-8.52,4.42-2.92.68-8.06-.48-10.22.81-1.02.61-2.2,4.11-3.09,5.29-3.04,4.02-7.96,3.31-10.52,6.53-2.58,3.25-1,7.54-1.64,11.3-.46,2.73-3.07,5.42-2.79,8.31.46,4.76,5.41,4.33,8.42,6.33,3.89,2.58,2.59,6.53,3.78,10.33.98,3.11,3.86,5.23,6.01,7.52.25,1.24-.58.95-1.46.88-3.96-.34-6.95-3.45-8.22-7.07-.85-2.43-.57-6.33-1.54-7.87-1.46-2.3-9.06-2-10.39-8.42-1.09-5.28,1.34-6.35,2.08-9.99.92-4.54-.79-8.29,2.49-12.8,3.37-4.64,7.6-3.74,10.3-6.16,2.05-1.83,2.12-5.8,5.35-7.58,4.12-2.28,6.49-.16,9.77-.79,1.95-.37,4.24-2.54,6.1-3.34,6.47-2.76,10.22-.73,15.23,3.44.69.57,6.23,5.87,5.57,6.48Z"/>
    <path class="cls-5" d="M387.68,281.82l-1.08,9.6c4.45,2.93,8.63,3.01,9.25,9.57.92,9.73-7.57,10.09-13.76,14.33-.65,4.7.52,9.36-3.81,12.66-7.37,5.62-17.87-1.38-23.82-6.21-1.89-.01-4.86,6.45-9.92,6.43-.8,0-6.3-1.18-4.16-2.29,5.57.55,9.47-7.39,13.5-7.68,3.95-.29,9.16,6.05,14.83,6.95,11.28,1.78,7.9-3.96,9.01-10.7,1.05-6.41,16.51-4.64,14.42-13.88-1.02-4.53-5.58-3.36-8.14-5.82-3.58-3.44-.16-8.71,2.16-11.84.49-.66-.01-1.46,1.51-1.11Z"/>
    <path class="cls-5" d="M344.77,266.53c-8.16-3.94-11.81,1.71-18.02,4.62-6.84,3.22-11.32,2.94-15.75,10.71-3.41,5.97,3.02,6.71,6.13,10.84,2.59,3.45,3.57,8.47,7.64,11.18.27,1.42-1.1.91-1.91.74-6.33-1.35-6.19-4.99-9.25-8.97-1.88-2.44-7.16-5.31-7.97-7.91-2.35-7.53,7.23-15.91,13.53-18.28,1.94-.73,4.07-.86,6.01-1.63,6.4-2.53,13.06-9.31,19.59-1.29Z"/>
    <path class="cls-5" d="M376.51,304.76c-.19,2.07-2.59,2.73-3.26,4.68-.91,2.65-.16,8.86-3.62,9.9-5.96,1.78-8.22-4.71-13.22-5.94-2-.49-3.74-.49-5.77-.41,1.26-3.79,6.85-3.17,9.81-1.87,2.7,1.18,4.61,4.57,7.82,4.23.3-5.67,1.48-10.72,8.23-10.58Z"/>
    <path class="cls-3" d="M350.3,262.1c-6.29-.85-9.74-8.65-16.71-7.6-2.82.42-5.7,3.75-8.52,4.42-2.92.68-8.06-.48-10.22.81-1.02.61-2.2,4.11-3.09,5.29-3.04,4.02-7.96,3.31-10.52,6.53-2.58,3.25-1,7.54-1.64,11.3-.46,2.73-3.07,5.42-2.79,8.31.46,4.76,5.41,4.33,8.42,6.33,3.89,2.58,2.59,6.53,3.78,10.33.98,3.11,3.86,5.23,6.01,7.52.25,1.24-.58.95-1.46.88-3.96-.34-6.95-3.45-8.22-7.07-.85-2.43-.57-6.33-1.54-7.87-1.46-2.3-9.06-2-10.39-8.42-1.09-5.28,1.34-6.35,2.08-9.99.92-4.54-.79-8.29,2.49-12.8,3.37-4.64,7.6-3.74,10.3-6.16,2.05-1.83,2.12-5.8,5.35-7.58,4.12-2.28,6.49-.16,9.77-.79,1.95-.37,4.24-2.54,6.1-3.34,6.47-2.76,10.22-.73,15.23,3.44.69.57,6.23,5.87,5.57,6.48Z"/>
    <path class="cls-3" d="M344.43,265.62c-8.16-3.94-11.81,1.71-18.02,4.62-6.84,3.22-11.32,2.94-15.75,10.71-3.41,5.97,3.02,6.71,6.13,10.84,2.59,3.45,3.57,8.47,7.64,11.18.27,1.42-1.1.91-1.91.74-6.33-1.35-6.19-4.99-9.25-8.97-1.88-2.44-7.16-5.31-7.97-7.91-2.35-7.53,7.23-15.91,13.53-18.28,1.94-.73,4.07-.86,6.01-1.63,6.4-2.53,13.06-9.31,19.59-1.29Z"/>
    <path class="cls-7" d="M291.32,324.79c3.79,4.1-1.78,8.09-1.57,11.24.1,1.51,1.97,3.74,2.39,5.93,1.72,9-7.62,5.14-12.71,5.56-6.73.55-4.97,4.19-6.86,9.01-3.57,9.1-13.95,2.24-17.77-3.15-2.59-3.65-3.78-11.18-9.44-11.19-2.5,0-4.23,1.71-6.92,1.11-3.09-.68-3.29-5.46-5.7-6.12-1.82-.5-3.57,2.24-6.31,1.1-2.95-1.22-2.32-3.64-3.24-5.62-1.94-4.17-15.53.18-15.21-10.13.1-3.28,2.93-5.68,3.32-8.49.47-3.35-2.74-7.18.22-10.36,4.12-4.41,9.02-.22,11.81-1.08,3.1-.96,3.04-7.56,8.6-7.79,1.45-.06,2.77.78,4.49.26,2.53-.75,2.08-4.28,7.77-4.03,4.78.21,5.59,3.59,8.48,4.48,3.33,1.03,6.28-.66,10,1.76,5.19,3.37,3.24,9.24,6.47,12.34,3.51,3.37,9.43,1.99,12.59,4.46,3.14,2.47.39,5.67,1.21,6.98.86,1.36,6.71,1.89,8.38,3.71Z"/>
    <path class="cls-5" d="M236.59,295.35c-.88,2.4-3.08,1.45-4.87,1.88-4,.97-3.12,7.05-10.1,7.54-2.15.15-6.81-1.09-8.25.57-1.77,2.04.29,5.98.14,8.38-.24,3.91-4.92,7.97-1.9,12.18,2.32,3.25,9.47.19,13.12,5.69.82,1.24,1.32,4.05,2.44,4.62,2.11,1.06,4.28-.74,6.8.24,3.47,1.35,2.82,5.45,8.18,5.36,1.11-.02,2.12-.63,3.47-.58,3.04.13,6.87,2.33,6.26,5.84-1.97-.17-2.49-2.34-4.53-2.81-3.54-.81-6.36,1.21-10-.59-1.96-.97-3.7-4.36-4.82-4.58-1.99-.38-4.19,1.08-6.95-.1-3.12-1.34-2.39-6.79-6.44-7.67-5.02-1.09-10.15,1.03-11.67-6.56-1.08-5.41,2.22-7.27,2.67-10.97.39-3.26-2.19-7.41.92-10.79,3.55-3.85,9.41-.14,12.78-1.92,2.39-1.27,2.83-5.46,6.12-6.21,2.27-.52,4.44.12,6.64.47Z"/>
    <path class="cls-5" d="M284.35,321.08c1.65,1.65,7.45,1.08,8.9,6.14.96,3.36-1.83,5.77-1.95,8.46-.14,3.07,2.9,5.05,1.47,9.68-1.84,5.97-11.57,2.95-15.46,4.53-2.6,1.05-2.8,4.85-5.44,5.43-.33-11.76,11.07-7.15,17.94-10.57,1.19-3.37-1.59-5.72-1.52-9.12.08-3.99,4.43-7.12.03-9.98-1.59-1.03-3.31-.88-4.84-1.62-3.04-1.47-1.8-3.67-2.58-6.24-1.61-5.3-10.34-3.04-13.74-6.84-1.86-2.08-1.9-6.45-2.33-9.13,2.43,1.29,2.39,5.78,4.12,7.33,2.59,2.32,9.51,1.42,12.95,4.69,2.66,2.53,1.14,5.91,2.47,7.24Z"/>
    <path class="cls-5" d="M232.47,305.35c-1.6,2.77-5.27,2.89-7.86,4.18-4.43,2.21-1.77,2.72-2.14,6.04-.17,1.49-1.6,3.11-1.72,4.72.34,1.4,4.06.68,5.7,1.37,2.36.99,3.62,4.53,5.11,5.47,1.44.91,4.14.81,6.03,1.61.99.42,6.6,3.69,7.44,4.32.67.51,1.21.61.97,1.67-1.94-.15-4.16.3-6.05-.12-1.61-.36-2.89-2.15-4.4-2.66-1.45-.48-3.39-.21-4.98-.9-2.7-1.18-3.99-5.33-5.15-6.02-1.81-1.07-6.25.74-7.79-2.8-1.22-2.81.62-4.75,1.18-7.34.49-2.26-.51-4.32,1.3-6.35,2-2.23,9.36-3.08,12.36-3.21Z"/>
    <path class="cls-5" d="M281.84,339.42c.31-.36-1.18-8.83-1.45-9.39-.64-1.29-7.07-5.63-7.09-9.37l-3.2-2.97c6.08-1.27,6.32,3.52,9.08,6.49,1.24,1.33,3.29,1.87,4.35,3.29.91,1.21,2.63,10.57,2.49,12.27-.41,5.07-10.17,5.3-13.9,5.02-1.05-.08-1.9.17-2.61-.91,3.5-2.79,8.06-3.58,12.32-4.43Z"/>
    <path class="cls-3" d="M236.25,294.44c-.88,2.4-3.08,1.45-4.87,1.88-4,.97-3.12,7.05-10.1,7.54-2.15.15-6.81-1.09-8.25.57-1.77,2.04.29,5.98.14,8.38-.24,3.91-4.92,7.97-1.9,12.18,2.32,3.25,9.47.19,13.12,5.69.82,1.24,1.32,4.05,2.44,4.62,2.11,1.06,4.28-.74,6.8.24,3.47,1.35,2.82,5.45,8.18,5.36,1.11-.02,2.12-.63,3.47-.58,3.04.13,6.87,2.33,6.26,5.84-1.97-.17-2.49-2.34-4.53-2.81-3.54-.81-6.36,1.21-10-.59-1.96-.97-3.7-4.36-4.82-4.58-1.99-.38-4.19,1.08-6.95-.1-3.12-1.34-2.39-6.79-6.44-7.67-5.02-1.09-10.15,1.03-11.67-6.56-1.08-5.41,2.22-7.27,2.67-10.97.39-3.26-2.19-7.41.92-10.79,3.55-3.85,9.41-.14,12.78-1.92,2.39-1.27,2.83-5.46,6.12-6.21,2.27-.52,4.44.12,6.64.47Z"/>
    <path class="cls-3" d="M232.13,304.44c-1.6,2.77-5.27,2.89-7.86,4.18-4.43,2.21-1.77,2.72-2.14,6.04-.17,1.49-1.6,3.11-1.72,4.72.34,1.4,4.06.68,5.7,1.37,2.36.99,3.62,4.53,5.11,5.47,1.44.91,4.14.81,6.03,1.61.99.42,6.6,3.69,7.44,4.32.67.51,1.21.61.97,1.67-1.94-.15-4.16.3-6.05-.12-1.61-.36-2.89-2.15-4.4-2.66-1.45-.48-3.39-.21-4.98-.9-2.7-1.18-3.99-5.33-5.15-6.02-1.81-1.07-6.25.74-7.79-2.8-1.22-2.81.62-4.75,1.18-7.34.49-2.26-.51-4.32,1.3-6.35,2-2.23,9.36-3.08,12.36-3.21Z"/>
    <path class="cls-5" d="M374.23,17.76c1.62.57,2.92-.87,4.38-1.08,5.03-.75,5.78,3.71,9.88,5.22,2.18-.37,2.44-8.73,7.09-10.57,6.29-2.49,8.07,6.05,10.52,5.84,2.71-.24,7.57-9.43,14.65-8.62,7.74.88,5.19,11.13,8.7,13.69,3.02,2.21,9.31-2.13,12.62,2.67,1.64,2.39,1.01,5.91,1.6,8.4.33,1.39,1.7,1.94,1.64,3.35-5.15-.71-3.12-9.4-5.63-11.12-4.9-2.25-8.22,2.97-12.92-1.19-4.57-4.05-.64-17.22-11.25-10.73-4.01,2.46-6.33,8.97-12.16,5.92-2.19-1.15-3.4-5.96-6.41-5.13-4.24,1.17-2.43,15.04-11.78,9.8-1.32-.74-4.15-3.71-4.94-3.93-1.58-.44-2.91,1-4.58,1.13-4.99.39-4.21-4.49-6.58-5.22-2.08-.64-3.89.59-5.75.52-4.48-.17-4.87-5.44-7.32-6.25-2.8-.92-6.41.46-9.29-.7-3.42-1.38-3.84-7.21-7.03-7.68-2.18-.31-5.32,1.88-8.1,1.69-2.97-.2-4.92-3.39-7.51-2.89-3.09.61-5.16,6.67-9.25,5.79l5.26-6.2c5.65-5.06,8.01.66,11.53.9,1.7.11,4.5-1.57,6.52-1.71,7.08-.52,6.35,5.86,9.17,7.17,2.64,1.23,6.94-.21,9.89.69,2.64.81,4.07,5.14,5.83,5.91.53.23,3.08-.89,4.43-.92,3.55-.1,5.84,2.03,6.83,5.27Z"/>
    <path class="cls-5" d="M473.53,73.68c2.76,0,5.28-1.47,8.01-1.69,9.51-.76,15.79,6,11.69,15.21-1.05,2.36-3.66,4.01-3.59,6.49.83,2.88,9.62,4.94,11.12,10.67,2.89,10.98-8.74,13.87-17.23,11.65-.45,2.24,1.07,4.14,1.2,6.19.5,7.87-9.72,5.1-10.03,8.82-.09,1.03,1.09,2.4.3,3.22-9.58-6.5,5.23-8.07,6.51-10.59.25-2.13-1.47-4.06-1.54-6.19-.28-9.36,13.91-.94,16.78-7.34,3.65-8.14-10.06-8.84-11.22-15.85-.8-4.87,8.28-9.51,3.89-15.6-4.76-6.61-16.61,2.37-19.45-2.3-1.75-3.6,1.49-7.64,1.8-11.21,1.01-11.38-14.79-5.25-16.46-11.18-.02-2.1,3.8.09,5.03.26,4.53.61,9.63,0,13.21,3.84,4.65,4.99.95,10.12-.02,15.6Z"/>
    <path class="cls-5" d="M350.48,20.95c-1.46-1.18-6.3-.64-9.05-1.83-2.1-.91-4.93-4.47-5.9-4.73-1.63-.44-3.94,1.1-5.75,1.09-2.51-.01-4.18-2.08-6.99-1.75-4.41.51-7.82,7.58-11.67,10.13-.94.62-9.02,4.66-9.54,4.56-1.66-.3.12-2.52.55-2.97,2.13-2.28,5.57-2.91,7.68-4.66,3.62-3.01,4.55-7.43,9.87-9.53,5.15-2.03,5.48.32,9.52.73,2.6.26,5-1.11,7.39-.35,1.72.55,3.76,3.57,6.03,4.55,3.45,1.49,7.26.32,10.11,2.82.79.7,1.18,1.91,2.02,2.68,2.86,2.62,6.06,1.61,9.17,3.18,2.69,1.36,3.72,5.14,6.57,5.78,2.57.58,5.79-.2,8.56.26,3.19.53,6.13,3.83,9.01,3.94,5.03.2,10.98-7.3,16.1-2.03.04.9-4.44,1.07-5.6,1.44-4.9,1.54-6.53,4.73-12.77,3.42-2.1-.44-4.05-2.83-6.15-3.26-4.16-.86-7.61.9-11.95-1.57-2.47-1.41-3.21-4.11-5.31-5.27-2.49-1.37-5.41-.65-8.16-2.43-1.65-1.07-2.71-3.39-3.72-4.21Z"/>
    <path class="cls-5" d="M382.39,48.99c-.27.26-5.15-2.03-6.2-2.32-3.53-.95-7.68-.83-10.84-2.09-4.33-1.73-11.09-8.72-15.86-10.01-2.68-.73-6.44-.38-9.08-.91-8.11-1.62-12.53-14.66-21.81-4.65-.94-3.19,3.78-6.04,6.51-6.43,7.18-1.02,9.86,6.67,15.88,7.56,3.27.48,6.56.02,9.98,1.19,5.28,1.8,10.9,8.05,15.3,9.98,5.25,2.3,14.34.15,16.11,7.7Z"/>
    <path class="cls-3" d="M373.89,16.85c1.62.57,2.92-.87,4.38-1.08,5.03-.75,5.78,3.71,9.88,5.22,2.18-.37,2.44-8.73,7.09-10.57,6.29-2.49,8.07,6.05,10.52,5.84,2.71-.24,7.57-9.43,14.65-8.62,7.74.88,5.19,11.13,8.7,13.69,3.02,2.21,9.31-2.13,12.62,2.67,1.64,2.39,1.01,5.91,1.6,8.4.33,1.39,1.7,1.94,1.64,3.35-5.15-.71-3.12-9.4-5.63-11.12-4.9-2.25-8.22,2.97-12.92-1.19-4.57-4.05-.64-17.22-11.25-10.73-4.01,2.46-6.33,8.97-12.16,5.92-2.19-1.15-3.4-5.96-6.41-5.13-4.24,1.17-2.43,15.04-11.78,9.8-1.32-.74-4.15-3.71-4.94-3.93-1.58-.44-2.91,1-4.58,1.13-4.99.39-4.21-4.49-6.58-5.22-2.08-.64-3.89.59-5.75.52-4.48-.17-4.87-5.44-7.32-6.25-2.8-.92-6.41.46-9.29-.7-3.42-1.38-3.84-7.21-7.03-7.68-2.18-.31-5.32,1.88-8.1,1.69-2.97-.2-4.92-3.39-7.51-2.89-3.09.61-5.16,6.67-9.25,5.79l5.26-6.2c5.65-5.06,8.01.66,11.53.9,1.7.11,4.5-1.57,6.52-1.71,7.08-.52,6.35,5.86,9.17,7.17,2.64,1.23,6.94-.21,9.89.69,2.64.81,4.07,5.14,5.83,5.91.53.23,3.08-.89,4.43-.92,3.55-.1,5.84,2.03,6.83,5.27Z"/>
    <path class="cls-3" d="M350.14,20.04c-1.46-1.18-6.3-.64-9.05-1.83-2.1-.91-4.93-4.47-5.9-4.73-1.63-.44-3.94,1.1-5.75,1.09-2.51-.01-4.18-2.08-6.99-1.75-4.41.51-7.82,7.58-11.67,10.13-.94.62-9.02,4.66-9.54,4.56-1.66-.3.12-2.52.55-2.97,2.13-2.28,5.57-2.91,7.68-4.66,3.62-3.01,4.55-7.43,9.87-9.53,5.15-2.03,5.48.32,9.52.73,2.6.26,5-1.11,7.39-.35,1.72.55,3.76,3.57,6.03,4.55,3.45,1.49,7.26.32,10.11,2.82.79.7,1.18,1.91,2.02,2.68,2.86,2.62,6.06,1.61,9.17,3.18,2.69,1.36,3.72,5.14,6.57,5.78,2.57.58,5.79-.2,8.56.26,3.19.53,6.13,3.83,9.01,3.94,5.03.2,10.98-7.3,16.1-2.03.04.9-4.44,1.07-5.6,1.44-4.9,1.54-6.53,4.73-12.77,3.42-2.1-.44-4.05-2.83-6.15-3.26-4.16-.86-7.61.9-11.95-1.57-2.47-1.41-3.21-4.11-5.31-5.27-2.49-1.37-5.41-.65-8.16-2.43-1.65-1.07-2.71-3.39-3.72-4.21Z"/>
    <path class="cls-3" d="M382.05,48.08c-.27.26-5.15-2.03-6.2-2.32-3.53-.95-7.68-.83-10.84-2.09-4.33-1.73-11.09-8.72-15.86-10.01-2.68-.73-6.44-.38-9.08-.91-8.11-1.62-12.53-14.66-21.81-4.65-.94-3.19,3.78-6.04,6.51-6.43,7.18-1.02,9.86,6.67,15.88,7.56,3.27.48,6.56.02,9.98,1.19,5.28,1.8,10.9,8.05,15.3,9.98,5.25,2.3,14.34.15,16.11,7.7Z"/>
    <path class="cls-5" d="M389.45,538.49c4.47-1.64,9.16-.92,13.62-1.35,7.16-.69,13.1-1.89,20.62-1.31,10.37.8,27.62,7.88,35.92-.69,4.75-4.9,2.17-10.44-3.04-13.57-5.79-3.48-15.58,3.1-22.08,2.22-1.46-1.22,2.49-1.84,3.07-1.91,5.99-.72,14.59-6.66,19.97-3.93,8.31,4.21,11.79,13.16,4.68,20.45-10.72,10.99-28.89,2.28-41.81,1.38-5.73-.4-12.83-.12-18.68,0-3.85.08-9.48,2.56-12.28-1.29Z"/>
    <path class="cls-6" d="M.37,472.55c1.52,1.54-7.96,10.52-9.3,12.32-13.03,17.56-7.47,41.62,10.54,53.29,27.13,17.59,48.39,6,76.92,4.24,16.6-1.02,35.57.19,51.69,4.17,15.09,3.73,29.33,10.72,44.54,14,7.46,1.61,13.98,1.7,21.44,2.4,1.65,4.47-8.95,3.54-11.91,3.36-27.45-1.66-51.28-17.93-80.47-19.31-39.02-1.85-92.6,23.51-119.58-18.12-12.05-18.59-6.9-49.54,16.11-56.36Z"/>
    <path class="cls-6" d="M-8.28,505.8c1.94,8.2,6.65,16.39,13,21.93,29.45,25.67,61.42-1.59,94.14,4.97,1.26.25,9.34,2.23,7.28,4.36-6.26.3-12.75-.39-18.99-.02-25.77,1.51-47.59,15.03-73.69,1.9-9.51-4.78-22.22-18.47-23.1-29.45-.06-.78-.27-5.31,1.35-3.69Z"/>
    <path class="cls-6" d="M327.65,551.03l-11.96,2.02c.99,6.28,8.04,7.21,6.49,14.8-4.23,20.63-43.07,1.57-54.55-1.69-10.73-3.05-20.6-3.63-31.77-3.15-.24-2.02,2.36-2.21,3.83-2.48,10.67-1.93,21.66-.45,32.09,2.14,12,2.98,30.85,13.2,42.51,7.9,8.87-4.03-1.86-9.54-3.32-13.17-2.46-6.11,3.86-8.83,9.01-9.06,2.1-.1,7.56-.1,7.66,2.69Z"/>
  </g>
  <path class="cls-7" d="M390.01,26.01c1.94-1.2,1.95-16.46,10.65-10.17,1.62.63,3.15,6.3,4.4,6.16,3.93-.44,8.53-10.28,15.32-10.29,7.13-.01,6.99,9.41,8.59,14.33,1.66,1.08,11.19-4.72,14.09,2.67.87,2.21.3,4.2.68,6.37.97,5.56,5.05,2.55,8.69,3.02,4.55.59,7.96,4.04,7.61,8.81-.23,3.12-3.37,6.19-2.66,9.21,1.33,1.94,11.03-.11,15.03,5.56,4.71,6.66-2.37,13.68-.93,15.61,1.14,1.53,10.06-1.38,12.9-1.16,9.77.76,9.84,9.28,4.75,15.8-1.02,1.31-3.61,1.93-2.97,4.17,1.25,4.35,16.09,5.47,14.43,15.53-1.3,7.91-12.47,6.7-18.19,6.21-.75.72,5.63,9.13-1.62,12.19-1.82.77-6.62.89-7.14,2.91-.67,2.61,7.07,5.04,5.69,10.33-.4,1.54-3.17,3.54-3.18,4.85-.04,3.39,12.22,12.37,1.53,18.8-5.39,3.25-10.13-.88-13.09-.18-1.07.25-3.96,4.25-6.26,4.93-10.85,3.23-11.4-8.64-15.9-14.74-3.24-1.6-5.24,4.7-11.02,2.8-8.13-2.68-5.73-8.08-6.66-13.91-.72-4.53-7.53-3.58-11.22-5.83-3.16-1.93-3.33-4.62-5.76-6.61-1.63-.32-4.71,2.47-7.05,3.03-1.55.37-3.57-.04-4.75.54-1.93.94-1.89,8.19-7.97,9.09-3.29.49-7.62-1.37-8.97-4.46-1.13-2.61-.95-6.4-2.71-8.48-1.54-1.81-4.98-2.38-6.78-3.8-1.01-.79-1.32-2.21-2.54-2.8-2.57-1.26-6.87,4.39-10.17,4.85-6.48.9-8.55-5.2-9.59-10.32-.41-2.02.82-6.26-2.81-5.09-5.27,1.71-9.12,7.32-16.1,5.18-3.96-1.22-3.28-7.5-7.4-7.77-4.93-.33-6.04,1.17-11.4-1.65-4.54-2.38-5.73-7.46-7.03-8.27-2.01-1.25-5.45,2.23-8.51-1.48-.85-1.04-1.1-2.77-2.07-3.81-3.26-3.5-6.26.13-9.44,1.17-8.99,2.95-13.99-1.64-12.92-10.86-1.93-.11-4.04.32-5.91-.26-2.28-.7-3.31-3.87-4.48-4.36-2.39-.99-2.3,1.82-3.77,3.1-4.49,3.92-6.51-1.28-8.99-.89-2.61,5.05-8.49,6.11-13.26,3.24-1.71-1.03-2.88-4.26-4.34-4.25-3.32.02-7.53,8.65-14.8,8.13-5.37-.39-6.84-6.3-8.94-6.96-1.99-.62-4.26.57-6.35.53-7.6-.13-6.15-8.19-8.33-8.82-4.36,1.08-7.38,4.94-12.27,4.69-5.15-.26-7.27-6.21-5.9-10.66.47-1.51,3.19-3.41,3.24-4.96.06-1.68-2.2-2.94-2.66-4.39-1.68-5.23,4.87-6.67,8.57-7.68-5.15-10,1.53-9.61,9.33-11.24.7-2.7-1.25-5.27-1.13-7.85.26-5.82,8.9-5.27,13.01-5.85,1.36-8.11,6.09-7.14,12.83-6.28.7-9.97,3.81-6.51,11.26-6.06,1.89-1.29-.05-8.43,3.92-9.62,5.65-1.69,7.94,4.35,10.48,4.6,1.5.15,3.26-1.51,4.82-1.66,5.53-.54,6.04,7.55,7.58,8.07,2.12.72,5.48-3.9,9.21-2.79,2.28.69,3.22,4.84,4.54,5.49,2.54,1.25,6.12-2.41,9.66,1.49,1.8,1.98,1.85,5.31,5.33,5.29,2.04-.01,4.58-2.47,6.53-3.5,1.28-.68,3.42-.66,4.34-1.54,1.58-1.49.53-5.56,3.68-6.9,2.38-1.02,4.52-.15,6.91-.12,2.44-1.22.6-8.63,7.35-9.18,2-.16,3.86.9,5.6.38,2.66-.79,4.22-5.49,6.28-6.11,4.62-1.39,6.39,3.27,9.27,3.46,4,.26,8.83-5.47,11.97-.26,1.08,1.79,1.01,4.16,2.43,5.8,2.04,1.23,7.18-1.07,10.18-.18,2.74.81,3.62,6.99,5.53,7.46,1.68.14,2.8-1.68,4.3-2.05,5.07-1.26,7.04,6.67,7.92,6.74,3.43-2.19,5.93-3.72,9.41-.52,1.35,1.24,3.37,5.7,6.09,4.01Z"/>
  <path class="cls-5" d="M292.72,23.17c1.3-1.34.35-5.57,4.03-7.43,2.34-1.19,8.23-1.44,7.86,2.27l-5.87.31c-2.31,1.03-2.19,5.93-4.15,7.61-.44.38-9.81,4.42-10.68,4.63-6.67,1.59-6.03-6.13-10.9-6.54-1.16-.1-2.24.51-3.4.51-4.75,0-5.21-4.64-7.17-5.24-3.14-.97-5.76,2.3-9.16,1.55-2.65-.58-2.61-3.47-4.15-4.98-3.65-3.55-5.92-.14-9.37-.9-2.55-.56-4.66-5.25-7.5-4.37-2.68.84-2.41,4.61-3.39,6.66-2.05,4.29-6.44,1.73-10.16,2.77-.77.55-.48,3.01-.99,4.3-1.76,4.43-7.29,1.4-10.59,2.93-1.97.92-1.91,4.2-4.03,5.38-1.79,1-4.91.69-7.27,1.55-7.92,2.88-.86,6.49-3.51,10.61-1.63,2.53-6.91,1.27-9.42,3.52-1.95,1.75-.24,2.86-.05,4.73.47,4.73-3.62,3.75-6.4,5.85-4.45,3.37.76,5.06.55,8.15-.21,3.13-5.37,5.64-2.59,10.87,1.98,3.72,6.17,2.27,9.51,1.95.87-.08,1.53-.63,1.32.73-8.6,6.62-17.83-1-13.26-10.9.51-1.1,2.11-2.3,2.11-3.2,0-1.07-1.91-2.1-2.26-3.66-1.49-6.71,8.62-8.3,8.69-9.27-4.75-6.98,3.3-10.16,9.16-10.86.12-2.01-1.11-3.36-.95-5.6.3-4.17,5.66-6.55,9.2-7.31,1.08-.23,3.03.26,3.68-.14.19-.12,1.31-3.02,2.21-3.96,3.1-3.28,6.73-2.34,10.82-2.41-.23-7.75,5.05-7.55,11.09-7.14,1.19-4.75,3.55-10.26,9.52-8.46,1.93.58,4.19,3.68,5.59,3.86,1.98.26,3.73-1.11,6.75-.33,4.4,1.14,5.43,5.71,6.87,6.11,2.08.35,3.74-1.46,5.83-1.66,5.57-.53,6,4.47,8.28,5.14,1.82.53,4.34-.15,6.31.16,3.72.59,5.4,5.9,7.21,6.35,1.66-.84,9.96-3.5,10.62-4.17Z"/>
  <path class="cls-5" d="M374.05,20.29c1.62.57,2.92-.87,4.38-1.08,5.03-.75,5.78,3.71,9.88,5.22,2.18-.37,2.44-8.73,7.09-10.57,6.29-2.49,8.07,6.05,10.52,5.84,2.71-.24,7.57-9.43,14.65-8.62,7.74.88,5.19,11.13,8.7,13.69,3.02,2.21,9.31-2.13,12.62,2.67,1.64,2.39,1.01,5.91,1.6,8.4.33,1.39,1.7,1.94,1.64,3.35-5.15-.71-3.12-9.4-5.63-11.12-4.9-2.25-8.22,2.97-12.92-1.19-4.57-4.05-.64-17.22-11.25-10.73-4.01,2.46-6.33,8.97-12.16,5.92-2.19-1.15-3.4-5.96-6.41-5.13-4.24,1.17-2.43,15.04-11.78,9.8-1.32-.74-4.15-3.71-4.94-3.93-1.58-.44-2.91,1-4.58,1.13-4.99.39-4.21-4.49-6.58-5.22-2.08-.64-3.89.59-5.75.52-4.48-.17-4.87-5.44-7.32-6.25-2.8-.92-6.41.46-9.29-.7-3.42-1.38-3.84-7.21-7.03-7.68-2.18-.31-5.32,1.88-8.1,1.69-2.97-.2-4.92-3.39-7.51-2.89-3.09.61-5.16,6.67-9.25,5.79l5.26-6.2c5.65-5.06,8.01.66,11.53.9,1.7.11,4.5-1.57,6.52-1.71,7.08-.52,6.35,5.86,9.17,7.17,2.64,1.23,6.94-.21,9.89.69,2.64.81,4.07,5.14,5.83,5.91.53.23,3.08-.89,4.43-.92,3.55-.1,5.84,2.03,6.83,5.27Z"/>
  <path class="cls-5" d="M473.35,76.21c2.76,0,5.28-1.47,8.01-1.69,9.51-.76,15.79,6,11.69,15.21-1.05,2.36-3.66,4.01-3.59,6.49.83,2.88,9.62,4.94,11.12,10.67,2.89,10.98-8.74,13.87-17.23,11.65-.45,2.24,1.07,4.14,1.2,6.19.5,7.87-9.72,5.1-10.03,8.82-.09,1.03,1.09,2.4.3,3.22-9.58-6.5,5.23-8.07,6.51-10.59.25-2.13-1.47-4.06-1.54-6.19-.28-9.36,13.91-.94,16.78-7.34,3.65-8.14-10.06-8.84-11.22-15.85-.8-4.87,8.28-9.51,3.89-15.6-4.76-6.61-16.61,2.37-19.45-2.3-1.75-3.6,1.49-7.64,1.8-11.21,1.01-11.38-14.79-5.25-16.46-11.18-.02-2.1,3.8.09,5.03.26,4.53.61,9.63,0,13.21,3.84,4.65,4.99.95,10.12-.02,15.6Z"/>
  <path class="cls-5" d="M415.15,129.72c4.78,1.08,10.54,1.32,14.31,4.79,2.95,2.72,3.55,6.75,5.35,9.94,2.77,4.91,4.09,1.94,8.2,2.36,7.33.73,8.87,8.7,12.29,10.13,2.47,1.03,4.51-1.93,6.72-2.39,2.2-.45,4.49.27,6.66-.39,2.14-4.4-3.03-7.33-3.03-11.8,0-1.36.76-2.58.54-3.97-.61-3.79-4.66-5.92-3.3-11.79.88-3.84,5.59-4.15,6.96-5.97,1.52-2.01.79-5.89,1.6-8.4,1.08-3.35,6.84-4.95,6.6-8.64-.18-2.77-5.02-5.08-6.01-8.14-.68-2.1-.21-3.74-.72-5.75l-6.77-2.62c-.01-1.3,8.33-2.24,9.68.89.81,1.88.04,4.29,1.36,6.87,1.76,3.41,5.93,4.28,5.79,9.2-.15,5.25-4.64,5.66-6.39,8.79-1.79,3.21-.15,6.89-2.55,9.8-1.54,1.86-5.74,2.69-6.15,5.04-.76,4.4,3.22,7.26,3.52,10.62.15,1.69-.86,2.99-.46,5.09.64,3.38,7.19,9.49,1.35,13.37-3.36,2.24-4.74.19-7.49.69-1.76.32-3.36,2.33-4.98,2.71-7.57,1.76-8.28-6.88-12.95-9.15-3.35-1.62-7.82.24-10.48-1.28-5.11-2.91-3.04-12.36-10.85-15.61-2.9-1.21-7.99-.72-8.82-4.41Z"/>
  <path class="cls-5" d="M463.94,166.18c-1.01,3.05-6.67,7.1-9.71,7.08-6.57-.05-9.6-12.44-12.64-13.83-3.73-1.71-7.63,3.92-13.81-.3-6.28-4.28-3.1-11.24-7.02-15.32-2.13-2.21-6.25-2.34-9-4.53-1.61-1.28-2.6-3.78-4.7-4.18-1.74-.33-4.38,1.99-6.58,2.6-1.56.43-3.54.01-4.92.81-.8.47-1.92,3.41-2.76,4.44-3.44,4.25-7.8,4.94-12.31,1.73-4.36-3.11-3.24-7.31-5.32-11.17-1.02-1.89-3.19-2.42-4.13-4.37,8.8-.4,6.74,10.68,12.13,13.44,6.9,3.54,7.65-5.48,11.54-7.12,1.84-.77,4.44-.54,6.43-1.21,1.3-.44,2.37-1.74,3.84-2.04,5.43-1.13,5.9,2.92,9.37,5.06,4.14,2.56,8.44,1.2,11.96,6.26,2.47,3.56,1.6,11.15,3.88,12.58,3.96,2.5,8.48-2.78,13.16-.81,4.29,1.81,6.76,14.13,11.03,14.89,3.18.57,6.1-4.3,9.56-4.02Z"/>
  <path class="cls-5" d="M248.75,25.06c-1.7-.07-2.19-1.82-3.94-2.23-1.25-.29-2.62.05-3.86-.26-2.24-.55-4.54-2.51-6.9-1.34-.96.48-1.54,2.64-2.97,3.49-1.79,1.06-4.34.6-5.82,1.82-1.69,1.4-1.58,5.01-4.27,6.9-2.53,1.78-5.01,1.06-7.36,2.05-1.69.71-3.04,3.36-4.63,4.19-1.59.83-3.62.47-4.91,1.56-1.59,1.34-1.01,4.09-1.59,6.06-1.6,5.46-7.29,4.41-8.95,6.92-.84,1.26-.72,3.39-1.57,4.89-1.66,2.93-7.29,4.97-5.88,9.49,6.42,2.79,14.04-5.55,19.16,1.43,1.12,1.53,1.21,3.48,2.33,4.73,1.28,1.44,3.79,1.43,4.72,3.21-2.23.09-5.39.1-7.28-1.24-2-1.42-1.43-5.35-4.45-6.15-3.59-.95-18.32,8.18-18.3-3.49,0-6.45,4.6-6.51,6.44-10.07.7-1.36.49-2.59.94-3.76,1.64-4.28,7.51-3.75,9.07-6.22,1.56-2.45.22-6.48,3.02-8.74,2.02-1.63,4.47-1.13,6.09-2.14,1.47-.92,1.88-3.08,4.73-4.09,2.02-.72,4.32-.38,6.16-1.48,2.13-1.28,2.32-5.13,5.36-6.99,1.96-1.19,4.34-.94,5.83-1.81,1.43-.83,1.46-3.11,3.97-3.68,3.3-.74,4.49.86,7.06,1.51,3.57.89,7.38-.28,7.8,5.42Z"/>
  <path class="cls-5" d="M276.8,77.57c.96.88,2.01,3.54,3.13,4.8,4.4,4.96,7.39,1.14,12.96,2.33,5.43,1.16,5.7,7.19,10.9,7.92,5.95.84,10.99-.45,14.47,6.11.39.73,2.15,3.74.17,3.36-2.77-1.29-5.08-3.37-8.05-4.3-4.86-1.53-9.26.07-13.35-3.7-1.57-1.45-2.03-3.68-4.17-4.65-3.12-1.42-6.3.1-9.66-.35-6.73-.89-7.73-8.41-10.31-9.11-1.14-.31-3.9.55-6.06.2-3.44-.56-6.07-4.01-8.95-4.03-2.69-.03-4.14,2.16-7.07,2.42-3.21.28-5.83-1.55-8.18-1.18-1.68.27-3.7,2.74-5.61,3.25-5.5,1.47-12.57-2.56-12.36-8.54,3.16,2.63,6.92,7.35,11.6,5.43,1.56-.64,3.25-3.08,5.27-3.54,3.62-.82,6.03,1.5,9.24,1.03,2.25-.33,4.05-2.93,7.1-2.93,3.68,0,5.8,3.43,8.36,4,3.14.7,7.95-.92,10.57,1.48Z"/>
  <path class="cls-5" d="M350.3,23.48c-1.46-1.18-6.3-.64-9.05-1.83-2.1-.91-4.93-4.47-5.9-4.73-1.63-.44-3.94,1.1-5.75,1.09-2.51-.01-4.18-2.08-6.99-1.75-4.41.51-7.82,7.58-11.67,10.13-.94.62-9.02,4.66-9.54,4.56-1.66-.3.12-2.52.55-2.97,2.13-2.28,5.57-2.91,7.68-4.66,3.62-3.01,4.55-7.43,9.87-9.53,5.15-2.03,5.48.32,9.52.73,2.6.26,5-1.11,7.39-.35,1.72.55,3.76,3.57,6.03,4.55,3.45,1.49,7.26.32,10.11,2.82.79.7,1.18,1.91,2.02,2.68,2.86,2.62,6.06,1.61,9.17,3.18,2.69,1.36,3.72,5.14,6.57,5.78,2.57.58,5.79-.2,8.56.26,3.19.53,6.13,3.83,9.01,3.94,5.03.2,10.98-7.3,16.1-2.03.04.9-4.44,1.07-5.6,1.44-4.9,1.54-6.53,4.73-12.77,3.42-2.1-.44-4.05-2.83-6.15-3.26-4.16-.86-7.61.9-11.95-1.57-2.47-1.41-3.21-4.11-5.31-5.27-2.49-1.37-5.41-.65-8.16-2.43-1.65-1.07-2.71-3.39-3.72-4.21Z"/>
  <path class="cls-5" d="M292.85,99.73c-1.78-.2-2.3-1.77-4.4-1.78-2.9-.02-6.78,3.22-10.15,3.41-5.88.33-10.14-6.08-8.97-11.61-4.01-.18-8.45-.79-10.32-4.75-3.91,1.61-4.43,4.81-9.34,4.13-1.05-.15-2.01-1.11-2.88-1.03-1.38.12-4.55,3.74-7.8,3.98-5.58.4-8.75-5.8-12.14-5.18-1.64.3-5.41,4.37-7.55,5.44-6.58,3.29-9.41.41-13.75-4.36l-4.41-2.04c5.85-4.21,7.97,5.02,13.22,5.02,4.16,0,7.83-6.17,11.29-6.96,6.31-1.44,7.9,5,13.39,4.61,3.32-.23,4.73-3.27,6.5-3.57,2.54-.43,4.25,1.88,6.9,1.07,1.57-.48,3.55-4.36,6.46-3.91,1.93.29,3.12,2.91,4.59,3.69,2.13,1.13,4.97.43,6.76,1.47,3.43,2,.35,8.24,5.11,10.18,5.96,2.42,15.06-6.95,17.48,2.21Z"/>
  <path class="cls-5" d="M435.13,129.13c.14-2.73,4.18-1.75,5.91-.91,3.42,1.66,3.51,5.08,5.29,6.47,1.85,1.44,6.8,2.58,8.78,5.03.5-5.13-3.97-7.47-2.68-12.98.17-.74,4.12-10.05,4.55-10.74,1.91-3.09,7.08-5.11,6.26-9.36-.33-1.72-2.08-2.85-2.24-4.55,5.03-.57,7.5,4.07,5.9,8.55-1.38,3.88-5.09,4.57-6.74,7.36-.99,1.68-1.31,4.33-1.98,6.25-.43,1.23-1.66,2.21-1.87,3.44-.78,4.46,6.27,11.81.91,14.99-3.75,2.22-5.85-1.11-8.62-2.63-1.18-.65-2.55-.78-3.79-1.51-3.74-2.21-3.98-9.34-9.68-9.43Z"/>
  <path class="cls-5" d="M382.21,51.52c-.27.26-5.15-2.03-6.2-2.32-3.53-.95-7.68-.83-10.84-2.09-4.33-1.73-11.09-8.72-15.86-10.01-2.68-.73-6.44-.38-9.08-.91-8.11-1.62-12.53-14.66-21.81-4.65-.94-3.19,3.78-6.04,6.51-6.43,7.18-1.02,9.86,6.67,15.88,7.56,3.27.48,6.56.02,9.98,1.19,5.28,1.8,10.9,8.05,15.3,9.98,5.25,2.3,14.34.15,16.11,7.7Z"/>
  <path class="cls-5" d="M229.79,34.01c1.04-.11,1.24-.15,1.91.76-5.43,2.69-5.7,8.86-10.76,11.57-2.51,1.35-3.9,1.35-6.55,3.44-3.43,2.7-7.66,6.39-2.86,9.88,3.82,2.77,6.8,1.01,9.94,2.4,3.4,1.51-.58,3.1-2.54,3.44-8.03,1.37-18.38-5.43-11.91-14.26,3.81-5.2,9.06-6.03,13.23-9.11,3.17-2.34,4.02-7.52,9.54-8.12Z"/>
  <path class="cls-5" d="M379.66,121.11c1.43,1.41,4.76,8.1,6.28,7.94,2.09-.21,7.58-6.41,10.57-7.68,3.61-1.53,7.65-.4,11.59-.76-1.03,4.9-6.09,2.5-9.44,3.5-2.5.74-5.25,4.46-7.42,6.1-10.8,8.11-10.22-5.66-17.72-8.54-4.59-1.76-8.51-.08-13.05.4,4.37-5.52,14.14-5.94,19.19-.96Z"/>
  <path class="cls-3" d="M292.38,22.26c1.3-1.34.35-5.57,4.03-7.43,2.34-1.19,8.23-1.44,7.86,2.27l-5.87.31c-2.31,1.03-2.19,5.93-4.15,7.61-.44.38-9.81,4.42-10.68,4.63-6.67,1.59-6.03-6.13-10.9-6.54-1.16-.1-2.24.51-3.4.51-4.75,0-5.21-4.64-7.17-5.24-3.14-.97-5.76,2.3-9.16,1.55-2.65-.58-2.61-3.47-4.15-4.98-3.65-3.55-5.92-.14-9.37-.9-2.55-.56-4.66-5.25-7.5-4.37-2.68.84-2.41,4.61-3.39,6.66-2.05,4.29-6.44,1.73-10.16,2.77-.77.55-.48,3.01-.99,4.3-1.76,4.43-7.29,1.4-10.59,2.93-1.97.92-1.91,4.2-4.02,5.38-1.79,1-4.91.69-7.27,1.55-7.92,2.88-.86,6.49-3.51,10.61-1.63,2.53-6.91,1.27-9.42,3.52-1.95,1.75-.24,2.86-.05,4.73.47,4.73-3.62,3.75-6.4,5.85-4.45,3.37.76,5.06.55,8.15-.21,3.13-5.37,5.64-2.59,10.87,1.98,3.72,6.17,2.27,9.51,1.95.87-.08,1.53-.63,1.32.73-8.6,6.62-17.83-1-13.26-10.9.51-1.1,2.11-2.3,2.11-3.2,0-1.07-1.91-2.1-2.26-3.66-1.49-6.71,8.62-8.3,8.69-9.27-4.75-6.98,3.3-10.16,9.16-10.86.12-2.01-1.11-3.36-.95-5.6.3-4.17,5.66-6.55,9.2-7.31,1.08-.23,3.03.26,3.68-.14.19-.12,1.31-3.02,2.21-3.96,3.1-3.28,6.73-2.34,10.82-2.41-.23-7.75,5.05-7.55,11.09-7.14,1.19-4.75,3.55-10.26,9.52-8.46,1.93.58,4.19,3.68,5.59,3.86,1.98.26,3.73-1.11,6.75-.33,4.4,1.14,5.43,5.71,6.87,6.11,2.08.35,3.74-1.46,5.83-1.66,5.57-.53,6,4.47,8.28,5.14,1.82.53,4.34-.15,6.31.16,3.72.59,5.41,5.9,7.21,6.35,1.66-.84,9.96-3.5,10.62-4.17Z"/>
  <path class="cls-3" d="M373.71,19.38c1.62.57,2.92-.87,4.38-1.08,5.03-.75,5.78,3.71,9.88,5.22,2.18-.37,2.44-8.73,7.09-10.57,6.29-2.49,8.07,6.05,10.52,5.84,2.71-.24,7.57-9.43,14.65-8.62,7.74.88,5.19,11.13,8.7,13.69,3.02,2.21,9.31-2.13,12.62,2.67,1.64,2.39,1.01,5.91,1.6,8.4.33,1.39,1.7,1.94,1.64,3.35-5.15-.71-3.12-9.4-5.63-11.12-4.9-2.25-8.22,2.97-12.92-1.19-4.57-4.05-.64-17.22-11.25-10.73-4.01,2.46-6.33,8.97-12.16,5.92-2.19-1.15-3.4-5.96-6.41-5.13-4.24,1.17-2.43,15.04-11.78,9.8-1.32-.74-4.15-3.71-4.94-3.93-1.58-.44-2.91,1-4.58,1.13-4.99.39-4.21-4.49-6.58-5.22-2.08-.64-3.89.59-5.75.52-4.48-.17-4.87-5.44-7.32-6.25-2.8-.92-6.41.46-9.29-.7-3.42-1.38-3.84-7.21-7.03-7.68-2.18-.31-5.32,1.88-8.1,1.69-2.97-.2-4.92-3.39-7.51-2.89-3.09.61-5.16,6.67-9.25,5.79l5.26-6.2c5.65-5.06,8.01.66,11.53.9,1.7.11,4.5-1.57,6.52-1.71,7.08-.52,6.35,5.86,9.17,7.17,2.64,1.23,6.94-.21,9.89.69,2.64.81,4.07,5.14,5.83,5.91.53.23,3.08-.89,4.43-.92,3.55-.1,5.84,2.03,6.83,5.27Z"/>
  <path class="cls-3" d="M248.41,24.16c-1.7-.07-2.19-1.82-3.94-2.23-1.25-.29-2.62.05-3.86-.26-2.24-.55-4.54-2.51-6.9-1.34-.96.48-1.54,2.64-2.97,3.49-1.79,1.06-4.34.6-5.82,1.82-1.69,1.4-1.58,5.01-4.27,6.9-2.53,1.78-5.01,1.06-7.36,2.05-1.69.71-3.04,3.36-4.63,4.19-1.59.83-3.62.47-4.91,1.56-1.59,1.34-1.01,4.09-1.59,6.06-1.6,5.46-7.29,4.41-8.95,6.92-.84,1.26-.72,3.39-1.57,4.89-1.66,2.93-7.29,4.97-5.88,9.49,6.42,2.79,14.04-5.55,19.16,1.43,1.12,1.53,1.21,3.48,2.33,4.73,1.28,1.44,3.79,1.43,4.72,3.21-2.23.09-5.39.1-7.28-1.24-2-1.42-1.43-5.35-4.45-6.15-3.59-.95-18.32,8.18-18.3-3.49,0-6.45,4.6-6.51,6.44-10.07.7-1.36.49-2.59.94-3.76,1.64-4.28,7.51-3.75,9.07-6.22,1.56-2.45.22-6.48,3.02-8.74,2.02-1.63,4.47-1.13,6.09-2.14,1.47-.92,1.88-3.08,4.73-4.09,2.02-.72,4.32-.38,6.16-1.48,2.13-1.28,2.32-5.13,5.36-6.99,1.96-1.19,4.34-.94,5.83-1.81,1.43-.83,1.46-3.11,3.97-3.68,3.3-.74,4.49.86,7.06,1.51,3.57.89,7.38-.28,7.8,5.42Z"/>
  <path class="cls-3" d="M349.96,22.57c-1.46-1.18-6.3-.64-9.05-1.83-2.1-.91-4.93-4.47-5.9-4.73-1.63-.44-3.94,1.1-5.75,1.09-2.51-.01-4.18-2.08-6.99-1.75-4.41.51-7.82,7.58-11.67,10.13-.94.62-9.02,4.66-9.54,4.56-1.66-.3.12-2.52.55-2.97,2.13-2.28,5.57-2.91,7.68-4.66,3.62-3.01,4.55-7.43,9.87-9.53,5.15-2.03,5.48.32,9.51.73,2.6.26,5-1.11,7.39-.35,1.72.55,3.76,3.57,6.03,4.55,3.45,1.49,7.26.32,10.11,2.82.79.7,1.18,1.91,2.02,2.68,2.85,2.62,6.06,1.61,9.17,3.18,2.69,1.36,3.72,5.14,6.57,5.78,2.57.58,5.79-.2,8.56.26,3.19.53,6.13,3.83,9.01,3.94,5.03.2,10.98-7.3,16.1-2.03.04.9-4.44,1.07-5.6,1.44-4.9,1.54-6.53,4.73-12.77,3.42-2.1-.44-4.05-2.83-6.15-3.26-4.16-.86-7.61.9-11.95-1.57-2.47-1.41-3.21-4.11-5.31-5.27-2.49-1.37-5.41-.65-8.16-2.43-1.65-1.07-2.71-3.39-3.72-4.21Z"/>
  <path class="cls-3" d="M381.87,50.61c-.27.26-5.15-2.03-6.2-2.32-3.53-.95-7.68-.83-10.84-2.09-4.33-1.73-11.09-8.72-15.86-10.01-2.68-.73-6.44-.38-9.08-.91-8.11-1.62-12.53-14.66-21.81-4.65-.94-3.19,3.78-6.04,6.51-6.43,7.18-1.02,9.86,6.67,15.88,7.56,3.27.48,6.56.02,9.98,1.19,5.28,1.8,10.9,8.05,15.3,9.98,5.25,2.3,14.34.15,16.11,7.7Z"/>
  <path class="cls-3" d="M229.45,33.1c1.04-.11,1.24-.15,1.91.76-5.43,2.69-5.7,8.86-10.76,11.57-2.51,1.35-3.9,1.35-6.55,3.44-3.43,2.7-7.66,6.39-2.86,9.88,3.83,2.77,6.8,1.01,9.94,2.4,3.4,1.51-.58,3.1-2.54,3.44-8.03,1.37-18.38-5.43-11.91-14.26,3.81-5.2,9.06-6.03,13.23-9.11,3.17-2.34,4.02-7.52,9.54-8.12Z"/>
</svg>