<?xml version="1.0" encoding="UTF-8"?>
<svg xmlns="http://www.w3.org/2000/svg" xmlns:xlink="http://www.w3.org/1999/xlink" viewBox="0 0 506.3 525.15">
  <defs>
    <style>
      .cls-1 {
        fill: #56abc8;
      }

      .cls-2 {
        fill: #392212;
      }

      .cls-3 {
        fill: none;
      }

      .cls-4 {
        clip-path: url(#clippath-1);
      }

      .cls-5 {
        fill: #229ad2;
      }

      .cls-6 {
        clip-path: url(#clippath);
      }
    </style>
    <clipPath id="clippath">
      <path class="cls-3" d="M476.56,409.17c-7.72,18.28,7.74,29.99,16.21,43.27,11.53,18.08-6.81,29.48-22.91,32.06-16.13,2.58-27.89,2.58-43.53,9.3-7.01,3.01-13.44,7.93-20.28,10.79-7.1,2.97-15.07,4.57-22.75,4.94-8.51.41-16.98-1.18-25.49-.77-3.08.15-6.21.59-9.09,1.73-2.9,1.14-5.01,3.36-7.85,4.56-6.9,2.9-14.15.89-21.34,1.21-7.47.33-14.87.41-22.18,2.08-7.49,1.71-14.8,4.15-22.34,5.6-7.54,1.46-15.59,1.89-23.02-.39-7.35-2.26-14.42-6.29-21.38-9.56-14.85-6.98-29.82-13.94-45.65-18.4-10.67-3.01-21.69-4.81-32.79-4.82-10.3,0-21.26.84-31.24,3.45-7.99,2.09-16.09,3.92-24.11,5.92-15.59,3.88-31.4,6.68-47.51,5.73-11.57-.68-23.59-1.49-34.07-6.9-13.01-6.71-18.24-22.04-13.5-35.66,2.57-7.38,7.37-13.63,12.84-19.11,5.15-5.16,11.93-9.36,16.27-15.2,3.95-5.32,6.16-12.82,7.97-19.13,1.76-6.16,2.76-12.56,2.43-18.98-.69-13.22-6.93-25.35-13.39-36.62-6.41-11.19-16.53-21.48-17.53-34.67-2.32-30.61,32.44-50.57,29.15-86.33-1.75-18.99-14.9-39.02,7.12-52.08,15.72-9.33,32.88-13.73,39.23-34.11,6.15-19.72-7.03-40.15,20.71-48.27,21.03-6.16,69.88-4.6,65.34-38.97-2.22-16.78-32.86-27.02-10.19-45.72C187.19-6.92,250.94,1.33,282.84,2.94c18.42.93,28.1-.32,46.56,3.37,10.98,2.2,24.14,18.67,35.28,20.02,11,1.34,24.22-5.89,35.15-3.17,18.93,4.7,32.22,12.28,44,26.88,3.14,3.89,6.26,7.84,8.53,12.29,4.51,8.85,3.89,19.29-.1,28.25-2.62,5.89-5.59,10.58-5.35,17.22.25,7.32,1.51,14.66,1.35,21.98-.07,3.26.95,6.4.89,9.53-.39,19.4-18.45,25.46-19.9,39.82-3.75,37.03,37.13,30.54,49.2,55.82,13.04,27.3-22.83,36.13-22.98,62.88-.2,36.34,40.19,38.95,49.26,67.46,8.56,26.9-19.93,24.39-28.16,43.88Z"/>
    </clipPath>
    <clipPath id="clippath-1">
      <path class="cls-3" d="M1087.79,409.17c-7.72,18.28,7.74,29.99,16.21,43.27,11.53,18.08-6.81,29.48-22.91,32.06-16.13,2.58-27.89,2.58-43.53,9.3-7.01,3.01-13.44,7.93-20.28,10.79-7.1,2.97-15.07,4.57-22.75,4.94-8.51.41-16.98-1.18-25.49-.77-3.08.15-6.21.59-9.09,1.73-2.9,1.14-5.01,3.36-7.85,4.56-6.9,2.9-14.15.89-21.34,1.21-7.47.33-14.87.41-22.18,2.08-7.49,1.71-14.8,4.15-22.34,5.6-7.54,1.46-15.59,1.89-23.02-.39-7.35-2.26-14.42-6.29-21.38-9.56-14.85-6.98-29.82-13.94-45.65-18.4-10.67-3.01-21.69-4.81-32.79-4.82-10.3,0-21.26.84-31.24,3.45-7.99,2.09-16.09,3.92-24.11,5.92-15.59,3.88-31.4,6.68-47.51,5.73-11.57-.68-23.59-1.49-34.07-6.9-13.01-6.71-18.24-22.04-13.5-35.66,2.57-7.38,7.37-13.63,12.84-19.11,5.15-5.16,11.93-9.36,16.27-15.2,3.95-5.32,6.16-12.82,7.97-19.13,1.76-6.16,2.76-12.56,2.43-18.98-.69-13.23-6.93-25.35-13.39-36.62-6.41-11.19-16.53-21.48-17.53-34.67-2.32-30.61,32.44-50.57,29.15-86.33-1.75-18.99-14.9-39.02,7.12-52.08,15.72-9.33,32.88-13.73,39.23-34.11,6.15-19.72-7.03-40.15,20.71-48.27,21.03-6.16,69.88-4.6,65.34-38.97-2.22-16.78-32.86-27.02-10.19-45.72,25.51-21.04,89.25-12.79,121.15-11.18,18.42.93,28.1-.32,46.56,3.37,10.98,2.2,24.14,18.67,35.28,20.02,11,1.34,24.22-5.89,35.15-3.17,18.93,4.7,32.22,12.28,44,26.88,3.14,3.89,6.26,7.84,8.53,12.29,4.51,8.85,3.89,19.29-.1,28.25-2.62,5.89-5.59,10.58-5.35,17.22.25,7.32,1.51,14.66,1.35,21.98-.07,3.26.95,6.4.89,9.53-.39,19.4-18.45,25.46-19.9,39.82-3.75,37.03,37.13,30.54,49.2,55.82,13.04,27.3-22.83,36.13-22.98,62.88-.2,36.34,40.19,38.95,49.26,67.46,8.56,26.9-19.93,24.39-28.16,43.88Z"/>
    </clipPath>
  </defs>
  <g id="Sky">
    <g class="cls-6">
      <path class="cls-1" d="M191.35,526.05c-.35-.06-.71-.11-1.06-.16-38.93,6.27-84.45,38.34-115.91.09-24.26-29.5-100.41,22.4-98.81-10.51,1.1-22.78-11.49-51.05-30.1-59.7-38.85-18.05,10.14-89.33,14.72-145.3,3.12-38.14,45.5-87.16,38.9-121.37-3.51-18.18-21.61-29.9-26.13-48.38-5.29-21.59,5.75-41.98,24.01-52.66,29.25-17.09,67.12-6.04,95.52-24.73,40.14-26.41,55.34-135.02,114.18-124.71,40.96,7.18,88.08,11.82,109.73,40.58,14.99,19.91,23.75,14.9,45.41,8.67,45.2-13,66.79,2.79,102.05,53.06,11.83,16.88,3.45,65,8.37,84.76,2.66,10.71,5.23,21.45,8.51,31.99,2.52,8.1,3.95,16,9.3,22.78,5.59,7.08,12.06,14.45,19.44,19.99,7.24,5.44,15.58,6.58,24.11,8.65,8.78,2.13,17.69,4.64,25.11,10.07,19.52,14.29,24.51,39.39,16.64,61.58-7.68,21.64-26.62,34.35-37.12,54.12-11.74,22.11-15.79,50.96-10.34,75.23,4.17,18.56,12.12,38.76,7.84,58.02-2.46,11.07.51,38.55-8.8,44.51-29.75,19.03-64.23,29.43-91.55,53.22-11.47,9.98-31.26-17.66-47.33-13.65-21.98,5.48-40.11-15.44-61.71-15.89-19-.39-33.48,10.86-49.86,18.5-37.77,17.6-52.18-23.3-85.13-28.77Z"/>
      <path class="cls-5" d="M148.84,270.77c.65.71.99,2.03.52,2.95-1.76,3.73-13.69,1.2-17.08.19-18.07-5.4-33.77-32.67-53.25-9.22-17.82,21.44-12.34,79.28-7.33,105.42,2.83,14.78,9.47,28.87,10.44,43.93,0,.55-1.28.41-1.55.3-2.67-1.13-13.29-33.74-14.53-38.59-3.43-13.49-6.13-31.52-7.67-45.45-2.69-24.39-1.59-70.19,23.31-83.54,8.75-4.69,23.66-5.79,31.88.22,10.52,7.69,20.02,18.56,32.45,22.55.71.23,2.38.8,2.8,1.25Z"/>
      <path class="cls-5" d="M463.69,275c1.13.8,1.03,1.42.81,2.66-.48,2.69-4.92,9.29-6.24,12.53-3.9,9.63-1.81,16.6,2.68,25.66,11.56,23.32,44.65,26.86,47.41,56.96,2.32,25.28-22.23,23.02-30.11,40.49-5.19,11.5,1.3,13.71,2.78,22.47.57,3.38-2.77.73-3.91-.48-11.2-11.9-5.31-27.49,5.29-37.2,7.03-6.44,19.83-11.05,19.72-22.14-.32-31.05-43.96-34.64-51.48-69.19-2.64-12.13,2.26-25.31,13.03-31.76Z"/>
      <path class="cls-5" d="M185.88,3.12c1.77,1.7-8.82,5.34-9.59,5.71-7.65,3.73-16.87,6.5-18.37,16-1.65,10.42,5.24,13.91,10.36,21.22,17.6,25.14,2.11,42.9-22.68,51.46-15.62,5.39-31.66,3.5-46.56,9.06-1.87.7-10.09,6.4-8.64.77,1.34-5.16,15.29-10.5,20.26-11.01,5.28-.55,11.12.48,16.38-1.12,2.02-.61,4.39-2.39,6.84-3.16,12.45-3.89,29.69-5.87,33.7-21.3,5.6-21.52-16.95-26.19-17.34-42.34-.29-12.06,16.76-21.75,26.9-24.34,3.49-.89,5.46-.59,8.74-.94Z"/>
      <path class="cls-5" d="M464.63,341.24c17.05,7.49,37.01,21.28,22.75,41.81-7.68,11.06-21.26,15.01-22.75,30.37-1.79,18.45,5.13,22.16,14.26,35.1,13.58,19.24-1.86,38.19-23.33,34.58-.82-.14-1.78-.61-1.56-1.55.23-.98,9.26-3.21,11.05-3.96,9.6-4.03,14.86-11.79,9.91-22.01-6.65-13.73-15.75-16.96-16.61-35.89-.91-20.04,7.46-22.22,19.41-33.77,10.7-10.33,12.01-20.14.63-30.64-1.75-1.62-16.11-11.52-13.75-14.05Z"/>
      <path class="cls-5" d="M220.12,95.79c10.92-1.17,32.14,3.25,39.52,12.01.54.64,1.86,2.61.29,2.82-.96.13-14.81-6.17-17.95-7.04-13.39-3.75-29.12-3.59-40.18,5.77-16.73,14.16-24.15,33.53-47.18,41.57-7.05,2.46-7.83-.12-2.45-4.32,2.86-2.24,7.06-3.56,10.15-5.48,21.97-13.63,27.48-42.08,57.79-45.33Z"/>
    </g>
  </g>
  <g id="Tree">
    <g class="cls-4">
      <path class="cls-2" d="M1084.45,510.81c-60.61-8.02-121.49-12.4-182.41-17.47-48.97-4.07-115.09-9.83-161.08-26.06-46.34-16.35-61.02-78.2-66.82-121.47-3.94-29.37-10.76-84.05,24.96-96.54,29.57-10.34,34.94,14.67,56.64,20.15,16.32,4.12,30.73-3.38,46.63-2.02,8.21.7,16.39,5.18,22.6,10.39,3.65-4.52,7.33-1.44,11.88-1.14-1-1.47-8.17-8.95-3.76-9.29,2.12-.16,10.11,3.58,13.04,4.36,10.78,2.87,21.51,1.49,32.09,2.62,1.83.2,4.88,2.14,7.27,2.63,5.63,1.17,11.99.39,17.54-1.07,4.19-1.1,7.89-3.53,12.21-4.01l.94-.82c-.64-2.43-2.69-15.07-4.31-15.86l-3.81,3.71c-18.24,14.53-27.43-2.57-46-1.39-6.74.43-11.25,1.71-18.49.51-4.17-.69-14.01-3.76-9.54-9.42,1.93-2.44,14.88-5.36,18.76-6.73,10.75-3.81,20.78-8.42,29.83-15.37.48-1.99-8.96-5.21-10.76-5.44-7.39-.94-7.29,2.22-12.01,5.28-3.71,2.41-16.68,7.33-20.71,6-.66-.22-1.37-.58-1.61-1.28-.25-1.05-.25-2.08.21-3.08.93-2.02,12.02-11.04,11.89-11.87-1.33-4.26-12.25-6.84-15.08-4.06-.63.62-.7,1.83-1.43,2.63-5.21,5.73-12.94,13.9-18.55,19.11-13.93,12.9-25.54,10.24-42.32,4.63-18.69-6.25-26.44-13.7-42.18-23.28-5.42-3.3-12.38-7.02-18.14-9.67-8.94-4.11-22.89-5.49-17.29-19.19,3.2-7.82,12.91-12.27,20.16-15.76,24.31-11.68,48.82-18.36,69.34-37.26,19.03-17.52,19.68-35.75,51.24-37.41,21.99-1.15,28.64,8.04,44.98,18.8,9.11,6,20.93,9.47,31.97,7.76l.17.17.03.02.38.02c.96.05,2.21-.11,3.11-.53,1.07-.38,2.11-.83,3.08-1.45.54-.2,1.07-.43,1.6-.66,1.49-.53,2.96-1.06,4.39-1.28.18-.02.38-.07.57-.13,1.45-.41,2.89-.67,4.29-.7.73-.03,1.44.07,2.16.16,1.05.13,2.08.38,3.15.49.8.09,1.65.38,2.45.65,1.57.53,3.2.85,4.92.85.26,0,.52,0,.79,0,.27,0,.57-.02.86-.07.57-.08,1.14-.23,1.69-.43.21-.07.4-.11.61-.19.59-.27,1.15-.53,1.73-.94.61-.42,1.22-.77,1.81-1,.6-.25,1.1-.28,1.7-.29.18,0,.35.02.53.02,1.04,0,2.08.2,3.1.53.91.3,1.79.74,2.68,1.18.42.2.85.33,1.27.53.5.25,1.02.5,1.49.84.71.51,1.77,1.31,2.31-1.09.1-.42.19-.85.24-1.28.03-.29.08-.61,0-.9-.09-.33-.42-.43-.69-.58-.55-.32-1.03-.74-1.57-1.08-1.03-.64-2.02-1.34-2.87-2.21l.58-.28c.26-.14.51-.29.76-.45.48-.33.89-.71,1.31-1.11.42-.41.93-.74,1.4-1.09.38-.29.77-.52,1.13-.81,1.63-1.32,3.28-2.29,4.9-3.03,1.11-.51,2.16-.81,3.29-1.21.76-.27,1.57-.34,2.35-.39.78-.08,1.55-.05,2.33-.04,1.45.03,2.91.11,4.35.32,1.35.2,2.72.33,4.11.3,1.25-.02,2.51.25,3.83-.56.13-.08.26-.17.38-.33.64-.86,1.17-2.73.79-3.74-.2-.54-.69-1.36-1.13-1.21-.16.05-.32.11-.48.16-.5.18-.94.31-1.52.21-.25-.04-.56,0-.82.06-.79.17-1.53.21-2.31,0-.3-.08-.64-.12-.97-.15-.63-.04-1.64-.18-2.27-.27-.95-.13-1.91-.21-2.87-.25-.45-.02-.9-.04-1.35-.05-.41-.01-.81-.08-1.22-.08-.4,0-.8,0-1.2.01-.12,0-.25.02-.41.05l-.25.05h-.06s.02-.05.02-.05l.03-.11c.07-.22.31-.51.48-.75.23-.31.5-.58.72-.81.11-.12.2-.23.31-.37.22-.28.44-.59.66-.92.11-.18.3-.36.45-.53.58-.66,1.16-1.37,1.73-2.18l.21-.31.07-.09.07-.09c.12-.15.27-.33.44-.57.58-.85,1.1-2.12.85-3.29-.44-2.01-1.48-.26-2.21.83-.19.29-.4.56-.61.84-.7.93-1.4,1.85-2.12,2.7-.27.33-.54.6-.82.9-.45.47-.9.94-1.35,1.41-.94,1.04-1.89,2.08-2.86,2.96-1.38,1.25-2.78,2.3-4.18,3.26-.16.11-.32.17-.48.28-1.74,1.29-3.43,2.13-5.13,3.01-.61.32-1.22.65-1.84.93-.56.25-1.05.54-1.66.68-1.22.28-2.53.31-3.78.41-1.25.1-2.49.19-3.74.28-1.48.11-2.95.21-4.43.3-1.55.1-1.05-1.01-2.59-.92-1.45.08-4.95,1.35-6.4,1.41-1.15.05-2.3.11-3.45.12-1.14,0-2.26-.14-3.4-.15-.09,0-.19,0-.28,0-.35.01-.73.12-1.09.18-1.23.26-2.45.49-3.67.81-.62.17-1.25.43-1.87.67-2.77.47-5.77,1.4-8.52,1.51-7.76.29-17.47-1.64-22.91-7.55,6.65-1.43,13.55-3.08,19.69-6.1,5.7-2.81,16.44-12.64,21.19-13.57,1.17-.23,2.53.05,3.73-.04-1.2-6.93-7.95-14.47-15.68-11.91-.96.32-5.95,6.9-7.77,8.45-8.82,7.53-22.31,9.55-33.64,8.7-2.52-.19-14.08-2.16-12.95-6.01.13-.45,5.85-4.36,6.9-5.3,4.23-3.79,8.22-9.18,10.53-14.39.33-.74,1.99-4.49,2-4.75.2-3.23-9.22-6.4-10.68-2.76-.32.8-.16,2-.52,2.96-1.09,2.86-2.86,6.12-5.08,8.24-1.81,1.73-9.7,6.8-11.65,4.07-1.54-2.16,3.37-11.33,3.73-14.11-2.48-4.14-8.56-5.8-12.82-3.75-3.27,1.57-1.3,3.99-1.58,7.11-1.44,16.01-26.82,15.74-38.24,19.12-20.33,6.02-25.64,16.9-41.19,27.17-12.79,8.46-25.19,4.83-39.63,5.56-19.53.99-56.53,11.47-57.67-19.39-.43-11.71,2.75-23.38,7.69-33.92,4.75-10.15,11.44-20.14,19.26-28.2,10.67-11.01,24.71-18.78,39.79-21.68,14.46-2.78,30.02-1.39,43.27-7.83,11.73-5.7,20.07-16.87,31.72-22.73,15.62-7.85,35.17-5.21,50.22-14.1,3.56-2.1,7-5.22,7.5-9.32.51-4.1-3.61-8.63-7.45-7.1-1.28.51-2.27,1.55-3.28,2.5-15.07,14.12-39.4,9.54-58.7,16.88-8.85,3.37-16.49,9.21-24.69,13.95-8.2,4.74-17.61,8.47-26.96,6.94-1.42-.23-2.99-.71-3.65-1.99-.67-1.31-.11-2.89.5-4.24,7.86-17.56,22.81-33.32,41.83-36.22,11.83-1.8,23.77,1.47,35.7,2.41,13.59,1.06,27.41-.97,40.12-5.89.85-.33,1.73-.7,2.3-1.41.92-1.15.74-2.82.43-4.26-.81-3.78-2.2-7.44-4.09-10.81-10.85,6.25-23.14,9.98-35.63,10.84-3.33.23-7.57-.35-8.53-3.55-.42-1.39-.03-2.9.49-4.25,4.2-10.91,15.97-16.61,26.79-21.04,15.1-6.17,31.68-11.96,47.4-7.59,10.83,3.01,20.13,10.63,31.21,12.51,3.81.64,7.91.53,11.3-1.33,3.39-1.86,5.83-5.78,5.07-9.57-.33-1.66-1.55-3.37-3.23-3.37-1.04,0-1.95.63-2.86,1.11-6.65,3.5-14.51-.69-21.46-3.53-21.63-8.83-46.03-4.36-69.28-2.04-1.74.17-4.09-2.02-2.41-2.48l-18.28-.13c-6.45,15.46-14.3,32.37-29.77,38.81-7.43,3.09-15.74,3.3-23.48,5.5-8.1,2.3-15.55,6.83-21.32,12.96-1.17,1.25-2.63,2.68-4.31,2.32-.94-.2-1.66-.94-2.24-1.7-6.46-8.43-1.46-21.52,7.34-27.46,8.8-5.95,19.94-6.82,30.5-7.95s21.81-3.05,29.5-10.38c1.91-1.83,3.17-5.65.68-6.56-.85-.31-1.78-.05-2.64.2-10.64,3.11-21.54,5.35-32.54,6.71-3.88.48-8.18.74-11.31-1.61-3.12-2.35-3.36-8.31.36-9.51-3.28-3.02-8.78-1.98-12.23.85-3.44,2.83-5.48,6.98-7.93,10.7-4.38,6.66-10.35,12.25-17.28,16.19-.96.54-2.04,1.07-3.12.86-1.67-.34-2.48-2.21-2.91-3.85-2.26-8.54-1.66-17.8,1.68-25.98h-13.92c-4.81,11.54-5.02,24.93-.58,36.63,4.15,10.93,12.31,21.53,9.95,32.98-1.98,9.58-10.88,16.13-19.79,20.15-4.8,2.17-10.29,3.89-15.25,2.14-3.06-1.08-5.52-3.37-7.88-5.59-7.86-7.39-13.63-15.12-25.18-24.67-2.95-2.44-7.77-8.6-8.95-10.43-3.14-4.89-3.16-9.23-5.22-14.94-5.44-15.1-27.58-17.95-21.49-32.8-20.62,13.7.69,24.04-19.93,37.75,2.18,14.62,16.92,23.25,29.07,31.66,10.45,7.23,20.33,16.19,25.06,27.99,4.73,11.79,3.01,26.89-6.78,34.98-3.27,2.7-7.59,4.52-11.88,3.76-6.08-1.07-8.59-6.1-11.46-10.92-4.76-8.01-7.79-16.85-12.72-24.74-.91-1.46-1.9-2.92-2.99-4.32-3.86-2.37-7.61-5.05-12.07-6.12-3.88-.93-7.89-.74-11.86-1.01-1.15.17-2.3.22-3.43.05-3.61-.54-7.12-1.98-10.37-3.6-6.14-3.06-14.02-7.85-16.69-14.56-7.02-17.67,9.76-31.84,11.44-48.66.86-8.58-.15-17.73-3.41-25.71h-13.9c2.22,8.3,5.93,21.47-.31,28.95-3.28,3.94-6.56-1.75-8.95-3.75-2.66-2.23-5.99-4.16-8.42-6.64-5.06-5.14-8.39-12.61-12.44-18.55h-11.59c-.76.9-.08,1.51.26,2.31,1.81,4.18,5.53,8.64-1.28,9.71-6.19.97-23.71-1.54-30.39-2.9-3.16-.64-12.81-4.66-14.93-3.62-4.17,2.06.92,7.33,3.28,8.89,18.23,12.07,43.33,4.21,60.14,18.07,3.97,3.27,7.7,7.58,7.88,13.02.11,3.37-1.83,14.26-6.12,14.26-1.67,0-8.08-6.83-10.19-8.41-13.44-10.11-23.91-7.52-38.06-12.34-17.98-6.13-21.1-24.81-30.25-38.98h-17.96l.34,2.92c-1.34,1.89-12.02-2.11-14.24-2.92h-47.51c-9.27,3.81-18.49,10.92-29.12,9.13-1.75-.29-5.41-2.91-6.21-2.51-3.59,1.77-2.85,10.57.41,12.37,13.81,7.65,31.55-5.69,44.05-10.15,14.8-5.29,31.88,1.58,46.21,6.8,10.12,3.68,16.42,5.63,23.44,14.22,5.28,6.46,11.56,14.16-1.44,15.33-8.47.76-27.82-5.53-35.49-9.66-.98-.53-.35-1.6-1.58-1.33-.77.38-4.12,9.96-4.3,11.34-1.16,8.83,4.22,6,9.94,6.76,4.31.58,9.3,3.29,13.75,4.21,16.41,3.39,33.05-3.66,49.58-2.65,23,1.4,38.31,16.49,47.29,36.71,3.54,7.96-4.57,6.6-10.16,6.11-20.3-1.78-28.38-15.49-45.43-21.19-19.24-6.44-40.61-2.46-57.75-15.82-3.4-2.65-5.86-8.49-9.1-.96-.75,1.74-2.24,7.67-1.35,9.1.29.46,8.03,5.25,9.18,5.88,14.26,7.83,31.58,6.28,46.55,12.54,11.88,4.97,17.23,13,26.89,20.04,16.07,11.73,36.33,7.35,54.66,11.97,33.08,8.35,63.02,49.15,61.77,83.12-1.14,30.86-38.15,20.38-57.67,19.39-14.44-.73-26.83,2.89-39.63-5.56-15.55-10.28-20.86-21.15-41.19-27.17-11.42-3.38-36.79-3.11-38.24-19.12-.28-3.12,1.69-5.54-1.58-7.11-4.27-2.05-10.34-.39-12.82,3.75.36,2.78,5.28,11.95,3.73,14.11-1.96,2.74-9.84-2.34-11.65-4.07-2.22-2.13-3.99-5.39-5.08-8.24-.36-.95-.2-2.15-.52-2.96-1.45-3.64-10.87-.47-10.68,2.76.02.26,1.68,4.01,2,4.75,2.31,5.2,6.29,10.59,10.53,14.39,1.05.94,6.77,4.85,6.9,5.3,1.13,3.85-10.44,5.82-12.95,6.01-11.33.85-24.82-1.17-33.64-8.7-1.82-1.55-6.81-8.13-7.77-8.45-7.73-2.56-14.48,4.98-15.68,11.91,1.2.1,2.56-.19,3.73.04,4.75.93,15.49,10.76,21.19,13.57,6.14,3.02,13.04,4.66,19.69,6.1-5.44,5.91-15.15,7.84-22.91,7.55-2.75-.1-5.75-1.04-8.52-1.51-.62-.24-1.25-.5-1.87-.67-1.22-.32-2.44-.55-3.67-.81-.36-.07-.74-.17-1.09-.18-.66-.01-1.3,0-1.96.11l-.14.03v.03c0,.14-.02.26-.03.37-.03.26-.11.55-.2.81-.2.59-.52,1.11-.91,1.53-.58.6-1.3.93-2.04.93h-.23c-.33-.01-.63-.08-.84-.13l-.12-.03-.27-.06-.18-.04c-1.54-.29-3.08-.62-4.67-1.03l-1.34-.32-.93-.21-.94.11-2.22.24c-.21.02-.42.05-.64.07-.53.05-1.02.1-1.46.19h-.05c-.21.03-.22.09-.44.08-.67.11-1.31.18-1.94.25-.26.03-.51.06-.77.09l-1.49.17-.74.09-.32.04c-.06,0-.18.03-.33.03h-.11c-.22,0-.46-.01-.73-.09l-.41-.09c-.35-.08-.67-.27-.9-.53l-.78-.88c-.83-.87-.74-1.96-.69-2.49l.03-.23.06-.27.08-.31v-.04c-.96-.49-1.94-.98-2.91-1.47-1.7-.88-3.38-1.73-5.13-3.01-.16-.12-.32-.17-.48-.28-1.41-.96-2.81-2.01-4.18-3.26-.97-.88-1.92-1.92-2.86-2.96-.45-.47-.9-.94-1.35-1.41-.27-.29-.55-.57-.82-.9-.72-.85-1.42-1.77-2.12-2.7-.2-.28-.42-.55-.61-.84-.73-1.09-1.77-2.84-2.21-.83-.25,1.17.26,2.44.85,3.29.17.24.33.42.44.57l.07.09.07.09.21.31c.57.81,1.15,1.52,1.73,2.18.15.17.33.36.45.53.21.33.44.63.66.92.1.14.2.25.31.37.21.23.48.5.72.81.18.23.41.53.48.75l.03.11.02.05h-.06s-.25-.05-.25-.05c-.16-.03-.29-.05-.41-.05-.4-.01-.8-.02-1.2-.01-.41,0-.81.07-1.22.08-.45.01-.9.03-1.35.05-.9.04-1.8.11-2.69.23-.67.09-1.36.24-2.03.27-.47.02-.97.05-1.39.17-.78.22-1.53.17-2.31,0-.26-.06-.58-.1-.82-.06-.58.1-1.02-.03-1.52-.21-.16-.05-.32-.11-.48-.16-.44-.15-.92.67-1.13,1.21-.38,1.01.14,2.88.79,3.74.12.16.25.25.38.33,1.32.81,2.57.53,3.83.56,1.39.03,2.76-.1,4.11-.3,1.44-.21,2.9-.29,4.35-.32.78,0,1.55-.03,2.33.04.78.06,1.59.12,2.35.39,1.13.41,2.18.7,3.29,1.21,1.62.74,3.27,1.71,4.9,3.03.36.29.76.52,1.13.81.47.35.97.68,1.4,1.09.42.4.83.79,1.31,1.11.24.17.5.32.76.45l.58.28c-.85.87-1.84,1.56-2.87,2.21-.54.34-1.02.76-1.57,1.08-.26.15-.59.26-.69.58-.08.29-.04.6,0,.9.05.43.14.86.24,1.28.54,2.4,1.6,1.6,2.31,1.09.47-.34.99-.59,1.49-.84.42-.21.85-.33,1.27-.53.89-.44,1.77-.89,2.68-1.18,1.02-.33,2.05-.53,3.1-.53.18,0,.35,0,.53-.02.6,0,1.1.04,1.7.29.59.23,1.21.57,1.81,1,.58.41,1.14.67,1.73.94.2.09.4.12.61.19.55.2,1.12.35,1.69.43.28.05.58.06.86.07.26,0,.53,0,.79,0,1.72,0,3.35-.31,4.92-.85.8-.27,1.66-.56,2.45-.65,1.07-.11,2.1-.36,3.15-.49.72-.08,1.44-.19,2.16-.16,1.4.02,2.83.29,4.29.7.19.05.39.1.57.13,1.42.22,2.9.74,4.39,1.28.53.23,1.06.46,1.6.66.97.62,2.01,1.07,3.08,1.45.91.42,2.15.58,3.11.53l.38-.02.03-.02.17-.17c11.04,1.71,22.86-1.76,31.97-7.76,16.34-10.76,22.99-19.96,44.98-18.8,31.56,1.65,32.21,19.88,51.24,37.41,20.52,18.9,45.03,25.58,69.34,37.26,7.25,3.48,16.96,7.94,20.16,15.76,5.61,13.7-8.34,15.08-17.29,19.19-5.76,2.65-12.72,6.37-18.14,9.67-15.74,9.58-23.49,17.03-42.18,23.28-16.78,5.61-28.39,8.27-42.32-4.63-5.62-5.2-13.34-13.38-18.55-19.11-.73-.8-.8-2.01-1.43-2.63-2.83-2.78-13.75-.2-15.08,4.06-.12.83,10.97,9.85,11.89,11.87.46,1,.46,2.03.21,3.08-.24.71-.96,1.06-1.61,1.28-4.03,1.33-17-3.59-20.71-6-4.72-3.06-4.62-6.22-12.01-5.28-1.8.23-11.25,3.45-10.76,5.44,9.05,6.95,19.08,11.56,29.83,15.37,3.87,1.37,16.83,4.29,18.76,6.73,4.48,5.66-5.36,8.73-9.54,9.42-7.24,1.2-11.74-.08-18.49-.51-18.57-1.18-27.76,15.92-46,1.39l-3.81-3.71c-1.62.79-3.67,13.43-4.31,15.86l.94.82c4.32.48,8.03,2.9,12.21,4.01,5.55,1.46,11.91,2.24,17.54,1.07,2.38-.5,5.43-2.44,7.27-2.63,10.58-1.13,21.31.25,32.09-2.62,2.93-.78,10.92-4.53,13.04-4.36,4.41.34-2.77,7.81-3.76,9.29,4.54-.3,8.22-3.38,11.88,1.14,6.22-5.21,14.4-9.69,22.6-10.39,15.9-1.35,30.32,6.14,46.63,2.02,21.7-5.48,27.07-30.49,56.64-20.15,35.72,12.49,28.91,67.17,24.96,96.54-5.81,43.27-20.49,105.12-66.82,121.47-45.99,16.23-112.11,21.99-161.08,26.06-60.92,5.06-121.8,9.45-182.41,17.47-44.23,5.85-87.85,19.25-131.89,26.57v1.16h1174.35v-1.16c-44.04-7.32-87.66-20.72-131.89-26.57Z"/>
    </g>
  </g>
</svg>