<?xml version="1.0" encoding="UTF-8"?>
<svg xmlns="http://www.w3.org/2000/svg" xmlns:xlink="http://www.w3.org/1999/xlink" viewBox="0 0 488.09 140.69">
  <defs>
    <style>
      .cls-1 {
        fill: #a7a960;
      }

      .cls-2 {
        fill: #392212;
      }

      .cls-3 {
        fill: none;
      }

      .cls-4 {
        fill: #4a4a28;
      }

      .cls-5 {
        fill: #5c5d2e;
      }

      .cls-6 {
        fill: #505228;
      }

      .cls-7 {
        fill: #b5b668;
      }

      .cls-8 {
        clip-path: url(#clippath);
      }

      .cls-9 {
        fill: #727538;
      }
    </style>
    <clipPath id="clippath">
      <path class="cls-3" d="M-99.96-.27c-7.72,18.28,7.74,29.99,16.21,43.27,11.53,18.08-6.81,29.48-22.91,32.06-16.13,2.58-27.89,2.58-43.53,9.3-7.01,3.01-13.44,7.93-20.28,10.79-7.1,2.97-15.07,4.57-22.75,4.94-8.51.41-16.98-1.18-25.49-.77-3.08.15-6.21.59-9.09,1.73-2.9,1.14-5.01,3.36-7.85,4.56-6.9,2.9-14.15.89-21.34,1.21-7.47.33-14.87.41-22.18,2.08-7.49,1.71-14.8,4.15-22.34,5.6-7.54,1.46-15.59,1.89-23.02-.39-7.35-2.26-14.42-6.29-21.38-9.56-14.85-6.98-29.82-13.94-45.65-18.4-10.67-3.01-21.69-4.81-32.79-4.82-10.3,0-21.26.84-31.24,3.45-7.99,2.09-16.09,3.92-24.11,5.92-15.59,3.88-31.4,6.68-47.51,5.73-11.57-.68-23.59-1.49-34.07-6.9-13.01-6.71-18.24-22.04-13.5-35.66,2.57-7.38,7.37-13.63,12.84-19.11,5.15-5.16,11.93-9.36,16.27-15.2,3.95-5.32,6.16-12.82,7.97-19.13,1.76-6.16,2.76-12.56,2.43-18.98-.69-13.23-6.93-25.35-13.39-36.62-6.41-11.19-16.53-21.48-17.53-34.67-2.32-30.61,32.44-50.57,29.15-86.33-1.75-18.99-14.9-39.02,7.12-52.08,15.72-9.33,32.88-13.73,39.23-34.11,6.15-19.72-7.03-40.15,20.71-48.27,21.03-6.16,69.88-4.6,65.34-38.97-2.22-16.78-32.86-27.02-10.19-45.72,25.51-21.04,89.25-12.79,121.15-11.18,18.42.93,28.1-.32,46.56,3.37,10.98,2.2,24.14,18.67,35.28,20.02,11,1.34,24.22-5.89,35.15-3.17,18.93,4.7,32.22,12.28,44,26.88,3.14,3.89,6.26,7.84,8.53,12.29,4.51,8.85,3.89,19.29-.1,28.25-2.62,5.89-5.59,10.58-5.35,17.22.25,7.32,1.51,14.66,1.35,21.98-.07,3.26.95,6.4.89,9.53-.39,19.4-18.45,25.46-19.9,39.82-3.75,37.03,37.13,30.54,49.2,55.82,13.04,27.3-22.83,36.13-22.98,62.88-.2,36.34,40.19,38.95,49.26,67.46C-63.24-17.25-91.73-19.76-99.96-.27Z"/>
    </clipPath>
  </defs>
  <g id="Tree">
    <g class="cls-8">
      <path class="cls-2" d="M-103.3,101.38c-60.61-8.02-121.49-12.4-182.41-17.47-48.97-4.07-115.09-9.83-161.08-26.06-46.34-16.35-61.02-78.2-66.82-121.47-3.94-29.37-10.76-84.05,24.96-96.54,29.57-10.34,34.94,14.67,56.64,20.15,16.32,4.12,30.73-3.38,46.63-2.02,8.21.7,16.39,5.18,22.6,10.39,3.65-4.52,7.33-1.44,11.88-1.14-1-1.47-8.17-8.95-3.76-9.29,2.12-.16,10.11,3.58,13.04,4.36,10.78,2.87,21.51,1.49,32.09,2.62,1.83.2,4.88,2.14,7.27,2.63,5.63,1.17,11.99.39,17.54-1.07,4.19-1.1,7.89-3.53,12.21-4.01l.94-.82c-.64-2.43-2.69-15.07-4.31-15.86l-3.81,3.71c-18.24,14.53-27.43-2.57-46-1.39-6.74.43-11.25,1.71-18.49.51-4.17-.69-14.01-3.76-9.54-9.42,1.93-2.44,14.88-5.36,18.76-6.73,10.75-3.81,20.78-8.42,29.83-15.37.48-1.99-8.96-5.21-10.76-5.44-7.39-.94-7.29,2.22-12.01,5.28-3.71,2.41-16.68,7.33-20.71,6-.66-.22-1.37-.58-1.61-1.28-.25-1.05-.25-2.08.21-3.08.93-2.02,12.02-11.04,11.89-11.87-1.33-4.26-12.25-6.84-15.08-4.06-.63.62-.7,1.83-1.43,2.63-5.21,5.73-12.94,13.9-18.55,19.11-13.93,12.9-25.54,10.24-42.32,4.63-18.69-6.25-26.44-13.7-42.18-23.28-5.42-3.3-12.38-7.02-18.14-9.67-8.94-4.11-22.89-5.49-17.29-19.19,3.2-7.82,12.91-12.27,20.16-15.76,24.31-11.68,48.82-18.36,69.34-37.26,19.03-17.52,19.68-35.75,51.24-37.41,21.99-1.15,28.64,8.04,44.98,18.8,9.11,6,20.93,9.47,31.97,7.76l.17.17.03.02.38.02c.96.05,2.21-.11,3.11-.53,1.07-.38,2.11-.83,3.08-1.45.54-.2,1.07-.43,1.6-.66,1.49-.53,2.96-1.06,4.39-1.28.18-.02.38-.07.57-.13,1.45-.41,2.89-.67,4.29-.7.73-.03,1.44.07,2.16.16,1.05.13,2.08.38,3.15.49.8.09,1.65.38,2.45.65,1.57.53,3.2.85,4.92.85.26,0,.52,0,.79,0,.27,0,.57-.02.86-.07.57-.08,1.14-.23,1.69-.43.21-.07.4-.11.61-.19.59-.27,1.15-.53,1.73-.94.61-.42,1.22-.77,1.81-1,.6-.25,1.1-.28,1.7-.29.18,0,.35.02.53.02,1.04,0,2.08.2,3.1.53.91.3,1.79.74,2.68,1.18.42.2.85.33,1.27.53.5.25,1.02.5,1.49.84.71.51,1.77,1.31,2.31-1.09.1-.42.19-.85.24-1.28.03-.29.08-.61,0-.9-.09-.33-.42-.43-.69-.58-.55-.32-1.03-.74-1.57-1.08-1.03-.64-2.02-1.34-2.87-2.21l.58-.28c.26-.14.51-.29.76-.45.48-.33.89-.71,1.31-1.11.42-.41.93-.74,1.4-1.09.38-.29.77-.52,1.13-.81,1.63-1.32,3.28-2.29,4.9-3.03,1.11-.51,2.16-.81,3.29-1.21.76-.27,1.57-.34,2.35-.39.78-.08,1.55-.05,2.33-.04,1.45.03,2.91.11,4.35.32,1.35.2,2.72.33,4.11.3,1.25-.02,2.51.25,3.83-.56.13-.08.26-.17.38-.33.64-.86,1.17-2.73.79-3.74-.2-.54-.69-1.36-1.13-1.21-.16.05-.32.11-.48.16-.5.18-.94.31-1.52.21-.25-.04-.56,0-.82.06-.79.17-1.53.21-2.31,0-.3-.08-.64-.12-.97-.15-.63-.04-1.64-.18-2.27-.27-.95-.13-1.91-.21-2.87-.25-.45-.02-.9-.04-1.35-.05-.41-.01-.81-.08-1.22-.08-.4,0-.8,0-1.2.01-.12,0-.25.02-.41.05l-.25.05h-.06s.02-.05.02-.05l.03-.11c.07-.22.31-.51.48-.75.23-.31.5-.58.72-.81.11-.12.2-.23.31-.37.22-.28.44-.59.66-.92.11-.18.3-.36.45-.53.58-.66,1.16-1.37,1.73-2.18l.21-.31.07-.09.07-.09c.12-.15.27-.33.44-.57.58-.85,1.1-2.12.85-3.29-.44-2.01-1.48-.26-2.21.83-.19.29-.4.56-.61.84-.7.93-1.4,1.85-2.12,2.7-.27.33-.54.6-.82.9-.45.47-.9.94-1.35,1.41-.94,1.04-1.89,2.08-2.86,2.96-1.38,1.25-2.78,2.3-4.18,3.26-.16.11-.32.17-.48.28-1.74,1.29-3.43,2.13-5.13,3.01-.61.32-1.22.65-1.84.93-.56.25-1.05.54-1.66.68-1.22.28-2.53.31-3.78.41-1.25.1-2.49.19-3.74.28-1.48.11-2.95.21-4.43.3-1.55.1-1.05-1.01-2.59-.92-1.45.08-4.95,1.35-6.4,1.41-1.15.05-2.3.11-3.45.12-1.14,0-2.26-.14-3.4-.15-.09,0-.19,0-.28,0-.35.01-.73.12-1.09.18-1.23.26-2.45.49-3.67.81-.62.17-1.25.43-1.87.67-2.77.47-5.77,1.4-8.52,1.51-7.76.29-17.47-1.64-22.91-7.55,6.65-1.43,13.55-3.08,19.69-6.1,5.7-2.81,16.44-12.64,21.19-13.57,1.17-.23,2.53.05,3.73-.04-1.2-6.93-7.95-14.47-15.68-11.91-.96.32-5.95,6.9-7.77,8.45-8.82,7.53-22.31,9.55-33.64,8.7-2.52-.19-14.08-2.16-12.95-6.01.13-.45,5.85-4.36,6.9-5.3,4.23-3.79,8.22-9.18,10.53-14.39.33-.74,1.99-4.49,2-4.75.2-3.23-9.22-6.4-10.68-2.76-.32.8-.16,2-.52,2.96-1.09,2.86-2.86,6.12-5.08,8.24-1.81,1.73-9.7,6.8-11.65,4.07-1.54-2.16,3.37-11.33,3.73-14.11-2.48-4.14-8.56-5.8-12.82-3.75-3.27,1.57-1.3,3.99-1.58,7.11-1.44,16.01-26.82,15.74-38.24,19.12-20.33,6.02-25.64,16.9-41.19,27.17-12.79,8.46-25.19,4.83-39.63,5.56-19.53.99-56.53,11.47-57.67-19.39-.43-11.71,2.75-23.38,7.69-33.92,4.75-10.15,11.44-20.14,19.26-28.2,10.67-11.01,24.71-18.78,39.79-21.68,14.46-2.78,30.02-1.39,43.27-7.83,11.73-5.7,20.07-16.87,31.72-22.73,15.62-7.85,35.17-5.21,50.22-14.1,3.56-2.1,7-5.22,7.5-9.32.51-4.1-3.61-8.63-7.45-7.1-1.28.51-2.27,1.55-3.28,2.5-15.07,14.12-39.4,9.54-58.7,16.88-8.85,3.37-16.49,9.21-24.69,13.95-8.2,4.74-17.61,8.47-26.96,6.94-1.42-.23-2.99-.71-3.65-1.99-.67-1.31-.11-2.89.5-4.24,7.86-17.56,22.81-33.32,41.83-36.22,11.83-1.8,23.77,1.47,35.7,2.41,13.59,1.06,27.41-.97,40.12-5.89.85-.33,1.73-.7,2.3-1.41.92-1.15.74-2.82.43-4.26-.81-3.78-2.2-7.44-4.09-10.81-10.85,6.25-23.14,9.98-35.63,10.84-3.33.23-7.57-.35-8.53-3.55-.42-1.39-.03-2.9.49-4.25,4.2-10.91,15.97-16.61,26.79-21.04,15.1-6.17,31.68-11.96,47.4-7.59,10.83,3.01,20.13,10.63,31.21,12.51,3.81.64,7.91.53,11.3-1.33,3.39-1.86,5.83-5.78,5.07-9.57-.33-1.66-1.55-3.37-3.23-3.37-1.04,0-1.95.63-2.86,1.11-6.65,3.5-14.51-.69-21.46-3.53-21.63-8.83-46.03-4.36-69.28-2.04-1.74.17-4.09-2.02-2.41-2.48l-18.28-.13c-6.45,15.46-14.3,32.37-29.77,38.81-7.43,3.09-15.74,3.3-23.48,5.5-8.1,2.3-15.55,6.83-21.32,12.96-1.17,1.25-2.63,2.68-4.31,2.32-.94-.2-1.66-.94-2.24-1.7-6.46-8.43-1.46-21.52,7.34-27.46,8.8-5.95,19.94-6.82,30.5-7.95s21.81-3.05,29.5-10.38c1.91-1.83,3.17-5.65.68-6.56-.85-.31-1.78-.05-2.64.2-10.64,3.11-21.54,5.35-32.54,6.71-3.88.48-8.18.74-11.31-1.61-3.12-2.35-3.36-8.31.36-9.51-3.28-3.02-8.78-1.98-12.23.85-3.44,2.83-5.48,6.98-7.93,10.7-4.38,6.66-10.35,12.25-17.28,16.19-.96.54-2.04,1.07-3.12.86-1.67-.34-2.48-2.21-2.91-3.85-2.26-8.54-1.66-17.8,1.68-25.98h-13.92c-4.81,11.54-5.02,24.93-.58,36.63,4.15,10.93,12.31,21.53,9.95,32.98-1.98,9.58-10.88,16.13-19.79,20.15-4.8,2.17-10.29,3.89-15.25,2.14-3.06-1.08-5.52-3.37-7.88-5.59-7.86-7.39-13.63-15.12-25.18-24.67-2.95-2.44-7.77-8.6-8.95-10.43-3.14-4.89-3.16-9.23-5.22-14.94-5.44-15.1-27.58-17.95-21.49-32.8-20.62,13.7.69,24.04-19.93,37.75,2.18,14.62,16.92,23.25,29.07,31.66,10.45,7.23,20.33,16.19,25.06,27.99,4.73,11.79,3.01,26.89-6.78,34.98-3.27,2.7-7.59,4.52-11.88,3.76-6.08-1.07-8.59-6.1-11.46-10.92-4.76-8.01-7.79-16.85-12.72-24.74-.91-1.46-1.9-2.92-2.99-4.32-3.86-2.37-7.61-5.05-12.07-6.12-3.88-.93-7.89-.74-11.86-1.01-1.15.17-2.3.22-3.43.05-3.61-.54-7.12-1.98-10.37-3.6-6.14-3.06-14.02-7.85-16.69-14.56-7.02-17.67,9.76-31.84,11.44-48.66.86-8.58-.15-17.73-3.41-25.71h-13.9c2.22,8.3,5.93,21.47-.31,28.95-3.28,3.94-6.56-1.75-8.95-3.75-2.66-2.23-5.99-4.16-8.42-6.64-5.06-5.14-8.39-12.61-12.44-18.55h-11.59c-.76.9-.08,1.51.26,2.31,1.81,4.18,5.53,8.64-1.28,9.71-6.19.97-23.71-1.54-30.39-2.9-3.16-.64-12.81-4.66-14.93-3.62-4.17,2.06.92,7.33,3.28,8.89,18.23,12.07,43.33,4.21,60.14,18.07,3.97,3.27,7.7,7.58,7.88,13.02.11,3.37-1.83,14.26-6.12,14.26-1.67,0-8.08-6.83-10.19-8.41-13.44-10.11-23.91-7.52-38.06-12.34-17.98-6.13-21.1-24.81-30.25-38.98h-17.96l.34,2.92c-1.34,1.89-12.02-2.11-14.24-2.92h-47.51c-9.27,3.81-18.49,10.92-29.12,9.13-1.75-.29-5.41-2.91-6.21-2.51-3.59,1.77-2.85,10.57.41,12.37,13.81,7.65,31.55-5.69,44.05-10.15,14.8-5.29,31.88,1.58,46.21,6.8,10.12,3.68,16.42,5.63,23.44,14.22,5.28,6.46,11.56,14.16-1.44,15.33-8.47.76-27.82-5.53-35.49-9.66-.98-.53-.35-1.6-1.58-1.33-.77.38-4.12,9.96-4.3,11.34-1.16,8.83,4.22,6,9.94,6.76,4.31.58,9.3,3.29,13.75,4.21,16.41,3.39,33.05-3.66,49.58-2.65,23,1.4,38.31,16.49,47.29,36.71,3.54,7.96-4.57,6.6-10.16,6.11-20.3-1.78-28.38-15.49-45.43-21.19-19.24-6.44-40.61-2.46-57.75-15.82-3.4-2.65-5.86-8.49-9.1-.96-.75,1.74-2.24,7.67-1.35,9.1.29.46,8.03,5.25,9.18,5.88,14.26,7.83,31.58,6.28,46.55,12.54,11.88,4.97,17.23,13,26.89,20.04,16.07,11.73,36.33,7.35,54.66,11.97,33.08,8.35,63.02,49.15,61.77,83.12-1.14,30.86-38.15,20.38-57.67,19.39-14.44-.73-26.83,2.89-39.63-5.56-15.55-10.28-20.86-21.15-41.19-27.17-11.42-3.38-36.79-3.11-38.24-19.12-.28-3.12,1.69-5.54-1.58-7.11-4.27-2.05-10.34-.39-12.82,3.75.36,2.78,5.28,11.95,3.73,14.11-1.96,2.74-9.84-2.34-11.65-4.07-2.22-2.13-3.99-5.39-5.08-8.24-.36-.95-.2-2.15-.52-2.96-1.45-3.64-10.87-.47-10.68,2.76.02.26,1.68,4.01,2,4.75,2.31,5.2,6.29,10.59,10.53,14.39,1.05.94,6.77,4.85,6.9,5.3,1.13,3.85-10.44,5.82-12.95,6.01-11.33.85-24.82-1.17-33.64-8.7-1.82-1.55-6.81-8.13-7.77-8.45-7.73-2.56-14.48,4.98-15.68,11.91,1.2.1,2.56-.19,3.73.04,4.75.93,15.49,10.76,21.19,13.57,6.14,3.02,13.04,4.66,19.69,6.1-5.44,5.91-15.15,7.84-22.91,7.55-2.75-.1-5.75-1.04-8.52-1.51-.62-.24-1.25-.5-1.87-.67-1.22-.32-2.44-.55-3.67-.81-.36-.07-.74-.17-1.09-.18-.66-.01-1.3,0-1.96.11l-.14.03v.03c0,.14-.02.26-.03.37-.03.26-.11.55-.2.81-.2.59-.52,1.11-.91,1.53-.58.6-1.3.93-2.04.93h-.23c-.33-.01-.63-.08-.84-.13l-.12-.03-.27-.06-.18-.04c-1.54-.29-3.08-.62-4.67-1.03l-1.34-.32-.93-.21-.94.11-2.22.24c-.21.02-.42.05-.64.07-.53.05-1.02.1-1.46.19h-.05c-.21.03-.22.09-.44.08-.67.11-1.31.18-1.94.25-.26.03-.51.06-.77.09l-1.49.17-.74.09-.32.04c-.06,0-.18.03-.33.03h-.11c-.22,0-.46-.01-.73-.09l-.41-.09c-.35-.08-.67-.27-.9-.53l-.78-.88c-.83-.87-.74-1.96-.69-2.49l.03-.23.06-.27.08-.31v-.04c-.96-.49-1.94-.98-2.91-1.47-1.7-.88-3.38-1.73-5.13-3.01-.16-.12-.32-.17-.48-.28-1.41-.96-2.81-2.01-4.18-3.26-.97-.88-1.92-1.92-2.86-2.96-.45-.47-.9-.94-1.35-1.41-.27-.29-.55-.57-.82-.9-.72-.85-1.42-1.77-2.12-2.7-.2-.28-.42-.55-.61-.84-.73-1.09-1.77-2.84-2.21-.83-.25,1.17.26,2.44.85,3.29.17.24.33.42.44.57l.07.09.07.09.21.31c.57.81,1.15,1.52,1.73,2.18.15.17.33.36.45.53.21.33.44.63.66.92.1.14.2.25.31.37.21.23.48.5.72.81.18.23.41.53.48.75l.03.11.02.05h-.06s-.25-.05-.25-.05c-.16-.03-.29-.05-.41-.05-.4-.01-.8-.02-1.2-.01-.41,0-.81.07-1.22.08-.45.01-.9.03-1.35.05-.9.04-1.8.11-2.69.23-.67.09-1.36.24-2.03.27-.47.02-.97.05-1.39.17-.78.22-1.53.17-2.31,0-.26-.06-.58-.1-.82-.06-.58.1-1.02-.03-1.52-.21-.16-.05-.32-.11-.48-.16-.44-.15-.92.67-1.13,1.21-.38,1.01.14,2.88.79,3.74.12.16.25.25.38.33,1.32.81,2.57.53,3.83.56,1.39.03,2.76-.1,4.11-.3,1.44-.21,2.9-.29,4.35-.32.78,0,1.55-.03,2.33.04.78.06,1.59.12,2.35.39,1.13.41,2.18.7,3.29,1.21,1.62.74,3.27,1.71,4.9,3.03.36.29.76.52,1.13.81.47.35.97.68,1.4,1.09.42.4.83.79,1.31,1.11.24.17.5.32.76.45l.58.28c-.85.87-1.84,1.56-2.87,2.21-.54.34-1.02.76-1.57,1.08-.26.15-.59.26-.69.58-.08.29-.04.6,0,.9.05.43.14.86.24,1.28.54,2.4,1.6,1.6,2.31,1.09.47-.34.99-.59,1.49-.84.42-.21.85-.33,1.27-.53.89-.44,1.77-.89,2.68-1.18,1.02-.33,2.05-.53,3.1-.53.18,0,.35,0,.53-.02.6,0,1.1.04,1.7.29.59.23,1.21.57,1.81,1,.58.41,1.14.67,1.73.94.2.09.4.12.61.19.55.2,1.12.35,1.69.43.28.05.58.06.86.07.26,0,.53,0,.79,0,1.72,0,3.35-.31,4.92-.85.8-.27,1.66-.56,2.45-.65,1.07-.11,2.1-.36,3.15-.49.72-.08,1.44-.19,2.16-.16,1.4.02,2.83.29,4.29.7.19.05.39.1.57.13,1.42.22,2.9.74,4.39,1.28.53.23,1.06.46,1.6.66.97.62,2.01,1.07,3.08,1.45.91.42,2.15.58,3.11.53l.38-.02.03-.02.17-.17c11.04,1.71,22.86-1.76,31.97-7.76,16.34-10.76,22.99-19.96,44.98-18.8,31.56,1.65,32.21,19.88,51.24,37.41,20.52,18.9,45.03,25.58,69.34,37.26,7.25,3.48,16.96,7.94,20.16,15.76,5.61,13.7-8.34,15.08-17.29,19.19-5.76,2.65-12.72,6.37-18.14,9.67-15.74,9.58-23.49,17.03-42.18,23.28-16.78,5.61-28.39,8.27-42.32-4.63-5.62-5.2-13.34-13.38-18.55-19.11-.73-.8-.8-2.01-1.43-2.63-2.83-2.78-13.75-.2-15.08,4.06-.12.83,10.97,9.85,11.89,11.87.46,1,.46,2.03.21,3.08-.24.71-.96,1.06-1.61,1.28-4.03,1.33-17-3.59-20.71-6-4.72-3.06-4.62-6.22-12.01-5.28-1.8.23-11.25,3.45-10.76,5.44,9.05,6.95,19.08,11.56,29.83,15.37,3.87,1.37,16.83,4.29,18.76,6.73,4.48,5.66-5.36,8.73-9.54,9.42-7.24,1.2-11.74-.08-18.49-.51-18.57-1.18-27.76,15.92-46,1.39l-3.81-3.71c-1.62.79-3.67,13.43-4.31,15.86l.94.82c4.32.48,8.03,2.9,12.21,4.01,5.55,1.46,11.91,2.24,17.54,1.07,2.38-.5,5.43-2.44,7.27-2.63,10.58-1.13,21.31.25,32.09-2.62,2.93-.78,10.92-4.53,13.04-4.36,4.41.34-2.77,7.81-3.76,9.29,4.54-.3,8.22-3.38,11.88,1.14,6.22-5.21,14.4-9.69,22.6-10.39,15.9-1.35,30.32,6.14,46.63,2.02,21.7-5.48,27.07-30.49,56.64-20.15,35.72,12.49,28.91,67.17,24.96,96.54-5.81,43.27-20.49,105.12-66.82,121.47-45.99,16.23-112.11,21.99-161.08,26.06-60.92,5.06-121.8,9.45-182.41,17.47-44.23,5.85-87.85,19.25-131.89,26.57v1.16H28.58v-1.16c-44.04-7.32-87.66-20.72-131.89-26.57Z"/>
    </g>
  </g>
  <g id="Grass">
    <g>
      <path class="cls-6" d="M309.8,72.48c-1.4-2.24-6.01,1.92-5.98-1.98,11.77-2.92,24.75-4.74,36.94-4.69,20.62.09,34.04,3.26,53.51,7.69,13.63,3.1,30.87,4.99,44.88,5.67,11.21.55,29.94-2.17,39.6,2.3,8.9,4.12,11.44,13.99,2.88,20.17-11.53,8.32-28.37,2.22-41.21.87-14.74-1.55-29.08,1.04-43.85,1.27-23.9.37-48.39.24-71.62-6.87-10.92-3.34-32.35-12.87-15.16-24.43ZM370.33,95.77l-20.61-1.33c.09.94,2.96,1.16,3.74,1.24,4.53.51,10.04.94,14.56.75.81-.03,2.47.5,2.32-.66Z"/>
      <path class="cls-4" d="M446.74,81.24c-4.03.66-7.77-1.11-11.62-1.35-15.71-.98-26.3.31-42.27-3.63-16.67-4.11-30.14-6.72-47.56-7.65-10.7-.57-19.65,2.74-29.26,2.72-.56,0-5.09-.55-3.66-2.05.77-.8,19.27-4.51,21.59-4.69,9.74-.75,28.92,1.54,39.26,2.69,12.06,1.35,23.16,7.49,35.35,8.55,9.35.82,18.76-.48,28.34.93.89.13,12.56,1.85,9.82,4.47Z"/>
      <path class="cls-4" d="M411.49,101.87c4.47-1.64,9.16-.92,13.62-1.35,7.16-.69,13.1-1.89,20.62-1.31,10.37.8,27.62,7.88,35.92-.69,4.75-4.9,2.17-10.44-3.04-13.57-5.79-3.48-12.73-3.5-19.24-4.38-1.46-1.22,2.49-1.84,3.07-1.91,5.99-.72,11.74-.05,17.13,2.68,8.31,4.21,11.79,13.16,4.68,20.45-10.72,10.99-28.89,2.28-41.81,1.38-5.73-.4-12.83-.12-18.68,0-3.85.08-9.48,2.56-12.28-1.29Z"/>
      <path class="cls-4" d="M475.78,89.45c3.3,3.56,3.1,7.52-1.51,9.67-8.56,4.01-22.92-2.32-32.03-3.74-5.46-.85-10.73-.61-16.12-1.52.21-1.23,1.37-1.11,2.24-1.41,13.12-4.51,35.96,7.24,44.29,3.05,3.28-1.65-1.59-5.25-3.7-6.22-2.59-1.19-5.54-1.29-8.24-2.08-1.88-2.64,6.65-1.97,8.02-1.69,1.87.38,5.76,2.54,7.05,3.93Z"/>
      <path class="cls-9" d="M182.09,60.02c-4.07,7.02,15.45,5.05,18.18,5.16,20.06.82,40.34.75,60.48,1.39,26.38.83,66.6-8.95,91,.8,11.06,4.42,5.8,8.23,1.88,16.07.43,1.87,8.45,2.91,10.26,3.05,20.64,1.57,53.85-8.34,71.32,4.51,11.52,8.48-.78,21.28-10.62,24.27-20.15,6.12-48.56.31-69.36-.83-3.46-.19-13.53-.56-16.32.29-1.29.4-2.96,1.75-2.55,3.23,5.97,4.91,10.11,13.65,2.15,18.98-15.38,10.3-46.69-9.63-63.76-11.19-11.54-1.05-25.67,4.41-37.26,5.3-36.01,2.78-72.82-21.32-109.09-23.93-37.5-2.7-76.56,20.97-111.35-4.39C3.47,92.85.34,81.39,1.68,64.89c4.41-53.89,82.43-27.65,115.41-25.63,20.73,1.27,39.44-2.69,61.11.75,8.24,1.31,16.49,5.27,10.02,14.51-1.18,1.68-5.92,5.12-6.14,5.49Z"/>
      <path class="cls-5" d="M22.42,35.92c1.52,1.54-7.96,10.52-9.3,12.32C.09,65.8,5.65,89.85,23.66,101.53c27.13,17.59,48.39,6,76.92,4.24,16.6-1.02,35.57.19,51.69,4.17,15.09,3.73,29.33,10.72,44.54,14,7.46,1.61,13.98,1.7,21.44,2.4,1.65,4.47-8.95,3.54-11.91,3.36-27.45-1.66-51.28-17.93-80.47-19.31-39.02-1.85-92.6,23.51-119.58-18.12C-5.74,73.69-.6,42.74,22.42,35.92Z"/>
      <path class="cls-5" d="M196.7,65.86c2.77,4.23-11.57,4.48-15.59-.05-5.22-5.89,3.11-12.75,6.14-17.59-.31-3.82-20.14-4.39-23.5-4.34-18.94.28-38.16,3.91-57.17,2.68-16.91-1.09-31.86-9.14-48.58-11.29-2.5-.32-21.6-.92-21.6-3,2.42-1.55,6.75-2.1,9.64-2.32,21.46-1.59,45.85,5.45,67.85,6.64,20.84,1.12,50.1-1.96,69.52,2.99,4.3,1.1,8.98,2.89,9.09,8.11.12,5.72-11.59,10.97-8.78,15.53,1.69,2.76,10.14,1.41,12.98,2.66Z"/>
      <path class="cls-5" d="M13.76,69.18c1.94,8.2,6.65,16.39,13,21.93,29.45,25.67,61.42-1.59,94.14,4.97,1.26.25,9.34,2.23,7.28,4.36-6.26.3-12.75-.39-18.99-.02-25.77,1.51-47.59,15.03-73.69,1.9-9.51-4.78-22.22-18.47-23.1-29.45-.06-.78-.27-5.31,1.35-3.69Z"/>
      <path class="cls-5" d="M59.24,47.65c-.6-.62-1.44-1.86-1.58-2.75-.05-1.41,18.34,4.31,19.96,4.66,11.71,2.48,26.87,3.86,38.89,4.35,12.23.5,27.23-1.95,38.61-.7,1.49.16,5.69,1.08,5.69,3,0,3.47-10.42,2.18-13,2.33-19.47,1.18-74.49,3.61-88.57-10.89Z"/>
      <path class="cls-5" d="M349.69,114.41l-11.96,2.02c.99,6.28,8.04,7.21,6.49,14.8-4.23,20.63-43.07,1.57-54.55-1.69-10.73-3.05-20.6-3.63-31.77-3.15-.24-2.02,2.36-2.21,3.83-2.48,10.67-1.93,21.66-.45,32.09,2.14,12,2.98,30.85,13.2,42.51,7.9,8.88-4.03-1.86-9.54-3.32-13.17-2.46-6.11,3.86-8.83,9.01-9.06,2.1-.1,7.56-.1,7.66,2.69Z"/>
      <path class="cls-5" d="M374.31,85.81c.26,1.43-.64,1.58-1.67,1.98-4.44,1.75-20.23,1.63-21.99-3.95-2.11-6.7,11.08-10.92-1.06-14.22-21.59-5.88-37.8-3.64-59.4-2.41-.74.04-4.41.5-3.68-1.02.83-1.74,7.68-2.59,9.73-2.91,17.27-2.65,36.68-2.55,53.59,2.1,5.79,1.59,12.45,4.31,8.64,11.58-.76,1.45-4.76,4.79-3.83,6.2,6.11,4.65,12.65,2.72,19.66,2.64Z"/>
      <path class="cls-5" d="M416.88,84.49c6.37-1.09,21.4,5.27,23.44,11.48,4.33,13.2-15.44,21.65-25.74,22.46-15.91,1.26-35.08-1.4-51.1-2.16l-2.46-1.52c1.63-2.07,4.13-.35,6.28-.3,10.87.23,21.78-.15,32.65-.06,3.84.03,7.62.98,11.94.68,7.63-.53,25.38-5.7,25.68-14.95.31-9.65-15.66-10.37-20.68-15.63Z"/>
      <path class="cls-5" d="M61,94.45c-14.33,2.62-33.23-3.84-38.23-18.64-2.88-8.52-1.35-19.49,6.74-24.51l1.56.94c-6.67,13.86-5.68,28.62,9.33,35.89,6.29,3.05,12.35,2.92,18.49,4.79.85.26,1.94.51,2.12,1.53Z"/>
      <path class="cls-5" d="M422.87,93.12c3.19-3.48,10.41,1.15,11.18,5.17,1.6,8.34-15.5,12.34-21.5,12.8-2.21.17-17.56.6-17.61-1.65.88-1.35,1.65-.92,2.9-.92,8.35.03,21.25,0,28.8-3.95,9.47-4.94,3.58-9.51-3.78-11.44Z"/>
      <path class="cls-7" d="M229.63,6.4c.34.03.64.05.85.37.23.3.22,1.38.17,1.82-.91,8.07-9.44,19.94-13.14,27.72-2.06,4.34-4.33,9.58-5.87,14.11-2.19,6.45-3.5,15.18-6.14,21.12-2.08,4.69-6.51,3.1-7.2-1.7-1.08-7.51,6.17-26.55,9.44-33.99,3-6.83,13.54-26.69,20.46-29.09.44-.15.95-.4,1.41-.35Z"/>
      <path class="cls-7" d="M174.99,68.55c-.69-1.3.6-4.63.84-6.01,2.67-15.57,5.91-32.2,6.42-47.94.09-2.92-.83-9.74.98-11.8,2.08-2.37,4.57.95,5.39,2.9,5.65,13.42-.81,41.19-5.93,54.33-.68,1.75-3.34,8.22-4.5,9.11-.86.66-2.71.33-3.2-.6Z"/>
      <path class="cls-7" d="M156.75,3.7c3.67.66,5.22,12.5,5.44,15.6.76,10.36-1.04,22.47-4.45,32.29-.51,1.48-1.58,4.31-2.33,5.57-1.66,2.83-4.55,3.63-4.81-.4-.2-3.11,1.33-8.86,1.72-12.36.41-3.74.65-7.79.82-11.55.35-7.49-1-18.05.14-24.82.29-1.73,1.12-4.75,3.46-4.33Z"/>
      <path class="cls-7" d="M204.82,17.21c2.38.2,2.05,4.17,1.68,5.93-1.14,5.47-3.74,10.76-5.48,16.02-2.65,8.01-4.83,15.62-6.52,23.89-.5,2.43-.83,8.8-2.56,10.32-3.45,3.04-3.7-4.79-3.64-6.59.41-11.74,3.8-33.54,9.73-43.43,1.19-1.98,4.22-6.37,6.79-6.14Z"/>
      <path class="cls-7" d="M119.65,46.05c-.16-.19.44-4.31.59-4.92.42-1.74,1.28-2.95,1.72-4.41,2.05-6.7,3.59-12.94,4.41-19.9.53-4.49.15-12.21,2.48-16,1.27-2.07,3.46.29,4.18,1.87,5.17,11.27.98,34.75-9.55,41.99-.68.46-3.19,2.15-3.84,1.37Z"/>
      <path class="cls-7" d="M241.34,47.87c3.45.24,2.56,4.06,2.29,6.49-4.59,7.7-8.1,16.47-12.78,24.04-1.13,1.83-2.38,4.47-4.73,4.7-1.87-.53-1.33-6.41-1.12-7.96.93-6.94,4-13.47,7.65-19.39,1.54-2.48,5.41-8.1,8.69-7.88Z"/>
      <path class="cls-7" d="M168.76,25.21c2.39-1.32,4.48.64,4.99,2.96,2.48,11.39-4.39,27.65-10.32,37.21-.62,1-3.73,5.73-4.74,2.79-.88-2.58,1.43-5.52,2.25-7.89,2.34-6.85,3.75-13.48,4.63-20.63.4-3.28.26-12.82,3.19-14.43Z"/>
      <path class="cls-7" d="M232.15,38.64c1.16.1,1.76.95,1.78,2.07.09,4.83-7.33,15.42-9.93,20.05-1.93,3.42-3.51,7.39-5.54,10.68-3.59,5.82-7.23,3.82-6.07-2.38,1.32-7.03,11.1-25.45,17.13-29.39.69-.45,1.8-1.1,2.63-1.02Z"/>
      <path class="cls-7" d="M140.22,28.34c2.11.19,3.15,2.87,3.33,4.71.44,4.61-3.08,18.3-5.77,22.03-.67.92-1.46,1.81-2.31.49-.91-1.4.82-8.21,1.02-10.39.37-4.03-1.02-11.21.27-14.44.51-1.27,2.05-2.53,3.46-2.4Z"/>
      <path class="cls-7" d="M114.62,16.42c1.12.12,2.26,1.95,2.43,2.99.58,3.51-2.81,11.54-4.9,14.46-.88,1.23-3.74,4.04-4.8,1.67-.67-1.5,2.33-9.84,2.91-12.07.59-2.24.49-7.45,4.36-7.04Z"/>
      <path class="cls-7" d="M147.1,42.58c.49.03.99,1.09,1.1,1.55.58,2.22-.67,7.72-1.43,10.01-.52,1.57-2.07,5.48-2.97,6.7-.78,1.05-1.94,1.58-3.21,1.14-3.19-1.11-.25-5.93.45-7.89.92-2.58,1.75-5.6,2.85-8.07.44-.99,2-3.52,3.2-3.44Z"/>
      <path class="cls-1" d="M201.34,74.58c-2.5-.37-3.15-2.96-3.46-5.11-2.17-14.85,15.71-55.72,29.65-62.14,1.1-.51,3.69-.98,2.47.74-1.89,2.67-6.22,5.61-8.68,8.52-9.23,10.95-21.92,37.06-21.26,51.34.11,2.4,1.11,4.33,1.28,6.65Z"/>
      <path class="cls-1" d="M175.89,69.4c-.74-.05-.77-.43-.97-1.01-.85-2.48,2.78-15.97,3.44-19.7,1.55-8.86,2.91-17.8,3.23-26.78.16-4.59-.81-12.04-.03-16.1.26-1.34.9-2.78,2.11-3.51,1.15-.69,2.04-.7,1.51.85-2.18,6.35-.56,16.34-1.08,23.54-1.04,14.22-4.15,29.04-8.21,42.71Z"/>
      <path class="cls-1" d="M204.59,17.27c.38.05.75.04,1.09.27l.38,1.18c-3.59.86-5.62,4.3-7.28,7.31-5.68,10.33-7.99,25.19-8.34,36.91-.08,2.65.65,7.78.31,9.77-.13.74-.15.89-.91,1.17-2.29-3.61-1.79-8.61-1.7-12.76.26-12.04,2.47-26.9,8.72-37.33,1.49-2.49,4.43-6.92,7.74-6.52Z"/>
      <path class="cls-1" d="M158.13,4.16c-.41,1.07-1.44,1.19-1.97,2.32-3.35,7.05-1.27,34.25-2.54,44.52-.34,2.76-.29,6.29-2.78,8.03-1.17-.35.58-15.68.67-17.83.38-8.28-1.07-29.17,1.8-35.54.93-2.05,2.97-2.9,4.82-1.5Z"/>
      <path class="cls-1" d="M173.84,27.71c-2.37-.98-3.84-1.03-4.78,1.6-1.94,5.44-1.39,15.28-2.82,21.59-1.02,4.49-2.87,10.33-4.69,14.56-.64,1.5-2.39,5.19-3.03,1.68-.47-2.6,1.02-3.95,1.67-6.03,1.22-3.97,2.79-8.66,3.65-12.65,1.32-6.15.59-15.33,2.94-20.82,1.63-3.81,6.27-4.39,7.06.07Z"/>
      <path class="cls-1" d="M213.99,75.15c-1.08-.27-1.5-1.72-1.66-2.68-1.23-7.42,5.3-19.04,9.56-24.97,2.71-3.77,6.17-8.71,11.26-8.76.41.62.6.71.07,1.35-.92,1.11-3.61,2.54-5,3.99-6.14,6.42-11.79,17.06-13.57,25.75-.35,1.72.16,3.62-.67,5.33Z"/>
      <path class="cls-1" d="M130.98.26c-.42,1.41-1.49,2.07-1.89,3.58-1.53,5.87-.14,13.99-1.51,20.38-1.13,5.29-3.64,14.19-5.57,19.19-1.11,2.87-3.72,4.97-2.93.91,1.42-7.29,5.3-14.31,6.44-22.38.7-4.98-.33-17.15,2.42-20.68.61-.78,2.07-1.52,3.05-1Z"/>
      <path class="cls-1" d="M240.25,50.67c-4.96,2.49-12.15,16.88-13.24,22.29-.57,2.83.14,6.34-.38,8.79-.17.8-.2,1.31-1.1,1.61-3.81-8.59,1.23-19.19,5.94-26.55,2.27-3.55,8.14-12.41,12.47-7.21-1.12.65-2.55.5-3.68,1.07Z"/>
      <path class="cls-1" d="M136.42,56.18c-2.38,1.51-.47-9.21-.44-9.86.26-4.54-1.05-13.29,1.32-16.86.77-1.16,3.3-2.11,3.89-.4-1.39.61-2.74,1.96-3.16,3.45-.79,2.8.08,9.92-.17,13.46-.24,3.31-.87,6.91-1.43,10.2Z"/>
      <path class="cls-1" d="M148.13,43.24c-.93,1.46-1.81,2.81-2.54,4.41-1.29,2.82-3.62,7.84-4.43,10.63-.4,1.37.18,2.24.14,3.29-.11,2.37-2.95.21-2.64-2.32,1.43-3.74,2.63-7.93,4.21-11.56.96-2.19,2.41-6.4,5.26-4.44Z"/>
      <path class="cls-1" d="M114.71,16.75l-5.9,18.83c-.18.53-.77,1.02-1.31.73-1.41-.78,2.09-10.93,2.6-12.74.69-2.4.77-7.57,4.61-6.82Z"/>
      <path class="cls-7" d="M357.94,48.75c5.87,2.33,7.3,9.46,8.29,15.11,1.39,7.99,2.03,17.96.16,25.87-.56,2.37-2.69,9.94-6.16,8.46-2.22-.95-1.14-9.7-1.15-11.73-.03-5.9-.24-11.97-.98-17.85-.69-5.47-3.36-13.5-1.27-18.62.24-.59.41-1.03,1.11-1.23Z"/>
      <path class="cls-7" d="M379.29,100.6c-.49-.39-1.27-6.13-1.32-7.17-.65-12.82,3.89-36.44,12.21-46.54,1.54-1.87,3.29-3.59,5.94-3.32.46.2.5.53.54.97.46,4.75-3.9,10.48-5.85,14.79-3.28,7.23-5.42,15.33-6.93,23.13-.99,5.12-1.29,10.8-2.53,15.81-.18.73-.83,3.31-2.05,2.34Z"/>
      <path class="cls-7" d="M372.75,100.39c-1.93,1.11-2.34-2.54-2.33-3.77.06-8.66,2.66-18.09,2.31-26.97.01-3.24-.43-7.17.1-10.33.38-2.24,1.71-5.78,4.12-3.09,1.42,1.58,1.7,5.31,1.66,7.41-.14,8.91-1.68,23.56-4,32.06-.22.81-1.36,4.41-1.85,4.69Z"/>
      <path class="cls-7" d="M338.56,55.9c.67-.09,2.58,1.35,3.05,1.93,4.3,5.31,6.44,29.71,3.03,35.35-1.59,2.62-3.44.9-3.9-1.49-.76-3.94.13-10.04-.12-14.35-.33-5.56-4.24-15.49-3.16-19.85.13-.51.56-1.53,1.11-1.6Z"/>
      <path class="cls-7" d="M409.5,72.27c.96-.08,1.44-.03,1.54,1.01.51,5.11-3.07,9.73-5.03,14.1-1.14,2.53-4.6,12.33-6.27,13.46-.49.33-.96.4-1.52.19-.45-.19-.94-1.46-1.04-1.95-1.49-7.05,3.56-26.11,12.32-26.81Z"/>
      <path class="cls-7" d="M388.8,97.5c-1.45-1.8-.66-8.83-.3-11.23.73-4.88,5.26-17.94,9.87-20.06,3.38-1.55,4.58.66,3.59,3.85-.85,2.77-4.22,7.27-5.59,10.51-2.07,4.9-3.08,11.37-5.35,15.8-.31.6-.62,1.15-1.19,1.53-.29.11-.86-.19-1.03-.4Z"/>
      <path class="cls-7" d="M350.18,67.99c1.11-.23,2.18.53,2.84,1.36,3.15,4.01,1.53,20.02.35,25-.35,1.5-2.01,7.72-3.85,7.58-1-.23-1.14-1.37-1.16-2.21-.06-2.79,1.19-5.92,1.53-8.67.17-1.32.09-4.28.03-5.7-.16-4.11-2.04-10.13-1.83-13.62.06-1.02.97-3.5,2.08-3.74Z"/>
      <path class="cls-7" d="M329.29,94.83c-.68-2.88-1.23-5.83-2.04-8.68-.97-3.44-3.74-9.57-2.65-12.88.89-.82,2.15-.4,3.03.23,3.69,2.64,5.09,12.59,4.34,16.78-.1.57-1.59,5.55-2.68,4.55Z"/>
      <path class="cls-7" d="M335.43,97.93c-.3.26-1.03.41-1.44.35-.49-.42-.95-6.11-.94-7.15.02-1.59.09-8.16,2.39-8.02.4.07.76.26,1.07.51,2.39,1.94,1.14,12.42-1.08,14.3Z"/>
      <path class="cls-1" d="M395.85,43.6c.57-.06.97.23,1.1.78,1.03,4.6-4.33,12.14-6.28,16.32-6.1,13.09-5.43,22.79-8.47,35.99-.39,1.68-.94,3.82-2.23,5.01-1.63-.16.5-4.77.7-5.93,1.29-7.44.91-14.2,2.82-21.94,2.75-11.2,8.44-19.66,12.37-30.25Z"/>
      <path class="cls-1" d="M361.45,98.49c.62-2.4,1.92-4.22,2.52-6.71,2.08-8.62,1.46-29.2-2.76-37.05-.62-1.16-4.36-5.27-3.37-6.1,2.88-.22,5.05,3.3,6.21,5.61,3.83,7.63,4.64,28.77,2.51,37.01-.61,2.35-2.3,7.33-5.11,7.25Z"/>
      <path class="cls-1" d="M343.21,94.46c2.4-7.18,1.66-15.71.6-23.16-.81-5.72-2.53-10.15-5.19-15.22,3.72.21,5.36,5.19,6.21,8.27,1.75,6.28,2.96,23.18.16,28.85-.34.68-.9,1.46-1.79,1.26Z"/>
      <path class="cls-1" d="M377.3,56.2c2.99,3.38,1.29,17.87.72,22.45-.69,5.56-1.85,12.34-3.31,17.74-.38,1.41-.8,2.78-1.42,4.1l-1.28.14c.98-3.81,1.95-7.67,2.63-11.55,1.41-8.04,2.71-17.62,2.55-25.75-.05-2.55-.82-5.13-1.38-7.6.29-.54,1.25.19,1.49.46Z"/>
      <path class="cls-1" d="M349.55,102.44c.19-2.33,1.62-4.36,2.17-6.67,1.34-5.54,1.66-17.12.34-22.66-.31-1.31-1.39-2.96-1.57-4.02-.31-1.91,1.26-.97,2.11-.25,4.55,3.88,2.64,20.84,1.18,26.21-.67,2.46-1.9,6.15-4.23,7.39Z"/>
      <path class="cls-1" d="M409.92,72.46c2.23-1.4.58,6.86.41,7.49-.69,2.51-2.98,5.37-4.09,7.78-1.41,3.06-4,11.35-6,13.19-.35.32-.68.93-1.26.75l-.34-1.28,11.28-27.93Z"/>
      <path class="cls-1" d="M401.52,66.79c.64-.09.87.56.93,1.11.37,3.73-3.83,8.28-5.43,11.61-2.9,6.06-2.95,13.4-7.24,18.48-.87-.73-.43-.81-.16-1.52,1.96-5.2,2.92-10.21,4.41-15.54l7.49-14.14Z"/>
      <path class="cls-1" d="M329.51,95.37c1.79-7.53,1.36-15.89-4.36-21.65,1.2-2.47,3.62.48,4.55,1.88,2.73,4.11,3.07,11.3,2.18,16.04-.29,1.54-.77,3.16-2.37,3.73Z"/>
      <path class="cls-1" d="M336.98,83.73c1.26,1.47,1.32,6.91,1.01,8.84-.1.61-2.15,7.86-3.4,6.12.09-1.71,1.23-2.98,1.59-4.66.81-3.88.32-7.23-.67-10.95.21-.18,1.24.37,1.48.65Z"/>
    </g>
  </g>
</svg>