<?xml version="1.0" encoding="UTF-8"?>
<svg id="Nestling" xmlns="http://www.w3.org/2000/svg" viewBox="0 0 73.78 71.81">
  <defs>
    <style>
      .cls-1 {
        fill: #af8925;
      }

      .cls-2 {
        fill: #31180f;
      }

      .cls-3 {
        fill: #b78f2e;
      }

      .cls-4 {
        fill: #f5bf19;
      }

      .cls-5 {
        fill: #974322;
      }

      .cls-6 {
        fill: #e5b422;
      }

      .cls-7 {
        fill: #c79c2c;
      }

      .cls-8 {
        fill: #642c17;
      }

      .cls-9 {
        fill: #c15629;
      }
    </style>
  </defs>
  <path class="cls-1" d="M73,37.79c-.57-.63-1.38-.98-2.27-.98-.45,0-.91.09-1.34.27l-.02-.06c-.47-1.29-1.73-2.43-2.76-2.98-.12-.07-.25-.13-.37-.18l-.19-.09c-.24-.16-.52-.8-.74-1.31-.24-.54-.51-1.16-.9-1.73-.66-.94-1.38-1.73-1.99-2.37-.12-.13-.26-.24-.42-.33-.68-.41-1.18-.74-1.62-1.07-.88-.66-1.77-1.22-2.73-1.69-.28-.14-.58-.21-.89-.21h-.12c-.54.04-1.05.22-1.46.52-.26.19-.48.43-.65.71-.19.31-.29.66-.3,1.02-.04,2.23,1.14,4.27,3.25,5.59l.13.09c-.39-.03-.81-.04-1.26-.04-.34,0-.67,0-1.01.02-1.1.04-2.04.33-2.87.59l-.39.12c-.64.19-1.35.29-2.23.3h-.6c-.5.02-1,.03-1.51.03-.92,0-2.12-.03-3.21-.25l-.32-.07c-.43-.1-.92-.2-1.5-.22h-.18c-.31,0-.61.02-.92.04-.16.01-.32.02-.49.03h-.29c-.46.02-.94.04-1.49.11-.09.01-.19.02-.29.02-.26,0-.53-.03-.8-.05-.35-.03-.74-.07-1.16-.07h-.3c-.74,0-1.53.01-2.27.09h-.08c-1.17-.04-2.33-.05-3.2-.06h-.09c-.31,0-.63,0-.95.02-.28,0-.56.01-.84.01-.48,0-.84-.02-1.17-.07-.3-.05-.6-.07-.93-.07-.5,0-.97.06-1.38.11-.22.03-.44.06-.67.07-.11,0-.23.01-.34.01-.34,0-.67-.02-1.01-.05-.42-.03-.85-.05-1.27-.05h-.27c-.78.02-1.52.11-2.23.19-.28.03-.56.06-.84.09-.71.07-1.46.1-2.23.1-1.1,0-2.28-.07-3.61-.21l-.39-.04c-.28-.03-.56-.06-.85-.09.12-.06.25-.12.37-.17l.18-.09.09-.05.15-.07c.19-.08.38-.16.56-.26.16-.08.32-.18.48-.29.11-.07.21-.15.3-.25l.12-.11.14-.16.2-.25.09-.14c.12-.2.21-.42.26-.64.04-.21.08-.42.09-.63.05-.62,0-1.22-.16-1.76-.06-.24-.24-.97-.96-1.44-.36-.24-.78-.36-1.23-.36-.31,0-.56.06-.69.09-.7.16-1.45.36-2.18.78-.26.15-.51.31-.76.48-.27.18-.51.34-.72.44l-.24.11c-.14.06-.28.15-.4.24-.06.02-.39.14-.5.18-.18.07-.41.17-.53.24l-.54.28-.39.23c-.13.07-.25.15-.41.25l-.32.21c-.62.42-1.18.85-1.68,1.29-.31.27-.6.55-.91.84-2.55,2.41-1.49,6.8-.85,9.43l.18.77c.03.12.06.24.08.34.03.16.06.31.1.47-.16.05-.32.11-.47.19-.48.23-.89.61-1.17,1.07-.22.37-.36.79-.4,1.25-.02.26-.02.53.01.79.02.17.05.34.09.51.03.14.06.27.1.41l.04.14c.05.22.11.44.17.6l.12.37c.03.09.14.35.14.35.37.95.88,1.86,1.52,2.72.5.68,1.12,1.34,1.72,1.85.55.47,1.07.85,1.62,1.21l.19.12.3.18c.11.07.23.14.32.19l.38.2c.15.08.31.16.47.23.54.25,1.12.45,1.72.61.18.05.37.08.55.12.13.02.3.06.33.06h0s.17.16.17.16c.13.12.25.24.38.37.46.45.97.95,1.6,1.37v.04c.03.1.06.21.08.29l.02.07c.03.12.06.23.09.33l.11.35c.04.12.08.25.14.41.31.82.72,1.56,1.22,2.2.29.38.63.72.99,1.02l.3.23.08.06.27.18c.08.05.17.1.31.17.22.12.44.2.55.24.35.12.71.2,1.07.22h.26c.39,0,.76-.05,1.11-.17.37-.12.71-.32,1.01-.57l.1.19c.16.3.34.63.58.95l.21.29c.08.12.17.23.24.33l.19.24.29.36.5.57.15.15.53.54.32.3c.91.84,2,1.64,3.15,2.32.78.46,1.64.86,2.55,1.19.86.31,1.79.53,2.78.66l.46.06h.12s.25.02.25.02c.35,0,.7-.05,1.02-.15.57-.17,1.08-.5,1.46-.94.42-.48.68-1.11.73-1.77.01-.16.01-.31,0-.51l-.02-.18-.02-.14c-.03-.15-.07-.34-.15-.53.35.02.7.03,1.06.03h.39c.69,0,1.42-.02,2.23-.08.22-.01.44-.03.66-.05.22-.02.45-.06.68-.1.17-.03.35-.06.44-.06.09.02.35.16.53.26.13.07.27.15.4.22.77.39,1.6.61,2.3.77.74.17,1.47.25,2.17.25.43,0,.85-.03,1.26-.09.55-.09,1.1-.22,1.61-.41.4-.15,1.01-.39,1.62-.8.32-.22.59-.46.82-.73.19-.22.36-.47.48-.73.18-.37.28-.77.29-1.17.01-.31-.03-.63-.12-.93h.1c.3,0,.6.02.9.03.43.02.86.03,1.28.03.49,0,.92-.02,1.33-.07l.62-.07c.17-.02.34-.05.51-.08l.18-.03c.15-.03.31-.06.46-.09l.48-.12s.44-.11.57-.14l.56-.17c.29-.08.58-.18.87-.29.1-.04.21-.08.31-.11.18-.06.35-.13.53-.21l.63-.27.69-.33c.16-.07.31-.15.47-.23,1.17-.6,2.29-1.33,3.38-2.18l.72-.59c.26-.22.51-.44.76-.68.08-.07.16-.15.26-.26l.15-.17.08-.09.14-.19c.07-.1.13-.21.21-.36l.06-.13c.07-.15.12-.3.16-.46.07-.28.11-.57.1-.87-.01-.61-.19-1.2-.52-1.7-.21-.31-.46-.58-.81-.83-.09-.06-.18-.11-.27-.16-.2-.11-.36-.17-.44-.2l-.09-.03c-.27-.09-.55-.14-.83-.15l.12-.26c.09-.19.18-.39.28-.58l1-1.93c.05-.1.09-.2.14-.29l.2-.45c.12-.27.24-.53.36-.79l.12-.23.19-.14c.17-.12.35-.24.54-.36l.32-.21c.35-.23.73-.49,1.12-.81,1.82-1.52,3.12-3.37,3.77-5.37.18-.56.26-1.06.25-1.55-.02-.79-.28-1.49-.77-2.04Z"/>
  <path class="cls-6" d="M13.08,30.77l-.11.12-.09.08-.02.02h-.02c-.09.07-.18.13-.27.17-.2.1-.4.18-.6.27-.11.05-.2.1-.3.16-.36.16-.71.34-1.09.54-1.24.63-2.47,1.14-3.5,2.1-.53.49-.11,1.22.49,1.36.81.19,1.76-.02,2.59-.07,1.01-.06,2.01.08,3.01.19,2.08.22,4.16.31,6.25.11.98-.09,1.95-.24,2.94-.26.99-.03,1.98.15,2.97.08.86-.06,1.68-.26,2.54-.13,1.11.18,2.23.06,3.34.07,1.05,0,2.09.02,3.14.06.11,0,.24,0,.34,0,.7-.08,1.44-.08,2.2-.08.9-.03,1.83.2,2.71.08.54-.08,1.03-.08,1.57-.1.49-.02.97-.08,1.47-.07.51.01.98.15,1.48.25,1.86.37,3.87.29,5.76.26.95-.02,1.86-.11,2.77-.39.92-.28,1.78-.59,2.76-.62.94-.03,1.87-.03,2.81.1.73.11,1.44.14,2.18.15.57,0,1.26-.22,1.04-.95-.06-.19-.12-.36-.2-.52v-.03s-.04-.04-.04-.04c-.12-.19-.28-.31-.51-.43l-.06-.02-.13-.04c-.1-.03-.2-.05-.3-.07h-.03s-.17-.02-.17-.02c-.1,0-.2-.01-.3-.02-.59-.02-1.18-.01-1.77-.05-.27-.02-.53-.04-.79-.07-.25-.01-.5-.02-.77-.02-.34,0-.67,0-1.01.02-1.1.04-2.04.33-2.87.59l-.39.12c-.64.19-1.35.29-2.23.3h-.6c-.5.02-1,.03-1.51.03-.92,0-2.12-.03-3.21-.25l-.32-.07c-.43-.1-.92-.2-1.5-.22h-.18c-.31,0-.61.02-.92.04-.16.01-.32.02-.49.03h-.29c-.46.02-.94.04-1.49.11-.09.01-.19.02-.29.02-.26,0-.53-.03-.8-.05-.35-.03-.74-.07-1.16-.07h-.3c-.74,0-1.53.01-2.27.09h-.08c-1.17-.04-2.33-.05-3.2-.06h-.09c-.31,0-.63,0-.95.02-.28,0-.56.01-.84.01-.48,0-.84-.02-1.17-.07-.3-.05-.6-.07-.93-.07-.5,0-.97.06-1.38.11-.22.03-.44.06-.67.07-.11,0-.23.01-.34.01-.34,0-.67-.02-1.01-.05-.42-.03-.85-.05-1.27-.05h-.27c-.78.02-1.52.11-2.23.19-.28.03-.56.06-.84.09-.71.07-1.46.1-2.23.1-1.1,0-2.28-.07-3.61-.21l-.39-.04c-.28-.03-.56-.06-.85-.09.12-.06.25-.12.37-.17l.18-.09.09-.05.15-.07c.19-.08.38-.16.56-.26.16-.08.32-.18.48-.29.11-.07.21-.15.3-.25l.12-.11.14-.16.2-.25.09-.14c.12-.2.21-.42.26-.64.04-.21.08-.42.09-.63.05-.62,0-1.22-.16-1.76-.06-.24-.24-.97-.96-1.44-.36-.24-.78-.36-1.23-.36-.31,0-.56.06-.69.09-.7.16-1.45.36-2.18.78-.26.15-.51.31-.76.48-.27.18-.51.34-.72.44l-.24.11c-.14.06-.28.15-.4.24-.06.02-.39.14-.5.18-.18.07-.41.17-.53.24l-.54.28-.39.23c-.13.07-.25.15-.41.25l-.32.21c-.62.42-1.18.85-1.68,1.29-.31.27-.6.55-.91.84-2.55,2.41-1.49,6.8-.85,9.43l.18.77c.03.12.06.24.08.34.03.16.06.31.1.47-.16.05-.32.11-.47.19-.48.23-.89.61-1.17,1.07-.22.37-.36.79-.4,1.25-.02.26-.02.53.01.79.02.17.05.34.09.51.03.14.06.27.1.41l.04.14c.05.22.11.44.17.6l.12.37c.03.09.14.35.14.35.37.95.88,1.86,1.52,2.72.5.68,1.12,1.34,1.72,1.85.55.47,1.07.85,1.62,1.21l.19.12.3.18c.11.07.23.14.32.19l.38.2c.15.08.31.16.47.23.54.25,1.12.45,1.72.61.18.05.37.08.55.12.13.02.3.06.33.06h0s.17.16.17.16c.13.12.25.24.38.37.46.45.97.95,1.6,1.37v.04c.03.1.06.21.08.29l.02.07c.03.12.06.23.09.33l.11.35c.04.12.08.25.14.41.31.82.72,1.56,1.22,2.2.29.38.63.72.99,1.02l.3.23.08.06.27.18c.08.05.17.1.31.17.22.12.44.2.55.24.35.12.71.2,1.07.22h.26c.39,0,.76-.05,1.11-.17.27-.09.52-.23.76-.39l.05-.19.02-.1v-.04c.02-.21.02-.43,0-.65l-.02-.17v-.04c-.02-.1-.04-.2-.07-.3-.03-.11-.06-.21-.1-.31l-.02-.05c-.07-.13-.03-.07,0,0l.02.05-.05-.12-.15-.25-.07-.08h-.02s-.04-.04-.04-.04h0s-.02-.01-.02-.01h-.08s-.14.05-.14.05c.25-.07.06-.02-.02.02h0c-.03.09-.06.18-.11.27-.12.22-.35.39-.57.46-.21.07-.42.09-.61.07-.19-.01-.37-.05-.55-.11l-.25-.11-.23-.12-.21-.14-.2-.15c-.26-.21-.49-.45-.69-.71-.4-.51-.7-1.08-.92-1.67-.04-.1-.08-.2-.11-.31l-.05-.16-.05-.16c-.03-.11-.06-.21-.08-.32l-.04-.17-.03-.16c-.05-.14-.1-.27-.16-.4-.06-.13-.14-.26-.22-.37-.07-.09-.16-.17-.24-.26l-.08-.05c-.69-.43-1.25-1.06-1.85-1.62-.15-.14-.3-.28-.47-.39-.44-.27-.97-.3-1.46-.42-.47-.12-.94-.28-1.38-.49-.13-.06-.25-.12-.38-.18-.15-.08-.22-.12-.37-.2-.12-.06-.24-.14-.36-.21l-.18-.11-.17-.12c-.47-.3-.92-.65-1.38-1.03-.49-.41-1-.96-1.41-1.51-.51-.69-.95-1.46-1.26-2.26-.04-.1-.08-.2-.12-.3-.04-.12-.06-.19-.1-.31-.07-.2-.12-.42-.17-.63-.03-.11-.05-.21-.07-.31-.02-.11-.04-.22-.06-.33-.01-.12-.02-.24,0-.37.01-.13.05-.27.12-.4.08-.13.2-.24.33-.3.13-.06.25-.1.39-.11.14-.01.29,0,.42.06.13.05.25.13.34.22l.19.21c.6,1.25,1.4,2.4,2.21,3.51l.02.06.02.03.05.06.06.05.03.02.08.03h.08s.07-.02.07-.02l.02-.02c.1-.03.19-.15.15-.25-.04-.1-.09-.18-.14-.27-.14-.28-.27-.56-.43-.83l-.15-.22-.04-.08c-.1-.24-.22-.48-.33-.71-.11-.23-.21-.48-.31-.72-.52-1.23-1.01-2.53-1.27-3.87-.03-.18-.1-.43-.15-.65-.49-2.11-1.7-6.3.16-8.05.28-.26.56-.53.86-.79.46-.41.96-.78,1.48-1.14.11-.07.17-.11.28-.18.09-.06.19-.12.29-.18.12-.07.18-.1.29-.17l.15-.08.15-.08c.12-.06.18-.09.3-.15.09-.05.22-.11.33-.15.22-.08.42-.15.6-.22l.22-.11.16-.12c.1-.04.2-.08.29-.13.58-.27,1.07-.67,1.62-.99.5-.29,1.07-.44,1.63-.56.11-.02.27-.08.37-.01l.14.31c.1.35.12.72.1,1.08,0,.13-.03.25-.05.37l-.05.09Z"/>
  <path class="cls-2" d="M51.6,20.62c.91-.64.87-1.83.93-2.83.08-1.37.04-2.8-.47-4.09-.4-1.01-1.01-2.01-1.98-2.54-1.3-.72-2.9-.53-4.33-.53-.25,0-.45-.06-.63-.15-.15.02-.3.04-.44.06-.33.05-.66.11-.99.17-.12.25-.3.47-.53.64-1.05.8-1.81,2.19-2.25,3.41-.49,1.37-.55,2.8-.22,4.22.28,1.21.84,2.34,1.75,3.19.49.45,1.06.79,1.57,1.22.38.33.61.5,1.12.42,1.26-.21,2.35-1.17,3.45-1.77.97-.52,2.11-.77,3.01-1.4Z"/>
  <path class="cls-2" d="M22.17,19.02l.14-.02c1.63-.12,3.14.51,4.72.48.69-.01,1.45-.23,2.19-.42.41-.11.82-.2,1.24-.28.39-.74.62-1.6.83-2.35.34-1.17.57-2.77-.5-3.63-1.86-1.48-5.29-1.91-7.17-.26-1.79,1.57-2.11,4.31-1.45,6.48h0Z"/>
  <path class="cls-5" d="M58.17,32.29c-.22-.19-.43-.38-.65-.56-1-.65-1.94-1.32-2.48-2.45-.08-.17-.15-.35-.22-.53l-.05-.08-.02-.08-.03-.17c-.04-.14-.07-.28-.1-.42-.06-.19-.11-.37-.16-.57-.06-.23-.12-.46-.17-.7-.33-1.34-.57-2.68-.56-4.03.02-.28.01-.59.09-.82.05-.17.09-.34.13-.51.03-.18.1-.31.13-.47.03-.15.11-.31.16-.47.05-.16.12-.31.2-.47.05-.11.11-.22.17-.32.07-.1.14-.2.22-.3.37-.53.86-.98,1.23-1.53l.22-.24c.16-.16.31-.31.47-.47.3-1.01.95-1.92,1.64-2.79.48-.61.98-1.18,1.64-1.61.46-.3,1.24-.54,1.46-1.1,0,0,.02-.1.04-.2-.12,0-.3,0-.36.01-.49.06-.96.24-1.44.37-.79.22-1.61.55-2.43.57-.74.02-1.54-.07-2.27-.18-.68-.1-1.2-.37-1.48-1.03-.25-.59-.27-1.25-.25-1.88l.03-.1c-.13-.59-.24-1.19-.24-1.8,0-.12.04-.23.09-.32v-.03c-.05-.3-.09-.6-.11-.9-.02-.23-.05-.47-.03-.71l.02-.18c-.13-.14-.19-.31-.2-.5-.03-.53-.02-1.06-.02-1.59,0-.19.08-.37.21-.51l.18-.12c-.12-.26-.22-.52-.28-.8-.05-.21,0-.42.1-.58l-.12-.25-.22-.05c-.13-.03-.26-.05-.39-.07-.13,0-.25-.03-.36-.1l-.06-.05-.06.08-.21.27c-.15.18-.3.37-.44.58-.11.16-.22.31-.33.46-.83,1.13-1.49,2.34-2.22,3.46-.23.35-.47.69-.72,1.02-.13.15-.25.32-.39.46l-.2.21-.18.14c-.14.09-.32.17-.5.25-.09.04-.19.07-.29.1l-.07.02-.05.02h-.05s-.27-.03-.45-.04c-.2-.01-.41-.02-.62,0-.97.06-1.94.34-2.76.79-.7.38-1.32.83-1.9,1.35-.45.41-.86.87-1.21,1.38l-.08.12c-.49.97-.97,1.88-1.2,2.92-.18.82-.29,1.67-.18,2.52.02.15.04.31.06.47.02.16.03.32.07.48.18.93.51,1.88,1.07,2.66.59.81,1.25,1.53,2.07,2.08.1.07.21.16.3.2,1.07.49,2.16.92,3.31,1.12.16.03.14.02.2.05l.16.07.08.04h.03s.1.08.1.08l.03.12v.07s.01.12.01.12c0,.09,0,.18-.02.27-.02.19-.06.38-.12.58-.06.21-.11.44-.18.67-.24.76-.61,1.5-1,2.22-.24.44-.46.9-.71,1.34-.27.46-.54.92-.8,1.37-.42.73-.98,1.36-1.53,2-.31.36-2.17,1.5-1.24,2.07.28.17.63.12.96.09,1.63-.16,3.21.26,4.82.43,2.43.26,4.75.02,7.13-.48,1.1-.23,2.1-.73,3.24-.81,1.2-.08,2.4.11,3.59.2.12,0,.24.02.36-.03.33-.13.12-.43-.03-.61-.44-.51-1.05-.83-1.55-1.27ZM46.7,15.65c-1.95,1.85-5.6-1.31-3.21-3.38h0s0-.01,0-.01c2.32-1.98,5.23,1.45,3.19,3.39Z"/>
  <path class="cls-5" d="M33.87,16.44c-.19-.97-.62-1.84-1.06-2.75l-.07-.11c-.31-.48-.69-.92-1.1-1.31-.54-.5-1.11-.94-1.75-1.3-.76-.44-1.66-.72-2.57-.8-.19-.02-.39-.02-.58,0-.17,0-.44.03-.43.04h-.04s-.05-.03-.05-.03l-.07-.02c-.09-.03-.18-.07-.27-.1-.1-.04-.2-.09-.29-.14-.24.1-.52.08-.76-.15-1.06-1.03-1.86-2.26-2.62-3.52-.49-.8-.84-1.68-1.35-2.46l-.18-.22c0,.36-.07.77-.07,1.12,0,1.28-.26,2.56-.31,3.84-.05,1.32-.12,2.68-.44,3.97-.21.85-1,1-1.79,1.03-1.27.06-2.56-.16-3.82-.35-.57-.08-1.14-.16-1.71-.15-.17,0-.4,0-.57.05l.07.06c.06.1.1.23.15.34,1.03,2.13,3.23,3.34,4.68,5.14.25.31.2.67.01.92.33.49.75.91,1.07,1.38.07.1.13.19.2.29.06.1.11.2.16.31.07.15.13.3.17.45.05.15.12.29.14.44.03.15.09.28.11.44.03.16.06.32.11.48.06.21.05.51.06.77v.15s0,.06,0,.06c.04.27.03.55.01.82-.04.56-.12,1.13-.21,1.69-.05.34-.11.68-.17,1.02-.03.3-.07.59-.13.88-.08.43-.2.85-.35,1.26-.02.09-.05.18-.07.27l-.09.12v.04s-.04.05-.04.05c-.07.22-.17.42-.3.6-.28.37-.65.62-1.07.78h-.02c-.25.14-.96.25-1.35.34-.7.17-.9.3-1.61.49-.47.13-3.93,1.23-2.84,1.96.24.16.54.22.82.26,2.35.34,4.72.5,7.09.42,2.34-.07,4.65-.58,6.99-.57,1.67,0,3.34.15,5.01,0,.1,0,.21-.02.29-.08.13-.1.14-.3.08-.45-.16-.35-.57-.6-.78-.93-.2-.31-.88-1.1-.87-1.46-.23-.42-.48-.86-.72-1.3-.23-.42-.42-.85-.64-1.27-.35-.69-.68-1.38-.89-2.1-.06-.21-.1-.43-.15-.63-.04-.19-.08-.37-.1-.55v-.25s0-.11,0-.11v-.06s.04-.11.04-.11l.09-.06h.03s.07-.04.07-.04l.15-.06c.06-.03.04-.02.19-.04,1.08-.16,2.11-.54,3.12-.97.09-.04.19-.11.29-.18.78-.49,1.41-1.16,1.98-1.9.55-.71.87-1.59,1.06-2.46.04-.14.05-.3.08-.45.02-.15.04-.29.06-.43.13-.79.04-1.59-.11-2.36ZM25.65,17.6c-1.86-1.86.93-5,3.06-3.1h0s0,.01,0,.01c2.19,1.98-1.29,4.86-3.07,3.09Z"/>
  <path class="cls-7" d="M71.51,39.12c-.38-.42-1.07-.4-1.56-.11-.49.29-.81.77-1.14,1.23-.33.46-.69.93-1.21,1.15.09-.87.16-1.69.11-2.56-.04-.39-.09-.78-.22-1.15-.27-.75-1.15-1.54-1.83-1.91-.23-.13-.49-.22-.71-.36-1.17-.77-1.42-2.48-2.18-3.56-.54-.77-1.15-1.45-1.8-2.13-.62-.37-1.23-.75-1.81-1.19-.79-.59-1.58-1.08-2.41-1.49-.15,0-.28.05-.4.13l-.14.16c-.03,1.61.9,2.97,2.32,3.86,1.27.8,2.43,1.55,2.89,3.06.22.72-.47.95-1.04.95-.73,0-1.45-.05-2.18-.15-.93-.14-1.87-.13-2.81-.1-.97.03-1.83.35-2.76.62-.91.27-1.83.37-2.77.39-1.89.03-3.9.12-5.76-.26-.5-.1-.96-.24-1.48-.25-.49-.01-.98.05-1.47.07-.54.02-1.03.02-1.57.1-.88.12-1.82-.11-2.71-.08-.76,0-1.5,0-2.2.08-.1.01-.23.01-.34,0-1.05-.04-2.09-.05-3.14-.06-1.12,0-2.24.11-3.34-.07-.86-.14-1.68.07-2.54.13-.99.07-1.98-.11-2.97-.08-.98.03-1.96.17-2.94.26-2.09.2-4.17.11-6.25-.11-1-.11-2-.24-3.01-.19-.82.05-1.77.26-2.59.07-.6-.14-1.02-.87-.49-1.36,1.04-.95,2.26-1.46,3.5-2.1.38-.19.73-.37,1.09-.54.1-.06.2-.11.3-.16.2-.09.41-.17.6-.27.09-.05.18-.1.27-.16h.02s.02-.03.02-.03l.09-.08.11-.12.05-.09c.02-.12.05-.24.05-.37.03-.36,0-.73-.1-1.08l-.14-.31c-.1-.07-.27-.01-.37.01-.56.13-1.13.28-1.63.56-.55.32-1.04.71-1.62.99-.1.05-.2.09-.29.13l-.16.12-.22.11c-.18.07-.38.14-.6.22-.11.04-.24.1-.33.15-.12.06-.18.09-.3.15l-.15.08-.15.08c-.12.07-.18.1-.29.17-.1.05-.19.12-.29.18-.11.07-.17.11-.28.18-.52.35-1.02.73-1.48,1.14-.3.26-.58.53-.86.79-1.85,1.75-.65,5.93-.16,8.05.05.21.12.47.15.65.26,1.34.75,2.64,1.27,3.87.1.24.2.48.31.72.11.23.23.47.33.71l.04.08.15.22c.16.27.3.55.43.83.05.09.1.18.14.27.04.1-.05.22-.15.25l-.02.02-.07.02h-.08s-.08-.03-.08-.03l-.03-.02-.06-.05-.05-.06-.02-.03-.02-.06c-.81-1.12-1.61-2.27-2.21-3.51l-.19-.21c-.09-.09-.21-.16-.34-.22-.13-.05-.28-.07-.42-.06-.14.01-.26.05-.39.11-.13.06-.25.17-.33.3-.08.13-.11.27-.12.4-.01.13,0,.25,0,.37.01.12.03.23.06.33.02.11.05.21.07.31.06.21.1.42.17.63.04.12.06.19.1.31.04.1.08.2.12.3.32.8.75,1.57,1.26,2.26.41.56.92,1.1,1.41,1.51.46.39.91.73,1.38,1.03l.17.12.18.11c.12.07.24.15.36.21.15.08.22.12.37.2.12.07.25.12.38.18.44.2.91.37,1.38.49.49.13,1.02.15,1.46.42.17.11.33.25.47.39.59.56,1.16,1.18,1.85,1.62l.08.05c.08.09.17.17.24.26.09.11.16.24.22.37.06.13.11.26.16.4l.03.16.04.17c.03.1.05.21.08.32l.05.16.05.16c.03.11.07.21.11.31.22.59.52,1.16.92,1.67.2.25.43.49.69.71l.2.15.21.14.23.12.25.11c.18.06.36.1.55.11.19.01.4,0,.61-.07.21-.07.44-.24.57-.46.17-.29.22-.66.1-.98-.04-.1-.05-.24.1-.16.28.16.57.32.85.46.56.28,1.05.43,1.44.97.34.47.55,1.01.89,1.47l.13.18c.09.12.17.24.26.35.11.14.16.21.27.34l.14.17.14.16c.12.13.17.2.29.33l.07.08.08.08.15.16c.12.13.18.19.31.31.13.12.19.18.32.3.86.79,1.85,1.5,2.81,2.07.71.42,1.45.76,2.21,1.03.76.27,1.56.45,2.37.56l.22.03h.11s.06.02.06.02h.06c.18.02.37,0,.56-.05.19-.06.38-.17.53-.34.15-.17.23-.4.24-.6v-.15s0-.07,0-.07v-.08s-.06-.16-.06-.16l-.07-.15c-.11-.19-.27-.33-.41-.43-.29-.2-.59-.3-.86-.4l-.19-.08-.18-.08c-.13-.06-.26-.13-.38-.19-.25-.13-.5-.27-.75-.41-.49-.28-.98-.59-1.45-.91-.4-.28-.84-.57-1.24-.88-.29-.18-.58-.37-.86-.58l-.13-.09-.04-.04-.02-.02-.2-.13c-.1-.05-.12-.18-.07-.27.05-.1.18-.12.27-.07l.1.06c.13.08.26.15.39.23.11.04.21.09.32.13.11.04.21.09.32.13l.17.07.16.05c.87.3,1.75.54,2.61.72.16.03.35.08.53.12.81.17,1.64.31,2.46.4.82.09,1.65.14,2.47.15.82.01,1.65-.02,2.46-.07.2-.01.41-.03.61-.05.51-.05,1.03-.21,1.54-.15.58.07,1.08.42,1.59.68.57.29,1.22.46,1.84.6.86.2,1.78.27,2.69.13.41-.06.83-.17,1.23-.31.4-.14.79-.32,1.16-.57.15-.11.31-.23.45-.39.07-.08.13-.18.18-.28.05-.11.09-.24.09-.37,0-.13-.02-.27-.06-.38l-.08-.16-.1-.15-.14-.14-.08-.06-.08-.05-.09-.04-.09-.03-.09-.03-.08-.02h-.11c-.87.13-1.72.32-2.61.31l-.09-.02h-.03c-.26-.01-.26-.41,0-.4.12,0,.25,0,.37-.01.58-.17,1.15-.35,1.71-.57.25-.1.51-.2.76-.31.59-.25,1.21-.64,1.85-.76.34-.07.7-.05,1.04-.05,1.07.02,2.18.13,3.26,0,.2-.02.4-.04.59-.07.2-.02.39-.07.59-.1.13-.02.27-.05.4-.08.13-.03.27-.07.4-.1.18-.04.36-.09.54-.13.21-.06.32-.1.54-.16.36-.1.71-.24,1.06-.36.17-.06.35-.14.52-.21.17-.07.34-.14.51-.22.17-.08.33-.16.5-.24.17-.08.34-.15.5-.24,1.08-.55,2.1-1.21,3.05-1.96l.7-.58c.23-.19.45-.39.68-.61l.17-.17.09-.1.05-.06.05-.07.05-.08.04-.08.06-.16c.03-.11.04-.22.04-.33,0-.21-.06-.44-.19-.63-.07-.1-.15-.19-.25-.26l-.15-.09-.16-.06c-.23-.07-.46-.06-.66-.01-.2.05-.37.12-.52.2-.15.08-.3.17-.43.25-.13.08-.26.17-.38.23-.54.29-1.09.57-1.62.81-.75.35-1.5.68-2.27.98-.39.15-.78.3-1.18.43l-.17.07-.07.04c-.34.18-.56.35-.89.2,0-.14.07-.23.19-.31,1.24-.87,2.4-1.81,3.52-2.84.58-.54,1.19-1.04,1.7-1.65.55-.66.82-1.45,1.22-2.2.29-.56.59-1.13.88-1.69l.11-.21.11-.23c.08-.18.12-.26.2-.44.13-.29.26-.57.39-.85.09-.19.21-.4.31-.54l.07-.09.06-.08.06-.06.02-.02.05-.04c.12-.1.26-.2.4-.3.28-.2.58-.39.9-.59.31-.21.63-.42.95-.68,1.41-1.17,2.58-2.69,3.15-4.44.09-.28.16-.6.16-.89,0-.28-.08-.54-.26-.75ZM46.93,44.55l.27-.14c.66-.3,1.44-.52,2.14-.82,2.71-1.17,5.63-3.94,7.06-6.5.21-.38.24-.74.64-.84.4-.1.87.15,1,.53.07.2,0,.39-.1.6-.05.21-.08.44-.15.67-.1.32-.24.64-.38.94-.27.58-.58,1.16-.93,1.7-.7,1.1-1.57,2.04-2.65,2.79-1,.69-2.14,1.18-3.28,1.59-1.13.41-2.37.96-3.6.84-.38-.04-.62-.47-.56-.82.06-.29.27-.47.52-.54ZM37.72,41.75c.22.09.44.17.66.24l.2-.04c1.2-.13,2.42.14,3.64.04.84-.25,1.66-.63,2.47-1.1.81-.47,1.54.65.96,1.23-.04.1-.1.19-.19.28-.45.41-1,.63-1.58.78-.11.03-.22.06-.33.09-.61.26-1.24.44-1.99.52-1.6.17-3.15-.03-4.63-.67-.93-.4-.13-1.75.79-1.36ZM19.36,39.38c4.48,3.32,10.44,4.99,15.88,4.82.38-.01,1.19-.06,1.51.16.09.07.17.14.24.23.21.25.25.63.02.78-.11.07-.85.16-1.06.2-5.17,1-10.88-.31-15.19-3.37-.55-.39-1.95-1.4-2.29-1.9-.36-.52.32-1.26.9-.92ZM15.54,51.8l-.03.07c0,.47-.39.94-.97.77-1.52-.44-3.05-1.33-4.18-2.53-.52-.42-.96-.93-1.16-1.56l-.03-.17c-.11-.72.9-1.25,1.38-.62.42.33.93.9,1.21,1.13.96.81,1.69,1.15,2.82,1.66.36.16.72.3.82.63.14.17.19.41.14.63ZM7.66,39.02c-.13-.18-.59-.75-.62-.88-.06-.27.23-.51.56-.55.12-.01.22-.01.33,0,.38.06.93.66,1.19.93,3.8,3.9,9.24,6.83,14.78,7.55.65.16.62,1.16,0,1.29-.59.12-2.3-.12-2.97-.22-5.22-.79-10.24-3.81-13.27-8.12ZM20.26,51.41c-.45-.08-.61-.42-.56-.77-.09-.34.13-.73.55-.79.27-.04.48.04.72.04,2.27.03,4.36-.06,6.55-.41,4.56-.73,9.26-1.93,13.8-2.11.54-.05,1.08-.07,1.62-.07.4,0,.64.25.72.54.14.34.04.78-.35.95-.1.05-.23.09-.37.09-4.18-.04-8.08,1.75-12.15,2.42-3.42.56-7.1.71-10.53.1ZM27.12,57.03c-1.61.65-3.98.71-5.4-.44-.18-.1-.36-.21-.52-.33-.31-.23-.46-.6-.25-.96l.03-.05c.09-.27.33-.49.65-.51h.1c.18,0,.36.04.52.16.45.17,1,.42,1.28.5.77.22,1.4.26,2.19.09.37-.08.8-.32,1.17-.23h.03c.72-.22,1.09.67.71,1.12-.04.27-.2.52-.51.64ZM39.56,60.07c-.35.78-1.25,1.11-2.01,1.35-.69.21-1.38.3-2.09.32-.44.04-.88.06-1.32.07-.91.02-1.82.02-2.72-.08-1.21,0-2.41-.12-3.49-.74-.29-.17-.4-.43-.38-.69-.18-.48.26-1.1.81-.95.52.02,1.19.23,1.65.31,2.57.44,4.9.64,7.41-.26.5-.18,1.27-.74,1.73-.35h0s.14.06.14.06c.35.21.41.61.25.96ZM52.99,55.76c-.41,2.18-3.05,2.93-5.22,3.13-.46.09-.93.11-1.39.11-.17,0-.3-.05-.41-.13-.66-.32-.55-1.51.34-1.5.09,0,.19,0,.29,0,1.29-.45,2.72-.55,3.92-1.4.42-.3.72-.74,1.07-1.01.16-.12.33-.18.48-.19h.02s.1,0,.1,0c.44.03.9.41.8.98ZM55.93,47.61c-1.97,2.15-4.61,3.57-7.26,4.72-3.15,1.36-6.38,2.64-9.82,2.94-.6.05-.84-.48-.72-.94-.03-.2.04-.42.23-.57.3-.24,1.49-.4,1.96-.53,5.24-1.48,10.66-4.21,14.85-7.6.47-.38,1.01-.86,1.44-1.29.27-.27.82-.96,1.22-1.3.19-.27.63-.33.91-.17.35.21.41.62.25.96-.68,1.51-1.82,2.71-3.06,3.78ZM65.17,41.99c-.14,1.3-.5,2.53-1.14,3.67-.59,1.06-1.4,2-2.24,2.88-.83.87-1.7,1.91-2.85,2.34-.36.13-.77-.15-.86-.49-.08-.28.03-.54.23-.71l.18-.25c.46-.57,1.06-1.1,1.56-1.68,1.92-2.25,3.31-6.02,3.46-8.95.02-.43-.11-.77.2-1.04.31-.27.85-.25,1.13.03.15.15.17.35.17.58.05.2.13.43.16.67.05.33.07.68.08,1.01.02.64,0,1.29-.08,1.93Z"/>
  <path class="cls-6" d="M23.9,46.92c.62-.13.65-1.13,0-1.29-5.53-.72-10.98-3.65-14.78-7.55-.26-.27-.81-.87-1.19-.93-.12-.02-.22-.02-.33,0-.33.04-.62.28-.56.55.03.13.5.7.62.88,3.03,4.31,8.05,7.33,13.27,8.12.67.1,2.38.34,2.97.22Z"/>
  <path class="cls-6" d="M20.75,41.76c4.31,3.05,10.02,4.37,15.19,3.37.22-.04.95-.13,1.06-.2.23-.15.19-.53-.02-.78-.07-.09-.15-.16-.24-.23-.31-.22-1.13-.17-1.51-.16-5.44.17-11.39-1.5-15.88-4.82-.58-.34-1.25.4-.9.92.34.5,1.74,1.51,2.29,1.9Z"/>
  <path class="cls-6" d="M14.58,50.1c-1.12-.51-1.85-.85-2.82-1.66-.27-.23-.78-.8-1.21-1.13-.48-.63-1.49-.1-1.38.62l.03.17c.2.64.64,1.14,1.16,1.56,1.13,1.19,2.66,2.08,4.18,2.53.58.17.96-.3.97-.77l.03-.07c.06-.22,0-.45-.13-.63-.1-.34-.46-.47-.82-.63Z"/>
  <path class="cls-6" d="M36.93,42.67c1.48.63,3.02.84,4.63.67.75-.08,1.39-.26,1.99-.52.11-.03.22-.06.33-.09.58-.15,1.13-.37,1.58-.78.1-.09.15-.18.19-.28.58-.58-.15-1.7-.96-1.23-.81.47-1.63.86-2.47,1.1-1.23.1-2.45-.17-3.65-.04l-.2.04c-.22-.07-.44-.14-.66-.24-.92-.39-1.72.96-.79,1.36Z"/>
  <path class="cls-6" d="M26.91,54.81h-.03c-.37-.07-.8.17-1.17.25-.79.17-1.42.13-2.19-.09-.29-.08-.83-.33-1.28-.5-.16-.12-.34-.16-.52-.15h-.1c-.32,0-.56.23-.65.5l-.03.05c-.21.36-.05.73.25.96.16.12.34.23.52.33,1.43,1.14,3.8,1.09,5.4.44.31-.13.47-.38.51-.65.38-.46,0-1.35-.71-1.14Z"/>
  <path class="cls-6" d="M30.79,50.87c4.07-.67,7.97-2.47,12.15-2.42.14,0,.27-.03.37-.09.39-.16.49-.61.35-.95-.09-.29-.33-.54-.72-.54-.54,0-1.08.02-1.62.07-4.54.17-9.24,1.37-13.8,2.11-2.2.35-4.29.45-6.55.41-.23,0-.45-.08-.72-.04-.42.06-.64.45-.55.79-.05.34.11.69.56.77,3.42.6,7.11.46,10.53-.1Z"/>
  <path class="cls-4" d="M25.89,10.03c-.17-.07-.33-.15-.46-.24l-.16-.13-.19-.21c-.13-.13-.24-.29-.36-.44-.23-.31-.44-.63-.65-.97-.66-1.06-1.25-2.21-2-3.29-.1-.14-.2-.29-.3-.44-.18-.27-.37-.53-.58-.78-.1-.13-.21-.25-.32-.37-.1-.11-.2-.22-.33-.28-.16-.07-.45-.11-.59.02l-.14.22c.28.35.19.96-.26,1.14v.17s-.09,1.26-.09,1.26l-.07.96c-.08,1.1-.12,2.21-.27,3.29-.09.6-.15,1.26-.18,1.89l-.02.6v.3s-.01.15-.01.15v.08s.02.09.02.09l-.09.04h-.02s-.1.02-.1.02l-.19.02c-.13,0-.26.02-.39.02-.26,0-.53,0-.8,0-.54-.02-1.09-.08-1.65-.18-.1-.02-.21-.02-.31-.03-.46-.07-.92-.14-1.38-.22l-.85-.15c-.48-.08-1.06-.2-1.53,0l-.09.05-.09.2c-.03.2-.06.39,0,.58.03.11.08.2.15.33.06.12.18.28.3.42.16.19.34.4.49.57l.33.35c.13.14.27.27.4.42.35.38.71.75,1.06,1.11.1.11.21.22.31.32.69.8,1.42,1.54,2.14,2.28l.2.23c.08.12.16.23.25.34l.14.11.03-.03c.14-.21.27-.42.39-.64.28-.48.52-.99.73-1.51.32-.78.57-1.58.73-2.4.07-.34.12-.68.16-1.02.02-.17.03-.35.04-.52.01-.16.09-.32.22-.42l.23-.11c.1-.02.2-.04.3-.05.42-.08.84-.2,1.25-.35.82-.28,1.61-.65,2.4-1.02l.06-.03c.36-.17.72-.34,1.07-.53.35-.19.68-.41,1.02-.62.17-.11.26-.22.31-.41v-.05s-.28-.13-.28-.13Z"/>
  <path class="cls-4" d="M53.09,11.09c-.1-.03-.21-.04-.32-.07-.45-.1-.89-.24-1.33-.4-.87-.32-1.7-.74-2.53-1.15l-.06-.03c-.38-.19-.76-.38-1.13-.59-.37-.21-.72-.45-1.07-.69-.18-.12-.27-.24-.32-.45v-.05s.3-.13.3-.13c.19-.07.36-.15.5-.25l.18-.14.2-.21c.14-.14.26-.31.39-.46.25-.33.49-.66.71-1.02.73-1.12,1.39-2.33,2.22-3.46.11-.15.22-.31.33-.46.14-.21.29-.4.44-.58l.21-.27.11-.13.11-.1.26-.25c.09-.08.16-.14.29-.18.12-.03.24-.04.37-.02.13.02.21.05.27.17l.08.19.08.19.08.18.06.15v.27s.03.57.03.57l.05,1.35.05,1.02c.06,1.18.07,2.36.21,3.51.08.64.12,1.34.14,2.02v.64s0,.32,0,.32v.16s0,.08,0,.08l-.02.1.09.04h.03s.1.02.1.02l.2.02c.14.01.28.02.42.03.28.01.57.02.85.01.58,0,1.17-.06,1.76-.15.11-.02.22-.01.33-.03.49-.06.98-.13,1.48-.2l.91-.14c.59-.09,1.05-.12,1.62.04l.13.06.07.15c.1.4.02.71-.18,1.07-.07.13-.21.26-.35.4-.18.2-.38.42-.54.6l-.36.37c-.14.15-.3.28-.44.43-.39.39-.77.78-1.16,1.16-.11.11-.23.22-.34.34-.76.83-1.56,1.6-2.34,2.38l-.22.24c-.08.12-.18.24-.27.36l-.15.12-.03-.03c-.14-.22-.27-.46-.4-.69-.29-.52-.53-1.07-.74-1.63-.32-.84-.56-1.7-.72-2.58-.06-.36-.11-.73-.14-1.1-.02-.18-.03-.37-.03-.56,0-.17-.09-.34-.22-.46l-.24-.12Z"/>
  <path class="cls-3" d="M18.92,13.01c.01.1.05.19.15.25.11.07.21.15.34.2h.03s.02-.01.02-.01c.1-.09.17-.15.3-.19l.12-.02c.13-.75.12-1.51.19-2.28.1-1.19.21-2.36.23-3.55.01-1.08.01-2.16.08-3.24.03-.4.09-.85-.28-1.11l-.19-.05c-.09.05-.14.15-.17.24-.07.2-.13.41-.16.62-.04.21-.03.42-.04.63l-.08,1.26-.07.96c-.08,1.1-.12,2.21-.27,3.29-.09.59-.15,1.26-.17,1.89l-.02.6v.3s0,.23,0,.23Z"/>
  <path class="cls-3" d="M16.91,17.79c-.76-.74-1.58-1.42-2.35-2.16-.74-.71-1.33-1.49-1.96-2.31-.14-.19-.33-.35-.54-.45-.15-.08-.58-.27-.64,0-.04.19-.03.38.03.56.03.11.08.2.15.33.06.12.18.28.3.42.16.19.34.4.49.57l.33.35c.13.14.27.27.4.42.35.38.71.75,1.06,1.11.1.11.21.22.31.32.69.8,1.42,1.54,2.14,2.28l.2.23c.08.12.16.23.25.34l.14.11.03-.03c.14-.21.27-.42.39-.64.06-.1.11-.21.16-.31-.23-.42-.55-.8-.91-1.15Z"/>
  <path class="cls-3" d="M52.73,8.79l-.02.18c0,.45.01.9.02,1.36,0,.15-.07.55.02.67.08.12.37.11.52.19.16.08.25.26.28.43,0-.1.27-.31.33-.38.23-.29.22-.58.22-.92v-.65c-.03-.67-.08-1.38-.16-2.02-.15-1.16-.16-2.34-.22-3.51l-.05-1.02-.06-1.35-.02-.57v-.32s-.08-.24-.08-.24c-.08-.19-.16-.38-.3-.55-.08-.1-.22-.1-.35-.08-.12.02-.22.1-.27.2-.14.25-.1.6-.11.87-.04,1.28.06,2.55.18,3.83.12,1.3.21,2.57.07,3.87Z"/>
  <path class="cls-3" d="M61.27,10.86c-.49.1-.75.43-1.07.79-.39.45-.78.92-1.21,1.34-.93.93-1.96,1.74-2.9,2.66-.38.37-.87.78-1.04,1.29-.03.09-.04.18-.05.27.06.12.12.24.18.36.13.23.26.47.4.69l.03.03.15-.12c.1-.12.19-.23.27-.36l.22-.24c.78-.78,1.58-1.55,2.34-2.38.1-.11.22-.23.34-.34.39-.38.78-.77,1.16-1.16.14-.15.3-.28.44-.43l.36-.37c.16-.17.37-.4.54-.6.14-.15.28-.33.35-.46.17-.3.31-.53.19-.98l-.02-.05h-.12c-.19-.02-.39,0-.58.03Z"/>
  <path class="cls-8" d="M59.73,33.56c-.23-.24-.47-.32-.79-.38-.85-.14-1.71-.21-2.58-.22-.81,0-1.63.06-2.41.3-.77.24-1.52.57-2.33.64-.92.08-1.82.3-2.74.36-1.74.12-3.45-.19-5.17-.34-.44-.04-.87-.06-1.31-.08-.14,0-.28,0-.4-.07-.22-.1-.29-.4-.19-.61.05-.12.15-.21.25-.31.25-.24.47-.5.68-.77l-.07.09c.32-.45.64-.9.95-1.36.2-.29.43-.58.6-.89.68-1.24,1.25-2.57,1.76-3.89.27-.71.54-1.85.01-2.5-.07-.08-.21-.21-.32-.19l-.06.03c-.13.07-.27.16-.34.3-.07.15-.03.28,0,.42.02.17.02.35,0,.52-.06.38-.17.78-.28,1.15-.24.76-.61,1.5-1,2.22-.24.44-.46.9-.71,1.34-.27.46-.54.92-.8,1.37-.42.73-.98,1.36-1.53,2-.31.36-2.17,1.5-1.24,2.07.28.17.63.12.96.09,1.63-.16,3.21.26,4.82.43,2.43.26,4.75.02,7.13-.48,1.1-.23,2.1-.73,3.24-.81,1.2-.08,2.4.11,3.59.2.12,0,.24.02.36-.03.3-.12.18-.39-.03-.62Z"/>
  <path class="cls-8" d="M30.97,34.16c-.16-.35-.57-.6-.78-.93-.57-.89-1.08-1.83-1.59-2.76-.23-.42-.42-.85-.64-1.27-.35-.69-.68-1.38-.89-2.1-.06-.21-.1-.43-.15-.63-.04-.19-.08-.37-.1-.55-.02-.15,0-.3,0-.45-.01-.16-.04-.35-.12-.51l-.04-.07-.23-.08-.23.09c-.14.12-.2.32-.21.5-.03.26,0,.52.02.78.04.93.41,1.85.74,2.72.55,1.43,1.32,2.73,2.1,4.05.19.32.12.7-.3.77-.85.15-1.74.03-2.59-.02-2.02-.1-4.04.13-6.04.35-1.5.16-3.02.15-4.52.08-.71-.03-1.46-.08-2.18-.14-.7-.06-1.45-.22-2.16-.1-.22.04-.38.17-.55.28-.05.14,0,.28.19.41.24.16.54.22.82.26,2.35.34,4.72.5,7.09.42,2.34-.07,4.65-.58,6.99-.57,1.67,0,3.34.15,5.01,0,.1,0,.21-.02.29-.08.13-.1.14-.3.08-.45Z"/>
  <path class="cls-9" d="M59.72,33.56c-.44-.51-1.05-.83-1.55-1.27-.22-.19-.43-.38-.65-.56-1-.65-1.94-1.32-2.48-2.45-.27-.57-.42-1.23-.58-1.85-.06-.23-.12-.46-.17-.7-.45-2.11-.92-4.29-.01-6.36.27-.61.64-1.2,1.09-1.69.1-.11.2-.24.22-.39.03-.29-.14-.68-.24-.94-.12-.33-.27-.64-.44-.94-.23-.41-.44-.84-.61-1.29-.25-.66-.46-1.34-.59-2.04-.05-.3-.07-.6-.08-.9,0-.26.06-.64-.06-.88-.06-.12-.17-.2-.28-.26-.16-.09-.35-.18-.54-.2l-.19.04-.08.1c-.23.41-.19.83-.13,1.28.06.49.15.98.25,1.46.1.49.21.99.37,1.47.16.47.4.89.6,1.34.46,1.04.18,2.1-.07,3.15-.21.87-.49,1.73-.62,2.62-.17,1.17-.13,2.37.09,3.53.15.81.24,1.64.45,2.44.52,1.96,1.78,3.7,3.36,4.94.33.26.68.5,1.04.72l.25.13.26.04c.37.03.74.06,1.1.09.15.01.39.02.48-.15.09-.17-.09-.37-.19-.49Z"/>
  <path class="cls-9" d="M19.82,22.63c-.09-.44-.23-.87-.38-1.3-.09-.25-.2-.51-.29-.76l-.07-.16-.03-.2-.04-.21c-.11-1.14.54-2.14.73-3.23.12-.67.25-1.36.34-2.04.07-.49.14-1.09.06-1.61-.2-.12-.61,0-.91.14-.3,2.32-.79,4.58-2.08,6.55.28.35.57.69.81,1.05.07.1.13.19.2.29.06.1.11.2.16.31.07.15.13.3.17.45.05.15.12.29.14.44.03.15.09.28.11.44.03.16.06.32.11.48.06.21.05.51.06.77v.15s0,.06,0,.06c.04.27.03.55.01.82-.04.56-.12,1.13-.21,1.69-.05.34-.11.68-.17,1.02-.03.3-.07.59-.13.88-.08.43-.2.85-.35,1.26-.02.09-.05.18-.07.27l-.09.12v.04s-.04.05-.04.05c-.07.22-.17.42-.3.6-.28.37-.65.62-1.07.78h-.02c-.25.14-.96.25-1.35.34-.7.17-.9.3-1.61.49-.47.13-3.93,1.23-2.84,1.96.18.12.38.18.59.07l.15-.1c.56-.43,1.27-.6,1.94-.76.83-.2,1.65-.41,2.48-.62.65-.17,1.29-.32,1.87-.68.75-.47,1.18-1.27,1.46-2.09.32-.96.52-1.96.65-2.96.1-.8.14-1.61.17-2.42.01-.4.01-.8-.01-1.2-.01-.21-.03-.41-.06-.61-.02-.18-.1-.39-.1-.58Z"/>
</svg>