<?xml version="1.0" encoding="UTF-8"?>
<svg id="Brancher" xmlns="http://www.w3.org/2000/svg" viewBox="0 0 63.89 55.31">
  <defs>
    <style>
      .cls-1 {
        opacity: .48;
      }

      .cls-1, .cls-2 {
        fill: #b78f2e;
      }

      .cls-3 {
        fill: #31180f;
      }

      .cls-4 {
        fill: #f5bf19;
      }

      .cls-5 {
        fill: #974322;
      }

      .cls-6 {
        fill: #642c17;
      }

      .cls-7 {
        fill: #c15629;
      }
    </style>
  </defs>
  <path class="cls-6" d="M49.26,17.82c-2.59-.05-5.58.1-7.71-1.63-1.86-1.5-2.94-4-3.34-6.31-.25-1.44-.28-2.89-.03-4.33.11-.6.3-1.17.52-1.73-.48.12-.96.24-1.44.37-.38.1-.74.23-1.1.37-1.33,1.16-2.96,1.85-4.6,2.55-.26.17-.51.35-.76.53-2.08,1.46-4.1,3.16-5.75,5.11-.91,1.07-1.64,2.25-2.62,3.2-2.88,3.18-4.71,7.12-6.73,10.87-1.43,2.65-2.42,5.59-4.18,8,.11.37.04.8-.32,1.16-.14.14-.27.29-.4.44l-.08.16c-1.62,2.38-3.4,4.71-5.48,6.71-.83,1.03-1.7,2.01-2.83,2.77-.36.24-1.39.66-1.53,1.11-.09.28.61.6.87.76,1.57.98,3.06,2.18,4.46,3.38.44.37.77.64,1.34.4.7-.29,1.26-.9,1.77-1.43,1.26-1.32,2.48-2.73,3.65-4.14.66-.79,1.32-1.63,2.12-2.28.36-.3.83-.56,1.11-.94.18-.24.27-.54.42-.79.49-.82,1.17-1.29,2.14-1.11.59.11,1.11.39,1.67.57,1.79.59,3.73,1.2,5.62,1.31,1.52.09,3-.14,4.5-.2.38-.18.85-.2,1.22,0,.3.01.6.04.9.08.67.1,1.05.96.88,1.55-.11.38-.36.63-.66.77l.07.22c.16.55.28,1.27.35,1.69.18,1.12.59,2.25.5,3.4-.08,1-.5,1.66-1.1,2.09.14-.05.28-.09.43-.14.26-.09.54-.06.79.04.11-.03.22-.05.34-.03,2.16.27,4.32.29,6.49.48,1.08.09,2.15.2,3.24.25.69.03,1.41.15,2.09.07l.28-.07-.19-.13c-.67-.34-1.58-.37-2.31-.46-1.53-.21-3.06-.36-4.6-.38-1.09-.01-2.67.02-3.31-1.06-.34-.57-.3-1.28-.33-1.91-.05-.85-.07-1.82-.41-2.62-.27-.65-.73-1.19-.76-1.93-.03-.71.36-1.34.96-1.7.5-.3,1.04-.4,1.59-.42,1.89-1.03,3.73-2.12,5.5-3.35,1.51-1.05,3.31-1.79,4.72-2.98,1.35-1.14,2.6-2.66,3.68-4.06,1.09-1.41,1.87-2.96,2.23-4.72.05-.23.14-.4.26-.54.21-1.14.31-2.3.32-3.5,0-1.65.05-3.31.19-4.95-1.51-.4-3.12-.54-4.66-.57Z"/>
  <path class="cls-3" d="M61.55,5.86c-2.09-.31-4.12.93-6.22.73-2.05-.2-3.59-1.69-5.38-2.55-1.74-.84-3.67-1.21-5.59-1.26-1.31.15-2.62.37-3.91.65-.38.81-.73,1.62-.88,2.51-.26,1.48-.15,3.02.22,4.47.52,2.01,1.62,4.37,3.62,5.27,2.41,1.08,5.31.56,7.86.8.93.09,1.89.23,2.82.46.06-.41.1-.83.18-1.24.31-1.73.93-3.22,2.25-4.43,1.18-1.08,2.61-1.81,3.88-2.77.46-.35,2.63-2.42,1.16-2.64Z"/>
  <path class="cls-5" d="M63.75,5.49l-.26-.2c-.33-.23-.95-.41-1.09-.48-.07-.04-.16-.07-.25-.1-.11-.03-.22-.04-.33-.03-.35.02-.69.04-1.03.06-.33.02-.64.06-.96.15-.21.06-.52.08-.78.11-.49.06-1.01.14-1.47.21l-.72.1-.75.09c-.34.04-.69.08-1.04.13l-.24.03h-.08s-.06-.08-.06-.08l-.19-.25c-.11-.14-.23-.27-.35-.4-.23-.27-.49-.52-.75-.75-.88-.76-1.88-1.38-2.92-1.9-.31-.16-.63-.3-.95-.42-1.2-.39-2.45-.57-3.7-.61-.12,0-.25,0-.37,0l-.08-.03c-.16,0-.3-.09-.46-.04l-.19-.02c-.24-.03-.48-.02-.73-.05-.17-.02-.34-.03-.51-.03-.16,0-.33-.04-.49-.03-1.31.08-2.69.34-4.01.42-.29.02-.58.09-.87.17-.1.02-.19.06-.29.07-.13.01-.26.05-.38.1-.37.15-.85.12-1.24.2-3.23.68-5.15,2.88-7.58,4.86-.77.62-1.68,1.08-2.31,1.85-.23.27-.4.59-.68.83l-.06.08c-.2.22-.39.44-.6.65-.15.14-.32.27-.46.42-.88.9-1.72,1.88-2.51,2.86-.58.73-.88,1.72-1.72,2.22-.13.08-.27.15-.38.24-.14.11-.24.26-.34.41-.87,1.29-1.32,2.85-2.37,4.01-.48.53-.74,1.26-.99,1.95-.29.79-.7,1.44-1.08,2.17-.1.18-.17.38-.26.56-.1.21-.22.41-.33.62l-.05.11c-.1.24-.18.49-.37.68-.09.09-.13.19-.17.3l-.02.12c-.62,1.79-1.55,3.52-2.33,5.25-.12.26-.24.53-.29.81-.19,1.02-1.78,2.22-2.48,2.98-.92,1.01-1.85,2.01-2.76,3.04-1.64,1.86-5.55,5.68-5.99,8.22-.05.29.01.59.11.87.42,1.28,1.44,2.15,2.51,2.9.53.37,1.08.73,1.59,1.13.86.68,1.42,1.22,2.58,1.08,2.71-.34,5.91-5.09,7.6-6.86,1.04-1.09,2.11-2.17,3.04-3.36.09-.11.19-.25.27-.33.1-.1.11-.1.17-.13l.1-.04h.05c.06,0,.15.02.24.04.38.08.8.2,1.2.33.32.11.64.2.96.34.23.1.45.19.73.27.23.06.46.12.69.18.47.1.94.18,1.44.2.33.01.74.09,1.12.15,1.18.19,2.37.35,3.56.47l.02.02c.89.01,1.78.02,2.66,0,.17.51.33,1.01.43,1.51.21,1.04.55,1.99.85,2.98l.44,1.44.07.23c-.67.16-1.33.34-2.02.44-.69.23-1.34.36-2.02.43-.23.03-.52.07-.75.13-.54.16-.93.19-1.38.2-.21,0-.42.02-.64.03h-.08s-.17.1-.17.1c-.23.14-.43.36-.52.57-.05.11-.09.22-.1.3-.02.1-.04.19-.04.27v.24s.02.22.02.22c.02.14.06.32.12.49.11.33.29.66.53.92.24.25.57.46.94.39.2.02.44-.06.68-.11l.29-.06.2-.04c1.52-.29,3.03-.62,4.54-1.01.45-.11.9-.22,1.35-.33.4-.09.8-.19,1.21-.28.4.05.8.1,1.21.14.74.08,1.47.16,2.21.24.74.08,1.5.14,2.2.27,1.03.19,2.03.28,3.05.4l1.49.18.74.09.19.02h.11s.16.03.16.03l.36-.03.22-.05.26-.06.17-.2.62-.71c.31-.32.29-.77.25-1.21-.02-.09-.04-.18-.06-.28l-.05-.21v-.04s-.04-.05-.04-.05l-.04-.07-.12-.23-.26-.13-.09-.04-.11-.06-.15-.02c-.2-.03-.42-.05-.62-.08-.46-.07-.96-.13-1.36-.24-.36-.1-.7-.15-1.08-.21-1.18-.17-2.35-.31-3.49-.33-.1,0-.23-.02-.34-.04-.44-.05-.87-.1-1.31-.14l-.65-.07-.28-.03h-.09s-.06-.05-.06-.05c-.1-.01-.2-.02-.3-.03-.06-.19-.12-.39-.17-.59-.11-.46-.26-.95-.3-1.37-.04-.38-.12-.72-.22-1.1-.28-1.06-.59-2.1-1.01-3.07.11-.01.22-.02.33-.03l.08-.03.28-.1.25-.04c.52-.11,1.03-.22,1.55-.33.55-.16,1.1-.34,1.65-.54.49-.2,1-.41,1.51-.6.43-.15.83-.33,1.23-.53.87-.41,1.66-.97,2.47-1.48l1.3-.94c.42-.33.82-.68,1.24-1.03.14-.12.28-.23.4-.37.41-.43.83-.87,1.24-1.3.39-.45.78-.89,1.19-1.29.37-.41.66-.83.97-1.26.11-.15.19-.31.28-.47.24-.43.49-.85.73-1.28.23-.43.43-.88.66-1.31l.28-.53.24-.55.46-1.1c.13-.38.25-.76.37-1.14.11-.38.24-.76.31-1.16.17-.8.35-1.66.51-2.43.22-1.04.3-2.1.35-3.14.04-.72.03-1.44.05-2.14l.05-2.03.04-1,.03-.49.02-.25v-.02s.02-.03.02-.03h0s.1-.11.1-.11l.22-.22.44-.44.89-.87c.6-.58,1.19-1.16,1.77-1.75.1-.1.22-.22.32-.29.37-.28.73-.58,1.08-.9.18-.17.35-.31.53-.52.18-.19.34-.35.52-.53.4-.37.86-.9,1.29-1.44.1-.13.21-.27.32-.42.12-.16.21-.3.34-.54.06-.11.11-.26.13-.32l.06-.24c.06-.25.07-.51.09-.77.01-.14-.05-.24-.14-.33ZM19.61,27.39l.03-.12.02-.12c.03-.12.09-.23.17-.31.34-.34.96-.09,1.22.31.27.4.34.91.58,1.32.33.55.93.88,1.53,1.09,4.55,1.61,7.5-2.12,9.41-5.64.19-.35.62-.91,1.05-.97.49-.07.92.41.84.89-.28,1.69-1.07,3.31-2.07,4.68-1.68,2.31-4.43,4.2-7.45,3.93-2.59-.23-5.77-2.07-5.34-5.07ZM46.75,21.82l-.03.11c-3.07,10.28-15.8,19.64-26.75,15.39-1.65-.64-4.18-1.91-3.89-4.07.25-1.18.98-.68,1.61-.16,1.34,1.11,3.16,1.75,4.84,2.18,7.61,1.92,15.88-2.9,20.25-8.94.42-.57.79-1.17,1.14-1.77l.13-.26c.52-1.07,1.03-2.13,1.56-3.2.12-.25.28-.52.55-.57.3-.06.58.21.66.5.06.26.01.52-.06.78ZM49.36,12.11c-4.26,1.26-5.01-4.63-1.59-5.33,3.51-.72,4.3,4.53,1.59,5.33Z"/>
  <path class="cls-4" d="M47.84,52.32l-.06-.2c-.04-.12-.09-.25-.17-.34s-.2-.16-.32-.21c-.37-.14-.77-.14-1.15-.2-.38-.05-.77-.12-1.14-.22-.36-.1-.7-.15-1.08-.21-1.09-.16-2.18-.25-3.28-.34-1.09-.09-2.17-.24-3.25-.35-.06-.19-.12-.39-.17-.59-.11-.46-.26-.95-.3-1.37-.04-.38-.12-.72-.22-1.1-.28-1.06-.59-2.1-1.01-3.07h.04c-.07-.11-.13-.22-.16-.32-.14,0-.28-.01-.42,0-.32.02-.64.08-.96.08-.34,0-.68,0-1.03,0-.63,0-1.29-.04-1.91.08-.14.03-.29.06-.43.12l-.08.05v.11s0,.22,0,.22c.16.48.31.96.41,1.43.21,1.04.55,1.99.85,2.98l.44,1.44.07.23c-.67.16-1.33.34-2.01.44-.69.23-1.34.36-2.02.43-.23.03-.52.07-.75.13-.34.1-.69.15-1.05.18-.35.03-.73-.03-1.06.09-.3.1-.53.36-.67.64-.15.33-.18.69-.14,1.05.06.49.31,1.05.65,1.4.33.34.76.44,1.22.37,1.83-.27,3.64-.75,5.43-1.18.45-.11.9-.22,1.35-.33.4-.09.8-.19,1.21-.28.4.05.8.1,1.21.14.74.08,1.47.16,2.21.24,1.75.2,3.5.46,5.25.67.6.07,1.2.18,1.81.24.3.03.6.06.9.05.24,0,.53.02.75-.09.18-.09.28-.27.39-.42.14-.18.31-.33.47-.5.35-.4.32-.99.19-1.49Z"/>
  <path class="cls-4" d="M63.75,5.49l-.26-.2c-.45-.32-1.08-.54-1.63-.59-.95-.08-1.88.17-2.82.28-.49.06-1.01.14-1.47.21l-.72.1-.75.09c-.34.04-.69.08-1.04.13l-.17.02c-.28.25-.52.51-.65.93-.18.59-.24,1.2-.35,1.8-.18.95-.46,1.88-.63,2.83-.16.92-.25,1.96.18,2.82.24.48.63.84,1.09,1.12.25.15.56.36.87.34.13,0,.25-.07.35-.15l.02-.05.1-.1.22-.22.44-.44.89-.87c.6-.58,1.19-1.16,1.77-1.75.1-.1.22-.22.32-.29.37-.28.73-.58,1.08-.9.18-.17.35-.31.53-.52.18-.19.34-.35.52-.53.4-.37.86-.9,1.29-1.44.1-.13.21-.27.32-.42.12-.16.21-.3.34-.54.06-.11.11-.26.13-.32l.06-.24c.06-.25.07-.51.09-.77.01-.14-.05-.24-.14-.33Z"/>
  <path class="cls-2" d="M33.69,50.32c-.38.43-1.01.4-1.17.22-1.04-1.45-1.96-5.78-1.7-6.41,1.37-1.57,3.23,5.32,2.87,6.19Z"/>
  <path class="cls-2" d="M33.69,50.32c-.34.2-1.01.4-1.17.22-1.04-1.45-1.96-5.78-1.7-6.41"/>
  <path class="cls-7" d="M48.47,1.98c-2.34-.42-4.73-.57-7.1-.34-2.1.21-4.16.73-6.1,1.55-1.87.79-3.63,1.85-5.23,3.1-1.64,1.28-3.13,2.75-4.49,4.32-1.42,1.64-2.7,3.39-3.88,5.2-1.22,1.87-2.34,3.8-3.41,5.76-1.07,1.97-2.07,3.97-3.06,5.97-.48.99-.96,1.98-1.44,2.96-.49,1.02-.92,2.1-1.51,3.06-.58.97-1.35,1.82-2.04,2.71-.59.77-1.18,1.53-1.77,2.3-1.33,1.72-2.65,3.44-3.98,5.17-1.02,1.32-2.03,2.64-3.05,3.96-.21.27-.42.54-.63.81-.14.18-.41.12-.47-.1-.2-.7-.45-1.26-.26-2.13.48-2.23,7.35-9.44,9.22-12.22C17.42,21.97,21.86,2.66,39.09.31c2.72-.37,7.3-.8,9.61,1.2.21.18.06.52-.22.47Z"/>
  <path class="cls-6" d="M54,30.58c-.7,1.75-1.69,3.36-2.93,4.84-1.67,1.99-3.71,3.56-5.78,5.11-6.69,5.01-19.35,5.28-27.23,1.91-.43-.18-.29-.68-.29-.68.12-.51,1-.38,1.52-.3,11.28,1.9,22.52,1.61,30.49-7.85,1.7-2.02,2.91-4.38,3.67-6.9.85-2.83,1.04-5.74,1.34-8.67.06-.57.12-1.15.28-1.7.04-.15.12-.32.28-.32.1,0,.18.07.24.14.43.51.36,1.26.28,1.93-.37,3.15-.36,6.34-.96,9.46-.2,1.05-.5,2.06-.89,3.03Z"/>
  <path class="cls-2" d="M46.04,54.82c.22,0,.61.06.75-.14.24-.34.19-.85-.12-1.13-.34-.3-.82-.27-1.24-.34-1.09-.2-2.2-.34-3.3-.48-1.99-.26-3.95-.64-5.95-.73-.25.01-.5.02-.75.03-1.28.01-2.44.25-3.7.42-1.34.17-2.59.44-3.89.8-.32.09-.64.18-.97.25-.35.07-.7.11-1.04.24-.12.05-.24.11-.32.2-.1.12-.15.27-.17.43-.09.94,1.05.95,1.7.85.57-.09,1.14-.2,1.7-.33,1.13-.24,2.25-.53,3.38-.8.45-.11.9-.22,1.35-.33.4-.09.8-.19,1.21-.28.4.05.8.1,1.21.14.74.08,1.47.16,2.21.24,1.76.2,3.5.46,5.25.67.6.07,1.2.18,1.81.24.3.03.6.06.9.05Z"/>
  <path class="cls-1" d="M63.74,5.53c-.45.08-.64.31-.83.71-.17.35-.28.73-.45,1.08-.29.61-.77,1.09-1.24,1.56-.68.68-1.81,1.54-2.47,2.23-.97,1.01-1.65,1.7-2.71,2.62-.16.14-.32.27-.51.35-.57.23-1.11-.3-1.28-.8-.13-.39-.12-.82-.08-1.22.09-.91.34-2.38.51-3.28.11-.61.18-1.22.22-1.83.02-.31.03-.61.03-.92,0-.15.1-.38.04-.52l-.05.03-.21.2c-.19.19-.35.42-.44.73-.18.59-.24,1.2-.35,1.8-.18.95-.46,1.88-.63,2.83-.16.92-.25,1.96.18,2.82.24.48.63.84,1.09,1.12.25.15.56.36.87.34.13,0,.25-.07.35-.15l.02-.05.1-.1.22-.22c1.17-1.16,2.31-2.38,3.57-3.44,1.19-1.01,2.32-2.07,3.29-3.3.1-.13.21-.27.32-.42.12-.16.21-.3.34-.54.06-.11.11-.26.13-.32l.06-.24c.06-.25.07-.51.09-.77,0-.12-.04-.21-.11-.29h-.04Z"/>
  <path class="cls-3" d="M19.26,26.65l.03-.12.02-.12c.03-.12.09-.23.17-.31.34-.34.96-.09,1.22.31.27.4.34.91.58,1.32.33.55.93.88,1.53,1.09,4.55,1.61,7.5-2.12,9.41-5.64.19-.35.62-.91,1.05-.97.49-.07.92.41.84.89-.28,1.68-1.07,3.31-2.07,4.68-1.68,2.31-4.43,4.2-7.45,3.93-2.59-.23-5.77-2.07-5.34-5.07ZM46.41,21.07l-.03.11c-3.07,10.28-15.8,19.64-26.75,15.39-1.65-.64-4.18-1.91-3.89-4.07.25-1.18.98-.68,1.61-.16,1.34,1.11,3.16,1.75,4.84,2.18,7.61,1.92,15.88-2.9,20.25-8.94.42-.57.79-1.17,1.14-1.77l.13-.26c.52-1.07,1.03-2.13,1.56-3.2.12-.25.28-.52.55-.57.3-.06.58.21.66.5.06.26.01.52-.06.78Z"/>
</svg>