<?xml version="1.0" encoding="UTF-8"?>
<svg id="Layer_11" data-name="Layer 11" xmlns="http://www.w3.org/2000/svg" viewBox="0 0 358.72 379.91">
  <defs>
    <style>
      .cls-1 {
        fill: #737438;
      }
    </style>
  </defs>
  <path class="cls-1" d="M215.12,183.64c.02-2.34-.08-3.49-.7-5.8-.14-.59-.37-1.15-.61-1.69-.23-.55-.53-1.06-.84-1.57-.29-.51-.63-.99-.97-1.48-.17-.24-.32-.49-.5-.72-.17-.24-.34-.47-.51-.72l-.42-.6-.45-.57c-.29-.38-.59-.77-.88-1.16-.34-.44-.64-.9-1-1.31-.36-.42-.72-.83-1.15-1.18-.45-.36-.92-.74-1.25-1.19-.44-.56-.9-1.08-1.45-1.48-.27-.21-.55-.39-.84-.57-.29-.17-.6-.3-.92-.43-.81-.34-1.45-.84-2-1.52-.2-.23-.42-.47-.67-.66-.25-.19-.49-.38-.74-.57l-.77-.53c-.51-.36-1.04-.68-1.57-1.01-.19-.12-.38-.27-.58-.33-.61-.19-1.18-.45-1.76-.7-.29-.13-.57-.26-.86-.4l-.43-.21c-.14-.07-.29-.13-.44-.2-1.98-.95-4.13-1.56-6.28-2.05-.34-.07-.66-.21-.99-.31-.33-.11-.66-.25-1-.3-2.35-.39-4.75-.54-7.11-.23-.46.07-.92.13-1.36.23-.45.09-.87.27-1.27.49-.59.32-1.19.52-1.83.64-.64.1-1.28.18-1.94.23-.49.03-.97.1-1.45.15-.24.03-.49.06-.73.11-.24.05-.47.12-.7.19-.84.25-1.66.56-2.48.9-.79.37-1.58.77-2.26,1.34-.2.16-.44.29-.68.41-.24.12-.49.25-.73.38-1.32.7-2.58,1.5-3.79,2.38-.5.4-.99.8-1.46,1.23l-.7.64-.36.31-.35.32c-.25.22-.5.44-.75.65-.25.22-.48.46-.71.69-.23.24-.46.48-.67.73-.2.26-.39.54-.57.82-.3.47-.58.96-.87,1.44-.3.47-.57.97-.83,1.46-.1.19-.24.36-.35.55-.3.58-.71,1.07-1.11,1.56l-.6.75-.3.38c-.09.13-.18.26-.27.4-.25.4-.53.78-.81,1.16-.27.39-.56.76-.85,1.13-1.36,1.78-2.25,3.9-2.56,6.18-.03.21-.06.42-.1.63-.03.21-.07.42-.13.62-.1.34-.19.67-.28,1.01-.08.34-.14.68-.18,1.02-.04.34-.08.69-.06,1.03.02.35.07.69.16,1.04.05.2-.02.45-.03.67,0,1.83-.16,3.69.21,5.5.41,1.88.68,3.78,1.06,5.68.09.41.24.81.28,1.22.09.68.29,1.34.54,1.97.28.61.6,1.2.99,1.72.29.38.51.76.7,1.15.2.39.37.78.52,1.18.18.5.4.98.64,1.44.12.23.25.46.4.68.15.22.31.43.49.63.21.24.41.5.6.76.19.26.37.53.49.81.29.7.79,1.26,1.27,1.81.24.27.52.53.76.79.26.26.49.55.72.83.04.05.19.02.29.05.39.09.77.22,1.12.38.35.16.7.34,1.01.56.62.44,1.18.96,1.61,1.6.88,1.2,2.07,2.08,3.16,3.07.97.92,2.25,1.54,3.46,2.17,1.54.77,3.14,1.45,4.79,1.95,1.97.6,4,.97,6.03,1.22l1.21.14c.41.03.81.06,1.21.1l1.21.13c.4.05.81.12,1.21.22.38.07.79.12,1.2.14.2,0,.41,0,.61,0,.2-.02.4-.05.59-.09,1.91-.38,3.76-.61,5.7-.72.35-.02.7-.05,1.04-.1.34-.06.68-.13,1.02-.22.68-.15,1.34-.41,1.99-.67.33-.13.66-.28.99-.41.33-.13.67-.26,1-.38.49-.21,1-.4,1.48-.63.48-.24.92-.53,1.31-.89.34-.3.62-.61,1.04-.82.24-.12.47-.24.71-.37l.69-.4.69-.41c.22-.14.44-.3.66-.45l.81-.56.79-.59c.54-.38,1.05-.79,1.58-1.19.16-.12.31-.24.46-.37.15-.13.29-.27.43-.4.28-.28.57-.55.84-.84.52-.6,1.05-1.19,1.55-1.81.22-.27.45-.55.66-.83.21-.29.42-.57.65-.84.35-.41.78-.76,1.08-1.21.42-.61.77-1.26,1.14-1.89.19-.32.34-.65.52-.97.17-.33.35-.65.5-.98.31-.67.65-1.32.94-1.99.15-.33.31-.67.47-1,.15-.34.3-.67.45-1.01l.24-.51c.08-.17.14-.35.21-.53l.41-1.06c.91-2.34,1.39-5.17,1.4-7.67,0-1.11-.53-3.13-.43-4.24.14-1.57-.18-2.69.09-4.24.06-.35.09-.68.09-.99Z"/>
</svg>