<?xml version="1.0" encoding="UTF-8"?>
<svg id="Layer_11" data-name="Layer 11" xmlns="http://www.w3.org/2000/svg" viewBox="0 0 358.72 379.91">
  <defs>
    <style>
      .cls-1 {
        fill: #737438;
      }
    </style>
  </defs>
  <path class="cls-1" d="M208.94,210.34c1.67-1.64,2.41-2.52,3.61-4.6.32-.52.56-1.07.77-1.63.22-.55.37-1.13.52-1.7.15-.57.25-1.15.36-1.73.05-.29.11-.57.16-.86.04-.29.09-.58.15-.87l.13-.72.09-.73c.06-.48.13-.96.19-1.44.07-.55.18-1.09.22-1.63.04-.55.08-1.09.02-1.64-.07-.57-.12-1.17-.05-1.72.08-.71.13-1.4.02-2.07-.05-.34-.11-.67-.19-.99-.09-.32-.21-.64-.34-.95-.34-.81-.43-1.62-.34-2.49.02-.31.03-.63,0-.94-.04-.31-.07-.62-.12-.92l-.17-.92c-.1-.61-.25-1.22-.4-1.82-.05-.22-.08-.45-.18-.65-.3-.57-.52-1.15-.74-1.74-.11-.29-.22-.59-.32-.89l-.15-.45c-.06-.15-.11-.3-.17-.45-.73-2.08-1.81-4.03-2.99-5.89-.19-.29-.32-.61-.48-.92-.16-.31-.29-.64-.5-.92-1.38-1.93-2.98-3.74-4.86-5.19-.37-.28-.74-.55-1.12-.8-.38-.25-.81-.43-1.25-.55-.64-.19-1.21-.47-1.74-.84-.52-.38-1.03-.78-1.54-1.21-.37-.32-.75-.61-1.13-.92-.19-.15-.39-.3-.59-.44-.21-.13-.42-.25-.63-.36-.77-.41-1.57-.78-2.38-1.12-.83-.3-1.66-.57-2.55-.65-.26-.03-.52-.1-.77-.19-.26-.09-.52-.17-.78-.25-1.43-.44-2.89-.77-4.36-1-.63-.07-1.27-.14-1.9-.17l-.95-.04-.47-.03-.47-.02c-.33-.02-.66-.05-.99-.07-.33-.03-.66-.02-.99-.02-.33,0-.66.01-.99.05-.33.04-.66.1-.98.18-.55.12-1.09.27-1.63.4-.55.12-1.08.28-1.62.44-.21.06-.43.08-.64.14-.62.19-1.26.25-1.89.32l-.95.11-.48.06c-.16.03-.31.06-.47.09-.46.1-.93.17-1.39.25-.46.08-.93.15-1.4.2-2.21.3-4.35,1.17-6.18,2.56-.17.13-.34.25-.51.38-.17.13-.34.25-.53.35-.3.17-.61.34-.91.52-.3.18-.58.38-.85.59-.27.21-.54.43-.77.69-.23.26-.44.54-.62.84-.1.18-.33.3-.49.46-1.3,1.29-2.72,2.49-3.74,4.04-1.04,1.62-2.19,3.16-3.26,4.77-.22.35-.41.74-.66,1.06-.42.55-.74,1.15-1.01,1.77-.23.63-.43,1.27-.52,1.92-.07.47-.18.9-.32,1.31-.14.41-.29.81-.47,1.21-.23.48-.41.97-.56,1.47-.08.25-.15.5-.2.76-.05.26-.08.52-.1.79-.02.31-.06.64-.11.96-.05.32-.12.64-.23.92-.29.7-.33,1.45-.38,2.18-.02.37,0,.74-.02,1.1,0,.37-.04.73-.07,1.1,0,.07.12.15.17.23.22.34.39.7.52,1.06.14.36.25.73.32,1.11.12.75.16,1.51,0,2.27-.23,1.47,0,2.94.07,4.4.03,1.34.51,2.68.91,3.99.55,1.64,1.2,3.24,2.01,4.77.97,1.82,2.15,3.51,3.4,5.13l.76.95c.27.31.53.61.79.93l.76.95c.25.32.49.66.71,1.01.22.32.47.64.75.94.14.15.28.29.43.43.15.13.32.25.48.35,1.62,1.08,3.09,2.23,4.54,3.52.26.23.53.46.81.66.29.2.58.39.88.57.59.38,1.24.66,1.88.94.32.14.66.27.99.41.33.14.65.29.98.44.49.2.99.42,1.49.6.51.16,1.03.27,1.55.3.45.03.87,0,1.31.16.25.08.5.17.76.24l.77.21.77.2c.26.06.52.1.78.15l.97.18.97.15c.65.11,1.3.19,1.96.28.2.03.39.05.59.07.2.01.39.02.59.02.4,0,.79.01,1.19,0,.79-.05,1.59-.1,2.38-.19.35-.04.7-.07,1.06-.12.35-.05.7-.1,1.05-.14.54-.04,1.09.02,1.62-.09.73-.13,1.43-.34,2.15-.53.36-.09.7-.22,1.05-.32.35-.11.7-.21,1.05-.34.69-.25,1.39-.47,2.07-.74.34-.13.69-.25,1.04-.37.34-.14.69-.27,1.03-.39l.53-.19c.18-.07.35-.15.52-.22l1.04-.46c2.3-1.01,4.64-2.67,6.41-4.44.79-.78,1.84-2.59,2.69-3.3,1.21-1.01,1.77-2.03,3.06-2.93.29-.2.54-.41.77-.64Z"/>
</svg>